<svg xmlns="http://www.w3.org/2000/svg" width="1280" height="600" viewBox="0 0 1280 600" version="1.1">
	<path d="M 641 29.545 C 597.607 38.797, 573.235 79.491, 587.045 119.632 L 588.840 124.848 585.011 133.729 C 579.386 146.775, 578.510 150.602, 580.462 153.583 C 582.240 156.295, 586.062 156.795, 588.255 154.602 C 589.024 153.833, 591.095 149.220, 592.857 144.352 C 597.626 131.175, 596.968 131.637, 607.602 133.996 C 628.156 138.556, 642.378 137.419, 657.601 129.999 C 682.289 117.966, 697.067 91.879, 705.030 46.270 C 706.870 35.729, 707.106 32.528, 706.191 30.520 L 705.043 28 676.271 28.079 C 655.814 28.136, 645.622 28.559, 641 29.545 M 643.500 40.482 C 619.260 45.827, 600.235 63.098, 595.974 83.626 C 594.740 89.569, 594.971 108.310, 596.294 109.630 C 596.731 110.065, 600.944 106.262, 605.657 101.177 C 615.477 90.582, 627.725 80.672, 638.793 74.364 C 647.372 69.475, 648.940 69.171, 651.420 71.912 C 654.678 75.512, 653.151 79.063, 646.814 82.618 C 637.524 87.830, 630.855 92.534, 624.132 98.618 C 615.752 106.202, 604.613 120.013, 605.866 121.266 C 609.743 125.143, 634.732 126.253, 645.217 123.015 C 663.171 117.469, 677.446 101.226, 686.403 76.151 C 689.095 68.616, 694 46.322, 694 41.624 L 694 39 671.750 39.079 C 657.271 39.131, 647.405 39.621, 643.500 40.482 M 537 86.922 C 452.053 115.674, 387.249 187.873, 367.978 275.231 C 362.526 299.943, 362.912 309, 369.416 309 C 373.315 309, 374.649 306.081, 376.498 293.500 C 389.935 202.114, 452.800 127.805, 542.771 96.956 C 556.199 92.352, 558.633 90.141, 555.511 85.377 C 553.361 82.096, 550.571 82.329, 537 86.922 M 721.104 85.896 C 716.207 90.793, 718.583 93.304, 733.958 99.483 C 821.169 134.533, 881.179 210.431, 891.510 298.749 C 893.308 314.118, 893.532 314.871, 896.651 316.057 C 902.355 318.226, 904.627 314.012, 903.567 303.227 C 894.231 208.229, 830.231 125.084, 738.377 88.622 C 725.823 83.639, 723.697 83.303, 721.104 85.896 M 630.557 167.223 C 628.638 169.963, 628.466 181.382, 630.290 185 C 631.699 187.796, 635.356 188.780, 637.555 186.954 C 639.695 185.179, 639.593 168.736, 637.429 166.571 C 635.210 164.353, 632.379 164.621, 630.557 167.223 M 591.750 183.080 C 588.103 185.204, 589.599 189.298, 596.413 195.841 C 603.354 202.506, 603.271 202.461, 605.948 201.028 C 610.549 198.565, 608.881 193.775, 600.933 186.630 C 595.536 181.777, 594.605 181.417, 591.750 183.080 M 671.954 183.661 C 661.107 190.887, 657.215 201, 665.280 201 C 668.176 201, 679.212 189.488, 678.821 186.874 C 678.284 183.284, 674.898 181.700, 671.954 183.661 M 463.263 194.514 C 444.425 198.607, 429.931 214.378, 426.865 234.120 L 425.682 241.739 420.591 244.267 C 402.619 253.190, 393.809 274.379, 400.329 293 L 402.605 299.500 398.404 305.223 C 376.308 335.318, 399.143 377.251, 437.460 376.944 C 447.210 376.865, 451.407 375.313, 451.828 371.628 C 452.340 367.147, 451 366.647, 438.271 366.571 C 424.458 366.488, 418.422 364.270, 410.706 356.443 C 403.222 348.853, 400.651 342.978, 400.180 332.399 C 399.684 321.273, 401.397 316.632, 408.944 308.653 C 414.817 302.443, 414.869 302.127, 411.295 294.371 C 403.367 277.164, 411.936 256.509, 428.901 251.936 C 436.405 249.913, 437 248.963, 437 239.005 C 437 211.395, 466.056 194.929, 491.268 208.250 C 502.836 214.362, 509.090 224.735, 509.809 239 C 510.312 248.990, 510.584 249.439, 517.334 251.432 C 535.393 256.765, 543.542 275.838, 535.248 293.362 C 531.190 301.936, 531.129 301.324, 536.524 306.234 C 551.854 320.186, 551.169 342.370, 534.944 357.392 C 526.714 365.011, 518.684 367.565, 505.978 366.606 C 498.658 366.053, 496.934 366.209, 495.600 367.543 C 490.975 372.167, 495.608 375.957, 506.825 376.725 C 546.368 379.436, 571.682 334.938, 548.142 304.099 C 544.847 299.782, 544.748 299.411, 545.861 295.543 C 548.695 285.698, 549.259 279.996, 548.023 273.688 C 545.348 260.036, 537.208 249.236, 525.642 243.992 L 519.270 241.102 518.785 233.547 C 517.108 207.424, 490.368 188.625, 463.263 194.514 M 783.516 204.856 C 756.744 212.574, 753.398 213.768, 752.281 216 C 751.381 217.798, 751.025 225.484, 751.015 243.367 L 751 268.233 748.750 267.553 C 733.876 263.055, 721 271.539, 721 285.838 C 721 306.491, 748.132 313.241, 758.723 295.223 L 761.500 290.500 761.797 255.935 L 762.095 221.369 785.057 215.028 C 797.686 211.540, 808.348 209.014, 808.749 209.416 C 809.151 209.817, 809.484 219.773, 809.490 231.539 L 809.501 252.932 802.352 252.328 C 786.912 251.023, 776.681 262.624, 780.452 277.161 C 785.039 294.845, 809.722 297.226, 818.105 280.793 C 820.915 275.286, 821.106 200.880, 818.318 197.799 C 816.110 195.359, 817.292 195.119, 783.516 204.856 M 623.871 199.476 C 592.035 211.190, 602.887 260.181, 636.547 256.707 C 663.038 253.973, 673.157 218.953, 651.875 203.656 C 644.244 198.170, 632.275 196.384, 623.871 199.476 M 625.500 209.665 C 617.070 214.119, 612.744 223.562, 615.090 232.385 C 620.944 254.395, 653 250.353, 653 227.605 C 653 218.985, 649.634 212.981, 642.800 209.411 C 639.197 207.529, 629.267 207.675, 625.500 209.665 M 574.200 223.200 C 573.540 223.860, 573 225.345, 573 226.500 C 573 230.206, 574.941 231, 584 231 C 593.059 231, 595 230.206, 595 226.500 C 595 222.794, 593.059 222, 584 222 C 578.644 222, 574.947 222.453, 574.200 223.200 M 673.932 224.126 C 673.106 225.670, 673.091 226.904, 673.876 228.626 C 674.890 230.852, 675.485 231, 683.397 231 C 693.677 231, 695 230.555, 695 227.093 C 695 222.741, 693.376 222, 683.835 222 C 675.920 222, 674.960 222.206, 673.932 224.126 M 596.401 257.198 C 588.315 264.651, 587.157 271, 593.883 271 C 597.160 271, 608 260.461, 608 257.274 C 608 251.729, 602.374 251.693, 596.401 257.198 M 661.405 255.505 C 659.559 258.322, 659.672 258.567, 665.946 265.332 C 671.254 271.056, 674.666 272.613, 677.091 270.418 C 679.972 267.810, 679.425 265.417, 674.802 260.401 C 667.938 252.955, 664.015 251.521, 661.405 255.505 M 796.378 262.437 C 786.303 266.822, 788.814 281, 799.666 281 C 811.240 281, 814.123 266.039, 803.339 261.939 C 800.272 260.773, 800.188 260.779, 796.378 262.437 M 630.557 268.223 C 629.505 269.724, 629 272.733, 629 277.500 C 629 285.510, 630.676 289, 634.522 289 C 635.879 289, 637.381 288.156, 637.965 287.066 C 639.426 284.336, 639.296 268.696, 637.800 267.200 C 635.891 265.291, 632.250 265.805, 630.557 268.223 M 736.595 277.527 C 728.252 281.878, 729.404 293.306, 738.414 295.568 C 750.038 298.485, 756.429 282.002, 745.452 277.415 C 741.199 275.639, 740.192 275.651, 736.595 277.527 M 468.872 279.654 C 467.811 280.933, 467.500 285.790, 467.500 301.069 C 467.500 311.938, 467.161 321.170, 466.747 321.585 C 466.332 322, 462.446 318.889, 458.111 314.670 C 449.794 306.576, 448.319 305.885, 445.655 308.829 C 442.750 312.039, 443.765 313.788, 455.603 325.979 L 467.205 337.927 467.293 377.940 C 467.341 399.947, 467.116 418.218, 466.792 418.541 C 466.468 418.865, 465.468 416.914, 464.568 414.205 C 460.194 401.036, 444.446 392.362, 431.343 395.903 C 422.265 398.357, 412.389 407.905, 410.179 416.365 C 409.360 419.499, 409.358 419.500, 403.263 419.155 C 384.662 418.102, 371.928 430.774, 373.235 449.036 L 373.719 455.804 367.953 459.870 C 359.069 466.136, 353.626 478.696, 357.035 485.066 C 359.394 489.473, 366 485.825, 366 480.115 C 366 473.353, 371.286 468.443, 384.250 463.163 C 387.389 461.884, 387.779 459.408, 385.529 455.055 C 377.826 440.159, 391.102 424.800, 406.760 430.493 C 415.631 433.718, 417.309 433.279, 418.216 427.500 C 418.648 424.750, 419.248 421.028, 419.550 419.229 C 420.717 412.273, 430.221 405, 438.144 405 C 449.033 405, 456.353 413.036, 456.499 425.151 C 456.601 433.531, 456.556 433.489, 465.575 433.549 C 471.361 433.586, 473.587 434.037, 475.742 435.607 C 479.009 437.988, 483 445.358, 483 449.012 C 483 452.172, 484.677 454, 487.578 454 C 494.494 454, 493.213 438.899, 485.601 430.698 C 482.118 426.947, 482.244 426.568, 487.750 424.222 C 500.334 418.861, 519.524 414.294, 541.246 411.491 C 545.153 410.987, 546.097 410.460, 546.586 408.511 C 547.497 404.882, 546.192 402.201, 543.194 401.543 C 536.805 400.139, 501.369 407.837, 487.500 413.640 C 484.200 415.021, 480.712 416.395, 479.750 416.692 C 478.103 417.202, 478 414.775, 478 375.279 L 478 333.325 489.500 321.256 C 501.053 309.132, 502.752 306.152, 499.800 303.200 C 497.252 300.652, 494.417 302.124, 486.271 310.228 L 478 318.456 478 299.799 C 478 284.172, 477.745 280.888, 476.429 279.571 C 474.380 277.523, 470.607 277.564, 468.872 279.654 M 829.139 316.088 C 812.956 321.032, 803.525 340.545, 810.235 355.201 C 819.533 375.511, 846.825 378.988, 860.120 361.556 C 874.210 343.082, 862.117 316.521, 839.100 315.386 C 835.470 315.207, 830.988 315.523, 829.139 316.088 M 643.849 319.388 C 636.904 321.258, 633.816 323.600, 634.190 326.712 C 634.692 330.895, 636.985 331.593, 643.493 329.546 C 653.837 326.292, 663.396 329.005, 667.115 336.250 C 669.816 341.511, 673.497 341.454, 677.812 336.084 C 682.730 329.964, 687.658 329.042, 701.661 331.619 C 706.503 332.510, 709.310 328.023, 706.069 324.573 C 700.168 318.292, 684.619 318.488, 674.387 324.971 C 672.521 326.153, 671.876 326.010, 668.887 323.751 C 662.229 318.721, 652.573 317.038, 643.849 319.388 M 828.975 327.250 C 810.845 336.420, 817.210 363.286, 837.514 363.286 C 857.241 363.286, 863.489 335.708, 845.711 327.102 C 840.103 324.387, 834.538 324.436, 828.975 327.250 M 758.418 340.969 C 752.963 343.176, 749.148 351.360, 750.291 358.405 C 750.934 362.367, 763.851 385.796, 768.658 391.719 C 772.580 396.551, 780.415 400.653, 792.250 404.070 C 798.743 405.945, 799.999 406.648, 799.996 408.404 C 799.991 410.877, 797.482 426.655, 795.979 433.665 L 794.927 438.569 779.344 449.008 C 770.773 454.750, 762.741 460.809, 761.494 462.474 C 758.286 466.758, 745.773 500.711, 746.527 503.086 C 746.862 504.140, 748.035 505.484, 749.135 506.072 C 753.159 508.226, 755.315 505.187, 761.008 489.331 C 769.107 466.777, 767.654 468.674, 786.876 455.556 C 806.432 442.210, 804.483 445.486, 808.193 419.710 C 811.198 398.839, 811.823 399.953, 793.762 393.984 C 777.601 388.643, 776.210 387.539, 769.485 374.715 C 766.827 369.647, 763.606 363.821, 762.326 361.770 C 759.532 357.290, 759.336 352.911, 761.829 350.655 C 765.900 346.970, 767.022 348.123, 778.862 368.170 C 784.572 377.837, 783.509 377.188, 800.500 381.380 C 813.186 384.509, 822.307 385.767, 838 386.551 C 854.378 387.370, 855.760 387.785, 873.891 397.333 L 889.345 405.471 901.718 419.973 C 912.344 432.426, 914.050 434.900, 913.796 437.487 C 913.533 440.165, 913.095 440.534, 909.862 440.804 C 906.409 441.092, 905.598 440.481, 893.862 428.752 C 881.973 416.869, 881.124 416.235, 871.675 412.198 C 861.516 407.858, 857.020 407.066, 855.173 409.291 C 854.228 410.430, 851.820 420.005, 843.739 454.750 L 841.588 464.001 844.407 472.750 C 848.508 485.481, 850.769 490.375, 853.277 491.944 C 855.184 493.137, 868.277 494.169, 891.295 494.940 C 893.760 495.022, 898 499.459, 898 501.955 C 898 503.080, 897.100 504.900, 896 506 C 892.696 509.304, 842.356 509.071, 838.477 505.734 C 836.874 504.355, 832.600 496.419, 827.571 485.484 C 816.572 461.570, 818.693 462.474, 797.735 472.765 L 781.196 480.887 777.169 491.194 C 766.372 518.823, 764.898 523.898, 767.044 526.044 C 772.256 531.256, 774.046 528.450, 785.244 497.500 L 788.500 488.500 799.832 482.675 C 806.065 479.471, 811.744 477.072, 812.452 477.343 C 813.161 477.615, 816.836 484.934, 820.620 493.607 C 828.580 511.852, 831.256 515.246, 838.986 516.904 C 848.084 518.855, 894.808 518.344, 898.980 516.248 C 909.509 510.959, 909.990 494.222, 899.792 488.020 C 895.852 485.623, 892.645 485.161, 873.500 484.230 L 858.500 483.500 855.131 473.500 L 851.762 463.500 855.965 445.500 C 862.095 419.246, 861.864 420, 863.789 420.001 C 870.140 420.004, 884.546 431.088, 894.007 443.251 C 904.382 456.589, 924.096 452.146, 923.963 436.500 C 923.918 431.174, 923.515 430.560, 908.583 413.079 C 894.261 396.312, 895.402 397.195, 874.500 386.698 C 857.435 378.128, 854.625 377.409, 833 376.079 C 817.759 375.141, 793.895 370.979, 791.261 368.798 C 790.579 368.234, 787.032 362.868, 783.378 356.874 C 774.971 343.079, 771.619 339.977, 765.215 340.063 C 762.622 340.098, 759.563 340.506, 758.418 340.969 M 589.277 344.024 C 566.463 351.474, 558.948 380.065, 575 398.347 C 578.552 402.393, 578.383 402.958, 573 405.021 C 562.965 408.868, 551.969 418.925, 547.756 428.108 L 545.512 433 539.791 433 C 532.256 433, 532 433.586, 532 450.868 L 532 464.868 527.841 467.684 C 522.057 471.601, 519.799 475.041, 519.247 480.776 C 518.617 487.334, 521.538 494.033, 526.403 497.185 C 530.799 500.034, 530.816 500.303, 526.696 501.793 C 512.193 507.037, 507.743 528.396, 518.773 539.826 C 523.108 544.318, 523.877 544.630, 569 560.163 C 610.949 574.603, 615.744 574.967, 624.777 564.400 C 628.258 560.326, 629.903 559.460, 644.537 553.994 C 668.224 545.146, 674.759 541.599, 678.468 535.578 C 685.030 524.927, 681.553 510.420, 670.779 503.500 C 665.290 499.974, 665.206 499.763, 668.583 497.956 C 678.930 492.418, 678.094 473.107, 667.250 467.175 L 663 464.850 663 449.982 C 663 433.397, 662.416 432, 655.478 432 C 652.829 432, 652.216 431.480, 651.059 428.250 C 647.702 418.871, 639.907 411.160, 628.443 405.875 C 624.624 404.115, 621.359 402.569, 621.186 402.440 C 621.014 402.311, 622.841 399.331, 625.246 395.817 C 630.793 387.715, 632.397 382.058, 631.789 372.746 C 630.416 351.717, 609.334 337.474, 589.277 344.024 M 589 355.250 C 562.852 369.207, 581.984 408.465, 609 396.288 C 624.710 389.208, 626.532 366.467, 612.187 356.522 C 606.078 352.288, 595.625 351.714, 589 355.250 M 584.691 411.501 C 572.910 414.740, 562.264 422.256, 557.956 430.377 C 555.106 435.750, 554.326 434.922, 566 438.928 C 571.225 440.721, 580.563 444.590, 586.751 447.525 L 598.002 452.862 610.251 447.052 C 616.988 443.856, 626.888 439.800, 632.250 438.039 C 642.579 434.645, 643.120 434.067, 640.577 429.148 C 636.974 422.182, 625.348 414.368, 614.307 411.492 C 607.311 409.670, 591.335 409.674, 584.691 411.501 M 661.533 414.943 C 659.732 416.951, 659.692 417.361, 661.058 419.794 C 662.478 422.324, 663.147 422.512, 674.870 423.683 C 696.605 425.855, 721.451 431.498, 739.405 438.339 C 748.769 441.907, 751.396 441.997, 753.103 438.808 C 755.049 435.171, 752.058 432.790, 739.887 428.289 C 717.643 420.062, 693.632 414.697, 673.136 413.373 C 664.073 412.787, 663.383 412.881, 661.533 414.943 M 542.648 443.685 C 542.292 444.042, 542 448.951, 542 454.594 L 542 464.854 545.521 467.757 C 554.858 475.453, 555.601 487.642, 547.255 496.232 C 545.261 498.284, 543.942 500.275, 544.323 500.656 C 545.213 501.547, 587.766 519.001, 590.766 519.706 L 593.031 520.239 592.766 491.401 L 592.500 462.563 588.500 460.298 C 576.525 453.517, 544.441 441.892, 542.648 443.685 M 643.176 445.545 C 633.667 448.166, 616.872 454.769, 609.500 458.784 L 604.500 461.507 604.235 491.254 C 604.089 507.614, 604.134 521, 604.335 521 C 604.535 521, 610.279 518.373, 617.099 515.163 C 623.920 511.952, 634.337 507.403, 640.250 505.053 C 646.163 502.703, 651 500.464, 651 500.077 C 651 499.690, 649.595 498.052, 647.877 496.437 C 639.494 488.554, 640.247 475.490, 649.491 468.439 L 653 465.763 653 454.940 C 653 448.988, 652.663 443.923, 652.250 443.684 C 651.837 443.445, 647.754 444.283, 643.176 445.545 M 531.455 477.455 C 524.966 483.943, 533.926 493.929, 541.056 488.156 C 544.352 485.487, 544.142 480.379, 540.611 477.342 C 537.129 474.346, 534.531 474.378, 531.455 477.455 M 653.557 478.223 C 649.882 483.469, 653.092 490, 659.345 490 C 663.452 490, 666.333 487.114, 666.333 483 C 666.333 476.512, 657.158 473.081, 653.557 478.223 M 716.479 509.740 C 698.957 516.013, 691.627 533.765, 699.600 550.619 C 712.496 577.880, 754.294 567.472, 754.294 537 C 754.294 517.274, 734.764 503.195, 716.479 509.740 M 531 510.702 C 521.633 514.098, 519.452 527.561, 527.331 533.350 C 530.447 535.639, 595.924 559.094, 605.133 561.220 C 615.564 563.628, 623.110 554.915, 618.430 545.865 C 616.694 542.508, 614.119 541.180, 589.500 530.945 C 539.138 510.007, 535.954 508.906, 531 510.702 M 649 512.931 C 644.875 514.489, 637.900 517.330, 633.500 519.243 C 609.729 529.579, 610.770 528.742, 617.590 532.044 C 622.550 534.444, 627.469 540.306, 628.513 545.058 C 629.329 548.775, 628.710 548.842, 643.675 543.417 C 661.785 536.852, 666.221 534.714, 669.285 531.074 C 674.428 524.961, 671.889 514.523, 664.510 511.440 C 659.770 509.459, 657.649 509.663, 649 512.931 M 719.211 519.129 C 709.218 522.011, 703.376 535.627, 707.880 545.541 C 714.239 559.541, 735.083 560.559, 741.897 547.202 C 750.344 530.645, 736.913 514.024, 719.211 519.129" stroke="none" fill="#1D5F3A" fill-rule="evenodd"/>
</svg>