<svg xmlns="http://www.w3.org/2000/svg" width="1000" height="500" viewBox="-43.0 -41.8 1365.0 682.5">
	<path d="M 641 28.545 C 597.211 37.881, 572.189 79.356, 586.045 119.632 L 587.840 124.848 584.011 133.729 C 578.130 147.370, 577.420 150.744, 579.769 153.904 C 584.620 160.432, 589.183 157.315, 593.842 144.290 C 598.027 132.591, 597.706 132.799, 608 135.081 C 628.174 139.554, 642.475 138.372, 657.645 130.978 C 683.171 118.535, 698.893 90.377, 706.564 43.365 C 708.282 32.834, 708.288 32.089, 706.667 29.615 L 704.954 27 676.227 27.079 C 655.807 27.136, 645.620 27.560, 641 28.545 M 643.500 41.482 C 613.598 48.076, 596 68.507, 596 96.628 C 596 110.501, 595.977 110.493, 605.750 100.020 C 618.384 86.480, 642.222 69, 648.051 69 C 650.483 69, 654 73.297, 654 76.268 C 654 79.229, 653.029 80.056, 641.895 86.567 C 629.559 93.781, 612.031 110.144, 606.939 119.201 C 604.499 123.540, 632.861 125.756, 644.722 122.153 C 667.530 115.225, 683.166 92.816, 690.514 56.525 C 694.284 37.909, 696.717 39.986, 671.250 40.079 C 657.187 40.131, 647.379 40.627, 643.500 41.482 M 537 85.898 C 451.624 114.970, 386.279 187.736, 366.978 275.231 C 362.765 294.327, 362.070 305.070, 364.867 307.867 C 367.627 310.627, 371.124 310.581, 373.696 307.750 C 375.225 306.067, 376.184 302.478, 377.501 293.500 C 390.901 202.211, 453.064 128.714, 542.940 97.898 C 553.502 94.277, 555.289 93.342, 556.638 90.733 C 558.079 87.946, 558.051 87.544, 556.246 85.116 C 553.428 81.324, 550.029 81.462, 537 85.898 M 720.566 85.343 C 715.083 90.826, 717.922 94.039, 733.937 100.475 C 821.041 135.480, 880.234 210.591, 890.563 299.219 C 892.240 313.608, 892.932 315.643, 896.626 317.048 C 902.571 319.308, 905.493 314.557, 904.597 304.086 C 896.546 209.983, 830.741 124.287, 738.377 87.622 C 725.334 82.445, 723.677 82.233, 720.566 85.343 M 629.980 166.750 C 627.087 170.423, 627.365 183.536, 630.408 186.898 C 632.750 189.486, 636.144 189.603, 638.345 187.171 C 640.963 184.278, 640.710 168.710, 638 166 C 635.244 163.244, 632.542 163.497, 629.980 166.750 M 591.223 182.557 C 587.074 185.463, 588.261 188.959, 595.903 196.336 C 603.383 203.558, 603.239 203.478, 606.043 201.977 C 611.697 198.951, 610.339 194.253, 601.469 186.146 C 595.321 180.527, 594.521 180.247, 591.223 182.557 M 671.913 182.688 C 662.027 189.263, 657.787 196.687, 661.829 200.345 C 664.875 203.101, 666.903 202.282, 673.593 195.593 C 680.223 188.962, 681.244 186.378, 678.250 183.807 C 675.202 181.189, 674.384 181.045, 671.913 182.688 M 463.402 193.486 C 444.412 197.617, 429.080 214.005, 425.929 233.541 L 424.707 241.115 420.104 243.453 C 401.951 252.674, 392.828 274.434, 399.329 293 L 401.605 299.500 397.404 305.223 C 374.591 336.295, 399.940 379.881, 439.612 377.799 C 449.331 377.289, 453 375.453, 453 371.099 C 453 366.374, 451.057 365.650, 438.182 365.571 C 427.546 365.506, 426 365.254, 420.911 362.755 C 408.520 356.670, 401.800 346.331, 401.180 332.399 C 400.684 321.273, 402.397 316.632, 409.944 308.653 C 415.817 302.443, 415.869 302.127, 412.295 294.371 C 404.416 277.270, 412.435 257.367, 429 252.912 C 436.847 250.802, 438 249.017, 438 238.985 C 438 211.729, 466.193 196.001, 491.285 209.259 C 502.356 215.109, 508.099 224.858, 508.805 239 C 509.303 248.976, 510.146 250.301, 517.373 252.465 C 534.987 257.738, 542.487 275.954, 534.229 293.403 C 530.466 301.354, 530.620 302.557, 535.954 306.843 C 546.344 315.193, 549.578 332.290, 543.213 345.219 C 535.953 359.965, 523.245 366.909, 505.912 365.601 C 497.778 364.987, 496.898 365.102, 494.972 367.028 C 489.832 372.168, 495.050 376.918, 506.712 377.718 C 546.725 380.460, 572.842 335.147, 549.142 304.099 C 545.847 299.782, 545.748 299.411, 546.861 295.543 C 550.857 281.662, 550.448 273.088, 545.268 262.112 C 541.804 254.775, 532.768 245.924, 525.786 243.030 L 520.246 240.734 519.773 233.363 C 518.095 207.217, 490.385 187.615, 463.402 193.486 M 784 203.658 C 764.554 209.221, 753.818 212.771, 752.500 214.075 C 750.621 215.933, 750.482 217.594, 750.201 241.614 C 749.926 265.222, 749.773 267.123, 748.201 266.478 C 735.225 261.148, 720 271.640, 720 285.913 C 720 307.562, 748.496 314.326, 759.662 295.328 L 762.500 290.500 762.799 256.302 C 763.071 225.115, 763.247 222.061, 764.799 221.616 C 777.538 217.967, 806.894 210, 807.604 210 C 808.153 210, 808.530 218.619, 808.519 230.921 L 808.500 251.842 801.848 251.284 C 777.769 249.266, 769.544 280.913, 791.500 291.100 C 801.550 295.763, 813.809 291.176, 819.121 280.764 C 822.335 274.463, 822.051 200.747, 818.799 197.286 C 815.999 194.305, 817.923 193.953, 784 203.658 M 623.763 198.514 C 591.881 210.224, 600.104 257.582, 634 257.477 C 658.161 257.402, 673.137 228.909, 659.069 209.779 C 651.106 198.952, 635.835 194.079, 623.763 198.514 M 624.556 211.267 C 612.186 218.274, 612.702 238.327, 625.401 244.095 C 634.327 248.148, 645.283 245.152, 649.788 237.425 C 652.833 232.203, 652.616 220.653, 649.391 216.301 C 643.790 208.741, 632.909 206.536, 624.556 211.267 M 573.655 222.829 C 571.484 225.228, 571.555 228.287, 573.829 230.345 C 576.597 232.850, 592.039 232.719, 594.345 230.171 C 596.516 227.772, 596.445 224.713, 594.171 222.655 C 591.403 220.150, 575.961 220.281, 573.655 222.829 M 673.333 223.615 C 671.796 225.960, 671.772 226.503, 673.095 228.865 C 674.490 231.356, 675.047 231.516, 683.278 231.789 C 693.367 232.123, 696 231.157, 696 227.120 C 696 222.280, 693.426 221, 683.694 221 C 675.471 221, 674.962 221.129, 673.333 223.615 M 595.870 256.719 C 588.947 263.194, 587.361 266.375, 589.458 269.576 C 592.300 273.914, 595.865 272.852, 602.841 265.587 C 609.302 258.859, 610.197 256.393, 607.171 253.655 C 604.147 250.918, 601.224 251.711, 595.870 256.719 M 661.073 254.635 C 658.303 258.156, 658.264 258.034, 664.146 264.469 C 671.385 272.390, 674.457 273.859, 677.602 270.904 C 681.048 267.666, 680.606 265.562, 675.281 259.870 C 667.727 251.793, 664.301 250.531, 661.073 254.635 M 796.329 263.435 C 787.414 267.377, 789.921 280, 799.618 280 C 805.554 280, 809 276.775, 809 271.220 C 809 264.569, 802.624 260.652, 796.329 263.435 M 630.073 267.635 C 625.101 273.956, 628.288 290, 634.516 290 C 638.551 290, 640 286.548, 640 276.932 C 640 269.849, 639.674 268.015, 638.171 266.655 C 635.515 264.251, 632.442 264.623, 630.073 267.635 M 468.405 279.109 C 466.668 281.031, 466.523 282.686, 466.760 297.859 C 466.903 307.011, 466.761 316.012, 466.444 317.859 L 465.868 321.219 458.049 313.609 C 449.527 305.316, 448.419 304.861, 445.174 308.314 C 441.671 312.043, 442.404 313.416, 454.594 325.970 L 466.188 337.910 466.344 377.456 C 466.477 411.227, 466.309 416.429, 465.191 413.075 C 464.472 410.916, 462.157 407.187, 460.047 404.791 C 445.948 388.773, 422.794 391.483, 411.931 410.422 C 410.329 413.215, 409.015 416.245, 409.009 417.155 C 409.001 418.566, 408.139 418.732, 403.178 418.282 C 385.026 416.636, 370.939 430.556, 372.209 448.884 L 372.668 455.500 366.965 459.644 C 357.601 466.449, 352.315 479.722, 356.557 485.777 C 359.726 490.303, 367 486.454, 367 480.251 C 367 473.597, 371.582 469.327, 384.278 464.150 C 387.836 462.699, 388.649 460.492, 387.058 456.603 C 386.360 454.896, 385.313 451.596, 384.730 449.269 C 381.584 436.692, 393.771 426.837, 406.760 431.455 C 417.421 435.245, 418.484 434.766, 419.531 425.705 C 420.717 415.434, 423.025 411.588, 430.210 407.903 C 442.710 401.493, 455.311 410.132, 455.498 425.241 C 455.605 433.838, 456.298 434.488, 465.417 434.548 C 470.686 434.583, 473.496 435.095, 475.451 436.376 C 478.479 438.360, 481.944 445.114, 481.978 449.095 C 482.004 452.118, 484.784 455, 487.674 455 C 495.065 455, 494.721 440.749, 487.099 431.124 L 483.910 427.098 486.705 425.663 C 495.691 421.048, 519.495 415.302, 541.303 412.482 C 548.704 411.526, 550.751 403.391, 544.222 400.884 C 537.415 398.269, 500.251 406.856, 480.250 415.664 C 479.261 416.099, 479 407.552, 479 374.770 L 479 333.325 490.500 321.256 C 502.551 308.609, 503.895 306.025, 500.171 302.655 C 496.993 299.779, 494.750 300.796, 486.772 308.727 L 479 316.453 479 298.727 C 479 282.333, 478.850 280.850, 477 279 C 474.407 276.407, 470.804 276.453, 468.405 279.109 M 738 277.706 C 729.721 280.733, 730.051 292.469, 738.475 294.583 C 746.549 296.609, 752.953 288.386, 749.021 281.039 C 747.514 278.223, 741.534 276.414, 738 277.706 M 829.139 315.088 C 812.451 320.187, 802.461 340.405, 809.275 355.290 C 821 380.900, 858.017 379.112, 866.024 352.549 C 872.570 330.835, 850.606 308.529, 829.139 315.088 M 643.667 318.434 C 634.706 320.843, 630.773 325.881, 634.575 330.082 C 636.672 332.400, 638.146 332.448, 644 330.387 C 653.039 327.205, 662.892 330.027, 666.542 336.843 C 669.489 342.347, 673.684 342.450, 677.904 337.121 C 681.884 332.097, 686.398 330.504, 693.894 331.480 C 704.192 332.821, 705.097 332.705, 707.317 329.755 L 709.383 327.010 706.606 324.111 C 700.078 317.297, 685.022 317.232, 674.387 323.971 C 672.521 325.153, 671.876 325.010, 668.887 322.751 C 662.174 317.679, 652.583 316.037, 643.667 318.434 M 829.316 327.887 C 820.313 332.095, 816.469 344.051, 821.241 353 C 828.201 366.053, 848.804 365.224, 853.933 351.685 C 860.014 335.638, 844.605 320.742, 829.316 327.887 M 758.445 339.959 C 755.113 341.309, 750.151 347.678, 749.428 351.534 C 748.310 357.493, 749.514 361.142, 757.043 374.599 C 768.872 395.743, 771.872 398.500, 789.060 404.019 C 796.699 406.472, 799 407.621, 799 408.980 C 799 412.317, 794.800 435.499, 793.885 437.212 C 793.382 438.154, 786.415 443.301, 778.403 448.650 C 770.392 453.999, 762.634 459.834, 761.164 461.617 C 757.764 465.742, 744.695 500.462, 745.540 503.125 C 745.876 504.185, 747.268 505.785, 748.633 506.679 C 753.216 509.682, 755.710 506.460, 762 489.410 C 765.025 481.209, 768.129 473.008, 768.898 471.185 C 769.988 468.601, 774.027 465.325, 787.215 456.324 C 798.781 448.431, 804.450 443.946, 805.133 442.150 C 806.336 438.986, 810.994 409.786, 810.997 405.385 C 811.002 399.638, 808.175 397.586, 794.079 393.101 C 778.489 388.140, 776.866 386.881, 770.560 374.858 C 767.861 369.711, 764.606 363.821, 763.326 361.770 C 759.573 355.752, 760.831 349.217, 765.559 350.167 C 766.469 350.350, 770.736 356.350, 775.041 363.500 C 779.347 370.650, 783.686 377.034, 784.685 377.686 C 790.347 381.387, 818.355 386.570, 838 387.551 C 854.370 388.369, 855.766 388.788, 873.807 398.289 L 889.177 406.383 901.089 420.392 C 914.443 436.097, 916.140 440, 909.615 440 C 906.622 440, 904.797 438.575, 893.865 427.703 C 882.011 415.915, 881.094 415.233, 871.675 411.203 C 866.271 408.892, 860.603 407, 859.080 407 C 853.787 407, 853.965 406.481, 842.739 454.750 L 840.588 464.001 843.407 472.750 C 847.640 485.892, 849.931 490.725, 852.824 492.620 C 855.227 494.195, 864.968 495.036, 891.250 495.940 C 893.613 496.021, 897 499.549, 897 501.929 C 897 506.772, 895.674 507, 867.484 507 C 841.524 507, 841.073 506.965, 838.672 504.750 C 837.331 503.512, 832.757 494.850, 828.508 485.500 C 824.259 476.150, 820.098 467.724, 819.260 466.776 C 816.112 463.212, 814.265 463.648, 797.379 471.940 C 778.209 481.354, 780.904 477.897, 770.436 506.500 C 763.947 524.234, 763.780 525.742, 768.061 528.032 C 773.215 530.791, 775.673 526.931, 784.523 502.187 L 789.285 488.874 800.126 483.437 C 806.088 480.447, 811.382 478, 811.889 478 C 812.396 478, 815.891 485.071, 819.656 493.713 C 830.873 519.466, 830.437 519.255, 871.315 518.797 C 896.431 518.516, 898.010 518.388, 900.679 516.408 C 912.783 507.432, 909.538 488.859, 895.205 485.075 C 893.167 484.537, 884.187 483.783, 875.250 483.401 L 858.999 482.705 855.908 473.102 L 852.817 463.500 857.659 442.626 C 860.342 431.058, 863.051 421.540, 863.735 421.275 C 868.123 419.578, 882.512 430.449, 893.511 443.770 C 904.589 457.186, 923.249 453.876, 924.752 438.228 C 925.377 431.720, 924.940 431.006, 908.810 412.204 L 895.120 396.246 879.876 388.373 C 859.661 377.932, 856.842 377.004, 842.002 375.904 C 822.223 374.437, 812.240 373.165, 801.530 370.749 L 791.560 368.500 784.798 357.500 C 775.809 342.877, 771.683 338.979, 765.289 339.063 C 762.655 339.098, 759.575 339.501, 758.445 339.959 M 589.247 343.033 C 581.145 345.678, 571.340 354.517, 567.933 362.249 C 562.895 373.679, 565.388 388.538, 573.984 398.329 C 575.789 400.385, 577.094 402.199, 576.883 402.361 C 576.672 402.523, 574.925 403.264, 573 404.009 C 563.170 407.812, 551.378 418.457, 547.018 427.464 L 544.822 432 539.467 432 C 531.508 432, 531 433.121, 531 450.697 L 531 464.949 528.250 466.385 C 516.337 472.608, 514.564 489.036, 524.931 497.149 L 528.113 499.639 523.552 502.521 C 504.808 514.369, 508.114 539.283, 529.500 547.338 C 553.012 556.195, 602.231 572.413, 606.776 572.801 C 614.050 573.423, 619.951 570.998, 624.930 565.342 C 628.547 561.233, 630.292 560.313, 644.699 554.919 C 666.990 546.573, 674.456 542.733, 678.055 537.766 C 686.855 525.618, 682.843 508.988, 669.197 501.053 C 667.672 500.167, 667.772 499.835, 670.180 497.783 C 680.520 488.972, 678.651 470.826, 666.901 465.959 L 664 464.757 664 449.951 C 664 435.147, 664 435.145, 661.365 433.073 C 659.916 431.933, 657.521 431, 656.043 431 C 653.769 431, 652.994 430.194, 650.993 425.750 C 647.565 418.135, 638.734 409.725, 629.621 405.397 L 622.125 401.837 626.372 395.633 C 631.794 387.713, 633.394 382.008, 632.789 372.746 C 631.395 351.401, 609.462 336.434, 589.247 343.033 M 589.142 356.105 C 573.346 364.118, 573.868 388.989, 589.974 395.755 C 597.864 399.069, 610.361 396.691, 615.716 390.857 C 623.995 381.839, 621.971 363.980, 611.916 357.326 C 606.016 353.421, 595.539 352.860, 589.142 356.105 M 585 412.427 C 573.709 415.558, 564.512 421.547, 559.952 428.737 C 558.328 431.297, 557 433.697, 557 434.070 C 557 434.444, 561.163 436.198, 566.250 437.969 C 571.337 439.740, 580.563 443.590, 586.751 446.525 L 598.002 451.862 610.251 446.052 C 616.988 442.856, 626.325 439.006, 631 437.497 C 641.326 434.162, 641.623 433.918, 640.033 430.081 C 637.243 423.344, 625.717 415.464, 614.307 412.492 C 607.428 410.700, 591.355 410.664, 585 412.427 M 661.250 414.198 C 658.498 417.171, 658.462 418.046, 660.957 421.218 C 662.699 423.433, 663.931 423.783, 672.156 424.404 C 692.072 425.908, 721.038 432.341, 739.405 439.339 C 749.064 443.020, 751.289 443.015, 753.717 439.309 C 756.428 435.172, 753.243 432.339, 740.443 427.498 C 718.952 419.372, 693.651 413.689, 673.136 412.381 C 663.836 411.788, 663.422 411.851, 661.250 414.198 M 543 454.382 L 543 464.898 546.450 467.529 C 555.723 474.603, 556.547 487.697, 548.255 496.232 C 546.261 498.284, 544.826 500.115, 545.065 500.300 C 545.649 500.753, 588.027 518.001, 590.250 518.690 C 591.888 519.199, 592 517.435, 592 491.131 L 592 463.029 585.932 459.966 C 578.122 456.023, 556.818 447.527, 551 446.035 C 548.525 445.400, 545.712 444.652, 544.750 444.373 C 543.162 443.912, 543 444.839, 543 454.382 M 642 446.969 C 631.531 449.967, 620.117 454.398, 610.962 459.019 L 605 462.029 605 490.945 L 605 519.861 616.250 514.518 C 622.438 511.579, 632.217 507.297, 637.982 505.003 C 643.747 502.708, 648.851 500.592, 649.323 500.300 C 649.795 500.009, 648.592 498.134, 646.650 496.135 C 638.434 487.677, 639.217 475.913, 648.506 468.255 L 652.071 465.317 651.785 454.783 L 651.500 444.250 642 446.969 M 532 478 C 526.414 483.586, 534.086 492.314, 540.476 487.642 C 543.170 485.671, 542.934 480.175, 540.056 477.844 C 537.108 475.457, 534.493 475.507, 532 478 M 654.064 478.880 C 651.127 484.369, 654.007 489.294, 659.867 488.803 C 664.606 488.406, 666.840 484.531, 664.797 480.250 C 663.057 476.604, 655.780 475.675, 654.064 478.880 M 716.332 508.790 C 689.793 518.276, 688.249 553.813, 713.878 565.296 C 732.486 573.634, 755.294 558.051, 755.294 537 C 755.294 516.921, 734.898 502.154, 716.332 508.790 M 531 511.704 C 522.582 514.767, 520.612 527.850, 527.822 532.808 C 530.711 534.794, 597.356 558.425, 605.133 560.220 C 615.132 562.528, 622.023 554.746, 617.583 546.160 C 616.017 543.133, 614.401 542.309, 590.500 532.365 C 539.198 511.020, 535.965 509.897, 531 511.704 M 653.500 512.206 C 648.311 514.020, 629.832 521.704, 621.591 525.475 L 613.683 529.094 617.840 531.151 C 622.580 533.496, 626.640 537.903, 628.757 543 C 629.556 544.925, 630.335 546.634, 630.487 546.799 C 630.851 547.192, 654.863 538.478, 661.481 535.551 C 668.013 532.662, 671 528.980, 671 523.815 C 671 514.109, 663.082 508.857, 653.500 512.206 M 719.256 520.117 C 709.686 522.881, 704.441 535.770, 708.896 545.579 C 714.715 558.391, 734.704 559.341, 740.948 547.103 C 749.247 530.834, 736.605 515.107, 719.256 520.117" stroke="none" fill="#1D5F3A" fill-rule="evenodd"/>
</svg>