<svg xmlns="http://www.w3.org/2000/svg" width="1280" height="540" viewBox="0 0 1280 540" version="1.1">
	<path d="M 657.500 34.181 C 631.892 37.189, 610.456 51.704, 599.540 73.428 C 592.166 88.101, 589.224 109.127, 592.371 124.658 L 594.007 132.735 590.639 140.125 C 588.787 144.189, 586.227 150.759, 584.950 154.723 C 582.304 162.940, 583.412 166, 589.033 166 C 592.447 166, 593.524 164.698, 595.959 157.620 C 600.231 145.202, 603.192 139.796, 605.424 140.337 C 641.303 149.033, 663.015 146.215, 683.038 130.263 C 700.933 116.005, 712.638 92.348, 720.143 55.269 C 723.430 39.029, 723.357 35.314, 719.735 34.574 C 715.413 33.690, 664.418 33.368, 657.500 34.181 M 650.216 47.010 C 629.243 52.529, 612 68.486, 605.923 88 C 603.354 96.250, 601.869 107.765, 602.645 113.424 L 603.246 117.808 614.873 106.154 C 627.534 93.463, 637.986 85.514, 650.677 78.922 C 658.705 74.752, 658.902 74.706, 661.486 76.399 C 663.556 77.755, 664.052 78.788, 663.809 81.242 C 663.531 84.052, 662.394 85.021, 652.352 91.013 C 640.072 98.341, 630.933 105.294, 623.886 112.670 C 618.619 118.185, 611 127.806, 611 128.944 C 611 129.365, 614.448 130.732, 618.663 131.983 C 627.751 134.682, 644.273 135.216, 653 133.093 C 672.591 128.329, 689.879 110.985, 700.168 85.772 C 702.966 78.915, 709.393 54.893, 710.152 48.452 L 710.500 45.500 684 45.297 C 660.664 45.118, 656.630 45.323, 650.216 47.010 M 556 88.907 C 455.328 121.809, 386.129 214.210, 382.449 320.648 C 381.807 339.244, 382.435 342.252, 387.075 342.797 C 391.998 343.376, 392.631 341.192, 393.824 319.500 C 395.042 297.361, 397.485 281.021, 402.022 264.670 C 422.624 190.425, 480.671 127.938, 553.500 101.605 C 567.930 96.387, 568.500 96.025, 568.500 92.084 C 568.500 86.282, 565.987 85.643, 556 88.907 M 735.950 91.093 C 733.255 96.130, 734.860 97.615, 749.336 103.481 C 792.591 121.008, 832.866 155.274, 858 195.933 C 866.012 208.893, 868.344 210.809, 872.040 207.464 C 875.132 204.666, 874.384 200.963, 868.899 191.915 C 845.010 152.509, 807.873 119.002, 765.228 98.378 C 746.015 89.086, 738.081 87.112, 735.950 91.093 M 744.696 232.948 C 727.962 238.336, 719.108 251.993, 718.082 274 L 717.500 286.500 708.160 287 C 693.957 287.760, 694 287.683, 694 312.605 C 694 338.921, 695.202 341, 710.411 341 L 717.922 341 718.211 397.750 C 718.494 453.295, 718.545 454.598, 720.637 459.122 C 725.590 469.833, 734.682 475.865, 747.250 476.778 L 754 477.269 754 486.634 L 754 496 721 496 C 702.850 496, 688 495.624, 688 495.163 C 688 492.741, 678.792 444.352, 677.044 437.590 C 675.627 432.107, 671.423 422.749, 663.342 407.090 L 651.684 384.500 651.929 369 C 652.064 360.475, 652.348 353.324, 652.561 353.110 C 652.773 352.895, 654.719 354.320, 656.885 356.277 C 661.926 360.831, 662.029 360.882, 677.800 366.520 C 693.138 372.004, 696.411 371.875, 695.813 365.814 C 695.508 362.725, 695.131 362.496, 681.389 357.046 C 667.409 351.501, 662.956 348.889, 656.531 342.464 L 653.210 339.143 652.821 326.821 C 652.262 309.103, 647.492 300.400, 636.235 296.564 C 622.487 291.880, 615.631 295.400, 599.350 315.500 C 592.668 323.750, 585.693 332.956, 583.850 335.957 L 580.500 341.415 580.182 363.639 C 579.876 384.995, 579.945 385.945, 581.932 387.932 C 584.529 390.529, 586.452 390.548, 589 388 C 590.877 386.123, 591 384.667, 591 364.235 L 591 342.471 603.296 326.985 C 616.084 310.881, 620.482 306.419, 624.584 305.390 C 631.891 303.556, 639.907 309.235, 641.905 317.663 C 642.746 321.210, 642.804 330.769, 642.122 353.500 C 641.038 389.605, 639.720 383.487, 654.750 412.125 C 659.838 421.819, 664.687 431.696, 665.526 434.074 C 666.700 437.401, 678 493.028, 678 495.479 C 678 495.766, 674.255 496, 669.677 496 L 661.354 496 656.535 474.250 C 649.586 442.889, 649.128 441.526, 640.770 427.311 C 636.628 420.265, 629.360 407.842, 624.619 399.704 L 616 384.908 616 363.154 C 616 339.826, 615.826 339, 610.922 339 C 606.620 339, 606.272 340.462, 605.517 361.681 C 604.686 385.060, 604.607 384.663, 613.234 400.363 L 619.203 411.227 611.602 427.174 C 603.438 444.301, 603.027 445.809, 605.829 448.345 C 610.150 452.256, 611.963 450.426, 619.372 434.671 C 622.432 428.165, 625.337 423.090, 625.828 423.393 C 626.693 423.928, 635.102 438.200, 638.396 444.722 C 639.290 446.494, 641.166 453.244, 642.564 459.722 C 643.962 466.200, 646.453 476.842, 648.098 483.371 C 649.744 489.900, 650.915 495.418, 650.701 495.632 C 650.487 495.846, 631.004 495.904, 607.406 495.761 L 564.500 495.500 568.548 492.865 C 601.854 471.184, 598.937 421.924, 563.304 404.304 C 555.737 400.562, 555.424 400.500, 544.056 400.500 C 537.700 400.500, 530.899 400.871, 528.942 401.325 L 525.384 402.151 521.190 392.325 C 518.884 386.921, 516.997 381.881, 516.998 381.124 C 516.999 380.367, 519.700 374.687, 523 368.500 C 533.597 348.633, 532.335 347, 506.383 347 C 486.735 347, 485 347.436, 485 352.371 C 485 356.576, 486.575 357, 502.200 357 C 510.340 357, 517 357.229, 517 357.508 C 517 358.573, 506.775 375.942, 505.550 376.959 C 504.679 377.682, 493.324 377.942, 470.413 377.763 L 436.563 377.500 434.298 373.500 C 430.606 366.980, 431.034 366.142, 438.230 365.798 C 443.994 365.522, 444.531 365.296, 445.412 362.780 C 446.166 360.628, 445.981 359.637, 444.527 358.030 C 441.846 355.067, 408.311 354.894, 405.655 357.829 C 401.362 362.572, 404.624 366.291, 413.699 367 L 420.098 367.500 424.140 376.698 L 428.181 385.896 421.981 394.948 C 415.172 404.890, 415.501 404.682, 410.218 402.381 C 403.843 399.605, 387.552 399.334, 379.218 401.865 C 350.378 410.625, 335.543 445.095, 349.033 472 C 353.082 480.074, 359.058 487.033, 365.352 491 C 368.405 492.925, 370.926 494.837, 370.952 495.250 C 370.978 495.663, 364.995 496, 357.655 496 C 343.616 496, 341 496.826, 341 501.257 C 341 506.325, 320.915 506, 634.416 506 L 924.690 506 926.562 503.932 C 928.272 502.042, 928.304 501.632, 926.929 499.182 L 925.425 496.500 901.212 496.232 L 877 495.964 877 486.482 L 877 477 882.818 477 C 895.243 477, 905.247 471.144, 910.797 460.623 L 913.500 455.500 913.781 398.250 L 914.063 341 921.581 341 C 930.241 341, 934.222 339.406, 936.483 335.033 C 938.787 330.577, 938.693 294.435, 936.369 291.117 C 933.968 287.689, 928.946 286, 921.150 286 L 914.236 286 913.773 273.250 C 913.409 263.227, 912.831 259.263, 911.070 254.715 C 907.945 246.644, 899.865 238.133, 891.782 234.401 L 885.500 231.500 818 231.290 C 754.487 231.092, 750.157 231.190, 744.696 232.948 M 628.383 242.402 C 613.198 249.473, 610.185 270.835, 622.773 282.183 C 638.106 296.007, 663.183 284.024, 661.798 263.536 C 660.577 245.494, 644.110 235.079, 628.383 242.402 M 748.205 242.880 C 741.491 245.217, 736.317 249.381, 732.500 255.519 L 729.500 260.342 729.235 356.808 L 728.970 453.274 731.387 457.398 C 732.800 459.809, 735.609 462.555, 738.152 464.011 L 742.500 466.500 813 466.817 C 888.988 467.159, 891.335 467.027, 896.705 462.122 C 904.016 455.444, 903.500 463.395, 903.500 357.500 C 903.500 269.460, 903.373 262.219, 901.764 258.662 C 898.973 252.489, 894.530 247.610, 888.824 244.449 L 883.500 241.500 818.500 241.268 C 757.574 241.051, 753.168 241.152, 748.205 242.880 M 632 251.760 C 629.753 252.965, 627.655 255.316, 626.140 258.326 C 618.414 273.679, 640.173 285.461, 649.737 271.102 C 657.149 259.974, 643.809 245.427, 632 251.760 M 778.200 258.200 C 776.291 260.109, 776.805 263.750, 779.223 265.443 C 781.786 267.239, 847.738 267.811, 852.299 266.077 C 855.537 264.845, 856.390 262.244, 854.500 259.359 L 852.954 257 816.177 257 C 788.906 257, 779.090 257.310, 778.200 258.200 M 746.763 278.565 C 741.021 281.680, 741 281.871, 741 329.874 L 741 373.847 743.574 376.905 C 747.937 382.091, 748.465 382.125, 818.731 381.801 L 883.962 381.500 887.231 378.232 L 890.500 374.963 890.780 330.947 C 891.088 282.557, 891.053 282.235, 885.080 278.706 C 880.968 276.278, 751.222 276.146, 746.763 278.565 M 751.667 287.667 C 751.300 288.033, 751 306.933, 751 329.667 L 751 371 754.250 371.034 C 779.097 371.298, 879.518 370.798, 880.149 370.408 C 881.106 369.817, 881.340 291.050, 880.393 288.582 C 879.848 287.162, 873.247 287, 816.060 287 C 781.010 287, 752.033 287.300, 751.667 287.667 M 704.226 313.750 L 704.500 330.500 711.250 330.796 L 718 331.091 718 314.046 L 718 297 710.976 297 L 703.952 297 704.226 313.750 M 914 314 L 914 331 920.393 331 C 928.337 331, 928 331.824, 928 312.418 L 928 297 921 297 L 914 297 914 314 M 441 388.897 C 441 390.087, 460.985 436.273, 461.940 437.291 C 462.608 438.003, 499.927 391.720, 500.802 389.094 C 501.061 388.318, 492.418 388, 471.083 388 C 453.985 388, 441 388.387, 441 388.897 M 499.891 408.750 C 494.177 415.762, 484.607 427.800, 478.625 435.500 C 462.198 456.644, 464.363 455, 452.950 455 L 443.273 455 441.986 461.064 C 439.348 473.496, 431.346 485.439, 421.478 491.673 C 419.017 493.228, 417.003 494.837, 417.002 495.250 C 417.001 495.663, 440.288 495.974, 468.750 495.941 C 509.193 495.895, 520.088 495.622, 518.617 494.691 C 493.396 478.740, 485.326 452.591, 497.726 427 C 500.276 421.738, 510.379 410.390, 514.424 408.246 C 516.299 407.252, 516.286 407.086, 513.924 401.630 C 512.591 398.552, 511.226 396.026, 510.891 396.017 C 510.556 396.008, 505.606 401.738, 499.891 408.750 M 428.546 403.924 L 424.851 410.007 429.464 415.253 C 435.065 421.623, 440.450 432.036, 441.997 439.487 L 443.142 445 448.071 445 C 450.782 445, 453 444.617, 453 444.150 C 453 442.994, 433.976 399.713, 433.010 398.671 C 432.587 398.214, 430.578 400.579, 428.546 403.924 M 752.500 402.896 C 735.006 410.995, 737.499 436.018, 756.305 441.082 C 763.947 443.140, 773.928 439.044, 777.703 432.299 C 787.530 414.741, 770.310 394.650, 752.500 402.896 M 863.500 402.367 C 842.879 411.971, 852.026 445.130, 874.313 441.566 C 898.410 437.713, 896.942 402.484, 872.633 401.275 C 868.864 401.087, 865.344 401.508, 863.500 402.367 M 384 411.431 C 359.645 418.208, 347.722 444.625, 358.620 467.663 C 370.547 492.873, 407.960 496.533, 424.427 474.100 C 427.619 469.750, 432 459.230, 432 455.911 C 432 455.393, 423.192 455, 411.571 455 C 383.427 455, 383.665 455.329, 396.626 434.417 C 401.370 426.763, 406.156 419.009, 407.262 417.186 C 409.676 413.208, 409.132 412.554, 402.201 411.107 C 395.557 409.719, 389.783 409.822, 384 411.431 M 540 410.577 C 539.175 410.737, 536.813 411.142, 534.750 411.479 C 532.688 411.815, 531 412.664, 531 413.366 C 531 414.067, 534.375 422.243, 538.500 431.533 C 547.637 452.113, 547.912 455, 540.735 455 C 537.621 455, 536.561 453.121, 525.835 428.581 C 523.451 423.125, 520.960 418.483, 520.300 418.264 C 518.057 417.521, 510.059 426.135, 506.750 432.856 C 503.679 439.094, 503.500 440.066, 503.500 450.479 C 503.500 463.784, 505.942 469.818, 514.667 478.070 C 523.227 486.166, 529.350 488.500, 542.021 488.500 C 554.881 488.500, 562.560 485.385, 570.425 476.977 C 578.201 468.664, 580.500 462.508, 580.500 450 C 580.500 435.027, 575.810 425.491, 564.486 417.440 C 557.956 412.797, 545.944 409.431, 540 410.577 M 754.913 413.282 C 747.967 418.615, 751.270 431, 759.639 431 C 763.693 431, 768.495 428.759, 769.379 426.455 C 770.868 422.575, 770.003 416.912, 767.545 414.455 C 764.807 411.716, 757.800 411.066, 754.913 413.282 M 864.923 414.923 C 856.090 423.757, 869.194 436.758, 878.694 428.587 C 881.024 426.583, 881.500 425.380, 881.500 421.500 C 881.500 412.502, 871.365 408.481, 864.923 414.923 M 410.572 431.951 C 406.407 438.525, 403 444.150, 403 444.451 C 403 444.753, 409.584 445, 417.631 445 L 432.262 445 431.667 441.333 C 430.587 434.679, 421.871 420, 418.999 420 C 418.528 420, 414.736 425.378, 410.572 431.951 M 791.750 437.080 C 789.856 438.183, 789.430 442.549, 790.977 445 C 792.442 447.321, 836.133 447.798, 839.593 445.531 C 842.474 443.643, 842.743 439.982, 840.171 437.655 C 838.012 435.701, 794.995 435.190, 791.750 437.080 M 764.734 477.750 C 764.523 478.163, 764.432 482.325, 764.532 487 L 764.713 495.500 815.357 495.759 L 866 496.018 866 486.509 L 866 477 815.559 477 C 787.816 477, 764.945 477.337, 764.734 477.750" stroke="none" fill="#1D5F39" fill-rule="evenodd"/>
</svg>