<svg xmlns="http://www.w3.org/2000/svg" width="1000" height="500" viewBox="202.0 20.8 875.0 437.5">
	<path d="M 358.872 66.655 C 357.750 68.008, 357.500 77.263, 357.500 117.405 C 357.500 165.809, 357.532 166.583, 359.738 172.432 C 364.340 184.629, 368.443 189.790, 380.463 198.507 L 383.231 200.515 382.110 222.507 C 375.318 355.820, 374.052 388.811, 375.534 393.804 C 383.161 419.487, 414.942 422.180, 426.724 398.142 C 429.969 391.522, 429.948 392.792, 427.609 344.500 C 425.516 301.266, 422.001 213.140, 422 203.854 C 422 199.372, 422.176 199.095, 427.016 195.990 C 436.686 189.785, 444.382 178.252, 446.895 166.201 C 448.792 157.102, 448.395 70.009, 446.443 67.223 C 444.610 64.606, 442.744 64.399, 440.571 66.571 C 439.187 67.956, 439 73.783, 439 115.522 C 439 145.309, 438.604 164.748, 437.933 167.875 C 436.341 175.302, 430.683 182.665, 422.084 188.500 C 418.032 191.250, 414.354 194.489, 413.910 195.697 C 413.126 197.834, 415.267 263.027, 418.617 339 C 420.788 388.210, 420.800 391.802, 418.807 395.500 C 415.513 401.612, 408.347 406.022, 401.782 405.978 C 394.270 405.928, 384.977 398.637, 383.591 391.706 C 382.995 388.723, 384.521 351.162, 389.453 247.500 C 392.123 191.371, 392.614 195.616, 382.707 189.209 C 375.427 184.501, 371.665 180.075, 368.616 172.632 C 366.602 167.715, 366.492 165.397, 366.007 117.213 C 365.571 73.977, 365.290 66.792, 364 65.978 C 361.819 64.600, 360.424 64.784, 358.872 66.655 M 399.611 66.532 C 397.032 69.111, 396.752 73.865, 397.159 108.141 C 397.552 141.112, 397.560 141.226, 399.825 143.060 C 402.542 145.259, 404.329 144.767, 405.865 141.398 C 407.382 138.066, 407.448 73.308, 405.937 69.335 C 404.279 64.972, 402.125 64.018, 399.611 66.532 M 864.500 66.127 C 836.851 69.913, 814.703 103.436, 814.703 141.500 C 814.703 167.334, 823.832 187.663, 841.688 201.594 L 849.500 207.688 849.283 216.094 C 849.164 220.717, 848.380 237.775, 847.541 254 C 840.398 392.117, 840.392 392.399, 844.210 399.638 C 854.971 420.039, 882.077 419.809, 892.207 399.230 C 896.075 391.373, 896.053 396.158, 892.550 325.142 C 886.340 199.232, 886.608 207.729, 888.797 206.023 C 889.871 205.185, 893.308 202.700, 896.434 200.500 C 915.386 187.166, 926.288 155.269, 921.613 126.836 C 915.333 88.642, 890.767 62.530, 864.500 66.127 M 859.300 75.801 C 844.280 81.168, 832.017 96.796, 825.794 118.500 C 822.274 130.777, 822.511 154.195, 826.269 165.500 C 831.079 179.965, 839.457 191.314, 849.610 197.114 C 852.420 198.719, 855.528 200.925, 856.515 202.017 C 858.544 204.259, 858.600 201.591, 855.020 273 C 851.395 345.280, 849.638 390.497, 850.345 393.275 C 853.192 404.464, 868.850 409.534, 878.947 402.537 C 886.849 397.061, 887.364 394.512, 886.084 367.230 C 884.390 331.116, 881.232 262.613, 879.913 233.349 C 879.264 218.966, 879.030 206.018, 879.391 204.577 C 879.844 202.772, 882.149 200.609, 886.792 197.633 C 904.610 186.212, 914 166.708, 914 141.118 C 914 98.955, 886.477 66.090, 859.300 75.801 M 618 79.109 C 599.126 81.246, 578.982 87.464, 560.105 96.980 C 513.388 120.531, 482.217 161.757, 470.870 215 C 467.571 230.481, 467.535 259.736, 470.795 275.828 C 491.722 379.114, 602.526 440.544, 695.718 400.523 C 778.728 364.875, 819.290 270.304, 787.406 186.753 C 759.734 114.240, 691.371 70.801, 618 79.109 M 623 88.091 C 528.399 94.845, 460.850 185.389, 480.573 279 C 494.966 347.311, 557.934 400.368, 628.585 403.716 C 697.187 406.966, 761.734 359.939, 782.443 291.620 C 804.356 219.326, 769.990 136.939, 704.179 103.993 C 679.135 91.455, 651.552 86.052, 623 88.091 M 707 167.094 C 701.354 169.666, 685.847 173.347, 671.500 175.521 C 642.973 179.843, 635.855 181.290, 624.597 185.053 C 598.935 193.632, 581.198 206.538, 570.946 224.093 C 555.056 251.300, 553.312 276.881, 565.575 302.884 C 570.849 314.068, 570.807 313.460, 566.857 321.279 C 557.129 340.535, 555.341 347.287, 559.470 349.168 C 562.613 350.600, 564.444 349.221, 566.104 344.170 C 568.427 337.097, 575.908 321.972, 577.358 321.416 C 578.163 321.107, 584.375 322.253, 591.161 323.962 C 628.145 333.278, 658.465 325.859, 682.527 301.607 C 707.664 276.270, 718.380 243.930, 718.461 193.165 L 718.500 168.829 716.139 166.915 C 713.210 164.539, 712.580 164.552, 707 167.094 M 696.848 178.936 C 690.818 180.857, 671.990 184.509, 650.074 188.009 C 605.167 195.180, 578.065 215.782, 568.795 249.797 C 565.712 261.109, 565.724 278.690, 568.823 289.500 C 573.347 305.281, 574.985 305.508, 584.990 291.750 C 601.086 269.617, 631.015 242.872, 651.436 232.373 C 659.675 228.137, 662.212 228.320, 662.801 233.194 C 663.068 235.400, 661.997 236.307, 653.478 241.093 C 632.076 253.116, 610.272 272.830, 593.024 295.752 C 581.548 311.004, 581.484 312.605, 592.250 315.399 C 651.792 330.847, 697.431 295.639, 708.133 226 C 708.870 221.203, 709.452 208.788, 709.470 197.500 L 709.500 177.500 706 177.318 C 704.075 177.217, 699.957 177.946, 696.848 178.936" stroke="none" fill="#1D5F3A" fill-rule="evenodd"/>
</svg>