<svg xmlns="http://www.w3.org/2000/svg" width="1280" height="480" viewBox="0 0 1280 480" version="1.1">
	<path d="M 357.405 65.106 C 354.454 68.367, 354.464 163.341, 357.416 172.344 C 361.211 183.914, 368.412 193.212, 378.844 200.009 L 381.160 201.519 380.071 222.509 C 373.689 345.469, 371.994 389.466, 373.446 394.448 C 381.488 422.024, 416.056 424.948, 428.738 399.125 C 432.005 392.471, 432.007 392.351, 429.622 343.500 C 428.100 312.326, 427.021 286.682, 424.992 233.500 C 423.605 197.127, 423.230 200.989, 428.478 197.673 C 438.040 191.632, 446.403 179.151, 448.895 167.201 C 449.610 163.769, 450 145.401, 450 115.086 C 450 69.237, 449.957 68.215, 447.927 65.635 C 445.437 62.468, 441.791 62.209, 439 65 C 437.057 66.943, 436.999 68.350, 436.976 114.750 C 436.961 143.547, 436.546 164.286, 435.930 167 C 434.246 174.418, 428.893 181.387, 420.745 186.770 C 416.760 189.402, 412.942 192.721, 412.259 194.145 C 410.988 196.797, 412.363 242.959, 416.603 340 C 418.748 389.082, 418.751 390.815, 416.714 394.662 C 413.053 401.575, 404.899 405.182, 397.750 403.048 C 392.777 401.564, 386.543 395.520, 385.685 391.351 C 385.103 388.520, 386.871 344.765, 391.476 248.082 C 394.246 189.926, 394.809 194.552, 384.113 187.505 C 376.861 182.728, 373.192 178.337, 370.321 171 C 368.751 166.987, 368.503 161.051, 368.030 116.168 C 367.521 67.826, 367.423 65.781, 365.559 64.418 C 362.792 62.396, 359.614 62.664, 357.405 65.106 M 398.736 64.250 C 395.397 66.786, 394.999 70.809, 395.117 100.815 C 395.265 138.457, 395.645 142.662, 399.130 145.255 C 402.436 147.714, 405.491 146.884, 407.511 142.979 C 409.395 139.336, 409.733 73.400, 407.895 68.128 C 406.255 63.425, 402.126 61.676, 398.736 64.250 M 863.500 64.046 C 823.117 70.228, 799.301 133.152, 820.295 178.198 C 825.148 188.612, 832.177 197.377, 840.773 203.734 L 848.189 209.218 847.568 216.859 C 847.227 221.062, 846.298 237.325, 845.505 253 C 838.223 396.893, 838.305 393.234, 842.203 400.623 C 855.284 425.420, 890.674 420.659, 896.827 393.274 C 897.465 390.434, 896.874 371.217, 894.951 332.313 C 888.724 206.304, 888.809 208.609, 890.378 207.509 C 900.726 200.250, 904.825 196.685, 908.702 191.569 C 925.415 169.520, 929.443 136.675, 918.981 107.762 C 908.034 77.507, 886.485 60.527, 863.500 64.046 M 617 77.109 C 598.126 79.246, 577.982 85.464, 559.105 94.980 C 512.031 118.712, 480.267 160.606, 468.866 214 C 465.549 229.535, 465.514 260.633, 468.795 276.828 C 489.922 381.104, 602.195 442.886, 697.005 402.409 C 780.459 366.780, 821.640 270.221, 789.406 185.753 C 761.336 112.197, 692.152 68.599, 617 77.109 M 860.300 77.802 C 845.549 83.068, 833.985 97.903, 827.794 119.500 C 824.308 131.664, 824.538 153.238, 828.275 164.500 C 833.034 178.845, 840.819 189.527, 850.570 195.093 C 853.358 196.685, 856.691 199.106, 857.976 200.474 C 860.676 203.349, 860.714 200.332, 857.050 274 C 851.129 393.065, 851.165 391.477, 854.250 396.010 C 861.775 407.067, 877.299 406.142, 883.084 394.292 C 885.078 390.207, 885.106 389.412, 884.051 367.292 C 877.305 225.877, 876.526 205.335, 877.805 202.528 C 878.434 201.149, 882.016 198.054, 885.766 195.650 C 902.655 184.824, 912 165.400, 912 141.118 C 912 101.102, 885.600 68.770, 860.300 77.802 M 624 90.141 C 556.034 94.668, 496.066 146.864, 482.559 213.250 C 466.651 291.442, 511.434 368.525, 587.500 393.880 C 647.708 413.949, 711.731 394.464, 752.579 343.638 C 802.835 281.105, 797.424 190.487, 740 132.988 C 709.225 102.173, 668.607 87.170, 624 90.141 M 706 165.094 C 700.354 167.666, 684.847 171.347, 670.500 173.521 C 641.973 177.843, 634.855 179.290, 623.597 183.053 C 591.658 193.730, 572.815 210.332, 562.012 237.312 C 557.148 249.459, 555.626 257.277, 555.650 270 C 555.675 283.705, 557.260 290.450, 563.664 304.110 L 568.170 313.720 564.942 320.110 C 555.096 339.602, 553.076 347.539, 557.223 350.443 C 561.983 353.777, 565.757 351.745, 568.353 344.450 C 569.981 339.878, 577.719 322.999, 578.185 323.003 C 578.358 323.004, 583.900 324.376, 590.500 326.052 C 618.234 333.094, 644.832 330.184, 666.500 317.738 C 675.773 312.411, 692.878 295.219, 699.399 284.673 C 713.997 261.062, 720.408 233.214, 720.464 193.166 L 720.500 167.833 717.694 165.416 C 714.287 162.482, 711.879 162.416, 706 165.094 M 697.848 180.959 C 691.786 182.866, 672.780 186.543, 651.074 190.009 C 599.944 198.173, 571.632 224.190, 568.330 266.044 C 567.500 276.576, 572.221 298.684, 575.500 299.618 C 576.050 299.775, 579.639 295.537, 583.475 290.201 C 601.906 264.567, 646.768 227.081, 659.095 227.014 C 664.358 226.986, 667.488 234.840, 663.375 237.752 C 662.344 238.482, 656.726 241.900, 650.890 245.347 C 627.821 258.975, 604.065 281.986, 588.488 305.790 C 585.181 310.844, 585.517 311.381, 593.250 313.394 C 636.817 324.735, 673.849 307.785, 693.521 267.500 C 702.943 248.204, 706.937 229.020, 707.731 199.250 L 708.271 179 705.885 179.091 C 704.573 179.141, 700.957 179.982, 697.848 180.959" stroke="none" fill="#1D603A" fill-rule="evenodd"/>
</svg>