<svg xmlns="http://www.w3.org/2000/svg" width="1000" height="500" viewBox="-110.5 -105.5 1500.0 750.0">
	<path d="M 622.302 28.055 C 608.504 33.486, 596.643 53.398, 602.729 60.913 C 606.404 65.452, 613.983 62.580, 614.010 56.639 C 614.032 51.822, 618.691 44.265, 623.308 41.560 C 639.208 32.242, 656.914 42.350, 656.978 60.782 C 657.024 73.814, 650.890 81.249, 637.882 83.929 C 628.844 85.792, 628.577 86.188, 628 98.572 L 627.500 109.306 599.169 122.992 C 572.104 136.068, 570.673 136.635, 567.125 135.688 C 563.793 134.799, 561.152 135.448, 541.456 141.996 C 493.820 157.833, 497.993 154.910, 456.500 201.494 C 443.300 216.313, 428.337 233.107, 423.250 238.813 C 414.434 248.701, 414 249.403, 414 253.777 L 414 258.367 444.086 287.933 C 460.634 304.195, 475.534 318.258, 477.197 319.183 C 481.575 321.621, 483.326 320.631, 498.855 306.940 L 512.500 294.911 513 386.705 C 513.275 437.192, 513.874 479.256, 514.330 480.180 C 516.147 483.857, 519.532 484, 605.014 484 C 688.193 484, 688.747 483.987, 691.365 481.927 C 694.906 479.143, 694.906 474.857, 691.365 472.073 C 688.749 470.014, 688.166 470, 607.365 470 L 526 470 526 373.934 C 526 313.538, 525.638 277.193, 525.026 276.049 C 523.550 273.291, 519.257 272.604, 516.144 274.629 C 514.690 275.575, 506.400 282.683, 497.722 290.424 C 489.045 298.166, 481.466 304.664, 480.881 304.864 C 479.746 305.252, 427.810 253.979, 428.244 252.899 C 428.922 251.209, 494.428 178.800, 498.990 174.699 C 501.866 172.113, 507.126 168.610, 510.679 166.915 C 516.597 164.090, 561.049 148.629, 561.504 149.237 C 561.612 149.382, 563.231 152.419, 565.101 155.987 C 574.666 174.241, 599.195 190.379, 623 194.081 C 653.577 198.835, 687.536 182.325, 702.606 155.377 C 704.567 151.869, 706.554 149, 707.020 149 C 708.671 149, 754.222 164.955, 759.601 167.417 C 762.605 168.793, 767.811 172.524, 771.170 175.709 C 776.241 180.517, 821.338 230.404, 836.894 248.413 L 841.288 253.500 814.999 279.208 L 788.709 304.917 786.105 302.901 C 784.672 301.792, 777.042 295.174, 769.149 288.193 C 752.358 273.343, 750.036 271.908, 746.241 274.038 C 742.373 276.209, 741.856 279.933, 742.195 303.185 C 742.530 326.237, 742.748 327, 749 327 C 754.874 327, 755.453 325.545, 756 309.409 L 756.500 294.654 770.792 306.818 C 786.290 320.010, 788.525 321.192, 792.757 318.433 C 797.092 315.607, 852.743 260.859, 853.931 258.251 C 855.331 255.180, 855.233 251.048, 853.697 248.283 C 851.703 244.695, 785.252 170.384, 779.268 165.051 C 771.831 158.422, 765.883 155.693, 734.500 144.508 C 707.690 134.952, 703.804 133.948, 699 135.338 C 696.995 135.918, 691.055 133.383, 669 122.536 L 641.500 109.010 641.500 102.365 L 641.500 95.721 645.904 94.420 C 655.191 91.678, 663.476 84.088, 667.648 74.500 C 670.332 68.331, 670.079 54.137, 667.153 46.779 C 660.626 30.365, 639.178 21.411, 622.302 28.055 M 621 126.331 C 615.225 129.188, 602.736 135.251, 593.247 139.805 L 575.993 148.086 577.628 151.293 C 580.571 157.063, 594.919 170.226, 602.700 174.293 C 628.464 187.760, 659.793 183.230, 679.974 163.121 C 684.181 158.929, 688.599 153.801, 689.793 151.724 L 691.963 147.948 688.732 145.978 C 686.954 144.894, 685.219 144.006, 684.875 144.004 C 684.531 144.002, 673.592 138.825, 660.565 132.500 C 647.313 126.066, 635.694 121.030, 634.190 121.069 C 632.710 121.107, 626.775 123.475, 621 126.331 M 851 315.086 C 843.094 318.674, 827.770 322.753, 802.806 327.917 C 789.438 330.682, 775.594 333.898, 772.042 335.064 C 747.406 343.152, 728.074 359.935, 716.148 383.588 C 704.234 407.216, 703.852 435.904, 715.147 458.772 L 719.233 467.045 714.181 479.828 C 706.444 499.407, 704.465 507.803, 706.835 510.993 C 707.859 512.372, 709.869 513.640, 711.299 513.812 C 715.932 514.367, 717.784 512.448, 720.055 504.735 C 722.340 496.977, 729.834 476.974, 730.905 475.774 C 731.261 475.374, 734.804 476.147, 738.777 477.492 C 773.395 489.203, 808.871 481.625, 832.365 457.500 C 849.420 439.986, 859.756 417.221, 864.146 387.500 C 865.595 377.691, 866.070 323.532, 864.748 318.820 C 863.041 312.731, 858.755 311.567, 851 315.086 M 839.795 332.658 C 834.458 334.507, 818.933 338.247, 805.295 340.969 C 791.658 343.691, 778.003 346.781, 774.952 347.836 C 740.445 359.762, 716.347 396.311, 720.863 429.869 C 721.990 438.243, 725.751 451, 727.092 451 C 727.538 451, 730.012 447.738, 732.590 443.750 C 742.817 427.927, 758.652 410.243, 773.589 397.963 C 782.928 390.285, 798.908 380, 801.499 380 C 805.148 380, 808 382.810, 808 386.404 C 808 389.458, 807.293 390.166, 798.157 396.249 C 779.521 408.656, 767.208 420.111, 753.274 438 C 747.806 445.020, 738 460.371, 738 461.911 C 738 464.629, 759.825 470, 770.870 470 C 809.465 470, 839.069 442.160, 849.043 396.484 C 851.818 383.781, 853.299 328.883, 850.861 329.148 C 850.112 329.229, 845.133 330.808, 839.795 332.658" stroke="none" fill="#1D5F3A" fill-rule="evenodd"/>
</svg>