<svg xmlns="http://www.w3.org/2000/svg" width="1000" height="450" viewBox="-110.0 -7.5 1500.0 675.0">
	<path d="M 646 31.506 C 619.894 36.879, 599.950 54.890, 593.406 79 C 590.714 88.920, 590.956 104.568, 593.941 113.582 L 596.285 120.664 592.682 130.082 C 587.608 143.345, 587.429 144.429, 589.913 146.913 C 594.574 151.574, 597.906 149.134, 601.402 138.500 C 605.427 126.254, 603.788 126.985, 619.500 130.430 C 633.644 133.532, 647.312 131.897, 659.754 125.616 C 683.547 113.604, 695.950 91.182, 702.175 48.926 C 704.251 34.833, 704.281 33.852, 702.681 32.252 C 700.394 29.966, 656.304 29.386, 646 31.506 M 645.250 42.495 C 619.288 48.224, 600.156 73.465, 602.309 99.147 C 603.117 108.786, 603.425 108.851, 609.894 100.745 C 618.103 90.460, 629.679 79.831, 640.182 72.934 C 649.748 66.653, 651.870 66.013, 654.483 68.626 C 657.941 72.084, 656.069 75.118, 646.561 81.467 C 632.167 91.077, 610.115 114.515, 612.872 117.272 C 614.542 118.942, 625.276 120.968, 632.540 120.984 C 664.430 121.055, 685.313 94.663, 691.480 46.494 L 692.121 41.488 671.810 41.302 C 657.613 41.172, 649.619 41.531, 645.250 42.495 M 551.659 90.090 C 461.883 117.243, 394.553 191.607, 378.977 280.811 C 374.558 306.115, 375.214 315, 381.500 315 C 385.615 315, 387.235 311.730, 388.080 301.723 C 390.986 267.275, 401.410 236.043, 420.943 203.262 C 449.492 155.347, 497.578 118.603, 555.324 100.576 C 566.642 97.043, 568 96.121, 568 91.975 C 568 90.117, 564.474 86.949, 562.527 87.057 C 561.962 87.088, 557.071 88.453, 551.659 90.090 M 716.223 88.557 C 713.560 90.422, 713.332 94.108, 715.750 96.215 C 716.712 97.054, 722 99.213, 727.500 101.013 C 822.258 132.028, 885.462 212.835, 891.972 311.295 C 892.876 324.967, 893.194 326.679, 895.128 328.273 C 897.282 330.049, 900.124 329.856, 902.750 327.755 C 905.617 325.462, 903.812 297.954, 899.355 276 C 881.890 189.985, 819.768 120.788, 733.220 90.946 C 720.368 86.514, 719.344 86.370, 716.223 88.557 M 511.571 151.571 C 509.587 153.556, 509.341 167.799, 511.250 170.169 C 513.179 172.563, 515.563 172.994, 517.885 171.368 C 519.764 170.052, 520 168.911, 520 161.143 C 520 155.676, 519.550 151.950, 518.800 151.200 C 517.117 149.517, 513.436 149.706, 511.571 151.571 M 769.081 165.526 C 757.003 168.912, 748.054 177.218, 743.519 189.250 L 741.728 194 735.614 194.010 C 710.550 194.050, 698.824 224.678, 717.339 241.745 C 725.191 248.982, 726.369 249.121, 777.142 248.790 C 827.947 248.458, 827.899 248.466, 836.042 239.215 C 850.405 222.898, 840.343 195.288, 818.986 192.413 C 814.640 191.828, 814.371 191.589, 811.736 185.982 C 804.226 169.997, 785.379 160.958, 769.081 165.526 M 471.980 169.038 C 470.370 172.046, 471.460 174.199, 477.471 179.884 C 483.109 185.216, 485.778 186.079, 488.429 183.429 C 491.030 180.828, 490.274 178.954, 484.160 172.840 C 477.787 166.467, 473.990 165.281, 471.980 169.038 M 546.652 172.926 C 540.686 179.181, 540.025 180.882, 542.571 183.429 C 545.504 186.361, 548.430 185.279, 554.348 179.074 C 560.314 172.819, 560.975 171.118, 558.429 168.571 C 555.496 165.639, 552.570 166.721, 546.652 172.926 M 768 176.590 C 760.188 179.964, 754.754 187.227, 752.042 197.918 C 750.003 205.955, 748.834 206.759, 741.677 205.042 C 738.641 204.314, 734.711 204.008, 732.944 204.361 C 718.032 207.344, 713.538 227.178, 725.875 235.561 L 729.464 238 775.084 238 L 820.704 238 824.078 235.726 C 829.530 232.053, 832 227.539, 832 221.253 C 832 209.567, 826.243 203.853, 813.638 203.029 L 805.544 202.500 803.957 196.418 C 801.312 186.276, 797.009 180.715, 789 177.084 C 783.540 174.609, 773.152 174.365, 768 176.590 M 506.499 182.327 C 477.920 191.716, 479.103 233.068, 508.150 240.036 C 535.979 246.712, 556.633 212.906, 537.798 191.508 C 530.161 182.832, 516.849 178.927, 506.499 182.327 M 509.685 191.961 C 498.648 195.493, 492.713 209.636, 497.956 219.914 C 507.422 238.468, 534.327 231.894, 534.434 211 C 534.501 197.752, 521.895 188.054, 509.685 191.961 M 456.750 207.080 C 454.325 208.492, 454.445 213.633, 456.934 214.965 C 460.415 216.828, 473.449 216.266, 475.345 214.171 C 477.496 211.794, 477.440 209.709, 475.171 207.655 C 473.065 205.749, 459.749 205.333, 456.750 207.080 M 555.200 207.200 C 553.299 209.101, 553.742 213.792, 555.934 214.965 C 556.998 215.534, 560.948 216, 564.712 216 C 574.740 216, 578.640 212.640, 574 208 C 571.643 205.643, 557.364 205.036, 555.200 207.200 M 628.539 235.046 C 574.334 243.544, 544.935 301.499, 569.719 351 C 582.377 376.281, 610.955 393.938, 639.292 393.985 C 673.854 394.043, 702.736 372.769, 714.621 338.500 C 718.450 327.456, 718.726 306.138, 715.206 293.170 C 704.808 254.862, 666.409 229.110, 628.539 235.046 M 543.115 237.632 C 539.505 240.161, 540.499 243.218, 546.926 249.348 C 553.145 255.280, 553.936 255.640, 557.066 253.965 C 560.679 252.031, 559.504 247.919, 553.750 242.356 C 547.555 236.366, 545.944 235.650, 543.115 237.632 M 476.652 242.926 C 470.553 249.320, 470.011 250.795, 472.829 253.345 C 475.693 255.937, 477.433 255.371, 483.427 249.892 C 489.310 244.516, 491.043 240.962, 488.989 238.487 C 486.382 235.346, 482.576 236.715, 476.652 242.926 M 625.189 246.470 C 618.315 248.027, 605.680 253.475, 603.861 255.667 C 602.220 257.644, 605.208 260.610, 609.552 261.315 C 619.806 262.979, 624.197 274.297, 617.977 283.032 C 615.621 286.341, 611.290 288.813, 603.231 291.450 C 596.704 293.585, 594.723 296.696, 595.638 303.375 C 596.533 309.905, 592.758 316.163, 586.475 318.563 C 581.955 320.289, 579.559 320.070, 572.245 317.264 C 570.424 316.565, 570.934 322.484, 573.565 332.591 C 575.599 340.405, 576.442 341.011, 578.822 336.369 C 586.769 320.868, 607.071 321.602, 614.168 337.647 C 615.571 340.820, 616.813 342.144, 618.793 342.582 C 628.449 344.715, 633.286 348.815, 634.479 355.877 C 635.308 360.782, 634.709 362.896, 630.479 370 C 623.662 381.449, 624.724 383, 639.385 383 C 655.117 383, 665.828 379.877, 664.514 375.674 C 662.419 368.979, 662.739 362.859, 665.547 355.882 C 669.396 346.322, 668.565 343.825, 661.183 342.762 C 642.278 340.042, 635.798 318.623, 650.206 306.474 C 657.161 300.610, 663.713 299.633, 673.500 303 C 676.697 304.100, 679.912 305, 680.644 305 C 681.828 305, 687.624 297.121, 686.822 296.603 C 681.100 292.905, 680.607 292.772, 675.600 293.559 C 662.032 295.694, 652.792 292.890, 651.504 286.248 C 651.211 284.737, 650.226 281.475, 649.316 279 C 645.609 268.921, 647.628 262.742, 656.018 258.491 C 660.682 256.127, 661 255.723, 661 252.151 C 661 248.633, 660.708 248.237, 657.250 247.074 C 651.504 245.141, 632.627 244.785, 625.189 246.470 M 512.503 250.374 C 510.874 251.566, 510.656 252.922, 510.868 260.589 C 511.126 269.979, 511.933 272, 515.422 272 C 519.222 272, 520 270.108, 520 260.871 C 520 249.919, 517.642 246.617, 512.503 250.374 M 670.463 258.275 C 669.157 261.086, 666.827 263.625, 663.500 265.863 C 660.750 267.713, 658.596 269.738, 658.714 270.363 C 658.832 270.988, 659.908 274.313, 661.104 277.750 C 663.559 284.801, 664.077 285.017, 672.483 282.467 C 682.161 279.531, 692.491 283.670, 692.300 290.406 L 692.198 294 698.166 294 C 705.126 294, 705.088 294.335, 699.462 282.461 C 694.148 271.244, 686.699 263.094, 674.963 255.657 C 672.448 254.063, 672.409 254.086, 670.463 258.275 M 747.277 256.709 C 743.338 258.124, 735.464 276.329, 736.471 281.695 C 739.235 296.431, 761.009 293.593, 760.986 278.500 C 760.974 269.919, 751.670 255.132, 747.277 256.709 M 791.444 264.538 C 783.668 277.014, 784.347 285.569, 793.464 289.982 C 798.436 292.390, 800.174 292.479, 803.961 290.520 C 813.035 285.828, 813.042 276.090, 803.980 261.969 C 799.303 254.681, 797.336 255.084, 791.444 264.538 M 587.560 269.250 C 580.206 277.653, 570.597 299.900, 572.349 304.466 C 573.082 306.376, 579.837 309.186, 582.026 308.492 C 583.620 307.986, 584.001 306.964, 584.006 303.183 C 584.019 291.875, 588.392 285.936, 599.958 281.516 C 604.413 279.814, 607.693 277.872, 608.694 276.344 C 610.585 273.459, 609.988 272.760, 604.233 271.123 C 601.887 270.456, 598.452 268.580, 596.601 266.955 C 592.359 263.230, 592.964 263.076, 587.560 269.250 M 747.161 274.547 C 744.761 279.813, 747.082 284.775, 750.394 281.463 C 752.383 279.474, 752.393 278.661, 750.474 274.950 C 748.624 271.372, 748.608 271.370, 747.161 274.547 M 796.098 276.149 C 794.746 280.028, 794.708 279.565, 796.529 281.386 C 799.883 284.740, 802.541 279.748, 799.965 274.934 C 798.490 272.178, 797.358 272.533, 796.098 276.149 M 768.955 290.048 C 764.875 294.416, 759.999 304.689, 760.004 308.910 C 760.016 321.022, 776.574 326.585, 783.439 316.783 C 787.146 311.491, 783.860 298.930, 776.472 290.149 C 773.191 286.250, 772.511 286.241, 768.955 290.048 M 440.045 291.092 C 425.653 293.914, 412.754 306.761, 409.908 321.108 C 408.808 326.656, 408.737 326.741, 403.386 328.959 C 385.771 336.260, 378.441 358.123, 387.569 376.135 L 389.981 380.897 387.006 385.698 C 377.055 401.753, 384.071 424.753, 402.150 435.348 C 411.067 440.573, 423.066 442.059, 429.500 438.734 C 436.354 435.192, 432.554 427.198, 424.675 428.584 C 412.513 430.723, 401.704 424.966, 396.353 413.500 C 392.110 404.409, 393.162 396.034, 399.697 386.866 C 403.659 381.308, 403.807 379.112, 400.486 375.166 C 388.662 361.113, 396.062 339.469, 413.692 336.540 C 418.982 335.661, 419.598 334.831, 420.304 327.633 C 422.154 308.773, 438.374 297.710, 456.500 302.945 C 465.980 305.683, 474.970 317.572, 475.014 327.428 C 475.042 333.744, 475.935 334.910, 483.389 338.353 C 500.182 346.112, 504.584 362.878, 493.359 376.327 C 490.148 380.174, 490.387 382.466, 494.500 387.271 C 496.425 389.520, 497.969 392.066, 497.932 392.930 C 497.894 393.793, 489.492 401.250, 479.260 409.500 C 469.028 417.750, 460.173 425.288, 459.583 426.250 C 457.919 428.965, 460.194 431.834, 465.250 433.396 C 466.867 433.896, 467 436.264, 467 464.469 L 467 495 459.567 495 C 453.324 495, 452.064 494.720, 451.693 493.250 C 450.910 490.153, 450.812 430.189, 451.554 408.134 L 452.272 386.769 461.636 375.997 C 471.827 364.274, 472.984 361.346, 468.567 358.452 C 465.388 356.369, 463.544 357.373, 457.445 364.513 C 454.844 367.558, 452.496 369.830, 452.229 369.562 C 451.961 369.295, 451.618 363.346, 451.466 356.344 C 451.231 345.474, 450.929 343.421, 449.404 342.306 C 446.863 340.448, 444.313 340.687, 442 343 C 440.126 344.874, 440 346.333, 440 366.164 L 440 387.328 433.097 380.664 C 425.657 373.481, 424.107 372.893, 420.949 376.051 C 417.916 379.084, 419.034 381.163, 430.137 393.130 L 440 403.760 440 449.380 L 440 495 433.250 495.015 C 422.794 495.038, 418.042 499.074, 422.575 504.082 C 425.223 507.009, 586.699 507.095, 589.345 504.171 C 592.652 500.517, 591.123 496.822, 585.744 495.472 L 583 494.783 583 473.545 C 583 461.864, 582.712 448.255, 582.361 443.302 L 581.722 434.298 585.611 432.399 C 588.832 430.826, 589.500 429.989, 589.500 427.527 C 589.500 424.911, 588.062 423.443, 577.500 415.279 L 565.500 406.002 565 394.419 C 564.465 382.017, 563.556 380, 558.500 380 C 554.537 380, 552.810 382.303, 552.137 388.485 L 551.500 394.331 539.099 384.165 C 532.278 378.574, 525.978 374.003, 525.099 374.007 C 524.219 374.011, 520.127 376.701, 516.005 379.984 C 508.542 385.930, 508.502 385.947, 506.535 383.980 C 504.757 382.202, 504.692 381.680, 505.886 378.752 C 509.793 369.174, 510.164 367.313, 509.831 359 C 509.292 345.578, 502.944 335.552, 491.224 329.613 C 486.802 327.373, 486.203 326.672, 485.626 323.062 C 482.137 301.241, 461.634 286.860, 440.045 291.092 M 771.035 304.934 C 768.459 309.748, 771.410 315.019, 774.789 311.640 C 775.966 310.462, 776.010 309.560, 775.034 306.603 C 773.700 302.559, 772.560 302.084, 771.035 304.934 M 694.247 306.250 C 693.699 306.938, 692.539 308.902, 691.669 310.615 C 688.419 317.020, 681.248 318.151, 671.167 313.849 C 664.752 311.111, 660.423 311.423, 656.974 314.872 C 649.303 322.543, 653.264 330.935, 665.260 332.429 C 672.430 333.322, 676.510 336.469, 678.089 342.323 C 679.532 347.672, 678.632 355.263, 676.034 359.667 C 673.246 364.393, 673.564 372, 676.550 372 C 677.274 372, 681.688 368.384, 686.357 363.963 C 696.378 354.477, 702.788 343.005, 705.448 329.792 C 707.768 318.270, 707.554 315.786, 704.017 313.170 C 702.376 311.957, 700.339 309.623, 699.491 307.982 C 697.860 304.828, 695.899 304.180, 694.247 306.250 M 817.199 324.745 C 801.009 341.533, 799.202 344.133, 801.399 347.486 C 804.429 352.111, 807.445 350.927, 816.641 341.500 C 821.202 336.825, 825.173 333, 825.467 333 C 825.760 333, 826 347.840, 826 365.977 L 826 398.954 828.615 400.667 C 830.961 402.205, 831.502 402.229, 833.865 400.903 L 836.500 399.424 836.764 366.712 C 836.909 348.720, 837.329 334, 837.699 334 C 838.068 334, 842.279 337.825, 847.056 342.500 C 856.233 351.480, 857.793 352.207, 861 349 C 864.156 345.844, 863.557 344.572, 853.929 333.976 C 837.750 316.169, 833.491 312, 831.473 311.995 C 830.252 311.993, 824.815 316.849, 817.199 324.745 M 592.247 336.996 C 590.461 338.082, 588.998 339.090, 588.996 339.235 C 588.993 339.381, 587.897 342.626, 586.559 346.448 C 585.221 350.269, 584.403 353.869, 584.742 354.448 C 588.638 361.101, 600.032 370.955, 609.202 375.602 C 615.082 378.582, 616 378.593, 616 375.687 C 616 374.415, 617.860 370.289, 620.134 366.519 C 625.527 357.578, 624.986 355.209, 617.150 353.446 C 610.260 351.895, 606.878 349.311, 604.951 344.125 C 602.086 336.419, 597.462 333.824, 592.247 336.996 M 762.465 372.952 C 758.927 374.386, 758.441 375.817, 750.059 409.500 C 732.741 479.096, 728.868 493.397, 726.310 497.182 C 721.622 504.121, 725.851 508.397, 737.468 508.461 C 744.066 508.497, 745.410 508.117, 754.153 503.750 C 765.757 497.953, 768.648 497.791, 777.835 502.417 C 793.388 510.249, 800.607 510.514, 814.256 503.753 C 826.003 497.935, 828.979 497.829, 839.179 502.864 C 854.474 510.414, 861.885 510.430, 876.608 502.945 C 885.152 498.602, 890.108 497.970, 895.157 500.581 C 900.618 503.405, 904.988 500.307, 903.839 494.426 C 903.191 491.114, 896.180 488.500, 887.945 488.500 C 880.974 488.500, 879.746 488.836, 872.054 492.850 C 860.653 498.800, 855.985 498.807, 843.500 492.896 C 830.631 486.803, 824.903 486.815, 811.962 492.964 C 804.647 496.440, 801.436 497.429, 797.462 497.429 C 793.418 497.429, 790.502 496.501, 783.429 492.964 C 770.848 486.674, 764.184 486.629, 751.886 492.750 C 743.959 496.696, 738.996 498.044, 739.003 496.250 C 739.004 495.837, 740.146 491.225, 741.541 486 C 742.935 480.775, 744.527 474.813, 745.077 472.750 C 745.627 470.688, 746.646 469, 747.341 469 C 748.037 469, 752.328 467.200, 756.877 465 C 768.049 459.598, 771.852 459.630, 783.048 465.220 C 795.086 471.231, 803.800 471.339, 815.305 465.621 C 827.007 459.806, 829.788 459.791, 841.969 465.485 C 855.441 471.783, 861.816 471.737, 875.349 465.243 C 884.738 460.738, 889.603 460.004, 895.630 462.183 C 902.042 464.502, 906.784 459.537, 902.888 454.584 C 897.943 448.298, 884.808 448.378, 872.087 454.772 C 860.665 460.513, 856.448 460.517, 844.947 454.802 C 833.827 449.276, 825.120 448.868, 815.229 453.411 C 811.780 454.996, 808.790 456.114, 808.585 455.896 C 808.379 455.678, 807.883 448.853, 807.483 440.729 L 806.756 425.959 827.628 426.229 L 848.500 426.500 849 436.602 C 849.536 447.431, 850.600 450, 854.551 450 C 859.835 450, 860.982 443.697, 858.644 427.500 C 858.553 426.868, 866.205 426.400, 879.444 426.229 C 897.166 426, 900.667 425.707, 902.194 424.324 C 904.581 422.164, 904.477 419.742, 901.896 417.405 C 899.900 415.598, 897.388 415.485, 852.996 415.213 L 806.201 414.926 805.517 401.213 C 804.342 377.649, 803.873 374.745, 801 373.293 C 798.142 371.848, 765.892 371.563, 762.465 372.952 M 767.680 383.750 C 766.744 385.352, 749.789 455.123, 750.229 455.563 C 750.486 455.819, 753.351 454.785, 756.598 453.264 C 765.798 448.955, 776.060 449.280, 785.500 454.179 C 789.350 456.177, 793.579 458.130, 794.897 458.520 L 797.295 459.228 796.620 441.364 C 795.668 416.167, 794.001 385.730, 793.492 384.250 C 793.014 382.859, 768.478 382.383, 767.680 383.750 M 505.500 401.609 C 495.600 409.611, 485.137 418.174, 482.250 420.637 L 477 425.115 477 460.010 L 477 494.905 492.750 495.202 C 501.413 495.366, 513.112 495.358, 518.750 495.184 L 529 494.867 529 477.005 C 529 462.100, 529.260 458.883, 530.571 457.571 C 532.662 455.481, 559.121 455.236, 560.827 457.291 C 561.438 458.028, 562.200 466.414, 562.603 476.841 L 563.308 495.100 567.404 494.800 L 571.500 494.500 571.775 461.737 C 571.927 443.717, 571.702 427.641, 571.275 426.011 C 570.494 423.025, 527.352 386.960, 524.644 387.029 C 524.015 387.045, 515.400 393.606, 505.500 401.609 M 654.500 420.219 C 653.400 420.856, 649.598 423.837, 646.052 426.845 C 636.496 434.949, 623.457 440.432, 608.693 442.553 C 600.812 443.686, 600.713 444.065, 601.237 471.236 C 601.735 497.095, 602.602 501.616, 609.661 515.133 C 618.149 531.387, 640.487 549.749, 655.108 552.493 C 666.859 554.697, 694.709 533.256, 704.764 514.264 C 711.814 500.947, 713 494.358, 713 468.495 C 713 443.176, 713.195 443.772, 704.500 442.531 C 690.697 440.560, 673.804 432.990, 665.500 425.056 C 659.484 419.308, 657.546 418.455, 654.500 420.219 M 490.223 429.557 C 488.097 431.046, 488 431.755, 488 445.857 C 488 455.990, 488.375 460.975, 489.200 461.800 C 490.872 463.472, 518.128 463.472, 519.800 461.800 C 520.629 460.971, 521 455.861, 521 445.275 L 521 429.950 518.435 428.975 C 514.045 427.306, 492.811 427.744, 490.223 429.557 M 651 436.581 C 642.590 443.468, 629.293 449.279, 614.634 452.472 L 611.768 453.096 612.256 472.798 C 612.795 494.599, 613.553 498.386, 619.806 510.500 C 626.575 523.616, 647.643 541, 656.769 541 C 664.901 541, 684.508 525.902, 692.483 513.500 C 700.254 501.415, 701.373 496.671, 701.805 473.978 L 702.195 453.456 692.550 450.745 C 681.076 447.520, 670.633 442.504, 662.749 436.430 C 659.585 433.994, 656.885 432.017, 656.749 432.038 C 656.612 432.059, 654.025 434.103, 651 436.581 M 498 445.952 L 498 453 504.546 453 L 511.091 453 510.796 446.250 L 510.500 439.500 504.250 439.202 L 498 438.905 498 445.952 M 540 480.500 L 540 495 545.500 495 L 551 495 551 480.500 L 551 466 545.500 466 L 540 466 540 480.500 M 673.068 471.728 C 669.957 474.903, 663.756 481.523, 659.287 486.440 L 651.162 495.381 644.544 489.190 C 640.905 485.786, 637.113 483, 636.118 483 C 633.805 483, 631 486.081, 631 488.621 C 631 491.136, 648.197 509, 650.618 509 C 652.483 509, 658.447 503.159, 675.250 484.875 C 686.747 472.366, 687.686 469.170, 680.612 466.634 C 679.174 466.118, 677.373 467.335, 673.068 471.728 M 539.712 522.556 C 528.569 525.052, 492.317 542.411, 486.619 547.980 C 481.924 552.568, 488.490 559.011, 494.355 555.572 C 520.795 540.066, 539.516 532.738, 552.500 532.814 C 565.819 532.891, 573.867 536.190, 594.500 550.028 C 604.616 556.813, 614.085 561.330, 625.699 564.910 C 636.504 568.241, 640 570.863, 640 575.635 C 640 585.508, 620.900 583.602, 593.646 571.011 C 584.183 566.639, 581.005 566.138, 578.517 568.626 C 573.375 573.768, 581.831 579.549, 606.853 588 C 634.476 597.330, 651 592.952, 651 576.302 C 651 565.564, 646.095 560.679, 629.605 554.993 C 615.067 549.981, 612.475 548.684, 598.212 539.278 C 574.354 523.545, 557.195 518.641, 539.712 522.556 M 719.471 537.362 C 716.704 538.650, 710.404 542.316, 705.471 545.509 C 694.377 552.689, 676.914 561.834, 667.136 565.582 C 658.591 568.858, 656.664 571.312, 659.381 575.459 C 661.637 578.902, 664.373 578.717, 674.807 574.416 C 685.893 569.845, 695.201 564.772, 711.643 554.339 C 726.550 544.881, 730.233 543.938, 733.927 548.635 C 736.886 552.396, 736.559 556.294, 732.941 560.415 C 726.745 567.471, 689.436 590.261, 658.949 605.613 C 624.225 623.098, 624.166 623.094, 578.500 600.278 C 564.200 593.133, 550.025 586.449, 547 585.424 C 538.460 582.532, 527.078 583, 512.500 586.844 C 497.612 590.769, 494.012 594.012, 499 599 C 501.583 601.583, 502.527 601.533, 512.855 598.263 C 520.089 595.973, 523.304 595.524, 532.555 595.513 L 543.609 595.500 574.555 610.657 C 623.240 634.502, 622.714 634.452, 657.205 618.516 C 684.576 605.869, 732.902 576.787, 741.193 567.974 C 756.720 551.467, 739.946 527.827, 719.471 537.362" stroke="none" fill="#1D5F3A" fill-rule="evenodd"/>
</svg>