<svg xmlns="http://www.w3.org/2000/svg" width="1280" height="540" viewBox="0 0 1280 540" version="1.1">
	<path d="M 615.565 42.550 C 613.950 43.388, 610.350 46.006, 607.565 48.368 C 604.779 50.731, 593.890 59.436, 583.367 67.715 C 537.143 104.079, 479.101 154.092, 438.500 192.544 C 414.336 215.429, 411.455 218.693, 412.335 222.197 C 413.901 228.435, 413.976 228.455, 436.667 229 L 457.500 229.500 458 347.338 L 458.500 465.177 460.861 467.088 C 464.726 470.218, 669.379 470.063, 673.365 466.927 C 676.906 464.143, 676.906 459.857, 673.365 457.073 C 670.739 455.007, 670.382 455, 570.865 455 L 471 455 471 338.547 C 471 253.637, 470.692 221.418, 469.862 219.597 C 468.178 215.901, 464.158 215, 449.351 215 C 442.008 215, 436 214.615, 436 214.144 C 436 213.294, 478.245 173.666, 495.500 158.331 C 523.367 133.563, 616.635 57, 618.939 57 C 619.792 57, 659.719 88.054, 676.097 101.456 C 734.386 149.154, 806 211.781, 806 215.057 C 806 215.522, 800.689 215.634, 794.198 215.308 C 780.694 214.629, 775.940 215.641, 774.147 219.576 C 773.378 221.264, 773 230.653, 773 248.047 C 773 276.796, 773.276 278.021, 779.750 277.985 C 786.419 277.948, 787 275.750, 787 250.566 L 787 229 804.550 229 C 823.872 229, 827.417 228.172, 828.620 223.376 C 829.752 218.870, 826.710 214.886, 811.138 200.482 L 796.021 186.500 796.011 134.323 L 796 82.145 793.313 80.032 C 790.693 77.971, 789.878 77.926, 760.348 78.209 C 732.859 78.473, 729.904 78.664, 728.284 80.284 C 726.717 81.851, 726.439 84.681, 726 103.561 L 725.500 125.055 703.500 106.770 C 669.978 78.908, 623.829 42.715, 620.467 41.649 C 619.385 41.306, 617.179 41.712, 615.565 42.550 M 740.667 91.667 C 740.300 92.033, 740 102.354, 740 114.602 L 740 136.871 746.250 142.309 C 749.688 145.300, 759.017 153.423, 766.983 160.359 C 778.400 170.301, 781.576 172.603, 781.983 171.235 C 782.267 170.281, 782.377 151.838, 782.227 130.250 L 781.954 91 761.644 91 C 750.473 91, 741.033 91.300, 740.667 91.667 M 542.856 220.730 C 535.095 221.536, 535.537 217.749, 535.194 286.354 C 535.026 319.985, 535.175 350.327, 535.527 353.781 C 536.594 364.268, 531.064 363.500, 605.456 363.500 C 674.274 363.500, 673.065 363.589, 675.048 358.374 C 675.615 356.883, 676 330.019, 676 292 C 676 253.981, 675.615 227.117, 675.048 225.626 C 673.072 220.429, 674.053 220.506, 608 220.425 C 574.175 220.384, 544.860 220.521, 542.856 220.730 M 549 259 L 549 284 574 284 L 599 284 599 259 L 599 234 574 234 L 549 234 549 259 M 613 259 L 613 284 637.500 284 L 662 284 662 259 L 662 234 637.500 234 L 613 234 613 259 M 850.367 284.533 C 840.509 289.243, 829.238 292.342, 803 297.559 C 757.657 306.574, 741.054 313.506, 722.435 331.191 C 710.223 342.792, 700.509 358.748, 695.331 375.712 C 692.936 383.558, 692.640 386.162, 692.574 400 C 692.490 417.637, 693.599 423.255, 700.223 438.750 L 704.177 448 700.215 457.250 C 695.205 468.945, 689 488.075, 689 491.827 C 689 497.342, 695.832 500.272, 699.967 496.530 C 701.012 495.584, 703.889 488.666, 706.360 481.155 C 708.832 473.645, 712.028 464.863, 713.463 461.640 C 716.423 454.991, 714.801 455.215, 730 459.358 C 772.607 470.970, 811.046 457.611, 838.018 421.815 C 852.183 403.017, 860.015 382.997, 865.133 352.500 C 868.385 333.121, 868.560 288.590, 865.401 284.330 C 862.492 280.408, 858.901 280.457, 850.367 284.533 M 549 324 L 549 350 574 350 L 599 350 599 324 L 599 298 574 298 L 549 298 549 324 M 613 324 L 613 350 637.500 350 L 662 350 662 324 L 662 298 637.500 298 L 613 298 613 324 M 847.080 300.654 C 840.505 303.520, 819.365 308.966, 803.151 311.972 C 767.599 318.562, 758.805 321.537, 743.303 332.218 C 724.762 344.993, 711.665 363.966, 707.336 384.322 C 704.226 398.946, 707.900 430.500, 712.713 430.500 C 713.379 430.500, 717.118 425.793, 721.020 420.041 C 731.010 405.314, 737.187 398.038, 751.273 384.402 C 768.333 367.888, 791.355 352, 798.226 352 C 803.128 352, 806.689 357.794, 804.197 361.715 C 803.772 362.384, 798.267 366.148, 791.962 370.081 C 777.942 378.828, 764.229 389.797, 755.391 399.334 C 742.520 413.224, 722.865 441.325, 724.763 443.125 C 725.168 443.510, 729.550 445.101, 734.500 446.662 C 746.988 450.599, 769.224 450.836, 781 447.157 C 818.698 435.380, 845.556 398.043, 851.968 348.500 C 852.608 343.550, 853.392 330.387, 853.709 319.250 C 854.356 296.542, 854.647 297.356, 847.080 300.654" stroke="none" fill="#1D613A" fill-rule="evenodd"/>
</svg>