<svg xmlns="http://www.w3.org/2000/svg" width="1000" height="500" viewBox="72.0 -14.3 1135.0 567.5">
	<path d="M 609.945 48.308 C 606.400 51.228, 594.890 60.401, 584.367 68.692 C 537.697 105.463, 479.996 155.192, 439.500 193.544 C 413.019 218.623, 412.220 219.591, 414.444 223.891 C 415.328 225.601, 416.152 227.089, 416.276 227.199 C 416.399 227.308, 425.950 227.645, 437.500 227.949 L 458.500 228.500 459 346.338 L 459.500 464.177 461.861 466.088 C 465.725 469.218, 668.380 469.062, 672.365 465.927 C 673.814 464.788, 675 463.020, 675 462 C 675 460.980, 673.814 459.212, 672.365 458.073 C 669.739 456.007, 669.382 456, 569.865 456 L 470 456 470 339.547 C 470 254.637, 469.692 222.418, 468.862 220.597 C 467.178 216.901, 463.158 216, 448.351 216 C 436.011 216, 435 215.859, 435 214.144 C 435 212.458, 468.984 180.008, 494.500 157.331 C 529.036 126.636, 615.781 56, 618.939 56 C 622.987 56, 710.596 127.045, 762.500 172.418 C 787.670 194.421, 807 212.976, 807 215.135 C 807 216.959, 806.404 217.023, 795.188 216.389 C 781.668 215.625, 776.955 216.610, 775.147 220.576 C 774.382 222.255, 774 231.405, 774 248.047 C 774 271.667, 774.107 273.107, 776 275 C 778.050 277.050, 780.650 277.537, 782.600 276.235 C 785.539 274.273, 786 270.654, 786 249.566 L 786 228 803.550 228 C 822.211 228, 826.173 227.182, 827.481 223.061 C 828.590 219.567, 825.394 215.595, 810.075 201.425 L 795.021 187.500 795.011 135.323 L 795 83.145 792.312 81.031 C 789.694 78.971, 788.863 78.924, 760.346 79.208 C 733.819 79.473, 730.901 79.668, 729.284 81.284 C 727.705 82.863, 727.463 85.530, 727.179 104.534 C 726.941 120.463, 726.546 126, 725.650 126 C 724.986 126, 714.555 117.784, 702.471 107.742 C 660.563 72.917, 621.870 43, 618.737 43 C 617.377 43, 613.677 45.234, 609.945 48.308 M 739.667 90.667 C 739.300 91.033, 739 101.804, 739 114.602 L 739 137.871 745.250 143.309 C 748.688 146.300, 758.025 154.429, 766 161.374 C 773.975 168.318, 781.010 174, 781.633 174 C 783.458 174, 783.514 172.434, 783.207 130.250 L 782.914 90 761.624 90 C 749.914 90, 740.033 90.300, 739.667 90.667 M 543.856 221.737 C 536.104 222.527, 536.537 218.869, 536.194 286.354 C 536.025 319.435, 536.175 349.327, 536.527 352.781 C 537.593 363.261, 532.199 362.500, 605.456 362.500 C 673.198 362.500, 672.067 362.585, 674.048 357.374 C 674.614 355.885, 675 329.386, 675 292 C 675 254.614, 674.614 228.115, 674.048 226.626 C 672.074 221.434, 672.979 221.505, 608 221.433 C 574.725 221.396, 545.860 221.533, 543.856 221.737 M 548 259 L 548 285 574 285 L 600 285 600 259 L 600 233 574 233 L 548 233 548 259 M 612 259 L 612 285 637.500 285 L 663 285 663 259 L 663 233 637.500 233 L 612 233 612 259 M 851.367 285.538 C 841.500 290.245, 830.221 293.346, 804 298.559 C 773.644 304.595, 764.478 307.191, 751.303 313.483 C 728.299 324.470, 713.729 338.609, 702.633 360.712 C 695.797 374.332, 693.670 383.560, 693.580 400 C 693.489 416.506, 694.705 422.547, 701.129 437.500 C 705.847 448.482, 705.847 447.521, 701.121 458.500 C 696.821 468.488, 690 488.929, 690 491.827 C 690 494.207, 693.063 497, 695.674 497 C 699.048 497, 700.810 493.915, 705.429 479.922 C 707.865 472.540, 711.031 463.865, 712.464 460.645 C 715.496 453.826, 714.882 453.903, 731 458.334 C 766.113 467.988, 797.818 460.266, 823.593 435.782 C 853.178 407.679, 866.183 370.480, 866.403 313.331 C 866.496 289.246, 866.410 288.039, 864.400 285.331 C 861.572 281.520, 859.729 281.549, 851.367 285.538 M 548 324 L 548 351 574 351 L 600 351 600 324 L 600 297 574 297 L 548 297 548 324 M 612 324 L 612 351 637.500 351 L 663 351 663 324 L 663 297 637.500 297 L 612 297 612 324 M 846.080 299.654 C 839.505 302.520, 818.365 307.966, 802.151 310.972 C 766.599 317.562, 757.805 320.537, 742.303 331.218 C 723.761 343.993, 710.660 362.973, 706.338 383.322 C 704.036 394.160, 704.942 415.229, 708.109 424.500 C 711.617 434.770, 713.006 434.535, 721.160 422.296 C 739.211 395.198, 765.465 370.176, 790.040 356.647 C 797.812 352.368, 801.272 352.307, 803.145 356.418 C 804.763 359.970, 803.559 361.223, 790.989 369.065 C 776.957 377.819, 763.246 388.782, 754.383 398.334 C 740.894 412.871, 722.068 440.128, 723.299 443.337 C 723.572 444.048, 728.004 445.948, 733.147 447.561 C 746.077 451.614, 769.999 451.906, 782 448.157 C 819.698 436.380, 846.521 399.096, 852.974 349.500 C 853.618 344.550, 854.401 330.938, 854.713 319.250 L 855.281 298 852.390 298.082 C 850.801 298.126, 847.961 298.834, 846.080 299.654" stroke="none" fill="#1D5F3A" fill-rule="evenodd"/>
</svg>