<svg xmlns="http://www.w3.org/2000/svg" width="1000" height="500" viewBox="-110.5 -105.5 1500.0 750.0">
	<path d="M 655 15.022 C 617.461 19.448, 589.617 42.188, 580.335 76 C 577.598 85.973, 577.787 109.492, 580.668 117.174 L 582.795 122.848 580.369 128.085 C 576.854 135.673, 572 149.789, 572 152.425 C 572 155.344, 574.957 158, 578.206 158 C 581.457 158, 582.287 156.942, 585.289 148.965 C 589.082 138.888, 592.862 132, 594.600 132 C 595.462 132, 599.617 132.866, 603.833 133.925 C 636.198 142.051, 660.575 136.636, 681.716 116.623 C 694.852 104.189, 701.930 92.400, 709.035 71.121 C 713.310 58.317, 719.026 31.699, 719.315 23.245 C 719.593 15.129, 719.249 15.001, 697.059 14.994 C 686.851 14.991, 674.900 14.797, 670.500 14.563 C 666.100 14.329, 659.125 14.536, 655 15.022 M 648.834 28.504 C 620.229 33.914, 599.446 52.351, 592.478 78.500 C 590.866 84.550, 590.138 106.478, 591.505 107.832 C 591.876 108.199, 594.042 106.250, 596.319 103.500 C 618.209 77.060, 651.004 54.276, 656.916 61.399 C 660.628 65.872, 658.410 69.491, 648.663 74.862 C 631.881 84.109, 620.435 93.707, 608.852 108.247 C 604.533 113.668, 601 118.512, 601 119.011 C 601 121.196, 614.607 124.317, 626 124.745 C 666.848 126.283, 693.867 97.295, 704.190 40.855 C 705.380 34.346, 706.162 28.836, 705.927 28.611 C 704.517 27.256, 655.913 27.165, 648.834 28.504 M 531 76.396 C 460.686 100.850, 409.261 154.382, 385.620 227.732 C 380.646 243.163, 381.110 247, 387.949 247 C 391.881 247, 392.173 246.461, 398.270 227.981 C 420.215 161.470, 468.936 111.076, 533 88.626 C 547.664 83.487, 550.076 81.265, 546.379 76.296 C 543.583 72.537, 542.066 72.547, 531 76.396 M 740.571 75.571 C 738.658 77.485, 738.511 82.349, 740.321 83.851 C 741.048 84.454, 746.110 86.803, 751.571 89.070 C 833.605 123.125, 887.359 200.818, 892.810 293.210 C 893.476 304.507, 893.951 307.288, 895.507 309.008 C 898.009 311.772, 901.754 311.237, 904.350 307.745 C 906.336 305.073, 906.360 304.551, 905.158 290.245 C 902.147 254.437, 894.022 224.928, 878.519 193.500 C 851.180 138.079, 810.324 99.631, 755.124 77.377 C 745.804 73.619, 742.886 73.257, 740.571 75.571 M 575.557 207.223 C 573.075 210.766, 573.356 229.185, 575.947 232.790 C 578.695 236.615, 577.702 239.887, 571.720 246.721 C 562.337 257.441, 561.548 260.258, 561.193 284.296 L 560.887 305.093 554.693 304.796 L 548.500 304.500 548.236 274.392 C 547.980 245.299, 547.901 244.220, 545.882 242.392 C 542.576 239.398, 482.543 238.930, 478.910 241.871 L 476.500 243.821 476 274.160 L 475.500 304.500 460.053 304.500 L 444.606 304.500 439.342 286.757 C 436.446 276.998, 433.605 268.130, 433.027 267.050 C 431.483 264.165, 427.992 263.852, 401.168 264.192 C 374.711 264.527, 374 264.692, 374 270.500 C 374 275.862, 374.672 276.015, 399.971 276.427 C 421.627 276.780, 423.496 276.952, 424.216 278.655 C 425.693 282.149, 448.189 357.609, 465.426 416.890 L 469.028 429.281 466.075 433.890 C 456.402 448.987, 454.564 458.501, 459.408 468.402 C 462.408 474.533, 466.420 478.392, 472.694 481.180 L 476.888 483.044 474.454 488.272 C 465.944 506.549, 479.162 525.867, 499.474 524.841 C 518.989 523.856, 528.999 505.284, 520.544 485.750 C 519.828 484.097, 522.503 484, 568.893 484 C 595.902 484, 618 484.128, 618 484.285 C 618 484.441, 617.100 487.130, 616 490.260 C 612.367 500.596, 614.550 510.206, 622.240 517.735 C 642.651 537.717, 674.562 515.795, 664.015 489.037 L 662.029 484 666.060 484 C 672.940 484, 676.916 478.532, 673.250 474.111 L 671.500 472 576 471.750 C 484.110 471.509, 480.354 471.427, 476.632 469.580 C 471.873 467.218, 469.009 462.739, 469.004 457.653 C 469 453.872, 474.610 441.637, 478.890 436.090 L 480.749 433.681 521.125 432.897 C 678.291 429.844, 673.375 429.997, 675.310 428.100 C 676.473 426.959, 679.745 416.346, 684.463 398.412 C 709.577 302.946, 708.800 306.741, 703.505 305.412 C 701.661 304.949, 700.154 302.952, 697.526 297.487 C 692.337 286.698, 685.330 281.148, 673.500 278.456 L 670.500 277.773 673 276.774 C 674.375 276.224, 677.197 275.077, 679.272 274.225 C 685.189 271.796, 690.534 265.247, 692.929 257.494 C 695.495 249.188, 695.510 247.510, 693.042 245.042 C 691.176 243.176, 690.833 243.157, 685.792 244.637 C 677.798 246.983, 671.279 250.896, 666.492 256.220 L 662.180 261.016 659.087 257.110 C 650.912 246.788, 637 242.708, 637 250.632 C 637 253.097, 637.468 253.602, 644.931 259.185 C 649.826 262.848, 658 274.030, 658 277.064 C 658 278.521, 657.302 279, 655.178 279 C 644.179 279, 631.562 290.047, 628.624 302.250 C 626.950 309.203, 626 304.111, 626 288.184 C 626 262.585, 624.665 257.657, 614.589 246.074 C 608.680 239.281, 607.329 234.631, 610.500 232 C 611.670 231.029, 612 228.288, 612 219.533 C 612 204.409, 612.783 205, 592.728 205 C 577.726 205, 577.052 205.087, 575.557 207.223 M 585.190 219.750 L 585.500 223.500 590.947 223.809 C 599.392 224.288, 601 223.596, 601 219.481 L 601 216 592.940 216 L 584.879 216 585.190 219.750 M 588.713 235.621 C 588.321 236.013, 587.998 237.721, 587.995 239.417 C 587.989 242.799, 586.669 245.157, 580.169 253.402 C 572.090 263.649, 572 264.003, 572 285.731 L 572 305.040 593.250 304.770 L 614.500 304.500 614.476 285 C 614.449 262.407, 614.359 262.077, 605.434 251.633 C 600.587 245.960, 599.473 243.960, 599.033 240.133 L 598.500 235.500 593.963 235.204 C 591.467 235.041, 589.105 235.229, 588.713 235.621 M 790.842 241.389 C 779.976 244.316, 768.347 254.243, 762.138 265.893 C 756.684 276.125, 754.753 285.511, 754.093 305 L 753.500 322.500 741.420 323 C 730.429 323.455, 728.974 323.742, 725.291 326.184 C 717.229 331.528, 717.095 332.226, 714.386 382.792 C 713.068 407.381, 711.151 442.686, 710.124 461.248 C 708.940 482.654, 708.571 496.675, 709.115 499.588 C 711.262 511.080, 719.897 520.412, 731.173 523.429 C 736.868 524.952, 743.939 525.090, 802 524.811 L 866.500 524.500 871.727 522.137 C 881.711 517.623, 888.847 507.082, 889.720 495.561 C 890.136 490.068, 888.087 450.252, 883.131 367.500 C 881.561 341.295, 881.072 336.994, 879.264 333.500 C 874.679 324.637, 869.149 322, 855.151 322 L 845.237 322 844.727 302.750 C 844.319 287.328, 843.825 282.286, 842.244 277.393 C 833.630 250.739, 812.106 235.662, 790.842 241.389 M 487 278 L 487 305 512 305 L 537 305 537 278 L 537 251 512 251 L 487 251 487 278 M 676.302 260.329 C 671.013 265.326, 670.741 267.764, 675.744 265.333 C 678.522 263.982, 683 258.613, 683 256.632 C 683 254.991, 680.478 256.383, 676.302 260.329 M 794.183 262.030 C 791.990 263.367, 789.963 265.993, 788.205 269.776 C 785.609 275.361, 785.536 276.063, 785.167 298.750 L 784.789 322 799.395 322 L 814 322 814 302.049 C 814 291.076, 813.495 279.714, 812.877 276.799 C 809.885 262.684, 802.578 256.911, 794.183 262.030 M 822.012 265.095 C 822.018 265.868, 822.732 268.975, 823.598 272 C 824.721 275.919, 825.329 283.911, 825.717 299.803 L 826.260 322.105 829.880 321.803 L 833.500 321.500 833.182 305.500 C 832.807 286.671, 831.958 280.884, 828.406 272.969 C 825.694 266.928, 821.989 262.364, 822.012 265.095 M 774.634 267.163 C 768.159 277.081, 766.018 287.154, 766.008 307.750 L 766 322 769.381 322 L 772.761 322 773.281 299.750 C 773.664 283.348, 774.237 275.960, 775.460 271.643 C 777.284 265.200, 776.983 263.565, 774.634 267.163 M 651.500 290.503 C 646.473 292.281, 640 299.012, 640 302.461 L 640 305 664 305 C 685.008 305, 688 304.807, 688 303.450 C 688 295.278, 672.321 285.791, 669.487 292.250 C 667.868 295.940, 662.593 295.847, 659.062 292.066 C 657.486 290.380, 656.041 289.020, 655.849 289.044 C 655.657 289.068, 653.700 289.725, 651.500 290.503 M 449.596 317.844 C 449.309 318.308, 451.847 328.208, 455.236 339.844 L 461.398 361 485.699 361 L 510 361 509.987 358.750 C 509.979 357.512, 508.404 347.980, 506.487 337.568 C 504.569 327.155, 503 318.267, 503 317.818 C 503 316.732, 450.268 316.758, 449.596 317.844 M 515.431 322.750 C 515.811 325.913, 517.556 335.700, 519.310 344.500 L 522.500 360.500 547.250 360.767 L 572 361.035 572 339.017 L 572 317 543.371 317 L 514.742 317 515.431 322.750 M 583.503 337.912 C 583.102 349.414, 583.076 359.314, 583.446 359.912 C 583.898 360.644, 591.564 361, 606.903 361 L 629.687 361 632.883 341.250 C 634.641 330.387, 636.295 320.488, 636.559 319.250 L 637.038 317 610.635 317 L 584.233 317 583.503 337.912 M 648.495 318.250 C 647.936 319.832, 642 357.559, 642 359.533 C 642 360.773, 645.071 361, 661.842 361 L 681.683 361 682.804 357.250 C 685.242 349.091, 692.996 319.426, 692.998 318.250 C 693 317.288, 687.928 317, 670.969 317 C 654.246 317, 648.831 317.301, 648.495 318.250 M 806.462 334.748 L 785.424 335.039 784.316 337.974 C 782.265 343.407, 774 342.503, 774 336.845 C 774 335.113, 772.772 335, 753.955 335 C 734.369 335, 733.856 335.053, 731.608 337.301 C 728.921 339.988, 728.798 341.146, 726.487 385.500 C 725.656 401.450, 724.547 422.150, 724.022 431.500 C 720.286 498.051, 720.306 499.305, 725.151 505.465 C 730.532 512.306, 728.043 512.087, 799.677 512.022 C 870.700 511.957, 868.154 512.170, 873.485 505.835 C 878.688 499.652, 878.658 502.052, 874.437 428.500 C 873.584 413.650, 872.099 387.476, 871.137 370.336 C 869.907 348.439, 869 338.705, 868.085 337.603 C 866.232 335.370, 860.537 334.012, 853 334.006 C 846.767 334, 846.385 334.144, 843.707 337.500 C 840.220 341.870, 839.138 341.870, 835.269 337.500 C 833.162 335.120, 831.423 334.073, 829.835 334.229 C 828.551 334.355, 818.033 334.589, 806.462 334.748 M 824.500 375.525 C 820.650 377.370, 813.675 380.060, 809 381.504 C 791.798 386.816, 785.899 389.291, 779.164 394.021 C 759.183 408.053, 752.802 431.888, 763.417 452.837 L 765.859 457.655 762.438 467.578 C 757.555 481.744, 757.956 486, 764.177 486 C 767.236 486, 769.336 483.473, 770.410 478.500 C 770.766 476.850, 772.001 472.907, 773.155 469.737 L 775.253 463.974 782.877 464.610 C 808.722 466.765, 828.155 451.050, 836.186 421.500 C 839.291 410.074, 839.573 377.401, 836.595 374.107 C 834.118 371.367, 832.876 371.513, 824.500 375.525 M 466.407 374.381 C 465.809 375.939, 478.344 419.744, 479.806 421.206 C 481.580 422.980, 521 420.992, 521 419.129 C 521 417.243, 514.145 377.266, 513.390 374.750 C 512.679 372.380, 467.312 372.023, 466.407 374.381 M 525.577 373.875 C 524.720 375.262, 533.083 419.385, 534.374 420.286 C 534.993 420.719, 537.075 420.836, 539 420.547 C 540.925 420.258, 549.146 420.017, 557.268 420.011 L 572.037 420 571.768 396.750 L 571.500 373.500 548.821 373.231 C 535.906 373.078, 525.898 373.356, 525.577 373.875 M 584.448 374.274 C 584.180 374.974, 584.081 385.383, 584.230 397.405 L 584.500 419.263 602.477 419.071 C 612.365 418.965, 620.655 418.679, 620.899 418.435 C 621.718 417.615, 628.057 375.590, 627.557 374.287 C 626.843 372.427, 585.162 372.414, 584.448 374.274 M 639.519 375.250 C 638.196 380.979, 633.185 417.490, 633.623 418.200 C 634.213 419.153, 650.734 419.247, 660.219 418.351 C 666.641 417.745, 666.983 417.579, 667.944 414.608 C 669.771 408.958, 678 376.210, 678 374.590 C 678 373.193, 675.700 373, 659.019 373 C 640.156 373, 640.035 373.014, 639.519 375.250 M 809 392.884 C 790.243 399.289, 785.149 401.995, 778.535 409.066 C 770.883 417.247, 767.976 426.647, 769.450 438.447 C 770.376 445.861, 771.674 445.542, 777.408 436.490 C 785.596 423.565, 799.503 410, 804.567 410 C 807.253 410, 810.362 413.893, 809.490 416.165 C 809.185 416.961, 806.268 419.960, 803.008 422.830 C 796.469 428.585, 790.031 436.531, 784.574 445.581 C 779.457 454.068, 779.563 454.278, 788.772 453.856 C 806.355 453.051, 819.923 440.720, 825.474 420.500 C 827.757 412.186, 828.827 386.951, 826.890 387.125 C 826.125 387.193, 818.075 389.785, 809 392.884 M 493.643 486.028 C 485.301 488.528, 481.354 499.149, 485.960 506.701 C 491.462 515.725, 505.961 514.924, 510.507 505.345 C 515.686 494.430, 505.300 482.535, 493.643 486.028 M 635.643 486.028 C 629.320 487.923, 625.511 493.971, 626.290 500.878 C 627.515 511.748, 641.249 517.110, 649.441 509.918 C 661.039 499.734, 650.544 481.563, 635.643 486.028" stroke="none" fill="#1D5F3A" fill-rule="evenodd"/>
</svg>