<svg xmlns="http://www.w3.org/2000/svg" width="1000" height="500" viewBox="-112.5 -46.8 1505.0 752.5">
	<path d="M 645 30.510 C 618.911 35.867, 598.983 53.858, 592.397 78 C 589.699 87.889, 589.885 105.552, 592.776 114.006 L 595.001 120.512 591.474 129.496 C 586.689 141.683, 586.196 145.196, 588.890 147.890 C 591.241 150.241, 595.784 150.661, 598.195 148.750 C 599.062 148.063, 600.955 143.900, 602.402 139.500 C 606.213 127.906, 605.601 128.396, 613.650 130.479 C 630.195 134.761, 647.413 133.350, 660.743 126.621 C 684.186 114.786, 696.697 92.582, 702.925 51.757 C 705.451 35.197, 705.489 32.726, 703.250 30.823 C 700.834 28.771, 654.679 28.522, 645 30.510 M 646.250 43.485 C 631.803 46.696, 616.357 58.190, 609.711 70.675 C 604.600 80.277, 601.824 95.589, 603.869 102.891 C 604.503 105.153, 604.771 104.981, 608.828 99.722 C 619.502 85.888, 644.395 66, 651.038 66 C 655.064 66, 657.168 68.508, 656.803 72.874 C 656.523 76.220, 655.811 76.959, 647.561 82.467 C 634.670 91.074, 612.023 114.356, 614.314 116.647 C 615.583 117.916, 626.796 119.970, 632.540 119.984 C 663.200 120.064, 683.564 94.187, 690.370 46.500 L 690.941 42.500 671.720 42.298 C 658.313 42.158, 650.610 42.517, 646.250 43.485 M 550.659 89.090 C 460.878 116.244, 393.668 190.470, 377.963 279.811 C 373.220 306.795, 374.119 316, 381.500 316 C 386.671 316, 388.183 313.352, 389.080 302.723 C 391.986 268.275, 402.410 237.043, 421.943 204.262 C 450.492 156.347, 498.578 119.603, 556.324 101.576 C 563.353 99.382, 568.022 97.386, 568.393 96.417 C 569.700 93.013, 568.987 89.104, 566.777 87.557 C 563.789 85.463, 562.129 85.621, 550.659 89.090 M 715.223 87.557 C 712.462 89.490, 712.193 94.987, 714.750 97.215 C 715.712 98.054, 721 100.213, 726.500 102.013 C 821.258 133.028, 884.462 213.835, 890.972 312.295 C 891.888 326.143, 892.176 327.664, 894.201 329.332 C 896.548 331.266, 901.033 331.047, 903.655 328.872 C 906.688 326.354, 904.919 297.479, 900.355 275 C 882.890 188.985, 820.768 119.788, 734.220 89.946 C 721.662 85.615, 718.552 85.224, 715.223 87.557 M 510.571 150.571 C 508.755 152.387, 508.302 167.828, 509.974 170.951 C 511.398 173.612, 515.738 174.402, 518.606 172.523 C 520.861 171.045, 521 170.387, 521 161.177 C 521 154.906, 520.570 150.970, 519.800 150.200 C 518.088 148.488, 512.427 148.716, 510.571 150.571 M 768.081 164.524 C 755.999 167.916, 747.053 176.219, 742.519 188.250 L 740.728 193 734.614 193.010 C 709.273 193.050, 697.420 225.306, 716.339 242.745 C 724.208 249.998, 725.255 250.119, 777.139 249.789 L 822.500 249.500 827.788 247.111 C 852.863 235.780, 847.161 195.071, 819.986 191.413 C 815.640 190.828, 815.371 190.589, 812.736 184.982 C 805.049 168.620, 785.459 159.646, 768.081 164.524 M 470.852 168.426 C 469.133 172.197, 470.495 175.232, 476.417 180.833 C 482.279 186.377, 486.354 187.503, 489.429 184.429 C 492.478 181.379, 491.338 178.018, 485.160 171.840 C 478.335 165.015, 472.987 163.739, 470.852 168.426 M 545.652 171.926 C 539.695 178.171, 538.617 181.474, 541.571 184.429 C 544.951 187.809, 549.274 186.442, 555.348 180.074 C 561.305 173.829, 562.383 170.526, 559.429 167.571 C 556.049 164.191, 551.726 165.558, 545.652 171.926 M 769 177.590 C 761.275 180.927, 755.337 188.875, 753.005 199 C 751.213 206.778, 750.562 207.355, 744.539 206.492 C 735.127 205.145, 731.661 205.429, 727.710 207.870 C 717.798 213.996, 717.357 228.093, 726.875 234.561 L 730.464 237 775.084 237 L 819.704 237 823.078 234.726 C 833.204 227.903, 833.763 214.497, 824.225 207.223 C 821.313 205.001, 819.385 204.470, 812.638 204.029 L 804.544 203.500 802.957 197.418 C 800.312 187.276, 796.009 181.715, 788 178.084 C 782.608 175.639, 774.032 175.416, 769 177.590 M 505.499 181.329 C 476.626 190.806, 477.820 234, 507.149 241.036 C 531.876 246.968, 552.669 223.929, 544.425 199.734 C 539.518 185.333, 520.580 176.379, 505.499 181.329 M 510.685 192.973 C 499.935 196.367, 494.070 209.337, 498.956 218.914 C 507.955 236.553, 533.321 230.670, 533.373 210.932 C 533.403 199.229, 521.276 189.630, 510.685 192.973 M 455.750 206.080 C 453.208 207.561, 453.338 214.576, 455.934 215.965 C 459.462 217.853, 474.446 217.270, 476.345 215.171 C 478.531 212.756, 478.448 208.716, 476.171 206.655 C 474.058 204.742, 458.785 204.312, 455.750 206.080 M 554.200 206.200 C 552.205 208.195, 552.700 214.769, 554.934 215.965 C 558.055 217.635, 572.179 217.264, 574.777 215.443 C 577.552 213.500, 577.654 209.654, 575 207 C 572.629 204.629, 556.395 204.005, 554.200 206.200 M 627.539 234.044 C 595.187 239.127, 569.553 262.714, 561.959 294.386 C 549.643 345.755, 587.427 394.907, 639.292 394.985 C 674.913 395.039, 703.561 374.216, 715.627 339.500 C 719.484 328.402, 719.770 305.250, 716.211 292.170 C 705.625 253.263, 666.878 227.864, 627.539 234.044 M 542.250 236.522 C 537.999 239.529, 539.159 243.893, 545.926 250.348 C 549.346 253.611, 552.756 256, 553.992 256 C 562.020 256, 562.392 248.779, 554.750 241.280 C 548.771 235.412, 545.551 234.187, 542.250 236.522 M 475.652 241.926 C 469.594 248.277, 468.620 251.441, 471.829 254.345 C 475.286 257.474, 478.640 256.421, 485.037 250.201 C 493.367 242.100, 493.331 236, 484.952 236 C 481.801 236, 480.534 236.807, 475.652 241.926 M 626.072 247.492 C 619.118 249.066, 605 255.321, 605 256.828 C 605 258.304, 607.238 259.669, 610.746 260.333 C 617.904 261.689, 622 266.931, 622 274.733 C 622 282.859, 616.865 288.218, 605.437 292.021 C 597.818 294.557, 596.488 296.384, 596.857 303.809 C 597.454 315.803, 587.190 323.751, 576.098 319.884 C 574.338 319.271, 572.688 318.979, 572.431 319.235 C 571.899 319.767, 574.403 332.234, 575.795 335.984 L 576.717 338.467 577.428 336.228 C 582.578 320, 607.929 320.281, 615.168 336.647 C 616.571 339.820, 617.813 341.144, 619.793 341.582 C 629.770 343.786, 634.408 347.868, 635.544 355.445 C 636.414 361.250, 635.645 364.153, 631.426 370.989 C 627.707 377.013, 627.100 380.441, 629.582 381.393 C 632.223 382.406, 647.560 382.072, 653.201 380.878 C 661.751 379.069, 664.138 377.492, 662.971 374.424 C 661.162 369.665, 661.849 361.298, 664.584 354.801 C 667.671 347.465, 666.931 344.004, 662.271 343.994 C 649.640 343.969, 639.652 332.473, 641.509 320.095 C 643.918 304.028, 657.963 296.310, 674.461 301.987 C 680.881 304.195, 681.387 304.086, 683.482 300.035 C 684.879 297.334, 684.822 297.114, 682.312 295.469 C 679.947 293.919, 678.977 293.872, 672.921 295.015 C 661.839 297.106, 651.737 293.606, 650.504 287.248 C 650.211 285.737, 649.220 282.475, 648.302 280 C 644.305 269.226, 646.522 261.796, 655.018 257.491 C 661.638 254.136, 662.172 250.060, 656.250 248.084 C 650.409 246.136, 633.528 245.804, 626.072 247.492 M 511.441 249.421 C 509.706 250.690, 509.534 251.884, 509.817 260.648 C 509.991 266.042, 510.608 271.028, 511.189 271.728 C 512.525 273.338, 518.214 273.386, 519.800 271.800 C 521.717 269.883, 521.410 251.553, 519.429 249.571 C 517.474 247.617, 513.996 247.551, 511.441 249.421 M 744.592 257.496 C 740.992 261.380, 735.971 272.413, 735.393 277.708 C 734.193 288.703, 744.125 295.900, 754.510 291.560 C 762.752 288.117, 764.331 277.927, 758.446 266.164 C 753.094 255.468, 748.902 252.844, 744.592 257.496 M 671.603 259.408 C 670.357 262.390, 664.038 268.154, 660.850 269.217 C 659.994 269.502, 663.258 281.558, 664.547 282.873 C 664.748 283.078, 667.784 282.468, 671.294 281.518 C 682.671 278.439, 693.261 282.202, 693.420 289.380 C 693.499 292.952, 693.549 292.994, 697.750 292.997 C 703.032 293.001, 703.037 292.668, 697.899 282.297 C 693.482 273.379, 685.972 264.744, 677.776 259.159 L 673.052 255.940 671.603 259.408 M 790.393 263.619 C 782.411 276.427, 783.172 286.484, 792.464 290.982 C 806.023 297.546, 815.913 286.319, 810.084 270.980 C 806.457 261.433, 802.243 256, 798.467 256 C 795.407 256, 794.764 256.607, 790.393 263.619 M 588.500 270.250 C 581.817 278.020, 574.786 292.926, 573.825 301.357 C 573.556 303.724, 574.076 304.528, 576.853 306.037 C 581.765 308.706, 582.671 307.841, 583.236 299.944 C 583.906 290.585, 586.829 286.146, 594.699 282.537 C 605.901 277.401, 607.479 276.487, 607.770 274.966 C 607.973 273.903, 606.709 273.070, 603.651 272.252 C 601.224 271.603, 597.882 269.930, 596.225 268.536 C 592.413 265.328, 592.809 265.241, 588.500 270.250 M 747.562 276.804 C 746.848 279.054, 747.493 281, 748.952 281 C 750.502 281, 750.871 278.206, 749.558 276.410 C 748.329 274.729, 748.214 274.752, 747.562 276.804 M 797.682 275.652 C 796.361 276.972, 796.977 281, 798.500 281 C 799.325 281, 799.993 280.212, 799.985 279.250 C 799.965 276.979, 798.556 274.777, 797.682 275.652 M 767.955 289.048 C 754.238 303.732, 757.357 323, 773.451 323 C 785.303 323, 789.775 311.422, 783.061 298.120 C 776.934 285.984, 773.016 283.630, 767.955 289.048 M 439.045 290.092 C 424.653 292.914, 411.754 305.761, 408.908 320.108 C 407.808 325.656, 407.737 325.741, 402.386 327.959 C 384.936 335.192, 377.088 358.531, 386.140 376.275 L 388.170 380.254 384.868 386.760 C 381.854 392.698, 381.574 394.018, 381.658 401.883 C 381.902 424.644, 398.019 441.242, 420 441.370 C 430.176 441.430, 433.953 439.371, 433.985 433.750 C 434.014 428.525, 430.922 426.833, 422.707 427.578 C 414.123 428.355, 410.329 427.095, 403.954 421.347 C 393.348 411.786, 392.183 399.810, 400.697 387.866 C 404.721 382.221, 404.948 378.280, 401.486 374.166 C 390.114 360.651, 397.412 340.411, 414.692 337.540 C 419.982 336.661, 420.598 335.831, 421.304 328.633 C 423.109 310.231, 438.472 299.152, 455.500 303.973 C 464.960 306.652, 473.970 318.553, 474.014 328.428 C 474.042 334.744, 474.935 335.910, 482.389 339.353 C 498.943 347.002, 503.195 362.344, 492.359 375.327 C 488.953 379.408, 489.302 383.366, 493.500 388.271 C 495.425 390.520, 496.974 392.616, 496.941 392.930 C 496.909 393.243, 490.108 398.900, 481.827 405.500 C 459.601 423.214, 458 424.722, 458 427.930 C 458 430.931, 460.339 433.581, 463.500 434.160 C 465.440 434.516, 465.508 435.421, 465.765 464.263 L 466.030 494 459.515 494 C 455.932 494, 452.966 493.887, 452.925 493.750 C 452.286 491.625, 451.962 428.463, 452.502 411.159 L 453.229 387.818 462.615 377.022 C 473.004 365.071, 474.541 360.893, 469.777 357.557 C 466.002 354.912, 463.808 355.719, 458.022 361.880 L 452.500 367.761 452.314 355.164 C 452.110 341.329, 451.540 340, 445.809 340 C 439.509 340, 439 341.807, 439 364.152 L 439 384.304 433.074 378.652 C 426.528 372.408, 423.427 371.573, 419.896 375.104 C 416.305 378.695, 417.951 382.111, 428.999 393.999 L 439 404.760 439 449.380 L 439 494 432.250 494.015 C 423.600 494.034, 420.602 495.487, 420.180 499.866 C 419.976 501.978, 420.487 503.881, 421.585 505.094 C 424.224 508.010, 587.708 508.085, 590.345 505.171 C 593.955 501.182, 592.154 495.830, 586.744 494.472 L 584 493.783 584 472.042 C 584 460.085, 583.715 446.925, 583.366 442.797 L 582.731 435.293 586.616 433.397 C 590.158 431.667, 590.500 431.150, 590.500 427.527 C 590.500 423.633, 590.263 423.371, 578.500 414.279 L 566.500 405.002 566 393.419 C 565.445 380.558, 564.634 379, 558.500 379 C 553.766 379, 551.916 380.940, 551.165 386.695 L 550.500 391.794 539.128 382.397 C 525.405 371.058, 525.024 370.996, 515.572 378.542 C 509.615 383.296, 508.446 383.874, 507.236 382.664 C 506.026 381.454, 506.156 380.643, 508.164 376.878 C 511.683 370.283, 511.619 351.773, 508.052 344.526 C 504.957 338.235, 498.600 331.844, 492.224 328.613 C 487.802 326.373, 487.203 325.672, 486.626 322.062 C 483.049 299.693, 462.050 285.583, 439.045 290.092 M 771.409 307.506 C 770.663 310.481, 771.287 311.488, 773.379 310.685 C 774.294 310.334, 774.641 309.342, 774.302 308.046 C 773.473 304.875, 772.132 304.625, 771.409 307.506 M 695.348 307.129 C 694.744 307.883, 693.539 309.902, 692.669 311.615 C 689.349 318.156, 680.813 319.421, 670.325 314.925 C 662.844 311.718, 658.649 312.911, 655.416 319.163 C 652.235 325.314, 656.576 330.223, 666.260 331.429 C 673.427 332.322, 677.508 335.468, 679.092 341.323 C 680.650 347.080, 679.665 356.045, 676.943 360.888 C 675.110 364.150, 674.857 365.511, 675.604 368.116 L 676.524 371.324 685.186 363.126 C 695.390 353.467, 701.770 342.095, 704.448 328.792 C 706.595 318.131, 706.492 317.407, 702.250 313.210 C 700.188 311.169, 698.038 308.658, 697.473 307.629 C 696.622 306.081, 696.256 305.995, 695.348 307.129 M 815.304 324.750 C 799.677 341.032, 797.830 343.819, 800.040 347.775 C 801.211 349.871, 802.441 350.573, 805.366 350.815 C 808.946 351.112, 809.634 350.659, 817.084 343.097 L 825 335.064 825 367.475 C 825 399.835, 825.004 399.889, 827.223 401.443 C 828.445 402.299, 830.370 403, 831.500 403 C 832.630 403, 834.555 402.299, 835.777 401.443 C 837.996 399.890, 838 399.825, 838 367.766 L 838 335.645 846.378 343.823 C 855.419 352.648, 858.238 353.762, 862 350 C 866.407 345.593, 864.221 342.289, 840.152 316.996 C 831.568 307.975, 831.335 308.047, 815.304 324.750 M 592.750 338.080 C 590.603 339.330, 588.716 343.006, 587.042 349.193 C 585.774 353.879, 585.777 353.892, 589.519 358.458 C 593.825 363.713, 603.302 371.106, 610.235 374.619 L 615 377.034 615 374.704 C 615 373.422, 616.815 369.364, 619.034 365.685 C 623.903 357.612, 623.462 355.596, 616.601 354.567 C 610.403 353.638, 605.850 350.294, 604.014 345.322 C 601.282 337.927, 597.351 335.400, 592.750 338.080 M 761.465 371.952 C 757.927 373.386, 757.441 374.817, 749.059 408.500 C 731.958 477.226, 727.851 492.421, 725.399 496.054 C 720.659 503.076, 723.727 508.322, 733.273 509.515 C 741.150 510.499, 745.972 509.407, 755.841 504.403 C 766.276 499.112, 768.116 499.026, 776.835 503.417 C 792.646 511.379, 800.902 511.703, 814.853 504.909 C 826.914 499.035, 828.287 498.975, 838.183 503.897 C 853.541 511.535, 862.655 511.546, 877.608 503.945 C 885.813 499.774, 889.912 499.163, 894 501.500 C 900.215 505.053, 905.296 502.333, 904.801 495.719 C 904.361 489.820, 899.602 487.500, 887.945 487.500 C 879.824 487.500, 878.976 487.716, 871.246 491.750 C 860.292 497.466, 856.397 497.474, 844.388 491.802 C 831.437 485.684, 824.128 485.710, 811.063 491.917 C 804.546 495.013, 800.481 496.333, 797.467 496.333 C 794.382 496.333, 790.669 495.085, 784.333 491.917 C 771.649 485.575, 763.373 485.533, 750.885 491.750 C 746.189 494.087, 741.852 496, 741.246 496 C 740.542 496, 741.035 492.660, 742.610 486.750 C 743.967 481.663, 745.527 475.813, 746.077 473.750 C 746.627 471.688, 747.646 470, 748.341 470 C 749.037 470, 753.328 468.200, 757.877 466 C 768.556 460.836, 771.322 460.862, 782.048 466.230 C 790.091 470.255, 790.936 470.461, 799.500 470.480 C 807.930 470.499, 808.983 470.260, 816.126 466.707 C 827.697 460.952, 829.105 460.939, 840.961 466.482 C 854.747 472.926, 862.571 472.850, 876.643 466.133 C 886.203 461.571, 885.940 461.604, 897.136 463.558 C 907.182 465.311, 908.911 454.368, 899.228 450.322 C 892.273 447.416, 880.895 448.803, 871.087 453.754 C 860.085 459.307, 857.027 459.312, 845.947 453.791 C 834.895 448.284, 824.256 447.740, 814.750 452.195 L 809 454.889 808.995 450.695 C 808.992 448.388, 808.698 442.103, 808.343 436.728 L 807.696 426.957 827.598 427.228 L 847.500 427.500 848 437.602 C 848.564 449.002, 849.541 451, 854.551 451 C 860.482 451, 861.313 449.092, 860.511 437.321 L 859.808 427 880.749 427 C 899.766 427, 901.842 426.832, 903.345 425.171 C 905.622 422.655, 905.419 418.689, 902.896 416.405 C 900.900 414.598, 898.388 414.485, 853.996 414.213 L 807.201 413.926 806.517 400.213 C 805.342 376.649, 804.873 373.745, 802 372.293 C 799.139 370.847, 764.903 370.558, 761.465 371.952 M 768.473 385.250 C 767.795 387.077, 751.300 453.461, 751.461 453.715 C 751.536 453.833, 754.474 452.768, 757.991 451.348 C 767.315 447.581, 776.757 448.237, 786.565 453.331 C 796.934 458.716, 796.359 459.518, 795.587 440.750 C 794.500 414.322, 792.954 386.593, 792.492 385.250 C 792.182 384.347, 788.854 384, 780.500 384 C 772.164 384, 768.808 384.349, 768.473 385.250 M 506.491 402.665 C 496.596 410.637, 486.137 419.174, 483.250 421.637 L 478 426.115 478 460.058 L 478 494 503 494 L 528 494 528 476.071 C 528 461.106, 528.260 457.883, 529.571 456.571 C 531.667 454.476, 560.115 454.229, 561.827 456.291 C 562.438 457.028, 563.200 465.414, 563.603 475.843 L 564.309 494.104 567.404 493.802 L 570.500 493.500 570.804 463 C 570.971 446.225, 570.843 430.673, 570.521 428.440 C 569.959 424.552, 569.016 423.639, 548.325 406.940 C 536.440 397.348, 526.213 389.201, 525.598 388.835 C 524.980 388.467, 516.446 394.644, 506.491 402.665 M 653.500 419.219 C 652.400 419.856, 648.598 422.837, 645.052 425.845 C 635.496 433.949, 622.457 439.432, 607.693 441.553 C 599.786 442.690, 599.721 442.945, 600.235 471.231 C 600.726 498.212, 601.524 502.466, 608.661 516.133 C 617.463 532.988, 640.639 551.631, 655.263 553.617 C 668.264 555.384, 695.457 534.732, 705.764 515.264 C 712.880 501.824, 714 495.462, 714 468.495 C 714 442.051, 714.229 442.777, 705.500 441.531 C 691.697 439.560, 674.804 431.990, 666.500 424.056 C 660.229 418.064, 657.347 416.991, 653.500 419.219 M 489.223 428.557 C 487.086 430.053, 487 430.722, 487 445.857 C 487 456.768, 487.368 461.968, 488.200 462.800 C 489.878 464.478, 519.122 464.478, 520.800 462.800 C 521.635 461.965, 522 456.639, 522 445.275 L 522 428.950 519.435 427.975 C 515.016 426.295, 491.814 426.742, 489.223 428.557 M 650.500 438.686 C 641.981 445.245, 629.919 450.360, 615.631 453.473 L 612.761 454.098 613.258 472.799 C 613.956 499.081, 617.813 509.846, 631.459 523.593 C 638.832 531.020, 652.684 540, 656.769 540 C 663.928 540, 684.050 524.059, 691.483 512.500 C 699.144 500.587, 700.363 495.547, 700.803 473.979 L 701.201 454.457 691.553 451.746 C 680.536 448.649, 669.853 443.599, 662.293 437.915 C 659.429 435.762, 656.954 434.015, 656.793 434.034 C 656.632 434.052, 653.800 436.146, 650.500 438.686 M 499 445.948 L 499 452 504.550 452 L 510.100 452 509.800 446.250 L 509.500 440.500 504.250 440.198 L 499 439.895 499 445.948 M 672.164 470.631 C 668.999 473.859, 662.972 480.288, 658.770 484.918 L 651.130 493.336 645.008 487.668 C 638.375 481.527, 634.695 480.469, 631.655 483.829 C 628.058 487.804, 629.416 490.981, 638.906 500.793 C 650.225 512.496, 650.930 512.578, 659.962 503.242 C 680.521 481.992, 686 475.367, 686 471.756 C 686 467.868, 684.851 466.503, 680.703 465.462 C 678.239 464.843, 677.254 465.439, 672.164 470.631 M 541 480.500 L 541 494 545.500 494 L 550 494 550 480.500 L 550 467 545.500 467 L 541 467 541 480.500 M 538.712 521.553 C 527.973 523.963, 492.167 540.992, 485.750 546.742 C 481.809 550.273, 485.093 558, 490.535 558 C 491.929 558, 496.541 556.033, 500.785 553.629 C 546.384 527.792, 558.355 527.456, 593.500 551.028 C 603.616 557.813, 613.085 562.330, 624.699 565.910 C 638.022 570.017, 641.837 574.163, 636.866 579.134 C 632.630 583.370, 615.595 579.690, 594.646 570.011 C 581.638 564.001, 575.535 564.949, 576.197 572.874 C 576.488 576.352, 576.848 576.670, 585 580.664 C 624.150 599.843, 652 598.030, 652 576.302 C 652 564.481, 647.542 559.833, 630.605 553.993 C 616.067 548.981, 613.475 547.684, 599.212 538.278 C 575.072 522.360, 557.172 517.411, 538.712 521.553 M 718.471 536.362 C 715.704 537.650, 709.442 541.283, 704.555 544.436 C 692.286 552.351, 680.393 558.661, 668.541 563.545 C 657.220 568.210, 655.161 570.622, 658.064 575.818 C 662.033 582.921, 679.509 576.363, 712.643 555.339 C 726.944 546.265, 729.673 545.498, 732.927 549.635 C 735.749 553.222, 735.537 555.318, 731.941 559.415 C 723.542 568.980, 660.057 605.669, 636.676 614.470 C 622.520 619.798, 618.359 618.693, 579.500 599.278 C 547.526 583.303, 545.344 582.520, 533 582.597 C 521.275 582.670, 500.619 587.661, 497.750 591.115 C 495.432 593.905, 495.534 597.534, 498 600 C 500.658 602.658, 503.548 602.525, 513.855 599.270 C 520.850 597.061, 524.419 596.536, 532.554 596.520 L 542.608 596.500 573.554 611.657 C 590.574 619.993, 606.975 627.627, 610 628.622 C 617.303 631.023, 630.689 630.992, 637.500 628.559 C 663.710 619.193, 730.929 580.947, 742.161 569.008 C 758.794 551.329, 740.491 526.107, 718.471 536.362" stroke="none" fill="#1D5F3A" fill-rule="evenodd"/>
</svg>