<svg xmlns="http://www.w3.org/2000/svg" width="1000" height="500" viewBox="-312.8 -67.9 2127.5 1063.8">
	<path d="M 781.500 40.982 C 752.683 46.222, 731.788 56.497, 712.877 74.727 C 684.778 101.815, 675.346 138.117, 687.589 172.057 L 690.090 178.991 687.616 183.245 C 684.259 189.021, 674.744 210.103, 672.127 217.567 C 669.394 225.361, 669.449 227.540, 672.455 230.545 C 677.726 235.817, 685.220 232.423, 688.009 223.500 C 690.486 215.579, 702.298 190, 703.480 190 C 703.635 190, 706.801 191.144, 710.516 192.542 C 733.658 201.253, 761.719 200.320, 783.496 190.115 C 825.035 170.649, 848.560 129.697, 857.456 61.363 C 859.774 43.561, 858.451 41.555, 843.347 39.966 C 827.890 38.340, 792.865 38.915, 781.500 40.982 M 797 55.596 C 747.052 61.521, 713.669 85.168, 701.844 123 C 699.296 131.154, 698.531 153.870, 700.637 158.874 C 701.626 161.224, 701.669 161.205, 705.015 156.874 C 720.654 136.635, 747.571 114.422, 769.036 104.042 C 779.008 99.220, 780.279 99.125, 784.077 102.923 C 790.050 108.897, 787.737 113.170, 775.120 119.471 C 752.920 130.557, 731.854 148.094, 717.029 167.831 C 711.100 175.723, 711.067 175.664, 723.315 179.137 C 733.936 182.148, 753.918 182.408, 764 179.665 C 790.755 172.388, 812.370 151.879, 825.549 121.269 C 832.974 104.021, 843.330 58.442, 840.234 56.630 C 838.684 55.722, 803.106 54.871, 797 55.596 M 616.500 134.189 C 614.300 134.729, 608.225 136.201, 603 137.460 C 583.147 142.244, 555.510 151.335, 540.500 158.020 C 511.368 170.994, 505.255 174.021, 486.861 184.582 C 413.621 226.633, 344.683 295.168, 303.638 366.734 C 268.400 428.177, 248.574 489.645, 241.464 559.500 C 239.167 582.076, 239.456 595.141, 242.314 597.826 C 245.348 600.675, 250.154 600.643, 253.461 597.750 C 255.944 595.579, 256.068 594.921, 256.988 579 C 264.901 442.123, 335.586 313.769, 449.454 229.511 C 497.811 193.728, 554.821 166.692, 611 152.900 C 629.099 148.457, 632 146.884, 632 141.513 C 632 134.747, 625.922 131.876, 616.500 134.189 M 884.589 136.077 C 878.949 142.780, 882.497 148.107, 894.500 150.956 C 931.505 159.740, 986.009 182.697, 1023.261 205.191 C 1110.279 257.734, 1177.867 335.920, 1216.300 428.500 C 1222.607 443.691, 1230.811 468.065, 1236.327 488 C 1243.537 514.055, 1251 564.953, 1251 588.068 C 1251 598.657, 1259.218 603.873, 1265.695 597.396 L 1268.298 594.793 1267.634 580.884 C 1262.653 476.540, 1225.167 380.543, 1157.180 298.021 C 1144.616 282.773, 1106.751 245.163, 1090.706 231.998 C 1037.315 188.188, 973.245 154.819, 908.360 137.029 C 890.301 132.077, 888.031 131.986, 884.589 136.077 M 751.608 311.522 C 726.652 318.374, 708 342.802, 708 368.633 C 708 378.540, 710.296 382.290, 717.465 384.095 C 721.304 385.062, 721.858 385.591, 722.954 389.335 C 724.717 395.358, 728.664 401.753, 734.298 407.716 L 739.226 412.933 734.341 412.354 C 731.654 412.036, 726.208 412.279, 722.240 412.895 C 705.322 415.520, 697.388 422.152, 679.789 448.384 C 673.105 458.348, 659.657 478.249, 649.906 492.609 C 631.114 520.282, 628.181 525.272, 625.612 533.932 C 623.563 540.835, 623.507 555.687, 625.500 563.339 C 626.325 566.506, 627 569.311, 627 569.572 C 627 569.833, 623.469 569.752, 619.153 569.392 C 608.649 568.516, 602.681 570.452, 597.049 576.563 C 588.443 585.899, 588.496 597.004, 597.192 606.520 C 604.146 614.128, 609.515 615.984, 624.788 616.054 L 636.500 616.108 642.405 628.477 L 648.309 640.846 642.624 648.673 C 639.497 652.978, 636.278 657.374, 635.469 658.442 C 634.037 660.333, 633.795 660.277, 626.249 656.313 C 575.706 629.760, 514.981 644.400, 479.362 691.726 C 448.758 732.390, 447.421 787.872, 476.016 830.586 C 485.972 845.458, 504.866 862.362, 520.500 870.383 L 525.500 872.949 368.937 872.974 L 212.374 873 209.687 875.805 C 206.374 879.263, 206.245 883.010, 209.315 886.580 L 211.629 889.271 751.439 889.193 L 1291.249 889.115 1293.624 886.883 C 1296.857 883.846, 1296.822 878.731, 1293.545 875.455 L 1291.091 873 1128.320 873 L 965.548 873 973.398 868.527 C 1018.255 842.964, 1041.428 793.079, 1032.459 741.381 C 1024.646 696.339, 990.073 657.965, 947.384 646.953 C 929.020 642.216, 906.869 642.062, 890.500 646.559 C 887.200 647.465, 883.929 648.273, 883.231 648.354 C 882.476 648.441, 877.878 638.972, 871.891 625 C 859.171 595.315, 859.266 595.533, 856.398 589.220 C 855.079 586.317, 854 583.798, 854 583.623 C 854 583.448, 858.883 583.026, 864.851 582.685 C 877.314 581.972, 880.201 581.107, 884.869 576.689 C 890.595 571.270, 892.883 561.228, 889.889 554.656 C 888.959 552.615, 889.152 551.714, 891.075 549.112 C 893.817 545.403, 894.829 536.043, 893.066 530.699 C 891.190 525.015, 883.645 518.784, 874.998 515.776 C 863.352 511.725, 823.064 497.252, 817.622 495.164 C 812.222 493.093, 812.442 493.370, 784.184 453 C 776.676 442.275, 767.826 430.760, 764.517 427.411 L 758.500 421.322 764.582 421.767 C 785.832 423.320, 805.958 408.361, 812.029 386.500 L 813.695 380.500 819.098 379.969 C 831.312 378.769, 835.373 370.710, 828.904 360.509 C 827.200 357.823, 824.540 352.335, 822.991 348.312 C 816.408 331.217, 802.944 318.324, 785.592 312.499 C 776.980 309.608, 760.323 309.129, 751.608 311.522 M 754.426 328.816 C 738.540 334.412, 727.528 347.574, 725.333 363.589 L 724.728 368 729.682 368 C 732.406 368, 737.980 367.062, 742.068 365.915 C 748.597 364.083, 753.178 363.765, 779.778 363.291 L 810.056 362.753 809.447 360.626 C 805.668 347.431, 797.153 336.667, 786.221 331.265 C 776.949 326.682, 763.438 325.642, 754.426 328.816 M 752.500 381.054 C 750.850 381.521, 747.362 382.450, 744.750 383.120 C 739.222 384.536, 738.958 385.546, 742.523 391.630 C 749.744 403.951, 766.791 408.172, 780.791 401.105 C 788.205 397.363, 795.871 387.341, 795.978 381.250 C 796.004 379.781, 757.611 379.607, 752.500 381.054 M 722.230 430.495 C 716.083 432.215, 712.522 434.001, 708.867 437.197 C 705.475 440.164, 646.534 527.539, 643.885 533.528 C 638.980 544.616, 639.603 555.988, 645.733 567.250 C 649.549 574.261, 656.518 579.297, 681 592.729 C 724.655 616.680, 738.269 625.121, 739.500 628.999 C 740.006 630.594, 732.747 673.203, 725.531 710.990 C 723.589 721.160, 722 729.597, 722 729.740 C 722 729.883, 724.261 730, 727.025 730 C 729.789 730, 734.538 730.874, 737.578 731.943 C 741.576 733.348, 743.193 733.556, 743.418 732.693 C 744.099 730.085, 753.796 697.697, 763.685 665 C 779.468 612.812, 779.640 613.939, 753 594.767 C 695.552 553.425, 690 549.005, 690 544.617 C 690 537.766, 698.762 533.558, 704.074 537.859 L 706.369 539.717 721.500 517.609 C 729.822 505.449, 737.445 494.256, 738.439 492.736 L 740.248 489.973 735.624 485.029 C 732.019 481.175, 731 479.343, 731 476.717 C 731 468.843, 741.284 465.966, 746.677 472.332 C 750.354 476.671, 776.530 506.442, 784.801 515.691 C 792.779 524.612, 793.175 524.794, 817 530.471 C 827.725 533.026, 842.835 536.648, 850.578 538.519 C 873.879 544.150, 877 544.099, 877 538.087 C 877 534.253, 876.716 534.095, 859 528.040 C 830.072 518.154, 807.511 509.821, 804.220 507.807 C 802.087 506.502, 794.077 496.130, 781.315 478.150 C 770.521 462.943, 760.173 448.399, 758.319 445.831 C 748.885 432.763, 735.084 426.898, 722.230 430.495 M 744.824 513.750 C 741.163 519.112, 734.085 529.419, 729.095 536.653 L 720.021 549.806 732.760 559.075 C 739.767 564.173, 752.025 573.091, 760 578.894 C 767.975 584.696, 776.858 591.654, 779.739 594.357 C 784.557 598.875, 791 609.347, 791 612.660 C 791 613.397, 791.563 613.978, 792.250 613.952 C 795.118 613.842, 842.990 605.344, 843.475 604.858 C 843.767 604.567, 841.895 599.530, 839.317 593.664 L 834.629 583 830.903 583 C 823.438 583, 819.282 573.627, 824.455 568.455 C 826.881 566.029, 827.128 565.999, 845.705 565.926 C 868.671 565.835, 873.500 565.252, 873.500 562.567 C 873.500 560.958, 872.327 560.427, 866.500 559.401 C 851.587 556.775, 790.967 542.022, 787.332 540.134 C 782.119 537.426, 776.394 531.803, 763.526 516.750 C 757.531 509.738, 752.368 504, 752.053 504 C 751.737 504, 748.484 508.387, 744.824 513.750 M 609.566 587.328 C 604.545 591, 609.286 598.216, 617.532 599.452 C 624.145 600.444, 654.031 597.020, 651.523 595.557 C 650.526 594.976, 647.846 593.114, 645.569 591.420 C 641.729 588.564, 640.482 588.254, 628.464 587.163 C 612.332 585.698, 611.789 585.703, 609.566 587.328 M 673.351 610.049 C 672.168 610.496, 667.556 611.394, 663.101 612.046 C 658.645 612.697, 655 613.637, 655 614.135 C 655 614.842, 663.633 632.798, 664.414 633.716 C 664.515 633.834, 673.801 632.378, 685.049 630.479 C 696.297 628.580, 705.945 627.020, 706.488 627.013 C 707.274 627.003, 686.475 615.002, 677.489 610.281 C 676.338 609.677, 674.595 609.578, 673.351 610.049 M 832.879 637.726 C 825.520 646.375, 808.917 665.837, 795.982 680.976 C 766.831 715.092, 766.681 715.288, 764.498 722 C 761.694 730.620, 761.691 730.643, 763.657 728.353 C 766.581 724.948, 801.360 683.754, 812.923 670 C 818.703 663.125, 829.860 649.986, 837.716 640.801 C 845.572 631.617, 852 623.630, 852 623.051 C 852 622.473, 850.708 622, 849.129 622 C 846.656 622, 844.401 624.183, 832.879 637.726 M 804.161 629.504 C 797.374 630.792, 791.709 631.993, 791.572 632.173 C 791.436 632.353, 789.404 639.025, 787.058 647 C 784.711 654.975, 781.917 664.136, 780.848 667.358 C 779.780 670.581, 779.039 673.601, 779.203 674.070 C 779.455 674.793, 813.836 634.673, 817.872 628.947 C 819.588 626.511, 820.033 626.493, 804.161 629.504 M 854.935 646.250 C 852.527 649.138, 831.067 674.556, 807.246 702.736 L 763.934 753.973 766.102 761.110 C 770.664 776.131, 766.273 791.712, 754.244 803.186 C 749.233 807.966, 748.543 809.051, 749.358 810.875 C 750.193 812.747, 751.134 813, 757.253 813 C 763.820 813, 764.386 813.186, 767.600 816.400 C 771.981 820.781, 772.129 824.704, 768.084 829.234 L 765.168 832.500 745.184 832.807 L 725.200 833.115 721.600 829.954 C 717.556 826.403, 716.780 821.791, 719.524 817.604 C 721.027 815.310, 720.988 815.270, 716.628 814.673 C 709.214 813.656, 701.581 809.597, 694.846 803.087 C 687.177 795.675, 686.544 795.624, 684.607 802.250 C 677.364 827.019, 655.668 853.109, 629.767 868.194 L 621.516 873 745.992 873 L 870.468 873 863.544 868.954 C 816.997 841.753, 793.788 790.781, 804.372 739 C 811.162 705.778, 832.994 674.912, 861.281 658.540 C 865.273 656.230, 865.953 655.420, 865.396 653.637 C 864.376 650.369, 860.162 641, 859.712 641 C 859.492 641, 857.343 643.362, 854.935 646.250 M 695.664 646.012 C 683.654 648.117, 673.568 650.099, 673.251 650.416 C 672.695 650.971, 675.656 657.327, 696.579 700.500 L 706.271 720.500 707.981 711.500 C 709.790 701.970, 715.992 668.099, 718.921 651.750 C 720.501 642.928, 720.517 642.009, 719.084 642.092 C 718.213 642.143, 707.674 643.907, 695.664 646.012 M 652.179 664.611 L 648.022 670.222 656.588 679.322 C 673.999 697.818, 686.188 721.706, 688.698 742.250 C 689.017 744.862, 689.612 747, 690.021 747 C 690.774 747, 696 740.556, 696 739.627 C 696 739.349, 690.115 726.831, 682.921 711.811 C 675.728 696.790, 667.103 678.763, 663.755 671.750 C 660.407 664.737, 657.368 659, 657.002 659 C 656.636 659, 654.465 661.525, 652.179 664.611 M 555 661.897 C 521.235 669.414, 497.061 688.723, 481.962 720.236 C 466.433 752.645, 469.908 791.899, 491.069 823.095 C 503.721 841.747, 526.078 857.228, 549 863.210 C 561.522 866.478, 586.050 866.460, 597.500 863.174 C 629.019 854.130, 653.542 832.902, 665.279 804.500 C 669.396 794.538, 669.475 794, 666.812 794 C 664.885 794, 664.083 795.063, 662.101 800.250 C 654.057 821.292, 636.072 840.481, 614.500 851.039 C 565.764 874.891, 507.461 852.894, 484.973 802.170 C 476.926 784.019, 474.873 759.196, 479.790 739.500 C 494.612 680.125, 561.570 648.425, 614.988 675.494 C 620.963 678.522, 621.185 678.535, 622.797 675.954 C 624 674.027, 623.533 673.652, 614.744 669.488 C 596.586 660.887, 572.999 657.890, 555 661.897 M 901.909 661.486 C 891.065 663.547, 889.043 664.450, 889.696 666.945 C 890.339 669.405, 889.730 669.375, 899 667.404 C 947.295 657.137, 996.093 687.658, 1009.742 736.668 C 1013.457 750.007, 1013.662 775.632, 1010.158 788.500 C 998.592 830.973, 961.545 860.123, 919 860.227 C 887.312 860.304, 861.893 847.373, 842.327 821.224 C 821.865 793.877, 817.642 754.005, 831.882 722.599 C 839.270 706.306, 853.579 689.575, 868.228 680.101 C 874.036 676.345, 874.806 675.506, 873.936 673.880 C 872.659 671.494, 873.199 671.371, 865.918 675.709 C 831.302 696.329, 811.538 745.004, 821.340 785.500 C 831.213 826.294, 856.124 852.558, 895.022 863.184 C 907.912 866.705, 930.831 866.440, 943.400 862.624 C 974.628 853.143, 997.097 833.228, 1009.172 804.330 C 1031.569 750.729, 1006.924 688.317, 955.097 667.383 C 938.967 660.868, 917.617 658.501, 901.909 661.486 M 555 684.944 C 531.229 691.614, 515.488 703.247, 504.715 722.106 C 481.543 762.673, 496.662 814.785, 537.500 835.106 C 578.214 855.365, 626.616 838.474, 644.952 797.608 L 647.802 791.256 627.651 788.534 C 577.182 781.719, 570.402 780.532, 566.242 777.779 C 556.684 771.453, 556.494 757.678, 565.861 750.048 C 571.395 745.539, 571.618 745.264, 591.619 718.125 L 610.320 692.750 608.038 691.029 C 598.768 684.036, 569.998 680.736, 555 684.944 M 902.750 684.226 C 900.138 684.771, 898 685.550, 898 685.959 C 898 686.367, 900.519 692.506, 903.599 699.601 C 906.678 706.695, 912.481 720.150, 916.494 729.500 C 920.507 738.850, 925.413 750.044, 927.395 754.375 C 931.769 763.930, 931.871 766.282, 928.077 770.077 C 923.946 774.208, 919.436 774.077, 915.196 769.702 C 913.438 767.889, 912 765.733, 912 764.911 C 912 762.529, 883.251 693.917, 881.532 692.199 C 880.531 691.198, 867.039 701.163, 862.380 706.345 C 835.616 736.113, 832.969 778.170, 855.753 811.619 C 866.887 827.963, 886.006 839.617, 907.296 843.037 C 932.742 847.124, 963.528 834.770, 978.837 814.328 C 1010.215 772.429, 997.715 712.713, 953 690.898 C 938.372 683.762, 917.975 681.053, 902.750 684.226 M 635.951 686.091 C 634.915 688.027, 635.459 688.921, 641.286 694.873 C 653.868 707.725, 661.863 721.785, 665.650 737.718 C 667.717 746.416, 668.244 747.432, 670.890 747.824 C 673.414 748.199, 673.416 748.215, 669.356 733.611 C 664.710 716.899, 653.543 698.316, 642.166 688.364 C 637.206 684.025, 637.081 683.979, 635.951 686.091 M 612.361 718.250 C 605.732 727.188, 598.672 736.791, 596.673 739.592 L 593.039 744.684 612.680 745.342 C 623.483 745.704, 636.349 746, 641.272 746 L 650.223 746 649.527 742.250 C 648.523 736.838, 643.219 724.372, 639.254 718.106 C 635.934 712.860, 626.365 702, 625.062 702 C 624.705 702, 618.990 709.313, 612.361 718.250 M 719.326 747.060 C 690.894 752.576, 692.173 794.006, 720.917 798.603 C 725.572 799.347, 725.544 799.399, 723.411 794.068 C 722.229 791.115, 720.992 789.822, 718.589 789.029 C 709.593 786.060, 704.572 774.594, 708.381 765.718 C 711.161 759.239, 716.278 755.635, 723.257 755.243 C 737.046 754.467, 746.363 768.500, 739.826 780.196 L 737.392 784.551 739.277 788.874 L 741.162 793.197 743.678 790.848 C 755.640 779.685, 751.807 756.707, 736.820 749.738 C 730.490 746.794, 725.016 745.956, 719.326 747.060 M 575.980 762.524 C 574.249 764.610, 573.402 764.397, 593.500 766.928 C 603.400 768.174, 620.386 770.500, 631.247 772.097 C 642.107 773.694, 652.618 775, 654.603 775 C 656.589 775, 661.351 775.757, 665.185 776.683 C 673.527 778.696, 673.962 778.354, 673.985 769.750 C 674 764.134, 673.936 764, 671.237 764 C 669.331 764, 668.168 764.698, 667.487 766.250 C 665.849 769.983, 658.703 769.964, 655.202 766.217 L 652.491 763.314 622.996 762.147 C 583.320 760.577, 577.557 760.624, 575.980 762.524 M 723.688 771.646 C 722.383 772.950, 723.006 774, 725.083 774 C 726.247 774, 726.992 773.476, 726.771 772.813 C 726.284 771.351, 724.614 770.719, 723.688 771.646 M 282.546 832.750 C 257.539 833.024, 256.508 833.113, 254.296 835.192 C 251.154 838.144, 251.163 843.865, 254.314 846.826 C 256.588 848.962, 257.176 849, 287.640 849 L 318.651 849 320.826 846.686 C 326.360 840.794, 321.261 831.754, 312.673 832.232 C 310.378 832.360, 296.821 832.593, 282.546 832.750 M 351.174 835.314 C 348.195 838.486, 348.261 843.957, 351.314 846.826 C 353.590 848.963, 354.163 849, 385.140 849 L 416.651 849 418.826 846.686 C 421.584 843.749, 421.627 839.067, 418.927 835.635 L 416.855 833 385.102 833 L 353.349 833 351.174 835.314 M 1069.248 835.250 C 1065.716 839.034, 1065.496 842.247, 1068.520 845.842 L 1071.178 849 1102.284 849 L 1133.391 849 1136.195 846.313 C 1139.686 842.968, 1139.748 840.042, 1136.411 836.077 L 1133.822 833 1102.585 833 C 1071.481 833, 1071.340 833.010, 1069.248 835.250 M 1167.174 835.314 C 1164.195 838.486, 1164.261 843.957, 1167.314 846.826 C 1169.588 848.962, 1170.176 849, 1200.640 849 L 1231.651 849 1233.826 846.686 C 1236.805 843.514, 1236.739 838.043, 1233.686 835.174 C 1231.412 833.038, 1230.824 833, 1200.360 833 L 1169.349 833 1167.174 835.314" stroke="none" fill="#1D5F3A" fill-rule="evenodd"/>
</svg>