<svg xmlns="http://www.w3.org/2000/svg" width="1000" height="500" viewBox="-257.5 -20.0 2050.0 1025.0">
	<path d="M 786.668 84.505 C 753.481 89.902, 725.316 106.391, 705.546 132 C 686.276 156.961, 681.235 189.588, 692.083 219.122 L 694.148 224.745 689.597 233.806 C 682.850 247.240, 675.947 264.845, 675.289 270.294 C 674.507 276.781, 678.141 281, 684.513 281 C 689.991 281, 692.533 278.225, 695.679 268.810 C 699.808 256.456, 709.148 237.798, 710.943 238.320 C 711.799 238.569, 716.341 239.906, 721.035 241.291 C 780.697 258.901, 836.291 226.212, 859.288 160 C 865.022 143.491, 870.573 116.589, 871.669 100 C 872.423 88.590, 871.443 87.620, 856.937 85.421 C 842.022 83.159, 798.442 82.591, 786.668 84.505 M 791.018 103.580 C 750.979 110.879, 721.608 133.031, 710.078 164.624 C 706.293 174.996, 704.968 184.710, 706.057 194.114 C 706.527 198.176, 706.932 201.838, 706.956 202.250 C 707.071 204.213, 709.237 202.348, 715.594 194.814 C 734.310 172.628, 774.236 145, 787.580 145 C 795.139 145, 799.752 153.626, 795.466 159.745 C 794.622 160.950, 790.114 163.725, 785.449 165.911 C 761.937 176.929, 736.253 197.725, 723.755 215.863 C 720.257 220.939, 720.379 221.099, 729.530 223.397 C 777.518 235.451, 821.309 208.655, 839.816 155.913 C 844.608 142.254, 853.023 105.690, 851.682 104.349 C 849.348 102.015, 802.837 101.426, 791.018 103.580 M 896.589 163.077 C 890.344 170.498, 894.574 176.478, 909.282 181.020 C 956.831 195.703, 1008.372 223.920, 1049.454 257.760 C 1152.160 342.360, 1209.491 477.801, 1198.358 609.533 C 1197.576 618.789, 1200.445 623, 1207.533 623 C 1215.339 623, 1216.909 620.606, 1218.025 607 C 1224.695 525.643, 1204.085 434.299, 1162.746 362 C 1108.883 267.797, 1019.088 194.427, 919.928 163.598 C 905.098 158.987, 900.124 158.876, 896.589 163.077 M 622 165.466 C 534.349 191.168, 459.133 244.670, 399.830 323.500 C 346.979 393.752, 317 485.423, 317 576.778 C 317 602.582, 318.568 616.851, 321.778 620.250 C 325.361 624.045, 331.594 624.125, 335.073 620.422 L 337.496 617.844 337.503 581.172 C 337.511 541.582, 338.523 528.659, 343.627 503 C 347.009 486.003, 354.099 458.944, 358.825 445 C 400.677 321.516, 504.751 220.627, 627.500 184.548 C 642.762 180.063, 646 177.820, 646 171.736 C 646 168.770, 645.306 167.152, 643.077 164.923 C 639.280 161.127, 636.561 161.197, 622 165.466 M 633.718 331.070 C 606.309 335.417, 584.222 346.043, 565.919 363.687 C 543.633 385.171, 533.487 406.913, 530.540 439.500 C 527.392 474.323, 522.661 537.433, 520.495 573.500 C 520.198 578.450, 519.307 591.950, 518.515 603.500 C 512.468 691.667, 512.220 717.838, 517.047 758.488 C 520.975 791.568, 525.663 803.710, 540.347 818.839 C 549.842 828.622, 565.576 837.956, 572.671 838.015 C 575.682 838.041, 576.717 839.290, 577.213 843.500 C 577.635 847.073, 577.248 847.993, 573.593 852.124 C 571.342 854.668, 565.457 862.810, 560.516 870.218 L 551.532 883.687 448.332 883.594 L 345.131 883.500 342.066 886.437 C 337.932 890.398, 337.775 896.112, 341.687 900.195 L 344.374 903 768 903 L 1191.626 903 1194.313 900.195 C 1197.837 896.517, 1198.036 890.307, 1194.750 886.514 L 1192.500 883.916 1084.240 883.648 C 1018.333 883.484, 975.648 883.012, 975.131 882.440 C 974.665 881.923, 969.674 874.618, 964.040 866.207 C 958.406 857.795, 952.825 850.276, 951.638 849.498 C 949.859 848.333, 949.540 847.312, 949.827 843.703 L 950.176 839.322 958.202 837.003 C 978.331 831.187, 997.200 811.861, 1004.424 789.661 C 1012.004 766.365, 1015.353 709.866, 1012.167 659 C 1011.495 648.275, 1009.831 621.050, 1008.468 598.500 C 1001.659 485.824, 998.289 437.405, 996.399 425.114 C 988.773 375.515, 949.985 338.414, 897.500 330.516 C 880.721 327.992, 650.074 328.476, 633.718 331.070 M 647.572 349.128 C 606.638 353.063, 574.810 373.691, 559.514 406.201 C 551.863 422.461, 550.623 430.078, 546.515 486 C 545.646 497.825, 544.297 515.825, 543.518 526 C 542.738 536.175, 541.335 556.488, 540.399 571.140 L 538.698 597.781 543.487 606.140 C 570.259 652.882, 622.570 703.017, 668.207 725.669 C 691.151 737.058, 698.389 737.994, 763.500 737.994 C 827.047 737.994, 835.677 737.017, 855.633 727.564 C 900.670 706.230, 953.251 656.645, 982.867 607.580 L 988.348 598.500 987.181 577 C 986.057 556.300, 984.079 523.552, 981.986 491 C 981.438 482.475, 980.536 467.625, 979.982 458 C 979.427 448.375, 978.247 436.225, 977.359 431 C 969.392 384.106, 935.181 353.953, 884.332 349.008 C 872.142 347.822, 660.039 347.930, 647.572 349.128 M 703 359.004 C 678.823 360.458, 669.947 363.539, 658.917 374.308 C 653.642 379.458, 646.985 390.396, 645.642 396.118 L 645.028 398.735 629.264 399.271 C 605.402 400.081, 595.267 403.601, 583.742 415.078 C 576.203 422.586, 571.703 430.831, 569.941 440.360 C 568.400 448.699, 571.834 589.179, 574.070 609.275 C 577.163 637.062, 597.054 657.759, 624.765 662.023 C 629.234 662.710, 677.268 662.965, 767.500 662.779 L 903.500 662.500 911.098 659.905 C 930.868 653.151, 946.729 635.463, 950.469 616 C 951.384 611.238, 952.476 592.254, 953.460 564 C 954.313 539.525, 955.509 506.900, 956.117 491.500 C 957.810 448.613, 957.292 437.172, 953.273 428.688 C 948.768 419.175, 939.899 410.154, 930.666 405.693 C 920.546 400.803, 915.524 399.768, 898.635 399.094 L 883.771 398.500 881.745 393 C 874.067 372.159, 858.332 361.519, 831.500 359.024 C 819.441 357.903, 721.563 357.887, 703 359.004 M 702.500 378.646 C 683.447 380.025, 673.143 384.918, 667.979 395.041 L 665.959 399 763.980 399 C 817.891 399, 861.998 398.663, 861.996 398.250 C 861.980 394.890, 854.692 386.423, 849.500 383.732 C 839.959 378.787, 838.697 378.703, 771 378.487 C 736.075 378.375, 705.250 378.447, 702.500 378.646 M 614.773 420.555 C 602.633 423.498, 595.985 428.497, 591.573 438 C 589.074 443.382, 589.019 443.983, 589.014 466 C 589.003 512.589, 592.507 602.957, 594.655 611.500 C 598.487 626.737, 608.312 636.654, 624.530 641.658 C 630.202 643.408, 637.134 643.500, 763.500 643.500 L 896.500 643.500 902.962 641.168 C 916.145 636.411, 922.981 630.547, 928.084 619.623 C 931.692 611.899, 932.588 603.702, 933.945 566 C 934.510 550.325, 935.457 524.225, 936.051 508 C 938.023 454.070, 937.884 443.349, 935.130 437.258 C 931.001 428.124, 922.666 422.334, 910.378 420.062 C 900.881 418.306, 622.131 418.771, 614.773 420.555 M 535.677 642.702 C 531.625 699.594, 533.175 746.455, 540.089 776.096 C 545.086 797.518, 557.348 811.946, 575.928 818.265 L 582.500 820.500 758.500 820.793 C 876.944 820.990, 937.095 820.744, 942.434 820.039 C 963.458 817.267, 980.780 801.284, 986.369 779.500 C 990.146 764.779, 994.004 726.581, 994.001 703.925 C 994 691.960, 991.276 634.943, 990.677 634.344 C 990.551 634.218, 987.535 638.024, 983.974 642.802 C 948.141 690.889, 889.915 738.380, 850.706 751.500 C 834.416 756.951, 831.042 757.145, 759 756.778 L 693.500 756.444 683.587 753.738 C 642.492 742.521, 582.231 695.144, 544.005 644 C 540.511 639.325, 537.349 635.141, 536.978 634.702 C 536.607 634.263, 536.022 637.863, 535.677 642.702 M 560.840 725.887 C 551.851 731.587, 549.833 742.892, 554.689 760.342 C 556.578 767.130, 563.693 775.717, 570.403 779.308 C 576.605 782.626, 639.199 782.735, 643.619 779.435 C 650.309 774.441, 652.468 770.385, 652.844 762.107 C 653.315 751.723, 651.151 747.206, 641.291 737.998 C 627.375 725.002, 620.281 723, 588.147 723 L 565.392 723 560.840 725.887 M 908 724.603 C 896.877 727.579, 881.677 739.378, 877.015 748.654 C 874.024 754.607, 873.635 765.648, 876.243 770.575 C 878.633 775.091, 885.392 780.796, 889.190 781.504 C 891.011 781.843, 906 781.981, 922.500 781.810 C 956.970 781.454, 956.365 781.594, 965.602 771.827 C 972.571 764.459, 974.493 758.645, 974.497 744.925 C 974.500 732.812, 972.629 728.892, 964.982 724.991 C 959.880 722.388, 917.361 722.099, 908 724.603 M 572.292 747.541 C 573.007 754.471, 575.561 758.992, 580.034 761.248 C 584.473 763.488, 631.005 763.930, 632.762 761.750 C 634.261 759.890, 632.722 756.885, 628.158 752.762 C 618.668 744.188, 610.642 742, 588.679 742 L 571.720 742 572.292 747.541 M 915.500 743.402 C 901.490 747.845, 888.691 760.630, 896.334 762.548 C 901.614 763.873, 946.413 762.558, 948.750 761.009 C 951.868 758.944, 954.273 753.475, 954.802 747.250 L 955.248 742 937.374 742.067 C 925.887 742.110, 918.071 742.587, 915.500 743.402 M 732.500 767.565 C 722.919 772.524, 718.594 780.712, 719.145 792.849 C 719.566 802.129, 722.319 807.169, 729.864 812.472 L 734.172 815.500 764 815.500 L 793.828 815.500 798.140 812.469 C 800.512 810.802, 803.813 807.237, 805.476 804.547 C 813.157 792.124, 807.132 771.803, 794.324 766.933 C 789.818 765.220, 735.967 765.770, 732.500 767.565 M 740 787 C 737.708 789.292, 737.447 791.861, 739.255 794.334 C 740.738 796.362, 772.266 797.834, 781.976 796.329 C 788.247 795.356, 790.817 792.426, 788.786 788.563 C 786.982 785.133, 786.266 785.031, 763.750 785.015 C 743.322 785.001, 741.878 785.122, 740 787 M 597 843 L 597 846 763.393 846 C 914.199 846, 929.843 845.852, 930.393 844.418 C 932.189 839.737, 942.087 840, 764 840 L 597 840 597 843 M 582.048 874.115 C 579.215 878.578, 577.054 882.388, 577.247 882.581 C 577.694 883.027, 615.075 883.270, 615.472 882.829 C 615.634 882.648, 617.625 878.788, 619.895 874.250 L 624.022 866 605.611 866 L 587.200 866 582.048 874.115 M 642.279 874.540 C 639.958 879.193, 638.383 883.052, 638.779 883.114 C 639.176 883.177, 695.829 883.349, 764.675 883.497 L 889.850 883.765 888.696 881.132 C 888.062 879.685, 886.099 875.800, 884.334 872.500 L 881.124 866.500 763.812 866.290 L 646.500 866.079 642.279 874.540 M 908.500 875 L 913.020 884 930.260 883.930 C 952.873 883.838, 952.051 884.362, 945.434 874.250 L 940.036 866 922.008 866 L 903.980 866 908.500 875" stroke="none" fill="#1D5F3A" fill-rule="evenodd"/>
</svg>