<svg xmlns="http://www.w3.org/2000/svg" width="1000" height="400" viewBox="-298.8 76.8 2127.5 851.0">
	<path d="M 809.096 131.118 C 737.289 139.444, 688.848 201.524, 708.859 259.579 L 711.777 268.043 705.954 279.272 C 699.905 290.938, 692 310.110, 692 313.117 C 692 316.669, 696.898 321, 700.915 321 C 705.381 321, 708.171 318.386, 709.989 312.500 C 711.747 306.808, 719.803 288.250, 722.602 283.443 L 724.964 279.386 734.732 282.635 C 776.133 296.406, 821.881 282.309, 848.462 247.589 C 864.818 226.226, 874.791 200.182, 881.466 161.408 C 886.206 133.866, 886.420 134.080, 851 131.013 C 837.593 129.852, 819.625 129.897, 809.096 131.118 M 813.500 147.676 C 786.513 151.063, 763.768 160.931, 747.175 176.453 C 728.740 193.698, 719.041 218.440, 721.910 240.908 C 723.228 251.234, 723.308 251.317, 727.230 246.444 C 743.683 226.003, 767.646 206.920, 791.345 195.385 C 801.524 190.431, 804.794 190.022, 808.407 193.250 C 815.179 199.301, 812.179 203.877, 796.140 211.963 C 775.451 222.392, 757.845 236.257, 743.393 253.500 C 738.784 259, 735.009 263.819, 735.006 264.210 C 734.981 267.172, 760.083 271.464, 772.222 270.573 C 811.701 267.675, 839.506 243.527, 854.814 198.844 C 860.698 181.668, 867.187 151.721, 865.386 150.050 C 863.105 147.933, 825.253 146.201, 813.500 147.676 M 615.500 213.960 C 521.412 234.121, 441.385 277.663, 372.902 345.957 C 296.875 421.774, 251.465 510.533, 237.049 611.500 C 235.328 623.551, 233.064 649.747, 233.015 658.173 C 232.992 662.264, 237.491 667, 241.402 667 C 247.507 667, 249.641 663.200, 250.386 651 C 256.217 555.481, 291.109 468.332, 354.883 390 C 368.428 373.363, 403.302 339.092, 421.152 324.878 C 481.539 276.791, 550.471 244.611, 625.500 229.481 C 640.392 226.478, 643 224.916, 643 219 C 643 210.405, 637.121 209.327, 615.500 213.960 M 902.695 215.950 C 897.566 222.046, 900.616 228.178, 909.684 229.998 C 964.806 241.066, 1027.821 267.733, 1077.761 301.129 C 1194.957 379.500, 1272.717 513.087, 1280.546 649.500 C 1281.179 660.522, 1281.444 661.724, 1283.804 664.250 C 1287.241 667.928, 1292.104 667.987, 1295.695 664.396 L 1298.299 661.792 1297.678 648.646 C 1293.673 563.921, 1259.965 472.727, 1205.956 400.500 C 1178.817 364.207, 1139.844 325.225, 1104.111 298.631 C 1054.310 261.568, 995.610 233.814, 933.500 217.965 C 910.624 212.127, 906.158 211.835, 902.695 215.950 M 688.994 489.924 C 679.300 492.911, 668 505.398, 668 513.122 C 668 514.951, 664.028 515, 515.538 515 L 363.075 515 357.288 517.162 C 349.575 520.044, 340.058 529.391, 337.671 536.428 C 336.144 540.933, 336.001 552.399, 336.010 669.928 L 336.020 798.500 338.394 803.500 C 341.379 809.784, 348.984 817.211, 355.500 820.203 C 360.434 822.470, 361.069 822.504, 403.750 822.799 C 444.928 823.084, 447 823.186, 447 824.933 C 447 828.987, 455.152 842.921, 461.596 849.881 L 468.187 857 369.728 857 C 271.635 857, 271.260 857.008, 268.635 859.073 C 264.716 862.156, 264.922 867.915, 269.077 871.411 L 272.153 874 768.642 874 C 1107.252 874, 1265.743 873.673, 1267.055 872.970 C 1272.038 870.304, 1272.829 863.749, 1268.711 859.250 L 1266.651 857 1146.737 857 L 1026.823 857 1032.828 850.447 C 1038.563 844.187, 1046.023 831.549, 1047.378 825.795 L 1048.016 823.089 1117.258 822.795 C 1196.410 822.458, 1190.798 823.107, 1200.768 813.137 C 1210.642 803.263, 1210.255 806.879, 1209.716 729.500 C 1209.311 671.360, 1208.968 659.525, 1207.124 640 C 1199.078 554.806, 1191.074 531.024, 1166.349 518.851 L 1159.543 515.500 1058.272 515.231 C 963.016 514.979, 956.999 514.860, 956.978 513.231 C 956.905 507.443, 948.820 496.743, 941.084 492.195 L 936.500 489.500 814 489.326 C 746.625 489.230, 690.372 489.500, 688.994 489.924 M 691.378 507.437 C 688.488 508.695, 685 512.406, 685 514.223 C 685 514.650, 742.150 515, 812 515 C 881.850 515, 939 514.650, 939 514.223 C 939 512.336, 935.459 508.672, 932.401 507.394 C 927.500 505.347, 696.087 505.387, 691.378 507.437 M 363.500 533.204 C 361.850 533.782, 359.430 535.210, 358.121 536.377 C 352.846 541.084, 353 538.107, 353 635.384 L 353 725.833 365.074 726.166 L 377.148 726.500 381.074 730.711 L 385 734.923 385 749.519 L 385 764.116 380.576 768.799 L 376.152 773.481 364.576 773.848 L 353 774.216 353.022 783.858 C 353.049 795.923, 354.906 800.738, 360.623 803.576 C 364.204 805.353, 367.362 805.523, 401.956 805.807 C 422.557 805.975, 440.379 805.871, 441.561 805.574 C 443.421 805.107, 443.798 804.083, 444.369 797.939 C 447.033 769.273, 470.482 742.701, 498.643 736.436 C 508.726 734.193, 524.747 734.895, 534.043 737.987 C 560.721 746.862, 582 774.529, 582 800.340 C 582 803.481, 582.467 804.965, 583.590 805.396 C 585.781 806.237, 909.380 806.021, 910.579 805.178 C 911.110 804.805, 912.269 800.225, 913.155 795 C 916.908 772.881, 929.331 754.613, 947.848 743.983 L 953.915 740.500 954.208 653.422 L 954.500 566.344 957.302 562.671 C 963.086 555.088, 959.157 555.473, 1028.259 555.729 C 1096.714 555.983, 1093.343 555.650, 1098.698 562.671 L 1101.500 566.344 1102 685.922 L 1102.500 805.500 1142.500 805.500 C 1187.578 805.500, 1187.139 805.568, 1190.990 798.019 C 1192.605 794.854, 1193 792.122, 1193 784.126 L 1193 774.172 1176.554 773.836 L 1160.107 773.500 1156.434 770 C 1151.015 764.836, 1150 761.601, 1150 749.500 C 1150 737.144, 1151.121 733.695, 1156.604 729.175 L 1160.456 726 1176.728 726 L 1193 726 1193 719 L 1193 712 1173.210 712 C 1145.364 712, 1138.300 709.834, 1124.817 697.164 C 1108.101 681.455, 1108 680.989, 1108 619.460 C 1108 565.382, 1107.847 566.824, 1114.280 560.236 C 1120.017 554.361, 1122.059 554.012, 1150.767 554.006 L 1176.034 554 1173.572 549.143 C 1170.015 542.123, 1166.433 538.268, 1160.620 535.201 L 1155.500 532.500 761 532.326 C 487.392 532.206, 365.581 532.475, 363.500 533.204 M 412 555.980 C 377.632 556.547, 378.025 556.479, 373.291 562.685 L 370.500 566.342 370.217 620.692 C 369.903 680.952, 369.896 680.866, 376.012 686.392 L 380.006 690 439.500 690 L 498.994 690 502.990 686.390 C 509.174 680.803, 509.138 681.207, 508.803 620.921 L 508.500 566.343 505.698 562.670 C 500.776 556.219, 500.135 556.093, 470.358 555.760 C 455.586 555.595, 429.325 555.694, 412 555.980 M 548.681 555.964 L 524.862 556.500 520.431 561.192 L 516 565.884 516 622.710 L 516 679.536 518.529 683.257 C 523.308 690.290, 520.440 690, 585.218 690 L 643.536 690 647.125 687.561 C 654.190 682.760, 654 684.543, 654 623.049 C 654 562.367, 654.268 565.076, 647.703 559.312 L 644.303 556.327 623.902 555.666 C 602.918 554.986, 589.876 555.038, 548.681 555.964 M 721 555.917 C 664.854 556.565, 667.499 556.221, 663.018 563.472 C 659.839 568.615, 659.869 677.434, 663.050 682.582 C 667.856 690.358, 664.616 690, 730.220 690 L 788.704 690 792.102 687.749 C 799.649 682.748, 799.572 683.494, 799.004 620.822 C 798.509 566.181, 798.461 565.092, 796.395 562.322 C 790.913 554.970, 792.367 555.093, 721 555.917 M 824.260 556 L 815.020 556.500 810.760 560.765 L 806.500 565.029 806.500 623.082 L 806.500 681.134 811.192 685.567 L 815.884 690 874.692 689.996 C 931.609 689.993, 933.605 689.929, 936.759 688.005 C 944.307 683.403, 943.992 686.238, 943.996 622.898 L 944 566.296 941.747 562.952 C 936.601 555.316, 938.508 555.557, 883.026 555.527 C 855.787 555.512, 829.342 555.725, 824.260 556 M 1126.200 572.200 C 1124.134 574.266, 1124.523 664.525, 1126.624 670.715 C 1130.109 680.981, 1137.784 688.340, 1150.090 693.213 C 1154.756 695.061, 1158.080 695.415, 1174.250 695.786 L 1193 696.216 1193 689.641 C 1193 667.892, 1188.133 615.731, 1183.473 587.542 C 1182.113 579.314, 1181 572.227, 1181 571.792 C 1181 570.424, 1127.578 570.822, 1126.200 572.200 M 387 623 L 387 673 439.500 673 L 492 673 492 623 L 492 573 439.500 573 L 387 573 387 623 M 533 623 L 533 673 585 673 L 637 673 637 623 L 637 573 585 573 L 533 573 533 623 M 678 623 L 678 673 730 673 L 782 673 782 623 L 782 573 730 573 L 678 573 678 623 M 823 623 L 823 673 875 673 L 927 673 927 623 L 927 573 875 573 L 823 573 823 623 M 970.011 581.250 L 970.022 589.500 972.493 586.366 C 976.753 580.962, 980.912 580, 1000.020 580 L 1017 580 1017 576.500 L 1017 573 993.500 573 L 970 573 970.011 581.250 M 1034 576.438 L 1034 579.876 1052.331 580.188 C 1070.478 580.497, 1070.698 580.527, 1074.191 583.194 C 1081.469 588.750, 1081 580.754, 1081 699.401 C 1081 805.333, 1081.013 806, 1083 806 C 1084.989 806, 1085 805.333, 1085 689.500 L 1085 573 1059.500 573 L 1034 573 1034 576.438 M 984.667 596.667 C 984.300 597.033, 984 628.308, 984 666.167 L 984 735 986.840 735 C 991.647 735, 1004.467 738.702, 1010.894 741.946 L 1017 745.029 1017 670.514 L 1017 596 1001.167 596 C 992.458 596, 985.033 596.300, 984.667 596.667 M 1034 678.082 L 1034 760.163 1037.462 764.388 C 1044.577 773.071, 1050 788.366, 1050 799.751 L 1050 806.081 1058.250 805.790 L 1066.500 805.500 1066.784 704 C 1066.940 648.175, 1066.807 601.038, 1066.489 599.250 L 1065.909 596 1049.955 596 L 1034 596 1034 678.082 M 353 749.500 L 353 758 361 758 L 369 758 369 749.500 L 369 741 361 741 L 353 741 353 749.500 M 1174.250 741.743 L 1167 742.088 1167 750.044 L 1167 758 1180 758 L 1193 758 1193 749.500 L 1193 741 1187.250 741.199 C 1184.088 741.308, 1178.237 741.553, 1174.250 741.743 M 500.161 753.969 C 472.894 761.346, 456.048 789.142, 462.607 815.936 C 467.963 837.819, 482.989 851.755, 505.395 855.622 C 541.487 861.850, 572.013 828.390, 563.439 792 C 556.879 764.158, 527.583 746.551, 500.161 753.969 M 970.500 753.597 C 938.269 760.786, 920.859 795.949, 934.425 826.458 C 941.744 842.919, 955.692 853.072, 975.128 856.088 C 997.781 859.603, 1022.297 844.766, 1029.948 822.911 C 1043.699 783.630, 1010.323 744.715, 970.500 753.597 M 502.569 773.700 C 495.793 776.046, 485.966 785.344, 482.965 792.249 C 476.239 807.721, 483.884 827.319, 499.500 834.637 C 506.108 837.734, 519.324 837.944, 525.690 835.054 C 531.153 832.574, 538.452 825.788, 541.821 820.058 C 545.500 813.800, 545.804 796.934, 542.354 790.493 C 539.603 785.358, 530.102 776.359, 525.324 774.362 C 519.653 771.992, 508.443 771.666, 502.569 773.700 M 972.324 773.379 C 953.436 779.558, 943.623 801.313, 951.972 818.500 C 964.581 844.457, 1001.930 842.994, 1012.065 816.147 C 1021.221 791.896, 996.627 765.429, 972.324 773.379 M 506.354 790.487 C 499.733 793.504, 496.054 801.771, 498.043 809.158 C 502.137 824.364, 523.913 824.203, 527.788 808.938 C 531.029 796.168, 518.173 785.101, 506.354 790.487 M 974.119 791.170 C 964.092 796.133, 963.121 812.334, 972.518 817.878 C 981.034 822.903, 990.529 820.409, 994.750 812.038 C 1001.909 797.842, 988.349 784.126, 974.119 791.170 M 577.970 829.080 C 575.178 836.547, 569.473 845.511, 563.344 852.063 L 558.726 857 747.173 857 L 935.620 857 930.294 851.250 C 925.169 845.718, 916.960 831.460, 915.611 825.750 L 914.962 823 747.603 823 L 580.244 823 577.970 829.080" stroke="none" fill="#1D5F3A" fill-rule="evenodd"/>
</svg>