<svg xmlns="http://www.w3.org/2000/svg" width="1000" height="500" viewBox="-298.8 -57.9 2127.5 1063.8">
	<path d="M 806.500 52.625 C 773.038 56.258, 744.880 69.166, 722.861 90.967 C 694.813 118.737, 685.768 152.316, 697.169 186.346 L 700.151 195.246 693.107 209.373 C 684.510 226.615, 680 238.239, 680 243.155 C 680 249.966, 687.776 253.324, 693.365 248.927 C 694.814 247.788, 696 246.381, 696 245.801 C 696 243.916, 703.113 226.745, 708.183 216.393 L 713.132 206.286 718.816 208.576 C 748.636 220.592, 782.131 217.192, 809.252 199.395 C 818.708 193.190, 836.328 175.494, 842.484 166.021 C 854.959 146.824, 864.250 120.043, 869.905 86.981 C 874.588 59.597, 873.826 55.693, 863.440 53.877 C 858.001 52.925, 812.873 51.934, 806.500 52.625 M 803.736 70.042 C 779.466 73.789, 759.900 81.665, 742.648 94.633 C 718.673 112.654, 705.516 143.158, 709.976 170.386 C 711.229 178.042, 711.587 178.251, 715.289 173.500 C 731.331 152.908, 759.253 129.987, 780.972 119.580 C 789.917 115.294, 792.496 115.143, 796.195 118.687 C 801.958 124.208, 799.645 128.762, 788.356 134.125 C 773.517 141.175, 756.741 153.196, 743.919 165.966 C 732.240 177.597, 721.465 190.928, 722.785 192.112 C 723.178 192.464, 726.425 193.685, 730 194.825 C 778.804 210.388, 825.140 181.725, 843.875 124.381 C 849.294 107.793, 856.964 71.633, 855.396 70.062 C 854.449 69.113, 809.866 69.095, 803.736 70.042 M 615.500 154.484 C 509.688 183.221, 414.962 249.858, 348.944 342 C 300.408 409.741, 270.583 491.929, 264.046 575.950 C 261.814 604.647, 262.759 609, 271.226 609 C 278.021 609, 279.576 605.633, 280.297 589.362 C 281.024 572.929, 283.928 549.912, 288.052 527.885 C 318.346 366.075, 438.535 230.434, 598.500 177.523 C 608.950 174.066, 622 170.202, 627.500 168.935 C 639.136 166.255, 643 163.629, 643 158.402 C 643 154.460, 638.237 149.964, 634.173 150.070 C 632.703 150.108, 624.300 152.094, 615.500 154.484 M 897.174 152.314 C 894.224 155.455, 894.261 160.961, 897.250 163.752 C 898.622 165.033, 903.599 166.885, 910 168.495 C 942.738 176.734, 985.169 194.486, 1020.112 214.564 C 1127.332 276.173, 1203.879 375.143, 1235.852 493.500 C 1243.950 523.478, 1251 567.704, 1251 588.530 C 1251 600.322, 1257.902 605.798, 1265.365 599.927 C 1268.620 597.367, 1268.861 589.963, 1266.474 565.890 C 1253.422 434.255, 1188.179 317.483, 1081.500 234.822 C 1036.444 199.910, 978.345 170.375, 923.650 154.578 C 905.437 149.317, 900.395 148.886, 897.174 152.314 M 731.882 438.882 L 728 442.765 728 452.418 C 728 463.181, 728.928 465.556, 734.472 468.982 C 737.539 470.878, 739.401 471, 765.335 471 L 792.933 471 796.467 467.467 C 798.410 465.523, 800 463.273, 800 462.467 C 800 459.078, 815.198 461.746, 816.592 465.379 C 816.902 466.187, 815.658 469.062, 813.828 471.767 C 798.533 494.377, 793.820 501.954, 792.873 505.452 C 790.923 512.664, 792.431 522.311, 797.797 536.950 L 802.727 550.400 800.867 553.450 C 798.302 557.658, 798.555 559.950, 802.911 571.936 L 806.703 582.373 800.738 592.936 C 784.820 621.125, 752.412 670.468, 736.988 690 C 720.177 711.289, 705.443 724.800, 688.461 734.502 C 676.583 741.288, 673.999 741.864, 669.796 738.658 C 665.428 735.326, 658.635 732.331, 652.409 730.990 L 647.500 729.934 633.029 689.217 C 625.070 666.823, 615.620 639.867, 612.029 629.315 C 607.439 615.828, 604.704 609.294, 602.821 607.315 C 600.168 604.527, 592.454 583.692, 593.468 582.053 C 594.271 580.752, 604.846 578.164, 618 576.048 C 630.493 574.038, 630.502 574.035, 634.631 569.703 C 642.253 561.705, 641.521 552.106, 632.629 543.441 C 624.924 535.933, 625.317 535.981, 574 536.286 C 524.567 536.579, 527.690 536.144, 519.716 543.862 C 508.814 554.414, 509.474 568.622, 521.421 580.588 C 530.033 589.212, 535.738 591.292, 551.409 591.524 L 563.318 591.700 567.486 603.078 C 570.970 612.589, 571.485 614.905, 570.623 617.188 C 569.810 619.342, 570.058 621.276, 571.796 626.341 C 573.008 629.873, 574 633.099, 574 633.510 C 574 633.921, 570.127 638.216, 565.393 643.053 L 556.786 651.849 551.143 647.252 C 540.624 638.684, 526.114 630.612, 512.500 625.755 C 481.936 614.852, 436.708 617.227, 409.758 631.151 C 406.968 632.593, 401.941 633.760, 395.179 634.536 C 386.487 635.534, 384.201 636.182, 380.702 638.642 C 375.539 642.271, 371.019 649.419, 370.263 655.149 C 369.948 657.542, 368.586 660.955, 367.238 662.734 C 364.815 665.932, 364.462 670.760, 366.341 675 C 366.771 675.971, 364.623 679.677, 360.253 685.500 C 328.564 727.733, 326.173 791.182, 354.607 835.298 C 364.737 851.015, 380.874 867.237, 395.829 876.739 L 402.500 880.978 339.937 880.989 L 277.374 881 274.687 883.805 C 271.279 887.362, 271.128 891.832, 274.314 894.826 L 276.629 897 767.140 897 L 1257.651 897 1259.826 894.686 C 1262.997 891.310, 1262.777 885.756, 1259.365 883.073 C 1256.895 881.130, 1255.454 881, 1236.365 881 L 1216 881 1216 874.950 C 1216 864.033, 1212.103 860, 1201.554 860 L 1195.038 860 1194.769 710.250 L 1194.500 560.500 1191.315 553.777 C 1185.756 542.042, 1175.304 532.830, 1163.797 529.524 C 1158.984 528.141, 1153.676 527.933, 1129.797 528.193 C 1097.346 528.545, 1095.803 528.901, 1085.209 538.477 C 1072.917 549.587, 1071.489 553.750, 1068.421 587.407 C 1061.165 667.020, 1060.949 673.594, 1060.988 814.250 L 1061 860 1055.135 860 C 1045.693 860, 1041 865.129, 1041 875.450 L 1041 881 1006.779 881 L 972.558 881 981.800 875.023 C 1010.941 856.178, 1031.798 825.225, 1039.602 789.240 C 1041.927 778.517, 1041.994 751.754, 1039.725 739.406 C 1029.608 684.341, 983.575 639.452, 929 631.432 C 913.226 629.113, 894.360 629.946, 880.500 633.573 C 875 635.012, 869.557 636.411, 868.404 636.682 C 866.614 637.102, 866.119 636.470, 865.007 632.337 C 864.292 629.677, 862.657 626.360, 861.374 624.967 C 859.512 622.944, 855 612.470, 855 610.169 C 855 609.884, 856.013 610.574, 857.250 611.701 C 861.989 616.017, 861.742 616, 918.738 616 L 973.608 616 978.240 613.063 C 984.912 608.831, 985.525 607.461, 991.063 584.388 C 993.820 572.899, 999.208 550.545, 1003.035 534.711 C 1009.598 507.559, 1009.914 505.729, 1008.576 502.527 C 1005.722 495.697, 1009.746 496, 921.782 496 L 842.465 496 840.631 489.250 C 839.622 485.538, 837.532 477.717, 835.987 471.872 C 832.663 459.299, 831.418 456.710, 826.332 451.799 C 820.992 446.641, 816.453 445, 807.532 445 C 801.785 445, 800 444.672, 800 443.616 C 800 442.855, 798.199 440.605, 795.997 438.616 L 791.994 435 763.879 435 L 735.765 435 731.882 438.882 M 744 453 C 744 454.997, 744.441 455.036, 764.250 454.771 C 781.463 454.541, 784.500 454.275, 784.500 453 C 784.500 451.725, 781.463 451.459, 764.250 451.229 C 744.441 450.964, 744 451.003, 744 453 M 817.122 495.513 C 810.458 505.056, 807.626 511.379, 808.362 515.062 C 810.012 523.312, 818.406 544.007, 819.921 543.561 C 825.507 541.913, 826.690 541.990, 830.025 544.213 C 833.221 546.344, 833.982 547.950, 839.500 564.188 C 842.800 573.900, 845.893 582.218, 846.374 582.673 C 846.866 583.138, 846.996 582.625, 846.672 581.500 C 846.355 580.400, 845.873 578.375, 845.603 577 C 842.304 560.254, 823.906 488, 822.940 488 C 822.625 488, 820.007 491.381, 817.122 495.513 M 847.346 514.750 C 847.611 515.712, 849.521 523.587, 851.590 532.250 L 855.353 548 870.177 548 L 885 548 885 544.922 C 885 540.731, 883.047 518.041, 882.446 515.250 C 881.966 513.021, 881.802 513, 864.414 513 C 848.184 513, 846.901 513.132, 847.346 514.750 M 899.386 520.750 C 899.760 525.013, 900.344 532.888, 900.684 538.250 L 901.302 548 917.047 548 L 932.792 548 933.452 533.250 C 933.815 525.138, 934.348 517.263, 934.636 515.750 L 935.159 513 916.933 513 L 898.707 513 899.386 520.750 M 950.666 516.250 C 950.360 518.038, 949.802 525.913, 949.426 533.750 L 948.744 548 965.853 548 C 982.772 548, 982.968 547.975, 983.491 545.750 C 983.783 544.513, 985.585 537.200, 987.496 529.500 C 989.408 521.800, 990.978 514.938, 990.986 514.250 C 990.997 513.291, 986.363 513, 971.111 513 L 951.223 513 950.666 516.250 M 1105.951 545.330 C 1095.761 548.150, 1089.090 555.231, 1087.068 565.375 C 1086.506 568.194, 1084.150 591.425, 1081.833 617 L 1077.619 663.500 1077.248 761.750 L 1076.876 860 1080.438 860 L 1084 860 1084 748.382 L 1084 636.765 1088 632.765 L 1092 628.765 1092.006 610.632 C 1092.012 589.622, 1092.681 586.386, 1098.274 580.319 C 1104.856 573.178, 1105.117 573.115, 1130.135 572.666 C 1156.001 572.201, 1159.489 572.804, 1165.157 578.720 C 1171.905 585.762, 1172 586.237, 1172 613.068 L 1172 637.235 1168.118 641.118 L 1164.235 645 1132.118 645 L 1100 645 1100 752.500 L 1100 860 1139.500 860 L 1179 860 1179 714.605 C 1179 572.293, 1178.958 569.074, 1177.011 562.770 C 1174.686 555.243, 1170.011 549.825, 1163.070 546.614 C 1157.412 543.997, 1114.272 543.027, 1105.951 545.330 M 535.163 552.235 C 530.882 553.348, 528.522 556.542, 528.640 561.063 C 528.830 568.308, 532.682 571.935, 542.987 574.575 C 552.386 576.983, 559.473 575.912, 580.499 568.909 C 590.398 565.612, 602.548 562.251, 607.499 561.441 C 612.449 560.631, 617.962 559.730, 619.750 559.438 C 623.278 558.864, 623.791 557.466, 621.583 554.441 C 620.320 552.711, 618.715 552.474, 606.833 552.257 C 570.178 551.587, 537.691 551.578, 535.163 552.235 M 817.515 561.976 C 817.183 562.514, 818.937 568.701, 821.413 575.726 C 823.889 582.752, 828.932 597.101, 832.620 607.614 C 838.392 624.067, 839.581 626.661, 841.163 626.247 C 843.825 625.551, 843.882 625.779, 833.361 595.364 C 828.060 580.039, 823.314 566.038, 822.814 564.250 C 821.915 561.034, 818.897 559.739, 817.515 561.976 M 859.390 565.750 C 859.678 566.712, 861.308 573.800, 863.013 581.500 C 867.504 601.790, 865.993 600, 878.629 600 L 889.301 600 888.641 589.750 C 888.278 584.112, 887.696 576.013, 887.347 571.750 L 886.712 564 872.789 564 C 859.995 564, 858.908 564.142, 859.390 565.750 M 903.354 570.750 C 903.691 574.462, 904.263 582.563, 904.625 588.750 L 905.285 600 917.508 600 L 929.732 600 930.438 584.250 C 930.826 575.587, 931.385 567.487, 931.680 566.250 L 932.217 564 917.479 564 L 902.742 564 903.354 570.750 M 947.626 570.750 C 947.309 574.462, 946.764 582.563, 946.416 588.750 L 945.781 600 956.956 600 C 968.409 600, 972 599.128, 972 596.345 C 972 595.474, 973.575 588.056, 975.500 579.862 C 977.425 571.667, 979 564.746, 979 564.481 C 979 564.217, 972.071 564, 963.601 564 L 948.203 564 947.626 570.750 M 1110.441 590.418 C 1108.661 591.717, 1108.474 593.378, 1108.188 610.418 L 1107.876 629 1131.938 629 L 1156 629 1156 610.571 C 1156 595.152, 1155.743 591.886, 1154.429 590.571 C 1152.217 588.360, 1113.445 588.224, 1110.441 590.418 M 808.023 612.325 C 761.829 689.700, 726.070 732.675, 693.244 750.263 L 685.337 754.500 687.656 759.500 C 688.931 762.250, 689.980 765.063, 689.987 765.750 C 690.041 770.998, 716.584 753.607, 732.838 737.674 C 751.068 719.803, 766.924 699.176, 797.398 653.690 L 820.050 619.880 817.495 612.798 C 816.090 608.903, 814.617 605.139, 814.220 604.434 C 813.756 603.607, 811.553 606.413, 808.023 612.325 M 588.865 622.667 C 587.384 623.061, 587.418 623.588, 589.229 628.301 C 590.327 631.160, 594.039 641.375, 597.477 651 C 600.915 660.625, 606.743 676.825, 610.429 687 C 614.114 697.175, 619.075 710.900, 621.452 717.500 C 625.287 728.146, 626.056 729.534, 628.265 729.805 L 630.755 730.109 625.785 715.805 C 623.052 707.937, 618.354 694.750, 615.346 686.500 C 612.338 678.250, 605.967 660.367, 601.188 646.760 C 596.410 633.153, 592.050 622.068, 591.500 622.126 C 590.950 622.184, 589.764 622.428, 588.865 622.667 M 456.586 635.022 C 439.798 636.595, 418.282 643.342, 405.664 650.990 C 398.088 655.581, 386.697 664.031, 387.288 664.621 C 387.555 664.888, 392.887 666.255, 399.137 667.659 C 426.317 673.762, 445.692 684.431, 463.579 703.141 C 470.451 710.329, 478.248 720.614, 481.184 726.364 L 483.157 730.228 491.829 720.868 C 496.598 715.719, 510.756 700.605, 523.291 687.280 L 546.082 663.053 538.202 657.210 C 516.281 640.957, 484.742 632.382, 456.586 635.022 M 807.962 666.203 C 765.261 730.945, 733.794 764.609, 701.730 779.855 C 693.857 783.598, 691.859 784.985, 691.444 787 C 689.972 794.132, 687.503 800.975, 684.948 805 C 681.714 810.096, 671.793 820.092, 667.939 822.140 L 665.377 823.500 667.276 829.750 L 669.174 836 678.891 836 C 688.569 836, 688.620 836.013, 691.804 839.298 C 696.655 844.303, 696.556 853.644, 691.600 858.600 L 688.200 862 664.296 862 L 640.392 862 637.311 858.750 C 634.857 856.161, 634.129 854.381, 633.730 850 C 632.851 840.350, 636.716 836, 646.170 836 L 651.895 836 650.601 832.250 L 649.306 828.500 640.403 827.861 C 625.756 826.811, 618.745 823.034, 604.746 808.652 L 595.838 799.500 593.550 806.500 C 584.549 834.042, 565.088 858.884, 539.046 876.079 L 531.593 881 687.925 881 L 844.257 881 836.878 876.137 C 770.864 832.626, 756.257 742.718, 805.229 681.340 C 810.829 674.321, 829.528 656, 831.092 656 C 831.970 656, 827.408 642.166, 826.048 640.703 C 825.640 640.265, 817.502 651.740, 807.962 666.203 M 846.500 641.178 C 845.400 641.792, 844.357 642.410, 844.181 642.550 C 843.821 642.837, 851.005 662.319, 859.465 684 C 870.289 711.738, 886.419 741.835, 900.459 760.488 C 906.786 768.896, 908.723 770.061, 911.227 766.968 C 913.176 764.561, 912.278 761.633, 908.845 759.196 C 906.016 757.188, 895.642 743.168, 889.324 732.813 C 877.397 713.267, 859.577 671.097, 851.899 644.250 C 850.627 639.802, 849.803 639.333, 846.500 641.178 M 892.096 647.451 C 880.317 649.694, 872 652.197, 872 653.499 C 872 654.615, 874.007 661.016, 874.348 660.987 C 874.432 660.980, 877.281 660.102, 880.679 659.037 C 890.944 655.819, 906.247 654.635, 920.302 655.973 C 970.316 660.732, 1011.244 701.611, 1016.954 752.509 C 1022.111 798.473, 993.612 846.316, 950.304 864.398 C 889.820 889.652, 821.209 855.446, 803.851 791.384 C 800.856 780.331, 800.149 756.895, 802.442 744.658 C 806.627 722.322, 817.170 702.536, 833.489 686.391 L 840.674 679.281 838.953 674.891 L 837.232 670.500 827.744 680 C 800.726 707.049, 787.617 745.859, 793.602 781.074 C 801.403 826.969, 830.427 861.624, 872.500 875.276 C 885.954 879.642, 891.637 880.461, 908.500 880.461 C 930.439 880.461, 943.346 877.407, 962.375 867.715 C 1030.082 833.232, 1046.634 743.706, 996.107 685.264 C 982.569 669.606, 958.581 654.948, 937.500 649.454 C 924.958 646.185, 903.675 645.246, 892.096 647.451 M 557.390 673.250 C 545.324 686.038, 529.197 703.250, 521.552 711.500 C 513.908 719.750, 505.158 729.087, 502.108 732.250 C 499.058 735.413, 496.999 737.993, 497.531 737.984 C 498.064 737.975, 505.250 730.679, 513.500 721.770 C 521.750 712.862, 539.300 694.061, 552.500 679.990 C 578.362 652.422, 580.568 650, 579.819 650 C 579.549 650, 569.456 660.462, 557.390 673.250 M 581.309 671.250 L 577.202 675.500 583.945 686.623 C 591.196 698.584, 596.642 711.154, 599.596 722.750 L 601.443 730 605.328 730 C 608.023 730, 609.069 729.617, 608.740 728.750 C 608.480 728.063, 603.369 713.889, 597.383 697.254 C 591.397 680.619, 586.256 667.006, 585.958 667.004 C 585.660 667.002, 583.568 668.913, 581.309 671.250 M 901 671.650 C 892.127 672.992, 880.890 675.369, 880.510 675.984 C 879.078 678.301, 899.215 720.063, 908.761 734.572 C 912.044 739.562, 916.793 745.335, 919.314 747.401 C 931.856 757.678, 930.592 775.360, 916.800 782.585 C 912.540 784.817, 904.151 784.384, 899.725 781.704 C 888.540 774.933, 863.331 734.781, 849.512 701.726 L 846.680 694.952 844.229 697.226 C 837.104 703.836, 827.536 718.884, 823.050 730.535 C 803.395 781.575, 832.552 839.927, 884.465 853.449 C 943.890 868.927, 1001.160 824.579, 1001.271 763 C 1001.341 723.928, 975.114 687.909, 938 676.108 C 926.231 672.365, 909.556 670.356, 901 671.650 M 378.494 687.702 C 330.787 745.320, 346.656 832.157, 411.260 866.998 C 468.200 897.706, 541.891 875.401, 570.593 818.771 C 575.364 809.358, 580.144 797.042, 579.458 795.932 C 579.141 795.419, 577.218 795, 575.184 795 C 571.716 795, 571.406 795.260, 570.176 799.202 C 567.690 807.165, 561.058 819.749, 555.200 827.615 C 508.153 890.791, 416.401 887.196, 374.550 820.535 C 349.437 780.535, 355.106 725.035, 387.800 690.814 L 395.152 683.119 391.326 682.472 C 389.222 682.116, 386.740 681.618, 385.811 681.365 C 384.653 681.049, 382.358 683.036, 378.494 687.702 M 543.833 711.298 C 531.915 724.058, 522.240 734.538, 522.333 734.586 C 522.425 734.635, 527.900 734.102, 534.500 733.401 C 541.100 732.701, 555.050 731.612, 565.499 730.982 C 575.949 730.351, 584.620 729.714, 584.768 729.565 C 586.643 727.690, 568.797 687.856, 566.168 688.049 C 565.801 688.076, 555.750 698.538, 543.833 711.298 M 408 693.333 C 387.153 709.753, 375.567 735.140, 375.523 764.500 C 375.449 813.054, 408.278 849.859, 457.263 856.141 C 498.033 861.370, 542.475 833.554, 554.402 795.344 C 555.265 792.579, 556.683 792.785, 510.500 788.975 C 458.460 784.682, 457.832 784.534, 451.879 775.148 C 444.281 763.167, 451.702 747.224, 466.410 743.933 C 472.973 742.464, 473.020 743.244, 465.661 731.347 C 455.629 715.130, 442.059 702.607, 424.726 693.573 C 414.055 688.012, 414.744 688.022, 408 693.333 M 564.500 747.011 C 531.246 748.656, 469.223 757.267, 465.938 760.695 C 465.089 761.581, 464.699 763.601, 464.882 766.172 C 465.032 768.298, 469.511 769.672, 478.500 770.348 C 503.237 772.209, 571.413 778.802, 583.853 780.536 C 599.158 782.671, 603.684 785.068, 615.936 797.531 C 624.212 805.949, 627.169 808.294, 631.606 809.954 C 637.168 812.035, 644 812.694, 644 811.149 C 644 807.972, 641.590 803.998, 639.652 803.978 C 635.769 803.938, 629.575 800.384, 625.326 795.756 C 611.132 780.296, 622.191 755, 643.144 755 C 664.406 755, 675.741 779.652, 661.775 795.519 C 658.025 799.778, 657.936 800.049, 658.993 803.972 C 660.247 808.632, 661.280 808.479, 666.696 802.832 C 682.430 786.427, 677.015 758.933, 656.120 749.135 L 650.500 746.500 615 746.384 C 595.475 746.321, 572.750 746.603, 564.500 747.011 M 639.321 772.189 C 634.540 774.500, 633.905 783.419, 638.302 786.499 C 641.619 788.822, 646.700 788.391, 649.545 785.545 C 656.178 778.913, 647.868 768.057, 639.321 772.189 M 1057 878.500 L 1057 881 1128.500 881 L 1200 881 1200 878.500 L 1200 876 1128.500 876 L 1057 876 1057 878.500" stroke="none" fill="#1D5F3A" fill-rule="evenodd"/>
</svg>