<svg xmlns="http://www.w3.org/2000/svg" width="1000" height="500" viewBox="-165.0 36.5 1860.0 930.0">
	<path d="M 808.096 131.118 C 736.369 139.435, 689.019 200.690, 708.576 259.864 L 711.228 267.888 705.630 278.833 C 698.945 291.902, 692 309.341, 692 313.059 C 692 317.905, 695.476 321, 700.918 321 C 706.408 321, 708.095 319.605, 709.986 313.500 C 713.943 300.723, 724.445 279.573, 726.450 280.342 C 748.118 288.657, 774.842 290.295, 794.495 284.513 C 842.652 270.345, 869.334 232.883, 881.466 162.408 C 885.836 137.017, 885.186 135.118, 871.438 133.147 C 850.249 130.108, 824.043 129.269, 808.096 131.118 M 814.500 147.676 C 768.921 153.396, 735.983 177.548, 724.729 213.500 C 721.296 224.466, 720.700 230.101, 721.931 239.920 C 723.224 250.231, 723.307 250.318, 727.233 245.444 C 738.628 231.298, 757.638 214.468, 772.945 204.974 C 797.874 189.513, 809.642 187.246, 811.572 197.533 C 812.599 203.009, 810.271 205.344, 797.223 211.921 C 776.376 222.430, 758.118 236.864, 743.364 254.500 L 734.999 264.500 742.187 266.786 C 777.745 278.096, 816.755 263.774, 838.778 231.324 C 850.222 214.462, 858.741 190.717, 864.510 159.608 C 865.748 152.933, 865.868 150.537, 864.993 149.996 C 861.673 147.944, 825.579 146.286, 814.500 147.676 M 614.500 213.960 C 520.689 234.061, 440.369 277.688, 372.403 345.458 C 288.755 428.864, 240.774 531.853, 233.875 642.803 C 232.527 664.478, 233.045 666.232, 240.968 666.813 C 248.141 667.340, 249.566 665.124, 250.356 652.217 C 262.977 445.925, 418.124 271.559, 626.500 229.477 C 641.588 226.430, 643 225.533, 643 219 C 643 210.023, 637.452 209.042, 614.500 213.960 M 902.176 215.504 C 897.342 221.649, 900.364 228.329, 908.738 230.010 C 963.788 241.059, 1026.843 267.748, 1076.761 301.129 C 1194.566 379.907, 1272.677 513.820, 1280.548 650.500 C 1281.376 664.862, 1282.558 667, 1289.674 667 C 1297.636 667, 1298.403 665.238, 1297.685 648.603 C 1295.235 591.830, 1277.784 526.473, 1250.564 472.129 C 1226.096 423.281, 1198.993 385.970, 1158.530 345.434 C 1117.132 303.962, 1078.537 276.524, 1025.764 251.050 C 988.903 233.256, 933.740 215.040, 911.426 213.292 C 904.596 212.757, 904.276 212.833, 902.176 215.504 M 687.994 489.934 C 682.936 491.473, 679.158 494.030, 674.827 498.848 C 671.032 503.068, 669.606 505.935, 667.413 513.750 C 667.135 514.743, 635.710 515, 514.569 515 L 362.075 515 356.295 517.163 C 352.229 518.684, 348.859 520.983, 344.933 524.913 C 335.222 534.634, 335.999 522.015, 336.010 669.928 L 336.020 799.500 338.392 804.500 C 341.361 810.754, 347.978 817.205, 354.500 820.202 C 359.411 822.459, 360.270 822.509, 402.890 823 L 446.281 823.500 447.477 827.553 C 449.545 834.561, 455.078 843.796, 461.237 850.518 L 467.177 857 368.811 857 C 257.366 857, 266 856.329, 266 864.984 C 266 869.055, 266.433 870.195, 268.635 871.927 L 271.270 874 768.701 874 C 1085.232 874, 1266.785 873.650, 1267.929 873.038 C 1272.162 870.773, 1272.909 862.792, 1269.267 858.750 C 1267.782 857.102, 1260.712 857, 1147.761 857 L 1027.832 857 1033.363 850.889 C 1039.020 844.638, 1046.244 832.034, 1047.460 826.294 L 1048.139 823.089 1117.820 822.794 C 1197.143 822.459, 1191.794 823.048, 1201.232 813.610 C 1210.584 804.258, 1210.251 807.562, 1209.717 729.500 C 1209.312 670.294, 1208.977 658.590, 1207.125 639 C 1199.119 554.286, 1191.283 530.635, 1167.311 518.832 L 1160.544 515.500 1059.203 515 L 957.862 514.500 956.069 509.205 C 952.970 500.050, 944.607 491.856, 936.426 489.958 C 931.678 488.857, 691.611 488.834, 687.994 489.934 M 693.021 507.110 C 690.098 508.283, 687.190 510.777, 685.872 513.239 C 684.975 514.916, 690.987 515, 812.087 515 L 939.244 515 937.772 512.783 C 936.963 511.564, 935.075 509.652, 933.577 508.533 C 930.878 506.518, 929.787 506.498, 813.177 506.307 C 736.934 506.182, 694.627 506.465, 693.021 507.110 M 364.500 533.201 C 360.498 534.600, 356.069 538.763, 354.377 542.718 C 353.242 545.371, 353 561.731, 353 635.886 L 353 725.837 365.579 726.168 L 378.159 726.500 381.579 730.235 L 385 733.971 385 749.524 L 385 765.077 381.073 769.288 L 377.146 773.498 365.073 773.854 L 353 774.211 353 783.393 C 353 794.830, 355.298 800.251, 361.500 803.442 C 365.282 805.388, 367.460 805.517, 401.500 805.812 C 447.079 806.206, 443.547 806.893, 444.342 797.487 C 446.775 768.700, 469.469 742.704, 497.637 736.437 C 507.986 734.135, 525.684 734.860, 535 737.967 C 561.685 746.869, 582 773.611, 582 799.839 C 582 804.240, 582.267 804.850, 584.428 805.392 C 587.284 806.109, 906.542 806.095, 909.536 805.378 C 911.273 804.962, 911.751 803.581, 912.784 795.997 C 914.905 780.425, 920.656 767.965, 930.857 756.843 C 936.210 751.006, 949.922 741, 952.568 741 C 953.755 741, 954.008 727.677, 954.234 653.250 L 954.500 565.500 956.829 562.235 C 961.873 555.162, 958.446 555.475, 1028.251 555.725 C 1097.349 555.973, 1094.519 555.713, 1099.171 562.235 L 1101.500 565.500 1101.762 685.234 L 1102.024 804.968 1104.265 805.530 C 1105.498 805.840, 1123.380 805.959, 1144.003 805.796 C 1179.749 805.514, 1181.663 805.404, 1184.999 803.444 C 1190.979 799.931, 1192.964 795.056, 1192.984 783.834 L 1193 774.169 1176.064 773.834 L 1159.127 773.500 1155.940 770.500 C 1150.952 765.804, 1150 762.439, 1150 749.500 C 1150 736.207, 1151.091 732.558, 1156.238 728.632 C 1159.646 726.033, 1159.897 726, 1176.344 726 L 1193 726 1193 719 L 1193 712 1172.710 712 C 1144.601 712, 1137.416 709.873, 1124.338 697.680 C 1116.528 690.399, 1112.507 684.380, 1109.976 676.187 C 1108.119 670.174, 1108 666.761, 1108 619.460 C 1108 564.871, 1107.913 565.771, 1113.775 559.738 C 1118.947 554.414, 1121.469 554.012, 1149.750 554.006 C 1163.638 554.003, 1175 553.757, 1175 553.460 C 1175 549.163, 1166.119 538.631, 1159.590 535.186 L 1154.500 532.500 761 532.326 C 488.692 532.206, 366.576 532.476, 364.500 533.201 M 411 555.980 C 376.949 556.542, 376.881 556.553, 372.820 562.248 L 370.500 565.500 370.218 620.773 C 369.908 681.318, 369.964 682.005, 375.549 686.909 L 379.070 690 439.500 690 L 499.930 690 503.453 686.907 C 509.108 681.942, 509.134 681.621, 508.803 621 L 508.500 565.500 506.171 562.235 C 501.842 556.165, 500.830 555.981, 470.257 555.708 C 454.991 555.571, 428.325 555.693, 411 555.980 M 547.676 555.886 L 523.852 556.500 519.926 560.711 L 516 564.923 516 622.593 C 516 679.404, 516.031 680.315, 518.097 683.656 C 522.158 690.227, 519.761 690, 585.082 690 C 642.673 690, 644.352 689.946, 647.526 687.984 C 654.138 683.897, 654 685.290, 654 622.747 L 654 566.296 651.750 562.990 C 646.847 555.786, 648.496 556.063, 608 555.647 C 587.925 555.441, 560.779 555.549, 547.676 555.886 M 720 555.916 C 664.579 556.557, 667.108 556.257, 662.863 562.695 C 659.969 567.083, 660.002 678.966, 662.898 683.359 C 667.499 690.337, 663.951 689.987, 730 689.990 C 796.479 689.993, 793.735 690.280, 797.543 682.918 C 800.112 677.949, 799.771 567.004, 797.172 562.555 C 792.741 554.968, 793.846 555.063, 720 555.916 M 823.262 556 C 814.176 556.492, 813.963 556.562, 810.262 560.267 L 806.500 564.033 806.500 623.088 L 806.500 682.144 810.711 686.072 L 814.923 690 874.511 690 C 940.270 690, 938.075 690.205, 942.040 683.701 C 945.080 678.717, 945.080 567.283, 942.040 562.299 C 937.842 555.412, 939.131 555.560, 883 555.528 C 855.225 555.513, 828.343 555.725, 823.262 556 M 1126.571 572.571 C 1124.098 575.045, 1124.297 663.337, 1126.792 670.203 C 1130.542 680.527, 1138.806 688.352, 1151.090 693.210 C 1155.725 695.043, 1159.114 695.412, 1174.750 695.785 L 1193 696.219 1193 690.143 C 1193 663.758, 1183.766 577.284, 1180.360 571.773 C 1179.333 570.112, 1128.274 570.869, 1126.571 572.571 M 387 623 L 387 673 439.500 673 L 492 673 492 623 L 492 573 439.500 573 L 387 573 387 623 M 533 623 L 533 673 585 673 L 637 673 637 623 L 637 573 585 573 L 533 573 533 623 M 678 623 L 678 673 730 673 L 782 673 782 623 L 782 573 730 573 L 678 573 678 623 M 823 623 L 823 673 875 673 L 927 673 927 623 L 927 573 875 573 L 823 573 823 623 M 970.667 573.667 C 970.300 574.033, 970.002 577.521, 970.005 581.417 L 970.010 588.500 972.255 585.769 C 976.324 580.820, 980.190 580, 999.468 580 L 1017 580 1017 576.500 L 1017 573 994.167 573 C 981.608 573, 971.033 573.300, 970.667 573.667 M 1034 576.439 L 1034 579.879 1052.750 580.189 C 1070.278 580.480, 1071.704 580.645, 1074.627 582.730 C 1081.392 587.556, 1081 580.412, 1081 698.901 C 1081 805.333, 1081.012 806, 1083 806 C 1084.989 806, 1085 805.333, 1085 689.500 L 1085 573 1059.500 573 L 1034 573 1034 576.439 M 985.200 597.200 C 984.290 598.110, 984 614.911, 984 666.700 L 984 735 987.340 735 C 992.279 735, 1005.081 738.501, 1010.871 741.435 C 1013.655 742.846, 1016.173 744, 1016.467 744 C 1016.760 744, 1017 710.700, 1017 670 L 1017 596 1001.700 596 C 991.133 596, 986.029 596.371, 985.200 597.200 M 1034 677.582 L 1034 759.163 1037.462 763.388 C 1044.696 772.217, 1050 787.370, 1050 799.210 L 1050 806 1056.918 806 C 1060.723 806, 1064.548 805.727, 1065.418 805.393 C 1066.846 804.845, 1067 794.889, 1067 702.958 C 1067 639.216, 1066.635 600.171, 1066.025 598.565 L 1065.050 596 1049.525 596 L 1034 596 1034 677.582 M 353 749.542 L 353 758.084 360.750 757.792 L 368.500 757.500 368.790 749.250 L 369.081 741 361.040 741 L 353 741 353 749.542 M 1174.709 741.744 L 1166.917 742.086 1167.209 749.793 L 1167.500 757.500 1180.250 757.780 L 1193 758.060 1193 749.530 L 1193 741 1187.750 741.201 C 1184.862 741.312, 1178.994 741.556, 1174.709 741.744 M 501.161 753.979 C 485.674 758.148, 474.034 767.772, 467.221 782.040 C 459.148 798.944, 459.184 811.114, 467.357 827.991 C 476.714 847.316, 501.219 859.648, 521.831 855.405 C 557.188 848.129, 575.212 810.930, 558.368 780 C 547.111 759.331, 522.636 748.198, 501.161 753.979 M 971.500 753.602 C 944.893 759.517, 926.014 786.515, 930.489 812.251 C 933.794 831.258, 946.099 846.404, 963.537 852.928 C 994.739 864.602, 1027.502 844.485, 1032.856 810.366 C 1037.957 777.866, 1003.935 746.391, 971.500 753.602 M 501.597 773.691 C 494.889 776.014, 485.922 784.455, 482.954 791.240 C 475.969 807.206, 483.239 827.504, 498.500 834.642 C 505.149 837.752, 520.233 837.986, 526.637 835.078 C 532.142 832.578, 538.492 826.719, 541.805 821.084 C 545.526 814.755, 545.845 796.012, 542.345 789.475 C 539.611 784.371, 531.086 776.353, 526.229 774.318 C 520.600 771.959, 507.555 771.627, 501.597 773.691 M 970.332 773.791 C 947.491 781.950, 941.442 811.514, 959.016 829.106 C 970.887 840.990, 995.393 839.705, 1006.601 826.611 C 1017.323 814.085, 1016.212 791.902, 1004.312 780.934 C 995.418 772.735, 981.487 769.807, 970.332 773.791 M 507.382 790.479 C 497.184 795.120, 494.658 807.858, 502.400 815.600 C 514.371 827.571, 533.189 814.355, 526.606 798.600 C 523.618 791.449, 514.092 787.425, 507.382 790.479 M 975 791.222 C 961.369 798.388, 964.385 817.227, 979.651 820.280 C 983.810 821.112, 990.766 817.580, 993.718 813.138 C 1002.356 800.138, 988.624 784.060, 975 791.222 M 578.164 829.465 C 575.482 836.941, 569.842 846.046, 563.897 852.496 L 559.745 857 747.217 857 L 934.688 857 929.835 851.750 C 924.804 846.308, 916.736 831.925, 915.531 826.250 L 914.841 823 747.662 823 L 580.482 823 578.164 829.465" stroke="none" fill="#1D5F3A" fill-rule="evenodd"/>
</svg>