<svg xmlns="http://www.w3.org/2000/svg" width="1000" height="434" viewBox="-296.3 30.8 2127.5 923.3">
	<path d="M 787.668 85.504 C 754.472 90.906, 726.316 107.392, 706.546 133 C 687.061 158.240, 682.060 192.632, 693.870 220.168 L 695.729 224.500 690.884 234.193 C 684.598 246.770, 677.146 265.232, 676.352 270.199 C 675.091 278.088, 684.606 283.242, 689.944 277.560 C 691.205 276.218, 693.331 271.830, 694.670 267.810 C 696.009 263.789, 699.739 255.022, 702.959 248.326 L 708.813 236.151 718.157 239.159 C 778.574 258.606, 834.880 226.397, 858.288 159 C 863.795 143.143, 869.391 116.440, 870.652 100 C 871.439 89.734, 870.188 88.580, 855.937 86.425 C 841.011 84.169, 799.331 83.606, 787.668 85.504 M 790.018 102.580 C 736.639 112.311, 700.059 151.894, 704.962 194.617 C 706.522 208.213, 706.356 208.170, 715.367 197.326 C 730.562 179.042, 753.413 161.125, 774.528 150.940 C 786.310 145.257, 789.245 144.903, 793.195 148.687 C 799.090 154.334, 796.410 159.306, 784.449 164.911 C 765.287 173.891, 749.323 185.494, 734.483 201.231 C 726.654 209.532, 719 219.368, 719 221.127 C 719 221.487, 722.487 222.717, 726.750 223.862 C 778.279 237.698, 823.325 210.083, 841.956 153.234 C 847.190 137.264, 854.218 104.885, 852.766 103.433 C 850.342 101.009, 802.224 100.355, 790.018 102.580 M 897.589 164.077 C 891.971 170.753, 895.785 175.543, 910.282 180.020 C 926.539 185.040, 952.109 195.510, 970.158 204.536 C 1086.200 262.568, 1167.171 368.755, 1192.409 496 C 1200.258 535.571, 1202.803 577.281, 1199.369 610.047 C 1198.324 620.020, 1206.604 625.712, 1213.485 619.750 C 1215.868 617.685, 1216.159 616.555, 1217.025 606 C 1223.583 526.004, 1202.860 434.905, 1161.746 363 C 1107.883 268.797, 1018.088 195.427, 918.928 164.598 C 904.318 160.055, 901.040 159.975, 897.589 164.077 M 623 166.466 C 535.349 192.168, 460.133 245.670, 400.830 324.500 C 348.229 394.420, 318 486.490, 318 576.778 C 318 601.621, 319.605 615.890, 322.778 619.250 C 326.192 622.866, 330.759 622.950, 334.039 619.459 L 336.427 616.917 336.473 580.209 C 336.523 540.607, 337.554 527.503, 342.627 502 C 346.009 485.003, 353.099 457.944, 357.825 444 C 399.677 320.516, 503.751 219.627, 626.500 183.548 C 644.883 178.145, 649.300 173.147, 642.077 165.923 C 638.428 162.274, 637.174 162.310, 623 166.466 M 634.718 332.070 C 607.309 336.417, 585.222 347.043, 566.919 364.687 C 544.633 386.171, 534.487 407.913, 531.540 440.500 C 528.392 475.323, 523.661 538.433, 521.495 574.500 C 521.198 579.450, 520.307 592.950, 519.515 604.500 C 513.521 691.888, 513.277 717.320, 518.047 757.488 C 521.975 790.568, 526.663 802.710, 541.347 817.839 C 550.842 827.622, 566.576 836.956, 573.671 837.015 C 576.741 837.041, 577.665 838.296, 578.342 843.358 C 578.966 848.030, 578.829 848.398, 574.746 852.982 C 572.411 855.604, 566.451 863.820, 561.502 871.240 L 552.503 884.730 449.313 884.620 L 346.122 884.509 343.061 887.442 C 339.117 891.220, 338.986 895.332, 342.687 899.195 L 345.374 902 768 902 L 1190.626 902 1193.313 899.195 C 1196.684 895.676, 1196.856 891.100, 1193.750 887.512 L 1191.500 884.913 1083.276 884.683 C 1014.476 884.536, 974.725 884.097, 974.154 883.476 C 973.661 882.939, 969.077 876.200, 963.968 868.500 C 958.859 860.800, 953.234 853.122, 951.468 851.439 C 948.500 848.608, 948.294 847.996, 948.741 843.343 L 949.225 838.308 957.226 835.996 C 977.330 830.187, 996.204 810.848, 1003.424 788.661 C 1010.966 765.482, 1014.292 710.188, 1011.162 660 C 1010.493 649.275, 1008.831 622.050, 1007.468 599.500 C 1000.659 486.824, 997.289 438.405, 995.399 426.114 C 987.773 376.515, 948.985 339.414, 896.500 331.516 C 879.725 328.992, 651.073 329.476, 634.718 332.070 M 646.572 348.128 C 605.638 352.063, 573.810 372.691, 558.514 405.201 C 550.863 421.461, 549.623 429.078, 545.515 485 C 544.646 496.825, 543.294 514.825, 542.511 525 C 541.727 535.175, 540.309 555.912, 539.359 571.082 L 537.631 598.664 542.453 607.082 C 569.263 653.887, 621.544 704.004, 667.207 726.669 C 690.217 738.091, 697.275 738.994, 763.500 738.994 C 828.151 738.994, 836.616 738.046, 856.633 728.564 C 901.760 707.187, 954.559 657.348, 983.997 608.338 L 989.524 599.137 988.349 578.319 C 987.102 556.242, 984.624 515.406, 983.019 490.500 C 982.487 482.250, 981.585 467.400, 981.013 457.500 C 980.442 447.600, 979.248 435.225, 978.360 430 C 970.388 383.103, 936.181 352.953, 885.332 348.008 C 873.139 346.822, 659.041 346.930, 646.572 348.128 M 704 360.004 C 679.823 361.458, 670.947 364.539, 659.917 375.308 C 654.642 380.458, 647.985 391.396, 646.642 397.118 L 646.028 399.735 630.264 400.271 C 606.402 401.081, 596.267 404.601, 584.742 416.078 C 577.306 423.484, 572.775 431.694, 570.985 441.004 C 569.447 449.002, 572.850 588.321, 575.070 608.275 C 578.163 636.062, 598.054 656.759, 625.765 661.023 C 630.233 661.710, 677.951 661.965, 767.500 661.780 L 902.500 661.500 910.098 658.905 C 929.868 652.151, 945.729 634.463, 949.469 615 C 950.384 610.238, 951.476 591.254, 952.460 563 C 953.313 538.525, 954.510 505.900, 955.119 490.500 C 956.780 448.534, 956.296 438.205, 952.268 429.688 C 947.771 420.177, 938.905 411.157, 929.666 406.693 C 919.546 401.803, 914.524 400.768, 897.635 400.094 L 882.771 399.500 880.745 394 C 873.067 373.159, 857.332 362.519, 830.500 360.024 C 818.451 358.904, 722.547 358.888, 704 360.004 M 701.500 377.646 C 681.801 379.070, 672.140 383.870, 666.476 395.047 L 663.966 400 763.983 400 C 818.992 400, 864 399.757, 864 399.460 C 864 395.584, 855.926 385.520, 850.624 382.786 C 840.892 377.768, 839.894 377.701, 771 377.486 C 735.525 377.375, 704.250 377.448, 701.500 377.646 M 613.773 419.555 C 601.633 422.498, 594.985 427.497, 590.573 437 C 588.064 442.404, 588.019 442.911, 588.014 466 C 588.003 513.503, 591.483 603.862, 593.655 612.500 C 597.487 627.737, 607.312 637.654, 623.530 642.658 C 629.203 644.408, 636.162 644.500, 763.500 644.500 L 897.500 644.500 903.962 642.168 C 917.145 637.411, 923.981 631.547, 929.084 620.623 C 932.692 612.899, 933.588 604.702, 934.945 567 C 935.510 551.325, 936.460 525.225, 937.057 509 C 939.049 454.888, 938.889 442.361, 936.130 436.258 C 932.001 427.124, 923.666 421.334, 911.378 419.062 C 901.879 417.306, 621.132 417.771, 613.773 419.555 M 534.123 650.578 C 530.790 707.011, 532.418 748.488, 539.090 777.096 C 544.085 798.517, 556.348 812.945, 574.928 819.265 L 581.500 821.500 758.500 821.793 C 877.633 821.990, 938.094 821.744, 943.434 821.039 C 960.267 818.820, 974.071 808.930, 982.333 793.170 C 992.751 773.297, 996.978 723.854, 993.505 662.500 C 992.695 648.200, 992.025 634.989, 992.016 633.142 C 992.001 629.938, 991.627 630.281, 983.841 640.642 C 946.235 690.686, 889.435 737.206, 849.706 750.500 C 833.435 755.945, 829.975 756.146, 759 755.778 L 694.500 755.443 684.587 752.738 C 640.640 740.745, 571.281 684.046, 536.930 632.033 C 535.460 629.808, 535.280 631.001, 534.123 650.578 M 561.840 726.887 C 552.904 732.554, 551.049 742.372, 555.710 759.342 C 557.575 766.129, 564.671 774.706, 571.403 778.308 C 577.601 781.624, 638.203 781.732, 642.619 778.435 C 648.951 773.708, 651.415 769.347, 651.822 762.148 C 652.346 752.868, 649.914 747.985, 640.291 738.998 C 626.482 726.103, 619.173 724, 588.147 724 L 566.392 724 561.840 726.887 M 909 725.603 C 901.780 727.535, 894.085 732.181, 886.555 739.154 C 873.043 751.668, 871.613 766.093, 882.876 776.269 C 888.201 781.080, 888.989 781.171, 922.500 780.811 C 955.833 780.454, 955.401 780.556, 964.602 770.827 C 971.391 763.649, 973.476 757.573, 973.490 744.925 C 973.502 733.917, 971.429 729.790, 963.982 725.991 C 958.888 723.392, 918.332 723.106, 909 725.603 M 571.244 747.454 C 571.867 755.207, 574.323 759.872, 579.034 762.248 C 583.731 764.618, 631.989 764.923, 633.921 762.596 C 635.798 760.334, 634.129 756.374, 629.500 752.107 C 619.743 743.114, 611.976 741, 588.682 741 L 570.726 741 571.244 747.454 M 914.500 742.402 C 903.405 745.920, 893 754.344, 893 759.810 C 893 764.125, 893.429 764.183, 922.576 763.815 C 950.133 763.467, 950.630 763.358, 953.695 757.009 C 954.627 755.079, 955.579 750.688, 955.811 747.250 L 956.233 741 937.366 741.067 C 925.076 741.110, 917.106 741.576, 914.500 742.402 M 733.500 768.565 C 716.496 777.366, 715.082 800.380, 730.864 811.472 L 735.172 814.500 764 814.500 L 792.828 814.500 797.140 811.469 C 810.330 802.199, 811.476 782.649, 799.448 772.088 C 793.827 767.153, 792.747 767, 763.685 767.006 C 741.074 767.011, 735.995 767.274, 733.500 768.565 M 739 786 C 736.733 788.267, 736.381 792.771, 738.268 795.351 C 739.758 797.390, 773.087 798.862, 782.993 797.326 C 790.695 796.132, 793.286 790.429, 788.363 785.506 C 785.729 782.872, 741.687 783.313, 739 786 M 595.780 840.160 C 595.567 840.798, 595.581 842.598, 595.810 844.160 L 596.227 847 763.507 847 C 946.854 847, 932 847.492, 932 841.418 L 932 839 764.083 839 C 637.589 839, 596.071 839.286, 595.780 840.160 M 580.154 874.500 L 574.075 884 578.788 884.019 C 581.379 884.029, 590.832 884.085, 599.793 884.143 C 608.754 884.201, 616.239 884.080, 616.427 883.874 C 616.615 883.668, 618.851 879.337, 621.395 874.250 L 626.020 865 606.126 865 L 586.232 865 580.154 874.500 M 640.758 874.541 C 637.787 880.468, 636.480 884.047, 637.258 884.127 C 646.090 885.028, 890.998 884.566, 890.989 883.649 C 890.984 883.017, 889.022 878.675, 886.629 874 L 882.280 865.500 763.890 865.291 L 645.500 865.083 640.758 874.541 M 907 875 L 912.018 885 930.259 884.900 C 955.518 884.762, 954.342 885.508, 947.058 874.250 L 941.074 865 921.528 865 L 901.982 865 907 875" stroke="none" fill="#1D5F3A" fill-rule="evenodd"/>
</svg>