<svg xmlns="http://www.w3.org/2000/svg" width="1000" height="500" viewBox="-296.3 -56.6 2122.5 1061.3">
	<path d="M 807.500 50.698 C 792.232 52.079, 767.524 59.154, 753.698 66.104 C 728.116 78.964, 707.121 100.483, 698.088 123.102 C 689.104 145.596, 688.249 163.532, 695.123 185.247 L 698.209 194.995 691.639 208.247 C 676.147 239.495, 674.685 249.028, 684.917 252.093 C 689.241 253.389, 695.606 251.327, 696.641 248.295 C 700.624 236.624, 712.227 210.596, 713.912 209.555 C 714.302 209.313, 719.499 210.664, 725.461 212.556 C 749.263 220.109, 769.287 219.341, 792.745 209.974 C 833.813 193.575, 859.127 155.203, 870.902 91.500 C 877.657 54.951, 876.867 53.123, 853.415 51.066 C 842.271 50.088, 816.523 49.882, 807.500 50.698 M 805.500 71.650 C 744.999 79.752, 703.486 123.529, 711.815 170.444 L 712.516 174.388 714.432 171.444 C 721.364 160.794, 750.323 134.907, 765.576 125.725 C 787.148 112.738, 797.900 111.496, 800.460 121.696 C 801.923 127.524, 799.447 130.806, 790.314 135.145 C 770.204 144.699, 746.700 163.527, 731.835 181.989 C 728.076 186.658, 725 190.739, 725 191.057 C 725 191.880, 734.440 194.683, 741.434 195.937 C 785.115 203.765, 825.749 174.745, 842.350 123.866 C 847.247 108.859, 854.736 73.457, 853.322 72 C 852.736 71.396, 809.748 71.081, 805.500 71.650 M 616.322 152.484 C 508.016 182.063, 414.075 247.700, 347.944 340 C 298.777 408.621, 268.354 493.094, 261.924 578.843 C 260.006 604.412, 261.114 609.345, 269.060 610.613 C 278.648 612.142, 281.191 607.987, 282.182 589.176 C 286.927 499.033, 317.743 415.052, 373.064 341.500 C 435.236 258.840, 531.941 193.786, 626.662 170.904 C 640.529 167.554, 643.572 165.798, 644.551 160.580 C 645.686 154.530, 641.966 149.613, 635.448 148.547 C 633.695 148.261, 625.944 149.856, 616.322 152.484 M 898.020 149.221 C 894.541 151.070, 892.839 154.807, 893.385 159.397 C 894.081 165.244, 896.188 166.572, 911 170.495 C 945.405 179.606, 983.236 195.524, 1018.112 215.564 C 1147.972 290.182, 1231.939 418.413, 1247.486 565.857 C 1248.319 573.753, 1249.001 583.428, 1249.002 587.357 C 1249.004 599.060, 1253.624 605.044, 1261.514 603.563 C 1270.286 601.918, 1271.370 596.455, 1268.574 567.991 C 1255.456 434.437, 1190.092 316.416, 1083.500 233.822 C 1039.094 199.413, 983.200 170.812, 927.500 153.996 C 908.688 148.317, 901.816 147.204, 898.020 149.221 M 734.071 434.752 C 727.938 437.879, 726.538 440.914, 726.198 451.820 C 725.833 463.507, 727.364 467.209, 734.013 470.725 C 738.176 472.927, 739.170 473, 764.923 473 C 794.585 473, 796.811 472.566, 799.958 466.177 C 801.675 462.690, 807.252 461.791, 812.453 464.161 C 815.614 465.601, 815.611 465.698, 812.250 470.648 C 786.501 508.573, 786.192 509.794, 795.762 535.927 L 800.678 549.354 798.671 554.105 L 796.664 558.856 800.740 570.364 L 804.817 581.873 798.107 593.687 C 781.317 623.251, 750.720 669.473, 734.675 689.512 C 716.468 712.252, 701.183 725.866, 683.460 735.127 C 675.101 739.496, 675.091 739.498, 672.297 737.689 C 667.401 734.520, 659.671 731.129, 654.089 729.701 L 648.678 728.317 634.290 687.909 C 626.376 665.684, 616.936 638.725, 613.312 628 C 608.681 614.296, 605.908 607.608, 603.983 605.500 C 602.404 603.771, 600.071 598.899, 598.475 594 C 596.953 589.325, 595.502 584.944, 595.252 584.264 C 594.577 582.430, 598.939 581.122, 614.541 578.477 C 631.345 575.629, 631.614 575.543, 635.791 571.620 C 647.046 561.048, 640.399 540.858, 624 535.805 C 615.711 533.251, 532.575 533.724, 526.500 536.359 C 519.769 539.279, 514.207 545.589, 511.965 552.848 C 509.494 560.850, 509.509 562.157, 512.174 570.056 C 517.352 585.404, 534.534 594.873, 555.333 593.842 L 562.222 593.500 566.027 603.841 C 569.199 612.461, 569.665 614.663, 568.827 617.067 C 568.037 619.333, 568.295 621.377, 570.028 626.585 L 572.236 633.219 564.490 641.010 L 556.744 648.802 548.997 643.058 C 509.873 614.049, 450.678 608.495, 408.240 629.851 C 406.183 630.887, 401.125 632.039, 397 632.413 C 386.524 633.361, 380.440 635.560, 375.994 640.006 C 372.513 643.487, 368 652.874, 368 656.633 C 368 657.490, 367.096 659.460, 365.992 661.011 C 363.334 664.743, 362.527 669.204, 363.831 672.944 C 364.824 675.795, 364.499 676.511, 358.696 684.244 C 351.160 694.286, 344.234 707.960, 339.573 722 C 320.795 778.562, 342.765 844.067, 391.287 876.190 L 395.461 878.953 335.753 879.227 L 276.044 879.500 273.272 882.273 C 269.592 885.954, 269.349 892.794, 272.778 896.222 L 275.056 898.500 767 898.500 L 1258.944 898.500 1261.004 896.440 C 1263.548 893.897, 1264.518 888.428, 1263.087 884.702 C 1261.223 879.847, 1257.279 879, 1236.532 879 L 1218 879 1217.978 874.250 C 1217.929 863.691, 1212.368 858, 1202.099 858 L 1197 858 1197 713.136 C 1197 618.784, 1196.644 566.396, 1195.979 562.891 C 1192.768 545.959, 1181.060 533.042, 1164.374 528.024 C 1157.704 526.018, 1155.501 525.901, 1129.874 526.203 C 1098.691 526.570, 1095.763 527.180, 1085.656 535.415 C 1071.995 546.547, 1069.666 552.975, 1066.419 588.500 C 1059.155 667.979, 1059.009 672.425, 1059.002 814.250 L 1059 858 1054.750 858.002 C 1045.666 858.005, 1039 865.078, 1039 874.712 L 1039 879 1009.261 879 L 979.521 879 986.447 874.354 C 1034.072 842.405, 1055.668 776.206, 1036.464 721.033 C 1023.921 684.999, 1001.349 658.666, 969.179 642.536 C 941.161 628.488, 908.863 624.454, 881.500 631.584 C 876 633.017, 870.551 634.412, 869.391 634.684 C 867.577 635.110, 867.114 634.504, 866.073 630.340 C 865.407 627.678, 863.798 624.375, 862.495 623 C 861.193 621.625, 859.672 619.295, 859.116 617.823 L 858.105 615.146 861.580 616.598 C 864.502 617.819, 873.765 618.006, 919.856 617.775 L 974.659 617.500 979.531 614.487 C 986.302 610.300, 987.140 608.382, 993.064 583.500 C 995.946 571.400, 1001.306 549.125, 1004.977 534 C 1011.448 507.336, 1011.608 506.370, 1010.222 502.222 C 1007.495 494.059, 1012.854 494.565, 923.110 494 L 843.720 493.500 842.354 489 C 841.602 486.525, 839.588 479.100, 837.878 472.500 C 834.260 458.534, 833.054 455.831, 828.181 450.744 C 823.502 445.860, 815.849 443, 807.462 443 C 802.794 443, 801 442.636, 801 441.687 C 801 439.861, 796.072 435.343, 792.685 434.064 C 787.472 432.094, 738.147 432.673, 734.071 434.752 M 819.553 495.345 C 813.656 503.657, 810 510.441, 810 513.071 C 810 515.203, 818.335 540.668, 819.372 541.705 C 819.515 541.849, 821.045 541.561, 822.772 541.065 C 827.797 539.624, 834 543.267, 836.283 549 C 837.269 551.475, 837.908 552.600, 837.703 551.500 C 836.800 546.638, 826.483 504.808, 824.592 498.345 L 822.500 491.191 819.553 495.345 M 850.645 521.250 C 851.440 524.688, 853.083 531.550, 854.296 536.500 L 856.500 545.500 869.896 545.780 L 883.293 546.060 882.634 537.780 C 882.271 533.226, 881.693 526.237, 881.349 522.250 L 880.724 515 864.961 515 L 849.198 515 850.645 521.250 M 901.336 521.750 C 901.678 525.462, 902.259 532.438, 902.627 537.250 L 903.295 546 917.049 546 L 930.803 546 931.421 534.250 C 931.761 527.788, 932.212 520.813, 932.424 518.750 L 932.810 515 916.761 515 L 900.713 515 901.336 521.750 M 952.676 515.750 C 952.434 516.163, 951.910 523.138, 951.513 531.250 L 950.792 546 966.212 546 L 981.632 546 984.885 532.750 C 986.674 525.462, 988.381 518.487, 988.678 517.250 L 989.217 515 971.167 515 C 961.240 515, 952.919 515.337, 952.676 515.750 M 1106.236 546.948 C 1097.909 549.002, 1089.820 557.872, 1088.613 566.272 C 1088.279 568.597, 1086.892 583.550, 1085.531 599.500 C 1084.171 615.450, 1082.821 630.750, 1082.532 633.500 C 1082.015 638.417, 1082.029 638.449, 1083.386 635.415 C 1084.144 633.719, 1085.943 631.404, 1087.382 630.271 L 1090 628.212 1090 610.788 C 1090 590.026, 1091.109 585.006, 1097.146 578.458 C 1103.345 571.732, 1106.281 571.046, 1130.500 570.658 C 1155.666 570.255, 1161.398 571.378, 1167.248 577.852 C 1173.659 584.949, 1174.143 587.636, 1173.803 614.212 C 1173.361 648.707, 1175.530 646.996, 1132.250 646.998 L 1102 647 1102 752.500 L 1102 858 1139.500 858 L 1177 858 1177 713.182 C 1177 551.539, 1177.448 561.794, 1170.048 554.169 C 1162.647 546.543, 1162.551 546.522, 1134.500 546.322 C 1120.750 546.223, 1108.031 546.505, 1106.236 546.948 M 535.186 554.132 C 525.245 557.857, 530.872 570.378, 543.682 573.038 C 552.999 574.972, 561.341 573.625, 581.095 566.995 C 597.107 561.622, 612.220 558, 618.631 558 C 621.230 558, 621.698 556.824, 619.745 555.203 C 618.360 554.054, 538.107 553.038, 535.186 554.132 M 819.561 565.250 C 819.944 566.487, 822.246 573.125, 824.676 580 C 827.106 586.875, 831.645 599.857, 834.764 608.849 C 837.882 617.841, 840.605 624.684, 840.815 624.054 C 841.328 622.517, 820.730 563, 819.686 563 C 819.235 563, 819.179 564.013, 819.561 565.250 M 864.910 581.996 L 868.500 597.992 877.893 597.996 L 887.286 598 886.622 587.750 C 886.257 582.112, 885.684 574.913, 885.350 571.750 L 884.742 566 873.031 566 L 861.320 566 864.910 581.996 M 905.354 572.250 C 905.676 575.688, 906.232 582.888, 906.589 588.250 L 907.238 598 917.506 598 L 927.775 598 928.459 583.750 C 928.835 575.913, 929.366 568.712, 929.639 567.750 C 930.092 566.149, 929.053 566, 917.451 566 L 904.767 566 905.354 572.250 M 949.600 570.250 C 949.313 572.587, 948.802 579.788, 948.466 586.250 L 947.856 598 958.369 598 C 964.151 598, 969.097 597.653, 969.359 597.229 C 969.621 596.804, 971.245 590.392, 972.968 582.979 C 974.691 575.565, 976.333 568.712, 976.618 567.750 C 977.092 566.144, 976.022 566, 963.629 566 L 950.123 566 949.600 570.250 M 1111.220 592.180 C 1110.357 593.043, 1110 598.317, 1110 610.200 L 1110 627 1132.023 627 L 1154.046 627 1153.773 609.250 L 1153.500 591.500 1132.970 591.230 C 1117.843 591.032, 1112.118 591.282, 1111.220 592.180 M 808.469 615.250 C 762.975 691.395, 727.820 733.695, 695.575 751.088 C 689.610 754.305, 688.027 755.606, 688.541 756.870 C 688.906 757.766, 689.675 759.850, 690.251 761.500 C 690.826 763.150, 691.423 764.656, 691.578 764.846 C 692.251 765.676, 704.454 758.315, 713.092 751.869 C 737.582 733.593, 759.147 707.619, 797.290 650.453 L 818.006 619.407 815.911 613.203 C 814.759 609.791, 813.722 607, 813.607 607 C 813.492 607, 811.180 610.712, 808.469 615.250 M 590 624.881 C 590 625.365, 591.147 628.810, 592.550 632.536 C 593.952 636.262, 596.846 644.303, 598.980 650.405 C 601.114 656.507, 605.172 667.800, 607.997 675.500 C 610.823 683.200, 615.866 697.150, 619.204 706.500 C 627.224 728.966, 626.982 728.351, 627.556 727.778 C 627.831 727.503, 624.247 716.528, 619.593 703.389 C 614.939 690.250, 606.714 667.019, 601.316 651.764 C 592.834 627.796, 590 621.064, 590 624.881 M 455.179 637.050 C 444.201 638.090, 429.987 641.699, 419.237 646.174 C 411.991 649.190, 390.368 662.701, 391.298 663.631 C 391.534 663.867, 396.193 665.142, 401.652 666.464 C 436.730 674.957, 463.780 693.804, 480.324 721.278 L 483.585 726.693 503.713 705.096 C 514.784 693.218, 528.151 678.929, 533.417 673.342 L 542.992 663.183 536.187 658.139 C 514.417 642, 484.667 634.255, 455.179 637.050 M 847.245 642.828 C 845.297 644.064, 861.084 685.814, 872.625 709.948 C 883.076 731.802, 904.355 765.361, 908.627 766.725 C 911.654 767.691, 910.726 763.658, 907.125 760.199 C 890.364 744.099, 870.238 704.635, 854.380 656.772 C 851.696 648.672, 849.275 642.041, 849 642.037 C 848.725 642.034, 847.935 642.389, 847.245 642.828 M 809 668.165 C 766.953 732.094, 736.728 764.539, 704.250 780.610 C 696.374 784.508, 693 786.698, 693 787.913 C 693 791.268, 688.110 803.979, 685.189 808.217 C 681.544 813.505, 672.126 822.508, 669.300 823.405 C 667.262 824.052, 667.248 824.200, 668.766 828.946 L 670.325 833.823 680.145 834.161 C 689.680 834.490, 690.059 834.594, 693.183 837.720 C 697.277 841.816, 698.306 851.175, 695.304 857 C 691.902 863.600, 689.564 864.087, 662.767 863.776 L 639.035 863.500 635.925 860.388 C 633.384 857.846, 632.681 856.145, 632.086 851.097 C 630.788 840.091, 635.582 834, 645.541 834 C 648.435 834, 649.081 833.655, 648.813 832.250 C 648.543 830.832, 647.061 830.394, 640.990 829.941 C 626.254 828.842, 616.276 823.681, 603.992 810.805 L 596.410 802.858 594.581 808.679 C 587.419 831.474, 569.748 855.773, 548.930 871.456 L 538.914 879 688.207 878.996 L 837.500 878.991 833.373 876.246 C 793.622 849.802, 769.456 798.177, 774.909 751.350 C 779.174 714.723, 796.373 682.457, 824.107 659.056 L 829.714 654.325 827.607 648.702 L 825.500 643.079 809 668.165 M 1080.560 651.750 C 1080.224 655.462, 1079.702 703.388, 1079.399 758.250 C 1078.900 848.617, 1078.996 858, 1080.424 858 C 1081.849 858, 1082 847.779, 1082 751.500 C 1082 692.925, 1081.813 645, 1081.585 645 C 1081.357 645, 1080.896 648.038, 1080.560 651.750 M 893.500 648.997 C 880.568 651.320, 874 653.309, 874.015 654.899 C 874.051 658.637, 875.343 658.995, 881.674 657.024 C 904.319 649.977, 934.856 653.347, 959.160 665.578 C 997.954 685.100, 1022.687 729.010, 1018.973 771.768 C 1013.040 840.069, 948.087 887.786, 883.279 871.454 C 844.903 861.783, 816.001 834.961, 804.129 798 C 791.497 758.670, 802.503 714.020, 832.013 684.884 C 838.083 678.891, 838.604 678.063, 837.546 676.086 C 834.983 671.297, 812.654 698.538, 804.529 716.367 C 772.704 786.203, 817.409 868.039, 892.887 878.111 C 991.363 891.253, 1059.345 782.131, 1004.292 699.289 C 989.256 676.664, 962.426 657.408, 937 650.994 C 927.426 648.579, 902.259 647.424, 893.500 648.997 M 582.602 672.894 L 579.800 675.818 585.435 685.261 C 592.063 696.369, 596.339 706.090, 600.056 718.500 C 602.316 726.046, 603.113 727.554, 604.987 727.834 C 606.216 728.018, 606.988 727.789, 606.702 727.326 C 606.415 726.863, 601.813 714.338, 596.474 699.492 C 584.664 666.657, 586.044 669.301, 582.602 672.894 M 900 673.648 C 894.676 674.447, 885.422 676.137, 883.825 676.600 C 881.428 677.297, 883.098 681.710, 894.437 704.653 C 905.085 726.197, 915.302 742.223, 920.959 746.251 C 928.260 751.450, 931.613 762.629, 928.595 771.714 C 924.540 783.922, 911.096 789.366, 899.446 783.516 C 888.202 777.871, 862.244 737.359, 848.964 704.731 C 846.183 697.899, 845.894 697.924, 839.731 705.549 C 809.048 743.505, 812.377 798.112, 847.358 830.646 C 865.030 847.082, 883.743 854.265, 909 854.309 C 929.087 854.343, 942.068 850.456, 958.500 839.484 C 1016.275 800.908, 1011.851 714.939, 950.466 683.348 C 935.167 675.475, 914.407 671.484, 900 673.648 M 379.921 689.180 C 356.934 716.753, 347.871 752.901, 355.060 788.343 C 364.608 835.412, 402.834 871.307, 450.467 877.932 C 504.852 885.496, 554.155 856.337, 575.406 804.040 C 578.552 796.296, 578.549 796.799, 575.449 797.184 C 573.249 797.456, 572.307 798.895, 568.595 807.647 C 550.100 851.251, 503.388 879.087, 456.938 874.184 C 382.906 866.369, 337.994 792.709, 365.054 723.483 C 369.935 710.996, 377.348 698.839, 385.199 690.446 C 388.787 686.611, 390.608 684, 389.696 684 C 388.853 684, 387.495 683.743, 386.677 683.430 C 385.694 683.052, 383.405 685.001, 379.921 689.180 M 409.340 694.843 C 365.131 729.949, 366.455 801.726, 411.946 836.196 C 420.752 842.868, 436.807 850.634, 446 852.667 C 455.968 854.872, 477.849 854.888, 487.787 852.698 C 502.844 849.380, 521.149 838.817, 532.640 826.815 C 542.567 816.446, 554.938 795.554, 551.751 794.540 C 551.063 794.321, 533.186 792.720, 512.024 790.982 C 458.492 786.585, 456.432 786.104, 450.588 776.651 C 442.542 763.637, 449.198 746.697, 463.830 742.947 C 466.674 742.218, 469 741.351, 469 741.019 C 469 740.688, 466.790 736.835, 464.089 732.458 C 454.872 717.520, 440.810 704.362, 424.650 695.553 C 414.581 690.065, 415.315 690.099, 409.340 694.843 M 546.751 711.232 C 536.439 722.288, 528.150 731.484, 528.332 731.665 C 528.514 731.847, 536.951 731.317, 547.081 730.488 C 557.211 729.658, 569.385 728.723, 574.134 728.410 L 582.768 727.840 581.043 722.170 C 578.207 712.848, 567.671 690.900, 566.111 691.064 C 565.775 691.099, 557.063 700.175, 546.751 711.232 M 563 749.043 C 537.566 750.321, 486.730 756.660, 472.581 760.318 C 461.879 763.084, 464.368 767.359, 477.237 768.315 C 481.782 768.652, 495.400 769.837, 507.500 770.947 C 604.296 779.826, 600.989 779.059, 617.897 796.523 C 627.574 806.519, 632.874 809.938, 638.750 809.978 C 644.631 810.018, 642.534 806.957, 635 804.504 C 617.368 798.763, 611.311 775.645, 623.806 761.783 C 637.116 747.019, 660.862 751.652, 667.869 770.381 C 671.378 779.759, 669.682 789.506, 663.230 797.044 C 660.753 799.938, 660.037 801.541, 660.529 803.091 C 661.170 805.112, 661.343 805.061, 664.688 801.850 C 677.112 789.925, 677.006 768.634, 664.464 757.074 C 654.932 748.288, 656.228 748.515, 615 748.382 C 594.925 748.317, 571.525 748.614, 563 749.043 M 639 775 C 636.501 777.499, 636.416 782.161, 638.829 784.345 C 641.256 786.542, 646.283 786.450, 648.345 784.171 C 653.807 778.136, 644.751 769.249, 639 775 M 1093.823 878.750 C 1113.251 878.902, 1144.751 878.901, 1163.823 878.749 C 1182.895 878.598, 1167 878.473, 1128.500 878.473 C 1090 878.474, 1074.395 878.598, 1093.823 878.750" stroke="none" fill="#1D5F3A" fill-rule="evenodd"/>
</svg>