<svg xmlns="http://www.w3.org/2000/svg" width="1000" height="500" viewBox="-317.8 -70.4 2137.5 1068.8">
	<path d="M 782.500 38.982 C 729.520 48.616, 693.976 78.587, 682.967 122.909 C 678.823 139.593, 679.547 153.497, 685.466 170.899 L 687.934 178.156 681.602 191.328 C 667.075 221.545, 665.463 230.207, 673.725 233.658 C 680.707 236.576, 686.507 233.479, 689.007 225.500 C 690.592 220.440, 699.763 199.576, 702.328 195.194 C 703.701 192.848, 704.734 192.079, 705.882 192.546 C 732.576 203.419, 760.244 202.949, 785.325 191.195 C 826.644 171.832, 850.434 129.926, 859.427 60.662 C 861.737 42.869, 859.392 39.760, 842.306 37.962 C 827.015 36.353, 793.845 36.919, 782.500 38.982 M 796 57.666 C 740.434 63.150, 700.711 99.085, 701.117 143.500 C 701.162 148.450, 701.503 153.588, 701.875 154.917 L 702.551 157.334 704.455 154.417 C 707.398 149.906, 727.728 129.365, 735.112 123.440 C 749.674 111.756, 772.868 98.667, 779.009 98.667 C 783.211 98.667, 786.766 101.488, 788.077 105.863 C 789.970 112.182, 788.105 114.648, 776.996 120.515 C 758.276 130.401, 743.445 141.427, 730.863 154.815 C 722.020 164.224, 714.492 173.825, 715.314 174.647 C 717.139 176.472, 730.850 179.222, 740.552 179.708 C 760.418 180.703, 776.708 175.491, 792.174 163.190 C 815.764 144.428, 827.990 120.229, 836.476 75.500 L 839.701 58.500 834.600 57.849 C 829.353 57.179, 802.234 57.050, 796 57.666 M 609.500 133.943 C 587.928 139.036, 554.444 149.920, 538.500 157.020 C 509.368 169.994, 503.255 173.021, 484.861 183.582 C 381.900 242.697, 300.879 340.615, 263.178 451.500 C 247.538 497.500, 236.879 555.504, 238.144 587.735 C 238.641 600.387, 243.142 604.474, 252.345 600.629 C 257.298 598.560, 257.875 596.564, 258.991 577.632 C 266.422 451.595, 327.272 333.279, 427.960 249.093 C 482.948 203.117, 543.527 171.776, 609.980 154.924 C 632.056 149.326, 633.500 148.502, 633.500 141.495 C 633.500 131.662, 627.353 129.728, 609.500 133.943 M 886 132.273 C 881.995 134.264, 879.580 140.197, 881.010 144.529 C 882.564 149.240, 884.535 150.314, 897.491 153.513 C 945.989 165.487, 1005.884 193.629, 1050.033 225.185 C 1123.647 277.803, 1173.549 338.434, 1211.351 421.188 C 1230.690 463.525, 1244.916 522.150, 1248.070 572.500 C 1248.655 581.850, 1249.341 590.917, 1249.594 592.649 C 1250.655 599.927, 1257.301 603.573, 1264.229 600.678 C 1269.437 598.502, 1270.430 594.582, 1269.575 579.585 C 1263.559 474.130, 1225.860 378.165, 1158.179 296.021 C 1145.629 280.789, 1108.758 244.172, 1092.706 230.999 C 1038.785 186.750, 974.394 153.409, 907.356 135.028 C 891.332 130.634, 889.715 130.425, 886 132.273 M 751.269 309.925 C 724.126 317.688, 704.938 343.279, 706.156 370.092 C 706.591 379.668, 708.521 382.778, 715.489 385.128 C 720.066 386.672, 720.426 387.062, 722.472 392.713 C 724.566 398.497, 727.391 403.324, 731.167 407.568 C 733.004 409.633, 732.995 409.637, 724.687 410.748 C 704.661 413.428, 696.817 419.513, 678.831 446.322 C 672.123 456.320, 658.657 476.249, 648.906 490.609 C 639.155 504.969, 630.063 518.919, 628.702 521.609 C 621.559 535.729, 619.988 551.953, 624.424 565.786 C 625.150 568.049, 625.094 568.065, 618.709 567.411 C 593.875 564.867, 579.522 590.483, 595.889 608.137 C 602.523 615.291, 610.373 617.983, 624.795 618.048 L 635.500 618.097 640.500 628.641 C 643.250 634.441, 645.629 639.532, 645.788 639.956 C 646.005 640.537, 639.905 649.395, 633.546 657.732 C 633.448 657.860, 630.473 656.450, 626.934 654.599 C 564.008 621.680, 486.358 653.034, 461.165 721.533 C 441.222 775.756, 462.728 837.994, 511.575 867.419 L 517.489 870.981 364.325 871.240 L 211.161 871.500 208.632 873.876 C 203.644 878.562, 204.825 887.820, 210.702 890.097 C 214.335 891.504, 1288.409 891.556, 1292.109 890.149 C 1296.988 888.294, 1298.911 883.289, 1296.986 877.456 C 1294.709 870.559, 1306.029 871, 1131.356 871 L 973.649 871 982.627 865.085 C 1044.806 824.122, 1054.571 732.565, 1002.568 678.129 C 973.269 647.458, 929.724 634.311, 891.497 644.594 C 888.199 645.481, 884.929 646.273, 884.231 646.354 C 883.476 646.441, 878.878 636.972, 872.891 623 C 859.496 591.738, 860.024 592.960, 858.274 589.214 C 856.325 585.044, 856.021 585.227, 866.022 584.544 C 876.753 583.811, 882.812 581.821, 886.783 577.724 C 892.027 572.314, 894.489 562.046, 892.069 555.680 C 891.364 553.827, 891.645 552.203, 893.225 549.009 C 897.809 539.744, 896.158 528.473, 889.231 521.744 C 885.263 517.890, 880.065 515.336, 869.633 512.114 C 863.795 510.311, 831.868 498.854, 819.500 494.124 C 813.912 491.987, 814.132 492.261, 787.661 454.500 C 779.950 443.500, 771.662 432.137, 769.243 429.250 L 764.845 424 768.213 424 C 788.037 424, 807.459 408.430, 813.483 387.707 C 815.111 382.107, 815.211 382, 818.821 381.978 C 825.219 381.940, 830.447 378.840, 832.417 373.916 C 834.560 368.561, 833.961 364.907, 829.891 358.490 C 828.195 355.815, 825.540 350.335, 823.991 346.312 C 813.014 317.807, 780.532 301.555, 751.269 309.925 M 752.892 331.299 C 739.477 336.949, 729.462 349.004, 727.384 362.003 L 726.744 366 731.184 366 C 733.626 366, 739.196 365.035, 743.562 363.855 C 750.457 361.991, 755.222 361.630, 779.819 361.105 L 808.138 360.500 804.081 352.398 C 799.469 343.187, 793.262 336.718, 784.883 332.385 C 777.058 328.340, 761.197 327.802, 752.892 331.299 M 748.828 383.831 C 741.414 386.013, 741.251 386.269, 744.321 390.909 C 755.959 408.495, 782.155 406.297, 792.048 386.906 C 793.122 384.802, 794 382.837, 794 382.540 C 794 381.081, 754.321 382.216, 748.828 383.831 M 721.792 432.343 C 711.919 435.125, 710.895 436.358, 677.868 485.196 C 660.824 510.399, 645.942 533.137, 644.798 535.725 C 639.598 547.479, 643.418 565.073, 652.935 573.208 C 656.527 576.278, 670.269 584.744, 683 591.729 C 702.491 602.423, 735.806 621.495, 737.388 622.865 C 742.238 627.065, 742.219 628.501, 736.912 658.540 C 731.380 689.858, 725.129 723.594, 724.367 726.250 C 723.953 727.695, 724.530 728.006, 727.683 728.033 C 729.782 728.051, 733.805 728.862, 736.622 729.835 L 741.743 731.606 745.425 719.553 C 771.606 633.851, 772.484 630.715, 772.492 622.915 C 772.502 613.221, 770.177 609.592, 758.701 601.389 C 739.718 587.822, 696.195 555.777, 692.500 552.647 C 688.902 549.600, 688.500 548.796, 688.500 544.652 C 688.500 536.325, 693.194 533.577, 704.654 535.196 C 706.450 535.450, 709.375 531.766, 722.277 513 L 737.747 490.500 733.936 486.340 C 725.279 476.891, 729.253 466.198, 740.988 467.363 C 744.386 467.700, 746.087 468.518, 747.988 470.729 C 760.855 485.694, 786.472 514.517, 790.479 518.539 L 795.500 523.578 811.500 527.397 C 820.300 529.497, 835.825 533.224, 846 535.679 C 868.390 541.080, 873.126 541.758, 874.755 539.795 C 876.358 537.864, 873.989 534.465, 870.413 533.568 C 865.043 532.220, 810.313 512.689, 805.234 510.309 C 800.201 507.949, 799.102 506.619, 780.330 480.170 C 753.375 442.194, 754.468 443.655, 750.046 439.660 C 741.743 432.159, 731.687 429.555, 721.792 432.343 M 749.778 510.157 C 739.492 524.103, 722.925 549.307, 723.632 549.934 C 724.109 550.358, 729.450 554.287, 735.500 558.665 C 768.163 582.302, 776.934 588.858, 781.232 592.847 C 785.589 596.892, 792 607.497, 792 610.660 C 792 611.397, 792.298 612, 792.663 612 C 793.634 612, 841.477 603.853, 841.627 603.662 C 841.697 603.573, 839.956 599.390, 837.757 594.366 C 833.808 585.339, 833.714 585.225, 829.803 584.700 C 822.663 583.743, 818.740 577.348, 821.032 570.403 C 822.902 564.738, 825.841 564.019, 847.718 563.882 C 862.966 563.786, 878.283 562.608, 870.659 562.118 C 866.055 561.822, 791.465 543.857, 787.430 542.072 C 781.206 539.319, 777.010 535.468, 765.017 521.500 C 759.349 514.900, 754.157 508.896, 753.478 508.157 C 752.462 507.053, 751.805 507.408, 749.778 510.157 M 610.200 589.200 C 607.407 591.993, 611.186 596.411, 617.340 597.547 C 621.464 598.309, 646 596.172, 646 595.051 C 646 594.680, 644.744 593.447, 643.208 592.312 C 638.996 589.198, 612.683 586.717, 610.200 589.200 M 670 612.550 C 667.525 613.259, 664.299 613.875, 662.832 613.920 C 656.850 614.100, 656.765 614.575, 661.152 623.343 C 663.396 627.829, 665.316 631.598, 665.418 631.718 C 665.664 632.008, 700.155 626.179, 700.554 625.780 C 700.889 625.444, 675.373 610.914, 674.829 611.131 C 674.648 611.202, 672.475 611.841, 670 612.550 M 833.879 639.726 C 826.520 648.375, 809.917 667.837, 796.982 682.976 C 771.380 712.938, 767.701 717.484, 766.607 720.500 C 765.644 723.155, 764.759 724.148, 787.985 696.500 C 799.074 683.300, 814.976 664.441, 823.323 654.592 C 847.929 625.557, 849.196 624, 848.205 624 C 847.684 624, 841.237 631.077, 833.879 639.726 M 801.233 631.758 L 792.966 633.298 789.914 643.399 C 788.235 648.955, 785.845 656.782, 784.602 660.793 C 783.348 664.840, 782.888 667.511, 783.569 666.793 C 784.702 665.599, 809.765 635.596, 812.872 631.714 C 814.599 629.558, 813.014 629.563, 801.233 631.758 M 696 647.736 C 684.725 649.681, 675.380 651.369, 675.233 651.487 C 675.086 651.605, 679.514 661.106, 685.074 672.601 C 690.634 684.095, 697.519 698.418, 700.374 704.429 L 705.564 715.358 708.873 697.429 C 717.021 653.279, 718.489 643.935, 717.250 644.100 C 716.837 644.154, 707.275 645.791, 696 647.736 M 855.536 648.690 C 849.737 655.726, 770.051 750.120, 767.781 752.643 C 765.876 754.760, 765.878 754.865, 767.927 761.498 C 772.449 776.140, 768.257 791.589, 756.384 804.036 C 753.423 807.141, 751 809.927, 751 810.228 C 751 810.528, 754.136 810.951, 757.968 811.168 C 766.303 811.639, 769.832 813.792, 771.912 819.674 C 773.193 823.298, 773.147 824.030, 771.412 827.584 C 768.394 833.765, 765.977 834.454, 746 834.825 C 721.141 835.287, 716.511 833.333, 716.489 822.371 L 716.478 816.903 709.624 814.508 C 701.594 811.702, 696.128 808.136, 691.412 802.626 C 689.542 800.441, 687.863 798.845, 687.680 799.077 C 687.497 799.310, 686.311 802.425, 685.044 806 C 676.205 830.938, 656.927 854.553, 635 867.302 L 629.500 870.500 687.750 870.758 C 719.787 870.900, 772.108 870.900, 804.019 870.758 L 862.037 870.500 853.769 865.032 C 820.732 843.184, 800 803.999, 800 763.404 C 800 720.807, 823.979 677.971, 859.250 657.559 C 864.698 654.406, 864.544 654.966, 861.689 648.690 L 859.500 643.881 855.536 648.690 M 555.633 663.491 C 518.070 671.293, 487.292 700.511, 477.217 737.930 C 473.353 752.282, 473.441 776.428, 477.404 789.495 C 488.368 825.636, 514.809 852.391, 548.345 861.277 C 559.403 864.206, 586.976 864.416, 597 861.646 C 627.570 853.200, 655.994 827.273, 665.929 798.774 C 667.889 793.151, 665.410 796.209, 663.112 802.250 C 649.566 837.849, 612.853 862.278, 573 862.211 C 527.605 862.134, 489.715 832.142, 477.778 786.836 C 474.404 774.029, 474.648 752.188, 478.318 738.500 C 494.718 677.331, 561.369 646.129, 616.048 674.024 C 620.379 676.234, 621 676.374, 621 675.145 C 621 673.635, 603.749 666.278, 596 664.484 C 585.889 662.143, 564.639 661.620, 555.633 663.491 M 655.495 663.360 C 654.948 664.108, 653.660 665.909, 652.632 667.364 L 650.765 670.008 657.455 677.099 C 661.134 680.999, 666.179 686.960, 668.667 690.345 C 671.154 693.730, 673.383 696.699, 673.620 696.942 C 674.135 697.470, 663.414 674.720, 659.627 667.250 C 656.629 661.334, 656.835 661.528, 655.495 663.360 M 900.520 663.553 C 896.131 664.382, 892.104 665.496, 891.570 666.030 C 890.298 667.302, 892.443 667.283, 897.133 665.980 C 927.923 657.427, 969.789 671.403, 991.178 697.373 C 997.895 705.528, 999.042 706.533, 994.913 700.643 C 987.263 689.733, 970.921 676.602, 956.727 669.960 C 941.831 662.989, 917.929 660.265, 900.520 663.553 M 865.678 678.066 C 858.462 682.597, 844.856 696.124, 839.013 704.576 C 830.472 716.930, 821.853 738.201, 822.049 746.438 C 822.076 747.572, 823.152 744.424, 824.440 739.442 C 831.073 713.791, 845.827 692.415, 865.992 679.241 C 873.348 674.435, 873.077 673.420, 865.678 678.066 M 565.459 685.099 C 526.351 688.011, 495.934 722.289, 495.889 763.500 C 495.820 826.969, 565.478 863.792, 617.676 827.879 C 627.405 821.185, 639.222 806.925, 643.455 796.770 C 645.361 792.199, 648.428 793.065, 614 788.460 C 575.010 783.245, 570.337 782.388, 565.521 779.565 C 555.366 773.614, 554.299 758.533, 563.417 749.840 C 565.663 747.699, 568.503 744.947, 569.730 743.724 C 572.695 740.766, 607 694.132, 607 693.059 C 607 691.844, 599.330 688.471, 593.380 687.069 C 585.554 685.225, 574.365 684.436, 565.459 685.099 M 904.500 685.675 C 900.004 686.669, 899.995 686.716, 902.933 693.704 C 906.572 702.360, 924.570 743.853, 929.483 754.912 C 932.928 762.666, 933.130 763.624, 932.068 767.166 C 928.901 777.739, 912.800 776.581, 910.424 765.609 C 909.433 761.036, 884.792 701.812, 881.236 695.457 C 880.077 693.385, 868.012 702.771, 860.865 711.305 C 848.094 726.554, 842.551 742.174, 842.520 763 C 842.493 781.569, 846.241 794.042, 856.368 809.081 C 888.764 857.185, 960.635 851.186, 986.474 798.222 C 1008.294 753.496, 984.206 698.945, 937.345 686.960 C 930.093 685.106, 910.532 684.340, 904.500 685.675 M 643.035 693.572 C 651.803 702.867, 656.350 709.323, 660.426 718.268 C 664.178 726.502, 669 741.002, 669 744.052 C 669 745.123, 669.408 746, 669.906 746 C 670.909 746, 670.715 744.903, 667.782 734 C 663.730 718.938, 650.847 697.913, 640.864 690.072 C 637.152 687.157, 637.476 687.679, 643.035 693.572 M 610.678 723.776 L 596.857 742.500 608.678 743.114 C 615.180 743.452, 626.723 743.790, 634.329 743.864 L 648.159 744 647.448 740.762 C 646.379 735.898, 642.044 726.171, 638.264 720.156 C 634.976 714.926, 626.327 704.975, 625.113 705.026 C 624.776 705.040, 618.280 713.478, 610.678 723.776 M 1003.710 716.738 C 1006.628 722.657, 1010.103 731.550, 1011.434 736.500 C 1012.765 741.450, 1013.886 744.784, 1013.927 743.910 C 1014.205 737.873, 1004.039 711.806, 999.624 707.238 C 998.954 706.544, 1000.792 710.819, 1003.710 716.738 M 685.431 722.287 C 686.502 725.866, 688.919 734.606, 690.017 738.871 C 691.082 743.008, 691.218 743.134, 692.553 741.228 C 693.824 739.413, 693.514 738.284, 689.430 729.857 C 686.936 724.710, 685.137 721.304, 685.431 722.287 M 718.790 748.914 C 706.469 751.431, 697.579 766.294, 700.936 778.763 C 703.161 787.025, 714.186 797, 721.092 797 C 724.488 797, 721.155 791.363, 717.029 790.127 C 710.820 788.267, 705 779.763, 705 772.552 C 705 768.333, 708.107 761.290, 711.291 758.291 C 726.123 744.322, 749.917 760.613, 742.128 779.404 C 739.311 786.200, 739.953 791.237, 743.261 788.296 C 746.576 785.351, 748.956 778.957, 748.956 773 C 748.956 757.256, 734.492 745.707, 718.790 748.914 M 820.621 757.818 C 818.110 791.090, 836.637 828.989, 864.465 847.506 C 882.846 859.736, 895.612 863.509, 918.500 863.478 C 946.055 863.441, 965.103 855.646, 985.234 836.168 C 997.784 824.024, 1010.466 802.288, 1012.461 789.500 C 1012.841 787.068, 1011.957 788.833, 1010.208 794 C 990.256 852.929, 928.233 878.982, 873.691 851.343 C 841.263 834.911, 819.296 795.353, 821.718 757.750 C 822.028 752.938, 822.058 749, 821.784 749 C 821.511 749, 820.987 752.968, 820.621 757.818 M 1015.365 763.500 C 1015.368 769, 1015.536 771.122, 1015.738 768.216 C 1015.941 765.311, 1015.939 760.811, 1015.734 758.216 C 1015.528 755.622, 1015.363 758, 1015.365 763.500 M 595 765.099 C 602.425 766.122, 617.950 768.322, 629.500 769.987 C 641.050 771.653, 653.204 773.207, 656.509 773.441 C 659.814 773.675, 663.780 774.346, 665.324 774.933 C 671.010 777.095, 672 776.512, 672 771 C 672 765.880, 669.810 763.795, 668.738 767.894 C 667.681 771.937, 657.474 771.685, 653.598 767.520 C 651.572 765.344, 650.537 765.228, 623.500 764.128 C 583.363 762.495, 577.545 762.693, 595 765.099 M 282.276 830.961 C 255.626 831.489, 255.004 831.548, 252.776 833.778 C 249.548 837.008, 249.549 844.994, 252.778 848.222 C 255.055 850.499, 255.070 850.500, 287.500 850.500 C 324.220 850.500, 323.635 850.628, 324.615 842.397 C 325.441 835.450, 319.731 829.707, 312.500 830.213 C 310.850 830.328, 297.249 830.665, 282.276 830.961 M 352.020 832.284 C 346.736 834.958, 345.573 844.018, 349.952 848.397 C 353.063 851.507, 416.460 851.703, 419.875 848.613 C 424.448 844.475, 422.951 834.072, 417.483 831.994 C 413.440 830.456, 355.121 830.715, 352.020 832.284 M 1070 832.294 C 1062.960 835.855, 1063.425 847.310, 1070.723 850.085 C 1072.319 850.692, 1085.375 850.967, 1104.150 850.790 L 1134.957 850.500 1137.679 847.777 C 1142.355 843.099, 1140.520 834.289, 1134.383 831.955 C 1130.418 830.448, 1073.053 830.750, 1070 832.294 M 1168.020 832.263 C 1162.732 834.984, 1161.575 844.019, 1165.952 848.397 C 1168.004 850.448, 1168.858 850.500, 1200.500 850.500 C 1232.930 850.500, 1232.945 850.499, 1235.222 848.222 C 1238.451 844.993, 1238.452 837.008, 1235.224 833.778 C 1232.964 831.517, 1232.721 831.498, 1201.724 831.243 C 1177.937 831.047, 1169.909 831.290, 1168.020 832.263" stroke="none" fill="#1D5F3A" fill-rule="evenodd"/>
</svg>