<svg xmlns="http://www.w3.org/2000/svg" width="1000" height="361" viewBox="-490.1 76.8 2406.3 868.7">
	<path d="M 853 138.090 C 796.006 145.426, 749.891 178.825, 729.977 227.188 C 713.002 268.414, 716.397 298.463, 740.950 324.311 C 744.821 328.386, 749.831 332.997, 752.084 334.558 L 756.181 337.397 755.519 342.696 C 753.659 357.579, 750.102 371.351, 747.069 375.415 C 741.909 382.326, 737.805 389.954, 733.887 399.913 L 730.135 409.453 723.317 412.188 C 705.821 419.206, 696.115 439.444, 701.174 458.361 L 702.348 462.750 693.042 479.125 C 648.363 557.745, 590.944 624.233, 520.167 679.303 C 500.133 694.892, 483.637 706.859, 456.500 725.495 C 398.044 765.638, 381.632 779.240, 369.302 797.764 C 351.655 824.279, 358.363 854.761, 385.298 870.451 C 411.971 885.989, 466.184 890.270, 511.319 880.402 C 527.073 876.958, 546.714 870.993, 550.333 868.555 C 558.961 862.740, 557.255 850.619, 547.207 846.340 C 544.164 845.044, 543.031 845.199, 532.207 848.400 C 503.043 857.024, 477.160 860.617, 451.690 859.578 C 388.555 857.003, 368.227 834.340, 399.330 801.203 C 410.471 789.333, 423.522 779.491, 474.484 744.527 C 569.598 679.271, 631.482 619.605, 683.503 543 C 695.686 525.059, 695.845 525.823, 684.040 545.574 C 671.843 565.980, 656.989 585.817, 632 615.071 C 605.757 645.793, 593.739 667.262, 586.138 697 C 580.711 718.228, 579.556 740.314, 582.896 758.975 C 584.025 765.287, 584.619 770.781, 584.216 771.184 C 583.813 771.587, 576.286 772.848, 567.491 773.986 C 533.028 778.445, 526.494 780.376, 518.364 788.506 C 504.086 802.784, 509.276 824.165, 529.411 834.011 C 549.146 843.661, 583.142 844.142, 618.982 835.277 L 629.464 832.684 635.482 834.791 C 647.501 838.997, 650.310 839.117, 729.500 838.802 L 805.500 838.500 811.091 835.878 C 820.083 831.661, 823.474 824.915, 823.343 811.500 C 823.183 795.138, 814.117 778.975, 801.259 772.132 C 799.065 770.964, 799.165 770.770, 806.124 762.720 C 810.033 758.199, 814.615 752.573, 816.308 750.218 C 819.950 745.149, 820.473 745.684, 821.472 755.500 C 826.795 807.807, 835.279 828.369, 854.753 836.157 C 863.705 839.737, 916.597 840.294, 925.591 836.904 C 930.737 834.964, 934.146 834.599, 952 834.080 C 973.722 833.449, 977.530 832.669, 982.726 827.788 C 988.460 822.401, 990.616 807.681, 987.461 795.460 C 982.513 776.290, 971.282 764.811, 952.267 759.490 C 948.839 758.531, 945.564 757.179, 944.989 756.486 C 938.811 749.043, 937.585 674.554, 942.571 609.645 C 944.017 590.830, 944.284 589.338, 947.687 581.145 C 960.457 550.399, 965 528.316, 965 496.983 C 965 468.167, 960.129 443.127, 949.440 417 C 947.224 411.583, 945.712 401.328, 944.499 383.482 L 943.886 374.463 955.193 372.806 C 974.378 369.993, 1002.420 360.295, 1017.419 351.287 C 1047.157 333.427, 1063.109 307.006, 1067.086 269.025 C 1068.384 256.625, 1067.626 251.516, 1063.412 244.284 C 1058.548 235.937, 1052.535 233.284, 1031 229.987 C 1002.573 225.635, 989.595 221.849, 987.097 217.181 C 986.505 216.076, 984.845 211.421, 983.406 206.836 C 969.587 162.796, 928.055 136.603, 872.872 137.127 C 865.517 137.197, 856.575 137.630, 853 138.090 M 854.885 164.433 C 808.599 170.347, 774.385 194.103, 755.411 233.500 C 735.113 275.649, 744.855 304.570, 786.567 325.988 C 815.560 340.875, 832.120 334.191, 837.561 305.404 C 840.135 291.783, 839.186 279.926, 831.492 229.597 C 828.960 213.029, 832.217 205.327, 842.174 204.344 C 851.731 203.401, 854.538 207.412, 857.029 225.567 C 858.080 233.230, 860.120 247.150, 861.563 256.500 C 868.169 299.312, 862.880 329.027, 845.605 346.158 C 830.467 361.170, 811.287 363.829, 787.207 354.255 C 783.746 352.879, 780.716 351.951, 780.475 352.192 C 779.930 352.737, 776.022 371.905, 776.009 374.097 C 776.003 375.173, 780.817 377.995, 790.750 382.740 C 828.748 400.890, 869.756 411, 905.380 411 C 923.046 411, 921.692 411.828, 920.094 402 C 918.438 391.811, 917.737 367.839, 918.911 361.509 C 920.910 350.722, 924.887 348.816, 947 348.045 C 947.825 348.016, 946.925 347.037, 945 345.868 C 933.493 338.884, 928.258 331.207, 930.305 324.317 C 933.122 314.836, 943.924 312.351, 952.049 319.315 C 964.467 329.957, 984.443 333.621, 1001.857 328.450 C 1013.119 325.105, 1025.981 312.934, 1032.977 299 C 1037.652 289.690, 1037.674 289.866, 1031.455 286.610 C 1020.753 281.008, 1013.007 268.642, 1012.997 257.145 L 1012.994 253.500 1002.247 251.169 C 975.154 245.293, 966.968 238.391, 959.205 214.880 C 951.924 192.829, 938.745 179.109, 916.337 170.255 C 900.872 164.143, 875.765 161.765, 854.885 164.433 M 913.500 224.366 C 895.253 232.869, 900.626 260.956, 920.500 260.956 C 938.283 260.956, 945.669 237.240, 931.300 226.280 C 927.099 223.075, 918.300 222.129, 913.500 224.366 M 1039 259.378 C 1039 260.135, 1039.675 261.315, 1040.500 262 C 1041.768 263.053, 1042 262.840, 1042 260.622 C 1042 258.958, 1041.452 258, 1040.500 258 C 1039.675 258, 1039 258.620, 1039 259.378 M 759.740 403.750 C 755.651 413.032, 755.630 413.350, 758.987 415.333 C 760.629 416.303, 763.891 419.358, 766.236 422.122 C 770.937 427.662, 774.933 429.942, 798 440.245 C 823.696 451.723, 838.329 457.058, 860 462.851 C 884.570 469.419, 918.044 473.978, 931.290 472.559 L 937.920 471.849 937.392 468.675 C 935.624 458.033, 933.632 448.637, 931.884 442.695 L 929.883 435.890 922.691 436.695 C 882.362 441.208, 822.059 427.619, 772.863 402.931 C 767.459 400.219, 762.865 398, 762.655 398 C 762.445 398, 761.133 400.587, 759.740 403.750 M 731.595 436.527 C 728.804 437.983, 726.099 440.739, 726.032 442.194 C 726.014 442.575, 728.025 441.992, 730.500 440.897 C 737.024 438.011, 743.046 440.620, 746.226 447.711 L 748.373 452.500 749.269 448.824 C 751.632 439.119, 740.919 431.665, 731.595 436.527 M 771.551 462.754 C 767.835 471.802, 758.401 479.873, 747.395 483.419 C 742.362 485.041, 742.251 485.165, 739.475 492.282 C 726.683 525.067, 704.693 564.262, 682.686 593.500 C 674.426 604.475, 669.258 610.819, 645.624 639 C 617.890 672.069, 605.896 703.563, 607.299 739.635 C 608.675 775.018, 620.441 798.706, 641.885 809.265 L 648.455 812.500 723.323 812.797 L 798.192 813.095 797.489 808.797 C 796.061 800.063, 790.736 794.324, 782.431 792.569 C 780.743 792.212, 767.779 791.772, 753.622 791.591 L 727.883 791.262 724.919 788.422 C 717.268 781.092, 719.142 773.474, 730.500 765.724 C 748.508 753.438, 761.393 735.693, 768.153 713.867 C 771.519 703, 771.524 681.466, 768.163 671.734 C 758.997 645.194, 736.433 635.149, 705.251 643.728 C 696.840 646.042, 695.672 646.147, 692.359 644.885 C 687.124 642.893, 684.500 638.918, 684.500 632.982 C 684.500 625.960, 688.519 622.050, 699.297 618.585 C 745.825 603.625, 789 630.427, 795.962 678.593 C 799.445 702.686, 791.745 734.054, 777.349 754.427 L 773.764 759.500 778.965 754.500 C 789.092 744.765, 802.281 726.862, 810.969 711.056 C 814.307 704.983, 814.860 703.171, 814.443 699.667 C 810.618 667.503, 803.972 623.099, 797.557 586.860 C 795.055 572.721, 798.702 566.500, 809.493 566.500 C 818.325 566.500, 820.625 569.714, 823.446 586 C 831.816 634.308, 837.960 676.680, 843.526 724.500 C 851.156 790.037, 854.507 806.007, 861.609 810.665 C 865.018 812.901, 916 814.169, 916 812.018 C 916 808.897, 913.390 801.085, 911.268 797.856 C 908.884 794.227, 906.535 792.784, 893.817 787.136 C 874.936 778.751, 873.073 765.338, 873.028 637.500 C 873.005 572.829, 873.136 567.234, 874.752 564 C 879.081 555.333, 891.134 555.178, 896.736 563.716 C 898.256 566.033, 898.569 569.698, 899 590.221 L 899.500 614.038 906.788 603.053 C 925.867 574.296, 937.089 541.791, 938.664 510.726 L 939.289 498.395 929.680 498.815 C 892.970 500.421, 834.772 485.840, 784.125 462.348 C 778.969 459.957, 774.469 458.002, 774.125 458.004 C 773.781 458.006, 772.623 460.143, 771.551 462.754 M 906.603 645.623 L 898.707 655.112 899.316 696.806 C 899.932 738.862, 901.057 757.308, 903.286 761.853 C 904.102 763.519, 906.635 765.190, 911.020 766.958 C 925.129 772.647, 933.149 781.023, 938.097 795.237 C 939.679 799.782, 940.979 804.513, 940.987 805.750 C 941 807.953, 941.243 808, 952.545 808 L 964.091 808 963.457 804.250 C 961.533 792.864, 955.874 786.967, 943.500 783.453 C 935.471 781.173, 932.228 779.471, 927.665 775.140 C 916.084 764.148, 913.615 746.701, 914.151 679.651 C 914.343 655.643, 914.500 636.030, 914.500 636.067 C 914.500 636.103, 910.947 640.404, 906.603 645.623 M 583 798.102 C 578.325 799.106, 569.325 800.387, 563 800.947 C 537.323 803.224, 530.461 806.204, 540.250 810.830 C 549.854 815.368, 573.046 816.833, 592 814.099 C 606.332 812.032, 605.586 813.019, 599.701 803.915 C 596.692 799.260, 593.950 796.057, 593.043 796.138 C 592.194 796.214, 587.675 797.097, 583 798.102" stroke="none" fill="#1D5F3A" fill-rule="evenodd"/>
</svg>