<svg xmlns="http://www.w3.org/2000/svg" width="1000" height="436" viewBox="-254.5 89.6 1935.0 843.7">
	<path d="M 851 139.090 C 795.497 146.235, 751.593 177.989, 730.920 225.940 C 711.592 270.772, 718.702 308.647, 751.132 333.602 C 757.925 338.828, 757.667 336.026, 753.374 358 C 751.422 367.986, 750.334 371.304, 747.963 374.500 C 742.965 381.236, 737.871 390.786, 733.926 400.814 C 730.330 409.958, 729.996 410.429, 726.332 411.524 C 715.660 414.716, 706.963 422.595, 703.170 432.509 C 700.768 438.784, 700.104 454.512, 702.026 459.569 C 704.137 465.120, 668.013 523.615, 641.638 557.356 C 589.749 623.736, 542.135 667.002, 455.500 726.495 C 398.777 765.448, 384.340 777.185, 371.750 794.586 C 351.687 822.316, 358.169 855.684, 386.527 870.653 C 405.398 880.615, 424.665 884.357, 457.500 884.440 C 489.405 884.520, 506.244 882.231, 534.668 873.951 C 552.706 868.696, 555 866.929, 555 858.288 C 555 852.816, 553.269 849.707, 548.989 847.494 C 544.915 845.388, 543.174 845.566, 530.103 849.431 C 485.192 862.710, 441.814 864.359, 411.199 853.952 C 380.121 843.387, 376.014 826.096, 398.825 801.848 C 411.988 787.856, 420.347 781.460, 470.878 746.725 C 573.260 676.346, 632.102 619.501, 685.354 539.532 C 692.034 529.500, 698.085 520.439, 698.800 519.396 C 701.522 515.425, 691.543 533.694, 685.116 544.446 C 672.715 565.195, 658.957 583.540, 631.651 615.740 C 605.010 647.156, 592.781 669.938, 585.348 702 C 580.975 720.862, 581.096 754.556, 585.592 770.140 C 586.132 772.012, 576.794 774.017, 558 776.066 C 522.060 779.983, 509.617 788.891, 511.256 809.529 C 512.365 823.505, 522.419 832.932, 541.846 838.211 C 558.116 842.632, 597.391 840.622, 621.908 834.113 C 629.172 832.184, 629.413 832.182, 634.408 834.011 C 645.210 837.966, 648.919 838.114, 729.500 837.802 L 807.500 837.500 812.643 834.788 C 830.377 825.434, 823.606 783.995, 802.600 773.321 C 800.895 772.455, 799.355 771.620, 799.177 771.467 C 799 771.313, 802.468 766.890, 806.884 761.638 C 811.300 756.386, 816.124 750.259, 817.603 748.024 C 819.082 745.788, 820.406 744.081, 820.544 744.230 C 820.683 744.378, 821.549 750.575, 822.468 758 C 829.171 812.120, 834.381 825.646, 851.836 834.240 L 858.456 837.500 891.978 837.500 C 924.827 837.500, 925.584 837.455, 929.710 835.250 C 933.656 833.141, 935.130 832.999, 953.210 832.990 C 971.590 832.981, 972.749 832.865, 977.781 830.522 C 985.268 827.036, 987.976 821.183, 987.990 808.460 C 988.018 782.990, 976.564 767.360, 952.403 759.897 C 948.263 758.619, 945.454 757.096, 944.473 755.598 C 937.785 745.392, 936.465 678.770, 941.611 611.153 C 943.083 591.812, 943.332 590.402, 946.650 582.653 C 959.632 552.338, 964 530.771, 964 496.983 C 964 466.780, 957.716 433.821, 948.593 416.181 C 946.255 411.658, 941.804 375.863, 943.384 374.282 C 943.584 374.083, 949.317 373.064, 956.124 372.019 C 983.073 367.880, 1011.624 356.432, 1030.148 342.338 C 1050.126 327.137, 1062.744 302.173, 1066.072 271.264 C 1067.537 257.650, 1066.890 251.407, 1063.338 244.880 C 1058.409 235.823, 1054.563 234.313, 1024 229.428 C 993.616 224.572, 987.424 221.521, 983.916 209.679 C 974.138 176.666, 951.744 154.443, 917.398 143.668 C 901.089 138.552, 871.196 136.491, 851 139.090 M 857 163.519 C 804.316 170.051, 764.239 201.368, 749.039 247.882 C 738.010 281.632, 747.703 304.115, 781.788 323.840 C 813.991 342.476, 832.513 335.838, 838.541 303.500 C 840.531 292.826, 840.069 283.013, 836.398 258 C 831.015 221.313, 830.686 218.444, 831.411 214.600 C 832.575 208.430, 836.713 205, 842.989 205 C 852.541 205, 853.711 206.697, 856.080 224 C 857.022 230.875, 859.030 244.600, 860.543 254.500 C 868.773 308.349, 859.573 342.063, 833.183 354.764 C 820.522 360.857, 803.040 360.346, 785.897 353.380 C 782.530 352.012, 779.674 351.029, 779.552 351.196 C 779.430 351.363, 778.563 355.775, 777.625 361 C 776.687 366.225, 775.677 371.650, 775.381 373.055 C 774.869 375.480, 775.561 375.955, 788.917 382.355 C 829.013 401.567, 873.510 412.660, 907.170 411.835 C 914.688 411.651, 921.118 411.220, 921.459 410.877 C 921.800 410.535, 921.629 407.385, 921.078 403.877 C 919.565 394.233, 918.628 370.299, 919.460 362.532 C 920.593 351.953, 922.483 350.519, 936.424 349.666 C 947.971 348.960, 949.653 348.459, 946.616 346.633 C 933.540 338.772, 928.588 331.657, 930.876 324.021 C 933.497 315.270, 944.143 312.935, 951.894 319.411 C 974.608 338.389, 1006.880 334.826, 1025.487 311.287 C 1030.075 305.483, 1037 292.909, 1037 290.382 C 1037 289.641, 1034.767 287.902, 1032.037 286.519 C 1020.847 280.849, 1015.290 272.543, 1014.151 259.787 C 1013.541 252.954, 1013.344 252.483, 1011 252.230 C 1003.733 251.446, 988.642 247.388, 982.480 244.562 C 969.727 238.713, 965.558 233.261, 959.465 214.463 C 947.288 176.894, 907.735 157.229, 857 163.519 M 910.990 226.250 C 899.953 233.761, 900.078 252.428, 911.202 258.103 C 919.756 262.467, 931.591 259.630, 935.758 252.217 C 940.547 243.696, 937.959 230.907, 930.442 225.953 C 926.058 223.063, 915.434 223.225, 910.990 226.250 M 1038 257.944 C 1038 258.464, 1039.111 260.151, 1040.468 261.694 L 1042.937 264.500 1042.968 261.357 C 1042.988 259.392, 1042.407 257.987, 1041.418 257.607 C 1039.161 256.741, 1038 256.855, 1038 257.944 M 759.684 402.799 C 755.267 412.696, 755.288 413.113, 760.407 416.721 C 762.887 418.469, 765.947 421.527, 767.208 423.517 C 770.171 428.195, 790.932 438.598, 821 450.474 C 858.228 465.177, 907.613 475.480, 931.058 473.435 C 938.592 472.777, 938.674 472.740, 938.277 470.135 C 936.893 461.057, 934.567 450.388, 932.410 443.221 L 929.918 434.942 924.709 435.721 C 914.935 437.183, 886.331 436.314, 871.500 434.105 C 838.375 429.172, 804.515 418.305, 772.969 402.484 L 762.229 397.098 759.684 402.799 M 734.542 434.729 C 731.229 435.571, 727.969 438.159, 726.400 441.194 L 724.902 444.091 728.911 442.045 C 733.754 439.575, 735.877 439.497, 740.341 441.625 C 743.863 443.305, 746.974 448.261, 747.032 452.284 C 747.063 454.448, 747.098 454.454, 748.532 452.559 C 752.186 447.727, 748.787 438.062, 742.510 435.440 C 738.973 433.962, 737.930 433.869, 734.542 434.729 M 770.606 463.532 C 766.212 473.368, 755.888 481.571, 745.373 483.579 C 742.581 484.113, 741.949 484.941, 739.453 491.338 C 726.424 524.732, 703.835 565.073, 681.686 594.500 C 673.426 605.475, 668.258 611.819, 644.624 640 C 617.632 672.184, 604.890 705.120, 606.323 739 C 608.054 779.894, 626.581 809.201, 653.131 813.039 C 660.661 814.128, 795.969 814.307, 797.661 813.231 C 799.304 812.185, 797.852 805.115, 795.069 800.612 C 790.585 793.357, 786.071 791.808, 766.655 790.864 C 757.220 790.405, 744.963 790.304, 739.418 790.640 C 728.079 791.327, 726.010 790.704, 722.950 785.686 C 718.578 778.515, 720.863 772.520, 730.462 765.979 C 768.578 740.005, 783.559 688.072, 761.558 658.186 C 749.472 641.769, 729.850 636.004, 708 642.450 C 691.548 647.304, 685 644.490, 685 632.565 C 685 626.165, 688.422 622.638, 697.634 619.541 C 728.213 609.263, 761.782 617.542, 779.358 639.698 C 802.039 668.288, 801.380 717.250, 777.834 753 L 772.895 760.500 779.028 754.500 C 795.660 738.229, 815.658 708.030, 815.118 700 C 814.254 687.130, 806.570 635.551, 798.389 587.700 C 795.725 572.116, 798.475 567, 809.516 567 C 815.097 567, 817.523 568.178, 819.393 571.793 C 820.986 574.874, 825.296 598.863, 831.917 641.500 C 833.841 653.894, 841.047 709.004, 843.096 727 C 851.245 798.569, 854.628 810.651, 867.197 813.081 C 872.828 814.170, 915.729 814.247, 916.395 813.170 C 917.363 811.603, 914.062 801.549, 911.280 797.591 C 909.750 795.415, 906.699 792.771, 904.499 791.717 C 885.922 782.815, 885.720 782.682, 882.852 777.496 C 875.529 764.254, 874.874 754.753, 874.286 653.216 C 873.894 585.606, 874.056 566.280, 875.034 563.919 C 878.304 556.023, 892.391 556.055, 896.483 563.967 C 897.716 566.351, 898 571.416, 898 591.009 C 898 605.317, 898.372 614.888, 898.914 614.553 C 899.417 614.242, 903.253 608.845, 907.440 602.558 C 926.319 574.209, 937.966 540.502, 939.644 509.363 L 940.283 497.500 928.944 497.844 C 889.210 499.048, 834.749 485.515, 784.111 461.854 C 778.397 459.185, 773.672 457.012, 773.611 457.027 C 773.550 457.042, 772.198 459.969, 770.606 463.532 M 906.595 645.584 L 897.703 656.167 898.319 696.334 C 899.126 748.960, 900.520 762.483, 905.378 764.820 C 906.545 765.381, 910.073 766.970, 913.218 768.350 C 921.839 772.134, 927.264 776.285, 931.356 782.227 C 935.679 788.503, 939.949 799.904, 939.979 805.250 L 940 809 951.833 809 C 958.342 809, 963.920 808.747, 964.229 808.438 C 965.312 807.355, 962.236 796.955, 959.698 793.119 C 956.540 788.348, 952.485 785.803, 943.811 783.149 C 917.504 775.101, 914.606 764.735, 915.185 680.748 C 915.358 655.586, 915.497 634.999, 915.493 635 C 915.490 635, 911.485 639.763, 906.595 645.584 M 585 797.102 C 580.325 798.106, 571.160 799.399, 564.633 799.975 C 549.353 801.323, 539.066 803.490, 536.697 805.858 C 531.887 810.668, 549.311 816.175, 569.500 816.225 C 580.601 816.253, 603.534 813.799, 604.896 812.438 C 605.120 812.214, 603.728 809.658, 601.804 806.760 C 599.879 803.861, 597.549 800.029, 596.626 798.244 C 595.704 796.460, 594.623 795.062, 594.224 795.138 C 593.826 795.214, 589.675 796.097, 585 797.102" stroke="none" fill="#1D5F3A" fill-rule="evenodd"/>
</svg>