<svg xmlns="http://www.w3.org/2000/svg" width="1000" height="270" viewBox="-195.0 237.9 1925.0 519.8">
	<path d="M 790.400 289.400 L 787 292.800 787 322.477 L 787 352.154 789.923 355.077 C 794.186 359.340, 800.753 359.270, 804.411 354.923 L 807 351.847 807 321.846 L 807 291.846 804.077 288.923 C 799.850 284.696, 794.932 284.868, 790.400 289.400 M 854.500 347.598 C 834.464 364.129, 834 364.623, 834 369.391 C 834 375.065, 837.868 379.002, 843.437 378.996 C 847.177 378.992, 848.850 377.885, 864.500 365.058 C 873.850 357.395, 881.902 350.036, 882.394 348.703 C 884.642 342.610, 879.628 335.986, 872.795 336.023 C 868.803 336.045, 867.511 336.862, 854.500 347.598 M 714.923 339.923 C 710.996 343.851, 710.930 348.802, 714.750 352.967 C 716.263 354.616, 724.250 361.358, 732.500 367.948 C 745.696 378.490, 747.960 379.935, 751.327 379.965 C 756.629 380.013, 761 375.694, 761 370.406 C 761 365.892, 758.842 363.656, 739.141 347.750 C 723.767 335.337, 720.549 334.297, 714.923 339.923 M 728.500 397.902 C 720.250 401.072, 697.750 409.646, 678.500 416.955 C 612.449 442.034, 580.479 454.160, 565 460.004 C 556.475 463.223, 540.725 469.205, 530 473.297 C 519.275 477.390, 499.250 485.027, 485.500 490.269 C 471.750 495.510, 447 504.979, 430.500 511.309 C 414 517.640, 387.450 527.826, 371.500 533.944 C 355.550 540.063, 336.875 547.278, 330 549.978 C 323.125 552.678, 304.762 559.827, 289.194 565.865 C 259.329 577.448, 254.092 580.325, 247.152 588.961 C 235.163 603.879, 233.184 622.451, 241.285 644 C 243.249 649.225, 247.173 659.800, 250.004 667.500 C 256.055 683.959, 258.787 688.558, 267.451 696.878 C 274.769 703.905, 282.098 707.682, 291.559 709.303 C 300.619 710.855, 308.201 709.298, 327.500 701.923 C 336.300 698.560, 350.925 692.973, 360 689.508 C 373.780 684.245, 469.541 647.305, 500.500 635.310 C 505.450 633.392, 515.800 629.422, 523.500 626.487 C 563.037 611.418, 668.548 570.844, 688.500 563.038 C 696.750 559.810, 712.275 553.799, 723 549.679 C 743.580 541.775, 766.499 532.854, 778.983 527.888 C 783.098 526.251, 787.472 523.965, 788.703 522.809 C 790.318 521.292, 791.298 520.994, 792.221 521.738 C 792.924 522.306, 807.675 528.294, 825 535.044 C 877.494 555.499, 967.697 591.249, 1134 657.509 C 1152.425 664.850, 1183.025 677.042, 1202 684.603 C 1247.502 702.734, 1250.228 702.865, 1265.839 687.670 C 1291.378 662.813, 1307.904 605.131, 1296.066 582.167 C 1291.342 573.005, 1296.083 575.289, 1207.500 539.481 C 1186.600 531.033, 1162.750 521.359, 1154.500 517.985 C 1128.490 507.346, 999.344 455.359, 918.500 422.985 C 892.100 412.413, 864.121 401.116, 856.325 397.881 C 838.971 390.681, 835.441 390.359, 830.294 395.506 L 826.789 399.011 827.453 407.756 L 828.117 416.500 819.458 421 C 804.894 428.570, 804.013 430.793, 809.099 447.162 C 810.803 452.647, 812.041 457.246, 811.849 457.380 C 791.313 471.780, 791.544 471.353, 796.067 486.570 L 799.238 497.238 794.344 502.132 L 789.450 507.026 784.656 502.159 L 779.863 497.292 782.907 489.396 C 788.723 474.312, 788.203 472.211, 776.478 463.386 C 772.365 460.290, 769 457.345, 769 456.841 C 769 456.337, 770.575 451.846, 772.500 446.862 C 774.425 441.877, 776 436.510, 776 434.934 C 776 430.980, 771.460 426.117, 762.627 420.611 L 755.309 416.051 756.095 411.275 C 757.683 401.623, 757.284 399.084, 753.600 395.400 C 748.943 390.743, 746.492 390.987, 728.500 397.902 M 726 420.968 C 719.545 423.356, 685.221 436.368, 594 471.008 C 533.526 493.973, 493.550 509.199, 485.861 512.195 L 477.223 515.561 478.718 520.031 C 479.541 522.489, 483.577 533.725, 487.688 545 C 491.799 556.275, 498.581 575.288, 502.761 587.250 C 506.940 599.212, 510.737 609, 511.198 609 C 511.925 609, 574.631 584.939, 725 526.961 C 746.725 518.585, 764.676 511.579, 764.890 511.392 C 765.105 511.206, 763.642 509.240, 761.640 507.024 C 757.187 502.095, 757.182 501.864, 761.232 489.627 L 764.500 479.754 762.013 478.127 C 745.175 467.110, 743.919 464.478, 748.907 450.657 C 750.724 445.621, 752.428 440.765, 752.692 439.867 C 753.044 438.670, 751.198 437.145, 745.769 434.148 C 736.831 429.214, 734.798 427.115, 734.062 422.061 L 733.500 418.193 726 420.968 M 849.728 420.750 C 850.321 425.025, 845.131 430.409, 835.982 435.009 L 828.181 438.931 831.079 448.216 C 835.993 463.956, 835.038 466.924, 822.625 474.500 C 815.145 479.065, 815.134 479.104, 818.500 489 C 821.663 498.300, 821.688 502.409, 818.605 506.451 L 816.210 509.592 845.355 520.926 C 876.002 532.844, 916.845 548.993, 994 579.700 C 1019.575 589.879, 1055.800 604.283, 1074.500 611.710 C 1093.200 619.136, 1122 630.614, 1138.500 637.216 C 1155 643.818, 1172.325 650.716, 1177 652.546 C 1181.675 654.375, 1194.950 659.664, 1206.500 664.299 L 1227.500 672.727 1228.283 667.114 C 1232.671 635.640, 1244.262 606.422, 1260.156 586.766 C 1261.371 585.263, 1262.171 583.862, 1261.933 583.654 C 1261.695 583.445, 1240.125 574.677, 1214 564.168 C 1187.875 553.659, 1145.800 536.695, 1120.500 526.471 C 1082.962 511.302, 977.229 468.782, 869.118 425.380 C 847.946 416.880, 849.234 417.188, 849.728 420.750 M 438.500 530.188 C 428.600 534.058, 411.950 540.492, 401.500 544.486 C 304.447 581.580, 269.056 595.528, 266 597.886 C 261.336 601.485, 257.160 610.014, 256.397 617.500 C 255.720 624.139, 259.323 636.419, 269.922 663.599 C 277.447 682.895, 284.318 689.309, 297.500 689.344 C 304.197 689.362, 295.267 692.621, 415 646.470 C 451.575 632.372, 483.894 619.930, 486.819 618.821 C 491.005 617.234, 491.996 616.452, 491.466 615.152 C 491.096 614.243, 486.385 601.125, 480.996 586 C 475.608 570.875, 468.349 550.513, 464.866 540.750 C 461.382 530.987, 458.075 523.034, 457.516 523.076 C 456.957 523.118, 448.400 526.318, 438.500 530.188 M 411.500 572.952 C 394.818 579.561, 391.035 585.235, 398.400 592.600 C 403.330 597.530, 405.989 597.069, 430.619 587.014 C 436.117 584.770, 438.314 578.441, 435.490 572.980 C 432.176 566.573, 427.615 566.567, 411.500 572.952 M 1276.295 598.281 C 1263.878 612.092, 1250.258 646.742, 1248.355 669.367 C 1247.694 677.221, 1247.697 677.233, 1249.869 676.070 C 1262.029 669.562, 1280 626.250, 1280 603.449 C 1280 596.268, 1279.159 595.095, 1276.295 598.281 M 302 617.493 C 294.654 620.317, 289.687 622.853, 288.250 624.513 C 283.099 630.462, 287.413 640, 295.255 640 C 300.489 640, 320.611 632.462, 324.250 629.138 C 327.958 625.751, 328.024 620.371, 324.411 616.077 C 320.746 611.721, 316.281 612.003, 302 617.493 M 369 618.595 C 351.989 625.200, 348.206 630.609, 355.104 638.465 C 359.281 643.223, 362.114 643.090, 376.718 637.451 C 392.918 631.195, 396.585 626.900, 392.490 618.980 C 389.208 612.633, 384.552 612.557, 369 618.595" stroke="none" fill="#1D5F3A" fill-rule="evenodd"/>
</svg>