<svg xmlns="http://www.w3.org/2000/svg" width="1000" height="410" viewBox="-189.0 124.3 1910.0 783.1">
	<path d="M 919 176.452 C 898.400 181.812, 846.122 195.833, 827.500 200.992 C 819.800 203.126, 809.900 205.831, 805.500 207.003 C 801.100 208.176, 796.430 210.118, 795.121 211.318 C 789.867 216.137, 790 213.785, 790 301.968 L 790 384 564.614 384 L 339.228 384 333.864 386.790 C 326.389 390.678, 281.868 443.612, 279.496 451.432 C 277.518 457.951, 277.470 486.768, 279.427 492.252 C 283.272 503.028, 290.906 508.364, 303.175 508.849 L 312 509.199 312 655.978 L 312 802.757 309.131 803.946 C 300.596 807.481, 298 813.949, 298 831.681 C 298 848.848, 300.478 854.597, 309.315 857.936 C 313.288 859.437, 1220.712 859.437, 1224.685 857.936 C 1233.595 854.570, 1236.006 848.879, 1235.978 831.282 C 1235.950 813.460, 1233.071 806.963, 1223.750 803.679 C 1222.094 803.096, 1222 795.160, 1222 656.031 L 1222 509 1229.386 509 C 1239.011 509, 1245.775 505.709, 1250.951 498.509 L 1254.500 493.571 1254.806 473.388 C 1255.176 449.043, 1255.699 450.640, 1241.887 433.943 C 1236.174 427.037, 1225.973 414.662, 1219.217 406.443 C 1206.872 391.424, 1202.383 387.290, 1196.101 385.155 C 1193.773 384.364, 1181.089 384, 1155.851 384 L 1119 384 1118.996 295.750 C 1118.993 209.420, 1118.949 207.429, 1117.003 204.237 C 1113.975 199.270, 1110.694 198.334, 1081 193.965 C 1065.875 191.740, 1043.825 188.349, 1032 186.431 C 1020.175 184.512, 1003.750 181.847, 995.500 180.508 C 958.204 174.456, 941.697 172.006, 938.717 172.080 C 936.948 172.123, 928.075 174.091, 919 176.452 M 914.500 193.933 C 902.400 197.105, 882.375 202.462, 870 205.838 C 857.625 209.215, 844.145 212.826, 840.044 213.864 C 833.515 215.516, 832.955 215.828, 835.544 216.371 C 839.122 217.122, 865.587 221.694, 876 223.360 L 883.500 224.560 908.500 216.478 C 922.250 212.033, 943.516 205.045, 955.757 200.949 L 978.014 193.502 960.257 190.788 C 937.725 187.345, 940.318 187.167, 914.500 193.933 M 1000.500 202.405 C 995.550 204.208, 975 211.267, 954.834 218.092 C 934.668 224.916, 918.292 230.624, 918.444 230.777 C 918.880 231.214, 973.163 240.915, 976.500 241.153 C 979.149 241.341, 1073.186 212.121, 1077 209.925 C 1078.305 209.173, 1078.292 209.057, 1076.903 209.030 C 1076.025 209.014, 1060.858 206.750, 1043.198 204 C 1025.538 201.250, 1010.732 199.029, 1010.295 199.064 C 1009.858 199.099, 1005.450 200.603, 1000.500 202.405 M 1097.500 220.017 C 1092.920 221.746, 1050.849 235.269, 1005 249.750 L 986.500 255.593 986.244 341.366 L 985.989 427.138 988.244 426.433 C 989.485 426.045, 997.925 423.357, 1007 420.459 C 1040.725 409.691, 1061.857 403.018, 1074.500 399.145 C 1081.650 396.954, 1091.213 393.981, 1095.750 392.538 L 1104 389.913 1104 303.956 C 1104 256.680, 1103.662 218.029, 1103.250 218.065 C 1102.838 218.101, 1100.250 218.979, 1097.500 220.017 M 805 311.818 L 805 396.795 811.750 397.955 C 820.275 399.421, 867.514 408.222, 906 415.515 C 922.225 418.589, 942.700 422.448, 951.500 424.089 C 960.300 425.730, 968.288 427.312, 969.250 427.604 C 970.907 428.107, 971 423.572, 971 342.067 C 971 294.730, 970.681 256, 970.290 256 C 969.396 256, 938.799 250.666, 921.183 247.439 C 913.859 246.098, 907.447 245, 906.933 245 C 906.375 245, 906 257.598, 906 276.326 L 906 307.651 903.686 309.826 C 902.413 311.022, 900.725 312.004, 899.936 312.009 C 898.785 312.017, 878.380 308.502, 867.165 306.364 C 865.880 306.119, 863.743 304.747, 862.415 303.314 L 860 300.708 860 268.468 L 860 236.227 855.250 235.555 C 850.037 234.817, 812.155 228.321, 807.750 227.410 L 805 226.841 805 311.818 M 875 266 C 875 280.300, 875.185 292, 875.412 292 C 875.639 292, 879.351 292.675, 883.662 293.500 C 887.973 294.325, 891.612 295, 891.750 295 C 891.888 295, 892 283.167, 892 268.704 L 892 242.407 884.981 241.204 C 881.121 240.542, 877.296 240, 876.481 240 C 875.211 240, 875 243.700, 875 266 M 342.173 400.319 C 339.700 401.073, 336.362 404.330, 329.173 413.005 C 312.306 433.355, 303.525 444.170, 302.700 445.606 C 302.017 446.797, 369.658 447, 767.007 447 C 1229.762 447, 1232.106 446.990, 1230.732 445.027 C 1229.972 443.942, 1221.734 433.848, 1212.425 422.595 C 1198.917 406.265, 1194.695 401.800, 1191.512 400.480 C 1188.018 399.030, 1183.189 398.857, 1152.512 399.076 C 1117.834 399.325, 1117.476 399.349, 1115 401.567 C 1113.625 402.798, 1108.675 404.999, 1104 406.456 C 1099.325 407.914, 1087.625 411.603, 1078 414.654 C 1000.626 439.183, 981.571 445, 978.588 445 C 977.026 445, 964.217 442.774, 950.124 440.054 C 936.031 437.334, 896.375 429.866, 862 423.459 C 825.134 416.588, 798.292 411.121, 796.554 410.131 C 794.934 409.207, 792.684 406.616, 791.554 404.373 L 789.500 400.295 775.500 399.630 C 752.152 398.520, 345.953 399.167, 342.173 400.319 M 314.878 462.770 L 294.255 463.040 293.692 466.511 C 292.483 473.959, 294.149 488.062, 296.570 490.876 L 298.827 493.500 764.938 493.753 C 1273.602 494.029, 1236.742 494.439, 1239.006 488.483 C 1239.553 487.046, 1240 480.724, 1240 474.435 L 1240 463 1227.750 462.906 C 1195.912 462.662, 332.949 462.533, 314.878 462.770 M 327 656 L 327 803 766.500 803 L 1206 803 1206 656 L 1206 509 766.500 509 L 327 509 327 656 M 395.052 533.782 C 380.695 534.108, 377.020 535.755, 374.986 542.776 C 374.234 545.370, 373.997 581.151, 374.204 660.733 L 374.500 774.967 378.267 778.733 L 382.033 782.500 765.767 782.748 C 1139.841 782.991, 1149.578 782.950, 1152.580 781.117 C 1159.396 776.955, 1159 784.560, 1158.996 657.849 C 1158.993 546.271, 1158.945 543.423, 1157.044 540.304 C 1155.972 538.547, 1153.944 536.354, 1152.537 535.432 C 1150.156 533.872, 1124.266 533.747, 778.739 533.628 C 574.558 533.558, 401.898 533.627, 395.052 533.782 M 389 658.500 L 389 768 766.500 768 L 1144 768 1144 658.500 L 1144 549 766.500 549 L 389 549 389 658.500 M 314.089 819.393 C 313.323 820.315, 313.028 824.626, 313.216 832.143 L 313.500 843.500 766 843.756 C 1190.553 843.995, 1218.577 843.906, 1219.750 842.314 C 1221.697 839.672, 1221.441 821.584, 1219.429 819.571 C 1217.176 817.319, 315.958 817.141, 314.089 819.393" stroke="none" fill="#1D5F3A" fill-rule="evenodd"/>
</svg>