<svg xmlns="http://www.w3.org/2000/svg" width="1000" height="450" viewBox="-196.0 75.3 1910.0 859.5">
	<path d="M 489.137 124.369 C 483.848 126.283, 477.979 131.849, 475.392 137.406 L 473.020 142.500 473.010 285.827 L 473 429.154 475.923 432.077 C 479.565 435.719, 484.168 436.025, 486.443 432.777 C 487.835 430.791, 488 415.302, 488 286.914 L 488 143.273 490.514 140.759 C 491.897 139.376, 494.260 138.058, 495.764 137.831 C 503.707 136.632, 1120.609 137.668, 1122.835 138.885 C 1128.342 141.895, 1128 118.484, 1128 492.968 L 1128 839 1089.506 839 L 1051.012 839 1050.756 517.206 C 1050.513 211.699, 1050.411 195.276, 1048.736 192.720 C 1044.533 186.306, 1067.055 186.842, 794.292 186.668 C 552.650 186.514, 546.430 186.557, 543.699 188.403 C 537.394 192.666, 537.824 179.638, 537.824 366.195 C 537.825 526.380, 537.925 536.259, 539.567 538.074 C 542.011 540.774, 547.105 540.581, 549.826 537.686 L 552 535.371 552 368.186 L 552 201 668 201 L 784 201 784 369 L 784 537 694.250 537.008 C 602.252 537.016, 603.471 536.976, 575.500 540.916 C 571.650 541.458, 563.565 542.399, 557.533 543.007 C 544.893 544.281, 540.842 545.867, 537.439 550.875 L 535 554.464 534.888 624.982 C 534.764 703.090, 535.136 700.765, 529.039 661.500 C 527.331 650.500, 524.368 631.600, 522.455 619.500 C 520.542 607.400, 518.516 594.575, 517.952 591 C 517.387 587.425, 514.472 568.525, 511.474 549 C 499.227 469.249, 499.568 471.049, 494.930 461.699 C 484.890 441.458, 462.175 426.156, 441.961 426.017 C 440.565 426.008, 437.658 425.100, 435.500 424 C 431.801 422.114, 429.609 422, 397.039 422.006 C 375.775 422.009, 361.031 422.419, 358.679 423.072 C 341.686 427.791, 339.226 453.953, 355.018 462.009 C 360.253 464.680, 432.940 465.131, 436.673 462.516 C 438.510 461.230, 439.401 461.216, 443.386 462.416 C 458.162 466.863, 464.059 474.715, 467.074 493.957 C 468.069 500.306, 470.498 515.850, 472.473 528.500 C 474.447 541.150, 476.941 556.900, 478.013 563.500 C 480.015 575.813, 482.268 590.431, 486.492 618.500 C 489.594 639.119, 494.157 668.025, 498.489 694.500 C 500.379 706.050, 502.853 721.800, 503.987 729.500 C 505.121 737.200, 506.460 745.525, 506.964 748 C 507.467 750.475, 508.142 754.135, 508.463 756.132 L 509.046 759.765 502.273 761.015 C 467.908 767.360, 444.135 798.874, 448.805 831.892 C 453.464 864.843, 478.799 887, 511.816 887 C 530.508 887, 542.571 882.213, 555.834 869.532 C 564.020 861.704, 573 847.147, 573 841.704 C 573 840.110, 579.309 840, 670.393 840 C 777.016 840, 769 839.545, 769 845.593 C 769 852.263, 778.381 864.616, 786.272 868.336 C 806.530 877.888, 829.980 865.953, 833.478 844.312 L 834.155 840.124 859.374 839.812 C 881.450 839.539, 884.929 839.280, 887.283 837.736 C 891.941 834.680, 893.337 831.438, 893.779 822.643 C 894.441 809.491, 889.135 804.005, 875.750 804.002 L 869 804 868.994 678.250 C 868.991 598.808, 868.626 551.195, 868.004 548.956 C 866.887 544.935, 861.872 539.640, 857.685 538.061 C 855.945 537.405, 844.199 537, 826.935 537 L 799 537 799 369 L 799 201 917.500 201 L 1036 201 1036 520 L 1036 839 964.135 839 C 892.945 839, 892.245 839.019, 889.635 841.073 C 886.394 843.622, 886.172 847.678, 889.073 851.365 L 891.145 854 1031.073 854 C 1169.667 854, 1171.019 853.981, 1173 852 C 1175.978 849.022, 1175.667 843.670, 1172.365 841.073 C 1169.987 839.202, 1168.378 839, 1155.865 839 L 1142 839 1142 491.178 C 1142 99.960, 1142.832 137.858, 1134.063 129.655 C 1131.384 127.150, 1127.549 124.691, 1125.382 124.089 C 1119.451 122.442, 493.701 122.718, 489.137 124.369 M 369 436.736 C 361.946 437.193, 360.425 437.772, 359.195 440.472 C 357.798 443.537, 359.029 447.410, 361.886 448.939 C 364.838 450.519, 427.211 450.389, 428.800 448.800 C 430.381 447.219, 430.345 439.528, 428.750 438.217 C 427.570 437.247, 379.512 436.056, 369 436.736 M 444 444.481 C 444 447.515, 444.326 448, 446.366 448 C 450.923 448, 462.459 454.752, 468.219 460.791 C 477.875 470.914, 478.891 473.994, 484.451 510 C 485.853 519.075, 488.365 535.050, 490.033 545.500 C 491.701 555.950, 494.139 571.700, 495.451 580.500 C 497.649 595.249, 504.409 638.754, 510.524 677.500 C 511.913 686.300, 513.471 696.425, 513.987 700 C 514.503 703.575, 516.035 713.025, 517.392 721 C 518.748 728.975, 520.596 740.450, 521.496 746.500 C 523.493 759.913, 524.129 761.600, 527.418 762.229 C 530.637 762.845, 530.658 762.346, 528.033 747.001 C 523.840 722.484, 518.055 686.256, 513.021 653 C 511.980 646.125, 509.996 633.525, 508.611 625 C 507.226 616.475, 505.403 604.775, 504.560 599 C 502.151 582.496, 491.895 516.875, 487.569 490.286 C 482.861 461.354, 470.724 446.868, 446.750 441.570 C 444.156 440.996, 444 441.161, 444 444.481 M 1067.396 447.429 C 1065.689 448.172, 1063.214 450.292, 1061.896 452.140 L 1059.500 455.500 1059.232 506 C 1058.877 572.812, 1056.357 568, 1091.698 568 C 1127.183 568, 1124.001 573.948, 1123.996 507.615 C 1123.992 449.073, 1124.188 450.648, 1116.510 447.440 C 1111.732 445.443, 1071.978 445.435, 1067.396 447.429 M 1074.689 460.644 C 1074.310 461.023, 1074 482.183, 1074 507.667 L 1074 554 1092.010 554 L 1110.020 554 1109.760 507.250 L 1109.500 460.500 1092.439 460.227 C 1083.056 460.077, 1075.069 460.265, 1074.689 460.644 M 1085.500 469.417 C 1073.529 474.761, 1071.364 490.836, 1081.566 498.618 C 1086.523 502.399, 1097.081 502.814, 1101.677 499.408 C 1117.833 487.437, 1103.725 461.282, 1085.500 469.417 M 1089.556 483.910 C 1088.600 485.456, 1090.120 488, 1092 488 C 1093.924 488, 1094.973 486.266, 1094.269 484.250 C 1093.766 482.806, 1090.388 482.563, 1089.556 483.910 M 1083.830 515.027 C 1073.763 520.345, 1072.044 533.804, 1080.398 541.901 C 1090.663 551.851, 1109 544.388, 1109 530.262 C 1109 517.423, 1095.157 509.044, 1083.830 515.027 M 1090.036 528.456 C 1088.537 530.263, 1089.500 532, 1092 532 C 1093.035 532, 1094.172 531.530, 1094.527 530.956 C 1095.190 529.883, 1093.348 527, 1092 527 C 1091.585 527, 1090.701 527.655, 1090.036 528.456 M 603.035 553.934 C 601.594 556.627, 601.594 799.373, 603.035 802.066 C 604.663 805.107, 852.337 805.107, 853.965 802.066 C 854.662 800.763, 855 760.276, 855 678 C 855 595.724, 854.662 555.237, 853.965 553.934 C 852.964 552.065, 851.385 552, 806.965 552 L 761 552 761 579.423 L 761 606.847 758.411 609.923 L 755.822 613 731.863 613 L 707.905 613 705.452 610.354 L 703 607.708 703 579.854 L 703 552 653.535 552 C 605.654 552, 604.037 552.062, 603.035 553.934 M 717 575.500 L 717 599 731.363 599 L 745.726 599 746.251 592.466 C 746.539 588.873, 746.535 578.298, 746.241 568.966 L 745.707 552 731.354 552 L 717 552 717 575.500 M 574 555.549 C 568.775 556.285, 561.575 557.197, 558 557.577 C 554.425 557.958, 550.938 558.713, 550.250 559.257 C 549.264 560.036, 549 582.597, 549 666.039 L 549 771.834 555.648 778.167 C 562.966 785.139, 569.397 794.256, 571.170 800.173 L 572.317 804 580.158 804 L 588 804 588 679 L 588 554 585.750 554.106 C 584.513 554.165, 579.225 554.814, 574 555.549 M 497.406 777.388 C 450.270 792.660, 452.184 858.786, 500.131 871.547 C 524.983 878.162, 552.181 862.347, 559.145 837.234 C 569.474 799.983, 533.950 765.548, 497.406 777.388 M 499.844 788.339 C 483.313 794.492, 474.676 806.860, 474.592 824.500 C 474.429 858.841, 516.665 874.842, 540.021 849.287 C 552.537 835.593, 552.758 812.846, 540.509 799.221 C 533.122 791.005, 525.488 787.628, 513.500 787.273 C 506.848 787.077, 502.276 787.434, 499.844 788.339 M 503.323 802.638 C 494.267 805.847, 487.470 817.419, 488.942 827.121 C 491.745 845.588, 513.363 853.701, 526.983 841.396 C 546.354 823.896, 528.033 793.882, 503.323 802.638 M 595.250 818.772 L 576 819.043 576 822.022 L 576 825 728 825 L 880 825 880 822 C 880 819.221, 879.724 818.991, 876.250 818.881 C 867.954 818.618, 613.164 818.519, 595.250 818.772 M 783 841.789 C 783 849.288, 792.002 856.737, 801.290 856.924 C 807.537 857.049, 817.963 850.035, 818.014 845.673 C 818.021 845.028, 818.299 843.487, 818.630 842.250 L 819.233 840 801.117 840 C 784.381 840, 783 840.136, 783 841.789" stroke="none" fill="#1D5F3A" fill-rule="evenodd"/>
</svg>