<svg xmlns="http://www.w3.org/2000/svg" width="1000" height="436" viewBox="-249.5 91.9 1925.0 839.3">
	<path d="M 852 141.090 C 790.455 149.012, 742.841 188.387, 726.404 244.953 C 716.031 280.649, 725.912 311.882, 754.133 332.597 C 759.821 336.773, 759.728 335.966, 756.515 353.183 C 753.149 371.222, 752.622 372.809, 747.930 379.063 C 743.222 385.338, 736.919 397.922, 734.305 406.261 C 732.622 411.633, 732.230 412.097, 728.506 413.116 C 718.420 415.875, 708.022 425.324, 704.653 434.790 C 702.810 439.969, 702.701 454.269, 704.454 461 C 705.951 466.749, 667.500 528.551, 642.638 560.356 C 591.261 626.081, 544.895 668.166, 458.500 727.495 C 384.924 778.020, 367.441 794.951, 362.975 820 C 358.595 844.568, 372.452 864.193, 401.513 874.580 C 428.847 884.349, 475.090 885.540, 512.191 877.430 C 523.866 874.878, 543.321 869.403, 546.500 867.774 C 554.174 863.844, 555.498 856.400, 549.465 851.104 C 545.086 847.259, 545.221 847.256, 531.103 851.431 C 479.287 866.752, 427.600 866.512, 397.854 850.812 C 380.597 841.704, 377.448 827.709, 388.699 810.121 C 398.445 794.885, 411.386 784.445, 472.484 742.527 C 522.682 708.087, 546.105 689.659, 582.869 655.682 C 632.521 609.794, 679.519 550.183, 712.501 491.259 C 716.269 484.527, 719.507 479.174, 719.696 479.362 C 720.358 480.025, 712.518 497.663, 703.855 515 C 684.919 552.898, 669.774 574.964, 632.651 618.740 C 606.124 650.022, 594.708 671.255, 587.348 703 C 582.812 722.566, 583.150 751.448, 588.154 771.916 C 588.582 773.668, 581.698 775.213, 563.500 777.451 C 533.145 781.183, 528.186 782.684, 520.371 790.499 C 503.851 807.019, 515.711 829.705, 544.500 836.656 C 560.334 840.479, 594.915 838.511, 619.483 832.390 L 629.467 829.902 634.983 831.881 C 646.429 835.987, 649.521 836.116, 729.500 835.802 L 806.500 835.500 810.666 833.273 C 816.221 830.302, 818.867 826.321, 820.159 818.989 C 823.199 801.728, 813.643 781.471, 798.917 773.958 C 794.173 771.537, 793.789 772.491, 804.377 760.372 C 808.159 756.042, 813.532 749.248, 816.316 745.273 C 819.100 741.297, 821.539 738.206, 821.736 738.403 C 821.933 738.599, 823.193 747.252, 824.537 757.630 C 827.887 783.498, 829.792 795.434, 831.700 802.500 C 835.484 816.510, 843.731 827.756, 853.875 832.738 L 859.500 835.500 892 835.500 C 923.909 835.500, 924.569 835.459, 928.307 833.250 C 931.904 831.124, 933.188 831, 951.589 831 C 971.849 831, 975.681 830.362, 980.355 826.212 C 987.889 819.522, 987.972 798.745, 980.523 784.046 C 975.277 773.693, 966.268 766.848, 951.500 761.996 C 945.173 759.917, 943.229 758.809, 942.203 756.699 C 935.689 743.301, 934.513 676.902, 939.606 610.153 C 941.082 590.817, 941.333 589.400, 944.650 581.653 C 957.498 551.652, 962 529.680, 962 496.983 C 962 467.839, 955.577 434.553, 946.605 417.203 C 945.825 415.694, 944.712 411.893, 944.132 408.756 C 942.994 402.598, 940.615 373.052, 941.210 372.457 C 941.408 372.258, 947.405 371.196, 954.536 370.096 C 975.621 366.845, 1000.137 358.466, 1015.419 349.287 C 1045.306 331.337, 1060.721 305.788, 1064.163 268.500 C 1065.453 254.524, 1064.706 250.380, 1059.723 243.880 C 1055.221 238.008, 1050.795 236.074, 1036.728 233.834 C 1005.038 228.786, 990.970 225.061, 986.420 220.511 C 985.202 219.293, 983.003 214.318, 981.510 209.402 C 970.338 172.627, 939.673 147.785, 897.769 141.563 C 886.536 139.895, 863.162 139.654, 852 141.090 M 856 161.519 C 809.100 167.333, 773.603 191.018, 754.324 229.361 C 731.688 274.378, 741.324 305.802, 784.567 327.983 C 816.516 344.372, 834.538 336.813, 840.557 304.500 C 843.028 291.238, 842.177 280.872, 834.483 230.536 C 832.521 217.696, 832.937 213.719, 836.650 209.844 C 838.784 207.616, 840.270 207, 843.513 207 C 850.457 207, 852 209.595, 854.058 224.736 C 855.012 231.756, 857.027 245.600, 858.536 255.500 C 862.247 279.839, 862.454 301.282, 859.107 314.500 C 849.528 352.335, 822.166 365.914, 785.759 350.901 C 778.282 347.818, 777.090 348.035, 776.983 352.500 C 776.956 353.600, 775.903 359.530, 774.642 365.678 L 772.349 376.857 787.924 384.326 C 828.793 403.924, 872.343 414.655, 907.722 413.846 C 916.035 413.656, 923.158 413.178, 923.551 412.784 C 923.945 412.389, 923.667 407.664, 922.934 402.284 C 922.202 396.903, 921.580 384.768, 921.551 375.318 L 921.500 358.135 924.437 355.068 C 926.984 352.408, 928.071 352, 932.615 352 C 937.964 352, 952.305 350.333, 954.983 349.401 C 955.932 349.070, 954.583 347.916, 951.233 346.192 C 938.863 339.828, 930.930 331.108, 932.568 325.677 C 934.890 317.979, 943.483 315.583, 949.578 320.935 C 962.644 332.407, 984.081 336.662, 1001.546 331.250 C 1015.868 326.812, 1028.035 315.466, 1035.592 299.500 C 1040.908 288.268, 1040.899 287.836, 1035.286 285.560 C 1023.915 280.949, 1016 268.956, 1016 256.338 C 1016 251.631, 1015.748 250.992, 1013.750 250.626 C 977.236 243.936, 969.763 238.575, 961.274 212.983 C 957.149 200.547, 952.311 192.239, 945.078 185.167 C 925.217 165.751, 892.316 157.016, 856 161.519 M 910.265 230.363 C 899.416 240.614, 905.724 257.985, 920.300 257.996 C 929.799 258.004, 936 251.739, 936 242.136 C 936 232.175, 930.083 226, 920.537 226 C 915.235 226, 914.596 226.271, 910.265 230.363 M 1036 256.416 C 1036 260.536, 1037.768 263.829, 1040.830 265.412 C 1044.456 267.287, 1045 266.760, 1045 261.369 C 1045 256.822, 1044.157 255.912, 1038.750 254.619 C 1036.319 254.038, 1036 254.246, 1036 256.416 M 759.081 398.735 C 757.799 401.356, 755.888 405.975, 754.834 409 L 752.918 414.500 755.209 415.926 C 756.469 416.710, 760.200 420.137, 763.500 423.541 C 767.039 427.192, 771.961 430.969, 775.500 432.750 C 830.882 460.623, 895.058 478.153, 931.793 475.442 L 941.086 474.756 940.445 470.128 C 939.228 461.327, 936.868 450.465, 934.268 441.696 L 931.658 432.892 923.579 433.696 C 880.084 438.024, 822.421 425.143, 773.604 400.196 C 767.497 397.075, 762.255 394.397, 761.956 394.246 C 761.657 394.095, 760.364 396.115, 759.081 398.735 M 732.395 433.081 C 725.988 434.940, 721.157 443.202, 722.827 449.447 L 723.601 452.341 725.767 448.670 C 730.585 440.504, 739.861 440.446, 743.729 448.557 C 745.310 451.873, 745.318 452.463, 743.833 456.593 L 742.230 461.050 745.330 459.240 C 754.824 453.695, 754.367 438.342, 744.576 433.895 C 740.148 431.884, 737.200 431.687, 732.395 433.081 M 771.386 455.761 C 768.021 466.542, 759.187 476.290, 749.497 479.915 C 746.432 481.062, 743.244 482, 742.411 482 C 741.579 482, 740.208 483.688, 739.364 485.750 C 722.295 527.477, 703.838 560.740, 680.686 591.500 C 672.426 602.475, 667.258 608.819, 643.624 637 C 615.925 670.027, 602.950 703.695, 604.316 739 C 605.965 781.614, 624.448 811.038, 652.075 815.031 C 659.149 816.054, 795.094 816.349, 798.825 815.350 C 800.996 814.769, 801.105 814.388, 800.471 809.614 C 799.412 801.641, 795.692 795.694, 789.735 792.452 C 784.999 789.875, 783.548 789.643, 767.088 788.834 C 757.414 788.359, 744.976 788.250, 739.447 788.591 L 729.393 789.212 726.197 785.571 C 720.381 778.947, 721.986 774.784, 733.317 767.099 C 770.498 741.881, 785.183 688.960, 763.861 657.030 C 752.314 639.737, 729.272 633.451, 705 640.971 C 696.068 643.738, 693.428 643.582, 689.923 640.077 C 683.270 633.424, 687.596 625.086, 699.747 621.139 C 755.935 602.890, 803.317 647.822, 792.524 709.119 C 788.986 729.212, 776.784 754.748, 766.106 764.405 C 763.344 766.903, 763.444 768, 766.434 768 C 771.711 768, 791.752 746.419, 804.281 727.244 C 815.288 710.397, 817.917 704.881, 817.328 699.861 C 813.748 669.333, 806.989 624.211, 800.505 587.561 C 798.082 573.866, 800.453 569, 809.546 569 C 813.597 569, 819 572.970, 819 575.946 C 819 576.381, 819.657 580.509, 820.460 585.119 C 828.802 633.024, 835.792 681.417, 841.096 728 C 846.574 776.106, 850.063 796.392, 854.362 805.120 C 859.434 815.418, 859.527 815.446, 890.500 815.783 C 906.147 815.953, 917.081 815.679, 917.958 815.095 C 919.230 814.249, 919.199 813.219, 917.721 807.060 C 914.759 794.719, 912.656 792.614, 895.817 785.136 C 877.562 777.029, 876.074 765.900, 876.026 637.173 L 876 565.846 878.923 562.923 C 883.150 558.696, 888.068 558.868, 892.600 563.400 L 896 566.800 896.036 594.650 L 896.072 622.500 898.571 619.500 C 922.337 590.965, 940.029 545.431, 941.698 508.506 L 942.297 495.251 930.821 495.757 C 892.261 497.459, 836.227 483.724, 786 460.259 C 772.042 453.737, 772.020 453.731, 771.386 455.761 M 906.750 641.041 L 896 653.985 896.010 682.743 C 896.020 713.290, 897.397 747.018, 898.993 755.820 C 900.558 764.450, 901.767 766.034, 909.020 768.958 C 925.870 775.752, 937.903 791.455, 937.979 806.750 L 938 811 951.893 811 C 967.795 811, 967.627 811.100, 965.874 802.715 C 963.305 790.431, 958.213 785.220, 944.783 781.130 C 935.960 778.444, 933.235 776.938, 928.860 772.332 C 918.393 761.311, 916.593 746.526, 917.165 676.250 C 917.382 649.712, 917.545 628.022, 917.529 628.048 C 917.513 628.075, 912.663 633.922, 906.750 641.041 M 589.500 794.070 C 586.107 795.087, 570.503 797.326, 555.269 798.984 C 539.173 800.735, 533 803.205, 533 807.895 C 533 814.659, 559.229 820.194, 581.153 818.057 C 593.220 816.880, 610 814.116, 610 813.305 C 610 813.037, 608.515 811.083, 606.701 808.964 C 604.886 806.844, 601.849 802.398, 599.951 799.084 C 596.313 792.733, 595.411 792.300, 589.500 794.070" stroke="none" fill="#1D5F3A" fill-rule="evenodd"/>
</svg>