<svg xmlns="http://www.w3.org/2000/svg" width="1000" height="359" viewBox="-205.5 171.6 1935.0 694.7">
	<path d="M 1026.500 221.881 C 1019.718 224.995, 1018.051 227.814, 1013.574 243.736 C 1010.775 253.693, 1010.353 261.794, 1012.388 266.500 C 1013.501 269.076, 1013.421 270.274, 1011.822 274.967 C 1009.506 281.761, 1007.282 284.123, 993.500 294.426 C 971.837 310.621, 968.530 315.987, 958.943 350.500 C 952.982 371.957, 952 374.969, 952 371.784 C 952 370.931, 948.576 358.369, 944.390 343.867 C 940.205 329.365, 935.210 311.654, 933.291 304.509 C 928.468 286.553, 926.410 283.341, 917 279.081 C 909.237 275.567, 906.385 276.106, 852.061 291.357 C 796.166 307.048, 796.064 307.090, 791.128 315.925 C 786.135 324.863, 786.608 328.256, 798.525 369 C 808.393 402.736, 811.958 415.114, 811.988 415.750 C 811.995 415.887, 806.038 416.013, 798.750 416.028 C 785.751 416.056, 785.387 416.117, 779.530 419.278 C 768.151 425.420, 764 434.172, 764 452.023 C 764 472.188, 770.680 483.235, 785.473 487.535 L 790.574 489.018 794.908 534.759 C 801.164 600.773, 801.755 607.105, 803.986 632 C 806.071 655.267, 807.166 666.959, 811.478 712 C 817.246 772.245, 817.889 777.629, 819.992 783.249 C 825.934 799.132, 838.216 810.429, 854.932 815.388 C 862.984 817.778, 1132.304 817.853, 1141.458 815.469 C 1155.820 811.728, 1168.154 801.779, 1174.308 788.972 C 1178.610 780.020, 1179.365 776.478, 1181.444 755.500 C 1182.316 746.700, 1183.921 730.500, 1185.011 719.500 C 1186.101 708.500, 1188.352 683.300, 1190.015 663.500 C 1193.121 626.508, 1197.211 582.418, 1199.014 566.500 C 1200.038 557.457, 1205.989 492.526, 1205.996 490.321 C 1205.998 489.672, 1208.445 488.431, 1211.434 487.562 C 1219.243 485.292, 1224.872 480.595, 1228.743 473.117 C 1231.987 466.851, 1232 466.766, 1231.990 452.163 C 1231.981 438.896, 1231.758 437.024, 1229.642 432.500 C 1225.398 423.426, 1215.132 416.032, 1206.750 416.010 C 1204.688 416.004, 1203 415.813, 1203 415.585 C 1203 415.357, 1204.846 410.744, 1207.102 405.335 C 1209.359 399.926, 1212.096 392.800, 1213.186 389.500 C 1219.199 371.287, 1207.917 356.256, 1177.443 341.881 C 1148.705 328.326, 1121.397 326.419, 1111.230 337.259 C 1109.433 339.175, 1098.651 362.229, 1085.280 392.749 C 1083.292 397.287, 1081.544 400.878, 1081.396 400.730 C 1081.249 400.582, 1082.918 394.395, 1085.106 386.980 C 1095.640 351.289, 1095.656 346.974, 1085.352 320.800 C 1078.869 304.333, 1078.415 302.135, 1079.961 294.689 C 1080.997 289.700, 1081.568 288.809, 1084.950 286.908 C 1089.453 284.377, 1091.769 279.847, 1095.480 266.304 C 1098.648 254.745, 1098.680 249.003, 1095.616 242.421 C 1091.606 233.810, 1090.878 233.440, 1062.500 225.552 C 1040.360 219.398, 1033.442 218.693, 1026.500 221.881 M 1038.583 246.181 C 1038.359 246.906, 1037.703 248.983, 1037.124 250.795 C 1036.334 253.271, 1036.374 254.197, 1037.286 254.516 C 1037.954 254.751, 1045.025 256.765, 1053 258.993 C 1060.975 261.221, 1068.194 263.260, 1069.042 263.523 C 1070.379 263.939, 1073.886 255.460, 1072.782 254.480 C 1072.627 254.343, 1065.750 252.346, 1057.500 250.042 C 1049.250 247.739, 1041.710 245.632, 1040.745 245.358 C 1039.780 245.085, 1038.807 245.456, 1038.583 246.181 M 491 268.276 C 483.502 270.841, 477.856 274.002, 469.357 280.391 C 460.534 287.023, 459.516 287.271, 440.500 287.420 C 417.616 287.600, 408.455 291.348, 401.605 303.334 C 391.650 320.753, 396.533 335.203, 422.381 364.813 C 433.275 377.293, 441.883 387.645, 447.157 394.608 L 451.025 399.715 447.645 405.329 C 444.410 410.702, 442.336 419.057, 443.478 422.123 C 443.831 423.072, 440.339 425.366, 432.249 429.500 C 367.444 462.616, 322.828 524.080, 310.432 597.322 C 309.489 602.891, 308.531 618.101, 307.996 636 C 307.097 666.010, 306.341 672.303, 302.047 685.487 C 287.080 731.438, 290.783 760.747, 314.570 784.627 C 337.814 807.962, 378.370 815.185, 494.500 816.674 C 575.056 817.706, 637.799 813.709, 671.500 805.398 C 720.038 793.429, 739.722 756.333, 726.151 702.400 C 720.853 681.344, 720.002 673.837, 719.989 648.026 C 719.966 600.658, 712.350 565.462, 694.413 529.822 C 673.211 487.697, 636.848 451.077, 593.887 428.586 L 584.500 423.672 584.331 417.954 C 584.168 412.465, 581.658 405.661, 578.439 401.982 C 577.300 400.681, 578.563 398.667, 587.305 387.843 C 619.676 347.767, 622.160 344.347, 628.020 331.789 C 640.968 304.043, 626.057 278.477, 597 278.605 C 588.492 278.642, 586.166 279.098, 574.724 282.974 C 559.496 288.132, 558.366 287.996, 546.869 279.626 C 532.301 269.019, 523.654 265.988, 508.068 266.026 C 499.809 266.046, 496.080 266.538, 491 268.276 M 1035.622 281.137 C 1031.701 294.438, 1027.171 300.375, 1012.500 311.442 C 999.166 321.501, 992.934 327.292, 990.611 331.786 C 989.052 334.801, 986.382 343.827, 975.019 384.500 C 971.638 396.600, 968.249 408.642, 967.487 411.261 L 966.101 416.021 1008.713 415.761 L 1051.325 415.500 1057.688 393.500 C 1069.370 353.104, 1069.323 353.319, 1068.033 346.762 C 1067.407 343.578, 1064.842 335.916, 1062.334 329.736 C 1055.291 312.383, 1054.729 309.911, 1055.240 298.526 C 1055.487 293.012, 1055.991 287.822, 1056.358 286.994 C 1056.888 285.800, 1055.217 285.001, 1048.263 283.126 C 1043.443 281.827, 1038.718 280.541, 1037.762 280.268 C 1036.802 279.995, 1035.844 280.383, 1035.622 281.137 M 499.847 291.915 C 496.612 292.950, 490.538 296.363, 485.646 299.895 C 470.654 310.717, 468.278 311.478, 449 311.630 C 427.242 311.802, 428.586 311.636, 425.077 314.589 C 419.637 319.166, 422.121 325.571, 435.179 340.642 C 455.924 364.587, 468.752 380.540, 475.470 390.750 L 478.266 395 497.421 395 L 516.576 395 520.251 383.750 C 522.272 377.563, 524.643 368.900, 525.518 364.500 C 527.394 355.078, 528.958 352.333, 533.546 350.416 C 539.523 347.919, 546.733 349.923, 548.903 354.686 C 551.367 360.095, 549.380 374.037, 543.477 392.750 C 542.851 394.732, 543.115 395, 545.692 395 C 549.166 395, 550.547 393.967, 555.047 388 C 558.649 383.224, 572.180 366.200, 583.788 351.839 C 604.490 326.229, 609.975 316.183, 607.077 309.187 C 604.184 302.200, 596.455 301.457, 582.862 306.856 C 562.667 314.878, 550.960 313.396, 532.419 300.469 C 517.251 289.894, 511.165 288.296, 499.847 291.915 M 897 304.440 C 889.201 306.906, 824.953 325.015, 816.905 327.017 L 812.310 328.159 820.602 356.830 C 825.163 372.598, 830.870 392.250, 833.285 400.500 L 837.676 415.500 888.338 415.759 C 930.915 415.977, 939 415.798, 939 414.636 C 939 413.876, 937.404 407.909, 935.453 401.377 C 930.053 383.299, 928.683 378.545, 920.929 351 C 907.725 304.089, 907.235 302.505, 905.851 302.285 C 905.108 302.167, 901.125 303.137, 897 304.440 M 1139.321 357.012 C 1141.392 358.660, 1142.439 358.961, 1143.255 358.145 C 1144.676 356.724, 1144.271 356.395, 1140 355.500 L 1136.500 354.766 1139.321 357.012 M 1176.725 371.944 C 1176.192 373.981, 1176.422 374.122, 1182.484 375.485 L 1185.467 376.155 1182.484 373.899 C 1180.843 372.657, 1178.992 371.263, 1178.372 370.800 C 1177.652 370.262, 1177.056 370.676, 1176.725 371.944 M 1117.635 380.261 C 1116.354 383.142, 1112.311 392.095, 1108.653 400.155 C 1104.994 408.215, 1102 415.083, 1102 415.417 C 1102 415.751, 1118.757 415.906, 1139.239 415.762 L 1176.477 415.500 1179.162 409 C 1182.769 400.269, 1182.775 400.293, 1176.750 399.477 C 1162.835 397.593, 1142.098 389.449, 1128.278 380.441 L 1119.965 375.022 1117.635 380.261 M 512.250 418.750 C 471.790 418.998, 464.546 419.459, 469.750 421.458 C 476.311 423.978, 556.843 423.557, 559.410 420.990 C 560.420 419.980, 558.362 417.644, 557 418.255 C 556.725 418.378, 536.587 418.601, 512.250 418.750 M 790.073 442.635 C 786.593 447.058, 787.082 458.236, 790.923 462.077 L 793.846 465 998.288 465 L 1202.730 465 1205.365 462.927 C 1207.854 460.970, 1208 460.368, 1208 452.082 C 1208 444.854, 1207.678 443.019, 1206.171 441.655 C 1204.482 440.126, 1188.618 440, 998.244 440 L 792.145 440 790.073 442.635 M 446.420 450.338 C 396.777 476.113, 358.183 520.833, 342.201 571.102 C 334.657 594.830, 332.289 611.887, 331.597 647.500 C 331.103 672.948, 330.904 674.265, 323.890 698.437 C 317.547 720.294, 316.171 731.174, 318.452 741.427 C 323.173 762.648, 337.464 775.906, 362 781.826 C 391.357 788.911, 442.196 792.430, 515 792.418 C 602.882 792.404, 658.884 786.707, 680.918 775.542 C 691.285 770.288, 699.985 760.188, 703.850 748.920 C 707.858 737.232, 707.482 729.306, 701.884 707.500 C 697.303 689.657, 696.954 686.322, 696.029 651.500 C 694.963 611.333, 693.418 600.453, 684.817 572.500 C 671.217 528.301, 641.176 489.232, 599.500 461.543 C 584.461 451.552, 569.299 444.094, 566 445.065 C 564.625 445.469, 561.775 445.845, 559.667 445.900 C 557.558 445.955, 555.985 446.337, 556.170 446.750 C 556.356 447.163, 558.386 451.325, 560.681 456 C 568.379 471.676, 576.169 499.224, 574.632 505.336 C 572.536 513.670, 561.329 516.684, 554.527 510.743 C 552.557 509.022, 551.399 506.173, 549.551 498.500 C 545.360 481.094, 538.897 465.648, 530.826 453.750 L 526.925 448 512.966 448 L 499.006 448 494.885 451.723 C 482.469 462.940, 468.085 485.019, 460.117 505.089 C 454.821 518.430, 436 516.193, 436 502.222 C 436 496.039, 448.189 470.967, 458.662 455.609 C 462.785 449.562, 464.471 446.294, 463.684 445.874 C 459.870 443.839, 458.014 444.319, 446.420 450.338 M 815 489.502 C 815 490.490, 820.048 544.080, 823.007 574.500 C 824.665 591.550, 826.492 610.900, 827.067 617.500 C 827.642 624.100, 828.994 638.500, 830.071 649.500 C 831.148 660.500, 833.831 689.075, 836.033 713 C 842.083 778.726, 841.718 776.965, 851.011 785.320 C 860.235 793.614, 849.325 793.070, 1000.511 792.768 L 1134.500 792.500 1139.239 790.166 C 1144.452 787.599, 1150.844 780.955, 1153.514 775.330 C 1154.651 772.934, 1155.860 765.246, 1157.088 752.605 C 1158.109 742.097, 1159.642 726.975, 1160.495 719 C 1161.348 711.025, 1162.917 694.150, 1163.982 681.500 C 1165.046 668.850, 1167.070 645.675, 1168.479 630 C 1170.871 603.381, 1171.950 592.036, 1176.991 540.500 C 1178.067 529.500, 1179.419 515.100, 1179.997 508.500 C 1180.574 501.900, 1181.301 494.813, 1181.611 492.750 L 1182.176 489 998.588 489 C 897.615 489, 815 489.226, 815 489.502 M 899.353 541.926 C 894.949 544.612, 893.719 549.070, 894.440 559.744 C 894.766 564.560, 895.698 578.850, 896.513 591.500 C 897.327 604.150, 898.652 624.625, 899.458 637 C 900.264 649.375, 901.890 676.600, 903.073 697.500 C 905.509 740.553, 905.720 741.589, 912.500 743.810 C 917.761 745.534, 922.619 744.535, 926.150 741.003 C 928.727 738.427, 929 737.500, 928.998 731.327 C 928.996 725.455, 925.256 662.679, 922.037 614.500 C 921.486 606.250, 920.343 587.867, 919.498 573.648 C 918.653 559.429, 917.491 546.918, 916.917 545.844 C 914.039 540.467, 905.039 538.459, 899.353 541.926 M 992.314 541.950 C 990.561 543.019, 988.649 544.787, 988.064 545.881 C 987.333 547.245, 987 577.690, 987 643.011 L 987 738.154 989.850 741.003 C 995.417 746.571, 1005.473 745.547, 1009.328 739.021 C 1011.716 734.980, 1011.913 552.120, 1009.536 546.432 C 1007.033 540.442, 998.451 538.208, 992.314 541.950 M 1084.294 541.724 C 1079.590 544.067, 1078.353 548.347, 1077.568 565 C 1076.412 589.492, 1071.043 679.351, 1069.479 700.372 C 1067.145 731.733, 1067.350 737.504, 1070.923 741.077 C 1076.994 747.148, 1089.769 743.901, 1091.373 735.878 C 1091.847 733.506, 1093.852 702.165, 1098.499 624.500 C 1099.848 601.950, 1101.424 575.737, 1102.001 566.248 C 1102.924 551.070, 1102.858 548.627, 1101.458 545.920 C 1098.667 540.521, 1090.647 538.561, 1084.294 541.724" stroke="none" fill="#1D5F3A" fill-rule="evenodd"/>
</svg>