<svg xmlns="http://www.w3.org/2000/svg" width="1000" height="323" viewBox="-194.0 193.9 1925.0 621.8">
	<path d="M 977.045 243.069 C 961.265 246.245, 954.879 253.049, 939.072 283.533 C 932.236 296.715, 924.302 312, 921.440 317.500 L 916.236 327.500 910.368 328.146 C 907.141 328.501, 879.380 328.846, 848.677 328.913 C 787.594 329.046, 789.654 328.852, 782.519 335.118 C 771.954 344.393, 770.877 362.487, 780.281 372.689 C 788.584 381.697, 787.314 381.468, 830.469 381.733 L 868.439 381.966 871.181 392.233 C 872.689 397.880, 876.891 413.975, 880.519 428 C 884.147 442.025, 888.869 460.025, 891.012 468 C 893.154 475.975, 901.265 507.025, 909.036 537 C 916.807 566.975, 925.828 601.732, 929.082 614.239 C 932.337 626.745, 935 637.208, 935 637.489 C 935 637.770, 873.397 638, 798.105 638 C 641.085 638, 653.311 637.293, 642.710 646.982 C 633.104 655.761, 631.500 660.844, 631.500 682.500 C 631.500 700.231, 631.543 700.593, 634.385 706.747 C 637.525 713.546, 643.310 719.587, 649.901 722.949 C 653.591 724.832, 654.001 725.413, 654.006 728.770 C 654.015 734.835, 655.899 739.882, 659.741 744.136 C 665.931 750.987, 665.998 751, 694.337 751 L 719.774 751 724.567 747.750 C 730.047 744.034, 733.027 738.999, 733.774 732.189 C 734.057 729.610, 734.786 727.169, 735.395 726.765 C 736.003 726.361, 819.412 726.024, 920.750 726.015 L 1105 726 1105 729.322 C 1105 737.628, 1111.341 747.278, 1118.617 750.045 C 1123.224 751.796, 1169.673 751.249, 1173.575 749.397 C 1180.736 745.999, 1185.980 737.550, 1185.994 729.387 C 1186 726.288, 1186.029 726.272, 1192.269 725.771 C 1200.149 725.138, 1207.220 721.655, 1212.705 715.704 C 1220.832 706.888, 1222.380 700.660, 1221.837 678.962 C 1221.387 661.013, 1219.618 655.509, 1211.883 648.002 C 1203.922 640.276, 1199.463 638.711, 1183.577 638.066 L 1169.655 637.500 1162.841 611 C 1159.093 596.425, 1149.879 560.875, 1142.366 532 C 1134.853 503.125, 1125.408 466.675, 1121.376 451 C 1117.345 435.325, 1111.617 413.163, 1108.648 401.750 L 1103.250 381 1107.976 381 C 1121.909 381, 1131.933 370.233, 1131.978 355.218 C 1132.025 339.811, 1122.097 329.077, 1107.750 329.022 C 1104.588 329.010, 1102 328.816, 1102 328.590 C 1102 328.365, 1106.098 319.478, 1111.107 308.840 C 1116.116 298.203, 1121.066 286.872, 1122.107 283.661 C 1126.063 271.457, 1123.804 260.674, 1115.565 252.435 C 1107.250 244.120, 1108.366 244.267, 1048.357 243.564 C 1019.836 243.229, 993.125 242.780, 989 242.564 C 984.875 242.349, 979.495 242.576, 977.045 243.069 M 976.900 263.902 C 971.216 267.047, 967.807 271.713, 959.185 288.150 C 937.962 328.608, 933.255 337.777, 925.032 354.668 C 914.191 376.935, 914.425 376.205, 916.449 381.507 C 919.421 389.287, 916.831 389, 984.085 389 C 1050.460 389, 1048.724 389.181, 1054.444 381.648 C 1056.280 379.229, 1088 312.875, 1088 311.452 C 1088 311.282, 1090.842 305.147, 1094.315 297.821 C 1105.339 274.567, 1105.657 273.601, 1103.674 269.443 C 1100.617 263.032, 1101.455 263.121, 1037.852 262.485 C 981.892 261.925, 980.413 261.959, 976.900 263.902 M 983.415 274.395 C 978.741 276.470, 976.721 279.644, 964.900 303.485 C 952.709 328.075, 951.644 332.451, 956.097 339.656 C 959.977 345.936, 959.329 345.853, 1007.234 346.192 L 1050.793 346.500 1054.647 343.404 C 1057.922 340.772, 1060.035 336.950, 1068.740 317.904 C 1078.892 295.690, 1078.977 295.442, 1078.700 288.637 C 1078.439 282.196, 1078.202 281.573, 1074.844 278.496 C 1071.300 275.248, 1071.146 275.211, 1058.883 274.636 C 1027 273.139, 986.534 273.010, 983.415 274.395 M 984.461 309.077 C 979.808 318.373, 976 326.156, 976 326.373 C 976 327.304, 1041.201 328.199, 1042.119 327.281 C 1043.622 325.778, 1057.921 293.521, 1057.168 293.333 C 1056.800 293.241, 1042.195 292.944, 1024.711 292.672 L 992.923 292.177 984.461 309.077 M 797.596 348.514 C 794.587 350.014, 792.578 354.183, 793.361 357.301 C 794.779 362.954, 795.264 363.003, 849.700 362.973 L 899.500 362.946 902.500 356.236 C 904.150 352.546, 905.500 349.070, 905.500 348.513 C 905.500 347.117, 800.395 347.119, 797.596 348.514 M 1089.396 355.262 L 1086.291 362.500 1094.896 362.803 C 1106.784 363.222, 1109.700 362.541, 1111.966 358.815 C 1114.015 355.445, 1113.747 353.661, 1110.677 350.250 C 1108.892 348.267, 1107.692 348.001, 1100.576 348.012 L 1092.500 348.025 1089.396 355.262 M 944.687 359.805 C 941.098 363.550, 940.877 370.605, 944.250 373.749 C 946.446 375.796, 947.459 375.853, 986.378 376.124 L 1026.256 376.402 1028.096 374.130 C 1032.374 368.847, 1030.901 360.053, 1025.387 357.957 C 1023.946 357.409, 1006.737 357, 985.122 357 L 947.374 357 944.687 359.805 M 889.376 383.750 C 890.400 387.255, 910.107 462.677, 924.454 518 C 929.232 536.425, 937.816 569.275, 943.530 591 C 949.243 612.725, 954.301 632.075, 954.770 634 L 955.622 637.500 963.811 637.790 C 973.337 638.128, 972.918 638.948, 969.587 626.500 C 968.262 621.550, 963.993 605.125, 960.100 590 C 956.207 574.875, 951.039 555.075, 948.615 546 C 946.191 536.925, 939.182 510.375, 933.040 487 C 926.897 463.625, 920.587 439.775, 919.017 434 C 917.447 428.225, 915.113 419.305, 913.831 414.178 C 911.760 405.896, 911.143 404.635, 908.299 402.877 C 903.842 400.121, 899.198 393.470, 897.387 387.250 C 895.919 382.209, 895.719 382, 892.362 382 C 889.504 382, 888.959 382.320, 889.376 383.750 M 1074.919 386.160 C 1073.718 388.513, 1071.923 391.577, 1070.930 392.969 C 1069.150 395.463, 1069.225 395.877, 1076.080 421.500 C 1084.252 452.047, 1096.957 500.666, 1108.484 545.500 C 1113.009 563.100, 1120.223 591.112, 1124.516 607.750 L 1132.320 638 1140.660 638 C 1145.367 638, 1149 637.579, 1149 637.032 C 1149 636.500, 1144.231 617.713, 1138.402 595.282 C 1132.573 572.852, 1124.305 541, 1120.028 524.500 C 1115.752 508, 1108.090 478.525, 1103.002 459 C 1097.914 439.475, 1091.414 414.275, 1088.556 403 L 1083.361 382.500 1080.231 382.190 C 1077.435 381.914, 1076.869 382.337, 1074.919 386.160 M 991.250 407.750 C 959.212 407.896, 933 408.324, 933 408.700 C 933 409.444, 948.015 466.805, 953.496 487 C 955.362 493.875, 958.230 504.675, 959.868 511 C 961.506 517.325, 965.403 532.175, 968.528 544 C 971.652 555.825, 978.341 581.700, 983.392 601.500 L 992.576 637.500 1052.398 637.758 C 1104.471 637.982, 1112.148 637.827, 1111.661 636.558 C 1111.353 635.756, 1107.870 622.590, 1103.922 607.300 C 1099.973 592.010, 1093.483 566.900, 1089.499 551.500 C 1085.515 536.100, 1079.005 510.900, 1075.032 495.500 C 1071.059 480.100, 1064.252 454.063, 1059.904 437.639 C 1055.557 421.216, 1052 407.603, 1052 407.389 C 1052 407.175, 1051.438 407.109, 1050.750 407.242 C 1050.063 407.375, 1023.288 407.603, 991.250 407.750 M 367.627 600.468 C 362.084 602.444, 356.959 606.879, 353.500 612.693 L 350.500 617.736 343.848 618.301 C 331.976 619.311, 322.405 626.190, 318.391 636.596 C 315.299 644.614, 315.507 725.352, 318.637 732.122 C 323.807 743.303, 333.711 750, 345.075 750 C 351.544 750, 351.797 750.095, 352.990 752.975 C 354.541 756.719, 362.043 763.702, 366.528 765.576 C 368.861 766.551, 373.811 766.993, 382.218 766.978 C 399.449 766.947, 405.829 763.828, 411.839 752.500 C 414.383 747.704, 414.505 746.754, 414.825 729.250 L 415.159 711 468.984 711 L 522.809 711 523.155 729.250 C 523.471 745.958, 523.697 747.900, 525.834 752.239 C 528.689 758.036, 535.530 764.243, 540.807 765.824 C 547.264 767.759, 567.725 767.310, 572.500 765.129 C 576.830 763.151, 584.354 755.610, 585.454 752.146 C 586.036 750.310, 586.894 750, 591.386 750 C 603.400 750, 613.464 743.730, 618.320 733.220 C 621.776 725.739, 621.723 640.788, 618.258 634.306 C 613.177 624.800, 604.345 619.118, 593.266 618.229 C 587.293 617.750, 586.831 617.531, 585.606 614.609 C 581.365 604.489, 573.146 599.667, 559.263 599.153 C 545.811 598.655, 541.183 599.443, 535.516 603.197 C 525.613 609.757, 523.029 617.413, 523.012 640.250 L 523 656 469.095 656 L 415.191 656 414.805 637.750 C 414.372 617.328, 413.824 615.138, 407.347 607.954 C 401.068 600.989, 395.552 599.013, 382.500 599.054 C 375.768 599.075, 369.997 599.623, 367.627 600.468 M 373.704 619.596 C 372.166 620.430, 370.479 622.241, 369.954 623.621 C 369.389 625.108, 369 649.699, 369 683.988 L 369 741.847 371.589 744.923 C 374.066 747.868, 374.509 748, 381.866 748 C 390.385 748, 392.991 746.851, 394.894 742.256 C 396.806 737.640, 395.988 625.236, 394.021 622.268 C 391.201 618.013, 379.469 616.470, 373.704 619.596 M 547.303 619.144 C 542.041 621.812, 542 622.307, 542 682.933 C 542 751.369, 541.283 748, 555.852 748 C 569.993 748, 569 752.940, 569 682.605 L 569 624.112 566.608 621.331 C 564.447 618.818, 563.506 618.525, 556.858 618.290 C 552.811 618.147, 548.511 618.532, 547.303 619.144 M 342.452 638.406 C 335.537 641.418, 335.533 641.445, 335.205 682.033 C 334.980 709.913, 335.216 719.497, 336.205 722.497 C 337.703 727.044, 342.794 731, 347.148 731 L 350 731 350 684 L 350 637 347.750 637.039 C 346.512 637.061, 344.129 637.676, 342.452 638.406 M 588 684 C 588 736.933, 587.351 732.969, 595.466 729.579 C 601.926 726.880, 602 726.363, 601.996 684.300 C 601.993 648.573, 601.885 646.324, 600.040 643.299 C 597.952 639.873, 593.394 637, 590.050 637 C 588.013 637, 588 637.287, 588 684 M 661.603 658.477 C 659.460 659.240, 657.001 660.571, 656.139 661.433 C 654.716 662.856, 674.541 663, 871.573 663 L 1088.576 663 1092.038 660.041 L 1095.500 657.081 880.500 657.085 C 699.584 657.087, 664.882 657.308, 661.603 658.477 M 1124.787 658.589 C 1121.046 659.740, 1118.365 661.810, 1111.787 668.629 C 1106.510 674.098, 1101.684 678.083, 1098.500 679.599 L 1093.500 681.980 871.750 681.990 L 650 682 650 688.040 C 650 697.085, 654.106 703.725, 661.311 706.329 C 662.307 706.689, 781.659 707.027, 926.537 707.080 L 1189.952 707.176 1194.175 704.838 C 1200.811 701.164, 1202.415 697.426, 1202.856 684.607 C 1203.409 668.555, 1199.839 660.438, 1191.168 658.030 C 1185.177 656.366, 1130.517 656.826, 1124.787 658.589 M 415 683.500 L 415 692 469 692 L 523 692 523 683.500 L 523 675 469 675 L 415 675 415 683.500 M 673 727.800 C 673 731.639, 674.775 732, 693.618 732 C 713.865 732, 715 731.809, 715 728.393 L 715 726 694 726 C 674.444 726, 673 726.124, 673 727.800 M 1124 727.800 C 1124 731.661, 1125.737 732, 1145.500 732 C 1165.263 732, 1167 731.661, 1167 727.800 C 1167 726.122, 1165.537 726, 1145.500 726 C 1125.463 726, 1124 726.122, 1124 727.800" stroke="none" fill="#1D5F3A" fill-rule="evenodd"/>
</svg>