<svg xmlns="http://www.w3.org/2000/svg" width="1000" height="402" viewBox="-188.0 126.3 1910.0 767.8">
	<path d="M 591.357 175.090 C 557.741 177.516, 520.463 192.152, 490.126 214.836 C 481.394 221.365, 431.678 269.204, 429.285 273.380 C 427.638 276.255, 427.722 282.646, 429.471 287.500 C 435.516 304.278, 423.137 317.399, 407.213 311.094 C 396.392 306.809, 393.024 308.206, 377.145 323.565 C 360.556 339.610, 358.330 343.787, 361.037 353.790 C 362.184 358.029, 365.069 361.281, 389.906 386.331 C 430.206 426.978, 430.278 426.995, 455.181 402.148 C 469.204 388.156, 469.893 387.280, 470.567 382.602 C 471.139 378.626, 470.841 376.742, 468.985 372.602 C 462.722 358.627, 468.375 346.774, 482.590 344.078 C 490.404 342.596, 494.074 343.704, 502.526 350.096 C 506.087 352.789, 508.752 353.986, 511.667 354.199 C 515.515 354.481, 516.578 355.342, 528.090 367.500 C 534.861 374.650, 551.941 392.650, 566.047 407.500 C 580.153 422.350, 593.128 436.152, 594.882 438.171 L 598.069 441.843 589.957 452.618 C 563.497 487.765, 548.463 528.430, 546.282 570.750 L 545.703 582 542.548 582 C 535.279 582, 524.016 590.568, 521.058 598.347 C 520.470 599.893, 520.004 608.327, 520.010 617.315 C 520.021 636.731, 521.158 640.135, 530.610 649.064 C 539.207 657.185, 559.699 664.865, 585 669.450 C 590.225 670.396, 595.247 671.470, 596.160 671.835 C 597.438 672.347, 590.130 680.315, 564.365 706.500 C 494.450 777.553, 494 778.089, 494 790.311 C 494 801.505, 495.939 805.192, 507.897 816.736 C 519.613 828.046, 522.521 829.267, 526.826 824.686 C 530.727 820.532, 529.756 818.211, 520.091 808.591 C 510.271 798.816, 508.060 794.406, 509.736 787.938 C 510.226 786.047, 510.973 784.574, 511.395 784.665 C 511.817 784.756, 526.144 798.256, 543.233 814.665 C 560.321 831.074, 575.247 845.047, 576.401 845.715 C 580.048 847.825, 583.923 847.230, 587.077 844.077 C 592.087 839.067, 590.696 834.400, 583.035 830.518 C 580.344 829.154, 577.902 827.650, 577.609 827.176 C 577.316 826.702, 609.347 794.406, 648.788 755.406 L 720.500 684.497 767.500 684.657 L 814.500 684.817 842.500 714.238 C 892.172 766.432, 917.309 793.137, 932.717 810.083 C 950.277 829.395, 953.469 831.480, 965.500 831.493 C 977.242 831.505, 980.036 829.858, 998.875 811.826 C 1018.484 793.058, 1021.092 789.252, 1021.789 778.383 C 1022.648 764.994, 1020.238 761.278, 997.286 740.609 C 984.075 728.712, 930.982 675.296, 930.228 673.143 C 930.078 672.715, 933.430 671.825, 937.677 671.165 C 955.380 668.413, 982.329 660.866, 992.183 655.902 C 999.180 652.377, 1006.957 644.759, 1010.122 638.331 C 1013.189 632.100, 1013.698 604.230, 1010.859 597.927 C 1007.123 589.632, 999.211 583.539, 990.650 582.366 L 986.294 581.768 985.674 570.134 C 984.382 545.866, 978.594 521.008, 969.120 499.031 L 965.316 490.209 988.679 467.506 C 1001.921 454.638, 1012.600 445.016, 1013.330 445.296 C 1014.038 445.568, 1018.083 448.053, 1022.319 450.818 C 1032.677 457.580, 1038.464 459.440, 1049 459.392 C 1065.940 459.315, 1075.932 452.883, 1091.176 432.242 C 1106.795 411.093, 1108.189 409.200, 1116.022 398.500 C 1120.049 393, 1126.344 384.450, 1130.011 379.500 C 1152.548 349.080, 1169.648 324.804, 1171.719 320.290 C 1179.053 304.307, 1173.578 286.175, 1157.974 274.767 C 1124.296 250.145, 1070.823 213.117, 1063.828 209.573 C 1033.974 194.449, 994.284 199.398, 966.688 221.685 C 960.131 226.981, 950.862 237.634, 946.082 245.368 L 943.794 249.069 939.275 246.421 C 933.313 242.927, 925.914 243.303, 920.581 247.370 C 915.638 251.141, 893.961 284.045, 892.784 289.566 C 891.463 295.758, 893.299 301.375, 898.414 306.788 L 902.676 311.300 897.326 319.822 C 887.034 336.216, 886.558 348.097, 895.667 361.241 L 898.361 365.129 885.249 378.241 L 872.137 391.354 863.318 387.285 C 852.041 382.082, 837.484 376.728, 828.303 374.405 C 821.212 372.611, 821.096 372.530, 820.478 368.870 C 818.988 360.052, 810.076 351.040, 800.900 349.072 C 794.566 347.714, 735.810 347.647, 730.965 348.993 C 721.854 351.524, 712.671 360.950, 711.366 369.112 C 710.836 372.429, 710.389 372.891, 707.137 373.495 C 701.904 374.466, 681.037 381.618, 673.275 385.101 L 666.656 388.070 662.720 384.285 C 660.554 382.203, 646.794 367.901, 632.141 352.503 C 617.489 337.104, 599.304 318.153, 591.731 310.390 C 578.944 297.281, 577.847 295.854, 576.349 290.387 C 575.462 287.149, 574.121 282.264, 573.368 279.532 C 571.627 273.208, 571.659 267.272, 573.483 258.665 C 577.672 238.892, 589.399 227.433, 612.703 220.341 C 625.062 216.580, 652.837 216.383, 672 219.920 C 688.821 223.024, 689.725 222.992, 693.156 219.151 C 696.958 214.896, 696.770 211.858, 692.407 207.028 C 681.315 194.752, 656.698 182.064, 635.189 177.540 C 629.572 176.358, 603.011 173.589, 602.605 174.143 C 602.547 174.221, 597.486 174.647, 591.357 175.090 M 590.500 191.013 C 562.492 193.552, 531.251 205.022, 505.383 222.263 C 487.909 233.910, 441.962 278.057, 443.516 281.705 C 450.737 298.652, 443.366 317.848, 426.509 325.999 C 420.362 328.971, 410.268 329.297, 405.300 326.683 C 399 323.369, 397.349 324.113, 386.232 335.267 C 377.819 343.709, 376 346.067, 376 348.529 C 376 351.108, 379.444 354.967, 400.824 376.344 C 414.477 389.995, 426.290 401.570, 427.074 402.067 C 431.283 404.731, 434.065 403.231, 445.126 392.331 C 456.957 380.672, 457.203 380.065, 452.692 373.618 C 447.428 366.093, 450.992 350.702, 460.412 340.281 C 472.535 326.869, 489.605 324.559, 505.545 334.173 L 512.161 338.163 518.830 331.850 C 522.499 328.379, 533.313 317.984, 542.863 308.751 L 560.225 291.965 558.613 283.962 C 554.519 263.647, 558.562 245.878, 570.907 229.922 C 586.069 210.325, 607.975 201.569, 641.895 201.547 L 658.290 201.537 653.187 199.222 C 637.634 192.164, 613.157 188.959, 590.500 191.013 M 1014.723 217.064 C 1006.105 218.250, 997.701 221.038, 987.174 226.202 C 973.162 233.075, 967.360 239.603, 944.243 274.500 C 909.872 326.387, 905.896 333.052, 905.283 339.818 C 904.278 350.901, 905.731 352.673, 928.484 368.119 C 939.325 375.478, 951.639 383.941, 955.848 386.925 C 988.614 410.152, 1030.243 438.573, 1035.231 441.120 C 1041.100 444.117, 1051.184 444.764, 1057.794 442.568 C 1066.462 439.689, 1069.994 436.164, 1085.561 414.856 C 1101.421 393.146, 1121.144 366.282, 1141.795 338.260 C 1157.990 316.285, 1159.006 314.379, 1158.978 306.038 C 1158.939 294.289, 1157.288 292.086, 1139 279.376 C 1132.675 274.980, 1113.004 261.161, 1095.286 248.666 C 1077.569 236.172, 1060.226 224.672, 1056.747 223.111 C 1044.177 217.471, 1028.328 215.191, 1014.723 217.064 M 1011.601 254.594 C 990.699 259.651, 971.886 277.733, 964.359 300 C 961.247 309.206, 961.799 329.273, 965.431 339 C 983.426 387.187, 1043.938 398.035, 1076.822 358.968 C 1087.455 346.337, 1091.968 333.834, 1091.973 317 C 1091.986 276.233, 1051.640 244.906, 1011.601 254.594 M 929.162 259.692 C 928.427 259.985, 923.364 266.955, 917.912 275.181 C 907.838 290.383, 906.304 294.347, 909.478 296.981 C 910.727 298.018, 912.814 295.373, 922.990 279.854 C 933.851 263.291, 934.859 261.378, 933.322 260.250 C 931.494 258.909, 931.216 258.872, 929.162 259.692 M 1021.500 268.698 C 985.422 273.483, 966.870 310.444, 984.155 343.100 C 1001.543 375.953, 1054.636 374.425, 1071.008 340.602 C 1086.550 308.492, 1069.058 274.758, 1033.911 269.055 C 1027.420 268.002, 1026.864 267.986, 1021.500 268.698 M 546.545 325.344 L 526.591 344.635 567.400 387.845 L 608.209 431.055 615.355 424.271 C 624.635 415.459, 634.494 407.555, 644.711 400.737 L 652.921 395.258 636.711 378.365 C 627.795 369.075, 608.641 348.992, 594.146 333.737 C 579.652 318.481, 567.502 306.012, 567.146 306.026 C 566.791 306.041, 557.520 314.733, 546.545 325.344 M 731.384 365.434 C 725.918 367.814, 726 366.425, 726 456.501 L 726 539.704 723.750 543.009 C 714.924 555.974, 700.138 556.059, 691.375 543.194 C 690.070 541.278, 688.595 536.299, 687.553 530.287 C 680.235 488.061, 664.171 409.958, 662.425 408.113 C 661.820 407.474, 645.413 418.116, 638.214 423.817 C 597.011 456.446, 569.659 505.403, 562.968 558.500 C 561.477 570.332, 561.501 608.074, 563 609 C 565.450 610.514, 610.399 615.457, 649 618.457 C 750.536 626.347, 886.001 622.679, 964.250 609.920 L 971 608.819 970.985 596.660 C 970.893 521.322, 945.473 464.860, 892.993 423.427 C 885.205 417.278, 870.164 407.502, 869.506 408.161 C 868.708 408.958, 854.576 476.912, 849.366 505 C 842.293 543.127, 842.746 541.584, 836.980 547.177 C 829.319 554.608, 820.323 554.997, 812.823 548.221 C 805.522 541.625, 806 548.075, 806 456.199 C 806 365.892, 806.117 367.782, 800.397 365.392 C 795.634 363.403, 735.969 363.439, 731.384 365.434 M 897.046 386.454 C 890.200 393.317, 884.801 399.089, 885.049 399.281 C 885.297 399.473, 888.875 402.040, 893 404.985 C 915.873 421.315, 934.873 440.939, 950.427 464.294 L 958.209 475.980 960.624 474.081 C 961.953 473.036, 971.362 464.069, 981.535 454.153 L 1000.030 436.125 996.765 433.699 C 985.300 425.181, 912.857 375.266, 910.833 374.489 C 910.043 374.186, 904.390 379.092, 897.046 386.454 M 701.670 391.089 C 694.218 393.214, 678.944 398.852, 677.760 399.916 C 677.353 400.281, 679.892 413.387, 683.403 429.040 C 691.485 465.074, 695.025 482.484, 700.372 512.500 L 704.647 536.500 707.573 536.500 L 710.500 536.500 710.756 462.750 C 710.961 404.049, 710.757 389.014, 709.756 389.071 C 709.065 389.110, 705.427 390.018, 701.670 391.089 M 821.244 462.750 L 821.500 536.500 824.422 536.500 L 827.344 536.500 830.177 521 C 834.298 498.462, 839.419 472.996, 845.663 444 C 848.683 429.975, 852.019 414.482, 853.077 409.571 C 854.135 404.659, 855 400.552, 855 400.444 C 855 399.403, 825.399 389, 822.436 389 C 821.182 389, 821.022 398.894, 821.244 462.750 M 986 607.794 C 986 624.099, 987.146 623.507, 946 628.464 C 917.828 631.858, 900.535 633.397, 861.500 635.985 C 780.173 641.376, 665.068 638.240, 587 628.504 C 545.020 623.269, 546 623.752, 546 608.326 L 546 598 543.111 598 C 536.725 598, 535.537 600.433, 535.172 614.261 C 534.633 634.658, 536.599 638.288, 551.169 643.807 C 579.869 654.676, 633.274 663.144, 698 667.088 C 724.696 668.714, 812.926 668.780, 834.500 667.189 C 903.652 662.091, 947.829 655.168, 978.829 644.571 C 994.817 639.105, 996.945 635.910, 996.978 617.315 C 997.007 601.241, 996.242 599.410, 988.750 597.619 L 986 596.962 986 607.794 M 568.633 723.286 C 542.519 749.804, 521.102 771.855, 521.040 772.288 C 520.977 772.722, 531.180 782.924, 543.713 794.959 L 566.500 816.841 570.146 813.320 C 573.734 809.853, 573.766 809.754, 572.171 806.976 C 569.472 802.273, 574.236 798.257, 578.990 801.226 C 580.708 802.299, 581.464 801.956, 585.056 798.476 C 591.799 791.941, 591.861 791.443, 586.598 786.099 C 581.196 780.615, 580.868 778.130, 585.077 774.589 C 589.149 771.162, 589.264 771.190, 595.571 777.156 C 598.569 779.991, 601.130 782.124, 601.261 781.895 C 601.392 781.665, 603.049 779.798, 604.942 777.744 L 608.383 774.009 605.692 771.200 C 602.356 767.719, 602.299 765.610, 605.455 762.455 C 608.695 759.214, 611.011 759.358, 614.519 763.020 L 617.413 766.040 624.674 758.827 L 631.936 751.614 626.468 745.881 C 620.072 739.176, 620.064 739.136, 624.104 734.535 C 628.195 729.875, 629.129 730.028, 635.879 736.466 L 641.609 741.932 650.523 732.977 L 659.437 724.021 655.219 719.723 C 650.121 714.529, 650.100 714.265, 654.450 710.048 C 658.278 706.338, 657.976 706.273, 665.552 712.459 L 668.605 714.951 684.310 699.066 L 700.016 683.181 691.258 682.551 C 659.885 680.296, 628.971 677.305, 618.807 675.540 C 616.372 675.118, 611.556 679.700, 568.633 723.286 M 895 677.581 C 889.225 678.297, 873.250 679.833, 859.500 680.995 C 845.750 682.157, 834.230 683.196, 833.900 683.304 C 833.571 683.412, 846.561 697.450, 862.769 714.500 C 901.861 755.625, 932.266 788.043, 944.378 801.514 C 955.458 813.836, 958.434 815.898, 965.230 815.958 C 973.360 816.030, 976.537 813.952, 991.661 798.672 C 1004.785 785.413, 1005.873 784.027, 1006.514 779.757 C 1007.627 772.332, 1005.753 768.587, 996.608 759.964 C 992.149 755.760, 982.356 746.510, 974.846 739.410 C 967.337 732.309, 950.266 715.138, 936.912 701.250 C 909.259 672.493, 914.084 675.218, 895 677.581" stroke="none" fill="#1D5F3A" fill-rule="evenodd"/>
</svg>