<svg xmlns="http://www.w3.org/2000/svg" width="1000" height="436" viewBox="-242.0 95.3 1910.0 832.8">
	<path d="M 853 144.090 C 791.782 151.970, 745.675 189.956, 729.417 245.907 C 719.284 280.778, 728.673 310.181, 756.454 330.579 L 762.697 335.163 761.344 343.832 C 758.542 361.782, 755.742 373.102, 753.182 376.826 C 751.794 378.847, 749.300 382.490, 747.641 384.923 C 744.309 389.809, 737.797 404.326, 736.084 410.688 C 735.076 414.430, 734.605 414.862, 730.359 415.931 C 719.918 418.560, 711.082 426.240, 707.745 435.585 C 705.672 441.391, 705.511 453.758, 707.440 459 C 708.955 463.114, 709.089 462.795, 696.759 484.410 C 652.868 561.353, 593.867 629.293, 523.167 684.303 C 503.133 699.892, 486.637 711.859, 459.500 730.495 C 402.818 769.419, 388.168 781.328, 375.841 798.500 C 358.085 823.233, 363.184 850.771, 388.228 865.402 C 413.663 880.261, 465.785 884.094, 511 874.431 C 525.623 871.305, 544.100 865.819, 547.495 863.595 C 551.036 861.275, 550.722 855.607, 546.895 852.762 L 544.289 850.826 532.395 854.344 C 503.039 863.026, 477.221 866.620, 451.690 865.578 C 383.261 862.787, 359.890 834.381, 395.379 797.134 C 407.887 784.006, 419.827 774.968, 471.484 739.527 C 500.400 719.688, 518.361 706.565, 537 691.658 C 608.845 634.197, 667.208 565.844, 710.468 488.500 C 714.774 480.800, 718.398 474.371, 718.520 474.213 C 718.956 473.648, 724 476.337, 724 477.134 C 724 479.339, 716.877 495.542, 708.014 513.500 C 688.551 552.935, 672.693 576.286, 637 618.071 C 611.128 648.359, 599.252 669.277, 592.110 697.138 C 588.262 712.150, 588.027 713.886, 587.389 732 C 586.831 747.812, 586.777 747.299, 591.693 773.148 C 592.305 776.361, 590.488 776.874, 567.500 779.975 C 532.866 784.648, 529.309 785.638, 522.418 792.529 C 511.339 803.609, 515.164 819.785, 530.887 828.342 C 547.846 837.572, 583.901 838.006, 618.459 829.396 C 623.937 828.031, 628.580 826.754, 628.776 826.557 C 628.972 826.361, 631.768 827.233, 634.989 828.496 C 646.469 832.994, 650.052 833.158, 730 832.819 L 805.500 832.500 809.612 830.300 C 821.802 823.779, 819.957 797.415, 806.346 783.609 C 801.777 778.974, 793.591 774, 790.533 774 C 788.188 774, 788.685 772.824, 792.649 769 C 799.013 762.861, 809.759 749.604, 816.871 739.119 C 824.582 727.753, 824.045 727.698, 825.513 740 C 833.802 809.464, 837.666 821.287, 854.839 829.720 L 860.500 832.500 892 832.500 C 922.872 832.500, 923.576 832.455, 927.307 830.250 C 930.904 828.124, 932.201 827.999, 950.807 827.978 C 974.353 827.952, 977.719 827.038, 981.012 819.784 C 983.413 814.493, 983.632 803.848, 981.508 795.693 C 977.220 779.228, 967.575 769.900, 949.286 764.530 C 941.606 762.275, 939.488 760.095, 937.570 752.475 C 932.290 731.494, 931.884 672.333, 936.589 609.659 C 938.084 589.751, 938.310 588.452, 941.648 580.659 C 954.415 550.845, 959.016 528.562, 958.982 496.699 C 958.955 471.224, 954.731 446.763, 946.831 426.331 C 945.165 422.024, 943.216 416.925, 942.499 415 C 940.925 410.772, 939.351 397.759, 938.438 381.420 L 937.763 369.339 950.632 367.557 C 972.313 364.554, 998.596 355.790, 1014.419 346.287 C 1042.544 329.396, 1057.091 305.525, 1061.020 269.820 C 1062.393 257.345, 1061.795 252.645, 1058.093 246.808 C 1054.382 240.955, 1050.330 239.157, 1035.560 236.806 C 988.946 229.386, 983.515 226.879, 978.534 210.481 C 967.497 174.153, 938.476 150.756, 896.769 144.563 C 885.593 142.903, 864.030 142.671, 853 144.090 M 855 158.519 C 807.840 164.366, 771.035 189.159, 751.324 228.361 C 728.132 274.485, 738.633 307.909, 783.567 330.989 C 816.673 347.994, 837.476 339.097, 843.556 305.334 C 846.098 291.214, 845.026 277.897, 837.452 229.500 C 835.199 215.107, 836.792 210, 843.533 210 C 848.290 210, 849.169 211.844, 851.067 225.809 C 852.016 232.789, 854.024 246.600, 855.529 256.500 C 863.195 306.929, 854.663 338.608, 830.294 350.196 C 816.366 356.820, 803.621 355.207, 776.386 343.374 C 775.690 343.072, 775.009 344.878, 774.570 348.195 C 774.184 351.113, 772.744 359.058, 771.369 365.851 C 769.994 372.645, 769.011 378.330, 769.185 378.487 C 769.358 378.643, 774.190 381.115, 779.922 383.981 C 824.722 406.377, 868.879 417.628, 908.710 416.794 C 918.726 416.584, 927.174 416.160, 927.483 415.850 C 927.792 415.541, 927.327 410.611, 926.449 404.894 C 925.526 398.881, 924.778 387.065, 924.676 376.860 C 924.464 355.645, 924.735 355.004, 933.905 354.994 C 939.968 354.988, 956.466 352.747, 964.500 350.838 L 969.500 349.650 963.993 348 C 952.126 344.443, 937.588 335.063, 936.278 330.117 C 934.089 321.850, 941.793 317.977, 948.578 323.935 C 961.780 335.526, 984.515 339.876, 1002.546 334.261 C 1018.673 329.238, 1034.154 313.568, 1040.960 295.377 C 1044.683 285.426, 1044.674 285.259, 1040.327 284.088 C 1026.587 280.388, 1017.731 267.455, 1019.373 253.487 L 1019.995 248.187 1014.748 247.514 C 1005.834 246.371, 991.767 242.851, 986.051 240.334 C 974.205 235.117, 969.981 229.670, 964.488 212.530 C 951.565 172.200, 910.005 151.699, 855 158.519 M 912.357 232.312 C 905.761 238.356, 906.973 250.388, 914.522 253.828 C 923.609 257.968, 932.987 251.961, 932.987 242 C 932.987 230.303, 920.796 224.578, 912.357 232.312 M 1033.344 252.546 C 1030.931 258.835, 1035.377 266.983, 1042.583 269.476 C 1047.184 271.068, 1047.727 270.247, 1047.900 261.441 C 1048.021 255.340, 1046.759 253.497, 1041.500 252.085 C 1036.027 250.616, 1034.042 250.728, 1033.344 252.546 M 757.095 395.974 C 753.169 403.340, 748.625 416.375, 749.841 416.780 C 753.243 417.914, 760.438 423.619, 762.739 427.007 C 766.333 432.298, 787.722 443.120, 819 455.474 C 857.489 470.675, 905.316 480.410, 932.092 478.493 C 945.029 477.567, 944.581 478.021, 943.115 467.340 C 940.512 448.381, 934.652 429.428, 931.450 429.612 C 930.377 429.674, 924.775 430.275, 919 430.948 C 881.449 435.321, 821.124 421.100, 773.525 396.651 C 766.938 393.268, 761.271 390.373, 760.931 390.219 C 760.590 390.064, 758.864 392.654, 757.095 395.974 M 731.256 430.117 C 720.332 433.272, 715.521 450.504, 723.477 457.979 L 725.805 460.165 726.465 456.833 C 728.223 447.957, 732.403 443.860, 737.384 446.129 C 741.819 448.150, 742.497 451.892, 739.648 458.622 C 736.918 465.072, 737.267 465.727, 742.517 463.994 C 765.930 456.267, 754.962 423.271, 731.256 430.117 M 768.609 453.044 C 766.595 465.639, 752.254 478.985, 740.712 479.004 C 738.860 479.007, 737.944 480.428, 735.079 487.754 C 721.581 522.269, 700.107 560.712, 677.686 590.500 C 669.426 601.475, 664.258 607.819, 640.624 636 C 612.647 669.359, 600.010 702.466, 601.310 739 C 602.626 775.988, 615.960 802.978, 638.370 814.010 C 648.193 818.846, 652.604 819.075, 730.348 818.776 C 811.639 818.463, 804.477 819.372, 803.479 809.500 C 802.614 800.937, 798.692 794.336, 792.094 790.335 C 785.426 786.292, 782.333 785.913, 753.461 785.595 L 729.591 785.332 727.665 782.753 C 724.539 778.566, 726.025 775.723, 734.264 770.131 C 752.385 757.831, 765.069 740.759, 772.623 718.500 C 777.811 703.212, 778.234 683.552, 773.662 670.232 C 763.484 640.583, 736.250 627.970, 704 637.969 C 695.882 640.487, 694.490 640.490, 692 638 C 679.749 625.749, 717.326 615.367, 744.956 623.370 C 798.371 638.841, 806.940 716.465, 760.727 766.250 L 756.318 771 763.121 771 L 769.924 771 779.523 761.824 C 794.042 747.943, 807.007 730.753, 817.348 711.672 C 820.686 705.511, 820.988 704.338, 820.434 699.672 C 816.573 667.152, 810.039 623.485, 803.548 586.804 C 801.430 574.841, 802.680 572, 810.059 572 C 815.240 572, 815.272 572.110, 822.506 615.991 C 827.555 646.614, 833.245 687.723, 837.526 724.500 C 846.104 798.181, 849.204 810.644, 860.500 816.834 C 863.675 818.574, 910.048 819.964, 917.608 818.546 C 922.091 817.705, 922.779 814.735, 920.606 805.597 C 917.660 793.213, 914.305 789.901, 896.851 782.151 C 891.392 779.728, 889.742 778.416, 887.638 774.825 C 880.607 762.828, 879.874 752.083, 879.287 652.358 L 878.785 567.215 880.892 565.108 C 883.513 562.487, 887.051 562.412, 890.139 564.911 L 892.500 566.821 893 598.827 L 893.500 630.833 899 623.851 C 927.570 587.579, 943.060 548.209, 944.678 507.750 L 945.309 492 931.904 492.622 C 896.148 494.280, 847.483 483.335, 800 462.958 C 788.782 458.143, 783.313 455.648, 769.884 449.218 C 769.545 449.055, 768.971 450.777, 768.609 453.044 M 917.528 622.787 C 915.344 625.929, 908.866 634.077, 903.134 640.894 L 892.712 653.288 893.315 695.894 C 894.271 763.426, 894.952 766.950, 908.013 771.913 C 924.025 777.997, 934.915 792.874, 934.979 808.750 L 935 814 951.889 814 L 968.777 814 969.408 810.639 C 970.261 806.091, 968.352 797.560, 965.142 791.577 C 961.747 785.251, 956.628 781.601, 946.794 778.495 C 927.874 772.518, 923.722 765.916, 921.012 737.500 C 919.799 724.788, 919.900 650.702, 921.156 631.509 C 921.624 624.365, 921.892 618.194, 921.753 617.796 C 921.614 617.399, 919.713 619.644, 917.528 622.787 M 590.500 790.564 C 585.163 792.042, 570.942 794.170, 554.269 795.984 C 536.701 797.895, 530 801.139, 530 807.734 C 530 820.389, 566.116 825.275, 604.708 817.841 L 615.916 815.682 612.708 811.761 C 607.588 805.505, 603.062 798.870, 600.418 793.750 C 597.738 788.558, 597.740 788.558, 590.500 790.564" stroke="none" fill="#1D5F3A" fill-rule="evenodd"/>
</svg>