<svg xmlns="http://www.w3.org/2000/svg" width="1000" height="324" viewBox="-199.0 190.6 1935.0 626.9">
	<path d="M 981 239.694 C 970.197 241.486, 957.486 248.714, 951.652 256.381 C 948.768 260.171, 940.954 274.676, 924.028 307.661 L 914.708 325.822 855.104 325.923 C 786.724 326.037, 789.266 325.749, 780.469 334.383 C 768.476 346.152, 767.925 362.696, 779.131 374.545 C 788.489 384.439, 788.802 384.500, 830.573 384.500 L 866.645 384.500 868.914 393 C 871.597 403.049, 881.507 441.055, 896.946 500.500 C 903.088 524.150, 910.596 552.950, 913.630 564.500 C 916.664 576.050, 921.827 595.850, 925.105 608.500 C 928.383 621.150, 931.305 632.288, 931.600 633.250 C 932.107 634.911, 925.266 635, 797.619 635 L 663.103 635 655.102 637.528 C 636.695 643.342, 628 657.771, 628 682.500 C 628 703.698, 634.570 717.555, 647.886 724.441 C 649.998 725.533, 651 726.789, 651 728.344 C 651 733.607, 654.234 741.299, 658.317 745.746 C 665.529 753.601, 667.055 753.953, 694.054 753.978 C 717.413 754, 717.650 753.979, 722.805 751.410 C 729.566 748.041, 733.388 743.270, 735.647 735.381 L 737.475 729 919.541 729 L 1101.606 729 1103.842 735.943 C 1106.423 743.955, 1112.818 750.730, 1119.764 752.811 C 1125.256 754.457, 1165.844 754.425, 1171.384 752.771 C 1178.118 750.760, 1185.499 742.812, 1187.570 735.343 C 1189.261 729.242, 1189.314 729.180, 1193.456 728.559 C 1203.316 727.080, 1215.744 718.197, 1220.312 709.363 C 1226.910 696.604, 1226.709 668.150, 1219.927 654.856 C 1216.866 648.858, 1209.396 642.093, 1202 638.624 C 1196.128 635.870, 1194.337 635.537, 1183.455 635.174 L 1171.410 634.772 1165.096 610.136 C 1161.624 596.586, 1152.747 562.325, 1145.371 534 C 1137.995 505.675, 1128.604 469.450, 1124.502 453.500 C 1120.401 437.550, 1114.785 415.812, 1112.022 405.194 C 1106.281 383.124, 1106.413 384, 1108.822 384 C 1121.409 384, 1135 368.930, 1135 354.973 C 1135 340.940, 1121.316 326, 1108.462 326 C 1107.108 326, 1106 325.760, 1106 325.466 C 1106 325.173, 1110.013 316.285, 1114.917 305.716 C 1127.768 278.020, 1128.481 275.004, 1124.906 263.431 C 1123.171 257.815, 1121.829 255.669, 1117.080 250.920 C 1107.289 241.129, 1108.186 241.256, 1043.876 240.524 C 1013.969 240.183, 988.150 239.764, 986.500 239.592 C 984.850 239.419, 982.375 239.465, 981 239.694 M 976.366 266.919 C 971.953 269.609, 969.334 273.468, 960.699 290 C 956.534 297.975, 949.244 311.925, 944.501 321 C 928.786 351.064, 918 374.052, 918 377.477 C 918 379.267, 918.933 381.916, 920.073 383.365 L 922.145 386 983.705 386 C 1052.674 386, 1049.172 386.364, 1053.853 378.700 C 1055.532 375.951, 1080.954 322.041, 1086.014 310.500 C 1086.979 308.300, 1089.675 302.450, 1092.005 297.500 C 1103.053 274.035, 1103.702 271.702, 1100.165 268.165 C 1098.490 266.490, 1095.505 266.272, 1065.915 265.667 C 1003.828 264.396, 979.955 264.730, 976.366 266.919 M 984.530 271.594 C 977.792 274.061, 975.294 277.614, 963.177 301.968 C 949.661 329.133, 948.860 332.657, 954.323 340.911 C 959.400 348.583, 960.053 348.696, 1004.210 349.507 C 1059.827 350.529, 1055.674 352.535, 1071.520 317 C 1083.751 289.571, 1084.323 285.550, 1077.114 277.627 C 1072.069 272.082, 1070.518 271.852, 1032.020 270.940 C 987.491 269.885, 989.265 269.861, 984.530 271.594 M 986.922 309.156 C 983.049 316.888, 980.033 323.366, 980.220 323.553 C 980.407 323.740, 994.250 324.030, 1010.982 324.197 L 1041.403 324.500 1047.713 310.595 C 1051.184 302.947, 1053.905 296.596, 1053.761 296.482 C 1053.618 296.368, 1040.104 296.010, 1023.732 295.687 L 993.963 295.100 986.922 309.156 M 796.971 351.429 C 795.377 353.023, 795.814 358.715, 797.582 359.393 C 798.452 359.727, 821.394 360, 848.565 360 L 897.966 360 900.450 355.099 L 902.934 350.198 850.438 350.328 C 817.998 350.408, 797.571 350.829, 796.971 351.429 M 1092.041 354.919 C 1090.919 357.120, 1090 359.163, 1090 359.460 C 1090 359.757, 1094.285 360, 1099.521 360 C 1108.784 360, 1109.075 359.930, 1110.217 357.422 C 1112.271 352.915, 1110.387 351.542, 1101.686 351.209 L 1094.083 350.917 1092.041 354.919 M 947.500 354.941 C 939.219 358.464, 936.719 369.179, 942.767 375.231 L 946.035 378.500 983.767 379.001 C 1028.775 379.598, 1029.275 379.510, 1032.362 370.451 C 1034.193 365.077, 1031.531 358.516, 1026.500 356 C 1023.091 354.295, 951.280 353.333, 947.500 354.941 M 894.468 393.685 C 897.405 404.661, 913.217 465.069, 920.112 491.656 C 934.379 546.666, 944.367 585.020, 950.602 608.740 L 957.500 634.980 963.250 634.990 C 966.413 634.996, 968.999 634.663, 968.997 634.250 C 968.996 633.837, 967.911 629.450, 966.587 624.500 C 965.262 619.550, 960.993 603.125, 957.100 588 C 953.207 572.875, 948.039 553.075, 945.615 544 C 943.191 534.925, 936.182 508.375, 930.040 485 C 923.897 461.625, 917.597 437.775, 916.039 432 C 914.481 426.225, 912.395 418.350, 911.404 414.500 C 909.816 408.332, 908.926 406.830, 903.915 401.869 C 900.031 398.023, 897.599 394.550, 896.242 390.911 C 893.011 382.252, 891.882 384.018, 894.468 393.685 M 1076.010 388.750 C 1074.893 390.813, 1073.471 393.213, 1072.849 394.085 C 1071.962 395.328, 1074.106 404.702, 1082.797 437.585 C 1096.278 488.591, 1105.290 523.137, 1111.863 549 C 1114.589 559.725, 1120.265 581.775, 1124.477 598 C 1128.689 614.225, 1132.572 629.188, 1133.106 631.250 L 1134.077 635 1140.039 635 C 1143.317 635, 1146 634.790, 1146 634.532 C 1146 634.275, 1141.231 615.713, 1135.402 593.282 C 1129.573 570.852, 1121.305 539, 1117.029 522.500 C 1112.752 506, 1105.145 476.750, 1100.125 457.500 C 1095.104 438.250, 1088.863 414.063, 1086.257 403.750 C 1081.042 383.115, 1079.937 381.498, 1076.010 388.750 M 991.685 410.742 C 939.177 411.001, 935.901 411.120, 936.380 412.758 C 936.660 413.716, 940.542 428.450, 945.008 445.500 C 949.474 462.550, 955.292 484.600, 957.937 494.500 C 960.582 504.400, 965.094 521.500, 967.965 532.500 C 970.836 543.500, 974.869 558.800, 976.927 566.500 C 978.985 574.200, 983.762 592.763, 987.542 607.750 L 994.416 635 1051.528 635 L 1108.640 635 1101.440 607.250 C 1097.480 591.987, 1090.813 566.225, 1086.624 550 C 1052.721 418.674, 1050.511 410.503, 1048.895 410.483 C 1048.128 410.474, 1022.383 410.591, 991.685 410.742 M 368.205 597.894 C 361.640 600.162, 356.410 604.255, 352.500 610.186 C 349.682 614.461, 349.164 614.776, 343.945 615.396 C 331.491 616.874, 320.474 625.192, 315.885 636.581 C 313.505 642.487, 313.500 642.588, 313.500 684 L 313.500 725.500 315.913 731.493 C 320.805 743.645, 333.880 753, 345.970 753 C 349.941 753, 350.982 753.367, 351.483 754.945 C 352.542 758.283, 362.646 766.691, 367.643 768.394 C 380.225 772.681, 399.160 769.581, 407.533 761.862 C 415.316 754.689, 417.430 748.097, 417.831 729.750 L 418.176 714 468.983 714 L 519.790 714 520.246 729.750 C 520.811 749.292, 522.017 753.187, 529.926 761.021 C 537.029 768.057, 542.737 770, 556.300 770 C 569.178 770, 574.946 767.865, 581.881 760.533 C 584.696 757.556, 587 754.643, 587 754.060 C 587 753.477, 588.753 753, 590.895 753 C 603.555 753, 616.331 744.271, 621.148 732.330 C 623.490 726.524, 623.500 726.325, 623.500 683.500 L 623.500 640.500 620.835 634.814 C 615.847 624.174, 605.385 616.831, 593.011 615.286 C 589.002 614.785, 588.166 614.213, 585.500 610.140 C 579.173 600.475, 569.679 596, 555.500 596 C 530.437 596, 520 608.904, 520 639.894 L 520 653 469.105 653 L 418.210 653 417.754 637.250 C 417.192 617.806, 416.004 613.956, 408.086 605.919 C 398.600 596.290, 382.328 593.016, 368.205 597.894 M 373.750 622.080 C 372.114 623.033, 372 627, 372 682.850 C 372 727.989, 372.293 742.893, 373.200 743.800 C 375.380 745.980, 390.727 745.379, 391.965 743.066 C 392.644 741.796, 393 721.249, 393 683.288 C 393 615.677, 393.878 620.983, 382.693 621.030 C 378.737 621.047, 374.712 621.519, 373.750 622.080 M 546.655 622.829 C 544.371 625.352, 544.095 740.380, 546.365 743.484 C 548.005 745.727, 563.793 745.925, 565.194 743.720 C 566.561 741.569, 566.178 623.578, 564.800 622.200 C 562.744 620.144, 548.643 620.633, 546.655 622.829 M 341.025 641.975 C 337.969 645.031, 337.901 646.101, 338.210 686.339 L 338.500 724.178 340.861 726.089 C 342.159 727.140, 344.072 728, 345.111 728 C 346.934 728, 347 726.473, 347 684 C 347 640.667, 346.970 640, 345 640 C 343.900 640, 342.111 640.889, 341.025 641.975 M 591 684 C 591 727.333, 591.030 728, 593 728 C 594.100 728, 595.900 727.100, 597 726 C 598.933 724.067, 599 722.667, 599 684.455 L 599 644.909 596.545 642.455 C 590.884 636.793, 591 635.923, 591 684 M 1124.436 661.070 C 1122.637 661.593, 1117.478 665.834, 1111.936 671.345 C 1104.280 678.959, 1101.408 681.132, 1096.712 682.864 L 1090.925 685 871.962 685 L 653 685 653 690.050 C 653 695.887, 654.820 699.997, 658.462 702.383 C 662.414 704.972, 1188.924 705.125, 1193.927 702.538 C 1198.838 699.998, 1200 696.006, 1200 681.680 C 1200 668.147, 1198.618 664.137, 1192.970 661.279 C 1190.035 659.794, 1129.465 659.610, 1124.436 661.070 M 418 683.500 L 418 689 469 689 L 520 689 520 683.500 L 520 678 469 678 L 418 678 418 683.500" stroke="none" fill="#1D5F3A" fill-rule="evenodd"/>
</svg>