<svg xmlns="http://www.w3.org/2000/svg" width="1000" height="341" viewBox="-195.0 165.9 1925.0 656.4">
	<path d="M 752.136 215.574 C 706.022 227.979, 689.997 286.088, 723.469 319.524 C 758.804 354.823, 819.341 336.541, 829.513 287.500 C 836.003 256.215, 815.137 224.043, 782.768 215.426 C 776.001 213.625, 759.080 213.707, 752.136 215.574 M 757.746 235.086 C 743.143 238.527, 730.379 251.552, 726.404 267.069 C 720.817 288.877, 736.670 312.842, 759.500 317.099 C 783.442 321.563, 805.945 305.909, 810.185 281.839 C 815.094 253.970, 786.351 228.344, 757.746 235.086 M 723.500 342.067 C 690.337 343.732, 668.313 357.255, 655.873 383.595 C 649.286 397.539, 649.031 399.775, 649.015 443.731 L 649 482.962 646.250 483.592 C 567.561 501.610, 512.600 531.508, 485.800 570.873 L 480.099 579.246 477.300 574.523 C 462.825 550.108, 449.366 538.046, 427.806 530.169 C 420.977 527.674, 419.422 527.502, 404 527.526 C 387.750 527.551, 387.379 527.600, 379.500 530.781 C 361.420 538.082, 349.398 552.190, 345.473 570.713 C 343.352 580.724, 343.309 707.762, 345.425 711.855 C 348.915 718.604, 359.673 718.402, 362.805 711.528 C 363.693 709.581, 364 692.093, 364 643.558 C 364 569.984, 363.950 570.526, 371.607 560.698 C 379.546 550.509, 387.251 547.480, 405 547.574 C 423.402 547.671, 432.411 551.525, 445.781 565.020 C 452.023 571.321, 453.015 572.868, 478.860 616.639 C 484.426 626.066, 489.772 634.165, 490.740 634.639 C 491.708 635.112, 507.209 635.724, 525.186 635.999 L 557.872 636.500 560.888 639.391 C 564.674 643.021, 565.540 646.772, 563.640 651.319 C 560.732 658.280, 562.153 658.094, 514.146 657.781 L 471.037 657.500 468.138 654.500 C 465.624 651.898, 447.646 623.751, 439.545 609.733 C 436.217 603.974, 433.608 602, 429.325 602 C 422.756 602, 419 605.582, 419 611.847 C 419 613.630, 423.401 621.685, 431.500 634.723 L 444 654.847 444 681.876 C 444 711.031, 444.312 713.076, 449.145 715.575 C 452.633 717.379, 455.367 717.379, 458.855 715.575 C 463.367 713.242, 464 710.385, 464 692.346 C 464 676.952, 464.123 675.839, 465.750 676.545 C 466.713 676.963, 472.479 677.574, 478.563 677.902 L 489.627 678.500 495.906 685.803 C 530.069 725.538, 604.935 758.266, 686 768.905 C 716.528 772.912, 726.722 773.479, 768 773.467 C 826.353 773.451, 865.521 768.568, 911.901 755.528 C 967.546 739.883, 1019.978 710.587, 1041.108 683.335 L 1045.113 678.169 1056.306 677.731 C 1062.463 677.490, 1068.513 676.949, 1069.750 676.529 L 1072 675.767 1072 692.336 C 1072 710.386, 1072.632 713.241, 1077.145 715.575 C 1080.633 717.379, 1083.367 717.379, 1086.855 715.575 C 1091.688 713.076, 1092 711.033, 1092 681.857 L 1092 654.808 1103.347 636.654 C 1116.944 614.898, 1117 614.796, 1117 611.613 C 1117 607.400, 1114.960 604.286, 1111.044 602.520 C 1104.702 599.660, 1101.450 601.809, 1094.205 613.651 C 1077.527 640.913, 1069.213 653.468, 1066.418 655.614 C 1062.607 658.541, 1063.708 658.484, 1016.266 658.216 L 978.032 658 974.893 655.195 C 969.349 650.242, 971.018 640.902, 978.096 637.265 C 979.849 636.364, 988.845 636.025, 1011.300 636.015 C 1046.861 635.998, 1046.041 636.178, 1050.989 627.283 C 1055.450 619.263, 1076.485 583.799, 1081.131 576.466 C 1088.754 564.433, 1102.888 552.961, 1114.480 549.398 C 1122.466 546.943, 1138.295 546.437, 1145.908 548.393 C 1157.389 551.343, 1165.942 559.450, 1169.882 571.118 C 1171.954 577.253, 1172 578.810, 1172 643.244 C 1172 714.717, 1171.890 713.262, 1177.472 715.805 C 1182.647 718.163, 1188.661 716.234, 1190.805 711.528 C 1192.643 707.495, 1192.427 578.820, 1190.568 570.152 C 1183.483 537.111, 1150.418 519.856, 1112.584 529.454 C 1091.425 534.821, 1076.008 546.745, 1062.996 567.805 L 1055.618 579.747 1052.475 574.529 C 1030.054 537.295, 975.100 504.963, 904.500 487.467 L 887.500 483.254 886.972 441.877 C 886.461 401.916, 886.363 400.260, 884.108 393.500 C 875.089 366.469, 856.865 349.906, 829.227 343.620 C 821.407 341.841, 749.151 340.780, 723.500 342.067 M 718.918 361.998 C 691.457 365.354, 674.008 381.388, 669.530 407.381 C 668.377 414.074, 668 424.025, 668 447.769 L 668 479.275 673.585 478.619 C 676.657 478.258, 682.507 477.466, 686.585 476.860 L 694 475.757 694 447.829 C 694 418.187, 694.386 415.469, 698.945 413.030 C 703.651 410.511, 710.999 412.995, 712.771 417.703 C 713.426 419.442, 713.763 430.273, 713.662 446.346 C 713.573 460.561, 713.725 472.521, 714 472.924 C 714.275 473.327, 728.675 473.328, 746 472.926 C 763.325 472.523, 787.356 472.606, 799.403 473.111 C 811.450 473.615, 821.575 473.758, 821.903 473.430 C 822.231 473.102, 822.566 460.926, 822.647 446.372 C 822.824 414.462, 823.538 412, 832.613 412 C 841.271 412, 842 414.789, 842 447.905 L 842 475.909 845.250 476.434 C 847.038 476.722, 852.925 477.556, 858.333 478.287 L 868.167 479.615 867.734 443.057 C 867.395 414.415, 866.976 405.417, 865.800 401.500 C 859.860 381.721, 845.414 368.040, 825.500 363.332 C 817.678 361.483, 731.915 360.409, 718.918 361.998 M 406.072 400.553 C 378.615 406.507, 358.677 429.531, 356.417 457.893 C 354.587 480.858, 369.270 506.321, 390.128 516.353 C 422.786 532.061, 459.472 519.086, 474.538 486.500 C 495.286 441.626, 454.245 390.106, 406.072 400.553 M 1105.948 400.428 C 1077.171 406.457, 1056 432.199, 1056 461.161 C 1056 489.925, 1075.200 514.331, 1103.460 521.490 C 1139.892 530.720, 1177.536 502.602, 1179.699 464.542 C 1181.944 425.053, 1144.361 392.381, 1105.948 400.428 M 411.186 420.118 C 378.203 425.605, 365.028 466.488, 388.500 490.512 C 415.946 518.603, 465.062 494.707, 459.837 455.805 C 457.525 438.584, 442.728 423.362, 425.040 420.008 C 419.084 418.878, 418.617 418.882, 411.186 420.118 M 1109.103 420.505 C 1076.158 427.867, 1064.802 469.128, 1089.465 491.861 C 1112.121 512.745, 1149.137 502.399, 1158.172 472.657 C 1167.130 443.172, 1139.427 413.728, 1109.103 420.505 M 730.500 493.086 C 615.522 498.725, 514.963 542.780, 494.446 596.503 L 492.819 600.764 496.970 608.328 L 501.122 615.893 531.311 616.196 L 561.500 616.500 567.617 619.697 C 590.785 631.807, 589.391 666.975, 565.387 675.956 C 560.504 677.783, 557.630 678, 538.275 678 L 516.626 678 519.563 681.108 C 532.596 694.900, 564.082 713.591, 593.500 725 C 660.321 750.914, 753.655 760.470, 837 749.932 C 910.214 740.675, 975.111 716.245, 1011.900 684.093 L 1018.299 678.500 995.400 678 L 972.500 677.500 967.167 674.546 C 945.793 662.706, 946.486 631.141, 968.371 619.703 L 974.500 616.500 1004.581 616.197 L 1034.663 615.894 1038.899 608.448 C 1043.533 600.303, 1043.537 600.107, 1039.251 591.500 C 1032.580 578.107, 1015.435 560.176, 998 548.358 C 937.720 507.497, 841.606 487.638, 730.500 493.086" stroke="none" fill="#1D5F3A" fill-rule="evenodd"/>
</svg>