<svg xmlns="http://www.w3.org/2000/svg" width="1000" height="450" viewBox="-203.5 71.9 1925.0 866.3">
	<path d="M 488.500 121.843 C 481.558 124.137, 474.866 130.859, 472.131 138.288 L 470 144.075 470 285.472 C 470 379.043, 470.345 427.776, 471.019 429.549 C 471.808 431.625, 471.752 432.103, 470.769 431.671 C 461.470 427.584, 455.233 425.504, 448.547 424.260 C 444.121 423.436, 438.121 421.916, 435.212 420.881 C 427.906 418.282, 366.652 418.023, 358.122 420.556 C 345.926 424.178, 338.985 436.930, 342.441 449.364 C 344.650 457.315, 348.047 461.648, 354.383 464.598 C 359.481 466.971, 359.639 466.980, 396.282 466.990 C 425.946 466.998, 433.727 466.723, 436.489 465.569 C 440.789 463.772, 444.990 464.800, 451.648 469.277 C 459.059 474.260, 462.086 480.092, 464.145 493.352 C 468.835 523.563, 473.256 551.687, 475.013 562.500 C 477.015 574.813, 479.268 589.431, 483.492 617.500 C 486.594 638.119, 491.157 667.025, 495.489 693.500 C 497.379 705.050, 499.853 720.800, 500.987 728.500 C 502.121 736.200, 503.457 744.525, 503.956 747 C 506.270 758.480, 506.455 757.705, 501.218 758.490 C 469.892 763.188, 445.426 792.464, 445.637 825 C 445.774 846.159, 456.985 867.157, 474.343 878.767 C 507.413 900.885, 553.692 889.209, 570.584 854.485 C 573.013 849.493, 575 844.866, 575 844.204 C 575 843.274, 596.689 843, 670.369 843 L 765.738 843 766.276 846.312 C 769.195 864.303, 790.302 878.271, 807.680 873.713 C 817.205 871.214, 822.614 868.223, 827.567 862.714 C 831.717 858.098, 836 849.083, 836 844.962 C 836 843.074, 836.803 843, 857.375 843 C 869.131 843, 880.156 842.719, 881.875 842.375 C 884.877 841.775, 884.979 841.864, 884.461 844.625 C 883.775 848.281, 886.655 854.050, 890 855.721 C 893.958 857.699, 1167.725 857.560, 1172.469 855.578 C 1178.944 852.872, 1179.608 843.040, 1173.618 838.561 C 1171.233 836.778, 1169.117 836.456, 1157.931 836.171 L 1145 835.841 1145 490.115 L 1145 144.388 1142.933 138.269 C 1140.261 130.356, 1133.656 123.866, 1125.942 121.575 C 1117.612 119.102, 496.008 119.363, 488.500 121.843 M 494.179 141.415 C 493.256 141.918, 492.169 142.818, 491.765 143.415 C 491.361 144.012, 491.024 208.527, 491.015 286.782 C 490.999 442.292, 491.282 434.802, 485.328 437.065 C 483.805 437.644, 481.855 437.934, 480.995 437.709 C 480.134 437.484, 481.772 439.641, 484.634 442.503 C 497.496 455.366, 501.265 465.010, 506.518 498.500 C 509.555 517.865, 517.804 571.127, 518.521 576 C 519.763 584.445, 522.078 599.291, 525.928 623.500 C 527.590 633.950, 529.589 646.550, 530.370 651.500 C 531.700 659.924, 531.798 657.145, 531.896 608.066 C 532.012 549.594, 531.964 550.010, 539.160 544.886 L 542.148 542.758 539.824 541.600 C 534.625 539.009, 534.859 547.261, 534.861 365.888 L 534.864 196.843 537.182 192.224 C 538.812 188.975, 540.687 186.998, 543.500 185.561 C 547.500 183.517, 547.526 183.516, 794.006 183.690 C 1052.469 183.872, 1043.923 183.719, 1048.768 188.258 C 1054.319 193.458, 1054 173.336, 1054 518.182 L 1054 836 1089.500 836 L 1125 836 1125 699.826 L 1125 563.651 1122.736 565.778 C 1117.773 570.441, 1114.436 571.001, 1091.782 570.978 C 1064.716 570.950, 1061.049 569.587, 1057.153 558.101 C 1055.545 553.362, 1055.532 460.696, 1057.138 455.899 C 1060.883 444.715, 1065.517 443, 1092 443 C 1113.669 443, 1119.316 444.044, 1123.002 448.729 L 1125 451.270 1125 298.246 C 1125 149.247, 1124.950 145.160, 1123.095 142.869 L 1121.189 140.516 808.524 140.508 C 621.433 140.503, 495.184 140.867, 494.179 141.415 M 554.759 370.395 C 554.509 530.721, 554.432 536.865, 552.649 538.835 C 550.805 540.873, 550.816 540.879, 555.649 540.394 C 560.843 539.873, 576.652 537.877, 594.500 535.488 C 603.471 534.288, 621.682 534.015, 693.250 534.008 L 781 534 781 369 L 781 204 668.009 204 L 555.017 204 554.759 370.395 M 802 369 L 802 534 827.874 534 C 856.640 534, 859.859 534.532, 865.774 540.265 C 872.275 546.567, 872 540.517, 872 677.182 L 872 801 876.374 801 C 892.505 801, 900.662 813.612, 895.511 830.591 C 894.692 833.291, 894.017 835.612, 894.011 835.750 C 894.005 835.888, 925.275 836, 963.500 836 L 1033 836 1033 520 L 1033 204 917.500 204 L 802 204 802 369 M 367.301 439.764 C 363.153 440.033, 361.975 440.505, 361.469 442.098 C 359.963 446.841, 361.054 447, 395.122 447 L 427 447 427 443.500 L 427 440 420.750 439.981 C 417.313 439.970, 405.050 439.841, 393.500 439.694 C 381.950 439.547, 370.161 439.578, 367.301 439.764 M 453.108 447.354 C 467.279 453.184, 477.224 463.707, 481.598 477.500 C 482.304 479.728, 482.896 480.602, 482.933 479.472 C 483.072 475.253, 476.074 462.914, 470.251 457.112 C 464.474 451.354, 453.576 444.978, 449.590 445.024 C 448.441 445.037, 450.024 446.086, 453.108 447.354 M 1077 467.674 L 1077 472.349 1079.310 470.178 C 1085.578 464.290, 1097.357 464.064, 1104.058 469.703 L 1107 472.178 1107 467.589 L 1107 463 1092 463 L 1077 463 1077 467.674 M 1077 507.277 L 1077 515.691 1082.641 512.845 C 1085.824 511.240, 1089.902 510, 1092 510 C 1094.098 510, 1098.176 511.240, 1101.359 512.845 L 1107 515.691 1107 507.315 L 1107 498.940 1104.250 500.934 C 1097.350 505.937, 1086.911 505.921, 1079.855 500.897 L 1077 498.864 1077 507.277 M 1077 546.826 L 1077 551 1092 551 L 1107 551 1107 546.826 L 1107 542.651 1104.750 544.732 C 1098.641 550.381, 1085.356 550.501, 1079.459 544.962 L 1077 542.651 1077 546.826 M 605 678 L 605 801 728.500 801 L 852 801 852 678 L 852 555 808 555 L 764 555 764 580.032 C 764 617.302, 765.634 615.386, 733.487 615.801 C 698.276 616.255, 700 618.067, 700 580.599 L 700 555 652.500 555 L 605 555 605 678 M 720 575.500 L 720 596 731.364 596 L 742.728 596 743.339 591.543 C 743.675 589.092, 743.666 579.867, 743.318 571.043 L 742.687 555 731.343 555 L 720 555 720 575.500 M 581.500 557.472 C 580.950 557.644, 574.087 558.586, 566.250 559.565 L 552 561.345 552 665.816 L 552 770.287 559.920 778.537 C 565.582 784.434, 568.790 788.807, 571.170 793.873 L 574.500 800.960 579.750 800.980 L 585 801 585 679 C 585 582.025, 584.744 557.016, 583.750 557.079 C 583.063 557.122, 582.050 557.299, 581.500 557.472 M 497.905 779.843 C 475.018 787.388, 461.470 811.629, 467.007 835.125 C 473.558 862.922, 505.293 878.146, 531.060 865.853 C 567.700 848.372, 567.338 799.146, 530.443 781.814 C 521.568 777.645, 507.211 776.776, 497.905 779.843 M 499.487 785.742 C 483.460 791.466, 475.055 801.589, 471.748 819.151 C 469.651 830.286, 474.646 844.538, 483.622 853.026 C 494.328 863.153, 508.670 866.969, 521.659 863.147 C 547.292 855.606, 558.456 833.002, 549.013 807.765 C 542.385 790.049, 517.905 779.163, 499.487 785.742 M 503.500 805.388 C 499.212 807.259, 493.289 814.214, 492.043 818.841 C 488.148 833.305, 502.435 847.922, 516.710 844.078 C 532.354 839.866, 537.457 820.422, 525.835 809.311 C 520.261 803.983, 510.606 802.286, 503.500 805.388 M 615.768 821.725 C 617.565 821.947, 620.265 821.943, 621.768 821.715 C 623.271 821.486, 621.800 821.304, 618.500 821.310 C 615.200 821.315, 613.971 821.502, 615.768 821.725 M 696.250 821.716 C 697.763 821.945, 700.237 821.945, 701.750 821.716 C 703.263 821.487, 702.025 821.300, 699 821.300 C 695.975 821.300, 694.737 821.487, 696.250 821.716 M 726.750 821.732 C 729.087 821.943, 732.913 821.943, 735.250 821.732 C 737.587 821.522, 735.675 821.349, 731 821.349 C 726.325 821.349, 724.413 821.522, 726.750 821.732 M 746.784 821.738 C 749.689 821.941, 754.189 821.939, 756.784 821.734 C 759.378 821.528, 757 821.363, 751.500 821.365 C 746 821.368, 743.878 821.536, 746.784 821.738 M 772.250 821.716 C 773.763 821.945, 776.237 821.945, 777.750 821.716 C 779.263 821.487, 778.025 821.300, 775 821.300 C 771.975 821.300, 770.737 821.487, 772.250 821.716 M 838.728 821.722 C 840.503 821.943, 843.653 821.946, 845.728 821.730 C 847.802 821.513, 846.350 821.333, 842.500 821.328 C 838.650 821.324, 836.952 821.501, 838.728 821.722 M 860.250 821.735 C 862.862 821.941, 867.138 821.941, 869.750 821.735 C 872.362 821.529, 870.225 821.360, 865 821.360 C 859.775 821.360, 857.638 821.529, 860.250 821.735 M 786 843.596 C 786 843.923, 786.713 845.386, 787.584 846.846 C 792.663 855.354, 804.553 856.635, 812.022 849.479 C 818.302 843.462, 817.509 843, 800.906 843 C 792.708 843, 786 843.268, 786 843.596" stroke="none" fill="#1D5F3A" fill-rule="evenodd"/>
</svg>