<svg xmlns="http://www.w3.org/2000/svg" width="1000" height="340" viewBox="-235.5 143.6 1935.0 657.9">
	<path d="M 804 193.466 C 738.349 194.573, 737.426 194.617, 731.718 196.878 C 720.936 201.148, 712.292 209.845, 707.743 221 L 705.500 226.500 705.227 328.087 L 704.954 429.674 699.227 427.660 C 690.229 424.495, 671.924 424.755, 662.324 428.185 C 647.938 433.324, 635.331 444.175, 629.719 456.250 L 627.512 461 619.006 461.008 C 603.640 461.021, 591.695 463.938, 581.205 470.238 C 569.720 477.136, 569.810 477.023, 530.990 533 C 526.222 539.875, 517.067 553.034, 510.645 562.241 C 504.222 571.449, 497.284 581.574, 495.227 584.741 C 493.169 587.909, 488.288 595, 484.381 600.500 C 475.928 612.399, 472.691 618.544, 470.574 626.716 C 466.104 643.964, 471.536 665.250, 483.355 676.806 C 488.858 682.186, 550.482 725.685, 558 729.496 C 573.248 737.225, 591.319 737.001, 607.039 728.887 C 616.511 723.999, 621.411 718.926, 632.525 702.500 C 642.500 687.757, 643.036 686.987, 668.051 651.500 C 678.130 637.200, 690.455 619.700, 695.439 612.611 L 704.500 599.721 705.026 657.111 C 705.369 694.451, 705.931 715.548, 706.635 717.500 C 712.445 733.602, 722.970 743.606, 737.500 746.839 C 746.331 748.803, 898.099 753.352, 938 752.848 L 965.500 752.500 972 749.413 C 980.934 745.171, 987.288 738.697, 991.809 729.230 L 995.500 721.500 995.743 482.500 C 995.877 351.050, 995.616 238.737, 995.165 232.915 C 993.487 211.296, 981.830 197.220, 962.201 193.110 C 955.727 191.754, 897.742 191.885, 804 193.466 M 813.500 217.158 C 741.524 218.117, 741.148 218.149, 735.205 223.917 C 728.762 230.170, 729 225.870, 729 335.866 C 729 434.667, 728.973 436.027, 727 438 C 725.900 439.100, 724.295 440, 723.434 440 C 722.348 440, 723.237 441.764, 726.332 445.750 C 745.374 470.277, 743.726 501.964, 722.270 523.847 L 715.996 530.246 717.879 536.373 C 718.915 539.743, 720.087 545.763, 720.483 549.750 C 721.150 556.467, 721.374 557, 723.530 557 C 729.242 557, 729 553.619, 729.006 633.321 C 729.009 681.756, 729.369 707.790, 730.071 710.315 C 731.444 715.260, 737.827 721.616, 742.697 722.887 C 744.789 723.434, 769 724.581, 796.500 725.438 C 824 726.295, 861.266 727.510, 879.313 728.137 C 903.973 728.995, 913.078 728.994, 915.954 728.132 C 920.736 726.699, 926.537 720.434, 927.954 715.170 C 928.693 712.426, 928.938 638.080, 928.758 470.863 L 928.500 230.500 926.411 226.500 C 925.262 224.300, 922.412 221.150, 920.079 219.500 L 915.835 216.500 897.668 216.390 C 887.675 216.329, 849.800 216.675, 813.500 217.158 M 949.534 217.750 C 953.069 226.027, 953.026 222.538, 952.759 475 C 952.522 699.320, 952.359 720.867, 950.867 724.750 L 949.234 729 953.667 729 C 961.005 729, 967.900 723.886, 970.411 716.580 C 972.440 710.680, 971.623 231.106, 969.578 227.151 C 966.392 220.989, 958.176 216.022, 951.143 216.006 C 949.279 216.001, 948.942 216.366, 949.534 217.750 M 764.385 290.617 C 758.963 292.540, 752.877 297.853, 749.349 303.743 L 746.500 308.500 746.234 424.938 C 746.003 525.919, 746.166 542.059, 747.464 546.525 C 749.436 553.307, 755.427 560.045, 762.212 563.111 L 767.500 565.500 827 565.500 L 886.500 565.500 891 562.845 C 896.604 559.539, 899.117 556.843, 902.413 550.601 L 905 545.702 905 427.938 L 905 310.175 901.729 303.837 C 898.190 296.982, 892.195 291.982, 885.177 290.033 C 878.891 288.287, 769.463 288.816, 764.385 290.617 M 772 315 C 770.024 316.976, 770 318.333, 770 427.500 C 770 536.667, 770.024 538.024, 772 540 C 775.015 543.015, 876.652 543.147, 879.374 540.139 C 882.168 537.052, 882.383 318.185, 879.595 315.105 C 876.675 311.879, 775.220 311.780, 772 315 M 789.217 330.561 C 782.004 335.613, 782.448 348.595, 789.967 352.483 C 794.484 354.819, 856.413 354.724, 861.341 352.375 C 869.312 348.573, 870.161 335.728, 862.783 330.561 C 859.438 328.218, 792.562 328.218, 789.217 330.561 M 673 450.539 C 666.270 452.395, 658.192 457.775, 654.632 462.773 L 651.977 466.500 654.739 467.739 C 656.257 468.421, 660.068 469.908, 663.207 471.045 C 675.695 475.567, 690.784 488.134, 699.474 501.250 C 703.911 507.948, 704 507.977, 707.459 503.866 C 716.630 492.968, 718.020 477.940, 710.887 466.824 C 702.011 452.993, 687.194 446.624, 673 450.539 M 607.270 486.054 C 591.463 489.174, 590.909 489.825, 534.979 571 C 530.242 577.875, 524.787 585.750, 522.858 588.500 C 491.064 633.807, 490.802 634.309, 493.377 644.744 C 495.708 654.192, 499.441 658.772, 511.743 667.279 C 517.659 671.371, 529.102 679.394, 537.170 685.109 C 573.562 710.885, 573.580 710.895, 582.500 710.934 C 587.609 710.957, 593.733 708.750, 599.028 704.980 C 600.614 703.851, 606.292 696.531, 611.645 688.714 C 624.098 670.531, 657.783 622.484, 673.492 600.500 C 697.657 566.682, 698.582 564.563, 695.654 549.753 C 691.715 529.830, 673.579 503.351, 658.348 495.287 C 644.677 488.049, 619.876 483.566, 607.270 486.054 M 638.500 496.892 C 624.109 499.557, 615.991 509.601, 616.009 524.718 C 616.029 541.042, 626.607 551, 643.926 551 C 656.213 551, 664.501 545.836, 669.205 535.249 C 678.438 514.473, 661.024 492.720, 638.500 496.892" stroke="none" fill="#1D5F3A" fill-rule="evenodd"/>
</svg>