<svg xmlns="http://www.w3.org/2000/svg" width="1000" height="450" viewBox="-208.5 69.6 1935.0 870.8">
	<path d="M 487.500 119.837 C 480.453 122.158, 472.900 129.744, 470.127 137.288 L 468 143.075 468 285.413 L 468 427.752 461.568 425.417 C 458.030 424.133, 452.067 422.574, 448.318 421.954 C 444.568 421.333, 439.121 419.965, 436.212 418.913 C 428.821 416.239, 365.739 415.999, 356.932 418.611 C 335.660 424.920, 333.118 456.099, 353.045 466.283 L 358.491 469.065 397.495 468.665 C 418.948 468.444, 438.075 467.954, 440 467.575 C 442.905 467.003, 444.429 467.448, 448.964 470.193 C 457.061 475.093, 459.987 480.456, 462.147 494.352 C 463.100 500.483, 465.896 518.325, 468.361 534 C 470.825 549.675, 474.011 570.150, 475.441 579.500 C 476.870 588.850, 478.688 600.325, 479.481 605 C 480.273 609.675, 481.404 617.325, 481.995 622 C 482.585 626.675, 483.511 632.750, 484.053 635.500 C 484.595 638.250, 487.310 654.900, 490.086 672.500 C 492.862 690.100, 496.698 714.400, 498.610 726.500 C 500.522 738.600, 502.345 750.139, 502.661 752.142 L 503.234 755.784 498.235 756.856 C 483.651 759.984, 472.926 766.135, 461.998 777.639 C 428.418 812.990, 442.703 872.418, 488.647 888.499 C 499.920 892.444, 518.192 893.166, 529.345 890.106 C 549.167 884.668, 564.596 872.139, 572.866 854.765 L 577.500 845.031 670.500 845.024 L 763.500 845.017 765.299 850.759 C 769.893 865.423, 785.728 877.017, 801.145 877.003 C 805.915 876.999, 817.355 873.432, 821.997 870.502 C 829.494 865.769, 838 852.992, 838 846.462 C 838 845.224, 841.337 845, 859.793 845 L 881.585 845 882.725 849.262 C 883.352 851.607, 885.057 854.644, 886.513 856.012 L 889.161 858.500 1029.588 858.760 C 1185.933 859.050, 1175.642 859.495, 1178.639 852.322 C 1180.525 847.808, 1179.937 841.707, 1177.335 838.784 C 1174.035 835.078, 1169.684 834, 1158.032 834 L 1147 834 1147 488.694 L 1147 143.388 1144.937 137.280 C 1142.222 129.240, 1134.768 121.900, 1126.965 119.582 C 1118.631 117.107, 495.037 117.356, 487.500 119.837 M 494.866 143.807 C 493.060 145.072, 493 149.674, 492.998 287.807 C 492.997 444.241, 493.311 435.826, 487.378 438.432 C 485.350 439.323, 485.486 439.643, 490.471 445.686 C 500.466 457.803, 503.950 467.735, 508.473 497 C 509.875 506.075, 513.481 529.475, 516.487 549 C 522.296 586.741, 523.586 595.042, 527.211 618 L 529.500 632.500 530 592.330 L 530.500 552.160 533.806 547.471 C 536.730 543.325, 536.946 542.592, 535.675 541.141 C 534.884 540.238, 533.918 538.457, 533.530 537.183 C 533.141 535.908, 532.823 458.662, 532.824 365.525 C 532.825 199.470, 532.863 196.098, 534.786 191.750 C 538.067 184.334, 541.453 182.688, 554.948 181.952 C 576.709 180.764, 1041.219 181.753, 1044.502 182.994 C 1046.151 183.617, 1048.748 185.318, 1050.274 186.773 C 1056.197 192.424, 1056 187.659, 1056 325.409 L 1056 451.456 1058.993 447.824 C 1063.910 441.860, 1068.090 441, 1092.167 441 C 1110.207 441, 1113.646 441.254, 1117.989 442.904 L 1123 444.808 1123 295.595 C 1123 169.576, 1122.783 146.086, 1121.606 144.476 C 1120.240 142.607, 1113.945 142.568, 808.471 142.535 C 553.440 142.506, 496.392 142.738, 494.866 143.807 M 556.756 371.750 C 556.615 462.913, 556.598 537.673, 556.718 537.884 C 556.922 538.246, 568.043 536.919, 593.500 533.496 C 602.495 532.286, 620.402 532.015, 691.750 532.008 L 779 532 779 369 L 779 206 668.006 206 L 557.012 206 556.756 371.750 M 804 369 L 804 532 829.374 532 C 858.019 532, 860.858 532.507, 867.280 538.775 C 874.358 545.684, 874 538.383, 874 675.682 L 874 799 877.874 799 C 886.939 799, 894.674 803.961, 897.614 811.660 C 899.276 816.010, 899.215 828.143, 897.512 832.250 C 896.825 833.906, 900.372 834, 963.893 834 L 1031 834 1031 520 L 1031 206 917.500 206 L 804 206 804 369 M 368.725 441.937 C 366.099 442.247, 363.849 442.950, 363.725 443.500 C 363.580 444.145, 374.402 444.594, 394.250 444.764 C 421.163 444.996, 425 444.840, 425 443.514 C 425 442.323, 423.669 442.002, 418.750 442.007 C 415.313 442.011, 403.725 441.870, 393 441.694 C 382.275 441.518, 371.351 441.627, 368.725 441.937 M 1079 507.528 L 1079 511.902 1083.250 509.973 C 1085.588 508.912, 1089.525 508.044, 1092 508.044 C 1094.475 508.044, 1098.412 508.912, 1100.750 509.973 L 1105 511.902 1105 507.951 C 1105 505.778, 1104.855 504, 1104.678 504 C 1104.501 504, 1102.217 504.729, 1099.602 505.620 C 1094.123 507.487, 1086.963 507.126, 1082.183 504.741 L 1079 503.153 1079 507.528 M 607 678 L 607 799 728.500 799 L 850 799 850 678 L 850 557 808 557 L 766 557 766 581.532 C 766 608.083, 765.639 610.302, 760.550 615 L 757.843 617.500 733.171 617.775 C 696.570 618.182, 698 619.626, 698 582.266 L 698 557 652.500 557 L 607 557 607 678 M 722 575.500 L 722 594 731.369 594 L 740.738 594 741.325 590.386 C 741.647 588.399, 741.636 580.074, 741.300 571.886 L 740.689 557 731.345 557 L 722 557 722 575.500 M 564.250 561.763 L 554 563.274 554 666.280 L 554 769.287 561.848 777.461 C 566.988 782.816, 570.830 787.941, 572.985 792.318 C 576.070 798.584, 576.484 799, 579.637 799 L 583 799 583 679.500 L 583 560 578.750 560.126 C 576.413 560.196, 569.888 560.932, 564.250 561.763 M 1056.011 698.250 L 1056 834 1089.500 834 L 1123 834 1123 701.549 L 1123 569.098 1118.750 571.027 C 1114.955 572.749, 1112.089 572.956, 1092 572.956 C 1066.733 572.956, 1063.764 572.325, 1058.682 565.875 L 1056.022 562.500 1056.011 698.250 M 498.905 781.841 C 476.942 789.090, 463.806 812.055, 469.004 834.114 C 476.703 866.783, 516.681 878.906, 542 856.251 C 557.588 842.303, 560.630 818.413, 549.073 800.709 C 537.988 783.728, 517.048 775.853, 498.905 781.841 M 498.487 783.744 C 468.038 794.606, 459.120 832.594, 481.914 854.336 C 500.053 871.638, 527.100 870.801, 543.900 852.419 C 562.500 832.068, 556.090 798.555, 531.249 786.279 C 521.868 781.642, 507.496 780.530, 498.487 783.744 M 504.481 807.394 C 490.990 813.272, 490.213 832.693, 503.179 839.980 C 521.572 850.318, 539.693 825.341, 524.339 810.814 C 519.246 805.995, 510.965 804.569, 504.481 807.394 M 791.648 848.109 C 797.077 853.539, 805.994 853.085, 811.407 847.102 L 813.310 845 800.924 845 L 788.538 845 791.648 848.109" stroke="none" fill="#1D5F3A" fill-rule="evenodd"/>
</svg>