<svg xmlns="http://www.w3.org/2000/svg" width="1000" height="404" viewBox="-195.5 117.9 1925.0 777.7">
	<path d="M 610.606 167.092 C 588.722 170.331, 570.739 185.127, 563.293 206.023 C 560.673 213.376, 560.617 214.072, 559.897 248 C 558.747 302.146, 558.841 776.832, 560.003 789.030 C 562.459 814.813, 575.841 833.503, 598.641 842.994 C 610.958 848.122, 610.619 848.113, 775 847.796 L 928.500 847.500 936.096 844.809 C 952.045 839.158, 961.346 831.497, 968.253 818.321 C 976.220 803.125, 975.500 834.024, 975.500 507.500 L 975.500 216.500 973.111 209.500 C 965.771 187.992, 953.858 176.071, 932.500 168.863 L 925.500 166.500 771 166.360 C 686.025 166.283, 613.848 166.612, 610.606 167.092 M 627 186.072 C 612.430 186.739, 608.579 187.678, 600.542 192.517 C 590.234 198.724, 583.617 207.693, 580.492 219.693 C 579.187 224.704, 579 260.516, 579 505.980 C 579 784.835, 579.012 786.585, 581.030 793.865 C 585.732 810.833, 600.221 824.413, 617.436 827.987 C 620.882 828.702, 670.456 828.952, 772.500 828.769 L 922.500 828.500 928.500 826.103 C 942.609 820.465, 950.111 812.338, 954.440 798 C 955.971 792.929, 956.097 770.433, 956.048 509.372 C 956.013 324.721, 955.646 224.408, 954.993 220.963 C 952.051 205.452, 940.864 193.327, 924.500 187.916 L 917.500 185.601 778.500 185.550 C 702.050 185.523, 633.875 185.758, 627 186.072 M 720.189 210.039 C 716.775 213.219, 717.041 222.101, 720.635 224.927 C 723.209 226.953, 724.272 227, 767.088 227 C 815.894 227, 815.366 227.066, 817.080 220.703 C 818.375 215.895, 817.698 212.728, 814.799 210.028 C 811.385 206.846, 723.604 206.857, 720.189 210.039 M 760.685 377.017 C 755.730 378.504, 748.123 385.090, 710.461 420.500 C 700.517 429.850, 678.541 450.515, 661.626 466.423 C 644.711 482.330, 630.226 496.268, 629.436 497.395 C 627.325 500.409, 627.549 511.888, 629.772 514.633 C 632.697 518.244, 635.495 519, 645.934 519 L 656 519 656.022 572.750 C 656.046 632.133, 656.004 631.711, 662.505 636.825 C 667.149 640.478, 671.364 640.849, 705 640.562 C 740.855 640.256, 741.496 640.153, 745.275 634.078 C 747.473 630.543, 747.496 630.115, 747.180 598.500 C 747.004 580.900, 747.145 564.587, 747.492 562.250 L 748.123 558 768.061 558 L 788 558 788 592.980 C 788 632.229, 788.200 633.571, 794.693 638 L 798.359 640.500 833.429 640.473 C 871.038 640.443, 871.641 640.369, 876.347 635.169 C 880.763 630.289, 880.910 628.290, 880.956 572.250 L 881 519 892.032 519 C 909.276 519, 913.729 515.802, 912.760 504.114 L 912.299 498.555 893.149 480.017 L 874 461.478 874 430.207 C 874 386.403, 874.868 387.767, 847.267 388.218 L 830.033 388.500 826.767 391.765 C 823.706 394.824, 823.468 395.565, 823 403.524 L 822.500 412.017 801.759 395.170 C 788.407 384.324, 779.638 377.908, 777.143 377.161 C 772.728 375.838, 764.842 375.769, 760.685 377.017 M 761.352 401.346 C 750.761 410.480, 723.527 435.659, 693 464.542 C 688.325 468.965, 681.137 475.715, 677.026 479.542 C 672.915 483.369, 666.390 489.530, 662.526 493.233 L 655.500 499.966 659.782 499.983 C 665.439 500.005, 670.419 502.184, 672.672 505.621 C 674.372 508.215, 674.535 512.359, 675 564.955 L 675.500 621.500 702 621.500 L 728.500 621.500 729 585.500 C 729.537 546.842, 729.472 547.305, 735.054 542.608 L 738.153 540 767.327 540.004 C 809.579 540.009, 806.907 536.874, 806.513 585.987 C 806.365 604.404, 806.463 620.042, 806.729 620.737 C 807.410 622.511, 859.029 622.571, 860.800 620.800 C 861.704 619.896, 862.001 606.029, 862.004 564.550 C 862.007 511.098, 862.066 509.404, 864.026 506.190 C 866.621 501.932, 871.354 500.002, 879.218 499.993 L 885.500 499.986 872.806 487.743 C 858.944 474.374, 856.009 470.377, 856.004 464.857 C 856.002 462.853, 855.438 460.982, 854.750 460.699 C 854.063 460.416, 849.225 456.727, 844 452.500 C 838.775 448.273, 832.067 443.424, 829.094 441.724 C 826.120 440.024, 811.945 429.224, 797.594 417.724 C 783.242 406.224, 770.822 396.449, 769.994 396.003 C 768.919 395.423, 766.450 396.949, 761.352 401.346 M 841.708 406.626 C 841.318 407.015, 841 413.083, 841 420.110 C 841 432.228, 841.116 432.967, 843.250 434.455 C 844.487 435.318, 847.872 438.347, 850.772 441.186 L 856.043 446.347 855.772 426.424 L 855.500 406.500 848.958 406.209 C 845.359 406.049, 842.097 406.237, 841.708 406.626 M 716.315 788.993 C 713.236 790.253, 712 793.085, 712 798.878 C 712 807.448, 708.909 807, 768.034 807 C 818.569 807, 819.668 806.958, 821.811 804.961 C 824.722 802.249, 824.879 794.307, 822.089 790.861 L 820.178 788.500 769.339 788.299 C 741.225 788.189, 717.523 788.499, 716.315 788.993" stroke="none" fill="#1D5F3A" fill-rule="evenodd"/>
</svg>