<svg xmlns="http://www.w3.org/2000/svg" width="1000" height="406" viewBox="-200.5 114.6 1935.0 785.6">
	<path d="M 612.500 164.094 C 588.036 167.659, 568.396 183.885, 560.535 207.024 C 557.657 215.496, 557.655 215.515, 556.915 250 C 555.773 303.220, 555.862 775.060, 557.017 787.178 C 560.248 821.090, 583.319 845.780, 615.786 850.072 C 620.825 850.738, 676.031 850.989, 775 850.796 L 926.500 850.500 935.549 847.336 C 957.837 839.544, 969.644 827.089, 976.197 804.455 L 978.500 796.500 978.500 507.500 L 978.500 218.500 975.611 210 C 967.503 186.150, 955.723 174.362, 932 166.365 L 923.500 163.500 771 163.360 C 687.125 163.282, 615.800 163.613, 612.500 164.094 M 624.370 189.016 C 612.294 189.560, 610.729 189.859, 604.860 192.748 C 596.544 196.842, 589.523 203.867, 585.620 212 L 582.500 218.500 582.241 503.323 C 582.009 759.867, 582.139 788.749, 583.558 794.225 C 586.612 806.010, 595.779 816.631, 607.820 822.335 L 614.500 825.500 769 825.500 C 919.542 825.500, 923.634 825.450, 928.739 823.556 C 939.755 819.470, 948.418 810.251, 951.632 799.193 C 953.103 794.135, 953.237 768.283, 953.142 509.569 C 953.084 353.331, 952.756 223.475, 952.413 221 C 950.558 207.600, 939.378 195.131, 925 190.425 C 919.815 188.728, 911.420 188.620, 778.500 188.525 C 700.950 188.469, 631.592 188.690, 624.370 189.016 M 721.121 206.710 C 712.345 211.033, 713.339 224.668, 722.718 228.638 C 728.478 231.076, 808.212 230.541, 813.750 228.027 C 816.087 226.966, 818.005 225.963, 818.011 225.799 C 818.017 225.635, 818.650 223.430, 819.418 220.900 C 821.272 214.792, 819.031 209.192, 813.726 206.674 C 808.402 204.148, 726.257 204.180, 721.121 206.710 M 761.222 374.470 C 754.391 376.603, 753.726 377.171, 708.529 419.419 C 623.139 499.237, 625 497.300, 625 506.415 C 625 516.536, 632.086 522, 645.212 522 L 653 522 653 572.962 C 653 647.302, 650.299 643.577, 704.103 643.436 C 735.474 643.354, 735.742 643.336, 740.582 640.927 C 744.431 639.011, 745.988 637.453, 747.979 633.524 L 750.500 628.547 750.199 594.774 L 749.897 561 767.449 561 L 785 561 785 593.462 C 785 630.898, 785.595 634.405, 792.778 639.307 C 799.074 643.603, 802.527 643.950, 835.500 643.603 C 870.072 643.240, 872.276 642.867, 877.944 636.411 C 883.810 629.730, 884 627.721, 884 572.318 L 884 522 892.322 522 C 906.315 522, 912.505 518.722, 915.144 509.913 C 917.606 501.697, 915.782 498.867, 895.351 479.209 L 877 461.552 877 431.401 C 877 394.257, 876.324 391.392, 866.500 386.881 C 861.767 384.707, 837.723 384.190, 831.899 386.136 C 824.989 388.446, 821.009 393.664, 820.094 401.615 L 819.500 406.779 800.812 391.592 C 777.951 373.013, 772.892 370.825, 761.222 374.470 M 761.853 403.763 C 751.328 412.846, 723.840 438.330, 692.023 468.500 C 686.223 474, 677.106 482.498, 671.763 487.385 C 661.557 496.720, 661.185 497.442, 666.035 498.508 C 670.894 499.575, 674.803 503.596, 676.484 509.257 C 677.754 513.536, 678 522.835, 678 566.682 L 678 619 702 619 L 726 619 726 586.626 C 726 551.274, 726.378 548.404, 731.789 542.641 C 736.822 537.281, 738.599 537, 767.500 537 C 810.616 537, 809.898 536.147, 809.403 586.750 L 809.088 619 834.044 619 L 859 619 859 565.212 L 859 511.424 861.250 507.020 C 864.028 501.584, 867.014 499.356, 873.611 497.799 L 878.722 496.593 868.795 487.058 C 857.975 476.665, 855.159 472.845, 853.499 466.306 C 852.550 462.569, 851.183 461.027, 842.954 454.414 C 837.754 450.235, 831.070 445.425, 828.099 443.727 C 825.128 442.028, 810.728 431.048, 796.099 419.326 C 781.470 407.604, 769.275 398.016, 769 398.020 C 768.725 398.023, 765.509 400.608, 761.853 403.763 M 844 420.487 L 844 431.973 847.750 435.459 C 849.813 437.377, 851.837 438.958, 852.250 438.973 C 852.663 438.988, 853 432.250, 853 424 L 853 409 848.500 409 L 844 409 844 420.487 M 717.055 786.397 C 707.547 789.832, 706.238 803.847, 715.014 808.248 C 720.220 810.860, 815.236 810.931, 820.722 808.328 C 829.612 804.109, 828.455 789.833, 818.945 786.397 C 814.008 784.613, 721.992 784.613, 717.055 786.397" stroke="none" fill="#1D5F3A" fill-rule="evenodd"/>
</svg>