<svg xmlns="http://www.w3.org/2000/svg" width="1000" height="260" viewBox="-232.0 251.9 1925.0 500.5">
	<path d="M 885.466 301.400 C 881.776 303.008, 876.552 308.098, 874.221 312.356 C 872.614 315.292, 872.480 327.721, 872.203 500.500 C 871.891 695.006, 871.804 690.904, 876.345 695.845 C 880.683 700.566, 882.794 701, 901.416 701 L 918.930 701 922.614 697.766 C 929.351 691.851, 929 697.464, 929 595.532 L 929 503 1074 503 L 1219 503 1219.004 596.750 C 1219.007 688.534, 1219.049 690.568, 1220.995 693.759 C 1224.989 700.310, 1227.442 700.993, 1247 700.993 C 1266.558 700.993, 1269.011 700.310, 1273.005 693.759 C 1274.970 690.538, 1274.993 688.332, 1274.996 503.315 C 1274.999 373.740, 1274.673 315.264, 1273.939 313.315 C 1272.429 309.312, 1267.176 304.070, 1262.500 301.900 C 1258.649 300.113, 1251.629 300.045, 1073.500 300.061 C 922.370 300.075, 887.945 300.320, 885.466 301.400 M 893.035 321.934 C 892.333 323.247, 892 381.257, 892 502.434 L 892 681 900.500 681 L 909 681 909 514.577 L 909 348.153 911.589 345.077 L 914.178 342 1073.533 342 L 1232.888 342 1235.694 344.414 L 1238.500 346.827 1238.715 484.664 C 1238.834 560.474, 1238.946 635.663, 1238.965 651.750 L 1239 681 1247.500 681 L 1256 681 1256 502.071 C 1256 340.742, 1255.845 322.988, 1254.429 321.571 C 1253.012 320.155, 1235.215 320, 1073.464 320 C 897.126 320, 894.053 320.033, 893.035 321.934 M 929 368.448 L 929 374.896 1071.370 374.973 C 1164.028 375.022, 1214.659 374.700, 1216.370 374.049 C 1218.772 373.136, 1219 372.570, 1219 367.525 L 1219 362 1074 362 L 929 362 929 368.448 M 929 403 L 929 411 1074 411 L 1219 411 1219 403 L 1219 395 1074 395 L 929 395 929 403 M 420 424.652 C 387.426 430.013, 372.482 436.868, 306.838 476.561 C 272.069 497.586, 278.642 495.243, 238.402 500.960 C 202.736 506.028, 197.141 508.638, 190.327 523.383 L 187.500 529.500 187.500 575.500 L 187.500 621.500 190.160 627.175 C 195.540 638.651, 204.488 645.731, 217.768 649.020 C 223.884 650.535, 269.269 657, 273.788 657 C 274.367 657, 275.158 658.462, 275.545 660.250 C 278.551 674.135, 294.166 692.064, 309.683 699.445 C 323.620 706.075, 347.426 707.073, 361.500 701.618 C 379.439 694.665, 396.393 677.468, 401.132 661.419 L 402.437 657 537.093 657 L 671.750 657 672.354 660.019 C 675.104 673.770, 690.116 691.350, 705.524 698.863 C 724.743 708.234, 752.890 706.980, 769.885 695.996 C 782.585 687.788, 792.179 676.260, 797.126 663.265 L 799.500 657.029 812.701 657.015 C 827.366 656.998, 834.245 655.887, 841.124 652.423 C 847.085 649.421, 854.205 642.274, 857.011 636.476 C 861.823 626.536, 861.814 588.144, 856.995 572.500 C 850.492 551.384, 831.155 533.840, 806.970 527.113 C 802.829 525.962, 780.554 521.871, 757.470 518.023 C 734.387 514.176, 714.749 510.590, 713.831 510.056 C 712.145 509.074, 678.116 482.566, 652.697 462.433 C 622.045 438.155, 617.218 434.606, 610.500 431.402 C 595.374 424.188, 600.853 424.559, 507 424.391 C 460.525 424.308, 421.375 424.425, 420 424.652 M 929 439 L 929 447 1073.393 447 C 1204.138 447, 1217.843 446.850, 1218.393 445.418 C 1218.727 444.548, 1219 440.948, 1219 437.418 L 1219 431 1074 431 L 929 431 929 439 M 419 445.016 C 402.118 447.999, 387.474 453.719, 367 465.330 C 357.516 470.708, 348.841 475.798, 304 502.291 C 282.591 514.941, 281.409 515.297, 243.778 520.419 C 218.135 523.909, 214.197 524.915, 210.593 528.898 L 208.690 531 219.595 531.006 C 232.993 531.012, 237.400 532.164, 242.131 536.896 C 246.918 541.682, 248.364 547.121, 247.753 558.033 C 246.774 575.525, 239.964 581, 219.182 581 L 207.300 581 206.663 592.750 C 204.945 624.452, 208.533 628.287, 244.929 633.639 C 275.335 638.109, 272.619 638.434, 273.261 630.250 C 274.862 609.862, 288.834 589.133, 307.564 579.359 C 331.984 566.614, 363.427 570.540, 383.144 588.794 C 395.330 600.076, 404 617.747, 404 631.302 L 404 637 451.500 637 L 499 637 499 588 L 499 539 425.750 538.994 C 380.763 538.991, 351.132 538.609, 348.956 538.004 C 342.194 536.126, 337 528.696, 337 520.903 C 337 513.776, 339.521 510.125, 355.791 493.690 C 381.780 467.437, 394.133 458.064, 410.557 452.133 C 426.162 446.498, 426.128 446.500, 507.500 446.500 C 600.127 446.500, 590.346 444.697, 617.099 466.698 C 623.920 472.307, 638.725 484.374, 650 493.515 C 661.275 502.656, 673.763 512.844, 677.750 516.155 L 685 522.176 685 527.999 C 685 533.274, 684.710 534.066, 681.923 536.411 L 678.847 539 598.923 539 L 519 539 519 588 L 519 637 593.902 637 L 668.804 637 669.514 630.750 C 672.649 603.154, 692.861 580.176, 719.967 573.392 C 729.722 570.950, 748.245 571.861, 757.242 575.225 C 780.927 584.081, 799.243 607.022, 800.774 629.750 L 801.263 637 813.664 637 C 835.805 637, 840.935 632.367, 840.978 612.332 L 841 602.163 828.750 601.832 C 817.752 601.534, 815.863 601.206, 810.266 598.620 C 791.532 589.968, 783.827 566.617, 796.059 555.566 C 799.856 552.136, 800.300 551.998, 807.753 551.960 C 814.889 551.923, 815.301 551.812, 812.978 550.547 C 806.824 547.198, 795.970 544.627, 768.222 539.943 C 704.017 529.105, 705.924 529.548, 697.436 523.492 C 690.657 518.654, 643.211 481.453, 620.500 463.167 C 594.291 442.065, 599.572 442.978, 504.292 443.081 C 436.113 443.154, 428.572 443.326, 419 445.016 M 434.539 467.112 C 412.815 470.277, 399.180 478.923, 371.016 507.392 L 359.533 519 429.173 519 C 494.962 519, 498.794 518.903, 498.466 517.250 C 498.275 516.288, 497.622 506.275, 497.015 495 C 496.407 483.725, 495.678 472.587, 495.394 470.250 L 494.877 466 467.689 466.122 C 452.735 466.189, 437.818 466.635, 434.539 467.112 M 515.602 476.688 C 516.389 491.079, 518.751 518.084, 519.269 518.602 C 519.496 518.829, 548.613 518.899, 583.973 518.757 L 648.264 518.500 625.382 499.946 C 589.884 471.163, 588.564 470.142, 584.408 468.265 C 580.981 466.717, 576.471 466.462, 547.756 466.188 L 515.011 465.876 515.602 476.688 M 929 475 L 929 483 1074 483 L 1219 483 1219 475 L 1219 467 1074 467 L 929 467 929 475 M 360.077 548.589 C 357.424 550.821, 357 551.843, 357 556 C 357 560.157, 357.424 561.179, 360.077 563.411 C 363.123 565.974, 363.323 566, 380.154 566 L 397.154 566 400.077 563.077 C 402.369 560.784, 403 559.258, 403 556 C 403 552.742, 402.369 551.216, 400.077 548.923 L 397.154 546 380.154 546 C 363.323 546, 363.123 546.026, 360.077 548.589 M 533.430 546.933 C 527.574 549.393, 526.185 558.339, 530.923 563.077 L 533.846 566 551.867 566 C 569.191 566, 569.991 565.912, 572.543 563.717 C 576.530 560.288, 577.089 553.378, 573.698 549.433 L 571.177 546.500 553.339 546.281 C 543.527 546.161, 534.568 546.454, 533.430 546.933 M 207 555.966 L 207 562 216.309 562 C 227.805 562, 229.261 561.181, 228.818 554.964 L 228.500 550.500 217.750 550.216 L 207 549.932 207 555.966 M 811.423 573.851 C 815.134 581.027, 820.585 583.323, 832.687 582.806 L 839.875 582.500 837.680 577 L 835.486 571.500 822.701 571.220 L 809.917 570.940 811.423 573.851 M 327.500 593.414 C 304.314 600.837, 288.896 624.490, 292.897 646.500 C 299.845 684.722, 347.677 698.730, 372.444 669.795 C 385.644 654.373, 388.164 636.406, 379.642 618.462 C 370.314 598.820, 346.440 587.351, 327.500 593.414 M 725 593.369 C 688.787 603.876, 676.936 646.155, 703.010 671.821 C 726.285 694.731, 763.548 687.256, 777.451 656.888 C 790.673 628.006, 769.425 593.704, 737.500 592.392 C 732.861 592.202, 727.609 592.612, 725 593.369 M 329.332 607.959 C 306.288 613.448, 299.175 646.661, 317.575 662.857 C 329.612 673.453, 351.614 672.176, 362.063 660.276 C 369.855 651.401, 372.242 637.930, 368.011 626.711 C 362.454 611.979, 345.982 603.993, 329.332 607.959 M 725.396 608.360 C 711.221 612.998, 703.107 625.893, 704.166 642.102 C 706.201 673.253, 749.210 680.856, 764.244 652.722 C 767.288 647.026, 767.542 630.410, 764.665 625.136 C 761.920 620.103, 755.187 613.194, 750.150 610.242 C 744.765 607.086, 732.207 606.131, 725.396 608.360 M 332.343 629.056 C 327.463 632.182, 325.511 637.999, 327.751 642.739 C 332.127 652.002, 344.019 652.666, 348.551 643.901 C 354.003 633.357, 342.325 622.661, 332.343 629.056 M 730.449 628.551 C 721.112 633.160, 722.052 645.403, 732.050 649.403 C 741.139 653.040, 750.075 643.350, 746.008 634.267 C 743.068 627.699, 736.823 625.405, 730.449 628.551" stroke="none" fill="#1D5F3A" fill-rule="evenodd"/>
</svg>