<svg xmlns="http://www.w3.org/2000/svg" width="1000" height="450" viewBox="42.8 1.2 1192.5 536.6">
	<path d="M 656.500 32.059 C 624.165 36.421, 599.745 57.380, 591.903 87.500 C 589.105 98.245, 588.331 116.212, 590.270 125.413 L 591.727 132.326 588.729 138.913 C 584.902 147.323, 581 158.725, 581 161.501 C 581 166.850, 590.620 170.287, 594.278 166.245 C 595.151 165.280, 597.076 161.118, 598.556 156.995 C 600.035 152.873, 602.062 147.885, 603.061 145.911 L 604.876 142.323 612.188 144.283 C 622.637 147.084, 647.886 147.806, 657.400 145.577 C 690.046 137.925, 711.476 108.549, 722.017 57 C 727.267 31.327, 727.774 32.002, 703.250 31.995 C 693.487 31.993, 680.550 31.794, 674.500 31.553 C 668.450 31.312, 660.350 31.539, 656.500 32.059 M 651.216 49.019 C 625.338 55.799, 608.462 75.404, 604.976 102.737 C 603.586 113.631, 603.955 113.624, 615.316 102.530 C 629.666 88.517, 652.575 73, 658.913 73 C 662.544 73, 666 76.860, 666 80.918 C 666 85.479, 665.597 85.851, 651.930 93.905 C 646.117 97.331, 638.028 102.927, 633.954 106.341 C 626.472 112.613, 613.767 126.814, 614.531 128.051 C 616.692 131.547, 641.660 133.564, 652 131.078 C 671.385 126.417, 687.956 109.796, 698.168 84.772 C 700.815 78.286, 708 51.634, 708 48.303 C 708 45.995, 660.467 46.595, 651.216 49.019 M 555 86.881 C 470.527 114.751, 404.600 187.480, 386.012 273.306 C 381.950 292.063, 380.765 303.021, 380.624 323.133 C 380.484 343.013, 381.107 345, 387.481 345 C 393.889 345, 394.597 342.923, 395.827 320.500 C 397.041 298.366, 399.483 282.027, 404.022 265.670 C 425.176 189.434, 484.258 127.365, 560.419 101.366 C 569.173 98.378, 571 96.746, 571 91.918 C 571 89.033, 570.380 87.657, 568.365 86.073 C 565.092 83.498, 565.291 83.486, 555 86.881 M 734.557 89.223 C 730.151 95.512, 733.233 99.399, 747 104.916 C 790.643 122.404, 830.876 156.228, 855.500 196.134 C 859.350 202.373, 863.288 208.270, 864.250 209.239 C 868.570 213.587, 876 209.547, 876 202.851 C 876 194.044, 853.798 163.737, 831.371 141.929 C 798.656 110.117, 741.656 79.086, 734.557 89.223 M 743.751 230.931 C 726.342 236.538, 716 252.814, 716 274.605 L 716 285 707.400 285 C 698.953 285, 698.740 285.060, 695.400 288.400 L 692 291.800 692.004 312.650 C 692.009 340.202, 693.567 343, 708.911 343 L 715.922 343 716.211 399.250 C 716.495 454.478, 716.539 455.585, 718.661 460.176 C 723.673 471.021, 733.536 477.792, 745.750 478.772 L 752 479.274 752 486.637 L 752 494 721 494 C 703.950 494, 690 493.849, 690 493.663 C 690 491.608, 680.576 442.516, 679.042 436.580 C 677.648 431.186, 673.250 421.303, 665.248 405.580 L 653.500 382.500 653.807 369.749 L 654.114 356.998 657.849 359.999 C 661.657 363.059, 687.301 373, 691.387 373 C 695.377 373, 698 370.250, 698 366.066 C 698 361.196, 697.789 361.043, 683.487 355.519 C 669.496 350.116, 665.021 347.635, 659.355 342.144 L 655.209 338.127 654.821 325.813 C 654.125 303.754, 645.010 292.978, 627.072 293.010 C 615.840 293.029, 612.203 295.821, 594.565 317.957 C 577.436 339.453, 578.557 336.321, 578.184 363.729 L 577.867 386.958 580.388 389.479 C 583.581 392.672, 587.394 392.697, 590.545 389.545 L 593 387.091 593 365.259 L 593 343.428 605.750 327.475 C 622.435 306.600, 626.259 304.192, 634.333 309.483 C 640.729 313.673, 640.938 315.625, 640 362.500 L 639.500 387.500 646.274 400.500 C 664.943 436.327, 663.676 432.931, 669.632 463.118 C 676.326 497.044, 676.381 494, 669.068 494 L 663.136 494 661.449 486.250 C 656.537 463.701, 650.984 440.831, 649.926 438.801 C 649.266 437.536, 645.689 431.325, 641.976 425 C 638.264 418.675, 631.350 406.842, 626.613 398.704 L 618 383.908 618 362.109 C 618 337.647, 617.815 337, 610.826 337 C 604.579 337, 604.286 337.998, 603.499 362 C 602.694 386.561, 602.606 386.132, 611.719 402.410 L 616.708 411.321 609.354 426.707 C 601.413 443.321, 600.730 446.458, 604.314 449.826 C 609.904 455.077, 613.680 452.136, 620.697 437.068 L 625.555 426.635 629.651 433.568 C 636.684 445.471, 637.957 448.641, 640.567 460.740 C 641.962 467.208, 644.205 476.857, 645.552 482.181 C 646.898 487.506, 648 492.343, 648 492.931 C 648 493.671, 636.259 494, 609.870 494 L 571.741 494 578.220 487.521 C 604.317 461.424, 597.351 418.645, 564.346 402.324 C 556.624 398.506, 556.594 398.500, 544.056 398.500 C 537.150 398.500, 530.427 398.725, 529.116 399 C 526.938 399.457, 526.391 398.707, 522.770 390.305 L 518.807 381.110 524.904 369.681 C 532.075 356.236, 532.799 351.572, 528.354 347.452 C 525.735 345.025, 525.512 345, 506.354 345 C 484.529 345, 483 345.481, 483 352.345 C 483 358.284, 484.860 359, 500.280 359 L 513.902 359 509.148 367.250 L 504.394 375.500 471.224 375.763 L 438.054 376.027 436.007 372.013 L 433.959 368 439.423 368 C 443.935 368, 445.158 367.613, 446.443 365.777 C 448.673 362.595, 448.365 358.691, 445.686 356.174 C 441.993 352.705, 407.455 352.822, 404.174 356.314 C 398.575 362.274, 403.174 368.983, 412.885 369.023 L 418.500 369.046 422.070 377.273 L 425.639 385.500 420.127 393.665 L 414.616 401.830 410.558 400.165 C 404.003 397.475, 382.230 397.837, 375 400.755 C 347.363 411.911, 333.804 446.346, 346.749 472.500 C 350.188 479.449, 356.492 487.454, 361.324 491.007 L 365.394 494 354.371 494 C 344.142 494, 343.192 494.167, 341.174 496.314 C 338.457 499.207, 338.382 503.382, 341 506 C 342.991 507.991, 344.333 508, 634.326 508 L 925.651 508 927.826 505.686 C 930.553 502.782, 930.585 500.013, 927.927 496.635 L 925.855 494 902.427 494 L 879 494 879 486.500 L 879 479 884.318 479 C 896.355 479, 907.086 472.448, 912.805 461.608 L 915.500 456.500 915.782 399.750 L 916.063 343 923.081 343 C 931.272 343, 935.211 341.341, 938.040 336.701 C 941.174 331.563, 941.006 293.548, 937.832 289.514 C 934.824 285.690, 930.172 284, 922.653 284 L 916.241 284 915.771 271.750 C 915.407 262.262, 914.794 258.188, 913.054 253.683 C 909.909 245.543, 901.005 236.199, 892.773 232.397 L 886.500 229.500 818 229.290 C 753.738 229.093, 749.144 229.195, 743.751 230.931 M 627.459 240.367 C 615.203 246.074, 609.148 262.972, 614.871 275.500 C 622.455 292.103, 646.194 295.106, 658.276 280.991 C 663.032 275.434, 664.307 271.325, 663.809 263.159 C 662.632 243.849, 644.456 232.452, 627.459 240.367 M 749.205 244.880 C 742.112 247.349, 737.075 251.616, 733.750 257.972 L 731 263.228 731 357.728 C 731 465.008, 730.356 456.968, 739.368 462.132 L 743.500 464.500 813 464.817 C 886.982 465.155, 890.392 464.974, 895.277 460.444 C 901.905 454.298, 901.472 460.960, 901.771 360.508 C 901.958 297.725, 901.704 267.889, 900.952 264.267 C 899.427 256.921, 894.614 250.371, 887.973 246.604 L 882.500 243.500 818.500 243.268 C 758.543 243.051, 754.166 243.152, 749.205 244.880 M 633 253.817 C 627.692 256.711, 625.139 263.384, 627.465 268.286 C 631.952 277.741, 644.261 277.812, 648.744 268.410 C 653.184 259.100, 642.120 248.846, 633 253.817 M 776.655 256.829 C 774.057 259.699, 774.542 264.495, 777.679 266.962 C 780.309 269.031, 781.029 269.064, 817.268 268.785 L 854.178 268.500 856.089 266.139 C 858.545 263.105, 858.503 260.909, 855.927 257.635 L 853.855 255 816.082 255 C 780.759 255, 778.203 255.119, 776.655 256.829 M 745.299 276.960 C 738.927 280.845, 739 280.230, 739 329.916 L 739 374.930 742.093 378.453 C 747.107 384.164, 746.607 384.129, 818.734 383.801 L 884.967 383.500 888.734 379.734 L 892.500 375.968 892.780 330.948 C 893.091 280.921, 893.110 281.085, 886.526 277.016 C 881.505 273.913, 750.381 273.861, 745.299 276.960 M 753 328.992 L 753 369 816.011 369 L 879.023 369 878.761 329.250 L 878.500 289.500 815.750 289.242 L 753 288.985 753 328.992 M 706 314 L 706 329 711 329 L 716 329 716 314 L 716 299 711 299 L 706 299 706 314 M 916 314.055 L 916 329.110 920.750 328.805 L 925.500 328.500 925.777 313.750 L 926.053 299 921.027 299 L 916 299 916 314.055 M 444.437 391.750 C 447.819 400.843, 462.667 433.705, 463.235 433.354 C 464.257 432.723, 497 391.203, 497 390.539 C 497 390.242, 485.027 390, 470.393 390 C 445.472 390, 443.827 390.111, 444.437 391.750 M 751.500 400.837 C 742.811 405.006, 739 411.337, 739 421.605 C 739 438.817, 755.581 448.799, 771.363 441.088 C 785.913 433.979, 786.569 411.629, 772.509 402.116 C 767.573 398.776, 757.120 398.140, 751.500 400.837 M 862.500 400.372 C 858.669 402.157, 852.432 408.668, 851.060 412.315 C 849.281 417.042, 849.756 427.602, 851.941 431.885 C 858.894 445.513, 876.176 448.091, 887.145 437.135 C 897.191 427.102, 895.788 410.706, 884.187 402.561 C 879.085 398.979, 867.910 397.851, 862.500 400.372 M 500.500 411.311 C 495.550 417.459, 486.607 428.791, 480.627 436.494 C 463.746 458.237, 465.327 457, 454.425 457 L 445.243 457 443.583 463.610 C 441.117 473.426, 437.494 479.713, 429.963 487.244 L 423.207 494 468.241 494 L 513.275 494 509.388 490.918 C 484.987 471.573, 483.296 435.625, 505.726 413.084 C 512.832 405.943, 513.062 405.564, 511.931 402.834 C 511.286 401.275, 510.474 400.030, 510.129 400.067 C 509.783 400.104, 505.450 405.164, 500.500 411.311 M 430.149 405.473 C 427.455 410.038, 427.232 409.086, 432.508 415.562 C 438.753 423.230, 442.276 430.526, 444.429 440.250 C 444.894 442.347, 445.627 443, 447.519 443 C 448.884 443, 450 442.790, 450 442.534 C 450 442.278, 446.017 433.015, 441.149 421.950 L 432.297 401.831 430.149 405.473 M 385 413.431 C 351.063 422.874, 346.396 468.447, 377.841 483.345 C 387.391 487.870, 400.516 487.965, 409.457 483.575 C 419.100 478.840, 426.747 469.516, 428.605 460.226 L 429.250 457 409.625 457 C 391.333 457, 389.864 456.864, 388 455 C 383.977 450.977, 384.457 449.631, 397.143 429.317 C 402.014 421.517, 406 414.916, 406 414.650 C 406 412.449, 391.545 411.610, 385 413.431 M 540 412.768 C 532.453 413.649, 532.410 412.312, 540.579 430.712 C 550.061 452.067, 550.082 457, 540.694 457 C 536.124 457, 535.731 456.420, 527.316 437.288 C 523.738 429.155, 520.405 422.073, 519.908 421.552 C 518.421 419.993, 512.168 426.922, 508.691 433.979 C 504.095 443.311, 503.978 457.494, 508.426 466.278 C 512.035 473.405, 519.229 480.280, 526.782 483.820 C 535.083 487.711, 548.898 487.720, 557.175 483.840 C 585.364 470.625, 586.164 429.991, 558.502 416.457 C 553.231 413.878, 544.833 412.204, 540 412.768 M 755.073 416.635 C 749.710 423.452, 756.657 431.881, 764.316 427.850 C 767.284 426.288, 767.967 425.060, 767.985 421.250 C 768.017 414.328, 759.329 411.223, 755.073 416.635 M 866.455 416.455 C 859.699 423.210, 869.625 433.173, 877.089 427.129 C 878.762 425.775, 879.400 424.220, 879.400 421.500 C 879.400 414.519, 871.478 411.431, 866.455 416.455 M 413.550 431.378 C 405.378 444.046, 404.936 443, 418.460 443 C 430.092 443, 430.132 442.992, 429.487 440.750 C 428.350 436.796, 424.123 428.597, 421.641 425.531 L 419.238 422.561 413.550 431.378 M 790.223 435.557 C 787.598 437.395, 787.154 443.460, 789.418 446.559 C 791.735 449.731, 837.335 450.098, 841.303 446.977 C 844.810 444.218, 844.985 439.274, 841.686 436.174 C 839.445 434.069, 838.622 434, 815.908 434 C 796.291 434, 792.081 434.255, 790.223 435.557 M 766.761 481.472 C 766.501 482.831, 766.506 486.206, 766.771 488.972 L 767.254 494 815.627 494 L 864 494 864 486.500 L 864 479 815.617 479 L 767.233 479 766.761 481.472" stroke="none" fill="#1D5F3A" fill-rule="evenodd"/>
</svg>