<svg xmlns="http://www.w3.org/2000/svg" width="1000" height="430" viewBox="-165.0 98.9 1925.0 827.8">
	<path d="M 488.500 147.676 C 475.498 150.563, 466.096 159.473, 461.976 172.813 C 460.026 179.126, 460 183.259, 460.008 484.855 C 460.013 693.453, 460.348 792.554, 461.065 796.970 C 463.048 809.192, 471.324 819.560, 482.798 824.196 L 488.500 826.500 626.912 827 L 765.324 827.500 768.175 840 C 772.871 860.587, 777.977 868.417, 790.797 874.689 C 801.255 879.806, 806.484 879.341, 837.500 870.535 C 867.741 861.949, 893.482 854.676, 922.750 846.448 C 933.612 843.394, 946.325 839.816, 951 838.497 C 955.675 837.178, 973.225 832.233, 990 827.509 C 1006.775 822.785, 1029.725 816.261, 1041 813.013 C 1052.275 809.764, 1072.648 803.934, 1086.274 800.058 C 1120.091 790.437, 1125.404 787.320, 1132.175 773.133 C 1138.204 760.501, 1137.409 754.835, 1120.090 687 C 1115.895 670.572, 1104.651 627.368, 1099.529 608 C 1096.547 596.725, 1092.033 579.625, 1089.497 570 C 1082.275 542.587, 1077.637 535.022, 1064.159 528.673 C 1051.623 522.768, 1045.973 523.546, 999.109 537.628 C 992.843 539.510, 987.569 540.903, 987.389 540.722 C 987.208 540.542, 986.935 474.718, 986.780 394.447 L 986.500 248.500 984.127 242.500 C 981.925 236.932, 978.648 233.380, 938.627 193.176 C 914.907 169.348, 894.285 149.211, 892.800 148.426 C 890.485 147.204, 861.543 147.017, 690.300 147.116 C 580.410 147.180, 489.600 147.432, 488.500 147.676 M 490.208 167.711 C 485.663 168.582, 481.306 174.294, 480.716 180.156 C 479.597 191.263, 479.925 790.340, 481.053 795.131 C 481.722 797.976, 483.297 800.869, 485.137 802.631 L 488.131 805.500 624.177 805.761 C 741.633 805.986, 760.147 805.826, 759.675 804.595 C 759.374 803.811, 756.648 792.444, 753.617 779.335 C 750.587 766.226, 746.518 748.750, 744.576 740.500 C 742.634 732.250, 739.861 720.325, 738.415 714 C 736.969 707.675, 733.081 691.302, 729.775 677.616 C 722.412 647.138, 722.225 641.267, 728.243 629.500 C 735.194 615.909, 741.713 612.042, 772 603.545 C 783.275 600.383, 799.925 595.623, 809 592.970 C 818.075 590.316, 847.100 581.826, 873.500 574.104 C 899.900 566.381, 931.400 557.211, 943.500 553.726 L 965.500 547.389 965.753 399.743 L 966.007 252.097 931.253 251.798 L 896.500 251.500 891.199 248.564 C 888.284 246.948, 884.557 243.802, 882.916 241.571 C 877.466 234.160, 877 230.677, 877 197.318 L 877 167 684.750 167.136 C 579.013 167.211, 491.469 167.470, 490.208 167.711 M 897 204 C 897 226.667, 897.111 228.111, 899 230 C 900.890 231.890, 902.333 232, 925.243 232 L 949.486 232 923.500 206 C 909.208 191.700, 897.399 180, 897.257 180 C 897.116 180, 897 190.800, 897 204 M 560 217.576 C 538.414 223.245, 522.745 240.175, 518.338 262.591 C 515.318 277.954, 521.417 295.677, 534 308.102 C 561.232 334.992, 603.931 327.116, 621.297 292 L 625.500 283.500 625.500 270.406 L 625.500 257.312 620.821 247.887 C 608.955 223.984, 583.639 211.368, 560 217.576 M 561.479 237.335 C 537.567 245.175, 529.670 274.648, 546.585 292.919 C 554.247 301.195, 559.766 303.492, 572 303.496 C 580.385 303.500, 582.169 303.171, 587.203 300.700 C 612.180 288.434, 612.304 252.094, 587.411 239.499 C 580.713 236.111, 568.360 235.080, 561.479 237.335 M 655.110 262.396 C 650.348 265.035, 648.614 271.576, 651.561 275.783 C 655.354 281.199, 651.666 281, 748.302 281 L 837.704 281 841.089 278.719 C 846.890 274.810, 847.483 268.392, 842.505 263.414 L 840.091 261 748.795 261.035 C 674.936 261.064, 657.044 261.324, 655.110 262.396 M 523.314 365.950 C 515.840 370.508, 516.195 379.464, 524.011 383.506 C 528.268 385.707, 915.201 385.779, 920.466 383.579 C 926.145 381.206, 928.690 373.857, 925.439 369.217 C 921.548 363.662, 934.711 364, 722.300 364.004 C 530.187 364.007, 526.440 364.044, 523.314 365.950 M 522.826 435.712 C 516.332 439.741, 516.709 449.724, 523.472 452.805 C 525.477 453.719, 572.355 454, 722.500 454 C 872.645 454, 919.523 453.719, 921.528 452.805 C 928.722 449.528, 928.625 439.099, 921.369 435.639 C 916.047 433.101, 526.919 433.173, 522.826 435.712 M 521.400 507.400 C 516.365 512.435, 517.387 520.033, 523.472 522.805 C 527.873 524.810, 810.125 524.504, 814.020 522.490 C 821.157 518.799, 820.433 507.741, 812.881 505.108 C 810.612 504.317, 768.928 504, 667.251 504 L 524.800 504 521.400 507.400 M 1043.500 545.702 C 1040.362 546.440, 983.352 562.606, 964.500 568.103 C 928.763 578.525, 916.982 581.990, 864 597.663 C 839.156 605.013, 805.652 614.730, 776.500 623.040 C 753.353 629.639, 752.370 630.022, 748.819 633.828 C 742.876 640.199, 742.373 644.005, 745.559 658.498 L 748.255 670.768 751.878 669.772 C 764.871 666.199, 909.795 624.644, 933.500 617.695 C 974.610 605.642, 1010.182 595.395, 1042 586.438 C 1057.125 582.180, 1069.874 578.368, 1070.332 577.967 C 1070.789 577.565, 1069.748 572.121, 1068.019 565.868 C 1063.287 548.757, 1055.999 542.763, 1043.500 545.702 M 537.205 576.894 C 530.500 579.210, 525.323 583.372, 521.500 589.518 L 518.500 594.342 518.225 668.777 L 517.950 743.212 520.315 748.356 C 523.683 755.681, 527.265 759.493, 533.769 762.675 L 539.446 765.453 615.973 765.433 L 692.500 765.413 697 763.062 C 704.700 759.040, 707.880 755.989, 711.018 749.615 L 714.050 743.456 713.775 668.978 L 713.500 594.500 710.788 589.887 C 707.143 583.687, 702.311 579.634, 695.544 577.103 C 687.350 574.037, 546.016 573.851, 537.205 576.894 M 549.370 595.741 C 538.335 596.197, 538.002 596.624, 537.283 611.223 C 536.974 617.490, 537.042 625.178, 537.433 628.308 L 538.144 634 616.072 634 L 694 634 694 616.655 C 694 600.293, 693.881 599.202, 691.895 597.405 C 689.872 595.573, 687.252 595.498, 623.645 595.453 C 587.265 595.427, 553.842 595.557, 549.370 595.741 M 1055.500 603.030 C 1044.500 606.198, 1025.150 611.794, 1012.500 615.465 C 999.850 619.135, 977.800 625.510, 963.500 629.631 C 949.200 633.752, 931.650 638.868, 924.500 640.999 C 906.758 646.287, 877.011 654.884, 850 662.531 C 837.625 666.034, 810.914 673.648, 790.642 679.450 C 770.371 685.253, 753.655 690, 753.498 690 C 753.340 690, 753.616 691.688, 754.111 693.750 C 754.607 695.813, 756.339 703.575, 757.962 711 C 761.463 727.027, 771.816 770.757, 782.934 816.480 C 791.301 850.889, 792.202 853.255, 798.071 856.248 C 803.580 859.057, 806.550 858.519, 843.941 847.932 C 863.499 842.394, 887.600 835.600, 897.500 832.833 C 918.396 826.994, 946.390 819.075, 1022 797.616 C 1051.975 789.109, 1083.222 780.270, 1091.439 777.974 C 1107.806 773.400, 1110.011 772.336, 1112.938 767.600 C 1116.211 762.305, 1116.450 757.262, 1113.970 745.856 C 1108.849 722.301, 1077.330 599.115, 1076.110 597.885 C 1075.775 597.546, 1066.500 599.862, 1055.500 603.030 M 537.251 697.589 L 537.500 741.177 539.861 743.089 C 543.432 745.980, 688.439 746.085, 692.003 743.198 C 694.219 741.405, 694.228 741.257, 694.275 708.948 C 694.301 691.102, 694.249 671.438, 694.161 665.250 L 694 654 615.501 654 L 537.002 654 537.251 697.589 M 844 699.005 C 842.625 699.471, 832.725 702.373, 822 705.453 C 798.254 712.273, 797.473 712.578, 792.685 716.904 C 783.212 725.462, 782.471 732.880, 788.739 756.392 C 793.444 774.040, 796.013 779.351, 801.774 783.343 C 810.698 789.528, 813.910 789.413, 840.746 781.952 C 874.784 772.489, 879.085 769.634, 882.098 754.500 C 882.963 750.159, 877.718 724.702, 873.793 714.188 C 869.259 702.042, 855.591 695.076, 844 699.005 M 844.500 719.435 C 842.300 720.172, 833.750 722.647, 825.500 724.935 C 806.547 730.193, 805.094 730.778, 804.429 733.427 C 803.837 735.787, 810.625 764.706, 812.251 766.750 C 813.841 768.750, 816.104 768.339, 839.239 761.843 C 866.204 754.272, 864.587 756.384, 859.397 735.513 C 857.343 727.256, 855.234 719.938, 854.709 719.250 C 853.493 717.657, 849.599 717.727, 844.500 719.435 M 1067.500 729.125 C 1062 730.731, 1029.162 740.122, 994.526 749.994 C 959.891 759.866, 930.435 768.778, 929.068 769.798 C 923.068 774.278, 923.734 783.404, 930.257 786.106 C 934.590 787.901, 932.288 788.422, 978.630 775.160 C 1001.659 768.570, 1034.450 759.277, 1051.500 754.509 C 1068.550 749.741, 1083.530 745.179, 1084.790 744.371 C 1091.103 740.321, 1090.994 731.797, 1084.580 727.885 C 1080.678 725.507, 1079.634 725.582, 1067.500 729.125" stroke="none" fill="#1D5F3A" fill-rule="evenodd"/>
</svg>