<svg xmlns="http://www.w3.org/2000/svg" width="1000" height="406" viewBox="-195.5 104.9 1925.0 781.6">
	<path d="M 405.450 154.884 C 402.187 156.366, 401.166 157.502, 400.200 160.728 C 398.429 166.637, 398.663 184.656, 400.584 190.292 C 402.053 194.604, 407.698 201, 410.035 201 C 410.581 201, 411 204.770, 411 209.684 C 411 219.515, 413.197 225.697, 417.510 228.005 L 420 229.338 419.994 475.419 L 419.987 721.500 416.952 723.227 C 412.282 725.885, 411 730.251, 411 743.500 C 411 759.249, 413.325 764.097, 422.250 766.954 L 426 768.155 426 775.866 C 426 781.890, 426.492 784.539, 428.250 787.980 C 432.151 795.614, 434.163 796.452, 449.500 796.826 L 462.861 797.152 463.181 812.326 C 463.705 837.223, 464.567 838.001, 491.651 837.998 C 512.664 837.997, 515.097 837.282, 518.750 830.038 C 520.770 826.032, 521 824.117, 521 811.288 L 521 797 768 797 L 1015 797 1015.022 811.750 C 1015.060 837.132, 1016.745 838.669, 1044 838.174 C 1070.966 837.684, 1072 836.727, 1072 812.266 L 1072 797 1084.288 797 C 1104.166 797, 1108.943 793.103, 1109.984 776.034 L 1110.500 767.567 1113.845 766.612 C 1121.705 764.367, 1125 757.539, 1125 743.500 C 1125 732.155, 1123.611 727.679, 1118.819 723.577 L 1115 720.308 1115.006 474.904 L 1115.013 229.500 1117.819 227.904 C 1122.213 225.405, 1124.395 219.770, 1124.822 209.819 L 1125.194 201.137 1128.982 198.631 C 1134.454 195.010, 1136 189.706, 1135.998 174.572 C 1135.997 160.279, 1134.648 156.388, 1129 154.390 C 1126.244 153.415, 1049.428 153.141, 767.500 153.098 C 421.967 153.046, 409.359 153.108, 405.450 154.884 M 419 178.001 L 419 183.003 767.750 182.751 L 1116.500 182.500 1116.805 177.750 L 1117.110 173 768.055 173 L 419 173 419 178.001 M 430 207 L 430 212 767.375 212 L 1104.750 212 1105.375 208.875 C 1105.719 207.156, 1106 204.906, 1106 203.875 C 1106 202.045, 1097.822 202, 768 202 L 430 202 430 207 M 439 276 L 439 321 457.532 321 C 479.154 321, 482.090 321.711, 483.968 327.403 C 485.584 332.299, 483.822 337.726, 480.152 339.160 C 478.639 339.751, 469.235 340.183, 458.250 340.165 L 439 340.135 439 345.067 L 439 350 445.032 350 C 451.247 350, 458 352.072, 458 353.979 C 458 354.573, 459.392 354.034, 461.092 352.780 C 464.061 350.591, 464.829 350.513, 480.342 350.832 C 489.910 351.029, 497.489 351.641, 498.926 352.332 C 504.543 355.036, 503.790 365.832, 497.839 367.906 C 490.361 370.513, 459 368.721, 459 365.687 C 459 365.139, 458.054 365.546, 456.898 366.592 C 455.300 368.039, 452.905 368.580, 446.898 368.853 L 439 369.212 439 544.606 L 439 720 444.500 720 L 450 720 450 655.655 C 450 593.900, 449.924 591.241, 448.116 589.605 C 443.517 585.443, 442.868 573.036, 446.822 564.868 L 448.966 560.439 446.733 555.969 C 441.308 545.111, 444.897 529.431, 454.112 523.734 C 475.182 510.708, 500.493 529.345, 492.500 552 C 491.675 554.338, 491 556.420, 491 556.626 C 491 556.832, 499.550 557, 510 557 L 529 557 529 507.051 L 529 457.103 505.548 456.801 C 478.643 456.456, 479.500 456.745, 479.500 448 C 479.500 440.474, 480.406 439.654, 489.268 439.162 C 497.258 438.718, 497.962 438.199, 497.985 432.750 L 498 429 483.649 429 C 466.341 429, 463.315 428.194, 462.404 423.342 C 461.506 418.554, 463.073 413.775, 466.034 412.277 C 468.659 410.949, 519.189 410.409, 523.859 411.659 C 525.195 412.016, 526.805 413.637, 527.570 415.395 C 528.733 418.066, 528.927 412.340, 528.961 374.432 C 529.004 325.857, 529.289 323.157, 535.073 316.570 C 541.057 309.754, 537.147 310, 639.497 310 C 741.344 310, 738.624 309.839, 744.647 316.223 C 751.300 323.274, 751 317.285, 751 443.178 L 751 557 783.500 557 L 816 557 816.076 548.750 C 816.173 538.274, 817.624 534.169, 822.321 531.082 L 826 528.665 826 428.843 C 826 332.173, 826.062 328.859, 827.957 323.871 C 830.518 317.130, 833.167 314.455, 839.702 312.010 C 844.889 310.070, 847.409 310, 912.359 310 C 987.128 310, 985.826 309.893, 992.551 316.618 C 999.217 323.284, 999 319.480, 999 429.656 L 999 528.949 1002.079 530.541 C 1006.466 532.809, 1008 537.324, 1008 547.968 L 1008 557 1026.107 557 C 1042.949 557, 1044.166 556.878, 1043.521 555.250 C 1037.677 540.490, 1044.175 525.100, 1058.088 520.748 C 1080.359 513.781, 1097.577 533.386, 1088.525 555.404 C 1086.130 561.231, 1086.123 561.340, 1087.991 563.715 C 1092.997 570.080, 1092.707 581.732, 1087.345 589.633 L 1085 593.089 1085 656.544 L 1085 720 1090.500 720 L 1096 720 1096 583 L 1096 446 1088.750 445.994 C 1084.398 445.990, 1080.397 445.412, 1078.741 444.549 C 1076.329 443.290, 1075.530 443.298, 1072.389 444.611 C 1066.742 446.970, 1028.798 446.232, 1026.283 443.714 C 1023.796 441.223, 1023.796 431.777, 1026.283 429.286 C 1029.997 425.567, 1075 426.407, 1075 430.195 C 1075 430.808, 1075.947 430.453, 1077.104 429.405 C 1078.737 427.927, 1081.092 427.421, 1087.604 427.147 L 1096 426.795 1096 421.952 L 1096 417.110 1074.534 416.805 C 1049.631 416.451, 1049.500 416.405, 1049.500 407.992 C 1049.500 398.879, 1050.346 398.554, 1075.026 398.194 L 1096 397.888 1096 314.444 L 1096 231 767.500 231 L 439 231 439 276 M 550.200 330.200 C 549.414 330.986, 549.027 334.869, 549.079 341.450 C 549.144 349.764, 549.339 350.982, 550.206 348.500 C 551.724 344.157, 554.536 341.455, 558.902 340.148 C 564.316 338.526, 717.272 338.520, 722.101 340.142 C 726.674 341.678, 728.761 343.635, 729.523 347.104 C 730.778 352.819, 731.772 349.836, 731.543 341.039 C 731.401 335.562, 730.813 331.480, 730.033 330.539 C 728.336 328.495, 552.237 328.163, 550.200 330.200 M 847.223 330.557 L 845 332.113 845.237 430.307 L 845.475 528.500 845.987 435.500 C 846.549 333.652, 846.228 338.543, 852.540 335.548 C 857.390 333.247, 965.005 333.218, 970.749 335.516 C 977.956 338.400, 977.445 331.397, 978.013 435 L 978.525 528.500 978.763 429.785 C 978.995 333.085, 978.961 331.049, 977.066 330.035 C 973.552 328.154, 849.943 328.651, 847.223 330.557 M 865 380 L 865 407 912 407 L 959 407 959 380 L 959 353 912 353 L 865 353 865 380 M 638.876 362.354 C 640.368 365.435, 640.564 365.541, 641.290 363.658 C 641.725 362.530, 642.568 361.021, 643.163 360.304 C 644.017 359.274, 643.509 359, 640.749 359 L 637.253 359 638.876 362.354 M 586 467 L 586 557 604 557 L 622 557 622 467 L 622 377 604 377 L 586 377 586 467 M 659 467 L 659 557 676.839 557 L 694.679 557 694.909 467 L 695.140 377 677.070 377 L 659 377 659 467 M 731.472 449 C 731.472 485.025, 731.597 499.762, 731.750 481.750 C 731.902 463.738, 731.902 434.262, 731.750 416.250 C 731.597 398.238, 731.472 412.975, 731.472 449 M 527.614 424.400 C 526.938 427.097, 522.690 429, 517.351 429 L 514 429 514 434 L 514 439 521.500 439 L 529 439 529 430.500 C 529 421.742, 528.659 420.239, 527.614 424.400 M 865 477.500 L 865 528 912 528 L 959 528 959 477.500 L 959 427 912 427 L 865 427 865 477.500 M 549.343 458.500 C 549.346 462.900, 549.522 464.576, 549.733 462.224 C 549.945 459.872, 549.942 456.272, 549.727 454.224 C 549.512 452.176, 549.339 454.100, 549.343 458.500 M 731.336 538 C 731.336 542.125, 731.513 543.813, 731.728 541.750 C 731.944 539.688, 731.944 536.313, 731.728 534.250 C 731.513 532.188, 731.336 533.875, 731.336 538 M 465.048 541.449 C 462.430 544.235, 462.794 546.163, 466.379 548.513 C 471.271 551.718, 476.503 546.181, 472.905 541.607 C 470.342 538.348, 468.005 538.301, 465.048 541.449 M 1062.655 540.829 C 1060.395 543.326, 1060.577 545.254, 1063.314 547.826 C 1066.236 550.570, 1067.134 550.551, 1069.826 547.686 C 1072.480 544.860, 1072.580 542.835, 1070.171 540.655 C 1067.772 538.484, 1064.713 538.555, 1062.655 540.829 M 835.195 551.750 L 835.500 556.500 912 556.500 L 988.500 556.500 988.805 551.750 L 989.110 547 912 547 L 834.890 547 835.195 551.750 M 1065.471 657 C 1065.471 691.925, 1065.596 706.212, 1065.749 688.750 C 1065.903 671.287, 1065.903 642.712, 1065.749 625.250 C 1065.596 607.788, 1065.471 622.075, 1065.471 657 M 488 657.500 L 488 720 498.500 720 L 509 720 509 657.500 L 509 595 498.500 595 L 488 595 488 657.500 M 529 657.500 L 529 720 539.500 720 L 550 720 550 657.500 L 550 595 539.500 595 L 529 595 529 657.500 M 570 657.500 L 570 720 580.500 720 L 591 720 591.014 659.750 C 591.021 626.612, 591.299 598.487, 591.630 597.250 C 592.229 595.015, 592.157 595, 581.117 595 L 570 595 570 657.500 M 611 657.500 L 611 720 621.500 720 L 632 720 632.068 712.250 C 632.105 707.987, 632.224 679.862, 632.331 649.750 L 632.525 595 621.763 595 L 611 595 611 657.500 M 652 657.500 L 652 720 662.500 720 L 673 720 673 657.500 L 673 595 662.500 595 L 652 595 652 657.500 M 693 657.500 L 693 720 703.393 720 C 711.948 720, 713.893 719.720, 714.393 718.418 C 714.727 717.548, 715 689.423, 715 655.918 L 715 595 704 595 L 693 595 693 657.500 M 734 657.500 L 734 720 744.500 720 L 755 720 755 657.500 L 755 595 744.500 595 L 734 595 734 657.500 M 775 657.500 L 775 720 786 720 L 797 720 797 657.500 L 797 595 786 595 L 775 595 775 657.500 M 816 657.500 L 816 720 827 720 L 838 720 838 657.500 L 838 595 827 595 L 816 595 816 657.500 M 857 657.500 L 857 720 868 720 L 879 720 879 657.500 L 879 595 868 595 L 857 595 857 657.500 M 898.703 597.750 C 898.402 599.263, 898.106 627.388, 898.045 660.250 L 897.934 720 909.217 720 L 920.500 720 920.816 657.500 L 921.131 595 910.191 595 L 899.250 595 898.703 597.750 M 940 657.500 L 940 720 950.485 720 L 960.970 720 961.235 657.500 L 961.500 595 950.750 595 L 940 595 940 657.500 M 981 657.500 L 981 720 992 720 L 1003 720 1003 657.500 L 1003 595 992 595 L 981 595 981 657.500 M 1022 657.500 L 1022 720 1034 720 L 1046 720 1046 657.500 L 1046 595 1034 595 L 1022 595 1022 657.500 M 435.750 739.800 L 430 740.100 430 744.300 L 430 748.500 763.750 748.274 C 947.312 748.150, 1099.188 748.038, 1101.250 748.024 C 1104.954 748, 1105 747.951, 1105 744 L 1105 740 1100.750 739.973 C 1065.097 739.748, 439.873 739.585, 435.750 739.800 M 445 773.002 L 445 778.003 767.750 777.752 L 1090.500 777.500 1090.805 772.750 L 1091.110 768 768.055 768 L 445 768 445 773.002 M 482 808 L 482 819 491.500 819 L 501 819 501 808 L 501 797 491.500 797 L 482 797 482 808 M 1034 808 L 1034 819 1043.500 819 L 1053 819 1053 808 L 1053 797 1043.500 797 L 1034 797 1034 808" stroke="none" fill="#1D5F3A" fill-rule="evenodd"/>
</svg>