<svg xmlns="http://www.w3.org/2000/svg" width="1000" height="358" viewBox="-200.5 173.9 1925.0 689.2">
	<path d="M 1028.500 223.417 C 1021.950 226.341, 1019.690 230.097, 1015.488 245.042 C 1012.603 255.305, 1012.361 260.852, 1014.595 265.559 C 1016.092 268.715, 1016.058 269.316, 1014.031 275.406 C 1011.175 283.989, 1009.838 285.517, 996.535 295.410 C 973.133 312.813, 970.454 317.180, 960.016 354.924 C 956.148 368.908, 952.846 380.487, 952.677 380.657 C 952.507 380.826, 951.777 378.610, 951.053 375.732 C 950.330 372.854, 946.376 358.800, 942.267 344.500 C 938.158 330.200, 933.109 312.287, 931.046 304.693 C 926.892 289.403, 923.883 284.798, 915.500 280.903 C 909.011 277.887, 906.793 278.328, 853.500 293.231 L 802.500 307.492 797.346 312.496 C 787.472 322.083, 787.542 323.276, 800.601 368.107 C 806.431 388.123, 811.763 406.525, 812.449 409 C 813.135 411.475, 814.020 414.512, 814.416 415.750 L 815.135 418 801.034 418 C 788.048 418, 786.551 418.194, 782.093 420.453 C 775.682 423.702, 769.378 430.989, 767.495 437.328 C 765.488 444.087, 765.539 460.083, 767.589 466.987 C 769.879 474.699, 778.342 483.019, 786.531 485.611 L 792.500 487.500 796.684 531.500 C 798.985 555.700, 802.259 590.800, 803.958 609.500 C 808.364 657.988, 809.888 674.260, 810.983 684.500 C 811.512 689.450, 812.884 703.625, 814.031 716 C 818.718 766.589, 819.936 776.809, 821.883 781.935 C 827.441 796.561, 840.059 808.463, 854.855 813.036 C 861.041 814.947, 864.867 815, 997.895 815 C 1147.355 815, 1140.139 815.272, 1151.406 809.217 C 1159.178 805.041, 1169.148 794.655, 1172.825 786.904 C 1176.622 778.903, 1177.407 775.058, 1179.444 754.500 C 1180.316 745.700, 1181.921 729.500, 1183.011 718.500 C 1184.101 707.500, 1186.352 682.300, 1188.015 662.500 C 1191.121 625.508, 1195.211 581.418, 1197.014 565.500 C 1198.149 555.476, 1203.990 491.404, 1203.996 488.914 C 1203.999 487.835, 1205.853 486.813, 1209.801 485.715 C 1217.056 483.698, 1223.855 477.938, 1227.416 470.793 C 1230.859 463.884, 1231.259 441.369, 1228.064 434.332 C 1223.993 425.367, 1213.552 418.063, 1204.750 418.022 C 1202.138 418.010, 1200 417.650, 1200 417.223 C 1200 416.795, 1202.075 411.508, 1204.611 405.473 C 1213.708 383.822, 1214.499 378.749, 1210.098 370.247 C 1199.750 350.254, 1148.748 327.966, 1124.749 332.948 C 1114.816 335.010, 1111.616 338.992, 1101.400 362 C 1081.140 407.629, 1076.242 418, 1074.958 418 C 1074.357 418, 1074.105 417.212, 1074.397 416.250 C 1077.047 407.533, 1088.538 367.294, 1089.604 363 C 1092.563 351.076, 1091.094 341.459, 1083.285 321.646 C 1077.019 305.750, 1076.272 301.824, 1077.962 293.684 C 1079.002 288.675, 1079.647 287.651, 1083.382 285.081 C 1085.898 283.350, 1088.298 280.606, 1089.285 278.332 C 1091.955 272.176, 1096.002 256.439, 1095.978 252.304 C 1095.930 243.945, 1089.003 235.136, 1080.763 232.956 C 1078.418 232.336, 1068.657 229.617, 1059.070 226.914 C 1040.868 221.782, 1033.939 220.990, 1028.500 223.417 M 1035.339 249.007 L 1033.349 255.761 1052.220 261.035 C 1063.178 264.098, 1071.426 265.930, 1071.891 265.405 C 1073.635 263.434, 1075.921 252.904, 1074.691 252.508 C 1073.178 252.022, 1045.691 244.438, 1040.914 243.189 L 1037.328 242.252 1035.339 249.007 M 492.798 269.931 C 486.138 272.060, 480.739 275.090, 472.296 281.437 C 462.236 288.999, 460.743 289.394, 442 289.450 C 420.947 289.514, 417.191 290.633, 408.337 299.482 C 401.290 306.524, 399.544 310.802, 399.553 321 C 399.562 331.914, 404.179 339.821, 423.381 361.809 C 435.768 375.993, 444.180 386.212, 450.001 394.150 C 454.872 400.794, 454.875 400.803, 452.835 402.649 C 448.457 406.612, 445.793 412.752, 445.734 419.018 L 445.677 425.002 434.089 431.077 C 375.905 461.580, 333.181 514.582, 317.415 575.822 C 311.904 597.226, 310.950 605.093, 309.996 637 C 309.097 667.010, 308.341 673.303, 304.047 686.487 C 288.932 732.894, 293.064 761.103, 318.442 784.764 C 331.467 796.909, 347.664 803.495, 374.169 807.426 C 430.259 815.745, 550.228 817.462, 619.477 810.936 C 673.002 805.891, 691.112 800.131, 708.490 782.622 C 728.774 762.184, 733.233 739.614, 724.142 703.400 C 718.852 682.328, 718.002 674.820, 717.989 649.026 C 717.963 595.213, 707.778 555.151, 684.334 516.645 C 662.926 481.483, 626.665 447.699, 591.336 430 L 582.354 425.500 582.302 419.455 C 582.246 412.996, 579.922 407.046, 576.106 403.595 C 574.948 402.547, 574 401.342, 574 400.916 C 574 400.211, 584.252 387.272, 606.022 360.500 C 630.426 330.488, 636.100 311.623, 625.640 295.272 C 616.015 280.227, 599.844 276.810, 576.228 284.832 C 559.196 290.617, 557.668 290.433, 544.500 281.002 C 535.089 274.262, 530.459 271.802, 523.068 269.610 C 515.566 267.386, 500.250 267.548, 492.798 269.931 M 1033 281.999 C 1030.521 292.334, 1023.986 299.847, 1005.658 313.436 C 990.531 324.652, 989.001 326.973, 983.102 347.664 C 973.061 382.880, 964 415.664, 964 416.776 C 964 417.723, 974.064 418, 1008.433 418 C 1049.882 418, 1052.901 417.882, 1053.393 416.250 C 1055.426 409.504, 1067.579 367.072, 1069.218 361 C 1071.832 351.312, 1070.861 344.822, 1064.427 328.967 C 1056.420 309.236, 1056.266 308.184, 1058.238 286.635 C 1058.498 283.789, 1058.422 283.748, 1046.500 280.397 C 1039.900 278.542, 1034.432 277.019, 1034.350 277.012 C 1034.267 277.006, 1033.660 279.249, 1033 281.999 M 497.996 290.276 C 494.100 291.608, 488.002 295.021, 482.789 298.787 C 468.315 309.243, 467.475 309.492, 446.500 309.547 C 431.487 309.587, 427.966 309.879, 425.280 311.308 C 419.162 314.562, 418.331 320.557, 422.895 328.514 C 425.676 333.363, 427.870 336.086, 449.579 361.637 C 458.642 372.304, 473.591 391.660, 475.762 395.539 C 476.476 396.815, 479.750 397.001, 497.450 396.771 L 518.297 396.500 521.729 386.500 C 523.617 381, 526.054 372.225, 527.144 367 C 529.306 356.643, 531.875 352.626, 537.068 351.485 C 540.318 350.771, 545.435 353.075, 546.970 355.945 C 549.289 360.278, 547.405 373.290, 542.057 389.880 C 540.926 393.389, 540 396.427, 540 396.630 C 540 397.201, 548.251 397.041, 550.500 396.426 C 551.600 396.126, 553.691 394.220, 555.146 392.190 C 557.824 388.455, 568.892 374.500, 583.500 356.441 C 602.220 333.297, 608.465 323.374, 609.576 315 C 611.346 301.672, 600.094 297.530, 581.906 304.814 C 562.536 312.572, 552.520 311.392, 535.196 299.314 C 518.685 287.802, 510.818 285.891, 497.996 290.276 M 900.500 301.102 C 894.293 303.087, 866.266 311.046, 831.500 320.695 C 820.500 323.748, 811.143 326.571, 810.706 326.967 C 809.862 327.734, 817.419 354.821, 835.616 416.250 C 836.102 417.888, 839.523 418, 889.147 418 L 942.159 418 941.455 414.750 C 941.068 412.962, 939.211 406.325, 937.328 400 C 932.168 382.662, 930.692 377.542, 923.494 352 C 907.977 296.939, 908.584 298.907, 907.191 299.091 C 906.811 299.141, 903.800 300.046, 900.500 301.102 M 1131 353.030 C 1131 353.569, 1134.037 356.246, 1137.750 358.979 C 1144.099 363.652, 1144.520 363.815, 1144.838 361.724 C 1145.023 360.501, 1146.053 358.553, 1147.126 357.395 L 1149.077 355.290 1143.288 354.191 C 1132.850 352.209, 1131 352.035, 1131 353.030 M 1175 368.887 C 1175 370.464, 1174.306 372.331, 1173.458 373.035 C 1172.609 373.739, 1172.272 374.646, 1172.708 375.051 C 1173.884 376.143, 1183.552 378.006, 1187.799 377.959 L 1191.500 377.919 1188 374.908 C 1186.075 373.252, 1182.362 370.574, 1179.750 368.958 L 1175 366.018 1175 368.887 M 1108.857 394.250 L 1098.337 417.500 1137.824 417.762 C 1159.541 417.905, 1177.510 417.823, 1177.754 417.579 C 1177.999 417.335, 1179.873 412.942, 1181.919 407.817 L 1185.640 398.500 1178.070 397.401 C 1159.465 394.698, 1130.714 382.076, 1122.507 373.007 C 1121.508 371.903, 1120.394 371, 1120.033 371 C 1119.671 371, 1114.642 381.462, 1108.857 394.250 M 467.431 417.300 C 465.338 418.469, 465.684 421.761, 468.032 423.017 C 472.858 425.600, 553.629 425.998, 560.214 423.472 C 562.070 422.759, 563.075 419.740, 562.023 418.038 C 561.168 416.654, 469.859 415.942, 467.431 417.300 M 788.861 439.912 C 785.327 442.773, 785.266 460.710, 788.778 464.222 L 791.056 466.500 998.616 466.500 L 1206.177 466.500 1208.088 464.139 C 1210.972 460.578, 1210.908 442.908, 1208 440 C 1204.919 436.919, 792.664 436.832, 788.861 439.912 M 444.469 448.761 C 387.212 478.558, 349.155 527.454, 335.109 589.266 C 331.262 606.194, 330.119 618.025, 329.577 646.500 C 329.093 671.993, 328.893 673.315, 321.863 697.500 C 315.447 719.573, 314.007 731.439, 316.425 742.307 C 322.458 769.425, 339.541 781.475, 380.480 787.491 C 438.254 795.980, 552.649 797.139, 623.326 789.950 C 679.636 784.222, 697.989 775.057, 706.325 748.500 C 709.938 736.991, 709.417 728.011, 703.888 706.500 C 699.304 688.666, 698.955 685.331, 698.029 650.500 C 697.170 618.150, 696.118 607.561, 692.007 589.881 C 677.383 526.997, 637.539 476.285, 580.168 447.540 C 569.699 442.295, 568.702 441.989, 565.225 442.954 C 563.176 443.523, 560.150 443.998, 558.500 444.010 C 552.585 444.051, 552.379 445.121, 556.747 453.140 C 563.047 464.708, 571.043 488.303, 572.574 499.848 C 573.160 504.261, 572.951 505.021, 570.360 507.895 C 563.435 515.580, 554.540 511.644, 552.157 499.838 C 549.132 484.856, 540.436 463.650, 532.281 451.367 L 528.717 446 513.086 446 L 497.456 446 493.742 449.061 C 482.570 458.270, 465.589 484.414, 458.464 503.377 C 456.435 508.775, 452.402 511.990, 447.650 511.996 C 444.009 512.001, 438 506.236, 438 502.738 C 438 494.802, 456.907 459.857, 467.612 448.008 L 470.998 444.260 466.749 443.661 C 464.412 443.332, 461.375 442.819, 460 442.521 C 458.178 442.126, 453.967 443.818, 444.469 448.761 M 813 489.002 C 813 491.296, 816.606 530.249, 821.007 575.500 C 822.665 592.550, 824.492 611.900, 825.067 618.500 C 825.642 625.100, 826.994 639.500, 828.071 650.500 C 829.148 661.500, 831.831 690.075, 834.033 714 C 836.235 737.925, 838.469 761.014, 838.998 765.309 C 840.664 778.849, 845.688 786.735, 855.818 791.710 L 861.500 794.500 998.500 794.500 L 1135.500 794.500 1141.230 791.686 C 1153.439 785.691, 1156.629 778.904, 1159.076 753.719 C 1160.104 743.148, 1161.642 727.975, 1162.495 720 C 1163.348 712.025, 1164.917 695.150, 1165.982 682.500 C 1169.732 637.937, 1173.407 598.091, 1178.525 546.500 C 1180.313 528.486, 1184 488.958, 1184 487.815 C 1184 487.367, 1100.525 487, 998.500 487 C 813.616 487, 813 487.007, 813 489.002 M 899.766 544.928 L 896.500 547.856 896.739 558.178 C 896.871 563.855, 897.657 578.625, 898.487 591 C 901.448 635.169, 902.998 660.007, 905.007 695.500 C 906.127 715.300, 907.266 732.891, 907.537 734.590 C 908.751 742.193, 918.210 745.048, 923.953 739.545 C 926.635 736.976, 927 735.959, 926.998 731.063 C 926.996 726.215, 922.987 659.654, 920.037 615.500 C 919.486 607.250, 918.352 588.800, 917.517 574.500 L 915.999 548.500 912.514 545.250 C 908.019 541.058, 904.190 540.961, 899.766 544.928 M 992.655 544.998 L 989 548.207 989 642.417 L 989 736.626 991.750 739.242 C 995.430 742.742, 999.068 743.533, 1002.744 741.632 C 1009.468 738.155, 1009.058 744.957, 1008.765 641.535 L 1008.500 548.045 1005.946 545.491 C 1001.782 541.328, 997.036 541.152, 992.655 544.998 M 1085.353 543.875 C 1081.132 546.518, 1080.265 549.876, 1079.510 566.500 C 1078.480 589.177, 1073.082 679.821, 1071.479 701.372 C 1069.222 731.695, 1069.374 736.026, 1072.805 739.313 C 1076.870 743.208, 1082.604 743.067, 1086.523 738.976 L 1089.420 735.953 1091.670 701.226 C 1092.907 682.127, 1095.065 647.375, 1096.465 624 C 1097.864 600.625, 1099.445 574.361, 1099.978 565.635 C 1100.540 556.433, 1100.577 549.079, 1100.066 548.124 C 1097.143 542.661, 1090.401 540.714, 1085.353 543.875" stroke="none" fill="#1D5F3A" fill-rule="evenodd"/>
</svg>