<svg xmlns="http://www.w3.org/2000/svg" width="1000" height="262" viewBox="-237.0 248.6 1935.0 507.0">
	<path d="M 886.303 298.645 C 880.944 300.543, 874.412 306.873, 871.652 312.844 L 869.500 317.500 869.237 500.952 C 868.947 702.790, 868.595 690.504, 874.873 697.376 C 879.970 702.957, 883.884 703.954, 900.782 703.978 C 917.825 704.003, 920.494 703.348, 925.707 697.866 C 932.252 690.983, 932 695.065, 932 595.874 L 932 506 1074 506 L 1216 506 1216.022 597.250 C 1216.043 683.827, 1216.138 688.705, 1217.890 692.500 C 1222.297 702.049, 1227.299 704.007, 1247.218 703.978 C 1263.781 703.954, 1268.048 702.931, 1272.702 697.868 C 1278.339 691.737, 1278 704.194, 1278 503.158 C 1278 296.573, 1278.612 313.269, 1270.741 305.240 C 1261.897 296.219, 1280.530 296.989, 1073.212 297.079 C 914.212 297.148, 889.955 297.351, 886.303 298.645 M 895 500.500 L 895 678 900.500 678 L 906 678 906 514.468 C 906 337.073, 905.676 347.329, 911.452 342 L 914.161 339.500 1073.507 339.500 L 1232.853 339.500 1235.677 341.590 C 1241.888 346.188, 1241.482 336.177, 1241.690 490 C 1241.795 567.275, 1241.907 641.188, 1241.940 654.250 L 1242 678 1247.500 678 L 1253 678 1253 500.500 L 1253 323 1074 323 L 895 323 895 500.500 M 932 368.474 L 932 371.947 1074 371.986 L 1216 372.025 1216 368.513 L 1216 365 1074 365 L 932 365 932 368.474 M 932 403 L 932 408 1074 408 L 1216 408 1216 403 L 1216 398 1074 398 L 932 398 932 403 M 422 421.668 C 388.934 426.897, 371.647 434.768, 305.838 474.561 C 277.429 491.740, 276.136 492.407, 268.500 493.807 C 263.089 494.799, 238.608 498.360, 228.500 499.625 C 205.273 502.533, 194.641 508.495, 188.574 522.015 C 184.466 531.167, 184.012 536.642, 184.006 577.040 C 183.999 623.599, 184.757 627.519, 196.092 639.504 C 205.218 649.153, 215.120 652.394, 248 656.494 C 259.275 657.900, 269.400 659.263, 270.500 659.524 C 271.842 659.841, 273.880 662.876, 276.693 668.748 C 294.815 706.569, 340.668 719.715, 375.416 697.050 C 386.356 689.915, 397.421 676.782, 402 665.500 L 404.232 660 537.049 660 L 669.865 660 670.563 662.250 C 673.237 670.871, 681.217 683.180, 688.462 689.858 C 723.377 722.042, 780.336 709.463, 798.756 665.500 L 800.851 660.500 815.175 659.861 C 829.840 659.206, 834.508 658.299, 841.480 654.750 C 859.800 645.426, 865.710 628.656, 863.064 593.500 C 861.393 571.299, 855.017 556.869, 841.093 543.770 C 824.810 528.451, 814.096 524.785, 758.500 515.503 C 737.050 511.922, 718.281 508.737, 716.791 508.425 C 715.300 508.114, 710.800 505.270, 706.791 502.105 C 690.814 489.497, 639.274 449.007, 629.203 441.152 C 614.507 429.689, 604.115 424.805, 588.566 422.051 C 582.966 421.059, 428.102 420.703, 422 421.668 M 932 439 L 932 444 1074 444 L 1216 444 1216 439 L 1216 434 1074 434 L 932 434 932 439 M 398 452.894 C 384.027 458.103, 375.747 462.506, 338 484.801 C 327.275 491.136, 311.975 500.165, 304 504.867 C 282.826 517.351, 273.300 519.862, 225.500 525.557 C 216.167 526.670, 214.446 527.863, 222.068 527.937 C 241.687 528.126, 252.274 539.267, 250.698 558.064 C 249.219 575.704, 239.269 584, 219.591 584 L 210.258 584 209.549 593.060 C 208.568 605.598, 209.686 616.238, 212.409 620.281 C 216.333 626.107, 220.561 627.505, 244.500 630.894 C 271.993 634.786, 269.605 634.898, 270.321 629.677 C 274.104 602.076, 295.400 578.129, 322.438 571.072 C 356.418 562.203, 393.198 583.265, 403.983 617.769 C 405.642 623.077, 407 628.901, 407 630.710 L 407 634 451.500 634 L 496 634 496 588 L 496 542 425.182 542 C 344.939 542, 347.198 542.193, 340.322 534.733 C 334.645 528.574, 333.148 522.583, 335.435 515.162 C 337.064 509.874, 338.543 508.143, 357.839 488.957 C 380.249 466.676, 388.196 460.165, 400.500 454.006 C 409.779 449.361, 408.729 448.893, 398 452.894 M 613 460.296 C 613 460.550, 615.117 462.493, 617.703 464.613 C 620.290 466.733, 622.084 467.945, 621.690 467.307 C 620.849 465.947, 613 459.614, 613 460.296 M 623.310 468.693 C 624.151 470.053, 632 476.386, 632 475.704 C 632 475.450, 629.883 473.507, 627.297 471.387 C 624.710 469.267, 622.916 468.055, 623.310 468.693 M 435 469.720 C 414.714 472.036, 399.899 481.141, 374.521 506.890 L 365.542 516 430.424 516 L 495.306 516 494.634 504.250 C 494.264 497.788, 493.676 487.212, 493.328 480.750 L 492.695 469 465.597 469.160 C 450.694 469.248, 436.925 469.500, 435 469.720 M 518.434 476.187 C 518.724 480.209, 519.494 490.813, 520.145 499.750 L 521.327 516 581.378 516 C 631.579 516, 641.188 515.781, 639.964 514.662 C 633.539 508.793, 588.106 472.607, 585 470.886 C 583.050 469.805, 575.397 469.431, 550.203 469.187 L 517.905 468.874 518.434 476.187 M 932 475 L 932 480 1074 480 L 1216 480 1216 475 L 1216 470 1074 470 L 932 470 932 475 M 641.500 483.516 C 643.700 485.527, 652.925 493.156, 662 500.468 C 688.682 521.966, 687.500 520.699, 687.500 527.805 C 687.500 532.852, 687.091 534.282, 685 536.548 C 679.815 542.167, 682.454 542, 599.032 542 L 522 542 522 588.007 L 522 634.013 594.238 633.757 L 666.475 633.500 667.154 628.754 C 674.040 580.609, 728.959 553.903, 769.882 578.798 C 787.070 589.255, 801.526 610.760, 803.699 629.107 L 804.279 634 816.189 634 C 834.920 634, 837.990 631.290, 837.996 614.750 L 838 605 829.657 605 C 807.862 605, 791.262 591.906, 787.477 571.727 C 786.055 564.148, 794.651 550, 800.678 550 C 801.800 550, 802.059 549.659, 801.422 549.022 C 800.885 548.485, 786.957 545.766, 770.472 542.981 C 715.377 533.674, 714.556 533.521, 707.500 531.289 C 701.285 529.323, 698.512 527.429, 675.234 509.256 C 640.779 482.358, 637.479 479.840, 641.500 483.516 M 362.500 544.412 C 351.468 549.315, 351.596 562.890, 362.718 567.629 C 367.817 569.802, 393.466 569.524, 397.929 567.248 C 408.002 562.112, 408.002 549.888, 397.929 544.752 C 393.531 542.509, 367.346 542.258, 362.500 544.412 M 534.174 544.235 C 523.441 547.779, 522.765 561.923, 533.071 567.283 C 538.460 570.086, 568.618 569.421, 572.680 566.410 C 580.681 560.480, 580.026 549.441, 571.410 545 C 567.776 543.127, 539.301 542.541, 534.174 544.235 M 210 556 L 210 559 218 559 L 226 559 226 556 L 226 553 218 553 L 210 553 210 556 M 816.766 577.029 C 819.815 579.803, 820.561 580, 828.016 580 C 836.232 580, 836.924 579.595, 834.965 575.934 C 834.043 574.212, 832.808 574.003, 823.715 574.029 L 813.500 574.059 816.766 577.029 M 327 595.894 C 300.692 604.605, 287.632 634.281, 299.449 658.500 C 314.165 688.660, 355.958 691.368, 374.545 663.366 C 389.334 641.085, 381 609.894, 357.275 598.731 C 351.177 595.861, 349.451 595.519, 340 595.305 C 334.225 595.174, 328.375 595.439, 327 595.894 M 720.878 597.254 C 712.155 600.300, 704.208 606.439, 699.114 614.067 C 687.641 631.247, 689.759 655.473, 703.975 669.689 C 739.246 704.960, 796.084 663.208, 773.965 618.277 C 764.572 599.197, 741.491 590.057, 720.878 597.254 M 329.929 605.315 C 308.881 611.231, 298.431 634.215, 307.976 653.602 C 320.649 679.345, 356.475 679.089, 369.240 653.165 C 381.769 627.719, 357.091 597.681, 329.929 605.315 M 725.909 605.836 C 707.461 611.938, 696.869 631.411, 702.664 648.572 C 712.776 678.517, 752.351 681.376, 766.240 653.163 C 778.999 627.247, 753.091 596.844, 725.909 605.836 M 332.913 631.282 C 323.809 638.272, 332.781 651.785, 343.013 646.493 C 348.604 643.602, 348.907 632.713, 343.455 630.621 C 340.779 629.594, 334.608 629.981, 332.913 631.282 M 728.589 633.077 C 725.652 636.567, 725.376 638.892, 727.425 642.855 C 731.066 649.896, 740.948 649.369, 744.012 641.971 C 747.947 632.470, 735.257 625.152, 728.589 633.077" stroke="none" fill="#1D5F3A" fill-rule="evenodd"/>
</svg>