<svg xmlns="http://www.w3.org/2000/svg" width="1000" height="430" viewBox="-170.0 96.6 1935.0 832.1">
	<path d="M 487.500 145.661 C 473.243 148.716, 464.897 156.358, 460.419 170.459 L 458 178.076 458.008 484.788 C 458.013 690.045, 458.355 793.650, 459.044 798 C 461.184 811.526, 469.150 821.623, 481.260 826.161 L 487.500 828.500 625.528 828.767 L 763.557 829.034 765.424 837.767 C 771.116 864.394, 777.141 873.141, 793.240 878.152 C 803.911 881.473, 809.259 880.802, 838.794 872.435 C 870.851 863.353, 896.568 856.092, 923.500 848.519 C 934.500 845.426, 947.325 841.816, 952 840.497 C 956.675 839.178, 974.225 834.233, 991 829.509 C 1007.775 824.785, 1030.725 818.261, 1042 815.013 C 1053.275 811.764, 1073.739 805.908, 1087.476 802 C 1120.334 792.651, 1123.483 791.170, 1130.356 781.829 C 1139.121 769.916, 1139.821 758.789, 1133.469 732.355 C 1123.342 690.211, 1092.814 572.167, 1087.344 554 C 1081.856 535.775, 1074.815 528.476, 1058.749 524.355 C 1047.971 521.591, 1038.266 523.387, 998.669 535.475 C 993.811 536.958, 989.658 537.992, 989.439 537.773 C 989.220 537.554, 988.918 472.153, 988.767 392.437 L 988.492 247.500 986.115 241 C 983.799 234.665, 982.646 233.401, 940.619 191.142 C 916.068 166.455, 896.114 147.185, 894.282 146.392 C 891.565 145.217, 859.828 145.018, 690.282 145.116 C 579.852 145.180, 488.600 145.425, 487.500 145.661 M 490.218 170.663 C 488.413 171.553, 485.941 173.678, 484.725 175.387 L 482.513 178.493 482.255 484.385 C 482.083 689.035, 482.333 791.525, 483.013 794.047 C 483.605 796.248, 485.494 799.104, 487.549 800.909 L 491.070 804 624.143 804 L 757.217 804 756.512 801.250 C 756.125 799.737, 753.628 789.050, 750.963 777.500 C 748.298 765.950, 744.526 749.750, 742.581 741.500 C 740.636 733.250, 737.861 721.325, 736.415 715 C 734.969 708.675, 731.083 692.310, 727.779 678.633 C 720.438 648.246, 720.146 640.698, 725.842 628.500 C 732.389 614.481, 738.206 610.860, 767.500 602.568 C 792.137 595.595, 819.985 587.515, 874.500 571.524 C 897.600 564.748, 927.188 556.136, 940.250 552.388 L 964 545.572 964 399.835 L 964 254.098 929.750 253.799 L 895.500 253.500 889.850 250.725 C 876.729 244.282, 875 238.249, 875 198.911 L 875 169 684.250 169.023 C 510.582 169.044, 493.206 169.190, 490.218 170.663 M 899 206.235 C 899 232.397, 896.664 230.141, 923.367 229.772 L 943.020 229.500 921.010 207.509 L 899 185.517 899 206.235 M 562.500 214.679 C 538.826 219.975, 524.753 232.689, 517.867 255 C 511.750 274.822, 518.474 298.587, 534.084 312.319 C 557.714 333.106, 596.583 329.908, 616.195 305.563 C 624.150 295.689, 627.324 286.746, 627.803 272.857 C 628.792 244.182, 612.797 222.597, 585.356 215.573 C 579.673 214.118, 567.190 213.630, 562.500 214.679 M 563 239.294 C 544.704 246.236, 534.864 266.088, 541.965 281.732 C 544.603 287.543, 552.439 295.662, 558.480 298.843 C 566.001 302.803, 578.286 302.670, 585.788 298.547 C 609.699 285.405, 609.941 255.412, 586.245 241.854 C 579.760 238.144, 569.120 236.972, 563 239.294 M 653.359 260.437 C 647.906 262.824, 646.202 274.251, 650.578 279.086 C 654.128 283.009, 656.725 283.105, 750.177 282.798 C 840.441 282.501, 840.867 282.490, 843.677 280.404 C 848.604 276.746, 849.321 267.088, 845.057 261.821 L 843.177 259.500 749.839 259.281 C 672.471 259.100, 655.962 259.297, 653.359 260.437 M 522.014 363.752 C 517.840 365.845, 516.029 369.097, 516.029 374.500 C 516.029 379.903, 517.840 383.155, 522.014 385.248 C 525.299 386.896, 536.833 386.993, 722 386.922 C 875.500 386.864, 919.266 386.577, 922 385.610 C 930.836 382.484, 931.488 368.016, 922.986 363.752 C 917.578 361.039, 527.422 361.039, 522.014 363.752 M 521.315 433.616 C 513.861 437.292, 514.371 452.191, 522.042 454.865 C 526.701 456.489, 918.299 456.489, 922.958 454.865 C 931.153 452.008, 931.118 436.865, 922.910 433.581 C 916.893 431.173, 526.199 431.207, 521.315 433.616 M 522.500 502.945 C 514.424 506.251, 513.781 521.339, 521.577 524.597 C 526.702 526.738, 810.410 526.691, 815.538 524.548 C 823.746 521.119, 822.832 505.764, 814.268 503.198 C 809.580 501.794, 525.914 501.548, 522.500 502.945 M 1044.500 547.702 C 1041.362 548.440, 984.352 564.606, 965.500 570.103 C 929.709 580.541, 916.755 584.351, 865 599.665 C 841.357 606.660, 815.196 614.252, 782.810 623.517 C 754.092 631.732, 754.442 631.594, 750.243 636.376 C 745.117 642.214, 744.720 645.049, 747.384 656.776 C 748.668 662.427, 749.910 667.244, 750.145 667.479 C 750.563 667.896, 874.850 632.599, 932.500 615.691 C 966.452 605.733, 1007.185 593.977, 1043.090 583.773 L 1068.680 576.500 1065.952 566.663 C 1061.831 551.803, 1054.524 545.345, 1044.500 547.702 M 535.129 575.130 C 530.289 576.662, 527.604 578.301, 523.954 581.951 C 515.697 590.208, 516 586.830, 516 670.644 C 516 754.107, 515.678 750.731, 524.471 759.523 C 532.699 767.752, 529.114 767.442, 616.500 767.462 L 693.500 767.480 699.086 764.870 C 706.470 761.421, 711.342 756.375, 713.905 749.524 C 715.962 744.028, 716 742.583, 716 670.644 C 716 588.041, 716.221 590.718, 708.735 582.525 C 705.507 578.992, 702.885 577.309, 697.705 575.445 L 690.909 573 616.205 573.056 C 544.143 573.110, 541.275 573.184, 535.129 575.130 M 550.869 597.750 C 540.500 598.198, 539.943 598.896, 539.259 612.295 C 538.967 618.018, 539.042 624.793, 539.425 627.350 L 540.123 632 616.061 632 L 692 632 692 616.655 C 692 602.326, 691.861 601.184, 689.895 599.405 C 687.872 597.574, 685.282 597.498, 623.145 597.460 C 587.590 597.437, 555.066 597.568, 550.869 597.750 M 1055 605.446 C 1044.825 608.387, 1026.150 613.796, 1013.500 617.466 C 1000.850 621.136, 978.800 627.513, 964.500 631.637 C 950.200 635.762, 928.600 642.045, 916.500 645.601 C 878.536 656.756, 871.894 658.670, 813.500 675.284 C 762.089 689.911, 756.512 691.697, 756.627 693.500 C 756.907 697.904, 764.780 731.870, 785.600 818.500 C 792.694 848.017, 794.058 851.427, 800.002 854.501 C 804.430 856.791, 804.966 856.684, 842.941 845.932 C 862.499 840.394, 886.600 833.600, 896.500 830.833 C 916.427 825.265, 944.381 817.357, 1011 798.442 C 1035.475 791.493, 1066.389 782.749, 1079.697 779.010 C 1106.051 771.606, 1108.697 770.323, 1112.092 763.311 L 1114.355 758.636 1112.582 749.867 C 1107.957 726.983, 1075.340 599.951, 1074.115 600.049 C 1073.777 600.076, 1065.175 602.504, 1055 605.446 M 539.264 697.588 L 539.500 739.177 541.861 741.088 C 545.437 743.984, 686.440 744.084, 690.010 741.193 C 692.305 739.334, 692.777 722.749, 692.125 666.750 L 692 656 615.514 656 L 539.029 656 539.264 697.588 M 827.500 701.460 C 792.522 711.725, 794.920 710.808, 789.848 715.873 C 780.714 724.994, 780.197 732.438, 786.926 757.933 C 792.962 780.804, 795.907 785.362, 806.761 788.628 C 814.228 790.876, 819.097 790.269, 839.276 784.578 C 849.849 781.597, 860.522 778.625, 862.994 777.974 C 875.958 774.562, 881.645 768.458, 884.107 755.311 C 884.942 750.854, 884.635 748.172, 881.932 736.311 C 876.849 714, 874.490 707.473, 869.900 703.019 C 861.032 694.412, 852.573 694.101, 827.500 701.460 M 845.500 721.490 C 843.300 722.222, 834.750 724.681, 826.500 726.954 C 810.535 731.352, 807.386 732.551, 806.631 734.518 C 805.936 736.331, 812.848 763.267, 814.411 764.835 C 815.628 766.056, 835.700 761.218, 855.758 754.871 C 861.126 753.172, 861.246 751.773, 857.334 736.425 C 852.803 718.651, 853.059 718.973, 845.500 721.490 M 1067 726.937 C 1061.775 728.503, 1028.700 737.963, 993.500 747.959 C 958.300 757.955, 928.413 766.912, 927.085 767.861 C 923.074 770.730, 921.656 776.448, 923.545 782.135 C 924.983 786.464, 925.536 787.017, 929.864 788.455 L 934.607 790.030 981.554 776.626 C 1007.374 769.253, 1041.537 759.551, 1057.471 755.065 C 1073.405 750.580, 1087.246 746.182, 1088.230 745.292 C 1091.213 742.593, 1092.507 736.634, 1091.117 731.996 C 1088.723 724.006, 1081.698 722.532, 1067 726.937" stroke="none" fill="#1D5F3A" fill-rule="evenodd"/>
</svg>