<svg xmlns="http://www.w3.org/2000/svg" width="1000" height="341" viewBox="-187.5 168.3 1910.0 651.3">
	<path d="M 753.124 217.578 C 733.748 222.789, 715.485 240.885, 709.690 260.615 C 698.546 298.559, 731.470 338.546, 771.500 335.684 C 793.330 334.123, 811.866 321.578, 822.010 301.500 C 828.509 288.635, 830.133 278.014, 827.501 265.588 C 820.303 231.611, 785.198 208.951, 753.124 217.578 M 756 233.360 C 724.245 242.005, 712.408 281.965, 734.527 305.855 C 755.498 328.507, 795.306 322.940, 808.116 295.566 C 824.403 260.760, 793.007 223.286, 756 233.360 M 724.500 344.083 C 692.369 345.660, 670.332 359.047, 657.969 384.500 C 651.304 398.222, 651.031 400.595, 651.015 445.096 L 651 484.692 637.250 487.964 C 565.873 504.947, 512.297 535.738, 486.271 574.734 L 480.109 583.969 473.383 572.734 C 461.637 553.116, 445.353 538.936, 426.806 532.175 C 415.752 528.146, 393.043 528.193, 382 532.267 C 369.108 537.024, 357.536 547.441, 351.539 559.688 C 346.192 570.608, 346.036 572.985, 346.017 643.827 L 346 709.154 348.923 712.077 C 352.620 715.774, 355.380 715.774, 359.077 712.077 L 362 709.154 362 643.258 C 362 585.594, 362.201 576.685, 363.610 571.932 C 369.482 552.128, 383.141 543.970, 408.254 545.268 C 435.078 546.655, 450.155 559.571, 471.561 599.500 C 477.265 610.141, 490.508 631.242, 492.245 632.459 C 494.112 633.766, 499.149 634, 525.473 634.002 C 560.304 634.003, 561.836 634.272, 565.304 641 C 568.507 647.212, 566.029 656.299, 560.439 658.846 C 555.798 660.960, 473.344 660.422, 469.025 658.248 C 465.666 656.559, 455.141 640.976, 440.827 616.500 C 433.363 603.738, 428.806 601.103, 423.455 606.455 C 419.568 610.341, 420.312 612.331, 433.522 633.405 L 446 653.310 446 681.232 L 446 709.154 448.923 712.077 C 452.620 715.774, 455.380 715.774, 459.077 712.077 L 462 709.154 462 690.551 L 462 671.949 465.250 673.683 C 467.613 674.944, 471.614 675.527, 479.910 675.822 C 491.284 676.225, 491.327 676.236, 493.902 679.363 C 534.047 728.118, 612.119 760.124, 715.500 770.208 C 736.053 772.212, 803.454 771.887, 824 769.683 C 893.047 762.279, 952.916 744.097, 995.997 717.448 C 1011.853 707.640, 1032.895 689.987, 1039.936 680.587 L 1043.372 676 1053.675 676 C 1061.384 676, 1065.240 675.521, 1068.989 674.096 L 1074 672.192 1074 690.673 L 1074 709.154 1076.923 712.077 C 1080.620 715.774, 1083.380 715.774, 1087.077 712.077 L 1090 709.154 1090 681.311 L 1090 653.467 1102.489 633.484 C 1109.357 622.493, 1114.982 612.683, 1114.989 611.684 C 1115.018 607.003, 1109.377 602.533, 1105.355 604.049 C 1102.582 605.095, 1099.957 608.655, 1090.281 624.500 C 1073.979 651.195, 1070.651 656.053, 1067.208 658.180 C 1063.853 660.254, 1062.994 660.289, 1020.645 660.088 C 981.689 659.902, 977.209 659.714, 974.500 658.142 C 969.131 655.027, 967.717 645.414, 971.727 639.293 C 974.978 634.333, 977.437 634, 1010.833 634 C 1046.324 634, 1044.305 634.502, 1050.005 624.255 C 1054.538 616.105, 1075.541 580.710, 1080.264 573.262 C 1091.680 555.257, 1110.728 545.063, 1133.040 545.017 C 1153.782 544.975, 1165.379 552.340, 1171.613 569.516 L 1174 576.091 1174 642.622 L 1174 709.154 1176.923 712.077 C 1178.531 713.685, 1180.815 715, 1182 715 C 1183.185 715, 1185.469 713.685, 1187.077 712.077 L 1190 709.154 1189.965 643.327 C 1189.937 591.930, 1189.634 576.120, 1188.579 571.203 C 1183.107 545.694, 1161.090 529, 1132.918 529 C 1103.801 529, 1081.172 542.949, 1063.326 571.897 L 1055.333 584.864 1053.294 580.682 C 1049.876 573.672, 1039.308 560.521, 1029.895 551.563 C 1000.943 524.011, 955.436 501.825, 901.500 488.966 C 894.350 487.261, 887.735 485.648, 886.801 485.382 C 885.243 484.938, 885.075 481.422, 884.787 443.199 L 884.472 401.500 881.762 393.500 C 873.392 368.796, 854.051 351.493, 828.248 345.625 C 820.487 343.859, 750.307 342.816, 724.500 344.083 M 717.679 360.022 C 696.659 362.570, 681.373 372.367, 673.141 388.566 C 667.142 400.372, 666.724 403.795, 666.265 444.877 L 665.848 482.255 668.174 481.715 C 669.453 481.418, 676.237 480.391, 683.250 479.434 L 696 477.694 696 448.924 L 696 420.153 698.589 417.077 C 701.735 413.338, 704.879 413.132, 708.694 416.413 L 711.500 418.827 711.508 446.838 C 711.512 462.244, 711.737 475.053, 712.008 475.303 C 712.279 475.553, 726.900 475.413, 744.500 474.991 C 762.685 474.556, 786.581 474.636, 799.851 475.178 C 812.694 475.702, 823.494 475.839, 823.851 475.482 C 824.208 475.126, 824.591 464.409, 824.703 451.667 C 824.814 438.925, 824.927 426.342, 824.953 423.705 C 825.040 414.831, 832.281 410.979, 837.411 417.077 L 840 420.153 840 449.077 C 840 464.985, 840.141 478, 840.314 478 C 841.319 478, 864.059 481.114, 866.833 481.632 L 870.166 482.254 869.737 443.877 C 869.268 401.891, 869.221 401.514, 862.895 388.532 C 856.309 375.016, 843.285 365.280, 826.500 361.324 C 818.615 359.466, 730.920 358.416, 717.679 360.022 M 407.131 402.541 C 375.610 409.381, 353.071 441.978, 359.342 471.657 C 364.252 494.898, 382.709 514.184, 405.088 519.459 C 434.066 526.290, 464.637 508.823, 475.144 479.432 C 489.640 438.883, 449.384 393.373, 407.131 402.541 M 1107 402.427 C 1084.326 407.189, 1065.323 425.612, 1059.515 448.460 C 1050.518 483.854, 1080.467 521, 1118 521 C 1154.548 521, 1184.598 484.044, 1176.450 449.116 C 1169.205 418.061, 1136.677 396.193, 1107 402.427 M 410.121 418.127 C 376.242 423.755, 362.243 467.666, 386.455 492.364 C 405.400 511.690, 442.028 507.871, 455.308 485.186 C 475.358 450.936, 448.909 411.685, 410.121 418.127 M 1108.251 418.516 C 1083.562 423.880, 1068.767 448.764, 1075.493 473.611 C 1086.283 513.473, 1144.198 515.876, 1159.131 477.081 C 1171.747 444.305, 1142.819 411.007, 1108.251 418.516 M 729.500 491.086 C 616.428 496.632, 519.483 537.901, 494.585 591.089 C 489.913 601.070, 489.901 600.543, 495 609.740 L 499.500 617.857 530 618.179 L 560.500 618.500 565.563 621.172 C 584.134 630.973, 587.764 653.620, 573.059 667.942 C 565.325 675.475, 562.821 676, 534.614 676 L 510.584 676 515.042 680.598 C 543.923 710.382, 604.873 736.725, 672.101 748.481 C 721.415 757.104, 786.404 758.456, 838 751.932 C 912.960 742.454, 979.280 717.031, 1016.684 683.436 L 1024.406 676.500 998.953 676 L 973.500 675.500 968.887 672.788 C 948.145 660.595, 948.949 632.505, 970.362 621.210 L 975.500 618.500 1005.971 618 L 1036.441 617.500 1040.711 610 C 1045.891 600.900, 1045.912 600.346, 1041.437 591.010 C 1026.733 560.328, 988.223 533.365, 931.500 514.037 C 876.357 495.248, 806.498 487.310, 729.500 491.086" stroke="none" fill="#1D5F3A" fill-rule="evenodd"/>
</svg>