<svg xmlns="http://www.w3.org/2000/svg" width="1000" height="339" viewBox="-230.5 145.9 1925.0 652.6">
	<path d="M 805 195.466 C 739.469 196.571, 738.416 196.621, 732.753 198.864 C 726.110 201.496, 717.595 208.839, 713.146 215.772 C 706.835 225.608, 707 222.522, 707 330.536 L 707 428.651 709.250 430.630 C 713.134 434.047, 719.879 438, 721.824 438 C 727.245 438, 727 442.910, 727 334.349 C 727 223.997, 726.755 228.410, 733.243 222.066 C 739.273 216.171, 737.914 216.269, 830 215.056 L 914.500 213.942 919.942 216.724 C 924.331 218.967, 925.879 220.467, 927.942 224.476 L 930.500 229.446 930.758 470.836 C 930.929 630.389, 930.675 713.493, 930.010 715.962 C 928.407 721.917, 924.889 726.306, 919.630 728.913 L 914.762 731.327 879.131 730.144 C 859.534 729.494, 821.900 728.295, 795.500 727.480 C 769.100 726.665, 745.925 725.735, 744 725.414 C 738.282 724.459, 733.017 720.883, 730.152 716.011 L 727.500 711.500 727 636.109 C 726.533 565.711, 726.384 560.644, 724.750 559.614 C 722.526 558.211, 719.760 559.790, 719.023 562.884 C 718.735 564.091, 718.446 560.449, 718.379 554.789 C 718.282 546.581, 717.735 542.953, 715.670 536.851 L 713.082 529.202 720.297 521.851 C 743.073 498.646, 743.364 466.623, 721.004 444.026 C 709.120 432.017, 698.616 427.667, 681.500 427.667 C 665.974 427.667, 655.419 431.669, 643.618 442.031 C 639.369 445.761, 631.936 455.973, 630.115 460.582 L 628.897 463.663 621.190 463.217 C 601.443 462.074, 583.369 468.720, 570.899 481.708 C 568.368 484.343, 560.526 494.825, 553.473 505 C 546.419 515.175, 536.749 529.125, 531.985 536 C 527.220 542.875, 518.067 556.034, 511.645 565.241 C 505.222 574.449, 498.284 584.574, 496.227 587.741 C 494.169 590.909, 489.289 598, 485.383 603.500 C 472.048 622.278, 468.852 633.402, 472.011 650.057 C 475.333 667.575, 481.325 673.737, 524 703.526 C 564.533 731.820, 566.821 733, 581.132 733 C 602.297 733, 614.233 725.066, 631.527 699.500 C 636.363 692.350, 642.211 683.800, 644.522 680.500 C 649.351 673.603, 679.703 630.532, 697.373 605.500 C 703.974 596.150, 710.632 586.250, 712.169 583.500 C 713.706 580.750, 714.972 578.855, 714.982 579.290 C 715.010 580.513, 710.940 588.224, 708.863 590.885 C 707.094 593.149, 707.001 596.209, 707.012 651.385 C 707.021 696.718, 707.318 710.600, 708.361 714.500 C 712.449 729.779, 724.267 741.677, 738.500 744.840 C 747.243 746.783, 899.181 751.359, 938 750.848 C 964.122 750.505, 964.579 750.463, 970.059 747.893 C 977.923 744.205, 986.323 735.653, 990.272 727.315 L 993.500 720.500 993.740 482.500 C 993.872 351.600, 993.614 239.764, 993.166 233.975 C 991.558 213.178, 979.918 199.025, 961.201 195.109 C 954.739 193.757, 898.732 193.885, 805 195.466 M 947.091 217.952 C 951.061 226.170, 951.046 225.078, 950.769 475.500 C 950.483 734.907, 950.747 719.247, 946.484 729.363 C 945.750 731.106, 946.212 731.202, 953.678 730.863 C 962.994 730.439, 967.417 727.881, 971.259 720.692 L 973.500 716.500 973.314 472.835 C 973.127 229.176, 973.127 229.170, 971.073 225.143 C 967.408 217.960, 959.893 214.018, 949.841 214.006 L 945.181 214 947.091 217.952 M 766.215 292.241 C 762.056 293.594, 754.613 300.106, 751.157 305.416 L 748.500 309.500 748.191 424 C 747.964 508.289, 748.189 539.923, 749.045 543.894 C 750.673 551.444, 759.028 560.093, 766.932 562.409 C 773.454 564.320, 878.514 564.818, 885.169 562.970 C 890 561.628, 897.958 554.377, 900.762 548.762 L 903 544.281 902.978 427.890 C 902.957 317.413, 902.863 311.297, 901.133 307.500 C 898.557 301.850, 894.537 297.400, 889.145 294.230 L 884.500 291.500 827 291.336 C 788.488 291.226, 768.415 291.525, 766.215 292.241 M 771.889 311.662 C 768.037 312.692, 768 313.818, 768 428.474 L 768 539.855 770.635 541.927 C 773.225 543.965, 774.168 544, 826.024 544 C 874.782 544, 878.941 543.867, 880.925 542.250 L 883.072 540.500 883.356 429.500 C 883.525 363.332, 883.266 317.381, 882.715 315.729 C 882.206 314.205, 880.967 312.517, 879.961 311.979 C 878.183 311.028, 775.390 310.727, 771.889 311.662 M 789.104 334.535 C 784.746 339.498, 784.842 344.042, 789.400 348.600 L 792.800 352 824.950 352 C 860.249 352, 861.495 351.812, 864.483 346.033 C 866.769 341.613, 866.332 338.447, 862.896 334.535 L 859.793 331 826 331 L 792.207 331 789.104 334.535 M 672.024 448.541 C 663.173 451.020, 657.053 455.139, 652.175 461.900 C 647.837 467.912, 647.960 468.160, 656.691 471 C 671.915 475.953, 686.728 487.594, 697.719 503.243 C 703.772 511.862, 704.617 512.043, 709.345 505.737 C 721.606 489.382, 719.886 468.973, 705.147 455.921 C 696.914 448.630, 682.875 445.502, 672.024 448.541 M 606.176 484.070 C 599.800 485.325, 591.812 489.272, 587.181 493.455 C 583.652 496.643, 568.956 517.235, 533.979 568 C 529.242 574.875, 523.787 582.750, 521.858 585.500 C 488.615 632.872, 488.246 633.607, 491.439 646.068 C 494.266 657.105, 496.687 659.809, 515.811 673.294 C 563.111 706.645, 569.154 710.670, 573.894 711.987 C 579.271 713.481, 587.976 713.110, 592.506 711.194 C 601.059 707.577, 603.146 705.550, 612.780 691.500 C 625.641 672.743, 659.453 624.541, 674.509 603.500 C 699.733 568.246, 701.039 565.083, 697.501 547.815 C 694.141 531.421, 679.236 507.273, 666.453 497.516 C 653.538 487.658, 622.794 480.800, 606.176 484.070 M 639.500 498.910 C 613.876 503.516, 609.952 537.472, 633.871 547.613 C 640.126 550.264, 651.853 549.185, 657.138 545.471 C 671.229 535.567, 673.814 519.170, 663.102 507.649 C 656.287 500.319, 648.238 497.339, 639.500 498.910 M 637 523.658 C 637 529.205, 646.043 531.380, 649.235 526.600 C 651.025 523.919, 649.955 522.694, 647.686 524.826 C 644.665 527.663, 643.202 527.568, 639.805 524.313 C 637.200 521.818, 637 521.771, 637 523.658" stroke="none" fill="#1D5F3A" fill-rule="evenodd"/>
</svg>