<svg xmlns="http://www.w3.org/2000/svg" width="1000" height="403" viewBox="-200.5 120.6 1935.0 779.8">
	<path d="M 591.357 170.090 C 557.041 172.566, 516.257 188.591, 485.109 211.836 C 472.751 221.058, 427.405 265.895, 424.936 271.334 C 422.643 276.383, 422.488 282.298, 424.500 288 C 427.171 295.571, 426.542 300.377, 422.347 304.452 C 418.032 308.642, 415.007 308.952, 407.239 305.999 C 395.480 301.530, 389.368 304.055, 372.681 320.273 C 355.533 336.939, 352.702 343.519, 357.028 356.656 C 359.263 363.444, 359.503 363.723, 386.267 390.670 C 416.329 420.938, 419.659 423.376, 431.013 423.437 C 440.067 423.486, 445.554 420.070, 460.149 405.298 C 476.601 388.647, 478.700 383.169, 473.481 370.500 C 469.772 361.496, 470.106 358.794, 475.592 353.463 C 482.471 346.777, 489.279 346.785, 498.195 353.488 C 501.552 356.011, 505.701 358.195, 507.802 358.546 C 509.836 358.886, 511.808 359.239, 512.184 359.332 C 512.559 359.424, 522.684 369.893, 534.684 382.595 C 546.683 395.297, 564.272 413.839, 573.770 423.799 L 591.040 441.908 584.614 450.704 C 559.902 484.530, 544.252 526.962, 541.336 568.048 L 540.707 576.912 536.213 578.443 C 518.921 584.335, 514.689 592.430, 515.183 618.670 C 515.484 634.674, 515.637 635.794, 518.301 641.500 C 525.040 655.937, 538.345 663.261, 573.741 672.019 L 586.983 675.295 575.760 686.898 C 569.588 693.279, 554.404 708.774, 542.019 721.330 C 489.517 774.559, 488.354 776.116, 489.238 792 C 489.937 804.555, 492.679 809.928, 503.906 820.734 C 514.002 830.451, 517.902 832.602, 523.714 831.659 C 535.390 829.764, 537.285 818.520, 527.679 808.127 C 524.831 805.044, 533.122 812.748, 546.105 825.245 C 574.357 852.442, 577.321 854.256, 587.099 850.344 C 591.233 848.690, 594.921 843.273, 594.978 838.770 C 595.027 834.882, 591.828 829.171, 588.928 827.970 C 587.318 827.303, 586 826.438, 586 826.048 C 586 825.657, 598.038 813.481, 612.750 798.989 C 627.462 784.497, 658.400 753.912, 681.500 731.023 L 723.500 689.407 767.500 689.634 L 811.500 689.861 839.500 719.261 C 889.958 772.241, 914.456 798.262, 928.532 813.830 C 942.684 829.482, 945.232 831.467, 955.858 835.123 C 962.836 837.524, 968.203 837.495, 976.145 835.015 C 985.397 832.126, 988.196 830.062, 1004.935 813.790 C 1023.857 795.396, 1026.500 790.827, 1026.500 776.500 C 1026.500 768.406, 1026.179 766.846, 1023.310 761 C 1019.545 753.328, 1019.345 753.097, 1006.476 741.547 C 981.944 719.530, 939.801 676.326, 942.145 675.596 C 942.890 675.365, 948.900 673.946, 955.500 672.443 C 1007.207 660.672, 1019.180 649.333, 1017.741 613.500 C 1016.987 594.724, 1012.754 586.164, 1001.620 580.897 C 998.254 579.304, 994.698 578.001, 993.719 578.001 C 991.461 578, 991.448 577.946, 990.096 562.996 C 988.231 542.364, 983.111 520.984, 975.300 501.210 L 971.630 491.919 992.548 471.632 L 1013.465 451.344 1019.337 455.139 C 1038.959 467.822, 1058.753 467.694, 1078.123 454.759 C 1084.285 450.644, 1084.442 450.454, 1108.013 418.500 C 1110.042 415.750, 1114.996 409, 1119.022 403.500 C 1123.049 398, 1129.344 389.450, 1133.011 384.500 C 1153.509 356.832, 1172.313 330.317, 1174.508 325.984 C 1182.251 310.704, 1181.460 295.757, 1172.144 281.344 C 1168.681 275.987, 1165.934 273.693, 1146.879 260.250 C 1135.121 251.954, 1114.700 237.471, 1101.500 228.065 C 1063.225 200.792, 1050.032 195.454, 1023 196.307 C 992.384 197.274, 965.067 210.669, 948.518 232.829 L 941.807 241.817 938.183 240.303 C 933.300 238.263, 925.386 239.022, 919.326 242.113 C 915.007 244.315, 913.268 246.410, 902.785 262.037 C 889.807 281.383, 887.554 286.045, 887.608 293.455 C 887.647 298.899, 890.964 307.752, 893.991 310.492 C 895.719 312.056, 895.627 312.414, 891.868 318.813 C 883.271 333.447, 882.226 343.580, 887.917 357.125 L 891.001 364.465 880.756 374.745 C 875.120 380.400, 870.058 384.811, 869.505 384.547 C 862.617 381.267, 839.991 372.675, 833.590 370.909 C 825.345 368.634, 825.311 368.610, 824.212 364.563 C 822.501 358.257, 817.632 351.455, 812.803 348.625 C 803.883 343.397, 799.072 342.871, 763.222 343.199 L 730.389 343.500 722.844 347.231 C 714.649 351.283, 711.358 354.912, 708.101 363.492 L 706.301 368.236 690.900 373.486 C 682.430 376.374, 673.891 379.444, 671.925 380.308 L 668.351 381.880 656.399 369.690 C 649.826 362.986, 640.409 353.225, 635.474 348 C 630.538 342.775, 616.561 328.150, 604.414 315.500 C 583.472 293.692, 582.214 292.163, 580.133 286 C 576.058 273.930, 576.396 260.712, 581.050 250.165 C 583.552 244.494, 595.136 232.978, 601.667 229.668 C 618.376 221.202, 645.527 219.846, 677.419 225.885 C 692.266 228.697, 698.617 225.786, 700.607 215.258 C 703.152 201.790, 669.410 179.738, 635.266 172.556 C 629.593 171.363, 603.014 168.585, 602.605 169.143 C 602.547 169.221, 597.486 169.647, 591.357 170.090 M 590.500 196.013 C 560.186 198.761, 530.829 210.271, 503.125 230.270 C 498.336 233.728, 484.454 246.413, 471.704 258.982 L 448.861 281.500 450.466 287.500 C 454.552 302.775, 445.476 322.227, 430.957 329.314 C 420.234 334.547, 414.791 334.777, 401.500 330.555 C 399.918 330.052, 397.569 331.863, 390.256 339.222 L 381.013 348.525 405.393 372.975 C 418.802 386.422, 430.169 397.556, 430.652 397.717 C 431.135 397.878, 435.733 393.789, 440.870 388.630 C 450.117 379.345, 450.194 379.226, 448.603 376.798 C 440.401 364.280, 448.949 338.845, 464.345 329.956 C 478.994 321.498, 491.416 321.116, 506.327 328.668 L 511.155 331.112 515.827 326.860 C 518.397 324.522, 528.206 315.143, 537.625 306.018 L 554.749 289.428 553.395 282.964 C 547.618 255.376, 561.272 223.837, 584.974 210.023 C 592.336 205.733, 605.540 200.826, 614.500 199.051 C 624.459 197.078, 625.047 196.612, 618.500 195.884 C 610.895 195.039, 600.731 195.085, 590.500 196.013 M 1015 222.094 C 999.761 224.063, 986.711 230.441, 975.394 241.452 C 966.965 249.652, 945.383 280.790, 919.568 321.995 C 904.636 345.829, 904.551 345.572, 933.997 365.500 C 944.562 372.650, 956.647 380.941, 960.853 383.925 C 995.084 408.208, 1036.066 436.129, 1039.718 437.655 C 1044.525 439.664, 1053.637 439.354, 1058.465 437.017 C 1064.512 434.090, 1067.916 430.094, 1088.730 401.500 C 1099.139 387.200, 1111.795 369.875, 1116.854 363 C 1121.913 356.125, 1131.298 343.300, 1137.710 334.500 C 1144.122 325.700, 1150.410 317.228, 1151.684 315.673 C 1153.608 313.325, 1154 311.680, 1154 305.958 C 1154 297.030, 1152.643 295.458, 1133.225 281.893 C 1125.126 276.235, 1104.812 261.942, 1088.082 250.131 C 1055.082 226.833, 1049.884 224.050, 1035.678 222.083 C 1026.965 220.877, 1024.407 220.878, 1015 222.094 M 1010.224 250.017 C 985.374 256.528, 968.556 272.718, 959.861 298.500 C 955.896 310.257, 956.467 328.361, 961.207 341.207 C 967.594 358.515, 977.064 370.065, 991.432 378.072 C 1039.644 404.939, 1097 371.885, 1097 317.234 C 1097 272.565, 1053.315 238.726, 1010.224 250.017 M 1019 274.085 C 1006.469 276.211, 991.996 287.365, 985.952 299.555 C 982.161 307.201, 982.290 327.918, 986.180 336.218 C 991.748 348.098, 1004.880 358.807, 1016.587 361.016 C 1043.008 366.002, 1066.991 350.015, 1071.200 324.611 C 1076.122 294.907, 1049.299 268.944, 1019 274.085 M 550.500 329.394 L 534.500 344.761 541.028 351.631 C 544.618 355.409, 561.198 372.992, 577.872 390.704 L 608.188 422.909 616.839 415.346 C 621.597 411.186, 629.317 405.059, 633.995 401.729 C 638.673 398.399, 642.898 395.327, 643.385 394.902 C 643.872 394.477, 638.247 387.908, 630.885 380.305 C 623.523 372.702, 609.404 357.935, 599.509 347.491 C 571.326 317.741, 567.701 313.999, 567.081 314.013 C 566.761 314.021, 559.300 320.942, 550.500 329.394 M 732.655 370.829 C 731.143 372.499, 730.999 379.866, 730.990 456.079 L 730.980 539.500 728.598 544.617 C 723.648 555.248, 711.135 560.429, 699.944 556.480 C 688.784 552.543, 685.320 546.526, 681.536 524.500 C 680.119 516.250, 678.052 504.775, 676.943 499 C 675.834 493.225, 674.257 484.900, 673.439 480.500 C 671.538 470.278, 659.818 416.631, 659.369 416.098 C 658.829 415.458, 648.132 422.801, 640.500 429.051 C 599.561 462.573, 574.421 507.508, 567.956 558.716 C 566.913 566.973, 566.351 603.685, 567.254 604.587 C 568.527 605.861, 611.905 610.566, 649 613.454 C 743.846 620.838, 859.488 618.500, 945.665 607.456 C 956.205 606.105, 965.093 605, 965.415 605 C 966.313 605, 966.083 586.153, 964.991 570.153 C 961.055 512.503, 934.585 463.094, 887.979 426.398 C 880.498 420.508, 873.092 415.529, 872.665 416.104 C 871.909 417.124, 859.242 478.671, 854.371 505 C 846.889 545.436, 845.905 548.387, 838.216 553.476 C 825.774 561.709, 809.408 557.513, 803.367 544.541 L 801.020 539.500 801.010 455.905 C 801 376.196, 800.915 372.233, 799.171 370.655 C 796.236 367.999, 735.072 368.158, 732.655 370.829 M 901.774 389.736 L 893.062 398.500 898.549 402.323 C 918.431 416.173, 937.870 436.167, 952.452 457.763 L 959.381 468.027 972.441 455.173 C 979.623 448.104, 986.950 441.060, 988.721 439.520 L 991.943 436.720 969.721 421.206 C 937.588 398.771, 913.054 381.958, 911.680 381.431 C 911.023 381.179, 906.565 384.916, 901.774 389.736 M 694.643 398.416 C 689.222 400.285, 684.342 402.258, 683.799 402.801 C 683.151 403.449, 685.225 414.697, 689.856 435.644 C 696.853 467.293, 698.876 477.037, 703.422 501 L 705.794 513.500 705.897 454.250 C 705.954 421.663, 705.663 395.004, 705.250 395.009 C 704.837 395.014, 700.064 396.547, 694.643 398.416 M 826.107 454.731 C 826.178 494.309, 826.528 512.980, 827.142 510 C 827.652 507.525, 829.898 496.275, 832.132 485 C 834.366 473.725, 838.646 453.250, 841.643 439.500 C 848.773 406.784, 849.300 403.898, 848.324 402.935 C 847.404 402.027, 833.028 396.659, 828.750 395.626 L 826 394.962 826.107 454.731 M 540.363 617.867 L 540.500 631.233 544.153 634.367 C 557.475 645.793, 622.317 657.477, 698 662.088 C 724.696 663.714, 812.926 663.780, 834.500 662.189 C 917.641 656.060, 976.213 645.327, 988.068 634.050 L 992 630.310 991.845 617.405 C 991.701 605.385, 991.648 605.054, 991.068 612.586 C 989.898 627.789, 989.124 628.173, 950 632.946 C 918.037 636.846, 902.140 638.290, 861.500 640.985 C 772.568 646.880, 643.508 642.462, 567.500 630.920 C 543.918 627.339, 541.994 626.013, 540.890 612.586 C 540.335 605.833, 540.248 606.703, 540.363 617.867 M 573.288 726.606 L 528.397 772.212 540.448 783.899 C 565.196 807.896, 567.354 809.781, 566.626 806.758 C 565.117 800.492, 572.143 793.306, 577.697 795.437 C 578.656 795.805, 580.252 795.173, 581.628 793.879 L 583.946 791.702 581.022 788.373 C 574.886 781.384, 576.449 772.458, 584.427 768.929 C 589.282 766.782, 593.785 767.685, 598.216 771.696 C 599.916 773.234, 599.950 773.155, 598.887 770.106 C 595.831 761.340, 605.122 752.781, 613.935 756.242 C 617.820 757.768, 617.836 757.765, 620.939 754.563 L 624.049 751.354 621.879 749.427 C 620.686 748.367, 618.841 745.559, 617.780 743.186 L 615.850 738.872 618.175 734.186 C 622.576 725.316, 630.484 724.096, 638.417 731.061 L 641.663 733.911 646.440 729.061 L 651.216 724.212 648.908 721.090 C 644.396 714.986, 646.760 707.423, 654.361 703.646 C 658.092 701.791, 658.093 701.791, 663.296 704.391 L 668.500 706.991 678 697.297 L 687.500 687.604 663 685.396 C 649.525 684.182, 634.980 682.696, 630.678 682.094 C 626.375 681.492, 621.803 681, 620.517 681 C 618.757 681, 607.088 692.268, 573.288 726.606 M 895.500 682.528 C 890 683.208, 876.396 684.568, 865.269 685.549 L 845.038 687.333 849.734 692.417 C 852.316 695.213, 869.555 713.475, 888.041 733 C 918.448 765.115, 935.022 782.888, 954.061 803.795 L 960.623 811 966.004 811 L 971.385 811 986.693 795.704 C 1006.336 776.076, 1006.215 776.708, 992.750 764.023 C 987.663 759.230, 977.818 749.952, 970.872 743.404 C 963.927 736.857, 947.307 720.138, 933.938 706.250 C 916.504 688.139, 909.048 681.041, 907.566 681.146 C 906.430 681.226, 901 681.848, 895.500 682.528" stroke="none" fill="#1D5F3A" fill-rule="evenodd"/>
</svg>