<svg xmlns="http://www.w3.org/2000/svg" width="1000" height="338" viewBox="-223.0 149.3 1910.0 645.6">
	<path d="M 806 198.466 C 740.810 199.566, 739.389 199.632, 733.853 201.827 C 727.119 204.498, 720.371 210.188, 716.164 216.744 C 709.836 226.606, 710 223.573, 710 330.679 L 710 427.939 715.617 431.531 C 718.706 433.508, 721.856 434.886, 722.617 434.594 C 723.782 434.147, 724 418.228, 724 333.710 C 724 221.220, 723.617 227.281, 731.198 219.923 C 738.285 213.046, 735.227 213.290, 829.910 212.045 L 915.319 210.922 920.732 213.570 C 927.284 216.776, 931.458 222.136, 932.999 229.324 C 933.800 233.057, 934.024 301.813, 933.804 476 L 933.500 717.500 931.309 721.595 C 930.104 723.847, 927.524 727.089, 925.575 728.800 C 919.299 734.310, 917.694 734.458, 878.222 733.148 C 858.575 732.496, 821.125 731.302, 795 730.494 C 768.875 729.686, 745.646 728.776, 743.380 728.471 C 737.392 727.665, 730.669 722.995, 727.338 717.328 L 724.500 712.500 724.226 637.250 C 724.070 594.462, 723.569 562, 723.066 562 C 722.579 562, 721.636 565.263, 720.971 569.250 C 719.713 576.794, 715.581 587.175, 712.049 591.664 C 710.038 594.222, 710 595.317, 710.012 651.385 C 710.021 695.883, 710.319 709.605, 711.361 713.500 C 715.381 728.524, 725.516 738.732, 739.500 741.840 C 748.147 743.761, 900.258 748.367, 938 747.849 C 962.990 747.507, 963.610 747.448, 969 744.914 C 976.612 741.334, 983.474 734.332, 987.314 726.225 L 990.500 719.500 990.737 482.500 C 990.868 352.150, 990.609 240.764, 990.163 234.975 C 988.578 214.400, 978.439 201.924, 960.201 198.109 C 953.751 196.759, 899.753 196.884, 806 198.466 M 940 211.596 C 940 211.923, 940.825 213.386, 941.834 214.846 C 942.843 216.306, 944.531 219.525, 945.584 222 C 947.451 226.386, 947.507 232.641, 947.795 469 C 948.111 729.091, 948.300 719.112, 942.866 728.837 L 939.884 734.175 951.353 733.837 C 962.452 733.511, 962.945 733.400, 966.661 730.407 C 971.394 726.594, 974.710 721.835, 975.935 717.099 C 976.500 714.910, 976.736 618.440, 976.535 470.911 L 976.205 228.322 974.137 224.269 C 971.374 218.853, 964.884 213.460, 959.499 212.104 C 954.919 210.951, 940 210.562, 940 211.596 M 767.239 295.318 C 762.625 297.015, 757.397 301.431, 754.221 306.316 L 751.500 310.500 751.191 424 C 750.844 551.577, 750.528 545.454, 757.844 553.012 C 765.778 561.207, 764.889 561.110, 829.283 560.783 L 884.830 560.500 889.153 557.461 C 891.531 555.789, 894.832 552.414, 896.488 549.961 L 899.500 545.500 899.500 427.922 L 899.500 310.343 896.474 305.448 C 894.598 302.415, 891.586 299.402, 888.553 297.526 L 883.659 294.500 827.080 294.310 C 785.164 294.169, 769.655 294.430, 767.239 295.318 M 770.302 309.012 C 764.779 311.236, 764.998 306.301, 765.022 428.200 C 765.043 533.093, 765.158 540.641, 766.772 542.633 C 770.291 546.977, 770.601 547, 826.418 547 L 879.968 547 883.030 544.250 L 886.091 541.500 886.400 429.500 C 886.642 341.712, 886.438 316.826, 885.460 314.381 C 882.801 307.738, 885.201 307.993, 826.027 308.063 C 796.587 308.098, 771.511 308.525, 770.302 309.012 M 791.073 336.635 C 788.323 340.130, 788.455 343.546, 791.455 346.545 L 793.909 349 824.907 349 C 857.714 349, 859.893 348.726, 861.890 344.343 C 863.451 340.916, 863.292 339.641, 860.927 336.635 L 858.855 334 826 334 L 793.145 334 791.073 336.635 M 672.528 431.009 C 655.700 434.017, 640.502 445.735, 633.317 461.243 L 630.656 466.985 622.578 466.370 C 608.009 465.262, 593.744 468.674, 582.603 475.933 C 574.076 481.488, 571.084 484.931, 556.475 506 C 549.420 516.175, 539.749 530.125, 534.985 537 C 530.220 543.875, 521.067 557.034, 514.645 566.241 C 508.222 575.449, 501.284 585.574, 499.227 588.741 C 497.169 591.909, 492.289 599, 488.383 604.500 C 479.880 616.474, 477.658 620.673, 475.577 628.704 C 471.578 644.134, 476.360 662.056, 487.339 672.790 C 492.410 677.748, 554.148 721.504, 561 724.996 C 574.434 731.842, 590.139 731.612, 604.063 724.365 C 612.532 719.957, 617.715 714.476, 628.525 698.500 C 638.485 683.779, 638.988 683.058, 664.048 647.500 C 714.857 575.408, 712.180 579.755, 714.673 565.308 C 716.465 554.924, 715.439 544.868, 711.527 534.476 L 708.978 527.704 711.239 526.205 C 716.291 522.855, 724.835 512.842, 728.351 506.152 C 748.160 468.456, 714.736 423.464, 672.528 431.009 M 671.024 445.539 C 660.335 448.537, 651.916 455.226, 646.647 464.908 C 644.572 468.720, 644.202 470.128, 645.184 470.467 C 645.908 470.718, 650.550 472.304, 655.500 473.992 C 672.288 479.717, 685.790 490.501, 696 506.338 C 699.025 511.031, 701.999 514.899, 702.609 514.935 C 704.904 515.069, 712.762 506.925, 715.754 501.310 C 731.848 471.115, 703.933 436.309, 671.024 445.539 M 605.176 481.070 C 598.257 482.432, 590.453 486.496, 585.046 491.554 C 580.664 495.653, 567.009 514.707, 530.979 567 C 526.242 573.875, 520.787 581.750, 518.858 584.500 C 485.366 632.228, 484.894 633.197, 488.427 647.051 C 491.326 658.424, 494.649 662.129, 514.446 676.060 C 573.813 717.838, 570.642 715.984, 582.730 715.994 C 596.204 716.006, 602.965 711.228, 615.621 692.749 C 628.385 674.112, 662.118 626.010, 677.509 604.500 C 699.242 574.126, 702 568.873, 702 557.855 C 702 534.408, 678.988 498.166, 658.287 489.009 C 642.899 482.202, 618.191 478.509, 605.176 481.070 M 640.500 501.936 C 629.309 503.712, 621.797 511.904, 621.169 523.015 C 619.656 549.785, 658.034 555.121, 665.621 529.196 C 669.976 514.316, 656.262 499.434, 640.500 501.936 M 646.788 518.306 C 647.471 524.161, 644.455 525.291, 640.465 520.675 L 637.192 516.888 635.596 519.167 C 632.258 523.932, 634.663 530.074, 640.641 532.046 C 649.824 535.077, 657.241 524.150, 650.545 517.455 C 647.246 514.155, 646.327 514.363, 646.788 518.306" stroke="none" fill="#1D5F3A" fill-rule="evenodd"/>
</svg>