<svg xmlns="http://www.w3.org/2000/svg" width="1000" height="402" viewBox="-195.5 123.9 1925.0 773.9">
	<path d="M 590.357 173.090 C 556.596 175.526, 518.071 190.730, 487.109 213.836 C 477.058 221.336, 429.950 267.262, 427.554 271.896 C 425.614 275.646, 425.577 283.241, 427.471 288.500 C 432.751 303.155, 422.080 314.562, 408.213 309.087 C 396.259 304.368, 390.702 306.587, 374.365 322.603 C 361.318 335.395, 359.206 338.465, 358.323 345.923 C 357.050 356.673, 358.366 358.561, 387.890 388.335 C 417.835 418.533, 420.337 420.397, 431 420.461 C 439.847 420.514, 443.576 418.137, 458.644 402.833 C 474.001 387.237, 475.946 381.870, 470.490 370.151 C 466.501 361.582, 467.830 355.679, 475.030 349.976 C 482.717 343.888, 490.670 344.328, 500.023 351.358 C 503.562 354.018, 507.330 356.030, 508.849 356.070 C 513.461 356.193, 514.412 357.030, 536.678 380.587 C 548.680 393.285, 566.487 412.068, 576.250 422.327 C 586.013 432.586, 594 441.393, 594 441.899 C 594 442.405, 591.030 446.797, 587.399 451.660 C 562.085 485.564, 546.541 527.960, 544.287 569.250 L 543.700 580 541.010 580 C 536.862 580, 526.502 585.653, 523.544 589.531 C 518.499 596.146, 517.999 598.645, 518.010 617.218 C 518.019 633.622, 518.149 634.780, 520.567 640 C 527.709 655.418, 543.853 663.112, 589.211 672.714 L 592.922 673.500 574.827 692 C 564.875 702.175, 547.214 720.175, 535.582 732 C 491.798 776.509, 491.554 776.845, 492.156 791.888 C 492.650 804.257, 495.258 809.084, 507.481 820.250 C 516.560 828.544, 517.294 829, 521.575 829 C 527.678 829, 531 825.810, 531 819.948 C 531 816.076, 530.390 815.174, 521.663 806.152 C 512.850 797.042, 509.703 791.897, 511.714 789.886 C 512.167 789.433, 525.833 801.818, 542.082 817.409 C 572.151 846.259, 575.528 849, 581 849 C 593.203 849, 596.261 834.440, 585.188 829.060 L 580.554 826.809 609.027 798.713 C 624.687 783.259, 656.625 751.673, 680 728.521 L 722.500 686.426 767.500 686.640 L 812.500 686.854 841 716.754 C 889.695 767.842, 916.116 795.898, 930.783 812.092 C 948.042 831.149, 951.917 833.504, 966 833.495 C 978.865 833.487, 982.629 831.348, 1001.250 813.467 C 1020.422 795.058, 1023.209 790.660, 1023.821 777.850 C 1024.211 769.703, 1024.031 768.680, 1021.180 762.804 C 1017.441 755.100, 1017.870 755.573, 999.629 739.052 C 979.406 720.736, 934.671 674.751, 936.264 673.916 C 936.944 673.559, 939.525 672.964, 942 672.593 C 967.581 668.757, 996.368 658.397, 1004.757 650.008 C 1013.040 641.725, 1014.500 636.928, 1014.500 618 C 1014.500 600.047, 1013.872 596.884, 1008.958 590.101 C 1005.691 585.591, 998.422 581.411, 992.083 580.397 L 988 579.744 988 573.423 C 988 553.665, 981.295 522.707, 972.267 500.780 L 968.314 491.182 990.682 469.490 L 1013.050 447.797 1019.520 452.013 C 1030.843 459.390, 1037.013 461.387, 1048.500 461.392 C 1067.209 461.400, 1077.369 455.295, 1092.300 435.075 C 1107.931 413.908, 1109.237 412.135, 1117.022 401.500 C 1121.049 396, 1127.344 387.450, 1131.011 382.500 C 1154.474 350.831, 1170.725 327.653, 1173.259 322.249 C 1179.157 309.669, 1178.031 295.547, 1170.161 283.370 C 1166.677 277.981, 1163.966 275.715, 1144.879 262.250 C 1133.121 253.954, 1112.700 239.473, 1099.500 230.071 C 1061.121 202.733, 1050.025 198.307, 1022.248 199.257 C 989.188 200.388, 963.158 214.785, 945.569 241.669 L 942.841 245.839 939.393 243.805 C 934.711 241.042, 925.050 241.570, 919.691 244.882 C 916.388 246.923, 897.494 273.574, 891.958 284 C 888.481 290.549, 890.786 302.817, 896.680 309.123 L 899.131 311.747 894.151 320.432 C 885.702 335.168, 884.930 344.941, 891.191 357.919 L 894.582 364.948 882.857 376.643 L 871.131 388.338 863.315 384.786 C 853.284 380.226, 838.337 374.743, 829.837 372.505 C 823.269 370.775, 823.160 370.691, 822.110 366.522 C 820.279 359.253, 815.237 352.920, 808.571 349.522 L 802.643 346.500 766.071 346.500 L 729.500 346.500 723.253 349.888 C 716.360 353.626, 711.709 359.403, 709.756 366.651 C 708.666 370.698, 708.475 370.845, 702.069 372.557 C 694.836 374.491, 680.247 379.631, 672.580 382.947 L 667.661 385.074 663.732 381.287 C 661.571 379.204, 651.656 368.950, 641.698 358.500 C 631.741 348.050, 613.678 329.198, 601.558 316.606 C 577.781 291.903, 579.643 294.635, 575.313 278.097 C 570.568 259.970, 581.836 236.650, 599.693 227.644 C 618.248 218.285, 643.925 216.758, 677.192 223.036 C 686.821 224.853, 688.275 224.912, 691.393 223.609 C 697.576 221.026, 699.759 213.397, 696.054 207.320 C 689.533 196.626, 658.754 180.286, 636.189 175.540 C 630.018 174.242, 605.530 171.765, 602.605 172.143 C 601.997 172.221, 596.486 172.647, 590.357 173.090 M 591.500 193.013 C 560.568 195.817, 529.040 208.119, 501.109 228.282 C 496.250 231.790, 482.373 244.491, 469.193 257.494 L 445.874 280.500 447.533 286.901 C 454.646 314.337, 428.161 338.291, 402.241 327.865 L 398.981 326.554 388.468 337.027 C 382.686 342.787, 378.077 348.066, 378.227 348.757 C 378.692 350.900, 429.237 401, 430.935 401 C 431.815 401, 437.244 396.276, 442.998 390.502 L 453.460 380.004 450.993 375.488 C 447.203 368.550, 447.471 357.760, 451.650 349 C 458.776 334.064, 470.522 326.500, 486.590 326.500 C 495.387 326.500, 496.131 326.677, 503.838 330.615 L 511.892 334.730 533.196 314.264 C 544.913 303.008, 555.248 293.057, 556.163 292.149 C 557.668 290.657, 557.694 289.882, 556.434 284 C 553.382 269.749, 555.254 253.418, 561.408 240.624 C 573.849 214.759, 596.634 201.847, 634.512 199.197 L 645.500 198.428 636.500 196.248 C 620.455 192.362, 608.309 191.489, 591.500 193.013 M 1015.723 219.073 C 999.511 221.283, 984.779 228.375, 973.394 239.452 C 965.056 247.563, 946.606 274.133, 917.462 320 C 907.791 335.221, 907.612 335.611, 907.557 341.673 C 907.469 351.236, 905.779 349.692, 947.500 378.178 C 956.300 384.186, 973.850 396.335, 986.500 405.175 C 1037.246 440.639, 1039.511 441.982, 1048.572 441.994 C 1060.515 442.011, 1065.725 437.641, 1084.662 411.719 C 1099.435 391.496, 1116.915 367.680, 1140.795 335.240 C 1156.281 314.203, 1156.996 312.921, 1156.998 306.218 C 1157.001 296.189, 1154.707 293.365, 1136 280.371 C 1129.675 275.978, 1110.053 262.196, 1092.396 249.744 C 1074.739 237.292, 1057.818 226.010, 1054.794 224.673 C 1043.170 219.532, 1028.151 217.379, 1015.723 219.073 M 1010.638 252.585 C 988.458 257.954, 970.355 275.358, 962.360 299 C 959.048 308.794, 959.758 330.263, 963.741 340.773 C 984.764 396.239, 1061.624 400.366, 1087.444 347.417 C 1093.612 334.766, 1095.967 315.218, 1092.892 302.193 C 1084.557 266.894, 1046.456 243.915, 1010.638 252.585 M 919.646 276.961 C 914.227 285.166, 909.974 292.421, 910.195 293.084 C 910.540 294.121, 931 264.112, 931 262.567 C 931 260.438, 928.293 263.870, 919.646 276.961 M 1022.500 270.677 C 1003.565 273.318, 987.772 285.865, 982.067 302.801 C 971.851 333.128, 994.997 365, 1027.237 365 C 1060.964 365, 1084.626 328.452, 1070.387 298.353 C 1061.936 280.489, 1040.593 268.154, 1022.500 270.677 M 548.500 327.403 L 530.500 344.772 538.031 352.636 C 542.173 356.961, 559.653 375.461, 576.875 393.746 L 608.187 426.991 615.344 420.416 C 623.066 413.320, 638.253 401.554, 644.274 398.001 C 646.323 396.792, 648 395.409, 648 394.928 C 648 394.447, 641.587 387.392, 633.750 379.250 C 625.913 371.108, 611.407 355.908, 601.516 345.473 C 575.081 317.584, 567.712 309.998, 567.073 310.017 C 566.758 310.026, 558.400 317.850, 548.500 327.403 M 733.020 367.263 C 727.908 369.894, 728.032 367.689, 727.998 457 L 727.967 540.500 725.725 544.458 C 717.951 558.183, 697.025 558.236, 689.348 544.550 C 688.155 542.424, 686.432 536.367, 685.518 531.092 C 683.429 519.030, 677.349 485.926, 675.400 476 C 671.759 457.463, 661.706 413.411, 660.927 412.582 C 659.006 410.538, 637.160 427.040, 622.870 441.330 C 581.377 482.823, 561.205 535.986, 563.993 596.500 L 564.500 607.500 577 609.202 C 685.217 623.934, 835.643 624.429, 944.995 610.414 C 972.030 606.949, 969.003 608.750, 968.985 596.142 C 968.903 536.999, 953.619 492.301, 920.036 452.980 C 905.991 436.536, 872.872 409.092, 870.689 412.089 C 869.375 413.894, 846 530.770, 846 535.537 C 846 539.551, 840.641 548.390, 836.445 551.296 C 828.992 556.459, 817.739 556.017, 810.939 550.295 C 804.114 544.552, 804.553 550.503, 804 456.277 L 803.500 371.055 801.224 368.777 C 798.962 366.515, 798.739 366.498, 767.224 366.243 C 743.036 366.047, 734.911 366.290, 733.020 367.263 M 899.592 387.908 L 888.823 398.711 896.161 404.025 C 918.707 420.353, 935.364 437.495, 950.554 460 C 954.823 466.325, 958.627 471.500, 959.006 471.500 C 959.386 471.500, 967.872 463.558, 977.863 453.852 L 996.030 436.204 965.265 414.777 C 934.964 393.674, 913.527 378.916, 911.431 377.717 C 910.842 377.380, 905.515 381.966, 899.592 387.908 M 823.243 462.742 C 823.410 509.352, 823.849 534.450, 824.500 534.666 C 825.064 534.854, 826.738 528.137, 828.341 519.249 C 831.817 499.980, 839.467 462.042, 845.026 436.500 C 851.766 405.530, 851.965 404.571, 851.983 402.837 C 852.001 401.083, 844.251 397.716, 830.243 393.391 L 822.987 391.151 823.243 462.742 M 694 396.060 C 687.675 398.286, 681.798 400.338, 680.940 400.621 C 679.595 401.063, 680.176 404.675, 685.155 426.817 C 692.569 459.793, 697.047 481.772, 702.288 510.918 C 704.915 525.525, 706.970 534.492, 707.750 534.751 C 708.742 535.081, 709 520.405, 709 463.583 C 709 396.073, 708.900 392, 707.250 392.006 C 706.288 392.010, 700.325 393.834, 694 396.060 M 539.073 602.635 C 537.270 604.926, 537.001 606.655, 537.006 615.885 C 537.012 629.011, 538.101 633.198, 542.400 636.628 C 557.290 648.508, 623.122 660.472, 699 665.085 C 725.668 666.707, 811.963 666.772, 833.500 665.187 C 891.480 660.920, 926.386 656.198, 957 648.480 C 992.172 639.612, 995 637.245, 995 616.667 C 995 606.651, 994.749 604.950, 992.927 602.635 C 988.961 597.593, 988 599.019, 988 609.944 C 988 625.624, 988.907 625.096, 954.500 629.461 C 921.999 633.584, 904.810 635.176, 862.500 637.986 C 773.101 643.923, 642.624 639.485, 566.500 627.919 C 544.221 624.534, 544 624.356, 544 609.777 C 544 599.027, 543.024 597.612, 539.073 602.635 M 571.151 724.750 C 545.837 750.462, 525.086 771.849, 525.038 772.276 C 524.989 772.703, 534.299 782.008, 545.725 792.954 C 565.016 811.434, 566.624 812.743, 568.239 811.283 C 569.553 810.095, 569.831 808.796, 569.378 805.965 C 568.546 800.758, 571.613 797.600, 576.848 798.275 C 579.987 798.680, 581.022 798.248, 584.219 795.201 L 587.937 791.655 583.969 787.350 C 578.156 781.044, 578.614 774.802, 585.137 771.429 C 589.091 769.384, 592.072 770.167, 596.882 774.512 C 600.637 777.904, 600.749 777.935, 602.456 776.048 C 604.064 774.272, 604.075 773.945, 602.600 771.839 C 596.937 763.755, 607.536 753.697, 615.139 759.938 L 617.500 761.876 622.713 756.759 L 627.925 751.642 623.996 747.380 C 618.997 741.957, 618.226 739.010, 620.697 734.780 C 624.847 727.673, 630.244 727.418, 637.377 733.993 L 641.635 737.918 648.477 731.023 L 655.319 724.128 652.160 720.529 C 648.035 715.831, 648.097 712.703, 652.400 708.400 C 656.943 703.857, 660.016 704.074, 665.802 709.348 L 668.104 711.447 681.132 698.284 L 694.160 685.121 690.830 684.648 C 688.998 684.388, 677.600 683.429, 665.500 682.516 C 653.400 681.603, 638.579 680.214, 632.564 679.428 C 626.549 678.643, 620.626 678, 619.402 678 C 617.789 678, 604.502 690.873, 571.151 724.750 M 895.500 679.629 C 889.450 680.373, 874.445 681.853, 862.156 682.918 C 849.867 683.983, 839.669 685, 839.495 685.177 C 839.320 685.355, 851.335 698.325, 866.195 714 C 908.530 758.659, 934.617 786.527, 945.768 799.008 C 957.405 812.032, 959.951 813.987, 965.282 813.995 C 971.728 814.004, 975.039 811.675, 989.661 796.854 C 1008.692 777.563, 1009.151 774.679, 995.172 762.193 C 979.056 747.798, 957.472 726.678, 934.930 703.250 C 917.539 685.175, 910.049 678.039, 908.568 678.138 C 907.431 678.214, 901.550 678.885, 895.500 679.629" stroke="none" fill="#1D5F3A" fill-rule="evenodd"/>
</svg>