<svg xmlns="http://www.w3.org/2000/svg" width="1000" height="406" viewBox="-188.0 108.3 1910.0 775.5">
	<path d="M 406.051 157.425 C 404.704 158.172, 403.273 159.620, 402.871 160.642 C 401.522 164.074, 401.899 186.823, 403.364 190.329 C 404.846 193.875, 410.291 199, 412.577 199 C 413.714 199, 414 201.030, 414 209.096 C 414 220.289, 415.123 223.460, 420.136 226.421 L 423 228.113 423 475.531 L 423 722.949 420.061 724.469 C 414.585 727.300, 414 729.161, 414 743.737 L 414 757.029 417.251 760.576 C 419.680 763.228, 421.574 764.267, 424.751 764.693 L 429 765.263 429 774.681 C 429 791.817, 431.558 794, 451.635 794 L 466 794 466 809.935 C 466 835.433, 465.560 835, 491.466 835 C 518.132 835, 518 835.124, 518 810.048 L 518 793.996 767.750 794.248 L 1017.500 794.500 1018 811.500 C 1018.731 836.367, 1018.473 836.143, 1045.498 835.266 L 1063.495 834.681 1066.224 831.760 C 1068.951 828.841, 1068.954 828.822, 1069.227 811.669 L 1069.500 794.500 1084.050 794 C 1104.576 793.295, 1107 791.206, 1107 774.227 L 1107 765.256 1110.923 764.628 C 1115.779 763.852, 1120.683 759.205, 1121.556 754.555 C 1121.903 752.703, 1122.033 746.449, 1121.844 740.657 C 1121.515 730.591, 1121.371 729.992, 1118.574 727.075 C 1116.965 725.396, 1114.827 723.763, 1113.824 723.444 C 1112.065 722.886, 1112 714.028, 1112 475.531 L 1112 228.198 1115.320 226.239 C 1120.299 223.301, 1121.999 218.754, 1122.008 208.349 L 1122.015 199.500 1126.091 197.172 C 1132.029 193.781, 1133 190.614, 1133 174.643 C 1133 162.918, 1132.758 160.923, 1131.088 158.861 L 1129.177 156.500 768.838 156.283 C 466.787 156.101, 408.104 156.286, 406.051 157.425 M 416 176.800 C 416 180.756, 416.502 184.102, 417.200 184.800 C 418.129 185.729, 497.321 186, 767.545 186 C 1104.521 186, 1116.748 185.936, 1118.345 184.171 C 1119.509 182.885, 1120 180.510, 1120 176.171 L 1120 170 768 170 L 416 170 416 176.800 M 427 205.800 C 427 209.756, 427.502 213.102, 428.200 213.800 C 430.032 215.632, 1105.308 215.539, 1106.829 213.707 C 1107.419 212.995, 1108.211 209.395, 1108.589 205.707 L 1109.276 199 768.138 199 L 427 199 427 205.800 M 436 276 L 436 324 457 324 C 480.285 324, 482 324.467, 482 330.809 C 482 337.198, 481.560 337.313, 457.652 337.217 L 436 337.131 436 345.065 L 436 353 444.500 353 C 454.094 353, 457 354.591, 457 359.845 C 457 364.724, 454.444 366, 444.671 366 L 436 366 436 544.500 L 436 723 444.500 723 L 453 723 453 656.805 L 453 590.609 450.296 587.787 C 445.297 582.569, 446.079 566.960, 451.520 563.395 L 453.861 561.861 450.680 557.345 C 446.401 551.269, 445.963 537.973, 449.837 531.741 C 456.338 521.286, 474.164 518.937, 483.670 527.284 C 492.226 534.796, 493.541 550.220, 486.307 558.213 C 484.759 559.924, 485.695 560, 508.345 560 L 532 560 532 507.017 L 532 454.035 507.250 453.767 L 482.500 453.500 482.500 448 L 482.500 442.500 491.174 442.212 L 499.849 441.924 500.539 435.482 C 501.606 425.515, 502.446 426, 484.113 426 C 464.924 426, 465 426.021, 465 420.593 C 465 413.853, 464.316 414, 495.665 414 C 526.723 414, 526.027 413.858, 525.985 420.184 C 525.957 424.378, 524.415 425.472, 517.787 425.999 L 511.500 426.500 511.208 434.250 L 510.916 442 521.458 442 L 532 442 532.006 385.750 C 532.009 350.142, 532.390 328.135, 533.044 325.781 C 534.368 321.014, 538.509 316.103, 542.671 314.364 C 546.710 312.677, 730.039 312.328, 736.044 313.996 C 740.298 315.178, 745.306 320.223, 746.866 324.899 C 747.685 327.355, 748 360.447, 748 444.149 L 748 560 783.500 560 L 819 560 819.015 549.750 C 819.032 537.927, 819.967 535.349, 825.271 532.500 L 828.995 530.500 829.019 429 C 829.046 317.992, 828.794 322.984, 834.645 317.788 C 840.084 312.959, 839.417 313, 912.652 313 C 990.719 313, 987.075 312.623, 992.816 321.298 L 995.500 325.353 995.768 428.063 L 996.036 530.772 999.058 532.024 C 1004.257 534.178, 1005 536.266, 1005 548.723 L 1005 560 1027.655 560 C 1049.988 560, 1050.285 559.973, 1048.560 558.066 C 1046.155 555.409, 1044.097 549.279, 1044.044 544.616 C 1043.829 525.597, 1065.283 515.199, 1080.859 526.772 C 1089.451 533.156, 1090.616 551.393, 1082.954 559.549 C 1081.011 561.617, 1081.015 561.635, 1083.953 563.807 C 1087.099 566.133, 1089 571.128, 1088.972 577 C 1088.953 581.211, 1085.688 588.799, 1083.542 589.622 C 1082.174 590.147, 1082 597.708, 1082 656.607 L 1082 723 1090.500 723 L 1099 723 1099 583 L 1099 443 1089.700 443 C 1079.052 443, 1078 442.416, 1078 436.500 C 1078 430.584, 1079.052 430, 1089.700 430 L 1099 430 1099 422 L 1099 414 1076.700 414 C 1052.153 414, 1052 413.963, 1052 407.955 C 1052 401.235, 1052.856 401, 1077.329 401 L 1099 401 1099 314.500 L 1099 228 767.500 228 L 436 228 436 276 M 548.635 328.073 L 546 330.145 546 445.073 L 546 560 549 560 L 552 560 552.094 515.750 C 552.145 491.413, 552.258 443.724, 552.344 409.775 L 552.500 348.050 555.273 345.275 L 558.045 342.500 640.495 342.500 L 722.944 342.500 725.222 344.778 L 727.500 347.055 727.763 453.528 L 728.027 560 730.868 560 L 733.709 560 734.349 546.750 C 734.700 539.462, 734.874 487.895, 734.735 432.156 L 734.482 330.812 731.685 328.406 L 728.888 326 640.079 326 C 551.747 326, 551.256 326.011, 548.635 328.073 M 846.304 327.956 C 844.092 329.305, 842.927 330.919, 842.520 333.202 C 842.196 335.016, 842.060 380.150, 842.216 433.500 L 842.500 530.500 845.750 530.813 L 849 531.127 849 437.498 C 849 341.009, 848.989 341.295, 852.913 338.282 C 855.143 336.570, 967.112 336.457, 970.316 338.163 C 975.108 340.716, 974.935 337.035, 974.968 436.750 L 975 531 978.500 531 L 982 531 982 431.582 C 982 376.902, 981.720 331.435, 981.379 330.545 C 979.659 326.062, 978.708 326, 912.300 326.004 C 851.816 326.007, 849.382 326.079, 846.304 327.956 M 863.750 350.685 C 862.133 351.111, 862 353.391, 862 380.573 L 862 410 912.015 410 L 962.030 410 961.765 380.250 L 961.500 350.500 913.500 350.361 C 887.100 350.285, 864.712 350.430, 863.750 350.685 M 463.215 354.562 C 459.975 356.832, 460 364.499, 463.250 365.370 C 468.603 366.804, 496.807 366.050, 498.429 364.429 C 500.305 362.552, 500.512 356.649, 498.750 355.259 C 496.382 353.390, 465.745 352.790, 463.215 354.562 M 566 458 C 566 559.333, 566.013 560, 568 560 C 569.986 560, 570 559.333, 570 462.689 C 570 366.317, 570.020 365.356, 572.028 363.201 C 575.032 359.976, 576.114 359.882, 606.343 360.204 L 634.179 360.500 636.090 362.861 C 637.941 365.149, 638 368.236, 638 462.611 L 638 560 640.500 560 L 643 560 643 462.611 C 643 368.212, 643.059 365.149, 644.912 362.861 L 646.823 360.500 677 360.500 L 707.177 360.500 709.088 362.861 C 710.941 365.149, 711 368.212, 711 462.611 C 711 559.333, 711.014 560, 713 560 C 714.987 560, 715 559.333, 715 458 L 715 356 640.500 356 L 566 356 566 458 M 583 467 L 583 560 604 560 L 625 560 625 467 L 625 374 604 374 L 583 374 583 467 M 656 467 L 656 560 676.830 560 L 697.660 560 697.902 467 L 698.143 374 677.072 374 L 656 374 656 467 M 862 477.500 L 862 531 912 531 L 962 531 962 477.500 L 962 424 912 424 L 862 424 862 477.500 M 1028.200 431.200 C 1027.540 431.860, 1027 434.245, 1027 436.500 C 1027 438.755, 1027.540 441.140, 1028.200 441.800 C 1029.747 443.347, 1069.207 443.495, 1072.066 441.965 C 1074.505 440.659, 1074.741 433.884, 1072.429 431.571 C 1070.391 429.534, 1030.203 429.197, 1028.200 431.200 M 464.629 538.078 C 459.041 542.473, 459.215 547.336, 465.089 550.908 C 471.272 554.668, 479.623 548.040, 476.446 541.895 C 473.462 536.124, 468.960 534.670, 464.629 538.078 M 1061.593 538.250 C 1057.597 541.821, 1057.323 545.211, 1060.725 549.018 C 1064.332 553.055, 1068.167 553.287, 1071.769 549.686 C 1078.947 542.508, 1069.150 531.498, 1061.593 538.250 M 833.195 544.855 C 832.302 545.423, 831.987 547.541, 832.195 551.568 C 832.461 556.688, 832.824 557.614, 835 558.711 C 836.943 559.690, 854.202 559.974, 912.527 559.985 C 999.146 560.002, 992.282 560.810, 991.795 550.661 L 991.500 544.500 913 544.262 C 869.825 544.131, 833.913 544.398, 833.195 544.855 M 460.686 575.377 C 460.084 576.945, 461.774 579, 463.665 579 C 466.806 579, 467 583.298, 467 652.934 L 467 723 469.558 723 L 472.115 723 471.934 652.105 C 471.834 613.113, 472.059 580.713, 472.435 580.105 C 472.931 579.302, 553.628 579, 767.404 579 C 1051.234 579, 1061.749 579.065, 1063.345 580.829 C 1065.409 583.110, 1065.501 589.356, 1063.500 591.357 C 1062.197 592.660, 1062 601.421, 1062 657.929 L 1062 723 1065.549 723 L 1069.097 723 1068.998 652.750 C 1068.943 614.112, 1068.921 581.962, 1068.949 581.305 C 1068.977 580.647, 1070.237 579.516, 1071.750 578.791 C 1073.263 578.066, 1074.500 576.804, 1074.500 575.987 C 1074.500 573.820, 461.517 573.211, 460.686 575.377 M 485 657.500 L 485 723 498.500 723 L 512 723 512 657.500 L 512 592 498.500 592 L 485 592 485 657.500 M 526 657.500 L 526 723 539.500 723 L 553 723 553 657.500 L 553 592 539.500 592 L 526 592 526 657.500 M 567 657.500 L 567 723 580.485 723 L 593.971 723 594.235 659.250 C 594.381 624.188, 594.335 594.712, 594.133 593.750 C 593.806 592.189, 592.323 592, 580.383 592 L 567 592 567 657.500 M 608 657.472 L 608 723 621.500 723 L 635 723 635.037 713.250 C 635.057 707.888, 635.164 678.525, 635.274 648 L 635.475 592.500 621.737 592.222 L 608 591.944 608 657.472 M 649 657.500 L 649 723 662.500 723 L 676 723 676 657.500 L 676 592 662.500 592 L 649 592 649 657.500 M 690 657.472 L 690 723 703.420 723 L 716.841 723 717.469 716.750 C 717.815 713.313, 717.963 683.950, 717.799 651.500 L 717.500 592.500 703.750 592.222 L 690 591.944 690 657.472 M 731 657.500 L 731 723 744.500 723 L 758 723 758 657.500 L 758 592 744.500 592 L 731 592 731 657.500 M 772 657.500 L 772 723 786 723 L 800 723 800 657.500 L 800 592 786 592 L 772 592 772 657.500 M 813 657.500 L 813 723 827 723 L 841 723 841 657.500 L 841 592 827 592 L 813 592 813 657.500 M 854 657.500 L 854 723 868 723 L 882 723 882 657.500 L 882 592 868 592 L 854 592 854 657.500 M 895.623 599.722 C 895.298 604, 895.138 633.375, 895.266 665 L 895.500 722.500 909.462 722.500 L 923.425 722.500 923.462 657.500 L 923.500 592.500 909.857 592.222 L 896.213 591.945 895.623 599.722 M 937 657.472 L 937 723 950.500 723 L 964 723 964.150 659 C 964.232 623.800, 964.345 594.438, 964.400 593.750 C 964.475 592.818, 961.001 592.429, 950.750 592.222 L 937 591.944 937 657.472 M 978 657.500 L 978 723 992 723 L 1006 723 1006 657.500 L 1006 592 992 592 L 978 592 978 657.500 M 1019 657.500 L 1019 723 1034 723 L 1049 723 1049 657.500 L 1049 592 1034 592 L 1019 592 1019 657.500 M 435 737 L 427.500 737.500 427.196 743.396 C 427.028 746.638, 427.296 749.696, 427.791 750.191 C 428.773 751.173, 1105.468 751.447, 1107.056 750.466 C 1107.575 750.145, 1108 746.984, 1108 743.441 L 1108 737 1101.750 736.978 C 1001.137 736.629, 440.294 736.647, 435 737 M 442 771.800 C 442 775.756, 442.502 779.102, 443.200 779.800 C 444.128 780.728, 517.543 781, 767.545 781 C 1079.333 781, 1090.748 780.936, 1092.345 779.171 C 1093.509 777.885, 1094 775.510, 1094 771.171 L 1094 765 768 765 L 442 765 442 771.800 M 479.667 794.667 C 478.833 795.500, 478.781 818.265, 479.607 820.418 C 480.113 821.738, 482.185 822, 492.107 822 L 504 822 504 808 L 504 794 492.167 794 C 485.658 794, 480.033 794.300, 479.667 794.667 M 1031.449 795.274 C 1031.166 796.009, 1031.062 802.211, 1031.218 809.055 L 1031.500 821.500 1043.500 821.500 L 1055.500 821.500 1055.500 808 L 1055.500 794.500 1043.731 794.218 C 1034.627 794, 1031.845 794.239, 1031.449 795.274" stroke="none" fill="#1D5F3A" fill-rule="evenodd"/>
</svg>