<svg xmlns="http://www.w3.org/2000/svg" width="1000" height="343" viewBox="-200.0 162.6 1935.0 663.7">
	<path d="M 753 212.567 C 729.320 218.747, 712.375 235.457, 704.903 260 C 696.523 287.523, 710.983 319.868, 737.633 333.209 L 746.684 337.740 740.092 338.363 C 736.466 338.706, 729.395 338.989, 724.378 338.993 C 707.564 339.006, 686.355 346.223, 673.054 356.458 C 662.104 364.885, 652.174 381.179, 647.968 397.626 C 646.182 404.610, 646 408.799, 646 443.036 L 646 480.752 631.339 484.422 C 563.597 501.380, 510.642 531.127, 485.658 566.256 L 480.142 574.013 474.892 565.256 C 465.113 548.945, 449.656 535.936, 431.805 528.990 C 424.937 526.318, 424.694 526.120, 427.512 525.490 C 451.770 520.075, 467.332 508.306, 476.643 488.332 C 485.880 468.519, 484.843 448.810, 473.490 428.370 C 460 404.081, 427.906 390.831, 402.035 398.869 C 377.528 406.483, 363.423 420.593, 355.886 445.035 C 346.837 474.382, 363.781 508.719, 393.155 520.563 L 400.996 523.724 394.432 524.397 C 370.631 526.835, 352.511 541.341, 344.324 564.510 L 341.500 572.500 341.210 640.266 C 340.877 718.419, 340.533 715.129, 349.388 718.510 C 353.767 720.183, 354.228 720.185, 358.521 718.545 C 366.915 715.339, 366.433 719.692, 367 642 C 367.569 564.087, 366.972 569.332, 376.369 559.680 C 383.247 552.615, 388.240 550.734, 401.519 550.205 C 420.142 549.463, 429.854 553.235, 443.054 566.339 C 450.080 573.313, 450.272 573.610, 476.858 618.637 C 489.921 640.759, 485.700 639, 525.716 639 L 556.391 639 559.195 641.687 C 562.567 644.917, 562.825 648.682, 559.927 652.365 L 557.855 655 515.115 655 L 472.374 655 469.819 652.250 C 467.545 649.802, 448.805 620.295, 441.518 607.686 C 436.957 599.796, 431.252 597.486, 423.570 600.420 C 419.966 601.797, 418.880 602.842, 417.516 606.252 C 415.014 612.506, 415.937 614.890, 429.011 635.935 L 441 655.233 441.022 681.866 C 441.048 713.496, 441.506 715.500, 449.396 718.514 C 453.789 720.191, 454.211 720.191, 458.604 718.514 C 465.695 715.805, 466.951 712.148, 466.978 694.125 L 467 679.750 470.125 680.375 C 471.844 680.719, 476.681 681.035, 480.875 681.078 L 488.500 681.156 494.336 688.125 C 526.983 727.115, 605.339 761.188, 687 771.905 C 717.358 775.889, 727.775 776.476, 768 776.464 C 841.449 776.443, 896.296 766.846, 953.609 743.986 C 991.370 728.924, 1028.847 704.389, 1043.052 685.430 L 1046.372 681 1055.121 681 C 1059.933 681, 1065.024 680.561, 1066.435 680.025 L 1069 679.050 1069.022 693.775 C 1069.049 712.184, 1070.271 715.792, 1077.396 718.514 C 1081.789 720.191, 1082.211 720.191, 1086.604 718.514 C 1094.494 715.500, 1094.952 713.497, 1094.978 681.858 L 1095 655.215 1106.511 636.858 C 1112.842 626.761, 1118.534 616.827, 1119.159 614.783 C 1122.153 604.999, 1112.741 596.284, 1103.049 599.866 C 1098.930 601.388, 1097.932 602.469, 1092.500 611.288 C 1076.257 637.660, 1067.015 651.647, 1064.678 653.391 C 1062.223 655.224, 1060.142 655.305, 1020.301 655.126 L 978.500 654.938 976.250 652.413 C 973.299 649.102, 973.405 645.860, 976.589 642.077 L 979.178 639 1010.339 638.978 C 1047.487 638.952, 1047.626 638.921, 1052.938 629.373 C 1057.446 621.270, 1078.466 585.831, 1083.131 578.466 C 1090.486 566.855, 1104.962 554.896, 1115.462 551.755 C 1117.729 551.077, 1125.421 550.537, 1133 550.524 C 1148.809 550.496, 1151.435 551.382, 1159.596 559.495 C 1169.381 569.223, 1168.997 565.851, 1169.022 642.288 C 1169.047 718.437, 1168.690 715.189, 1177.396 718.514 C 1184.037 721.049, 1190.330 718.688, 1193.082 712.628 C 1195.696 706.870, 1196.029 583.027, 1193.463 570.815 C 1188.009 544.860, 1167.788 526.861, 1141.218 524.308 L 1134.936 523.705 1141.983 520.873 C 1171.295 509.096, 1188.579 476.376, 1180.947 447.111 C 1173.632 419.065, 1151.818 400.063, 1122.835 396.489 C 1106.170 394.434, 1082.198 404.104, 1069.984 417.807 C 1035.454 456.549, 1057.220 516.752, 1108.916 525.486 L 1113.162 526.203 1105.331 528.852 C 1087.152 535, 1072.971 546.532, 1062.086 564.020 L 1055.784 574.146 1053.209 570.323 C 1027.929 532.786, 976.197 502.894, 905.500 484.974 L 890.500 481.172 889.979 441.336 L 889.457 401.500 886.612 393 C 874.414 356.557, 848.348 339.026, 806.332 339.007 C 787.664 338.998, 785.977 338.516, 793.676 335.387 C 811.717 328.055, 824.700 313.020, 831.141 292 C 837.965 269.730, 828.618 241.212, 809.510 226.008 C 793.563 213.319, 770.835 207.913, 753 212.567 M 757.500 237.883 C 747.753 240.446, 736.646 249.912, 731.774 259.807 C 727.767 267.948, 727.189 280.508, 730.394 289.853 C 732.828 296.951, 742.698 307.506, 750.687 311.554 C 759.251 315.894, 776.654 315.918, 784.946 311.602 C 815.521 295.689, 814.977 254.590, 784 240.158 C 778.134 237.424, 763.894 236.202, 757.500 237.883 M 720.500 364.685 C 694.496 366.950, 676.719 382.468, 672.515 406.572 C 670.119 420.315, 670.307 476.030, 672.750 475.925 C 673.712 475.884, 678.100 475.318, 682.500 474.668 L 690.500 473.485 691 445.993 C 691.462 420.608, 691.657 418.232, 693.547 415 C 698.325 406.833, 711.271 407.664, 714.979 416.375 C 716.513 419.978, 716.717 423.705, 716.596 445.837 L 716.458 471.173 721.479 470.566 C 729.037 469.653, 799.080 469.572, 810.279 470.463 L 820.059 471.242 819.924 445.871 C 819.763 415.482, 820.260 413.212, 827.704 410.369 C 834.368 407.824, 839.633 409.781, 842.750 415.962 C 844.915 420.256, 845 421.425, 845 447.083 L 845 473.742 851.250 474.424 C 854.688 474.799, 859.188 475.365, 861.250 475.681 L 865 476.256 864.980 445.378 C 864.957 409.674, 864.288 403.309, 859.490 393.168 C 852.191 377.742, 838.801 368.242, 820.500 365.507 C 811.257 364.125, 734.195 363.492, 720.500 364.685 M 410.732 422.981 C 386.743 427.298, 372.018 456.021, 382.622 477.811 C 386.098 484.953, 394.184 492.986, 401.500 496.565 C 410.243 500.842, 425.634 500.908, 434.192 496.705 C 446.053 490.880, 455.069 479.365, 456.985 467.592 C 461.246 441.411, 437.200 418.219, 410.732 422.981 M 1108.923 423.368 C 1098.737 425.562, 1087.005 435.261, 1081.830 445.769 C 1078.392 452.750, 1078.407 470.280, 1081.857 477.286 C 1095.279 504.545, 1131.438 507.986, 1149.471 483.719 C 1170.797 455.022, 1144.398 415.730, 1108.923 423.368 M 729.500 496.086 C 617.932 501.558, 522.647 542.218, 498.066 594.844 L 495.633 600.054 499.062 606.473 L 502.492 612.892 531.496 613.196 L 560.500 613.500 567.794 616.918 C 576.055 620.790, 580.102 624.827, 583.867 632.954 C 591.823 650.127, 583.971 671.471, 567.239 678.158 C 562.186 680.178, 559.229 680.514, 542.500 680.976 L 523.500 681.500 532 688.104 C 565.818 714.378, 613.536 733.240, 672.101 743.481 C 721.415 752.104, 786.404 753.456, 838 746.932 C 907.348 738.163, 971.854 714.554, 1005.925 685.471 L 1010.981 681.156 992.135 680.828 L 973.288 680.500 966.438 677 C 942.100 664.564, 943.131 628.668, 968.163 616.938 L 975.500 613.500 1004.431 613 L 1033.362 612.500 1036.642 607 C 1040.634 600.306, 1040.639 600.207, 1037.380 593.717 C 1030.505 580.027, 1013.531 562.241, 996 550.358 C 936.155 509.792, 841.808 490.579, 729.500 496.086" stroke="none" fill="#1D5F3A" fill-rule="evenodd"/>
</svg>