<svg xmlns="http://www.w3.org/2000/svg" width="1000" height="410" viewBox="-201.5 118.6 1935.0 793.4">
	<path d="M 919 171.452 C 888.174 179.473, 815.669 199.050, 799.810 203.635 C 796.230 204.670, 793.002 206.434, 791.103 208.394 C 784.830 214.866, 785 212.319, 785 299.626 L 785 379 562.538 379 C 341.033 379, 340.052 379.009, 334.620 381.041 C 326.987 383.897, 323.883 387.030, 298.995 417 C 271.899 449.629, 272.661 447.943, 273.167 474.204 C 273.486 490.799, 273.614 491.732, 276.306 497.214 C 281.372 507.531, 291.343 514, 302.178 514 L 307 514 307 656.933 C 307 793.730, 306.923 799.890, 305.199 800.437 C 301.934 801.473, 296.286 808.414, 294.629 813.428 C 292.410 820.140, 292.352 842.743, 294.537 849.155 C 296.450 854.770, 302.126 860.430, 307.876 862.457 C 314.559 864.814, 1219.441 864.814, 1226.124 862.457 C 1237.741 858.361, 1241.294 850.460, 1240.824 829.769 C 1240.442 812.968, 1238.617 807.736, 1231.311 802.501 L 1227.122 799.500 1227.061 656.870 L 1227 514.240 1232.936 513.811 C 1244.546 512.971, 1255.759 504.422, 1258.870 494.038 C 1260.651 488.095, 1260.356 454.400, 1258.474 448.879 C 1257.514 446.061, 1252.975 439.581, 1246.224 431.391 C 1240.326 424.236, 1229.911 411.566, 1223.080 403.238 C 1202.662 378.344, 1204.415 379, 1158.322 379 L 1124 379 1123.978 293.250 C 1123.957 211.938, 1123.860 207.289, 1122.104 203.421 C 1118.210 194.848, 1116.552 194.267, 1081 188.996 C 1065.875 186.754, 1043.825 183.349, 1032 181.431 C 1020.175 179.512, 1003.750 176.847, 995.500 175.508 C 958.204 169.456, 941.697 167.006, 938.717 167.080 C 936.948 167.123, 928.075 169.091, 919 171.452 M 914.500 198.936 C 869.358 210.772, 856.848 214.400, 858.746 215.102 C 860.795 215.860, 878.041 218.885, 882 219.181 C 883.375 219.284, 900.889 214.002, 920.921 207.444 L 957.342 195.519 950.421 194.321 C 939.922 192.503, 938.176 192.728, 914.500 198.936 M 1006.500 205.373 C 1004.850 206.085, 989.100 211.529, 971.500 217.471 C 953.900 223.413, 939.156 228.579, 938.736 228.952 C 938.049 229.560, 970.876 235.773, 977 236.194 C 979.346 236.356, 1057.367 212.034, 1056.687 211.353 C 1056.358 211.024, 1011.581 203.971, 1010.257 204.039 C 1009.840 204.061, 1008.150 204.661, 1006.500 205.373 M 1095 226.013 C 1091.049 227.365, 1025.207 248.379, 1007.250 254.020 L 991 259.125 991 339.562 C 991 383.803, 991.337 419.998, 991.750 419.995 C 992.163 419.993, 1010.050 414.442, 1031.500 407.659 C 1052.950 400.877, 1076.912 393.363, 1084.750 390.962 L 1099 386.597 1099 305.799 C 1099 261.359, 1098.662 225.036, 1098.250 225.079 C 1097.838 225.122, 1096.375 225.543, 1095 226.013 M 810 312.669 L 810 392.571 843.750 398.843 C 862.313 402.293, 887.850 407.075, 900.500 409.471 C 913.150 411.866, 932.275 415.462, 943 417.462 C 953.725 419.461, 963.288 421.331, 964.250 421.616 C 965.907 422.107, 966 417.814, 966 341.241 L 966 260.348 955.750 258.583 C 950.112 257.612, 938.300 255.509, 929.500 253.909 C 920.700 252.310, 912.957 251.001, 912.293 251.001 C 911.384 251, 911.013 258.270, 910.793 280.436 L 910.500 309.872 907.609 312.887 C 903.439 317.239, 900.635 317.457, 885.254 314.625 C 877.689 313.233, 869.925 311.846, 868 311.544 C 862.926 310.747, 858.582 307.746, 856.670 303.717 C 855.226 300.675, 854.999 296.153, 854.995 270.349 L 854.989 240.500 835.245 237.184 C 824.385 235.360, 814.263 233.620, 812.750 233.317 L 810 232.767 810 312.669 M 880 266.626 C 880 283.051, 880.289 288.003, 881.250 288.014 C 881.938 288.021, 883.522 288.301, 884.770 288.636 L 887.040 289.244 886.770 267.912 L 886.500 246.581 883.250 245.917 L 880 245.253 880 266.626 M 343.839 404.722 C 342.284 405.087, 333.242 415.577, 314.178 439.131 L 311.855 442 622.178 441.893 C 794.240 441.834, 930.718 441.409, 928.500 440.940 C 926.300 440.474, 896.375 434.854, 862 428.449 C 827.625 422.045, 797.620 415.989, 795.323 414.991 C 792.725 413.863, 790.156 411.681, 788.528 409.222 L 785.911 405.267 775.705 404.625 C 764.991 403.952, 346.716 404.045, 343.839 404.722 M 1117.246 406.117 C 1115.512 407.769, 1098.624 413.352, 1042 430.992 C 1025.775 436.046, 1011.375 440.555, 1010 441.012 C 1008.625 441.469, 1055.778 441.878, 1114.785 441.921 L 1222.070 442 1207.025 424.030 C 1198.750 414.146, 1191.035 405.554, 1189.880 404.936 C 1186.151 402.940, 1119.441 404.025, 1117.246 406.117 M 316.716 467.772 L 297.931 468.044 298.599 477.272 C 298.967 482.347, 299.712 487.063, 300.256 487.750 C 301.558 489.395, 1229.993 489.609, 1233.066 487.965 C 1234.769 487.053, 1235 485.799, 1235 477.465 L 1235 468 1225.250 467.906 C 1199.862 467.662, 333.158 467.534, 316.716 467.772 M 332 656 L 332 798 766.500 798 L 1201 798 1201 656 L 1201 514 766.500 514 L 332 514 332 656 M 393.839 529 C 378.012 529.579, 374.146 531.443, 370.804 540.105 C 368.681 545.608, 368.043 768.829, 370.133 775.101 C 371.707 779.826, 377.406 785.505, 381.934 786.862 C 384.745 787.704, 485.029 787.994, 767.616 787.978 C 1137.870 787.957, 1149.625 787.899, 1153.599 786.095 C 1158.006 784.093, 1161.007 780.525, 1162.847 775.101 C 1164.840 769.225, 1164.458 545.033, 1162.447 540.218 C 1160.377 535.262, 1156.443 531.301, 1152.198 529.900 C 1148.673 528.737, 424.520 527.877, 393.839 529 M 394 658.500 L 394 763 766.500 763 L 1139 763 1139 658.500 L 1139 554 766.500 554 L 394 554 394 658.500 M 318 831 L 318 839 767 839 L 1216 839 1216 831 L 1216 823 767 823 L 318 823 318 831" stroke="none" fill="#1D5F3A" fill-rule="evenodd"/>
</svg>