<svg xmlns="http://www.w3.org/2000/svg" width="1000" height="357" viewBox="-193.0 177.3 1910.0 681.9">
	<path d="M 1029.071 226.752 C 1024.133 229.269, 1022.447 232.187, 1019.036 244.112 C 1015.514 256.421, 1015.299 260.225, 1017.856 264.991 C 1019.693 268.417, 1019.687 268.523, 1017.228 275.836 C 1014.146 285.003, 1011.550 287.983, 997.598 298.380 C 975.423 314.904, 973.457 318.234, 962.405 358 C 952.514 393.593, 952.908 392.243, 952.522 391.844 C 952.340 391.655, 949.640 382.275, 946.522 371 C 943.404 359.725, 938.674 343.075, 936.012 334 C 933.349 324.925, 929.687 311.895, 927.874 305.044 C 925.332 295.439, 923.884 291.798, 921.547 289.137 C 918.193 285.317, 911.922 282.056, 907.864 282.022 C 906.415 282.010, 882.565 288.347, 854.864 296.105 C 802.023 310.903, 799.997 311.668, 795.944 318.333 C 791.716 325.285, 792.007 327.208, 803.040 365.199 C 813.521 401.287, 818.983 420.305, 818.994 420.750 C 818.997 420.887, 812.010 421, 803.467 421 C 785.710 421, 781.114 422.411, 775.072 429.716 C 769.139 436.889, 767.019 453.967, 770.575 465.941 C 773.348 475.279, 784.617 483.993, 793.932 484.001 C 795.066 484.003, 795.577 485.179, 795.779 488.251 C 795.933 490.588, 797.859 511.400, 800.060 534.500 C 802.261 557.600, 805.391 591.125, 807.014 609 C 811.578 659.238, 812.935 673.756, 813.980 683.500 C 814.511 688.450, 815.884 702.625, 817.031 715 C 821.778 766.233, 822.914 775.696, 824.981 781.219 C 829.493 793.279, 840.266 804.144, 852.676 809.150 L 858.500 811.500 995.500 811.766 C 1090.778 811.952, 1134.090 811.704, 1137.719 810.952 C 1150.836 808.235, 1164.119 797.869, 1169.815 785.904 C 1173.621 777.910, 1174.405 774.075, 1176.444 753.500 C 1177.316 744.700, 1178.921 728.500, 1180.011 717.500 C 1181.101 706.500, 1183.352 681.300, 1185.015 661.500 C 1188.086 624.925, 1191.858 584.439, 1194.472 560 C 1195.266 552.575, 1197.141 532.511, 1198.639 515.413 L 1201.362 484.325 1207.145 483.131 C 1214.652 481.580, 1220.581 477.058, 1224.207 470.118 C 1227.806 463.229, 1228.356 442.565, 1225.129 435.500 C 1220.930 426.308, 1212.451 421.057, 1201.750 421.022 C 1198.037 421.010, 1195 420.854, 1195 420.675 C 1195 420.497, 1197.524 414.309, 1200.609 406.925 C 1210.719 382.729, 1211.313 379.389, 1206.999 371.047 C 1197.636 352.941, 1147.738 331.383, 1125.756 335.947 C 1116.521 337.864, 1114.345 340.621, 1104.404 363 C 1094.413 385.491, 1087.923 399.860, 1082.161 412.250 L 1078.092 421 1074.046 421 C 1071.821 421, 1070 420.777, 1070 420.505 C 1070 420.233, 1073.442 408.196, 1077.649 393.755 C 1090.581 349.368, 1090.609 348.621, 1080.322 323 C 1074.899 309.493, 1074.502 307.952, 1074.526 300.500 C 1074.560 289.852, 1076.107 285.630, 1080.977 282.893 C 1085.389 280.413, 1086.814 277.624, 1090.473 264.304 C 1093.471 253.394, 1093.557 250.823, 1091.104 245.421 C 1088.854 240.468, 1085.109 237.369, 1079.619 235.917 C 1077.354 235.318, 1067.657 232.617, 1058.070 229.914 C 1039.195 224.593, 1034.343 224.063, 1029.071 226.752 M 1035.287 240.206 C 1033.792 242.081, 1029.583 256.916, 1030.333 257.666 C 1031.392 258.725, 1072.421 270.052, 1073.582 269.607 C 1075.192 268.989, 1079.512 252.112, 1078.356 250.956 C 1077.513 250.113, 1047.488 241.347, 1039.409 239.585 C 1037.369 239.140, 1035.968 239.351, 1035.287 240.206 M 493.798 272.931 C 487.138 275.060, 481.739 278.090, 473.296 284.437 C 463.151 292.063, 461.735 292.438, 443 292.471 C 422.541 292.507, 418.145 293.724, 410.359 301.511 C 404.508 307.362, 402.569 312.220, 402.582 321 C 402.596 330.834, 407.778 339.503, 426.381 360.813 C 439.383 375.707, 446.484 384.355, 453.164 393.428 L 459.002 401.356 455.653 404.428 C 449.992 409.621, 447.153 418.922, 449.179 425.637 C 449.355 426.223, 443.722 429.675, 436.661 433.308 C 371.222 466.971, 327.759 526.491, 315.432 599.322 C 314.489 604.891, 313.531 620.101, 312.996 638 C 312.097 668.010, 311.341 674.303, 307.047 687.487 C 294.925 724.705, 295.445 748.646, 308.821 769.123 C 321.780 788.964, 341.437 799.423, 375.169 804.426 C 431.178 812.733, 549.464 814.439, 618.477 807.936 C 670.994 802.986, 690.163 797.038, 706.447 780.639 C 725.583 761.367, 729.849 739.215, 721.132 704.400 C 715.850 683.309, 715.002 675.802, 714.989 650.026 C 714.963 596.213, 704.778 556.151, 681.334 517.645 C 659.888 482.420, 626.676 451.635, 589.446 432.474 C 583.426 429.375, 578.645 426.330, 578.821 425.706 C 580.802 418.716, 577.546 408.152, 572.083 403.844 L 569.110 401.500 581.305 386.352 C 588.012 378.021, 597.790 365.871, 603.033 359.352 C 623.801 333.533, 630.042 319.262, 626.505 305.682 C 623.842 295.456, 619.861 290.657, 610.481 286.363 C 601.287 282.153, 592.956 282.526, 577.228 287.848 C 559.568 293.824, 556.768 293.504, 543.500 284.002 C 525.833 271.350, 509.867 267.793, 493.798 272.931 M 1030.209 280.226 C 1027.023 291.191, 1022.460 296.912, 1008.500 307.442 C 987.572 323.230, 986.271 325.026, 980.102 346.664 C 971.230 377.782, 960.993 414.703, 960.389 417.760 L 959.746 421.020 1007.590 420.760 L 1055.434 420.500 1062.696 395.500 C 1074.319 355.490, 1074.605 354.153, 1073.242 346.207 C 1072.603 342.482, 1069.988 334.275, 1067.430 327.967 C 1059.350 308.047, 1058.330 301.232, 1061.563 288.757 C 1062.423 285.440, 1062.760 282.388, 1062.313 281.974 C 1061.866 281.561, 1055.511 279.574, 1048.191 277.557 C 1040.870 275.541, 1034.308 273.672, 1033.607 273.403 C 1032.747 273.073, 1031.643 275.289, 1030.209 280.226 M 496.996 287.276 C 493.100 288.608, 487.002 292.021, 481.789 295.787 C 467.302 306.252, 466.478 306.496, 445.500 306.523 C 425.885 306.548, 423.412 307.118, 419.088 312.615 C 414.029 319.046, 417.116 327.836, 429.635 342.651 C 433.411 347.118, 441.023 356.112, 446.552 362.637 C 456.641 374.544, 465.841 386.399, 471.864 395.250 L 475.096 400 497.489 400 C 511.046 400, 520.121 399.613, 520.488 399.019 C 522.201 396.247, 528.415 376.308, 530.147 368.025 C 531.237 362.814, 532.643 357.930, 533.273 357.171 C 536.117 353.744, 541.874 353.864, 544.235 357.400 C 546.324 360.528, 543.250 377.212, 537.630 393.250 L 535.264 400 542.382 399.986 C 552.327 399.967, 553.378 399.511, 558.150 393.144 C 562.265 387.654, 573.366 373.682, 587.955 355.632 C 606.170 333.094, 611.743 323.886, 612.683 314.778 C 614.282 299.294, 600.830 293.803, 580.906 301.805 C 562.039 309.383, 553.410 308.315, 536.127 296.266 C 519.531 284.695, 510.566 282.635, 496.996 287.276 M 896.500 298.974 C 891.550 300.529, 871.975 306.142, 853 311.448 C 834.025 316.753, 816.143 321.759, 813.263 322.571 C 809.290 323.692, 807.888 324.599, 807.454 326.329 C 806.926 328.430, 812.257 347.920, 828.288 402.500 L 833.574 420.500 889.037 420.500 L 944.500 420.500 944.429 416.500 C 944.389 414.300, 942.682 406.875, 940.635 400 C 935.040 381.213, 933.694 376.548, 926.494 351 C 913.150 303.649, 911.903 299.551, 910.312 297.792 C 908.234 295.497, 907.324 295.574, 896.500 298.974 M 1128.178 350.046 L 1125.856 350.989 1128.074 354.104 C 1137.845 367.826, 1184.273 386.183, 1193.853 380.112 C 1198.552 377.134, 1181.083 364.312, 1161.651 356.477 C 1148.880 351.327, 1132.686 348.216, 1128.178 350.046 M 1150.223 358.557 C 1147.018 360.802, 1147.478 363.424, 1151.686 366.893 C 1159.780 373.564, 1171.135 374.609, 1171.815 368.744 C 1172.248 365.015, 1168.403 361.657, 1160.732 359.067 C 1153.396 356.589, 1153.055 356.573, 1150.223 358.557 M 1106.123 392.728 C 1099.439 407.453, 1093.977 419.842, 1093.985 420.261 C 1093.993 420.679, 1113.411 420.904, 1137.136 420.761 L 1180.271 420.500 1184.463 410 C 1186.768 404.225, 1189.162 398.553, 1189.784 397.396 C 1190.881 395.354, 1190.670 395.273, 1182.707 394.699 C 1163.749 393.332, 1138.360 382.492, 1121.387 368.518 L 1118.275 365.956 1106.123 392.728 M 466.004 414.413 C 461.762 416.303, 462.183 423.851, 466.643 425.883 C 474.069 429.267, 557.289 429.007, 562.513 425.584 C 566.985 422.653, 566.038 414.084, 561.227 413.953 C 540.564 413.391, 467.505 413.744, 466.004 414.413 M 786.766 437.918 L 783.500 440.836 783.500 451.899 L 783.500 462.962 786.769 466.231 L 790.038 469.500 997.269 469.739 C 1160.508 469.928, 1205.010 469.715, 1206.904 468.739 C 1212.742 465.729, 1213.605 462.070, 1213.052 442.673 C 1213.023 441.668, 1211.685 439.531, 1210.077 437.923 L 1207.154 435 998.593 435 L 790.032 435 786.766 437.918 M 446.212 444.433 C 401.841 466.318, 364.423 504.727, 345.418 547.897 C 331.833 578.755, 327.421 601.499, 326.581 645 C 326.077 671.078, 325.883 672.372, 318.847 696.500 C 312.396 718.624, 310.854 731.866, 313.403 743.254 C 318.519 766.112, 333.988 780.580, 360 786.834 C 407.574 798.272, 541.527 801.372, 624.326 792.950 C 680.602 787.226, 699.648 777.682, 708.992 750.524 C 713.098 738.588, 712.589 727.680, 706.888 705.500 C 702.304 687.666, 701.955 684.331, 701.029 649.500 C 700.170 617.150, 699.118 606.561, 695.007 588.881 C 680.314 525.700, 639.205 473.619, 581.012 444.462 C 569.717 438.803, 569.602 438.770, 564.569 439.849 C 561.781 440.447, 556.722 441.230, 553.326 441.589 L 547.153 442.241 550.655 448.371 C 558.297 461.744, 564.872 479.049, 568.491 495.313 C 570.457 504.154, 569.519 507.151, 564.381 508.441 C 559.302 509.715, 557.142 506.815, 553.996 494.500 C 549.386 476.455, 541.676 458.888, 533.477 447.750 L 529.981 443 513.131 443 L 496.282 443 491.622 447.101 C 478.938 458.267, 462.751 482.973, 455.542 502.173 C 452.673 509.813, 444.864 511.185, 441.854 504.578 C 439.149 498.642, 458.833 461.559, 472.219 447.374 C 477.546 441.728, 477.225 441.047, 469.218 441.014 C 467.413 441.006, 464.381 440.350, 462.481 439.556 C 459.081 438.136, 458.818 438.215, 446.212 444.433 M 809.707 487.250 C 809.876 489.038, 811.133 502.875, 812.502 518 C 813.871 533.125, 816.348 559.450, 818.006 576.500 C 819.665 593.550, 821.492 612.900, 822.067 619.500 C 822.642 626.100, 823.994 640.500, 825.071 651.500 C 826.148 662.500, 828.831 691.075, 831.033 715 C 836.015 769.129, 836.506 773.095, 838.890 778.485 C 841.656 784.738, 848.319 791.517, 854.857 794.728 L 860.500 797.500 998.500 797.500 L 1136.500 797.500 1142.214 794.694 C 1145.418 793.121, 1149.682 789.897, 1151.918 787.356 C 1158.975 779.339, 1160.006 776.028, 1162.076 754.719 C 1163.104 744.148, 1164.642 728.975, 1165.495 721 C 1166.348 713.025, 1167.917 696.150, 1168.982 683.500 C 1172.732 638.937, 1176.407 599.091, 1181.525 547.500 C 1184.326 519.266, 1187 489.630, 1187 486.815 L 1187 484 998.201 484 L 809.402 484 809.707 487.250 M 901.861 546.918 C 899.057 549.197, 899.025 552.937, 901.496 590 C 904.564 636.040, 906.021 659.425, 908.007 694.500 C 910.269 734.477, 910.457 736.304, 912.457 737.964 C 914.824 739.929, 919.935 739.510, 922.286 737.159 L 924.435 735.009 921.143 681.755 C 919.332 652.465, 917.457 622.650, 916.976 615.500 C 916.495 608.350, 915.404 590.575, 914.550 576 C 913.011 549.705, 912.979 549.483, 910.444 547.250 C 907.316 544.496, 904.954 544.405, 901.861 546.918 M 994.707 547.016 L 992 549.145 992 642.418 C 992 730.009, 992.107 735.782, 993.750 737.193 C 997.751 740.629, 1002.629 739.950, 1004.914 735.640 C 1006.844 731.999, 1005.956 549.518, 1004 547.601 C 1001.279 544.935, 997.643 544.706, 994.707 547.016 M 1087.282 546.184 C 1084.107 547.749, 1083.228 551.673, 1082.510 567.500 C 1081.480 590.177, 1076.082 680.821, 1074.479 702.372 C 1071.956 736.271, 1072.343 739, 1079.674 739 C 1086.851 739, 1086.308 743.594, 1093.490 622 C 1096.731 567.126, 1096.936 563.815, 1097.535 556.379 C 1098.236 547.692, 1093.592 543.075, 1087.282 546.184" stroke="none" fill="#1D5F3A" fill-rule="evenodd"/>
</svg>