<svg xmlns="http://www.w3.org/2000/svg" width="1000" height="410" viewBox="-196.5 120.9 1925.0 789.3">
	<path d="M 920 173.452 C 889.155 181.477, 816.654 201.054, 800.800 205.638 C 797.591 206.566, 794.002 208.432, 792.589 209.907 C 786.899 215.846, 787 214.201, 787 301.119 L 787 380.987 562.679 381.243 L 338.358 381.500 332.429 384.527 C 323.256 389.210, 280.016 441.141, 276.902 451.215 C 273.552 462.054, 274.370 488.199, 278.311 496.224 C 283.258 506.299, 292.425 512, 303.678 512 L 309 512 309 656.474 L 309 800.949 306.250 802.385 C 297.945 806.723, 295 814.344, 295 831.500 C 295 845.570, 296.428 851.084, 301.294 855.801 C 308.270 862.561, 266.101 862, 767 862 C 1267.899 862, 1225.730 862.561, 1232.706 855.801 C 1237.586 851.071, 1239 845.580, 1239 831.359 C 1239 816.473, 1237.032 809.820, 1231.208 805.020 C 1229.193 803.359, 1226.972 802, 1226.272 802 C 1225.248 802, 1225 773.702, 1225 657.116 L 1225 512.233 1231.300 511.832 C 1243.179 511.075, 1252.798 504.196, 1256.674 493.684 C 1258.530 488.651, 1258.379 455.467, 1256.474 449.879 C 1255.514 447.061, 1250.975 440.581, 1244.224 432.391 C 1238.326 425.236, 1227.973 412.658, 1221.217 404.440 C 1201.310 380.225, 1203.438 381, 1156.822 381 L 1122 381 1122 294.712 L 1122 208.424 1119.750 203.962 C 1116.245 197.012, 1112.637 195.772, 1083.500 191.507 C 1061.093 188.228, 1044.186 185.568, 994.500 177.508 C 959.644 171.853, 940.796 169.005, 938.717 169.080 C 937.498 169.123, 929.075 171.091, 920 173.452 M 917 195.993 C 892.232 202.446, 846.786 214.881, 846.339 215.328 C 846.142 215.525, 849.473 216.205, 853.740 216.840 C 858.008 217.475, 866.551 218.870, 872.725 219.939 L 883.950 221.884 925.225 208.281 L 966.500 194.678 955 192.878 C 939.267 190.415, 938.022 190.517, 917 195.993 M 1005.500 203.380 C 1003.850 204.095, 985.998 210.263, 965.829 217.086 C 945.660 223.909, 929.328 229.662, 929.537 229.871 C 929.953 230.286, 942.667 232.676, 964.625 236.465 L 978.750 238.903 1022.539 224.953 C 1046.624 217.281, 1066.453 210.880, 1066.605 210.728 C 1066.920 210.413, 1011.028 201.864, 1009.500 201.994 C 1008.950 202.040, 1007.150 202.664, 1005.500 203.380 M 1095.500 223.507 C 1086.798 226.442, 1028.345 245.115, 1009.250 251.060 L 989 257.365 989 340.182 C 989 385.732, 989.290 423, 989.643 423 C 989.997 423, 1009.460 416.954, 1032.893 409.565 C 1056.327 402.176, 1081.125 394.378, 1088 392.236 L 1100.500 388.341 1100.756 305.171 C 1100.896 259.427, 1100.671 222.036, 1100.256 222.079 C 1099.840 222.122, 1097.700 222.765, 1095.500 223.507 M 808 312.637 C 808 390.936, 808.088 395, 809.780 395 C 811.537 395, 847.512 401.617, 905 412.513 C 955.413 422.069, 965.826 424, 966.931 424 C 967.681 424, 968 399.325, 968 341.220 L 968 258.440 957.250 256.638 C 944.230 254.456, 914.354 249.146, 911.292 248.470 L 909.083 247.983 908.792 278.412 C 908.414 317.868, 909.011 316.963, 886.290 312.513 C 879.256 311.135, 872.497 310.006, 871.270 310.004 C 867.444 309.997, 861.199 306.949, 859.309 304.165 C 857.688 301.776, 857.448 298.243, 857 270.096 L 856.500 238.693 837.500 235.447 C 827.050 233.662, 816.138 231.767, 813.250 231.237 L 808 230.273 808 312.637 M 878 266.222 L 878 289.666 883.500 290.662 L 889 291.659 889 268.397 C 889 242.514, 889.678 244.847, 881.750 243.442 L 878 242.777 878 266.222 M 342.751 402.728 C 341.197 403.100, 336.328 408.695, 315.103 434.500 C 311.936 438.350, 309.016 442.063, 308.614 442.750 C 308.029 443.749, 372.799 443.981, 631.191 443.903 L 954.500 443.807 940 440.969 C 932.025 439.408, 897.375 432.882, 863 426.468 C 828.625 420.053, 798.625 413.991, 796.333 412.996 C 793.516 411.772, 791.427 409.901, 789.882 407.217 L 787.598 403.247 776.549 402.608 C 764.637 401.918, 345.653 402.035, 342.751 402.728 M 1116.299 404.064 C 1114.516 405.766, 1097.926 411.258, 1041 428.992 C 1024.775 434.046, 1007.675 439.455, 1003 441.012 L 994.500 443.842 1110.333 443.921 L 1226.167 444 1224.333 441.557 C 1216.619 431.280, 1193.021 403.960, 1191.050 403.024 C 1186.674 400.946, 1118.573 401.893, 1116.299 404.064 M 315.500 466 L 296.500 466.500 296.713 476.880 C 296.880 485.015, 297.292 487.665, 298.618 489.130 C 300.266 490.952, 312.394 491, 766.432 491 C 1186.691 491, 1232.774 490.847, 1234.777 489.443 C 1236.844 487.996, 1237 487.118, 1237 476.943 L 1237 466 1226.750 465.896 C 1188.187 465.504, 330.635 465.602, 315.500 466 M 330 656 L 330 800 766.500 800 L 1203 800 1203 656 L 1203 512 766.500 512 L 330 512 330 656 M 394.918 531 C 378.830 531.592, 375.487 533.188, 372.604 541.650 C 370.565 547.634, 370.119 768.062, 372.134 774.101 C 373.710 778.823, 378.406 783.506, 382.926 784.860 C 385.747 785.705, 485.365 786, 767.654 786 L 1148.576 786 1152.980 783.750 C 1162.189 779.045, 1161.459 789.301, 1161.797 660 C 1162.002 581.304, 1161.764 545.364, 1161.020 542.795 C 1159.562 537.761, 1155.663 533.374, 1151.395 531.965 C 1147.805 530.781, 425.900 529.859, 394.918 531 M 392 658.500 L 392 765 766.500 765 L 1141 765 1141 658.500 L 1141 552 766.500 552 L 392 552 392 658.500 M 316 831 L 316 841 767 841 L 1218 841 1218 831 L 1218 821 767 821 L 316 821 316 831" stroke="none" fill="#1D5F3A" fill-rule="evenodd"/>
</svg>