<svg xmlns="http://www.w3.org/2000/svg" width="1000" height="407" viewBox="-200.5 102.6 1935.0 787.5">
	<path d="M 404.017 153.250 C 398.190 156.225, 397.172 159.352, 397.076 174.572 C 396.981 189.665, 398.392 194.414, 404.593 199.873 L 409 203.752 409 211.560 C 409 220.350, 411.313 226.665, 415.549 229.440 L 418 231.046 418 475.335 L 418 719.624 414.908 721.910 C 410.045 725.505, 409 729.325, 409 743.500 C 409 759.944, 411.724 765.914, 420.500 768.704 C 423.455 769.644, 423.508 769.784, 424.049 778.079 C 425.140 794.834, 430.207 799, 449.493 799 L 460.856 799 461.178 813.750 C 461.731 839.076, 463.093 840.202, 492.680 839.785 C 515.658 839.461, 516.561 839.177, 520.750 830.980 C 522.762 827.043, 523 825.116, 523 812.788 L 523 799 768 799 L 1013 799 1013 813.288 C 1013 826.134, 1013.227 828.021, 1015.250 831.980 C 1019.207 839.726, 1022.152 840.563, 1044 840.152 C 1072.501 839.615, 1073.330 838.909, 1073.819 814.750 L 1074.138 799 1085.819 798.978 C 1105.818 798.940, 1112 793.498, 1112 775.930 C 1112 769.191, 1112.014 769.156, 1115.059 768.487 C 1123.096 766.722, 1127 758.553, 1127 743.500 C 1127 731.253, 1125.718 726.881, 1120.831 722.466 L 1117 719.005 1117 475.503 L 1117 232 1120.774 228.226 C 1125.297 223.703, 1126.987 218.620, 1127.038 209.384 C 1127.076 202.539, 1127.098 202.485, 1130.929 199.837 C 1136.848 195.746, 1138.230 190.385, 1137.826 173.083 C 1137.459 157.373, 1136.460 154.750, 1129.945 152.397 C 1127.223 151.413, 1051.189 151.136, 767.462 151.076 L 408.424 151 404.017 153.250 M 421 178 L 421 181 768 181 L 1115 181 1115 178 L 1115 175 768 175 L 421 175 421 178 M 432 207 L 432 210 767.500 210 C 952.025 210, 1103.006 209.662, 1103.014 209.250 C 1103.021 208.838, 1103.299 207.488, 1103.630 206.250 L 1104.233 204 768.117 204 L 432 204 432 207 M 441 276 L 441 319 459.250 319.002 C 480.936 319.003, 483.554 319.762, 485.969 326.750 C 487.261 330.488, 487.261 331.511, 485.969 335.240 C 483.706 341.772, 481.866 342.265, 459.841 342.244 L 441 342.226 441 345.113 C 441 347.948, 441.100 348, 446.532 348 C 449.575 348, 453.625 348.652, 455.532 349.449 C 458.565 350.716, 459.439 350.714, 462.505 349.434 C 467.855 347.198, 498.983 348.770, 501.915 351.423 C 504.629 353.879, 505.537 359.264, 504.066 364.174 C 502.170 370.503, 499.268 371.237, 478.628 370.602 C 469.208 370.312, 460.375 370.045, 459 370.007 C 457.625 369.970, 453.012 370.227, 448.750 370.579 L 441 371.219 441 544.609 L 441 718 444.500 718 L 448 718 448 655.155 C 448 594.869, 447.923 592.241, 446.116 590.605 C 441.615 586.532, 440.752 572.122, 444.550 564.443 C 446.480 560.541, 446.480 560.459, 444.564 556.534 C 442.084 551.451, 441.410 543.215, 442.922 536.459 C 448.339 512.253, 485.223 510.366, 494.054 533.843 C 496.184 539.507, 496.419 548.886, 494.540 553.250 C 493.839 554.877, 494.956 555, 510.393 555 L 527 555 527 507.052 L 527 459.105 504.034 458.802 C 476.663 458.442, 477.500 458.783, 477.500 448 C 477.500 438.930, 478.593 437.815, 488.219 437.066 C 495.257 436.519, 495.511 436.408, 495.816 433.750 L 496.133 431 482.034 431 C 461.673 431, 458.447 428.955, 460.346 417.254 C 461.621 409.398, 461.152 409.500, 496.029 409.500 L 527 409.500 527 369.432 C 527 324.539, 527.310 321.983, 533.602 315.019 C 540.241 307.671, 535.271 308, 639.497 308 C 743.458 308, 739.495 307.750, 746.138 314.720 C 753.374 322.310, 753 315.385, 753 441.678 L 753 555 783.401 555 L 813.801 555 814.172 546.250 C 814.595 536.262, 816.096 532.424, 820.717 529.517 L 823.923 527.500 823.961 427.761 C 824.004 316.899, 823.696 322.102, 830.648 314.845 C 837.273 307.931, 836.448 308, 912.359 308 C 988.856 308, 986.824 307.824, 994.087 315.087 C 1001.289 322.289, 1000.999 317.536, 1001.006 428.432 L 1001.013 527.500 1004.048 529.227 C 1008.364 531.684, 1010 536.422, 1010 546.468 L 1010 555 1025.607 555 C 1040.062 555, 1041.164 554.871, 1040.536 553.250 C 1035.399 539.992, 1043.573 522.950, 1057.088 518.740 C 1080.988 511.296, 1099.802 531.745, 1090.912 555.505 C 1089.278 559.873, 1089.082 561.394, 1090.009 562.510 C 1090.660 563.295, 1091.794 565.863, 1092.529 568.218 C 1093.678 571.898, 1093.876 563.763, 1093.933 510.356 L 1094 448.212 1085.750 447.580 C 1081.213 447.233, 1076.150 447.037, 1074.500 447.146 C 1072.850 447.254, 1061.500 447.378, 1049.277 447.422 C 1022.497 447.516, 1022.500 447.517, 1022.500 436.500 C 1022.500 425.483, 1022.497 425.484, 1049.277 425.578 C 1061.500 425.622, 1072.850 425.746, 1074.500 425.854 C 1076.150 425.963, 1081.213 425.767, 1085.750 425.420 C 1093.997 424.788, 1094 424.787, 1094 421.950 L 1094 419.112 1073.026 418.806 C 1052.733 418.510, 1051.977 418.426, 1049.776 416.222 C 1046.204 412.647, 1046.484 403.062, 1050.270 399.273 L 1053.041 396.500 1073.520 396.193 L 1094 395.886 1094 314.443 L 1094 233 767.500 233 L 441 233 441 276 M 551.667 331.667 C 551.300 332.033, 551 334.578, 551 337.322 C 551 341.982, 551.115 342.211, 552.750 340.797 C 557.007 337.115, 559.668 337, 640.500 337 C 721.685 337, 723.939 337.100, 728.387 340.892 C 730.209 342.446, 730.248 342.331, 729.539 337.500 C 729.136 334.750, 728.598 332.163, 728.344 331.750 C 727.773 330.824, 552.592 330.741, 551.667 331.667 M 848.750 332.080 C 844.928 334.306, 846.795 336.114, 850.735 334.002 C 856.437 330.946, 966.024 330.920, 972.750 333.973 C 976.850 335.834, 977 335.837, 977 334.058 C 977 333.044, 976.288 331.941, 975.418 331.607 C 972.586 330.520, 850.647 330.975, 848.750 332.080 M 867 380 L 867 405 912 405 L 957 405 957 380 L 957 355 912 355 L 867 355 867 380 M 588 467 L 588 555 604 555 L 620 555 620 467 L 620 379 604 379 L 588 379 588 467 M 661 467 L 661 555 676.814 555 L 692.628 555 692.896 467 L 693.165 379 677.083 379 L 661 379 661 467 M 524.500 430 C 523.400 430.473, 521.038 430.891, 519.250 430.930 C 516.321 430.993, 516 431.296, 516 434 C 516 436.970, 516.056 437, 521.500 437 L 527 437 527 433 C 527 430.800, 526.888 429.032, 526.750 429.070 C 526.612 429.109, 525.600 429.527, 524.500 430 M 867 477.500 L 867 526 912 526 L 957 526 957 477.500 L 957 429 912 429 L 867 429 867 477.500 M 466.669 542.814 C 465.403 544.213, 465.299 544.899, 466.214 545.814 C 469.173 548.773, 473.630 545.669, 470.989 542.487 C 469.388 540.557, 468.661 540.612, 466.669 542.814 M 1063.984 542.519 C 1062.952 543.763, 1063.054 544.403, 1064.549 546.054 C 1066.368 548.064, 1066.380 548.064, 1068.355 546.090 C 1070.005 544.439, 1070.120 543.850, 1069.045 542.555 C 1067.413 540.587, 1065.598 540.575, 1063.984 542.519 M 837 552 L 837 555 912 555 L 987 555 987 552 L 987 549 912 549 L 837 549 837 552 M 1092.507 583.967 C 1092.149 585.599, 1090.763 588.544, 1089.428 590.511 L 1087 594.089 1087 656.044 L 1087 718 1090.500 718 L 1094 718 1094 649.500 C 1094 611.825, 1093.811 581, 1093.579 581 C 1093.348 581, 1092.866 582.335, 1092.507 583.967 M 490 657.500 L 490 718 498.500 718 L 507 718 507 657.500 L 507 597 498.500 597 L 490 597 490 657.500 M 531 657.500 L 531 718 539.500 718 L 548 718 548 657.500 L 548 597 539.500 597 L 531 597 531 657.500 M 572 657.500 L 572 718 580.500 718 L 589 718 589 657.500 L 589 597 580.500 597 L 572 597 572 657.500 M 613 657.500 L 613 718 621.500 718 L 630 718 630.044 710.750 C 630.068 706.763, 630.181 679.537, 630.294 650.250 L 630.500 597 621.750 597 L 613 597 613 657.500 M 654 657.500 L 654 718 662.500 718 L 671 718 671 657.500 L 671 597 662.500 597 L 654 597 654 657.500 M 695 657.539 L 695 718.078 703.750 717.789 L 712.500 717.500 712.758 657.250 L 713.016 597 704.008 597 L 695 597 695 657.539 M 736 657.500 L 736 718 744.500 718 L 753 718 753 657.500 L 753 597 744.500 597 L 736 597 736 657.500 M 777 657.500 L 777 718 786 718 L 795 718 795 657.500 L 795 597 786 597 L 777 597 777 657.500 M 818 657.500 L 818 718 827 718 L 836 718 836 657.500 L 836 597 827 597 L 818 597 818 657.500 M 859 657.500 L 859 718 868 718 L 877 718 877 657.500 L 877 597 868 597 L 859 597 859 657.500 M 900.687 599.250 C 900.396 600.487, 900.101 627.712, 900.033 659.750 L 899.908 718 909.204 718 L 918.500 717.999 918.827 657.500 L 919.153 597 910.185 597 C 901.708 597, 901.188 597.123, 900.687 599.250 M 942 657.500 L 942 718 950.500 718 L 959 718 959 657.500 L 959 597 950.500 597 L 942 597 942 657.500 M 983 657.500 L 983 718 992 718 L 1001 718 1001 657.500 L 1001 597 992 597 L 983 597 983 657.500 M 1024 657.500 L 1024 718 1034 718 L 1044 718 1044 657.500 L 1044 597 1034 597 L 1024 597 1024 657.500 M 437.250 741.802 C 432.601 742.070, 432 742.356, 432 744.302 L 432 746.500 764.250 746.265 C 946.987 746.136, 1097.963 746.023, 1099.750 746.015 C 1102.328 746.003, 1103 745.587, 1103 744 C 1103 742.359, 1102.326 741.996, 1099.250 741.978 C 1060.389 741.753, 440.961 741.589, 437.250 741.802 M 447 773 L 447 776 768 776 L 1089 776 1089 773 L 1089 770 768 770 L 447 770 447 773 M 484 808 L 484 817 491.500 817 L 499 817 499 808 L 499 799 491.500 799 L 484 799 484 808 M 1036 808 L 1036 817 1043.500 817 L 1051 817 1051 808 L 1051 799 1043.500 799 L 1036 799 1036 808" stroke="none" fill="#1D5F3A" fill-rule="evenodd"/>
</svg>