<svg xmlns="http://www.w3.org/2000/svg" width="1000" height="402" viewBox="28.1 207.0 1480.8 595.3">
	<path d="M 978.045 245.082 C 971.219 246.436, 963.394 250.701, 958.199 255.900 C 953.568 260.534, 951.733 263.841, 923.370 318.673 C 918.939 327.238, 917.054 329.948, 915.290 330.285 C 914.024 330.527, 886.162 330.803, 853.374 330.899 C 806.763 331.036, 793.077 331.360, 790.630 332.385 C 775.836 338.585, 771.081 359.336, 781.748 371.143 C 789.445 379.662, 788.474 379.500, 831.779 379.500 L 870.058 379.500 871.073 383.500 C 871.632 385.700, 873.394 392.225, 874.990 398 C 876.585 403.775, 880.183 417.500, 882.985 428.500 C 885.787 439.500, 890.064 455.925, 892.490 465 C 896.306 479.276, 907.247 521.331, 931.123 613.500 C 934.399 626.150, 937.318 637.288, 937.608 638.250 C 938.108 639.911, 931.099 640, 800.173 640 C 642.836 640, 654.361 639.375, 644.256 648.460 C 635.298 656.514, 633.500 662.204, 633.500 682.500 C 633.500 699.137, 633.562 699.634, 636.392 705.762 C 639.588 712.682, 644.710 717.914, 651.537 721.230 C 655.728 723.266, 656 723.646, 656.006 727.449 C 656.014 733.563, 657.766 738.664, 661.203 742.578 C 666.738 748.882, 667.343 749, 694.255 749 L 718.608 749 723.126 746.135 C 728.431 742.771, 731.161 737.795, 731.795 730.336 C 732.154 726.108, 732.620 725.069, 734.367 724.600 C 735.540 724.285, 819.807 724.021, 921.626 724.014 L 1106.752 724 1107.191 729.284 C 1107.756 736.103, 1110.529 741.598, 1115.343 745.436 L 1119.186 748.500 1145.500 748.500 L 1171.814 748.500 1175.657 745.394 C 1180.930 741.132, 1183.096 737.029, 1183.723 730.120 L 1184.255 724.250 1190.878 723.773 C 1201.565 723.003, 1211.617 716.500, 1216.327 707.310 C 1221.133 697.931, 1221.452 668.852, 1216.857 658.933 C 1213.794 652.321, 1208.371 646.764, 1201.500 643.198 C 1196.960 640.841, 1195.193 640.565, 1182.282 640.191 C 1170.197 639.841, 1167.992 639.533, 1167.579 638.140 C 1167.312 637.238, 1164.096 624.800, 1160.432 610.500 C 1156.768 596.200, 1147.738 561.325, 1140.366 533 C 1132.993 504.675, 1123.605 468.450, 1119.503 452.500 C 1115.402 436.550, 1109.561 413.943, 1106.523 402.263 C 1103.485 390.583, 1101 380.571, 1101 380.013 C 1101 379.455, 1103.404 379, 1106.351 379 C 1120.354 379, 1129.929 369.363, 1129.978 355.218 C 1130.029 340.526, 1120.561 331.070, 1105.750 331.022 C 1102.037 331.010, 1099 330.611, 1099 330.135 C 1099 329.659, 1103.324 320.097, 1108.610 308.885 C 1122.497 279.428, 1123.669 274.982, 1120.425 264.059 C 1118.298 256.899, 1111.218 249.736, 1104.210 247.655 C 1100.145 246.448, 1088.976 246.042, 1046.337 245.553 C 1017.277 245.219, 991.025 244.778, 988 244.573 C 984.975 244.367, 980.495 244.596, 978.045 245.082 M 975.927 261.888 C 969.959 265.192, 965.679 270.957, 957.220 287.083 C 935.986 327.564, 931.247 336.791, 922.852 354 C 912.519 375.180, 912.017 376.990, 914.757 383.183 C 918.360 391.328, 915.444 391, 984.244 391 L 1044.685 391 1049.014 388.711 C 1051.395 387.452, 1054.587 384.865, 1056.107 382.961 C 1058.164 380.386, 1090 314.172, 1090 312.469 C 1090 312.308, 1092.738 306.399, 1096.085 299.338 C 1108.018 274.160, 1108.394 272.799, 1104.974 267.190 C 1101.220 261.032, 1101.933 261.103, 1037.838 260.478 C 981.024 259.925, 979.407 259.962, 975.927 261.888 M 984.309 276.449 C 980.202 278.257, 978.004 281.837, 965.949 306.359 C 955.031 328.567, 954.126 332.232, 958.009 338.514 C 961.297 343.834, 962.118 343.929, 1007.566 344.225 L 1049.633 344.500 1053.141 341.833 C 1056.076 339.602, 1058.325 335.437, 1066.915 316.333 C 1076.629 294.727, 1077.157 293.209, 1076.744 288.082 C 1076.014 279.025, 1073.260 277.356, 1057.854 276.636 C 1025.516 275.123, 987.538 275.027, 984.309 276.449 M 991.184 291.309 C 990.655 291.964, 986.156 300.641, 981.185 310.591 L 972.148 328.683 998.324 329.339 C 1012.721 329.700, 1028.817 329.997, 1034.092 329.998 L 1043.685 330 1047.301 322.250 C 1059.690 295.697, 1061.047 292.043, 1058.698 291.568 C 1052.888 290.394, 992.112 290.161, 991.184 291.309 M 797.079 346.167 C 792.294 347.937, 789.563 355.447, 792.030 360.055 C 794.641 364.934, 795.410 365, 849.818 365 L 900.734 365 905.209 355.750 C 909.664 346.539, 909.673 346.497, 907.411 345.855 C 904.421 345.006, 799.414 345.303, 797.079 346.167 M 1090.071 348.250 C 1089.587 349.488, 1087.798 353.579, 1086.096 357.343 C 1084.393 361.107, 1083 364.369, 1083 364.593 C 1083 365.462, 1107.013 364.946, 1109.434 364.025 C 1115.817 361.598, 1117.217 353.980, 1112.242 348.750 C 1108.538 344.857, 1091.547 344.473, 1090.071 348.250 M 946.174 361.314 C 943.477 364.186, 943.251 370.015, 945.750 372.267 C 947.271 373.638, 952.412 373.866, 985 374.010 C 1005.625 374.100, 1023.310 374.135, 1024.301 374.087 C 1029.597 373.831, 1029.579 361.931, 1024.279 359.916 C 1022.954 359.412, 1005.328 359, 985.109 359 L 948.349 359 946.174 361.314 M 889.116 391.250 C 897.391 422.720, 910.535 473.005, 913.490 484.500 C 919.908 509.462, 931.210 552.803, 941.652 592.500 C 947.439 614.500, 952.602 634.188, 953.125 636.250 L 954.077 640 964.539 640 C 970.292 640, 975 639.716, 975 639.370 C 975 638.371, 959.806 579.598, 950.732 545.500 C 948.244 536.150, 941.183 509.375, 935.040 486 C 928.897 462.625, 922.587 438.775, 921.017 433 C 919.447 427.225, 917.113 418.273, 915.831 413.106 C 913.674 404.412, 913.222 403.528, 909.761 401.231 C 904.983 398.059, 900.513 391.309, 898.992 384.967 L 897.801 380 891.979 380 L 886.158 380 889.116 391.250 M 1073.612 383.750 C 1072.645 385.813, 1070.715 389.166, 1069.323 391.203 L 1066.793 394.907 1078.348 438.703 C 1093.678 496.803, 1099.494 519.085, 1107.923 552 C 1111.797 567.125, 1118.461 593, 1122.733 609.500 L 1130.500 639.500 1141.250 639.784 C 1147.162 639.940, 1152 639.812, 1152 639.500 C 1152 639.187, 1147.006 619.710, 1140.902 596.216 C 1134.798 572.722, 1126.307 540, 1122.032 523.500 C 1117.757 507, 1110.855 480.450, 1106.695 464.500 C 1102.534 448.550, 1096.369 424.700, 1092.996 411.500 C 1089.623 398.300, 1086.427 385.813, 1085.893 383.750 C 1084.942 380.076, 1084.827 380, 1080.147 380 C 1075.607 380, 1075.283 380.186, 1073.612 383.750 M 1049.500 405.004 C 1048.400 405.474, 1021.032 405.891, 988.683 405.930 C 933.160 405.996, 929.893 406.098, 930.368 407.750 C 930.644 408.712, 934.747 424.350, 939.487 442.500 C 944.226 460.650, 949.629 481.125, 951.494 488 C 953.358 494.875, 956.523 506.800, 958.528 514.500 C 960.532 522.200, 964.192 536.150, 966.661 545.500 C 969.130 554.850, 975.180 578.250, 980.104 597.500 C 985.029 616.750, 989.513 634.188, 990.068 636.250 L 991.077 640 1052.539 640 C 1102.813 640, 1114 639.759, 1114 638.679 C 1114 637.952, 1110.679 624.564, 1106.619 608.929 C 1102.560 593.293, 1095.812 567.225, 1091.624 551 C 1087.436 534.775, 1080.813 509.125, 1076.906 494 C 1061.505 434.366, 1053.397 404.636, 1052.470 404.398 C 1051.937 404.261, 1050.600 404.533, 1049.500 405.004 M 368.627 602.468 C 362.902 604.509, 357.822 609.066, 355 614.692 L 352.500 619.675 345.390 620.250 C 333.428 621.217, 325.400 626.522, 320.804 636.500 C 317.348 644.001, 317.181 723.650, 320.606 731.051 C 325.723 742.111, 334.718 748, 346.495 748 L 353.598 748 354.833 751.414 C 356.269 755.386, 362.747 761.579, 367.578 763.597 C 373.081 765.896, 392.379 765.464, 398 762.916 C 410.001 757.475, 412.403 751.779, 412.826 727.750 L 413.156 709 468.984 709 L 524.813 709 525.156 727.750 C 525.548 749.112, 526.637 752.965, 534.080 759.337 C 539.372 763.866, 543.840 765, 556.398 765 C 571.240 765, 578.010 761.642, 583.108 751.750 C 584.973 748.132, 585.227 748, 590.339 748 C 602.270 748, 611.671 742.273, 616.348 732.156 C 619.720 724.861, 619.705 641.751, 616.330 635.447 C 611.388 626.216, 603.089 621.026, 592.003 620.232 L 585.474 619.765 582.987 614.679 C 578.183 604.855, 570.461 601.015, 555.493 601.006 C 545.085 600.999, 541.170 601.917, 535.833 605.616 C 527.346 611.497, 525.028 619.236, 525.012 641.750 L 525 658 469.094 658 L 413.187 658 412.805 639.250 C 412.384 618.596, 411.855 616.321, 405.882 609.519 C 400.334 603.200, 394.295 601.013, 382.500 601.054 C 376.621 601.074, 370.904 601.657, 368.627 602.468 M 372.225 618.004 C 370.424 619.102, 368.511 621.155, 367.975 622.566 C 367.382 624.126, 367 648.122, 367 683.843 C 367 747.001, 366.822 744.674, 371.954 748.718 C 374.683 750.869, 390.263 750.368, 393.230 748.034 C 398.078 744.221, 398.080 744.181, 397.781 681.968 C 397.469 617.005, 397.738 619.499, 390.785 617.075 C 385.578 615.260, 375.935 615.742, 372.225 618.004 M 545.881 617.451 C 539.963 620.785, 540 620.373, 540 682.933 C 540 753.255, 539.234 750, 555.788 750 C 572.076 750, 571 754.769, 571 682.565 L 571 623.032 568.082 619.766 C 565.278 616.628, 564.838 616.490, 556.832 616.238 C 550.931 616.053, 547.736 616.407, 545.881 617.451 M 341.396 636.429 C 339.689 637.172, 337.214 639.292, 335.896 641.140 L 333.500 644.500 333.500 684.044 C 333.500 720.474, 333.642 723.805, 335.304 726.342 C 337.942 730.368, 342.850 732.992, 347.750 732.996 L 352 733 352 684 L 352 635 348.250 635.039 C 346.188 635.061, 343.103 635.686, 341.396 636.429 M 586 684 L 586 733 589.532 733 C 594.767 733, 599.695 730.548, 601.974 726.810 C 605.082 721.714, 605.109 647.331, 602.005 642.241 C 599.392 637.955, 594.403 635.008, 589.750 635.004 L 586 635 586 684 M 660.637 656.465 C 656.902 657.796, 651 662.526, 651 664.187 C 651 664.634, 749.712 665, 870.359 665 L 1089.718 665 1094.359 660.915 C 1096.912 658.668, 1099 656.418, 1099 655.915 C 1099 654.274, 665.256 654.818, 660.637 656.465 M 1123.736 656.604 C 1119.928 657.775, 1117.319 659.788, 1110.736 666.635 C 1105.491 672.092, 1100.684 676.070, 1097.500 677.591 L 1092.500 679.980 870.250 679.990 L 648 680 648 687.540 C 648 698.238, 652.322 705.516, 660.366 708.365 C 661.392 708.729, 781.140 709.062, 926.472 709.107 C 1188.262 709.187, 1190.748 709.169, 1194.606 707.200 C 1202.875 702.980, 1204.894 698.105, 1204.956 682.218 C 1205.017 666.586, 1201.032 658.493, 1192.044 655.996 C 1186.118 654.349, 1129.428 654.854, 1123.736 656.604 M 413 683.500 L 413 694 469 694 L 525 694 525 683.500 L 525 673 469 673 L 413 673 413 683.500 M 671 727.345 C 671 733.618, 672.314 734, 693.894 734 C 715.885 734, 717 733.709, 717 727.965 L 717 724 694 724 L 671 724 671 727.345 M 1122 727.345 C 1122 733.653, 1123.235 734, 1145.674 734 C 1167.979 734, 1169 733.701, 1169 727.171 L 1169 724 1145.500 724 L 1122 724 1122 727.345" stroke="none" fill="#1D5F3A" fill-rule="evenodd"/>
</svg>