<svg xmlns="http://www.w3.org/2000/svg" width="1000" height="405" viewBox="-188.0 120.3 1910.0 773.5">
	<path d="M 612.606 169.092 C 590.721 172.331, 572.739 187.127, 565.293 208.023 C 562.672 215.378, 562.617 216.065, 561.902 250 C 560.769 303.728, 560.870 775.143, 562.017 787.176 C 564.459 812.805, 577.893 831.524, 600.641 840.994 C 612.951 846.119, 612.736 846.113, 775 845.796 L 926.500 845.500 934.096 842.809 C 950.045 837.158, 959.346 829.497, 966.253 816.321 C 974.219 801.127, 973.500 831.776, 973.500 507.500 L 973.500 218.500 971.111 211.500 C 963.771 189.992, 951.858 178.071, 930.500 170.863 L 923.500 168.500 771 168.360 C 687.125 168.282, 615.848 168.612, 612.606 169.092 M 625 184.041 C 610.409 184.746, 606.563 185.687, 598.542 190.517 C 588.234 196.724, 581.617 205.693, 578.492 217.693 C 577.186 222.704, 577 258.743, 577 505.980 C 577 786.845, 577.012 788.584, 579.030 795.865 C 583.732 812.833, 598.221 826.413, 615.435 829.986 C 618.881 830.702, 669.073 830.952, 772.500 830.769 L 924.500 830.500 930.500 828.103 C 944.596 822.470, 952.055 814.397, 956.463 800 C 958.026 794.897, 958.143 773.937, 958.087 509.454 C 958.046 320.670, 957.682 222.597, 957.009 219.045 C 954.051 203.449, 942.898 191.338, 926.500 185.916 L 919.500 183.601 778.500 183.519 C 700.950 183.474, 631.875 183.709, 625 184.041 M 722.189 212.039 C 719.016 214.995, 719.231 220.250, 722.635 222.927 C 725.205 224.949, 726.296 225, 767.088 225 C 796.831 225, 809.646 224.663, 811.468 223.833 C 814.493 222.454, 816.208 217.487, 814.690 214.500 C 812.430 210.054, 812.548 210.065, 767.439 210.032 C 725.462 210.001, 724.322 210.051, 722.189 212.039 M 762.685 379.017 C 757.730 380.504, 750.123 387.090, 712.461 422.500 C 620.503 508.959, 629.990 499.354, 630.022 505.973 C 630.064 514.563, 634.023 517, 647.934 517 L 658 517 658.022 570.750 C 658.052 644.479, 654.052 638.543, 703.638 638.441 C 738.159 638.370, 739.495 638.157, 743.241 632.132 C 745.487 628.521, 745.499 628.297, 745.248 593.837 C 745.110 574.772, 745.270 558.459, 745.605 557.587 C 746.135 556.205, 749.038 556, 768.107 556 L 790 556 790 590.980 C 790 630.228, 790.200 631.571, 796.693 636 L 800.358 638.500 833.429 638.443 C 868.795 638.382, 869.739 638.261, 874.347 633.169 C 878.763 628.289, 878.910 626.290, 878.956 570.250 L 879 517 890.032 517 C 903.203 517, 907.221 515.701, 909.622 510.667 C 912.939 503.710, 911.832 501.998, 890.971 481.834 L 872 463.497 872 432.216 C 872 388.814, 872.549 389.744, 847.171 390.215 L 831.841 390.500 828.421 394.235 C 825.024 397.944, 825 398.039, 825 407.553 L 825 417.136 822.250 415.174 C 820.737 414.094, 810.394 405.812, 799.264 396.768 C 776.148 377.985, 772.317 376.126, 762.685 379.017 M 759.358 399.283 C 748.245 408.957, 720.464 434.666, 691 462.542 C 686.325 466.965, 679.350 473.514, 675.500 477.096 C 671.650 480.677, 664.198 487.702, 658.941 492.707 L 649.382 501.806 657.123 502.157 C 666.069 502.563, 669.753 504.569, 671.702 510.094 C 672.580 512.584, 672.908 528.139, 672.919 567.917 C 672.927 597.846, 673.316 622.716, 673.783 623.183 C 674.250 623.650, 687.203 623.913, 702.566 623.766 L 730.500 623.500 731 587.500 C 731.537 548.842, 731.472 549.305, 737.054 544.608 L 740.153 542 767.327 542.004 C 807.201 542.009, 804.830 539.112, 804.365 587.257 C 804.188 605.541, 804.289 621.288, 804.589 622.250 C 805.092 623.862, 807.354 624, 833.367 624 C 853.993 624, 861.923 623.677, 862.800 622.800 C 863.704 621.896, 864.001 608.029, 864.004 566.550 C 864.007 513.098, 864.066 511.404, 866.026 508.190 C 868.799 503.641, 873.324 502.005, 883.218 501.973 L 891.500 501.947 876.812 487.723 C 860.949 472.362, 858.010 468.476, 858.004 462.857 C 858.002 460.853, 857.438 458.982, 856.750 458.699 C 856.063 458.416, 851.225 454.727, 846 450.500 C 840.775 446.273, 834.025 441.404, 831 439.678 C 827.975 437.953, 817.625 430.195, 808 422.439 C 777.994 398.259, 770.961 392.999, 768.686 393.033 C 767.471 393.052, 763.327 395.829, 759.358 399.283 M 839.703 404.631 C 839.316 405.017, 839 411.983, 839 420.110 C 839 433.754, 839.153 434.994, 841 436.288 C 842.101 437.058, 845.988 440.487, 849.639 443.906 C 853.471 447.496, 856.649 449.751, 857.158 449.242 C 857.643 448.757, 857.919 438.491, 857.770 426.430 L 857.500 404.500 848.953 404.214 C 844.252 404.057, 840.089 404.244, 839.703 404.631 M 718.315 790.993 C 713.677 792.892, 712.358 800.737, 716.223 803.443 C 718.162 804.801, 724.771 805, 768.034 805 C 816.556 805, 817.670 804.956, 819.811 802.961 C 822.526 800.432, 822.647 796.021, 820.089 792.861 L 818.178 790.500 769.339 790.299 C 742.377 790.188, 719.521 790.499, 718.315 790.993" stroke="none" fill="#1D5F3A" fill-rule="evenodd"/>
</svg>