<svg xmlns="http://www.w3.org/2000/svg" width="1000" height="430" viewBox="-157.5 102.3 1910.0 821.3">
	<path d="M 487.500 150.930 C 478.114 153.201, 469.476 160.703, 465.818 169.761 L 463.500 175.500 463.228 482.500 C 463.038 696.593, 463.279 791.616, 464.024 796.492 C 465.295 804.805, 468.304 810.337, 474.540 815.826 C 483.981 824.137, 471.022 823.467, 628.062 823.767 L 767.625 824.034 770.441 836.767 C 775.380 859.095, 779.658 866.277, 791.395 871.952 C 801.332 876.757, 806.896 876.223, 837.500 867.535 C 868.321 858.784, 894.891 851.277, 923 843.376 C 933.725 840.362, 946.325 836.816, 951 835.497 C 955.675 834.178, 973.225 829.233, 990 824.509 C 1006.775 819.785, 1029.725 813.261, 1041 810.013 C 1052.275 806.764, 1072.655 800.932, 1086.289 797.053 C 1099.923 793.175, 1112.771 789.137, 1114.840 788.082 C 1124.736 783.033, 1132.024 771.392, 1132.733 759.500 C 1133.214 751.455, 1128.514 730.945, 1108.563 654 C 1104.926 639.975, 1099.511 619.275, 1096.529 608 C 1093.547 596.725, 1089.029 579.625, 1086.489 570 C 1081.051 549.396, 1078.778 544.008, 1073.058 538.151 C 1061.594 526.414, 1050.503 525.616, 1020.500 534.373 C 1009.500 537.583, 996.788 541.258, 992.250 542.538 L 984 544.866 983.994 452.183 C 983.982 275.357, 983.680 249.195, 981.585 243.500 C 979.971 239.113, 974.338 233.077, 935.621 194.250 L 891.496 150 690.998 150.102 C 580.724 150.159, 489.150 150.531, 487.500 150.930 M 489.914 164.954 C 485.697 166.234, 482.182 168.971, 479.768 172.853 L 477.500 176.500 477.249 483.992 C 476.975 820.416, 476.599 798.381, 482.713 804.214 C 484.246 805.676, 486.767 807.351, 488.315 807.936 C 490.254 808.669, 533.554 809, 627.411 809 L 763.692 809 759.462 791.250 C 755.519 774.707, 747.185 739.013, 741.309 713.500 C 739.915 707.450, 736.072 691.302, 732.769 677.616 C 725.577 647.817, 725.289 641.119, 730.743 630.500 C 737.134 618.058, 742.909 614.704, 772 606.545 C 783.275 603.382, 799.925 598.623, 809 595.970 C 818.075 593.316, 847.100 584.828, 873.500 577.108 C 899.900 569.387, 932.075 560.015, 945 556.280 L 968.500 549.490 968.500 399.495 L 968.500 249.500 932.500 249 L 896.500 248.500 892 245.848 C 887.407 243.141, 883.919 239.202, 881.743 234.264 C 880.902 232.356, 880.366 221.131, 880.012 198 L 879.500 164.500 686 164.335 C 579.575 164.244, 491.336 164.523, 489.914 164.954 M 894 199.652 C 894 214.622, 894.431 228.003, 894.957 229.387 C 896.961 234.658, 899.482 235.057, 928.969 234.766 L 955.975 234.500 924.987 203.467 L 894 172.434 894 199.652 M 560 220.583 C 539.994 225.861, 525.615 241.423, 521.353 262.409 C 516.343 287.083, 535.273 314.762, 560.781 320.058 C 584.521 324.988, 607.733 313.360, 618.791 291 C 622.498 283.504, 622.500 283.494, 622.500 270.425 L 622.500 257.349 618.311 248.896 C 607.117 226.305, 582.893 214.543, 560 220.583 M 561.324 234.381 C 528.575 245.079, 525.311 289.327, 556.218 303.599 C 569.549 309.755, 586.510 307.023, 597.425 296.962 C 611.911 283.610, 612.690 259.467, 599.109 244.735 C 590.266 235.141, 573.262 230.482, 561.324 234.381 M 655 266 C 652.122 268.878, 652.411 273.392, 655.635 275.927 C 659.790 279.196, 836.210 279.196, 840.365 275.927 C 843.397 273.542, 843.832 269.632, 841.443 266.223 L 839.887 264 748.443 264 C 658.333 264, 656.971 264.029, 655 266 M 523.635 369.073 C 519.987 371.942, 519.991 377.061, 523.644 379.935 L 526.289 382.015 723.233 381.757 L 920.177 381.500 922.088 379.139 C 924.846 375.734, 924.547 371.576, 921.365 369.073 L 918.730 367 722.500 367 L 526.270 367 523.635 369.073 M 523.189 439.039 C 520.428 441.611, 520.338 446.338, 523 449 C 526.157 452.157, 918.843 452.157, 922 449 C 923.989 447.011, 924.637 442.500, 923.235 440.400 C 920.971 437.010, 920.368 437, 721.754 437 C 525.509 437, 525.376 437.001, 523.189 439.039 M 523.184 509.304 C 520.458 512.206, 520.379 516.379, 523 519 C 524.981 520.981, 526.333 521, 668.277 521 C 827.047 521, 816 521.476, 816 514.634 C 816 512.846, 815.361 510.509, 814.581 509.441 C 813.189 507.537, 810.396 507.495, 669.264 507.240 L 525.367 506.980 523.184 509.304 M 1043.500 542.702 C 1040.362 543.440, 983.352 559.606, 964.500 565.103 C 928.709 575.541, 915.755 579.351, 864 594.665 C 841.670 601.272, 815.237 608.946, 785 617.600 C 772.625 621.141, 760.140 624.717, 757.254 625.546 C 748.829 627.967, 742.458 634.874, 740.567 643.638 C 739.967 646.418, 745.020 672.354, 746.438 673.771 C 746.811 674.145, 878.424 636.867, 920 624.611 C 945.046 617.228, 986.365 605.289, 1023 594.849 C 1044.175 588.815, 1064.504 582.997, 1068.175 581.919 L 1074.849 579.960 1072.370 570.730 C 1067.931 554.203, 1067.140 552.383, 1062.550 548.153 C 1056.920 542.963, 1050.365 541.088, 1043.500 542.702 M 537.640 579.632 C 531.473 581.526, 523.624 589.091, 522.089 594.619 C 521.364 597.228, 521.009 622.313, 521.006 671.136 L 521 743.772 523.793 749.118 C 527.230 755.697, 533.283 760.500, 539.707 761.745 C 542.433 762.274, 576.409 762.617, 618.500 762.542 C 688.478 762.417, 692.690 762.310, 696 760.557 C 702.443 757.145, 705.883 753.875, 708.451 748.722 L 711 743.607 710.994 671.054 C 710.991 625.468, 710.615 597.153, 709.983 594.877 C 708.389 589.141, 701.818 582.450, 695.430 580.060 C 690.048 578.046, 688.278 578.002, 616.212 578.070 C 553.830 578.129, 541.753 578.369, 537.640 579.632 M 548.773 592.934 C 538.370 593.609, 536.146 595.171, 534.912 602.675 C 533.926 608.678, 533.791 622.708, 534.642 630.853 L 535.285 637 616.142 637 L 697 637 697 618.135 C 697 596.772, 696.450 595.006, 689.196 593.053 C 685.293 592.003, 564.712 591.900, 548.773 592.934 M 1055.500 599.982 C 1008.149 613.734, 987.964 619.581, 963.500 626.631 C 949.200 630.752, 931.650 635.868, 924.500 637.999 C 906.761 643.286, 877.015 651.883, 850 659.531 C 796.600 674.649, 750.785 687.882, 750.355 688.312 C 750.100 688.567, 750.784 692.539, 751.874 697.138 C 752.965 701.737, 754.770 709.775, 755.885 715 C 757 720.225, 761.502 739.575, 765.891 758 C 789.210 855.898, 788.467 853.348, 795.004 858.003 C 801.385 862.546, 804.501 862.100, 843.539 851.046 C 863.317 845.445, 887.600 838.600, 897.500 835.833 C 918.396 829.994, 946.390 822.075, 1022 800.616 C 1051.975 792.109, 1083.250 783.271, 1091.500 780.976 C 1108.671 776.200, 1112.062 774.457, 1115.457 768.663 C 1121.129 758.983, 1121.371 760.268, 1093.199 650.500 C 1079.223 596.044, 1078.634 593.994, 1077 594.088 C 1076.175 594.135, 1066.500 596.787, 1055.500 599.982 M 534.581 653.750 C 533.625 658.302, 534.147 736.204, 535.161 740.296 C 537.171 748.407, 532.826 747.992, 615.800 747.996 C 694.853 748, 693.269 748.102, 696.087 742.838 C 697.155 740.842, 697.662 703.485, 697.161 663.750 L 697 651 616.079 651 L 535.159 651 534.581 653.750 M 826.500 707.021 C 815.500 710.295, 804.701 713.477, 802.502 714.092 C 793.711 716.552, 786.171 727.841, 787.247 736.932 C 788.061 743.804, 795.970 772.216, 797.971 775.453 C 801.081 780.485, 806.941 784.039, 813.142 784.654 C 818.489 785.184, 855.644 775.818, 866.387 771.232 C 879.655 765.568, 881.747 755.716, 875.185 729.788 C 870.788 712.411, 868.955 708.627, 862.899 704.430 C 855.880 699.566, 850.188 699.971, 826.500 707.021 M 844.500 716.443 C 842.300 717.184, 832.851 719.928, 823.503 722.541 C 798.313 729.582, 799.153 728.327, 804.621 750.731 C 808.679 767.360, 810.587 771.012, 815.205 770.988 C 816.467 770.981, 827.625 768.141, 840 764.675 L 862.500 758.375 864.361 754.627 L 866.223 750.879 862.143 734.689 C 857.022 714.364, 855.462 712.751, 844.500 716.443 M 1068 731.989 C 1062.775 733.526, 1030.375 742.766, 996 752.522 C 961.625 762.277, 932.463 770.902, 931.196 771.688 C 928.195 773.549, 927.042 776.823, 928.210 780.172 C 930.190 785.851, 931.229 785.693, 976.028 772.885 C 998.838 766.364, 1032.125 756.950, 1050 751.966 C 1076.912 744.462, 1082.887 742.473, 1084.750 740.396 C 1087.658 737.155, 1087.597 734.506, 1084.545 731.455 C 1081.519 728.428, 1079.930 728.479, 1068 731.989" stroke="none" fill="#1D5F3A" fill-rule="evenodd"/>
</svg>