<svg xmlns="http://www.w3.org/2000/svg" width="1000" height="260" viewBox="-224.5 254.3 1910.0 496.6">
	<path d="M 886.500 303.400 C 882.895 304.989, 878.425 309.345, 876.157 313.479 C 873.741 317.883, 873.588 686.698, 876 691.463 C 879.348 698.075, 882.424 699, 901.071 699 C 917.842 699, 917.847 698.999, 921.059 696.297 C 927.275 691.066, 927 695.807, 927 594.032 L 927 501 1074 501 L 1221 501 1221 595.050 C 1221 698.871, 1220.636 692.978, 1227.299 697.040 C 1232.108 699.973, 1261.892 699.973, 1266.701 697.040 C 1273.510 692.889, 1273 708.584, 1273 503.115 C 1273 374.140, 1272.674 316.267, 1271.936 314.315 C 1270.424 310.313, 1266.156 306.051, 1261.500 303.896 C 1257.652 302.114, 1250.510 302.045, 1073.500 302.061 C 923.150 302.075, 888.951 302.320, 886.500 303.400 M 891.557 320.223 C 890.162 322.214, 890 341.176, 890 502.723 L 890 683 900.500 683 L 911 683 911 516.135 L 911 349.270 913.073 346.635 L 915.145 344 1073.462 344 C 1227.857 344, 1231.837 344.047, 1234.139 345.912 L 1236.500 347.824 1236.702 488.662 C 1236.814 566.123, 1236.926 641.538, 1236.952 656.250 L 1237 683 1247.500 683 L 1258 683 1258 502.500 C 1258 323.333, 1257.985 321.985, 1256 320 C 1254.015 318.015, 1252.667 318, 1073.557 318 L 893.113 318 891.557 320.223 M 927 368.475 L 927 376.951 1073.036 376.725 C 1201.594 376.527, 1219.186 376.320, 1220.021 375 C 1220.543 374.175, 1220.976 370.462, 1220.985 366.750 L 1221 360 1074 360 L 927 360 927 368.475 M 927 403.003 L 927 413.007 1073.750 412.753 L 1220.500 412.500 1220.786 402.750 L 1221.072 393 1074.036 393 L 927 393 927 403.003 M 421 426.651 C 388.418 432.016, 373.483 438.867, 307.838 478.561 C 273.069 499.586, 279.642 497.243, 239.402 502.960 C 203.752 508.026, 198.856 510.253, 192.331 524.374 L 189.500 530.500 189.500 575.500 L 189.500 620.500 192.135 626.120 C 200.052 643.003, 208.161 646.566, 251.170 652.060 L 276.841 655.338 277.502 658.864 C 280.042 672.401, 295.279 690.118, 310.683 697.445 C 324.558 704.045, 346.550 705.001, 360.500 699.610 C 378.299 692.731, 392.914 678.024, 398.932 660.937 L 400.847 655.500 536.994 655.500 L 673.142 655.500 675.075 661.227 C 690.793 707.784, 754.827 718.310, 785.397 679.361 C 790.136 673.322, 795.701 662.743, 796.660 657.949 L 797.250 655 811.076 655 C 831.729 655, 840.245 652.520, 848.733 644.032 C 855.235 637.530, 857.070 632.695, 858.146 619.236 C 861.602 575.988, 850.530 550.241, 822.222 535.691 C 809.935 529.375, 803.785 527.910, 756.470 520.023 C 733.387 516.176, 713.749 512.590, 712.831 512.056 C 711.145 511.074, 677.116 484.566, 651.697 464.433 C 621.045 440.155, 616.218 436.606, 609.500 433.402 C 594.387 426.194, 599.735 426.560, 507 426.391 C 461.075 426.308, 422.375 426.425, 421 426.651 M 927 439 L 927 449 1073.383 449 L 1219.767 449 1220.370 446.750 C 1220.701 445.512, 1220.979 441.012, 1220.986 436.750 L 1221 429 1074 429 L 927 429 927 439 M 418 443.016 C 401.118 445.999, 386.474 451.719, 366 463.330 C 356.516 468.708, 347.841 473.798, 303 500.291 C 281.591 512.941, 280.409 513.297, 242.778 518.419 C 216.818 521.952, 213.216 522.895, 209.399 527.155 C 204.460 532.668, 204.935 532.999, 217.781 533.006 C 231.684 533.012, 236.307 534.107, 240.613 538.413 C 244.816 542.616, 246.362 548.574, 245.721 558.096 C 244.624 574.405, 238.460 579, 217.678 579 L 205.291 579 204.645 592.250 C 202.995 626.061, 206.712 630.166, 243.929 635.639 C 256.343 637.464, 268.353 638.967, 270.618 638.979 L 274.737 639 275.256 631.750 C 278.452 587.139, 327.837 560.360, 368.346 581.272 C 387.744 591.286, 402 613.115, 402 632.802 L 402 639 451.500 639 L 501 639 501 588.024 L 501 537.049 425.073 536.774 C 350.163 536.504, 349.109 536.472, 346.385 534.438 C 342.159 531.283, 339.908 527.731, 339.311 523.280 C 338.283 515.616, 340.185 512.629, 356.898 495.649 C 382.503 469.634, 395.077 460.084, 411.557 454.133 C 427.145 448.504, 427.214 448.500, 507.500 448.500 C 598.965 448.500, 589.367 446.715, 616.099 468.698 C 622.920 474.307, 637.725 486.378, 649 495.523 C 686.693 526.096, 683 522.562, 683 528.058 C 683 532.049, 682.557 533.203, 680.365 534.927 C 677.749 536.985, 677.154 537, 597.365 537 L 517 537 517 588 L 517 639 593.884 639 L 670.767 639 671.485 632.250 C 674.433 604.515, 693.883 582.170, 720.981 575.388 C 729.920 573.151, 747.093 573.928, 755.683 576.958 C 779.081 585.211, 797.359 608.237, 798.779 631.250 L 799.257 639 813.161 639 C 837.700 639, 842.936 634.229, 842.978 611.829 L 843 600.159 830.250 599.829 C 818.686 599.531, 816.919 599.232, 811.253 596.615 C 794.141 588.711, 786.500 567.571, 797.084 557.415 C 799.985 554.631, 800.624 554.478, 811.311 554 L 822.500 553.500 817.728 550.642 C 809.289 545.588, 799.835 543.111, 769.358 537.966 C 704.995 527.101, 706.926 527.550, 698.436 521.492 C 691.657 516.654, 644.211 479.453, 621.500 461.167 C 595.262 440.042, 600.725 440.978, 504.292 441.081 C 435.138 441.154, 427.580 441.324, 418 443.016 M 433.539 465.112 C 411.381 468.341, 398.450 476.684, 368.014 507.393 L 354.528 521 427.825 521 L 501.123 521 500.592 516.750 C 500.300 514.413, 499.580 503.950, 498.991 493.500 C 498.402 483.050, 497.681 472.137, 497.388 469.250 L 496.856 464 468.178 464.122 C 452.405 464.189, 436.818 464.635, 433.539 465.112 M 513.526 476.190 C 514.298 490.720, 516.810 520.144, 517.323 520.656 C 517.520 520.853, 548.420 520.898, 585.991 520.757 L 654.301 520.500 641.401 510.048 C 600.178 476.649, 588.099 467.212, 584.979 465.964 C 582.310 464.896, 573.511 464.491, 547.186 464.226 L 512.872 463.880 513.526 476.190 M 927 475 L 927 485 1074 485 L 1221 485 1221 475 L 1221 465 1074 465 L 927 465 927 475 M 205 556 L 205 564 215.777 564 C 229.458 564, 231 563.153, 231 555.643 C 231 548.272, 230.495 548, 216.800 548 L 205 548 205 556 M 361.635 550.073 C 357.913 553, 357.913 559, 361.635 561.927 C 364.050 563.827, 365.598 564, 380.180 564 C 395.740 564, 396.145 563.946, 398.545 561.545 C 400.093 559.998, 401 557.948, 401 556 C 401 554.052, 400.093 552.002, 398.545 550.455 C 396.145 548.054, 395.740 548, 380.180 548 C 365.598 548, 364.050 548.173, 361.635 550.073 M 535 548.666 C 529.946 550.602, 528.554 557.645, 532.455 561.545 C 534.867 563.958, 535.197 564, 551.844 564 C 566.490 564, 569.068 563.763, 570.920 562.250 C 574.057 559.686, 574.687 554.071, 572.185 550.977 C 570.209 548.535, 569.944 548.497, 553.340 548.296 C 544.078 548.184, 535.825 548.350, 535 548.666 M 808 570.550 C 808 574.683, 814.182 581.997, 819.315 583.936 C 820.863 584.521, 826.657 585, 832.190 585 L 842.250 585 841.648 581.988 C 841.316 580.331, 840.080 576.731, 838.899 573.988 L 836.754 569 822.377 569 C 810.059 569, 808 569.222, 808 570.550 M 326.500 591.414 C 302.487 599.101, 286.756 623.645, 290.842 647.049 C 297.698 686.328, 346.913 701.297, 373.272 672.121 C 391.577 651.859, 391.145 623.484, 372.236 604.160 C 360.547 592.215, 341.009 586.770, 326.500 591.414 M 723.691 591.445 C 686.640 602.060, 674.518 646.816, 701.502 673.372 C 725.703 697.190, 764.331 689.744, 779.161 658.402 C 790.798 633.807, 778.100 602.916, 752.243 592.918 C 745.073 590.145, 730.798 589.409, 723.691 591.445 M 330.332 609.959 C 312.824 614.129, 303.609 636.487, 312.594 652.995 C 323.613 673.242, 353.416 673.187, 364.458 652.900 C 376.955 629.938, 356.184 603.802, 330.332 609.959 M 726.499 610.328 C 712.936 614.782, 704.947 627.293, 706.179 642.151 C 708.513 670.295, 747.687 677.853, 761.546 652.833 C 765.774 645.199, 765.898 631.878, 761.805 624.916 C 758.781 619.772, 752.781 613.975, 747.810 611.395 C 743.549 609.184, 731.778 608.594, 726.499 610.328 M 330.825 627.473 C 325.840 630.860, 323.199 637.592, 325.036 642.232 C 329.871 654.448, 344.803 656.017, 350.546 644.911 C 357.075 632.286, 342.591 619.478, 330.825 627.473 M 729.009 626.855 C 718.555 632.462, 719.539 646.254, 730.747 651.212 C 737.996 654.419, 745.361 650.858, 748.505 642.625 C 752.818 631.333, 739.997 620.962, 729.009 626.855" stroke="none" fill="#1D5F3A" fill-rule="evenodd"/>
</svg>