<svg xmlns="http://www.w3.org/2000/svg" width="1000" height="446" viewBox="-148.0 54.9 1925.0 858.6">
	<path d="M 740 105.557 C 709.871 113.449, 685.069 135.510, 673.944 164.314 C 668.152 179.309, 667.498 183.100, 667.526 201.500 L 667.551 218.500 671.581 230.107 C 684.930 268.558, 715.040 293.304, 754.354 298.135 C 788.538 302.336, 827.259 284.381, 845.842 255.711 C 850.869 247.955, 851.553 245.259, 849.650 240.705 C 847.213 234.872, 842.712 234.098, 830.284 237.376 C 811.824 242.246, 793.416 240.717, 779.636 233.171 C 738.973 210.903, 732.096 159.294, 765.439 126.621 C 774.384 117.855, 774.500 117.679, 774.500 112.898 C 774.500 109.194, 773.965 107.520, 772.225 105.778 C 768.713 102.263, 752.987 102.155, 740 105.557 M 729.506 130.599 C 708.546 141.354, 694.740 158.828, 688.875 182.023 C 685.868 193.912, 686.578 213.929, 690.393 224.871 C 704.671 265.817, 747.476 287.810, 788.500 275.279 C 795.049 273.278, 807.583 266.733, 812 263.006 L 815.500 260.054 806.362 260.027 C 781.936 259.955, 757.053 246.574, 740.298 224.500 C 729.111 209.763, 722.372 183.982, 725.019 166.051 C 726.469 156.232, 731.609 140.290, 735.852 132.456 C 739.343 126.011, 738.772 125.844, 729.506 130.599 M 1021.242 335.494 C 1017.412 337.159, 1015.606 341.044, 1016.387 345.940 C 1017.303 351.679, 1019.938 353.408, 1028.422 353.836 L 1035.827 354.210 1025.668 368.355 C 1013.972 384.640, 1012.892 388.344, 1018.270 393.727 L 1021.040 396.500 1037.770 396.827 C 1057.891 397.220, 1061.493 396.457, 1063.627 391.351 C 1064.775 388.603, 1064.859 387.104, 1064.012 384.535 C 1062.234 379.148, 1059.757 377.657, 1051.570 377.046 L 1044.248 376.500 1052.621 365 C 1064.076 349.269, 1065.393 346.460, 1063.683 341.420 C 1061.494 334.969, 1058.371 333.996, 1040 334.041 C 1028.904 334.068, 1023.574 334.481, 1021.242 335.494 M 982 370.253 C 975.268 373.769, 975.655 383.133, 982.672 386.505 L 986.844 388.510 981.695 395.422 C 975.443 403.814, 974.824 408.277, 979.293 412.750 C 981.979 415.439, 982.334 415.506, 995.270 415.776 C 1010.170 416.086, 1012.523 415.421, 1015.167 410.148 C 1017.850 404.797, 1015.721 399.947, 1009.848 398.033 L 1005.347 396.566 1010.401 389.640 C 1016.551 381.211, 1017.150 376.697, 1012.707 372.250 C 1010.034 369.574, 1009.618 369.493, 997.230 369.223 C 988.226 369.028, 983.768 369.329, 982 370.253 M 595.798 381.931 C 580.125 386.942, 569.133 399.478, 566.021 415.891 C 564.167 425.666, 564.655 800.256, 566.531 807.458 C 569.540 819.010, 577.868 830.633, 585.750 834.280 C 587.839 835.247, 588.002 835.970, 588.022 844.411 C 588.051 856.335, 590.100 861.236, 596.216 864.012 C 601.336 866.335, 644.947 866.995, 652.084 864.857 C 659.158 862.737, 661.447 859.129, 661.851 849.464 L 662.203 841.058 739.851 840.779 C 782.558 840.626, 826.339 840.631, 837.143 840.790 L 856.785 841.081 857.180 848.290 C 858.078 864.681, 860.836 866.008, 893.962 865.978 C 916.102 865.958, 918.919 865.766, 922.784 864.012 C 928.889 861.241, 930.949 856.330, 930.978 844.477 L 931 835.455 934.586 833.524 C 940.607 830.281, 947.410 821.917, 950.605 813.828 L 953.500 806.500 953.763 613.710 C 954.049 403.179, 954.335 414.486, 948.418 402.609 C 943.348 392.433, 932.128 383.652, 920.885 381.060 C 918.026 380.401, 861.690 380.059, 759 380.078 C 609.387 380.106, 601.214 380.199, 595.798 381.931 M 601.838 401.182 C 596.938 402.487, 590.155 408.448, 587.886 413.444 C 586.206 417.142, 586.042 420.698, 586.022 453.750 L 586 490 759.500 490 L 933 490 932.978 453.750 C 932.958 420.841, 932.788 417.131, 931.134 413.500 C 928.792 408.356, 922.202 402.428, 917.321 401.072 C 912.263 399.668, 607.126 399.774, 601.838 401.182 M 758.410 414.083 C 733.554 419.988, 725.065 451.681, 743.586 469.427 C 761.161 486.267, 789.759 478.513, 797.103 454.917 C 799.497 447.226, 799.480 444.765, 796.980 436.669 C 791.816 419.952, 775.045 410.130, 758.410 414.083 M 615.248 427.880 C 596.080 434.501, 593.966 462.149, 611.930 471.250 L 617.359 474 654.211 474 C 694.797 474, 695.374 473.924, 701.752 467.751 C 714.196 455.707, 709.015 433.064, 692.572 427.629 C 684.852 425.077, 622.777 425.279, 615.248 427.880 M 756.882 437.882 C 752.565 442.200, 751.881 445.935, 754.485 450.971 C 760.696 462.981, 778 458.908, 778 445.435 C 778 434.401, 765.010 429.755, 756.882 437.882 M 863.027 435.823 C 858.055 437.728, 854.434 442.168, 853.413 447.612 C 850.585 462.688, 868.260 471.975, 879.118 461.118 C 887.604 452.632, 884.601 439.437, 873.308 435.589 C 867.786 433.708, 868.595 433.689, 863.027 435.823 M 897.500 435.599 C 887.172 439.236, 883.859 452.215, 891.142 460.509 C 898.291 468.651, 911.916 467.019, 916.444 457.477 C 922.406 444.912, 910.407 431.054, 897.500 435.599 M 828.379 436.437 C 815.470 442.055, 816.948 461.206, 830.586 465.024 C 842.443 468.344, 853.233 458.048, 850 446.500 C 847.393 437.189, 837.370 432.524, 828.379 436.437 M 620.384 448.442 C 618.415 453.573, 617.931 453.500, 654.014 453.500 L 687.500 453.500 687.813 450.250 L 688.127 447 654.532 447 C 626.197 447, 620.851 447.226, 620.384 448.442 M 586 657.804 L 586 804.608 588.947 809.255 C 590.567 811.810, 593.797 815.161, 596.123 816.700 L 600.354 819.500 757.286 819.759 C 857.974 819.926, 915.523 819.666, 917.859 819.034 C 922.656 817.737, 928.576 812.752, 931.029 807.943 C 932.964 804.151, 933 801.387, 933 657.540 L 933 511 759.500 511 L 586 511 586 657.804 M 750 529.615 C 714.489 533.975, 684.604 548.433, 663.036 571.688 C 649.405 586.384, 640.589 601.365, 633.723 621.500 C 627.542 639.625, 626.481 645.890, 626.610 663.500 C 627.078 727.465, 674.935 783.425, 737.704 793.405 C 796.580 802.765, 853.304 773.166, 878.500 719.937 C 881.929 712.693, 883.071 711.202, 886.500 709.493 C 893.424 706.043, 893.461 705.824, 893.819 666 C 894.215 621.982, 893.600 618.444, 884.981 615.179 C 883.195 614.503, 881.769 612.518, 880.085 608.362 C 864.777 570.602, 825.654 539.651, 783.006 531.561 C 774.608 529.968, 756.042 528.873, 750 529.615 M 744.500 551.116 C 693.326 558.551, 653.226 600.029, 646.966 652 C 640.643 704.501, 680.997 760.174, 734 772.071 C 783.704 783.228, 832.394 761.156, 857.855 715.925 L 860.993 710.350 854.806 707.812 L 848.619 705.274 843.559 713.799 C 830.701 735.464, 809.411 751.048, 782.978 758.144 C 770.668 761.449, 748.175 761.465, 736 758.177 C 673.264 741.238, 642.698 675.296, 671.257 618.500 C 683.917 593.322, 704.933 576.065, 733.500 567.391 C 747.057 563.274, 772.236 563.242, 785.500 567.324 C 812.934 575.767, 837.090 595.322, 847.008 617.116 L 848.199 619.732 853.350 617.826 C 856.182 616.778, 859.063 615.727, 859.750 615.491 C 861.309 614.957, 858.646 609.526, 851.791 599.264 C 828.560 564.484, 785.498 545.159, 744.500 551.116 M 748.539 585.047 C 710.040 591.076, 681.083 623.756, 681.017 661.250 C 681.008 666.612, 681.239 671, 681.532 671 C 681.825 671, 683.707 670.314, 685.715 669.475 C 707.960 660.180, 729.173 661.430, 756.805 673.662 C 778.525 683.277, 781.987 684.271, 795.500 684.766 C 808.643 685.247, 815.667 684.002, 826.150 679.333 L 831.801 676.816 832.192 655.658 C 832.636 631.637, 832.512 631.052, 824.431 618.897 C 808.324 594.667, 776.824 580.618, 748.539 585.047 M 863.516 635.668 C 860.775 636.509, 857.287 638.083, 855.766 639.167 L 853 641.136 853 662.017 L 853 682.898 856.250 685.331 C 861.021 688.902, 865.271 690.860, 869.842 691.591 L 873.893 692.239 873.969 663.119 L 874.045 634 871.272 634.070 C 869.748 634.108, 866.257 634.827, 863.516 635.668 M 702.400 685.482 C 699.595 686.122, 694.795 687.662, 691.735 688.905 L 686.170 691.163 687.701 694.832 C 692.337 705.942, 704.699 719.994, 716.451 727.512 C 751.762 750.100, 798.926 741.588, 822.647 708.346 C 827.868 701.029, 827.845 700.444, 822.406 702.342 C 803.253 709.029, 780.763 706.593, 755.742 695.123 C 732.656 684.540, 718.075 681.904, 702.400 685.482 M 609 843 C 609 844.919, 609.667 845, 625.500 845 C 641.333 845, 642 844.919, 642 843 C 642 841.081, 641.333 841, 625.500 841 C 609.667 841, 609 841.081, 609 843 M 877 843 C 877 844.919, 877.667 845, 893.500 845 C 909.333 845, 910 844.919, 910 843 C 910 841.081, 909.333 841, 893.500 841 C 877.667 841, 877 841.081, 877 843" stroke="none" fill="#1D5F3A" fill-rule="evenodd"/>
</svg>