<svg xmlns="http://www.w3.org/2000/svg" width="96" height="96" viewBox="-134.0 -111.0 736 736">
	<path d="M 99.500 39 C 99.160 39.550, 97.997 40, 96.915 40 C 94.594 40, 86 48.258, 86 50.487 C 86 51.334, 85.584 52.809, 85.075 53.764 C 82.430 58.728, 81.228 86.311, 83.073 99.709 C 84.633 111.037, 86.461 115.083, 93.193 122.104 L 98 127.118 98 134.161 L 98 141.204 91.279 147.602 C 87.583 151.121, 84.091 154, 83.520 154 C 82.948 154, 78.855 157.713, 74.422 162.250 C 66.143 170.725, 60.019 180.991, 57.640 190.381 C 56.090 196.500, 55.555 417.012, 57.076 423 C 57.705 425.475, 59.070 429.408, 60.110 431.739 C 61.149 434.071, 62 436.233, 62 436.544 C 62 436.855, 63.804 439.766, 66.009 443.013 C 71.468 451.052, 80.063 456.711, 91.616 459.873 C 97.339 461.440, 214.315 461.453, 219.101 459.888 C 228.186 456.916, 229.458 447.281, 221.316 443.117 C 219.778 442.330, 201.121 442, 158.254 442 C 89.288 442, 93.348 442.458, 84.189 433.647 C 75.794 425.571, 74.140 418.488, 74.770 393.322 L 75 384.144 165.907 384.042 C 264.004 383.933, 259.684 383.687, 255.846 389.171 C 252.726 393.629, 248.508 402.238, 247.112 407 C 246.386 409.475, 245.389 412.534, 244.896 413.797 C 243.734 416.777, 243.734 434.223, 244.896 437.203 C 245.389 438.466, 246.380 441.525, 247.100 444 C 249.378 451.841, 256.427 462.624, 263.994 469.846 C 268.149 473.811, 278.438 481, 279.959 481 C 280.546 481, 281.809 481.395, 282.764 481.877 C 291.114 486.096, 305.886 486.096, 314.236 481.877 C 315.191 481.395, 316.433 481, 316.996 481 C 320.569 481, 333.124 470.326, 351.244 451.884 C 371.364 431.405, 393.907 407.675, 399.552 401.031 C 401.174 399.123, 405.875 393.891, 410 389.405 C 419.611 378.952, 425 372.413, 425 371.203 C 425 370.676, 425.655 369.701, 426.456 369.037 C 428.193 367.595, 434.244 355.139, 435.947 349.500 C 437.174 345.437, 436.935 330.337, 435.551 324.500 C 431.439 307.152, 413.790 288.458, 397.015 283.683 C 391.460 282.101, 374.024 281.695, 369.500 283.041 C 359.043 286.154, 353.093 288.770, 346.500 293.154 C 341.851 296.246, 317.768 320.819, 304 336.521 C 289.611 352.929, 280.812 362.002, 279.859 361.413 C 279.386 361.121, 279 325.817, 279 282.960 C 279 232.398, 278.621 202.485, 277.922 197.769 C 276.594 188.819, 273.390 178.387, 270.881 174.846 C 269.846 173.386, 269 171.745, 269 171.200 C 269 169.307, 251.110 151.840, 246.569 149.298 C 245.591 148.751, 242.588 146.140, 239.895 143.496 C 235.062 138.750, 235 138.610, 235 132.392 C 235 126.211, 235.063 126.064, 238.404 124.479 C 241.522 122.999, 247.286 115.721, 249.474 110.500 C 253.719 100.375, 253.663 60.617, 249.390 50.391 C 247.839 46.680, 240.440 40, 237.879 40 C 236.910 40, 235.840 39.550, 235.500 39 C 234.649 37.622, 100.351 37.622, 99.500 39 M 101.872 56.653 C 99.664 59.313, 99.893 102.317, 102.128 104.554 C 103.598 106.026, 109.336 106.171, 161.368 106.049 C 203.768 105.950, 220.043 106.232, 223.003 107.119 C 232.390 109.932, 234 105.712, 234 78.289 C 234 60.204, 233.827 58.153, 232.171 56.655 C 229.369 54.119, 103.978 54.117, 101.872 56.653 M 160.250 123.715 L 117 124.021 117 130.690 C 117 144.138, 113.563 150.402, 97.654 165.947 C 79.144 184.034, 74.503 192.238, 75.197 205.646 L 75.500 211.500 167.500 211.500 L 259.500 211.500 259.838 208.523 C 261.400 194.781, 251.234 177.598, 231.988 161.447 C 226.133 156.533, 220 147.580, 220 143.945 C 220 142.940, 219.550 141.840, 219 141.500 C 218.450 141.160, 217.993 137.646, 217.985 133.691 C 217.976 129.736, 217.585 125.893, 217.115 125.151 C 216.015 123.416, 213.066 123.342, 160.250 123.715 M 75.107 232.800 C 74.306 234.298, 74.211 281.042, 74.868 351.755 L 75 366.010 167.250 365.755 L 259.500 365.500 259.757 299.557 C 259.934 254.252, 259.684 233.284, 258.958 232.558 C 258.235 231.835, 229.204 231.429, 166.974 231.272 C 81.137 231.056, 75.995 231.141, 75.107 232.800 M 162.750 257.750 L 156 258.091 156 270.964 C 156 278.044, 155.727 284.548, 155.393 285.418 C 154.882 286.751, 152.688 287, 141.452 287 C 132.885 287, 127.877 287.391, 127.443 288.093 C 126.448 289.702, 125.625 305.371, 126.378 308.368 L 127.024 310.944 140.762 311.222 L 154.500 311.500 154.746 323 C 155.118 340.419, 153.988 339, 167.491 339 L 178.944 339 179.222 325.250 L 179.500 311.500 194.250 311.223 L 209 310.947 209 299.590 C 209 286.045, 210.357 287.034, 191.750 287.014 L 179 287 179 272.500 L 179 258 175.582 258 C 173.702 258, 171.564 257.867, 170.832 257.704 C 170.099 257.541, 166.463 257.562, 162.750 257.750 M 364.376 304.621 C 358.484 307.573, 354.840 310.638, 343.307 322.345 C 335.638 330.130, 328.381 337.919, 327.182 339.654 C 322.944 345.781, 323.483 346.726, 341.861 365.383 C 363.308 387.155, 368.819 392.957, 370.708 395.750 C 371.545 396.988, 372.781 398, 373.455 398 C 376.632 398, 411.310 361.009, 415.905 352.720 C 418.156 348.658, 419.002 330.954, 417.122 327.236 C 416.639 326.281, 415.510 323.789, 414.613 321.698 C 411.164 313.657, 403.441 307.340, 390.703 302.141 C 384.425 299.579, 372.128 300.737, 364.376 304.621 M 299.340 368.742 C 295.578 373, 290.620 378.513, 288.322 380.992 C 286.025 383.472, 282.875 387.164, 281.322 389.199 C 279.770 391.233, 276.474 395.508, 273.997 398.699 C 262.463 413.559, 260.531 426.772, 267.595 442.500 C 270.506 448.982, 279.580 458.955, 285.192 461.842 C 291.438 465.054, 306.463 465.105, 312.627 461.935 C 318.392 458.970, 360 416.421, 360 413.491 C 360 411.843, 309.284 361, 307.640 361 C 306.837 361, 303.102 364.484, 299.340 368.742" stroke="none" fill="#265237" fill-rule="evenodd"/>
</svg>