<svg xmlns="http://www.w3.org/2000/svg" width="96" height="96" viewBox="-29.0 -89.0 736 736">
	<path d="M 200.500 35.256 C 185.302 40.541, 173.695 50.116, 167.458 62.512 C 165.556 66.292, 164 70.172, 164 71.134 C 164 72.095, 163.598 73.131, 163.106 73.435 C 162.614 73.739, 161.925 75.903, 161.576 78.244 C 160.145 87.826, 159.076 96.940, 158.495 104.500 C 157.525 117.116, 157.467 117.262, 153.746 116.444 C 151.997 116.060, 149.876 115.408, 149.033 114.996 C 139.311 110.238, 113.198 110.219, 101.500 114.961 C 100.400 115.407, 97.475 116.352, 95 117.060 C 92.525 117.768, 90.073 118.720, 89.550 119.174 C 89.027 119.628, 87.987 120, 87.237 120 C 84.776 120, 72.644 126.272, 65.116 131.435 C 61.055 134.221, 57.018 136.950, 56.145 137.500 C 52.802 139.605, 42.216 150.799, 37.228 157.500 C 32.560 163.773, 32.018 165.027, 32.010 169.576 C 31.996 176.612, 37.405 181, 46.090 181 C 47.626 181, 49.160 181.450, 49.500 182 C 49.840 182.550, 50.795 183, 51.622 183 C 53.633 183, 65.505 188.753, 70.500 192.148 C 76.814 196.439, 96 217.027, 96 219.511 C 96 219.857, 97.264 222.021, 98.808 224.320 C 100.353 226.619, 102.204 230.525, 102.922 233 C 103.640 235.475, 104.661 238.434, 105.189 239.575 C 106.396 242.180, 105.664 258.006, 104.060 264 C 103.397 266.475, 102.613 269.967, 102.317 271.759 C 102.021 273.552, 101.379 275.266, 100.890 275.568 C 99.785 276.251, 99.710 284.254, 100.796 285.550 C 103.381 288.636, 106.343 303.256, 105.612 309.325 C 104.306 320.171, 103.761 323.030, 102.894 323.565 C 102.402 323.869, 102 324.905, 102 325.866 C 102 328.464, 96.063 339.714, 91.329 346.086 C 84.853 354.803, 78.793 359.647, 67 365.534 C 60.595 368.731, 47.123 374, 45.353 374 C 44.594 374, 43.191 374.396, 42.236 374.880 C 41.281 375.364, 38.731 376.607, 36.569 377.643 C 31.996 379.832, 30.618 383.178, 31.545 389.839 C 32.510 396.768, 46.593 410.614, 66.005 423.718 C 70.158 426.521, 72.036 427.644, 81.250 432.829 C 83.038 433.835, 85.400 434.917, 86.500 435.233 C 87.600 435.550, 91.650 436.929, 95.500 438.299 C 107.579 442.595, 114.277 443.500, 134 443.500 L 152.500 443.500 159.187 440.250 C 163.955 437.933, 167.283 437, 170.783 437 C 179.623 437, 185.029 432.536, 184.968 425.285 C 184.889 415.912, 174.876 413.186, 162.143 419.070 C 147.539 425.819, 145.681 426.208, 130.500 425.701 C 123.350 425.463, 115.250 424.737, 112.500 424.089 C 109.750 423.441, 106.257 422.654, 104.738 422.340 C 103.219 422.026, 101.729 421.371, 101.429 420.885 C 101.128 420.398, 100.205 420, 99.378 420 C 95.280 420, 77.689 409.899, 68.151 402.070 C 53.963 390.423, 53.873 390.267, 60 388.059 C 66.157 385.841, 67.377 385.325, 74 382.138 C 85.986 376.372, 100.267 364.216, 109.405 352 C 114.839 344.736, 121 332.278, 121 328.555 C 121 327.215, 121.375 325.887, 121.832 325.604 C 123.035 324.860, 125.384 305.881, 124.700 302.423 C 124.383 300.815, 123.691 297.700, 123.162 295.500 C 120.385 283.937, 120.039 280.789, 121.094 276.675 C 124.736 262.479, 125.732 249.491, 123.945 239.500 C 123.256 235.650, 122.312 232.073, 121.846 231.550 C 121.381 231.028, 121 229.906, 121 229.058 C 121 226.957, 112.239 209.444, 110.443 207.952 C 109.649 207.294, 109 206.335, 109 205.821 C 109 205.308, 106.750 202.107, 104 198.708 C 101.250 195.310, 99 191.810, 99 190.932 C 99 189.404, 106.008 183.005, 107.691 182.996 C 108.136 182.993, 110.872 181.193, 113.770 178.996 C 116.669 176.798, 119.373 175, 119.780 175 C 120.913 175, 122.669 171.783, 123.431 168.312 C 124.005 165.699, 123.661 164.767, 121.319 162.595 C 117.519 159.071, 113.026 159.197, 106.846 163 C 104.164 164.650, 101.527 166, 100.985 166 C 100.443 166, 100 166.367, 100 166.814 C 100 167.262, 98.313 168.543, 96.250 169.661 C 94.188 170.778, 90.799 172.661, 88.720 173.846 C 83.213 176.984, 84.567 177.362, 63.764 166.875 C 62.809 166.394, 61.234 165.993, 60.264 165.985 C 59.294 165.976, 57.870 165.571, 57.100 165.083 C 53.109 162.556, 80.087 141.546, 94.500 135.957 C 108.912 130.368, 126.765 127.727, 134.101 130.099 C 142.881 132.937, 143.878 133.750, 143.819 138.022 C 143.755 142.690, 145.326 145, 148.563 145 C 149.839 145, 151.160 145.450, 151.500 146 C 151.840 146.550, 155.547 147, 159.738 147 C 173.560 147, 186.428 153.101, 200.927 166.529 C 209.271 174.256, 212.722 176.657, 222.401 181.472 C 234.689 187.585, 239.591 191.200, 238.376 193.254 C 237.971 193.939, 234.655 199, 231.008 204.500 C 223.176 216.311, 218.709 225.424, 217.039 233 C 216.372 236.025, 215.416 240.127, 214.913 242.116 C 213.748 246.729, 213.718 264.708, 214.875 265.423 C 215.356 265.720, 216.057 268.559, 216.433 271.732 C 216.808 274.904, 217.361 279.423, 217.660 281.774 C 217.960 284.125, 217.781 286.600, 217.264 287.274 C 213.227 292.529, 213.533 318.501, 217.785 331.652 C 219.484 336.908, 224.879 347.655, 226.488 348.990 C 227.320 349.680, 228 350.674, 228 351.199 C 228 352.617, 240.033 366.319, 243.500 368.848 C 245.150 370.051, 248.671 372.762, 251.324 374.872 C 257.731 379.967, 267.515 385.411, 274.999 388.047 C 283.238 390.948, 281.815 393.231, 264.500 404.887 C 253.715 412.147, 234.531 422, 231.181 422 C 230.046 422, 228.840 422.450, 228.500 423 C 228.160 423.550, 226.135 424, 224 424 C 221.865 424, 219.840 424.450, 219.500 425 C 219.160 425.550, 216.434 426, 213.441 426 C 206.260 426, 203.987 428.113, 204.032 434.750 C 204.049 437.363, 204.612 440.209, 205.282 441.075 C 206.986 443.278, 212.113 444.864, 214.500 443.926 C 215.600 443.494, 218.473 443.109, 220.884 443.070 C 224.984 443.005, 228.449 442.316, 237 439.869 C 245.099 437.552, 261.007 429.670, 269.892 423.573 C 273.957 420.783, 278.289 417.825, 279.518 417 C 294.413 407.005, 305.041 394.896, 305.323 387.598 C 305.629 379.695, 304.250 378.439, 290.500 374.104 C 273.756 368.825, 261.457 361.516, 251.385 350.855 C 246.891 346.100, 239 334.749, 239 333.041 C 239 332.454, 238.603 331.191, 238.117 330.236 C 236.711 327.472, 235.322 323.816, 234.012 319.424 C 232.221 313.427, 233.764 290.339, 236.155 287.354 C 237.395 285.804, 237.417 273.713, 236.183 271.374 C 231.314 262.143, 231.308 238.145, 236.174 232.550 C 236.628 232.028, 237 230.984, 237 230.230 C 237 229.477, 238.423 226.754, 240.162 224.180 C 258.374 197.220, 271.992 186.485, 296.411 179.837 C 308.993 176.412, 307.724 162.343, 293.672 149.471 C 277.545 134.698, 263.461 125.613, 246.250 118.880 C 245.012 118.396, 242.988 117.581, 241.750 117.070 C 240.512 116.558, 237.025 115.617, 234 114.979 C 230.975 114.340, 226.700 113.296, 224.500 112.659 C 219.317 111.157, 187.195 111.290, 184.327 112.825 C 180.618 114.810, 178.991 111.598, 179.055 102.421 C 179.118 93.448, 181.118 76.546, 182.250 75.415 C 182.662 75.004, 183.015 73.729, 183.033 72.583 C 183.161 64.550, 202.172 50.592, 208.015 54.241 C 210.737 55.942, 211.105 57.485, 211.853 70.337 C 212.612 83.373, 213.504 84.463, 222.500 83.356 C 230.675 82.350, 231.250 81.342, 230.668 69.020 C 229.712 48.786, 226.448 41.239, 216.563 36.411 C 211.328 33.855, 205.695 33.450, 200.500 35.256 M 193.750 130.630 C 190.016 132.639, 190.134 132.921, 197.072 138.563 C 200.412 141.278, 206.375 146.552, 210.322 150.282 C 214.270 154.012, 218.625 157.670, 220 158.411 C 226.116 161.709, 238.850 168.497, 242.502 170.407 C 244.703 171.558, 248.120 173.738, 250.096 175.250 C 254.147 178.351, 256.192 178.678, 257.989 176.514 C 259.383 174.834, 272.621 168, 274.481 168 C 275.147 168, 277.192 167.252, 279.024 166.338 L 282.355 164.677 275.427 158.071 C 271.617 154.438, 266.832 150.673, 264.792 149.706 C 262.753 148.738, 260.822 147.521, 260.501 147.001 C 259.881 145.998, 245.279 138.856, 238.519 136.249 C 236.309 135.397, 234.072 134.317, 233.550 133.850 C 233.027 133.382, 231.592 133, 230.359 133 C 229.126 133, 227.869 132.598, 227.565 132.106 C 225.990 129.557, 198.013 128.336, 193.750 130.630 M 483.032 219.693 C 478.388 220.640, 475.745 224.918, 471.107 239 C 466.082 254.257, 466 254.542, 466 256.762 C 466 257.928, 465.550 259.160, 465 259.500 C 464.450 259.840, 464 261.072, 464 262.238 C 464 264.490, 462.337 270.347, 460.877 273.236 C 460.395 274.191, 460 275.852, 460 276.927 C 460 278.002, 459.550 279.160, 459 279.500 C 458.450 279.840, 458 280.922, 458 281.905 C 458 287.494, 449.183 296.132, 435.792 303.660 C 430.159 306.826, 412.783 326.076, 409.081 333.250 C 408.301 334.762, 407.288 336, 406.831 336 C 406.374 336, 406 336.481, 406 337.070 C 406 337.658, 404.732 340.021, 403.182 342.320 C 400.478 346.333, 388 371.030, 388 372.372 C 388 373.744, 383.511 382.689, 380.819 386.680 C 379.269 388.979, 378 391.148, 378 391.500 C 378 392.457, 371.742 401.448, 370.808 401.833 C 370.364 402.017, 369.998 402.692, 369.995 403.333 C 369.993 403.975, 368.753 405.850, 367.239 407.500 C 365.726 409.150, 363.255 411.994, 361.749 413.820 C 350.850 427.035, 320.425 444.246, 296 451.012 C 288.256 453.158, 285.183 454.927, 283.565 458.170 C 280.846 463.620, 282.193 466.445, 289.169 469.921 C 292.823 471.742, 300.679 470.178, 310.130 465.747 C 313.083 464.362, 318.200 462.208, 321.500 460.959 C 330.454 457.571, 339.976 452.996, 344.680 449.821 C 346.979 448.269, 349.272 447, 349.775 447 C 350.278 447, 351.505 446.100, 352.500 445 C 353.495 443.900, 354.726 443, 355.235 443 C 357.050 443, 373.160 428.538, 376.145 424.229 C 377.010 422.980, 379.357 420.187, 381.359 418.022 C 383.362 415.858, 385 413.673, 385 413.166 C 385 412.659, 385.721 411.647, 386.601 410.916 C 389.687 408.355, 403 385.600, 403 382.887 C 403 382.427, 404.350 379.103, 406 375.500 C 407.650 371.897, 409 368.731, 409 368.464 C 409 367.230, 413.647 358.076, 416.181 354.320 C 417.731 352.021, 419 349.728, 419 349.225 C 419 348.722, 419.900 347.495, 421 346.500 C 422.100 345.505, 423.002 344.197, 423.005 343.595 C 423.007 342.993, 424.245 341.150, 425.755 339.500 C 427.265 337.850, 429.685 334.925, 431.133 333 C 437.547 324.474, 446.789 316.797, 454 314.006 C 455.925 313.260, 458.694 311.829, 460.154 310.825 C 461.614 309.821, 463.223 309, 463.730 309 C 466.229 309, 473.284 296.706, 476.068 287.500 C 476.733 285.300, 477.631 282.600, 478.063 281.500 C 478.496 280.400, 479.077 278.375, 479.355 277 C 479.633 275.625, 480.372 272.700, 480.997 270.500 C 481.622 268.300, 482.553 264.813, 483.066 262.750 C 483.580 260.688, 484.430 257.313, 484.955 255.250 C 485.481 253.188, 486.197 250.150, 486.546 248.500 C 487.838 242.406, 489.969 239, 492.488 239 C 493.805 239, 495.160 239.450, 495.500 240 C 495.840 240.550, 497.190 241, 498.500 241 C 499.810 241, 501.127 241.396, 501.426 241.881 C 501.726 242.365, 502.990 243.003, 504.235 243.298 C 508.012 244.194, 528.981 251.648, 529.674 252.340 C 530.373 253.040, 526.497 261.425, 524.190 264.202 C 523.413 265.139, 521.787 267.839, 520.578 270.202 C 519.369 272.566, 517.857 275.400, 517.218 276.500 C 515.112 280.127, 508 295.938, 508 296.993 C 508 297.562, 507.594 298.809, 507.097 299.764 C 506.601 300.719, 505.649 303.525, 504.981 306 C 504.314 308.475, 503.323 311.719, 502.780 313.208 C 501.567 316.532, 502.880 328.566, 504.993 333.500 C 505.902 335.622, 506.186 336.885, 508.596 349.500 C 510.631 360.151, 509.477 388.742, 506.903 391.450 C 506.406 391.972, 506 394.758, 506 397.641 C 506 400.524, 505.550 403.160, 505 403.500 C 503.723 404.290, 503.665 432.254, 504.932 436.429 C 505.445 438.118, 506.439 441.525, 507.142 444 C 511.207 458.320, 519.597 468.151, 533.500 474.882 C 553.726 484.675, 565.713 487.501, 593.500 489.025 C 602.300 489.508, 612.875 490.380, 617 490.963 C 621.125 491.546, 627.425 492.371, 631 492.798 C 636.631 493.469, 642 495.250, 642 496.446 C 642 497.042, 631.727 502, 630.491 502 C 629.878 502, 627.513 502.900, 625.236 504 C 622.959 505.100, 620.394 506, 619.535 506 C 618.676 506, 617.191 506.395, 616.236 506.877 C 613.183 508.420, 607.436 510, 604.879 510 C 603.516 510, 601.973 510.404, 601.450 510.898 C 600.928 511.391, 598.700 512.053, 596.500 512.368 C 594.300 512.684, 589.575 513.423, 586 514.011 C 569.092 516.793, 526.885 516.203, 517 513.046 C 515.625 512.607, 512.025 511.711, 509 511.054 C 505.975 510.398, 502.488 509.442, 501.250 508.930 C 500.012 508.419, 497.988 507.597, 496.750 507.105 C 478.120 499.693, 466.991 485.907, 469.468 473.309 C 469.880 471.214, 470.618 466.913, 471.108 463.750 C 471.599 460.587, 472.460 455.188, 473.023 451.750 C 473.585 448.313, 474.489 442.575, 475.032 439 C 475.575 435.425, 476.498 429.575, 477.082 426 C 477.667 422.425, 478.370 416.071, 478.645 411.879 C 479.231 402.928, 477.096 400, 469.979 400 C 465.678 400, 463.173 403.721, 462.309 411.392 C 462.055 413.651, 461.462 416.400, 460.991 417.500 C 460.155 419.457, 459.425 422.966, 458.391 430 C 458.108 431.925, 457.487 434.400, 457.011 435.500 C 456.535 436.600, 455.889 439.525, 455.575 442 C 454.713 448.795, 452.224 461.385, 450.229 469.035 C 445.839 485.873, 430.502 501.715, 408 512.653 C 398.498 517.272, 395.120 518.534, 385.500 521.057 C 365.438 526.319, 337.437 525.068, 314 517.862 C 303.574 514.656, 300.673 513.099, 302.045 511.445 C 303.589 509.586, 308.852 507, 311.095 507 C 312.078 507, 313.160 506.550, 313.500 506 C 313.840 505.450, 315.190 505, 316.500 505 C 317.810 505, 319.160 504.550, 319.500 504 C 319.840 503.450, 321.420 503, 323.010 503 C 327.708 503, 345.380 497.867, 347.450 495.902 C 347.973 495.406, 348.990 495, 349.711 495 C 351.651 495, 359.901 491.043, 364.680 487.819 C 366.979 486.269, 369.143 485, 369.489 485 C 370.155 485, 376.120 480.504, 382.086 475.505 C 384.058 473.852, 387.587 470.962, 389.927 469.081 C 395.068 464.951, 417 439.099, 417 437.169 C 417 436.697, 417.900 435.495, 419 434.500 C 420.100 433.505, 421 432.155, 421 431.500 C 421 430.845, 421.900 429.495, 423 428.500 C 424.100 427.505, 425 426.267, 425 425.749 C 425 425.232, 425.905 423.537, 427.012 421.983 C 428.118 420.429, 430.434 416.535, 432.158 413.329 C 440.975 396.930, 441.522 393.469, 436.024 388.879 C 432.542 385.972, 426 384.808, 426 387.096 C 426 387.698, 425.112 389.439, 424.026 390.963 C 422.941 392.488, 420.419 396.832, 418.423 400.618 C 416.427 404.403, 414.259 408.175, 413.604 409 C 412.949 409.825, 411.772 411.850, 410.987 413.500 C 409.105 417.459, 403.831 425.411, 402.808 425.833 C 402.364 426.017, 402 426.574, 402 427.072 C 402 430.019, 368.525 466, 365.783 466 C 365.362 466, 362.946 467.581, 360.413 469.514 C 355.770 473.059, 346.020 478, 343.670 478 C 342.972 478, 341.973 478.404, 341.450 478.898 C 340.471 479.822, 335.595 480.685, 326 481.633 C 322.975 481.932, 320.072 482.586, 319.550 483.088 C 319.028 483.590, 317.592 484, 316.359 484 C 315.126 484, 313.840 484.450, 313.500 485 C 313.160 485.550, 312.212 486, 311.393 486 C 310.574 486, 308.041 486.900, 305.764 488 C 303.487 489.100, 301.229 490, 300.745 490 C 299.109 490, 281.257 498.986, 280.083 500.401 C 276.992 504.124, 244.864 502.987, 211 497.955 C 206.875 497.342, 201.810 496.604, 199.744 496.315 C 197.678 496.025, 195.747 495.400, 195.453 494.925 C 194.790 493.851, 201.416 491, 204.575 491 C 205.857 491, 207.940 490.601, 209.203 490.113 C 210.466 489.625, 213.975 488.703, 217 488.064 C 228.744 485.584, 236.304 483.750, 242 482 C 243.375 481.578, 246.525 480.678, 249 480.002 C 259.708 477.075, 263 474.346, 263 468.394 C 263 462.751, 258.925 459.441, 253.200 460.435 C 251.165 460.788, 247.810 461.332, 245.744 461.644 C 243.678 461.956, 241.739 462.614, 241.435 463.106 C 241.131 463.598, 239.552 464, 237.927 464 C 236.302 464, 234.191 464.402, 233.236 464.893 C 232.281 465.385, 229.250 466.256, 226.500 466.829 C 214.407 469.351, 210.281 470.233, 207 471 C 205.075 471.450, 201.025 472.351, 198 473.002 C 179.417 477.003, 166.206 484.115, 161.250 492.786 C 156.781 500.604, 165.248 508.616, 180.500 511.003 C 183.250 511.433, 188.200 512.308, 191.500 512.947 C 202.681 515.112, 218.231 517.677, 229 519.132 C 233.125 519.690, 246.135 520.371, 257.912 520.646 L 279.324 521.146 284.912 524.850 C 290.892 528.814, 292.953 529.859, 300 532.501 C 308.643 535.742, 314.283 537.342, 326.500 540.015 C 341.228 543.239, 383.570 543.122, 385.591 539.852 C 385.881 539.384, 387.420 539, 389.012 539 C 390.604 539, 392.940 538.608, 394.203 538.128 C 395.466 537.648, 398.300 536.718, 400.500 536.062 C 407.908 533.850, 427.230 524.633, 429.048 522.443 C 429.706 521.649, 430.676 521, 431.203 521 C 432.276 521, 438.124 516.273, 447.452 507.865 C 457.626 498.693, 456.669 498.661, 466.101 508.485 C 470.597 513.168, 474.834 517, 475.515 517 C 476.197 517, 477.297 517.653, 477.960 518.452 C 479.297 520.063, 488.757 525, 490.509 525 C 491.122 525, 493.487 525.900, 495.764 527 C 498.041 528.100, 501.024 529, 502.393 529 C 503.762 529, 505.131 529.402, 505.435 529.894 C 505.739 530.386, 507.678 531.024, 509.744 531.312 C 511.810 531.600, 517.325 532.434, 522 533.166 C 527.405 534.013, 539.057 534.475, 554 534.437 C 575.657 534.380, 581.588 533.917, 597 531.078 C 600.025 530.521, 604.075 529.795, 606 529.465 C 607.925 529.134, 610.400 528.507, 611.500 528.070 C 615.426 526.513, 620.666 525, 622.133 525 C 622.953 525, 625.487 524.100, 627.764 523 C 630.041 521.900, 632.381 521, 632.965 521 C 633.549 521, 634.809 520.601, 635.764 520.113 C 636.719 519.625, 640.559 517.713, 644.297 515.863 C 662.491 506.862, 668.383 497.281, 662.661 486 C 660.208 481.164, 652.229 476.115, 646.917 476.038 C 642.416 475.972, 642.839 474.843, 650.005 467.790 C 654.799 463.071, 657 460.152, 657 458.511 C 657 457.195, 657.450 455.840, 658 455.500 C 659.342 454.670, 659.267 449.749, 657.859 446.297 C 654.173 437.257, 653.463 436.291, 648.328 433.337 C 644.744 431.276, 629.113 430.769, 611 432.127 C 588.932 433.781, 574.958 433.786, 563.500 432.142 C 558.550 431.432, 552.810 430.612, 550.744 430.320 C 548.678 430.028, 546.739 429.386, 546.435 428.894 C 546.131 428.402, 545.002 428, 543.927 428 C 542.852 428, 541.191 427.598, 540.236 427.106 C 539.281 426.614, 534.985 424.551, 530.689 422.521 L 522.878 418.831 523.297 408.165 C 523.527 402.299, 524.244 395.475, 524.891 393 C 528.073 380.823, 528.785 350.466, 526.096 341.648 C 525.568 339.916, 524.611 336.475, 523.970 334 C 523.329 331.525, 522.377 328.684, 521.855 327.687 C 521.332 326.690, 520.894 322.747, 520.882 318.925 C 520.861 312.307, 521.204 311.277, 528.095 297.238 C 532.074 289.132, 536.524 280.700, 537.984 278.500 C 541.100 273.805, 545 265.584, 545 263.711 C 545 262.990, 545.529 261.871, 546.175 261.225 C 548.274 259.126, 547.838 243.589, 545.612 241.126 C 543.525 238.817, 532.789 233.432, 523.500 230.035 C 520.200 228.828, 516.719 227.426, 515.764 226.920 C 514.809 226.414, 513.566 226, 513.003 226 C 512.439 226, 510.071 225.170, 507.739 224.155 C 498.977 220.341, 488.839 218.510, 483.032 219.693 M 182.018 253.686 C 177.529 255.611, 175.987 262.064, 176.044 278.693 C 176.113 299.095, 179.178 304.955, 188.959 303.391 C 196.300 302.217, 196.855 300.469, 197.134 277.636 C 197.365 258.772, 197.285 257.841, 195.271 255.826 C 193.119 253.675, 185.074 252.375, 182.018 253.686 M 144.039 256.189 C 142.120 258.248, 142 259.625, 142 279.514 C 142 300.316, 142.037 300.686, 144.314 302.826 C 147.623 305.934, 152.181 305.665, 155.691 302.155 C 162.610 295.236, 163.195 263.398, 156.539 256.043 C 153.904 253.132, 146.810 253.214, 144.039 256.189 M 527.288 443.691 C 525.991 447.071, 533.220 455.553, 540.014 458.623 C 552.446 464.241, 557.394 466, 560.762 466 C 561.928 466, 563.131 466.402, 563.435 466.894 C 564.392 468.443, 571.888 469.165, 592.028 469.646 L 611.556 470.112 617.028 467.096 C 620.038 465.436, 624.525 463.070, 627 461.837 C 629.475 460.603, 631.650 459.236, 631.833 458.797 C 632.017 458.359, 632.720 458, 633.396 458 C 635.480 458, 640.313 452.259, 639.661 450.560 C 638.939 448.678, 617.170 448.230, 615.341 450.059 C 613.911 451.489, 560.396 450.637, 553 449.066 C 549.975 448.424, 545.810 447.649, 543.744 447.344 C 541.678 447.038, 539.739 446.386, 539.435 445.894 C 539.131 445.402, 537.810 445, 536.500 445 C 535.190 445, 533.873 444.604, 533.574 444.119 C 532.560 442.480, 527.876 442.160, 527.288 443.691" stroke="none" fill="#265237" fill-rule="evenodd"/>
</svg>