<svg xmlns="http://www.w3.org/2000/svg" width="96" height="96" viewBox="-112.0 -74.0 736 736">
	<path d="M 245.500 38.570 C 227.204 42.965, 215.769 55.264, 211.979 74.625 C 209.909 85.196, 213.213 90, 222.553 90 C 228.782 90, 232 86.630, 232 80.107 C 232 77.363, 232.450 74.840, 233 74.500 C 233.550 74.160, 234 72.832, 234 71.550 C 234 68.158, 243.705 58.819, 248.861 57.250 C 256.917 54.799, 263.849 56.008, 271.703 61.234 C 275.645 63.858, 277.247 65.922, 280.059 72 C 280.695 73.375, 281.617 75.281, 282.108 76.236 C 284.699 81.279, 282.753 90.784, 277.626 98.120 C 276.158 100.220, 268.346 106.085, 264.500 107.973 C 257.982 111.174, 249.942 117.211, 248.510 119.981 C 247.384 122.158, 247 126.306, 247 136.295 C 247 149.937, 246.139 153, 242.305 153 C 241.734 153, 238.844 153.948, 235.883 155.107 C 227.430 158.416, 222.550 160.361, 218.250 162.134 C 216.738 162.757, 214.600 163.613, 213.500 164.034 C 212.400 164.456, 209.367 165.746, 206.761 166.900 C 204.154 168.055, 201.432 169, 200.711 169 C 199.990 169, 198.972 169.372, 198.450 169.826 C 197.927 170.280, 195.475 171.262, 193 172.006 C 190.525 172.751, 188.050 173.648, 187.500 174 C 186.950 174.352, 184.475 175.249, 182 175.994 C 179.525 176.738, 177.073 177.720, 176.550 178.174 C 176.028 178.628, 174.592 179, 173.359 179 C 172.126 179, 170.840 179.450, 170.500 180 C 170.160 180.550, 168.810 181, 167.500 181 C 166.190 181, 164.840 181.450, 164.500 182 C 164.160 182.550, 162.810 183, 161.500 183 C 160.190 183, 158.840 183.450, 158.500 184 C 158.160 184.550, 156.810 185, 155.500 185 C 154.190 185, 152.840 185.450, 152.500 186 C 152.160 186.550, 150.810 187, 149.500 187 C 148.190 187, 146.840 187.450, 146.500 188 C 146.160 188.550, 145.247 189, 144.471 189 C 142.471 189, 133.200 193.363, 128.706 196.420 C 126.619 197.839, 124.551 199, 124.111 199 C 123.670 199, 122.495 199.900, 121.500 201 C 120.505 202.100, 119.283 203, 118.786 203 C 117.904 203, 113.204 206.448, 105.842 212.495 C 92.916 223.114, 88.232 227.008, 83.582 231 C 80.699 233.475, 74.362 238.875, 69.500 243 C 64.638 247.125, 58.315 252.525, 55.450 255 C 52.584 257.475, 47.174 261.975, 43.428 265 C 32.433 273.878, 31 275.673, 31 280.565 C 31 284.679, 35.989 295.995, 39.603 300.079 C 40.371 300.947, 41 301.991, 41 302.399 C 41 302.806, 42.350 305.102, 44 307.500 C 45.650 309.898, 47 312.272, 47 312.775 C 47 313.278, 47.900 314.505, 49 315.500 C 50.100 316.495, 51 317.722, 51 318.225 C 51 318.728, 52.350 321.102, 54 323.500 C 55.650 325.898, 57 328.272, 57 328.775 C 57 329.278, 57.900 330.505, 59 331.500 C 60.100 332.495, 61 333.845, 61 334.500 C 61 335.155, 61.900 336.505, 63 337.500 C 64.100 338.495, 65 339.845, 65 340.500 C 65 341.155, 65.900 342.505, 67 343.500 C 68.100 344.495, 69 345.707, 69 346.193 C 69 347.711, 81.075 365.307, 84.879 369.332 C 90.644 375.434, 96.158 377.445, 100.764 375.126 C 113.152 368.888, 115.050 367.812, 117.449 365.664 C 120.381 363.038, 124.961 359.808, 125.220 360.182 C 125.342 360.357, 125.679 403.282, 125.970 455.572 C 126.545 558.704, 126.125 551.537, 131.775 554.750 C 133.500 555.731, 160.375 556, 256.790 556 L 379.608 556 382.804 552.702 L 386 549.405 386 455.369 C 386 403.649, 386.264 361.070, 386.586 360.747 C 386.908 360.425, 389.354 361.812, 392.021 363.831 C 403.657 372.636, 407.817 374.503, 415.699 374.459 C 422.607 374.420, 423.156 374.244, 426.595 370.959 C 430.190 367.525, 444 347.871, 444 346.188 C 444 345.705, 444.900 344.495, 446 343.500 C 447.100 342.505, 448 341.278, 448 340.775 C 448 340.272, 449.350 337.898, 451 335.500 C 452.650 333.102, 454 330.728, 454 330.225 C 454 329.722, 454.900 328.495, 456 327.500 C 457.100 326.505, 458 325.278, 458 324.775 C 458 324.272, 459.350 321.898, 461 319.500 C 462.650 317.102, 464 314.852, 464 314.500 C 464 314.148, 465.350 311.898, 467 309.500 C 468.650 307.102, 470 304.840, 470 304.474 C 470 304.108, 470.935 302.495, 472.079 300.889 C 475.780 295.692, 482 282.791, 482 280.312 C 482 275.768, 476.446 268.583, 469.229 263.790 C 467.980 262.961, 465.280 260.756, 463.229 258.891 C 461.178 257.026, 457.925 254.264, 456 252.753 C 450.315 248.290, 443.819 242.955, 434.890 235.416 C 427.607 229.266, 420.624 223.509, 412.802 217.205 C 411.638 216.267, 409.069 214.148, 407.093 212.495 C 392.574 200.354, 377.423 191.140, 367 188.112 C 364.525 187.393, 361.719 186.399, 360.764 185.903 C 359.809 185.406, 358.148 185, 357.073 185 C 355.998 185, 354.840 184.550, 354.500 184 C 354.160 183.450, 352.810 183, 351.500 183 C 350.190 183, 348.840 182.550, 348.500 182 C 348.160 181.450, 346.810 181, 345.500 181 C 344.190 181, 342.840 180.550, 342.500 180 C 342.160 179.450, 340.810 179, 339.500 179 C 338.190 179, 336.840 178.550, 336.500 178 C 336.160 177.450, 335.002 177, 333.927 177 C 332.852 177, 331.191 176.603, 330.236 176.117 C 329.281 175.631, 327.150 174.678, 325.500 174 C 323.850 173.322, 321.719 172.369, 320.764 171.883 C 319.809 171.397, 318.431 171, 317.701 171 C 316.972 171, 314.513 170.100, 312.236 169 C 309.959 167.900, 307.619 167, 307.035 167 C 306.451 167, 305.191 166.603, 304.236 166.117 C 303.281 165.631, 301.150 164.678, 299.500 164 C 297.850 163.322, 295.719 162.369, 294.764 161.883 C 293.809 161.397, 292.549 161, 291.965 161 C 291.381 161, 289.041 160.100, 286.764 159 C 284.487 157.900, 281.899 157, 281.012 157 C 280.125 157, 278.972 156.642, 278.450 156.204 C 277.927 155.766, 275.700 154.811, 273.500 154.081 C 266.499 151.759, 266 150.847, 266 140.396 L 266 131.102 269.250 128.715 C 271.038 127.402, 274.750 125.050, 277.500 123.488 C 284.864 119.306, 294.622 109.524, 297.353 103.584 C 305.967 84.850, 302.733 62.472, 289.537 49.498 C 285.590 45.618, 277.737 41, 275.086 41 C 274.159 41, 272.931 40.531, 272.359 39.959 C 271.277 38.877, 249.014 37.726, 245.500 38.570 M 250 170.943 C 249.175 171.397, 247.375 172.226, 246 172.784 C 244.625 173.343, 241.367 174.746, 238.761 175.900 C 236.154 177.055, 233.609 178, 233.105 178 C 232.601 178, 230.234 178.964, 227.845 180.142 C 225.455 181.320, 222.600 182.626, 221.500 183.043 C 213.665 186.019, 209.291 188.609, 209.764 189.994 C 211.373 194.709, 227.358 208.260, 236 212.236 C 246.306 216.978, 262.560 218.736, 269.703 215.882 C 282.582 210.737, 292.835 204.005, 298.739 196.820 C 300.240 194.994, 301.700 193.275, 301.984 193 C 305.080 190, 305.066 189.179, 301.890 187.595 C 300.131 186.718, 298.323 186, 297.871 186 C 297.420 186, 294.103 184.650, 290.500 183 C 286.897 181.350, 283.750 180, 283.505 180 C 283.260 180, 280.683 178.919, 277.780 177.598 C 261.848 170.348, 254.347 168.551, 250 170.943 M 181.762 196.908 C 179.156 197.862, 176.719 198.948, 176.345 199.321 C 175.972 199.695, 174.643 200, 173.392 200 C 172.141 200, 170.840 200.450, 170.500 201 C 170.160 201.550, 168.810 202, 167.500 202 C 166.190 202, 164.840 202.450, 164.500 203 C 164.160 203.550, 162.810 204, 161.500 204 C 160.190 204, 158.840 204.450, 158.500 205 C 158.160 205.550, 157.189 206, 156.343 206 C 154.180 206, 138.397 213.683, 133.023 217.352 C 127.460 221.150, 125.809 222.456, 120.072 227.597 C 117.557 229.851, 114.600 232.410, 113.500 233.284 C 112.400 234.158, 106.997 238.614, 101.494 243.186 C 95.990 247.759, 90.064 252.625, 88.324 254 C 66.742 271.056, 56 281.229, 56 284.611 C 56 286.877, 60.476 296.051, 63.988 300.983 C 65.095 302.537, 66 304.232, 66 304.749 C 66 305.267, 66.900 306.505, 68 307.500 C 69.100 308.495, 70 309.722, 70 310.225 C 70 310.728, 71.350 313.102, 73 315.500 C 74.650 317.898, 76 320.272, 76 320.775 C 76 321.278, 76.900 322.505, 78 323.500 C 79.100 324.495, 80 325.703, 80 326.184 C 80 327.338, 95.635 350.656, 96.955 351.472 C 98.518 352.438, 104.457 349.325, 115.869 341.557 C 131.218 331.111, 133.811 329.830, 138.465 330.390 C 145.444 331.230, 145 324.145, 145 434.632 C 145 508.273, 145.301 535.068, 146.134 535.583 C 147.648 536.518, 356.293 537.483, 362.301 536.582 L 367 535.877 367 435.862 L 367 335.846 370.044 332.802 C 375.118 327.728, 379.146 328.989, 393.721 340.210 C 397.143 342.845, 400.350 345, 400.849 345 C 401.347 345, 402.297 345.653, 402.960 346.452 C 403.622 347.250, 406.349 348.992, 409.019 350.322 L 413.874 352.741 416.437 350.066 C 417.847 348.594, 419 346.922, 419 346.350 C 419 345.778, 419.900 344.495, 421 343.500 C 422.100 342.505, 423 341.343, 423 340.918 C 423 340.494, 425.250 336.749, 428 332.597 C 430.750 328.444, 433 324.656, 433 324.178 C 433 323.701, 433.900 322.495, 435 321.500 C 436.100 320.505, 437 319.289, 437 318.800 C 437 318.310, 439.250 314.575, 442 310.500 C 444.750 306.425, 447 302.802, 447 302.450 C 447 302.097, 447.888 300.561, 448.974 299.037 C 450.059 297.512, 452.578 293.191, 454.571 289.434 L 458.195 282.604 451.278 276.052 C 443.961 269.120, 435.058 261.447, 431.585 259.078 C 430.438 258.296, 427.443 255.821, 424.928 253.578 C 422.414 251.335, 419.264 248.641, 417.928 247.592 C 416.593 246.543, 413.886 244.293, 411.914 242.592 C 409.942 240.891, 406.348 237.925, 403.928 236 C 401.508 234.075, 396.807 230.250, 393.481 227.500 C 377.983 214.684, 368.571 209.705, 346.015 202.391 C 341.882 201.051, 337.719 199.515, 336.764 198.977 C 335.809 198.440, 334.148 198, 333.073 198 C 331.998 198, 330.872 197.602, 330.571 197.115 C 330.271 196.629, 328.740 196.042, 327.169 195.812 C 324.763 195.458, 324.105 195.872, 322.980 198.446 C 318.416 208.891, 297.650 226.960, 285.500 231.059 C 283.300 231.801, 281.072 232.766, 280.550 233.204 C 280.027 233.642, 278.655 234, 277.500 234 C 276.345 234, 274.878 234.522, 274.239 235.161 C 271.201 238.199, 238.687 236.262, 234.550 232.796 C 234.028 232.358, 232.806 232, 231.835 232 C 229.978 232, 221.610 227.704, 218.921 225.370 C 218.053 224.617, 217.004 224, 216.591 224 C 214.143 224, 197.828 208.244, 192.500 200.734 C 188.026 194.427, 188.286 194.520, 181.762 196.908" stroke="none" fill="#265237" fill-rule="evenodd"/>
</svg>