<svg xmlns="http://www.w3.org/2000/svg" width="96" height="96" viewBox="-45.0 -82.0 736 736">
	<path d="M 282 23.144 C 278.975 24.853, 273.350 27.922, 269.500 29.963 C 265.650 32.005, 260.700 34.720, 258.500 35.996 C 256.300 37.273, 249.550 40.884, 243.500 44.021 C 237.450 47.159, 230.700 50.760, 228.500 52.024 C 226.300 53.289, 218.650 57.336, 211.500 61.018 C 204.350 64.701, 196.700 68.756, 194.500 70.030 C 192.300 71.303, 184.498 75.396, 177.162 79.123 C 169.826 82.851, 163.301 86.330, 162.662 86.854 C 162.023 87.378, 154.300 91.493, 145.500 96 C 136.700 100.507, 129.003 104.601, 128.395 105.099 C 127.787 105.597, 120.362 109.537, 111.895 113.854 C 103.428 118.172, 94.700 122.747, 92.500 124.022 C 90.300 125.297, 83.550 128.887, 77.500 132 C 71.450 135.113, 64.700 138.714, 62.500 140.002 C 60.300 141.291, 52.650 145.342, 45.500 149.004 C 21.648 161.221, 20 162.480, 20 168.487 C 20 172.362, 20.525 173.130, 28.250 180.564 C 35.678 187.713, 44.231 195.259, 50.928 200.573 C 52.264 201.633, 55.414 204.335, 57.928 206.578 C 60.443 208.821, 63.438 211.296, 64.585 212.078 C 66.594 213.448, 71.388 217.453, 82.447 227 C 85.314 229.475, 91.526 234.817, 96.252 238.871 C 100.978 242.926, 104.615 246.751, 104.335 247.371 C 104.055 247.992, 98.403 252.100, 91.775 256.500 C 77.389 266.049, 78.743 265.131, 61.516 277 C 53.932 282.225, 46.891 286.990, 45.870 287.589 C 44.849 288.188, 43.188 289.425, 42.178 290.339 C 41.169 291.252, 39.885 292, 39.326 292 C 38.767 292, 37.495 292.900, 36.500 294 C 35.505 295.100, 34.134 296, 33.455 296 C 32.776 296, 31.228 298.111, 30.016 300.690 C 25.429 310.447, 27.330 311.935, 74.478 335.496 C 102.081 349.290, 110.133 353.735, 110.501 355.380 C 110.762 356.546, 111.093 377.300, 111.238 401.500 C 111.479 441.968, 111.645 445.713, 113.300 448.151 C 114.597 450.061, 126.631 456.579, 156.300 471.443 C 178.960 482.796, 203.125 495.038, 210 498.648 C 216.875 502.259, 242.750 515.444, 267.500 527.950 C 292.250 540.456, 314.300 551.723, 316.500 552.988 C 325.144 557.959, 321.864 559.237, 396.367 521.876 C 498.828 470.495, 532.973 453.186, 535.496 451.348 C 540.792 447.491, 540.969 445.641, 540.985 393.905 C 541.002 341.207, 540.486 345.315, 547.500 341.993 C 549.150 341.211, 551.681 339.778, 553.124 338.808 C 554.566 337.838, 559.291 335.175, 563.624 332.890 C 567.956 330.605, 572.625 327.991, 574 327.082 C 575.375 326.172, 577.850 324.783, 579.500 323.995 C 581.150 323.206, 584.300 321.409, 586.500 320 C 588.700 318.591, 591.850 316.791, 593.500 316 C 595.150 315.209, 598.381 313.310, 600.680 311.781 C 602.979 310.251, 605.148 309, 605.500 309 C 605.852 309, 608.102 307.650, 610.500 306 C 612.898 304.350, 615.141 303, 615.485 303 C 616.454 303, 627.795 295.140, 628.521 293.966 C 629.607 292.209, 629.239 284.353, 627.977 282.370 C 627.323 281.341, 623.630 278.250, 619.769 275.500 C 615.909 272.750, 612.163 269.938, 611.446 269.250 C 610.729 268.563, 609.873 268, 609.543 268 C 609.213 268, 606.143 265.836, 602.721 263.190 C 596.769 258.589, 585.586 250.612, 582.125 248.500 C 572.527 242.643, 553 226.607, 553 224.583 C 553 221.837, 555.528 219.422, 578 200.699 C 583.775 195.887, 590.789 189.963, 593.586 187.534 C 596.383 185.105, 600.883 181.356, 603.586 179.204 C 606.289 177.051, 609.357 174.325, 610.405 173.145 C 611.453 171.965, 612.744 171, 613.275 171 C 613.805 171, 617.560 167.768, 621.620 163.818 C 630.598 155.081, 631.405 151.472, 625.664 145.731 C 622.444 142.511, 619.527 140.896, 604.500 134.014 C 600.650 132.251, 580.850 122.589, 560.500 112.543 C 540.150 102.497, 519.724 92.527, 515.108 90.389 C 507.308 86.774, 477.551 72.007, 461.481 63.776 C 457.641 61.810, 449.895 57.902, 444.268 55.093 C 438.640 52.284, 432.565 49.163, 430.768 48.158 C 421.821 43.154, 419.036 44.524, 404.594 61.034 C 402.445 63.491, 393.220 73.172, 384.094 82.549 C 374.967 91.926, 364.650 102.614, 361.167 106.299 C 357.684 109.985, 354.309 113, 353.667 113 C 352.541 113, 347 106.753, 347 105.484 C 347 105.141, 345.650 102.898, 344 100.500 C 342.350 98.102, 341 95.852, 341 95.500 C 341 95.148, 339.650 92.898, 338 90.500 C 336.350 88.102, 335 85.852, 335 85.500 C 335 85.148, 333.650 82.898, 332 80.500 C 330.350 78.102, 329 75.728, 329 75.225 C 329 74.722, 328.100 73.495, 327 72.500 C 325.900 71.505, 325 70.278, 325 69.775 C 325 69.272, 323.650 66.898, 322 64.500 C 320.350 62.102, 319 59.852, 319 59.500 C 319 59.148, 317.650 56.898, 316 54.500 C 314.350 52.102, 313 49.852, 313 49.500 C 313 49.148, 311.650 46.898, 310 44.500 C 308.350 42.102, 307 39.852, 307 39.500 C 307 39.148, 305.749 36.979, 304.219 34.680 C 302.690 32.381, 300.797 29.231, 300.013 27.680 C 295.847 19.441, 290.803 18.170, 282 23.144 M 263.500 53.906 C 251.950 59.827, 240.700 65.710, 238.500 66.979 C 236.300 68.248, 228.650 72.299, 221.500 75.982 C 214.350 79.664, 206.700 83.716, 204.500 84.986 C 202.300 86.257, 193.750 90.756, 185.500 94.984 C 177.250 99.212, 168.700 103.722, 166.500 105.006 C 164.300 106.290, 157.391 109.948, 151.146 113.134 C 144.901 116.321, 139.276 119.347, 138.646 119.860 C 138.016 120.372, 131.200 124.035, 123.500 128 C 115.800 131.965, 109.050 135.565, 108.500 136 C 107.950 136.435, 101.425 139.930, 94 143.765 C 86.575 147.600, 78.250 152.047, 75.500 153.647 C 72.750 155.247, 65.775 158.921, 60 161.812 C 54.225 164.703, 48.434 167.883, 47.131 168.878 L 44.761 170.689 54.631 178.882 C 60.059 183.389, 66.462 188.747, 68.860 190.788 C 71.258 192.830, 74.940 195.850, 77.042 197.500 C 79.145 199.150, 82.583 201.848, 84.683 203.495 C 86.782 205.143, 90.620 208.463, 93.210 210.873 C 95.801 213.284, 98.951 215.965, 100.210 216.832 C 101.470 217.699, 104.525 220.294, 107 222.599 C 114.357 229.453, 120.866 234, 123.317 234 C 125.308 234, 173.276 210.436, 190.500 200.996 C 193.800 199.188, 212.250 189.736, 231.500 179.993 C 250.750 170.249, 272.350 159.225, 279.500 155.495 C 286.650 151.764, 301.221 144.300, 311.880 138.908 C 322.539 133.516, 332.278 128.148, 333.522 126.979 L 335.783 124.855 331.970 117.442 C 329.873 113.366, 327.222 108.716, 326.079 107.111 C 324.935 105.505, 324 103.892, 324 103.526 C 324 103.160, 322.650 100.898, 321 98.500 C 319.350 96.102, 318 93.852, 318 93.500 C 318 93.148, 316.650 90.898, 315 88.500 C 313.350 86.102, 312 83.852, 312 83.500 C 312 83.148, 310.732 80.979, 309.183 78.680 C 307.634 76.381, 305.617 72.874, 304.702 70.888 C 303.786 68.901, 302.354 66.708, 301.518 66.015 C 300.683 65.322, 300 64.351, 300 63.858 C 300 63.364, 298.762 61.057, 297.250 58.730 C 295.738 56.404, 294.275 54.023, 294 53.441 C 291.984 49.171, 287.235 43.016, 286 43.072 C 285.175 43.110, 275.050 47.985, 263.500 53.906 M 399.975 91.750 C 386.494 105.363, 373.463 118.641, 371.017 121.257 C 364.939 127.759, 363.752 126.704, 395.500 143.021 C 404.850 147.827, 417.450 154.349, 423.500 157.515 C 429.550 160.680, 444.400 168.328, 456.500 174.510 C 478.164 185.578, 499.947 196.781, 519.410 206.865 C 530.162 212.436, 533.707 213.086, 536.500 210 C 537.495 208.900, 538.685 208, 539.144 208 C 541.042 208, 566.936 186.841, 580.610 174.116 C 584.520 170.477, 590.708 164.885, 594.360 161.688 C 598.012 158.491, 600.985 155.341, 600.967 154.688 C 600.949 154.035, 597.237 151.670, 592.717 149.434 C 588.198 147.198, 578.200 142.174, 570.500 138.271 C 562.800 134.368, 528.150 117.147, 493.500 100.002 C 458.850 82.857, 429.719 68.417, 428.764 67.914 C 425.482 66.186, 424.418 67.068, 399.975 91.750 M 334.456 147.430 C 332.232 148.568, 329.082 150.380, 327.456 151.456 C 325.830 152.532, 310.550 160.466, 293.500 169.086 C 276.450 177.707, 256.200 188.023, 248.500 192.011 C 240.800 195.999, 221 206.103, 204.500 214.465 C 188 222.827, 169.550 232.299, 163.500 235.515 C 157.450 238.731, 150.598 242.293, 148.274 243.431 C 142.882 246.071, 142.956 247.003, 148.768 249.677 C 151.370 250.874, 157.100 253.504, 161.500 255.522 C 165.900 257.539, 174.450 261.567, 180.500 264.472 C 186.550 267.377, 194.875 271.329, 199 273.255 C 203.125 275.180, 212.125 279.463, 219 282.773 C 225.875 286.082, 234.650 290.245, 238.500 292.024 C 242.350 293.803, 251.800 298.307, 259.500 302.032 C 267.200 305.758, 275.750 309.788, 278.500 310.988 C 281.250 312.188, 287.553 315.157, 292.508 317.585 C 302.581 322.522, 304.411 322.808, 308 320 C 309.375 318.924, 310.853 318.034, 311.283 318.022 C 311.714 318.010, 316.762 314.850, 322.500 311 C 328.238 307.150, 333.200 304, 333.525 304 C 333.851 304, 335.891 302.575, 338.059 300.833 L 342 297.665 341.999 264.583 C 341.996 206.090, 340.780 146.125, 339.588 145.725 C 338.990 145.524, 336.680 146.291, 334.456 147.430 M 360.689 156.750 C 359.842 170.583, 359.945 299.142, 360.804 301.236 C 361.196 302.191, 363.064 304.033, 364.956 305.329 L 368.395 307.686 373.776 304.855 C 376.736 303.298, 380.360 301.209, 381.829 300.213 C 383.298 299.216, 387.650 296.868, 391.500 294.994 C 395.350 293.121, 400.300 290.425, 402.500 289.005 C 404.700 287.584, 408.750 285.332, 411.500 284 C 414.250 282.668, 418.300 280.422, 420.500 279.008 C 422.700 277.595, 425.845 275.778, 427.488 274.969 C 429.131 274.161, 433.286 271.813, 436.720 269.750 C 440.154 267.688, 443.228 266, 443.552 266 C 443.875 266, 446.021 264.749, 448.320 263.219 C 450.619 261.690, 453.850 259.791, 455.500 259 C 457.150 258.209, 460.300 256.409, 462.500 255 C 464.700 253.591, 467.850 251.791, 469.500 251 C 471.150 250.209, 474.300 248.409, 476.500 247 C 478.700 245.591, 481.850 243.791, 483.500 243 C 485.150 242.209, 488.381 240.310, 490.680 238.781 C 492.979 237.251, 495.148 236, 495.500 236 C 495.852 236, 498.021 234.749, 500.320 233.219 C 502.619 231.690, 505.792 229.785, 507.371 228.986 C 513.330 225.969, 512.343 224.594, 499.500 218.020 C 495.100 215.767, 489.475 212.736, 487 211.284 C 484.525 209.832, 473.950 204.285, 463.500 198.957 C 400.795 166.991, 382.158 157.362, 380.623 156.139 C 378.439 154.400, 363.812 147, 362.558 147 C 361.656 147, 361.112 149.839, 360.689 156.750 M 527.450 239.866 C 526.538 240.697, 520.520 244.077, 509.171 250.133 C 506.240 251.697, 502.640 253.785, 501.171 254.774 C 499.702 255.763, 497.150 257.215, 495.500 258 C 493.850 258.785, 491.375 260.172, 490 261.082 C 488.625 261.991, 483.900 264.634, 479.500 266.954 C 475.100 269.274, 471.050 271.545, 470.500 272 C 469.950 272.455, 465.900 274.726, 461.500 277.046 C 457.100 279.366, 452.375 282.009, 451 282.918 C 449.625 283.828, 447.150 285.217, 445.500 286.005 C 443.850 286.794, 440.700 288.591, 438.500 290 C 436.300 291.409, 433.150 293.209, 431.500 294 C 429.850 294.791, 426.700 296.591, 424.500 298 C 422.300 299.409, 419.150 301.209, 417.500 302 C 415.850 302.791, 412.700 304.591, 410.500 306 C 408.300 307.409, 405.150 309.209, 403.500 310 C 401.850 310.791, 398.619 312.690, 396.320 314.219 C 394.021 315.749, 391.891 317, 391.587 317 C 391.284 317, 388.094 318.800, 384.500 321 C 380.906 323.200, 377.716 325, 377.413 325 C 377.109 325, 374.979 326.251, 372.680 327.781 C 370.381 329.310, 367.155 331.222, 365.512 332.031 C 363.869 332.839, 359.819 335.102, 356.512 337.061 C 353.205 339.019, 348.874 341.373, 346.888 342.292 C 340.220 345.376, 340.239 346.223, 347.108 352.154 C 350.514 355.094, 355.639 359.525, 358.498 362 C 361.356 364.475, 364.776 367.356, 366.097 368.403 C 367.419 369.449, 370.557 372.149, 373.072 374.403 C 375.586 376.656, 378.736 379.359, 380.072 380.408 C 381.407 381.457, 384.114 383.707, 386.086 385.408 C 389.512 388.362, 396.566 394.128, 399.922 396.718 C 403.518 399.494, 414.388 395.946, 425.735 388.293 C 427.256 387.267, 429.850 385.785, 431.500 385 C 433.150 384.215, 435.708 382.759, 437.184 381.765 C 438.660 380.771, 444.285 377.665, 449.684 374.861 C 455.083 372.057, 460.625 369.007, 462 368.082 C 463.375 367.158, 467.650 364.871, 471.500 363 C 475.350 361.129, 479.625 358.849, 481 357.934 C 482.375 357.018, 488 353.902, 493.500 351.009 C 499 348.117, 503.960 345.386, 504.523 344.941 C 505.085 344.496, 508.010 342.822, 511.023 341.221 C 514.035 339.619, 518.188 337.340, 520.250 336.155 C 523.870 334.074, 526.784 332.407, 534.750 327.859 C 536.813 326.681, 540.525 324.598, 543 323.229 C 545.475 321.860, 548.175 320.213, 549 319.568 C 549.825 318.923, 552.750 317.312, 555.500 315.987 C 558.250 314.662, 562.300 312.422, 564.500 311.008 C 566.700 309.595, 569.850 307.794, 571.500 307.005 C 573.150 306.217, 575.702 304.763, 577.171 303.774 C 578.640 302.785, 582.240 300.701, 585.171 299.143 C 598.691 291.954, 603 289.149, 603 287.536 C 603 286.857, 599.620 283.871, 595.488 280.901 C 591.356 277.930, 584.833 273.137, 580.992 270.250 C 577.151 267.363, 573.787 265, 573.516 265 C 573.245 265, 572.230 264.354, 571.261 263.565 C 567.199 260.256, 559.943 255, 559.437 255 C 559.137 255, 557.453 253.652, 555.696 252.005 C 553.938 250.357, 551.975 249.007, 551.333 249.005 C 550.692 249.002, 550.017 248.646, 549.833 248.214 C 549.413 247.222, 544.639 243.872, 539.720 241.117 C 535.885 238.969, 529.184 238.286, 527.450 239.866 M 117.307 262.027 C 115.001 263.115, 112.845 264.442, 112.515 264.976 C 112.185 265.510, 110.359 266.685, 108.458 267.587 C 106.556 268.490, 105 269.627, 105 270.114 C 105 270.601, 104.535 271, 103.967 271 C 102.692 271, 81.628 285.011, 81.167 286.166 C 80.983 286.625, 80.266 287, 79.572 287 C 78.878 287, 77.495 287.900, 76.500 289 C 75.505 290.100, 74.155 291, 73.500 291 C 72.845 291, 71.495 291.900, 70.500 293 C 69.505 294.100, 68.155 295, 67.500 295 C 66.845 295, 65.495 295.900, 64.500 297 C 63.505 298.100, 62.169 299, 61.532 299 C 60.895 299, 59.129 300.299, 57.608 301.887 L 54.842 304.775 57.671 306.203 C 59.227 306.989, 61.400 308.144, 62.500 308.770 C 65.045 310.219, 149.148 351.556, 154.500 353.988 C 156.700 354.988, 177.651 365.300, 201.058 376.903 C 224.464 388.506, 244.240 398, 245.003 398 C 245.766 398, 247.540 396.904, 248.945 395.564 C 250.350 394.224, 253.154 391.862, 255.176 390.314 C 259.949 386.661, 270.293 377.870, 276 372.617 C 278.475 370.338, 282.075 367.194, 284 365.628 C 285.925 364.063, 289.975 360.463, 293 357.628 C 296.025 354.794, 300.188 351.220, 302.250 349.686 C 306.288 346.684, 307.052 344.274, 304.250 343.378 C 301.254 342.421, 298.981 341.380, 282 333.191 C 272.925 328.815, 260.100 322.655, 253.500 319.503 C 246.900 316.350, 236.100 311.170, 229.500 307.991 C 222.900 304.812, 214.350 300.766, 210.500 299 C 206.650 297.234, 198.100 293.177, 191.500 289.985 C 184.900 286.792, 177.250 283.196, 174.500 281.992 C 171.750 280.789, 164.325 277.343, 158 274.334 C 151.675 271.325, 145.600 268.501, 144.500 268.058 C 143.400 267.616, 140.475 266.343, 138 265.230 C 126.675 260.137, 122.638 259.512, 117.307 262.027 M 338.634 320.347 C 328.014 326.056, 321.194 333.797, 330.669 329.388 C 336.255 326.789, 344.775 321.028, 345.386 319.437 C 346.351 316.922, 344.554 317.164, 338.634 320.347 M 519 358.006 C 514.213 360.927, 504.048 366.710, 501.488 367.969 C 499.845 368.778, 496.700 370.595, 494.500 372.008 C 492.300 373.422, 488.250 375.665, 485.500 376.995 C 482.750 378.324, 479.375 380.158, 478 381.071 C 476.625 381.984, 471 385.102, 465.500 388 C 460 390.898, 454.375 394.012, 453 394.920 C 451.625 395.829, 449.150 397.217, 447.500 398.005 C 445.850 398.794, 442.700 400.595, 440.500 402.008 C 438.300 403.422, 434.250 405.668, 431.500 407 C 428.750 408.332, 424.700 410.582, 422.500 412 C 418.639 414.488, 412.116 417.743, 407.070 419.698 C 402.962 421.290, 397.676 418.626, 386.907 409.534 C 382.947 406.191, 381.608 405.115, 375.025 399.986 C 372.563 398.069, 369.937 395.931, 369.188 395.235 C 368.439 394.539, 366.178 392.739, 364.163 391.235 C 362.149 389.731, 359.880 387.912, 359.123 387.194 C 356.804 384.995, 338.639 371.573, 336.321 370.346 C 335.122 369.711, 333.885 369.449, 333.571 369.763 C 332.451 370.882, 332.941 530.845, 334.066 531.541 C 334.959 532.093, 465.223 467.677, 477.500 460.613 C 479.700 459.348, 490.153 453.911, 500.729 448.533 C 511.306 443.155, 520.361 438.247, 520.854 437.627 C 521.346 437.007, 522.091 420.075, 522.509 400 C 522.927 379.925, 523.322 362.162, 523.385 360.527 C 523.507 357.368, 521.726 356.343, 519 358.006 M 129.667 363.667 C 129.300 364.033, 129 380.650, 129 400.593 L 129 436.854 131.750 438.297 C 133.262 439.091, 138.100 441.655, 142.500 443.996 C 146.900 446.337, 176.600 461.403, 208.500 477.476 C 240.400 493.549, 271.450 509.306, 277.500 512.492 C 303.430 526.144, 311.457 530.039, 312.690 529.565 C 314.400 528.909, 314.656 368, 312.948 368 C 312.369 368, 307.610 371.262, 302.372 375.250 C 287.652 386.456, 285.133 388.481, 272.109 399.573 C 270.124 401.264, 267.478 403.338, 266.229 404.182 C 264.980 405.027, 262.195 407.349, 260.042 409.341 C 254.762 414.226, 247.082 419, 244.503 419 C 242.761 419, 179.450 387.702, 141.590 368.125 C 131.225 362.765, 130.747 362.586, 129.667 363.667" stroke="none" fill="#265237" fill-rule="evenodd"/>
</svg>