<svg xmlns="http://www.w3.org/2000/svg" width="96" height="96" viewBox="-60.0 -131.0 736 736">
	<path d="M 372.873 30.823 C 370.256 32.494, 366.584 35.351, 358.511 42 C 356.174 43.925, 353.190 46.359, 351.881 47.408 C 350.571 48.457, 347.872 50.707, 345.883 52.408 C 343.893 54.109, 339.673 57.525, 336.504 60 C 333.335 62.475, 328.378 66.525, 325.488 69 C 312.792 79.874, 309.544 82.588, 307.585 83.964 C 306.438 84.769, 303.925 86.874, 302 88.641 C 300.075 90.409, 296.848 93.126, 294.829 94.678 C 283.186 103.627, 280.167 106.126, 277.054 109.389 C 272.751 113.898, 272.504 113.889, 262.076 108.881 C 257.359 106.616, 252.600 104.429, 251.500 104.023 C 250.400 103.617, 247.545 102.320, 245.155 101.142 C 242.766 99.964, 240.399 99, 239.895 99 C 239.391 99, 236.846 98.055, 234.239 96.900 C 231.633 95.746, 228.600 94.440, 227.500 94 C 226.400 93.560, 223.367 92.254, 220.761 91.100 C 218.154 89.945, 215.651 89, 215.199 89 C 214.746 89, 212.431 88.061, 210.055 86.912 C 204.988 84.464, 195.726 84.931, 188.500 88 C 187.400 88.467, 185.150 89.128, 183.500 89.469 C 179.821 90.230, 174.650 91.535, 170 92.877 C 168.075 93.433, 164.813 94.363, 162.750 94.944 C 160.688 95.525, 157.313 96.481, 155.250 97.070 C 153.188 97.658, 150.375 98.367, 149 98.645 C 147.625 98.923, 145.600 99.533, 144.500 100 C 143.400 100.467, 141.375 101.072, 140 101.344 C 133.455 102.640, 123.321 105.279, 121.764 106.093 C 120.809 106.592, 119.539 107, 118.942 107 C 114.283 107, 110.754 115.966, 108.905 132.500 C 108.351 137.450, 107.446 145.325, 106.893 150 C 104.053 174.017, 103.944 173.429, 112 177.671 C 114.251 178.856, 113.682 178.988, 106.297 178.994 C 101.785 178.997, 96.835 179.508, 95.297 180.129 C 89.536 182.454, 79.301 187.541, 73.500 190.962 C 70.200 192.908, 65.250 195.607, 62.500 196.961 C 59.750 198.315, 55.700 200.582, 53.500 202 C 51.300 203.418, 47.475 205.598, 45 206.844 C 27.169 215.822, 23.441 221.909, 22.549 243.500 C 22.277 250.100, 21.791 260, 21.469 265.500 C 20.825 276.523, 22.066 280.303, 27.087 282.608 C 28.414 283.217, 31.455 284.680, 33.845 285.858 C 36.234 287.036, 38.737 288, 39.407 288 C 40.076 288, 42.487 288.900, 44.764 290 C 47.041 291.100, 49.381 292, 49.965 292 C 50.549 292, 51.882 292.534, 52.926 293.186 C 54.685 294.285, 54.326 294.913, 48.024 301.752 C 40.090 310.363, 39.937 310.897, 41.105 326 C 41.594 332.325, 42.410 344.700, 42.919 353.500 C 44.368 378.563, 44.068 377.776, 54 382.610 C 57.025 384.083, 72.550 391.686, 88.500 399.505 C 124.052 416.935, 134.619 422, 135.431 422 C 137.023 422, 150.743 429.094, 152.708 430.933 C 153.923 432.070, 155.610 433, 156.458 433 C 157.306 433, 158 433.450, 158 434 C 158 434.578, 161.167 435, 165.500 435 C 169.833 435, 173 434.578, 173 434 C 173 433.450, 173.397 433, 173.882 433 C 174.368 433, 176.606 431.313, 178.857 429.250 C 189.100 419.863, 193.772 416, 194.881 416 C 195.540 416, 197.844 414.200, 200 412 C 202.156 409.800, 204.400 408, 204.985 408 C 205.571 408, 207.951 405.938, 210.275 403.418 C 212.599 400.898, 216.037 398.189, 217.916 397.400 C 221.241 396.002, 222.985 394.580, 238.040 381 C 248.187 371.847, 249.192 371.306, 253.289 372.788 C 255.133 373.454, 257.996 374, 259.652 374 C 262.561 374, 270.298 377.343, 273.458 379.965 C 275.939 382.024, 275.207 389.060, 271.714 396.709 C 270.163 400.106, 270.441 412.591, 272.103 414.205 C 273.459 415.522, 288.399 423.056, 296.500 426.508 C 298.700 427.446, 303.425 429.570, 307 431.229 C 310.575 432.888, 314.400 434.576, 315.500 434.980 C 316.600 435.385, 319.455 436.680, 321.845 437.858 C 324.234 439.036, 326.601 440, 327.105 440 C 327.609 440, 330.154 440.945, 332.761 442.100 C 335.367 443.254, 338.400 444.559, 339.500 444.998 C 340.600 445.437, 343.257 446.571, 345.404 447.518 C 350.016 449.552, 356.502 448.807, 376 444 C 378.475 443.390, 382.413 442.465, 384.750 441.945 C 397.676 439.070, 398.466 438.904, 412.750 436.051 C 422.625 434.079, 433.558 431.775, 441.250 430.043 C 446.597 428.840, 459.658 426.141, 470.500 424 C 473.800 423.348, 478.300 422.448, 480.500 422 C 482.700 421.552, 486.975 420.695, 490 420.095 C 493.025 419.496, 497.525 418.529, 500 417.948 C 502.475 417.366, 506.300 416.491, 508.500 416.003 C 513.381 414.920, 521.125 413.132, 526.500 411.847 C 533.249 410.233, 546.654 407.278, 553 406.006 C 558.474 404.907, 566.936 403.157, 573 401.867 C 575.475 401.341, 578.850 400.640, 580.500 400.309 C 587.602 398.885, 588.238 397.704, 587.619 387.077 C 587.313 381.810, 586.589 373.450, 586.012 368.500 C 585.434 363.550, 584.545 355.225, 584.036 350 C 583.528 344.775, 582.611 335.550, 582 329.500 C 578.904 298.860, 577.471 280.453, 576.364 257.088 L 575.728 243.675 571.614 239.571 C 569.351 237.314, 564.959 234.227, 561.853 232.711 C 558.748 231.194, 555.655 229.289, 554.981 228.477 C 554.307 227.665, 553.313 227, 552.773 227 C 552.232 227, 549.790 225.650, 547.345 224 C 544.900 222.350, 542.689 221, 542.432 221 C 542.174 221, 539.001 219.200, 535.380 217 C 531.758 214.800, 528.540 213, 528.227 213 C 527.914 213, 526.947 212.371, 526.079 211.603 C 525.210 210.834, 521.575 208.655, 518 206.760 C 514.425 204.866, 509.925 202.346, 508 201.161 C 504.258 198.859, 496.092 198.221, 491.797 199.896 C 490.534 200.389, 487.475 201.340, 485 202.010 C 480.525 203.221, 479.048 203.727, 473.703 205.875 C 469.225 207.676, 466.158 207.205, 461.500 204 C 459.102 202.350, 456.713 201, 456.192 201 C 453.053 201, 453.063 198.094, 456.209 195.913 C 458.019 194.658, 461.131 192.252, 463.124 190.566 C 465.118 188.880, 472.037 183.225, 478.500 178 C 484.963 172.775, 491.995 166.985, 494.126 165.134 L 498 161.767 498 137.419 C 498 112.813, 496.734 94.347, 494.769 90.283 C 493.268 87.177, 488.043 83.936, 468.503 73.988 C 459.151 69.228, 449.700 64.301, 447.500 63.041 C 445.300 61.781, 438.325 58.055, 432 54.762 C 425.675 51.468, 420.050 48.423, 419.500 47.995 C 418.950 47.567, 410.486 43.118, 400.692 38.109 C 381.711 28.401, 378.135 27.464, 372.873 30.823 M 372.500 54.819 C 369.750 57.456, 366.562 60.263, 365.415 61.056 C 364.268 61.850, 360.951 64.525, 358.044 67 C 347.025 76.380, 345.444 77.685, 343.415 79.073 C 341.160 80.617, 333.470 87.061, 326.107 93.578 C 323.573 95.821, 320.478 98.345, 319.229 99.187 C 317.980 100.029, 315.280 102.260, 313.229 104.145 C 311.178 106.030, 308.470 108.286, 307.210 109.158 C 305.951 110.031, 302.721 112.827, 300.032 115.372 C 297.344 117.917, 294.821 120, 294.426 120 C 294.031 120, 291.575 121.912, 288.968 124.250 C 286.362 126.588, 281.201 130.975, 277.500 134 C 273.799 137.025, 268.685 141.344, 266.135 143.597 C 263.586 145.851, 260.412 148.551, 259.082 149.597 C 257.752 150.644, 254.827 153.122, 252.582 155.104 C 249.237 158.057, 229.491 174.653, 221.500 181.227 C 220.400 182.132, 215 186.631, 209.500 191.224 C 204 195.817, 198.470 200.288, 197.210 201.159 C 195.951 202.031, 192.801 204.735, 190.210 207.168 C 187.620 209.601, 184.470 212.301, 183.210 213.168 C 181.951 214.035, 178.801 216.714, 176.210 219.122 C 173.620 221.530, 170.069 224.625, 168.320 226 C 166.572 227.375, 160.947 232.090, 155.820 236.477 C 150.694 240.865, 145.644 245.140, 144.597 245.977 C 143.551 246.815, 140.346 249.525, 137.476 252 C 134.606 254.475, 129.655 258.525, 126.474 261 C 123.293 263.475, 118.622 267.335, 116.095 269.578 C 113.568 271.821, 110.562 274.296, 109.415 275.078 C 108.268 275.860, 105.118 278.390, 102.415 280.700 C 99.712 283.010, 95.250 286.733, 92.500 288.974 C 70.753 306.695, 64.859 311.963, 65.541 313.067 C 65.995 313.801, 86.433 323.926, 91.500 325.926 C 92.600 326.361, 95.455 327.680, 97.845 328.858 C 100.234 330.036, 103.894 331, 105.978 331 C 108.926 331, 109.883 331.444, 110.290 333 C 110.577 334.100, 111.642 335.003, 112.656 335.006 C 113.670 335.010, 115.789 335.685, 117.364 336.506 C 118.940 337.328, 120.852 338, 121.614 338 C 122.376 338, 123 338.450, 123 339 C 123 339.550, 124.013 340.003, 125.250 340.006 C 126.487 340.010, 128.789 340.685, 130.364 341.506 C 131.940 342.328, 133.804 343, 134.507 343 C 135.211 343, 136.045 343.675, 136.362 344.500 C 136.678 345.325, 137.851 346, 138.969 346 C 140.086 346, 141 346.392, 141 346.872 C 141 347.352, 142.820 348.035, 145.044 348.391 C 149.450 349.096, 153.045 350.789, 154.300 352.750 C 154.740 353.438, 155.887 354, 156.850 354 C 157.812 354, 159.140 354.540, 159.800 355.200 C 160.733 356.133, 161 356.047, 161 354.811 C 161 353.810, 162.203 352.997, 164.252 352.612 C 166.041 352.277, 168.779 350.652, 170.337 349.001 C 171.895 347.351, 173.505 346, 173.916 346 C 174.326 346, 175.264 344.875, 176 343.500 C 176.736 342.125, 177.824 340.998, 178.419 340.995 C 179.014 340.993, 180.850 339.753, 182.500 338.239 C 184.150 336.726, 187.075 334.203, 189 332.633 C 190.925 331.064, 194.525 327.896, 197 325.594 C 199.475 323.291, 202.522 320.704, 203.771 319.845 C 205.020 318.985, 207.720 316.740, 209.771 314.855 C 211.822 312.970, 214.530 310.714, 215.790 309.842 C 217.049 308.969, 220.208 306.286, 222.809 303.878 C 227.151 299.859, 235.115 292.983, 242.440 286.930 C 245.019 284.799, 249.963 280.489, 256.415 274.746 C 257.499 273.781, 260.324 272.053, 262.693 270.906 C 265.062 269.760, 267 268.412, 267 267.911 C 267 267.410, 267.563 266.987, 268.250 266.971 C 268.938 266.955, 272.050 264.593, 275.166 261.721 C 278.282 258.850, 284.320 253.575, 288.584 250 C 292.847 246.425, 298.666 241.475, 301.514 239 C 304.363 236.525, 309.744 232.025, 313.473 229 C 317.201 225.975, 322.108 221.877, 324.376 219.893 C 328.228 216.524, 362.558 187.809, 367.928 183.464 C 369.264 182.384, 372.414 179.656, 374.928 177.403 C 377.443 175.149, 380.600 172.449, 381.943 171.403 C 383.287 170.356, 386.887 167.244, 389.943 164.488 C 400.903 154.601, 411.906 147, 415.256 147 C 418.895 147, 424 153.682, 424 158.446 C 424 161.175, 420.290 165.160, 409.518 174 C 405.831 177.025, 401.169 180.891, 399.158 182.592 C 397.146 184.293, 394.407 186.543, 393.072 187.592 C 391.736 188.641, 388.586 191.306, 386.072 193.513 C 380.647 198.276, 370.487 206.863, 367.072 209.573 C 365.736 210.633, 362.586 213.335, 360.072 215.578 C 357.557 217.821, 354.470 220.351, 353.210 221.200 C 351.951 222.049, 348.801 224.735, 346.210 227.168 C 343.620 229.601, 340.562 232.246, 339.415 233.046 C 337.069 234.682, 329.027 241.443, 322.107 247.597 C 319.573 249.851, 316.600 252.410, 315.500 253.284 C 314.400 254.158, 308.775 258.829, 303 263.664 C 297.225 268.499, 291.644 273.140, 290.597 273.978 C 284.111 279.167, 277.225 285.772, 275.540 288.420 C 274.462 290.114, 272.911 291.910, 272.093 292.410 C 271.275 292.911, 267.836 295.836, 264.452 298.910 C 257.254 305.449, 246.534 314.807, 243.081 317.567 C 241.750 318.630, 237.860 321.975, 234.436 325 C 231.013 328.025, 225.191 332.975, 221.500 336 C 217.809 339.025, 212 343.975, 208.592 347 C 205.183 350.025, 200.743 353.962, 198.724 355.750 C 196.705 357.538, 194.574 359, 193.988 359 C 193.402 359, 191.028 360.842, 188.711 363.093 C 186.395 365.343, 183.488 367.582, 182.250 368.068 C 181.012 368.553, 180 369.762, 180 370.753 C 180 371.744, 179.100 373.326, 178 374.268 C 176.432 375.611, 175.998 377.224, 175.993 381.740 C 175.989 384.908, 175.694 390.590, 175.337 394.367 C 174.690 401.218, 174.694 401.232, 177.018 400.494 C 178.298 400.088, 180.253 398.910, 181.362 397.878 C 182.470 396.845, 183.666 396, 184.020 396 C 184.373 396, 185.264 394.875, 186 393.500 C 186.736 392.125, 187.979 391, 188.763 391 C 189.546 391, 190.410 390.148, 190.682 389.107 C 190.959 388.048, 192.370 386.976, 193.884 386.673 C 195.403 386.369, 197.195 385.005, 197.965 383.566 C 198.720 382.155, 200.049 380.985, 200.919 380.967 C 202.557 380.932, 207 377.682, 207 376.518 C 207 375.662, 209.228 373.439, 210.615 372.911 C 211.714 372.492, 218.594 366.783, 226.893 359.403 C 229.427 357.149, 232.589 354.449, 233.919 353.403 C 235.250 352.356, 239.140 349.025, 242.564 346 C 245.987 342.975, 251.813 338.025, 255.509 335 C 259.205 331.975, 264.315 327.673, 266.865 325.439 C 269.414 323.206, 272.850 320.357, 274.500 319.108 C 276.150 317.858, 279.386 315.073, 281.691 312.918 C 283.996 310.763, 286.187 309, 286.559 309 C 287.212 309, 290.878 306.031, 297.784 299.910 C 299.590 298.310, 301.615 296.998, 302.284 296.995 C 302.953 296.993, 304.862 295.755, 306.528 294.245 C 308.193 292.735, 312.468 289.037, 316.028 286.026 C 319.587 283.016, 322.725 280.316, 323 280.026 C 323.707 279.283, 335.013 269.740, 337.928 267.427 C 339.264 266.367, 342.414 263.665, 344.928 261.422 C 347.443 259.179, 350.530 256.649, 351.790 255.800 C 353.049 254.951, 356.199 252.265, 358.790 249.832 C 361.380 247.399, 364.449 244.754, 365.609 243.954 C 366.769 243.154, 369.787 240.700, 372.316 238.500 C 374.846 236.300, 379.911 232.025, 383.572 229 C 387.234 225.975, 392.315 221.665, 394.865 219.422 C 397.414 217.179, 400.530 214.649, 401.790 213.800 C 403.049 212.951, 406.199 210.265, 408.790 207.832 C 411.380 205.399, 414.530 202.699, 415.790 201.832 C 417.049 200.965, 420.199 198.265, 422.790 195.832 C 425.380 193.399, 428.438 190.754, 429.585 189.954 C 430.732 189.154, 434.042 186.475, 436.942 184 C 446.383 175.941, 448.379 174.338, 457.500 167.487 C 462.450 163.769, 466.650 160.338, 466.833 159.863 C 467.017 159.388, 467.709 159, 468.371 159 C 469.825 159, 478.320 150.379, 479.884 147.316 C 481.065 145.005, 481.166 135.079, 480.126 123.579 L 479.500 116.657 474.836 120.579 C 468.105 126.237, 462.613 130.653, 457.224 134.738 C 454.626 136.707, 452.350 138.697, 452.167 139.159 C 451.983 139.622, 451.251 140, 450.539 140 C 449.827 140, 448.628 140.744, 447.874 141.652 C 444.520 145.693, 432.034 154, 429.314 154 C 424.307 154, 421.112 142.812, 424.598 137.490 C 426.955 133.893, 448.440 115.286, 462.500 104.664 C 466.350 101.756, 469.500 98.767, 469.500 98.022 C 469.500 97.278, 465.900 94.789, 461.500 92.492 C 457.100 90.195, 451.700 87.274, 449.500 86 C 447.300 84.727, 439.875 80.778, 433 77.226 C 426.125 73.673, 418.475 69.617, 416 68.212 C 413.525 66.808, 405.441 62.579, 398.036 58.815 C 390.630 55.051, 384.128 51.528, 383.586 50.986 C 381.333 48.733, 377.446 50.077, 372.500 54.819 M 197.500 104.970 C 196.400 105.429, 192.800 106.342, 189.500 106.998 C 186.200 107.654, 182.466 108.598, 181.203 109.095 C 179.940 109.593, 177.604 110, 176.012 110 C 174.420 110, 172.840 110.450, 172.500 111 C 172.160 111.550, 170.360 112, 168.500 112 C 166.640 112, 164.840 112.450, 164.500 113 C 164.160 113.550, 162.928 114, 161.762 114 C 160.596 114, 158.260 114.420, 156.571 114.932 C 154.882 115.445, 151.606 116.411, 149.291 117.079 L 145.081 118.293 181.780 136.647 C 201.964 146.741, 219.165 155, 220.004 155 C 221.466 155, 234.145 145.414, 234.833 143.787 C 235.017 143.354, 235.692 142.995, 236.333 142.989 C 236.975 142.983, 239.300 141.292, 241.500 139.232 C 243.700 137.171, 247.624 133.913, 250.219 131.992 C 255.833 127.838, 256.038 126.920, 251.750 125.137 C 249.963 124.395, 245.716 122.485, 242.313 120.893 C 238.910 119.302, 235.690 118, 235.158 118 C 234.625 118, 232.234 117.036, 229.845 115.858 C 227.455 114.680, 224.600 113.394, 223.500 113 C 222.400 112.606, 219.545 111.320, 217.155 110.142 C 214.766 108.964, 212.029 108, 211.072 108 C 210.116 108, 209.025 107.692, 208.648 107.315 C 207.951 106.617, 200.912 103.987, 200 104.083 C 199.725 104.112, 198.600 104.511, 197.500 104.970 M 126.549 133.250 C 126.335 133.938, 125.880 140.200, 125.537 147.166 L 124.913 159.832 128.206 162.253 C 130.018 163.585, 133.300 165.472, 135.500 166.445 C 143.234 169.867, 150.596 173.271, 160.500 178.004 C 175.918 185.372, 180.309 186.607, 184.039 184.623 C 191.945 180.417, 206 171.431, 206 170.582 C 206 170.393, 202.512 168.548, 198.250 166.482 C 193.988 164.417, 176.529 155.813, 159.452 147.363 C 126.486 131.050, 127.144 131.333, 126.549 133.250 M 100 196.983 C 96.820 199.059, 87.121 204.454, 78.489 208.949 C 73.533 211.529, 68.205 214.475, 66.649 215.494 C 65.093 216.514, 62.422 218.098, 60.713 219.014 C 59.005 219.930, 57.474 221.090, 57.312 221.590 C 56.964 222.664, 61.641 225, 64.140 225 C 65.098 225, 66.160 225.450, 66.500 226 C 66.840 226.550, 67.998 227, 69.073 227 C 70.148 227, 71.809 227.434, 72.764 227.965 C 73.719 228.496, 78.775 230.320, 84 232.019 C 89.225 233.718, 94.400 235.503, 95.500 235.988 C 96.600 236.472, 99.300 237.441, 101.500 238.142 C 103.700 238.844, 105.950 239.722, 106.500 240.096 C 110.043 242.499, 115.644 242.066, 119.545 239.087 C 121.720 237.426, 125.467 234.590, 127.872 232.784 C 130.277 230.978, 134.162 227.925, 136.506 226 C 138.850 224.075, 144.757 219.255, 149.634 215.288 C 154.510 211.321, 159.815 206.844, 161.421 205.339 L 164.342 202.602 161.421 201.695 C 150.894 198.426, 103.373 194.781, 100 196.983 M 432.164 215.027 C 428.639 218.258, 428.207 219, 429.855 219 C 430.970 219, 432.160 218.550, 432.500 218 C 432.840 217.450, 433.940 217, 434.945 217 C 435.949 217, 437.980 216.373, 439.457 215.607 L 442.143 214.213 439.849 212.607 C 436.873 210.522, 437.188 210.423, 432.164 215.027 M 496 219 C 495.175 219.533, 493.481 219.976, 492.236 219.985 C 490.991 219.993, 489.191 220.406, 488.236 220.903 C 487.281 221.399, 484.475 222.364, 482 223.047 C 473.492 225.394, 464.497 228.232, 462.764 229.115 C 461.809 229.602, 460.148 230, 459.073 230 C 457.998 230, 456.840 230.450, 456.500 231 C 456.160 231.550, 454.810 232, 453.500 232 C 452.190 232, 450.840 232.450, 450.500 233 C 450.160 233.550, 448.810 234, 447.500 234 C 446.190 234, 444.840 234.450, 444.500 235 C 444.160 235.550, 442.810 236, 441.500 236 C 440.190 236, 438.840 236.450, 438.500 237 C 438.160 237.550, 437.060 238, 436.055 238 C 435.051 238, 433.017 238.629, 431.535 239.397 L 428.842 240.795 433.351 243.897 C 435.831 245.604, 438.272 247, 438.775 247 C 439.278 247, 440.505 247.900, 441.500 249 C 442.495 250.100, 443.722 251, 444.225 251 C 444.728 251, 447.102 252.350, 449.500 254 C 451.898 255.650, 454.148 257, 454.500 257 C 454.852 257, 457.102 258.350, 459.500 260 C 461.898 261.650, 464.084 263, 464.357 263 C 464.630 263, 468.319 265.295, 472.555 268.100 C 478.970 272.348, 480.611 273.033, 482.378 272.198 C 483.545 271.646, 487.200 270.199, 490.500 268.983 C 493.800 267.766, 498.408 265.922, 500.739 264.885 C 503.071 263.848, 505.568 263, 506.289 263 C 507.010 263, 508.027 262.622, 508.550 262.160 C 509.072 261.698, 511.075 260.724, 513 259.994 C 514.925 259.264, 519.650 257.219, 523.500 255.449 C 527.350 253.678, 533.538 250.843, 537.250 249.147 C 543.243 246.410, 545.914 244, 542.955 244 C 542.380 244, 538.575 241.750, 534.500 239 C 530.425 236.250, 526.814 234, 526.475 234 C 526.137 234, 523.898 232.650, 521.500 231 C 519.102 229.350, 516.728 228, 516.225 228 C 515.722 228, 514.495 227.100, 513.500 226 C 512.505 224.900, 511.325 224, 510.880 224 C 510.434 224, 507.941 222.650, 505.339 221 C 500.340 217.830, 498.440 217.423, 496 219 M 41.636 239.507 C 40.298 240.845, 40 243.392, 40 253.483 L 40 265.822 43.077 268.411 C 44.769 269.835, 46.574 271, 47.088 271 C 47.601 271, 49.929 271.844, 52.261 272.875 C 71.638 281.448, 70.709 281.594, 86.859 267.430 C 89.412 265.191, 92.963 262.348, 94.750 261.112 C 99.304 257.962, 99.024 257.597, 89.750 254.591 C 80.064 251.452, 71.208 248.215, 68.764 246.920 C 67.809 246.414, 66.148 246, 65.073 246 C 63.998 246, 62.840 245.550, 62.500 245 C 62.160 244.450, 60.810 244, 59.500 244 C 58.190 244, 56.840 243.550, 56.500 243 C 56.160 242.450, 54.810 242, 53.500 242 C 52.190 242, 50.840 241.550, 50.500 241 C 50.160 240.450, 48.874 240, 47.641 240 C 46.408 240, 44.921 239.521, 44.336 238.936 C 43.583 238.183, 42.792 238.351, 41.636 239.507 M 390.339 250.777 C 386.651 254.077, 380.686 258.931, 373.003 264.884 L 370.507 266.818 373.503 268.017 C 375.151 268.676, 377.281 269.617, 378.236 270.108 C 382.197 272.143, 386.872 270.072, 386.968 266.239 C 387.008 264.645, 390.819 256.299, 393.012 253 C 397.401 246.400, 396.276 245.464, 390.339 250.777 M 409.513 259.622 C 408.681 261.614, 408 263.720, 408 264.301 C 408 265.665, 406.012 271.991, 404.877 274.236 C 404.395 275.191, 404 276.569, 404 277.299 C 404 278.028, 403.100 280.487, 402 282.764 C 400.900 285.041, 400 287.317, 400 287.823 C 400 291.596, 377.732 318, 374.550 318 C 374.171 318, 371.979 319.251, 369.680 320.781 C 367.381 322.310, 364.375 324.047, 363 324.641 C 355.210 328.006, 333.918 339.210, 329.963 342.026 C 328.439 343.112, 326.899 344, 326.543 344 C 326.186 344, 324.332 345.061, 322.424 346.358 C 318.499 349.025, 318.611 349.208, 326.500 353.011 C 329.250 354.337, 333.300 356.578, 335.500 357.992 C 337.700 359.405, 340.850 361.212, 342.500 362.008 C 344.150 362.804, 347.300 364.578, 349.500 365.952 C 358.117 371.331, 361.826 372.201, 367.203 370.104 C 368.466 369.611, 371.525 368.668, 374 368.007 C 376.475 367.346, 379.281 366.399, 380.236 365.903 C 381.191 365.406, 382.660 365, 383.500 365 C 384.340 365, 385.809 364.594, 386.764 364.097 C 387.719 363.601, 390.525 362.623, 393 361.924 C 395.475 361.224, 397.927 360.280, 398.450 359.826 C 398.972 359.372, 400.408 359, 401.641 359 C 402.874 359, 404.160 358.550, 404.500 358 C 404.840 357.450, 405.998 357, 407.073 357 C 408.148 357, 409.809 356.586, 410.764 356.080 C 411.719 355.574, 415.200 354.180, 418.500 352.982 C 421.800 351.785, 425.400 350.461, 426.500 350.041 C 427.600 349.621, 430.300 348.727, 432.500 348.056 C 446.641 343.737, 461.919 327.444, 467.393 310.843 C 469.562 304.265, 470.520 288.676, 468.841 287.285 C 467.497 286.172, 460.712 282.471, 445.204 274.393 C 440.642 272.016, 435.622 269.155, 434.050 268.036 C 432.478 266.916, 430.892 266, 430.526 266 C 430.160 266, 427.898 264.650, 425.500 263 C 423.102 261.350, 420.771 259.990, 420.320 259.978 C 419.869 259.966, 418.375 259.076, 417 258 C 413.249 255.066, 411.235 255.502, 409.513 259.622 M 549.500 264.225 C 547.300 265.352, 544.600 266.617, 543.500 267.037 C 542.400 267.457, 539.367 268.746, 536.761 269.900 C 534.154 271.055, 531.651 272, 531.199 272 C 530.746 272, 528.513 272.900, 526.236 274 C 523.959 275.100, 521.709 276, 521.236 276 C 520.763 276, 518.513 276.900, 516.236 278 C 513.959 279.100, 511.667 280, 511.143 280 C 510.618 280, 508.234 280.964, 505.845 282.142 C 501.466 284.301, 498.961 285.352, 495.756 286.376 C 493.546 287.082, 490.009 292.810, 490.004 295.691 C 490.002 296.896, 489.550 298.160, 489 298.500 C 488.450 298.840, 488 300.072, 488 301.238 C 488 303.490, 486.337 309.347, 484.877 312.236 C 484.395 313.191, 484 314.852, 484 315.927 C 484 317.002, 483.550 318.160, 483 318.500 C 482.450 318.840, 482 319.946, 482 320.957 C 482 322.936, 477.299 332.367, 474.012 336.983 C 472.905 338.537, 472 340.072, 472 340.393 C 472 341.635, 463.025 352.673, 459.310 356 C 454.565 360.249, 451.619 362, 449.214 362 C 448.216 362, 446.972 362.369, 446.450 362.820 C 445.928 363.271, 442.125 364.702, 438 366 C 433.875 367.298, 430.072 368.729, 429.550 369.180 C 429.028 369.631, 427.592 370, 426.359 370 C 425.126 370, 423.895 370.361, 423.622 370.802 C 423.350 371.243, 420.820 372.232, 418 373 C 415.180 373.768, 412.650 374.757, 412.378 375.198 C 412.105 375.639, 410.810 376, 409.500 376 C 408.190 376, 406.840 376.450, 406.500 377 C 406.160 377.550, 404.810 378, 403.500 378 C 402.190 378, 400.840 378.450, 400.500 379 C 400.160 379.550, 398.810 380, 397.500 380 C 396.190 380, 394.840 380.450, 394.500 381 C 394.160 381.550, 392.810 382, 391.500 382 C 390.190 382, 388.840 382.450, 388.500 383 C 388.160 383.550, 386.810 384, 385.500 384 C 384.190 384, 382.840 384.450, 382.500 385 C 382.160 385.550, 381.078 386, 380.095 386 C 377.902 386, 372.545 388.597, 371.285 390.271 C 369.775 392.278, 367.480 401.672, 365.490 414 C 365.179 415.925, 364.567 419.677, 364.130 422.339 L 363.336 427.178 366.418 426.551 C 368.113 426.206, 371.525 425.512, 374 425.008 C 376.475 424.504, 380.750 423.601, 383.500 423 C 386.250 422.399, 390.525 421.499, 393 421 C 395.475 420.501, 399.525 419.660, 402 419.133 C 404.475 418.606, 408.300 417.874, 410.500 417.508 C 412.700 417.141, 415.400 416.462, 416.500 416 C 417.600 415.538, 420.300 414.859, 422.500 414.492 C 424.700 414.126, 428.413 413.415, 430.750 412.913 C 433.087 412.411, 436.913 411.590, 439.250 411.088 C 441.587 410.586, 445.975 409.667, 449 409.044 C 452.025 408.422, 456.300 407.524, 458.500 407.049 C 460.700 406.574, 465.200 405.652, 468.500 405 C 471.800 404.348, 476.525 403.386, 479 402.862 C 481.475 402.337, 485.525 401.507, 488 401.017 C 490.475 400.526, 494.525 399.644, 497 399.057 C 499.475 398.469, 503.750 397.521, 506.500 396.951 C 509.250 396.380, 513.525 395.462, 516 394.912 C 518.475 394.361, 521.850 393.675, 523.500 393.387 C 525.150 393.099, 527.400 392.475, 528.500 392 C 529.600 391.525, 531.850 390.910, 533.500 390.633 C 536.370 390.151, 542.484 388.786, 550 386.947 C 551.925 386.477, 555.300 385.701, 557.500 385.223 C 559.700 384.746, 562.810 383.713, 564.410 382.927 L 567.320 381.500 567.093 372.547 C 566.969 367.622, 566.646 363.236, 566.376 362.800 C 565.830 361.916, 564.372 346.991, 562.977 328 C 562.472 321.125, 561.586 310.100, 561.009 303.500 C 560.432 296.900, 559.563 286.325, 559.078 280 C 557.596 260.659, 557.327 260.217, 549.500 264.225 M 349.230 284 C 348.050 285.100, 346.794 286, 346.440 286 C 345.787 286, 339.215 291.555, 329.512 300.310 C 324.358 304.959, 324.226 305.208, 325.557 307.772 C 327.155 310.852, 334.273 314.889, 338.220 314.955 C 340.771 314.997, 345.209 312.963, 351 309.097 C 352.375 308.179, 354.738 306.806, 356.250 306.045 C 357.762 305.284, 359 304.288, 359 303.831 C 359 303.374, 359.584 303, 360.298 303 C 361.012 303, 364.866 299.787, 368.864 295.860 L 376.132 288.720 373.316 287.439 C 361.337 281.988, 352.712 280.756, 349.230 284 M 301.829 328.791 C 297.937 331.663, 293.452 335.369, 284.030 343.500 C 280.844 346.250, 276.383 349.988, 274.118 351.806 C 269.151 355.795, 268.962 357.438, 273.250 359.374 C 280.223 362.522, 280.436 362.465, 282.985 356.759 C 286.502 348.886, 289.371 345.075, 294.976 340.833 C 297.761 338.725, 300.288 337, 300.590 337 C 300.892 337, 303.021 335.726, 305.320 334.168 C 307.619 332.611, 310.288 331.050, 311.250 330.700 C 313.901 329.735, 313.361 328.532, 309.679 327.201 C 305.551 325.708, 306.179 325.581, 301.829 328.791 M 60.321 346.632 C 60.672 354.260, 61.220 361.400, 61.537 362.500 C 62.483 365.774, 73.325 372.027, 94.500 381.512 C 97.800 382.990, 104.100 385.905, 108.500 387.989 C 112.900 390.074, 118.300 392.552, 120.500 393.496 C 122.700 394.440, 127.425 396.570, 131 398.229 C 134.575 399.888, 138.400 401.583, 139.500 401.996 C 140.600 402.409, 143.525 403.665, 146 404.788 C 154.756 408.759, 154.800 408.739, 155.172 400.636 C 155.765 387.728, 154.965 378.923, 153.137 378.231 C 152.237 377.891, 150.906 377.025, 150.180 376.307 C 149.454 375.590, 147.659 374.701, 146.190 374.333 C 144.721 373.964, 142.983 373.126, 142.328 372.471 C 141.672 371.815, 138.409 370.428, 135.076 369.389 C 131.744 368.350, 129.013 367.163, 129.009 366.750 C 129.004 366.337, 128.100 366, 127 366 C 125.900 366, 125 365.550, 125 365 C 125 364.450, 124.100 364, 123 364 C 121.900 364, 121 363.550, 121 363 C 121 362.450, 120.100 362, 119 362 C 117.900 362, 117 361.556, 117 361.013 C 117 359.824, 111.273 357.329, 106.475 356.429 C 104.564 356.071, 103 355.377, 103 354.889 C 103 354.400, 102.100 354, 101 354 C 99.900 354, 99 353.550, 99 353 C 99 352.450, 98.100 352, 97 352 C 95.900 352, 95 351.550, 95 351 C 95 350.450, 94.152 350, 93.117 350 C 92.081 350, 91.020 349.184, 90.759 348.187 C 90.498 347.189, 87.636 345.114, 84.393 343.571 C 68.283 335.906, 64.309 334.104, 62.091 333.462 L 59.683 332.764 60.321 346.632 M 521.872 350.654 C 518.775 354.387, 521.953 366, 526.072 366 C 526.470 366, 529.654 367.700, 533.148 369.777 C 544.627 376.602, 551.571 377.831, 554.385 373.535 C 557.655 368.544, 555.872 364.766, 547.755 359.492 C 533.196 350.032, 524.774 347.157, 521.872 350.654 M 301.573 367.154 C 300.708 368.888, 300 371.112, 300 372.095 C 300 373.078, 299.550 374.160, 299 374.500 C 298.450 374.840, 298 375.998, 298 377.073 C 298 378.148, 297.594 379.809, 297.097 380.764 C 296.601 381.719, 295.654 384.525, 294.993 387 C 294.332 389.475, 293.389 392.534, 292.896 393.797 C 290.429 400.123, 291.552 402.575, 298.437 405.895 C 301.977 407.603, 305.152 409, 305.491 409 C 305.830 409, 310.784 411.250, 316.500 414 C 322.216 416.750, 327.146 419, 327.457 419 C 327.768 419, 329.929 419.850, 332.261 420.889 C 346.121 427.067, 345.918 427.119, 347.099 417.083 C 347.525 413.462, 348.386 406.900, 349.011 402.500 C 351.126 387.622, 351.856 389.260, 340.500 383.418 C 322.487 374.153, 313.397 369.276, 309.185 366.617 C 303.930 363.300, 303.480 363.331, 301.573 367.154" stroke="none" fill="#265237" fill-rule="evenodd"/>
</svg>