<svg xmlns="http://www.w3.org/2000/svg" width="96" height="96" viewBox="-91.0 -76.0 736 736">
	<path d="M 160.357 25.387 C 155.608 28.026, 154.897 29.015, 151.248 38.062 C 150.679 39.471, 150.192 47.796, 150.164 56.562 L 150.113 72.500 146.199 76 C 144.046 77.925, 140.533 80.444, 138.392 81.598 C 136.252 82.752, 132.363 84.889, 129.750 86.348 C 127.138 87.807, 122.862 90.177, 120.250 91.615 C 117.638 93.054, 114.306 95.079, 112.846 96.115 C 111.386 97.152, 109.899 98, 109.541 98 C 107.401 98, 90.181 110.843, 83.400 117.496 C 63.458 137.063, 60 153.640, 60 229.688 C 60 279.814, 60.683 276.237, 48.491 289.981 C 38.551 301.188, 33.220 310.687, 31.647 320 C 30.198 328.579, 29.617 466.420, 30.946 486.500 C 32.320 507.285, 35.825 525.562, 39.180 529.450 C 39.631 529.973, 40 530.961, 40 531.646 C 40 533.454, 46.453 543.990, 49.713 547.505 C 54.444 552.606, 62.019 557.859, 70 561.575 C 83.002 567.627, 80.647 567.500, 180 567.500 C 271.554 567.500, 279.628 567.214, 283.450 563.839 C 283.972 563.378, 284.961 563, 285.646 563 C 287.803 563, 299.217 555.840, 303.849 551.583 C 315.120 541.221, 319.860 532.343, 326.053 510 C 327.653 504.226, 328.627 215.160, 327.109 196.500 C 325.858 181.122, 324.160 173.185, 320.051 163.500 C 319.584 162.400, 318.624 159.925, 317.917 158 C 316.816 155, 309.795 143.563, 308.075 141.966 C 307.759 141.673, 297.354 131.098, 284.953 118.466 C 247.470 80.287, 249.038 82.989, 248.097 54.940 C 247.456 35.844, 247.247 34.155, 245.166 31.233 C 239.741 23.615, 242.102 23.989, 200.115 24.098 C 173.047 24.169, 161.899 24.530, 160.357 25.387 M 172.250 42.458 C 170.126 44.021, 170 44.810, 170 56.538 C 170 68.593, 170.067 68.978, 172.250 69.512 C 173.488 69.814, 186.875 69.935, 202 69.781 L 229.500 69.500 229.779 56.801 C 230.042 44.855, 229.937 44.037, 228 43 C 224.183 40.957, 174.940 40.478, 172.250 42.458 M 159.500 92 C 157.919 93.650, 156.229 95, 155.743 95 C 155.258 95, 152.898 96.350, 150.500 98 C 148.102 99.650, 145.878 101, 145.559 101 C 143.623 101, 119.477 112.763, 114 116.374 C 95.639 128.480, 90.553 133.999, 81.874 151.236 C 81.393 152.191, 81 154.254, 81 155.820 C 81 157.386, 80.662 159.002, 80.250 159.412 C 78.435 161.216, 77.215 189.984, 77.119 233.252 C 77.062 258.965, 76.611 280.790, 76.117 281.752 C 75.623 282.713, 74.248 285.525, 73.061 288 C 71.874 290.475, 67.773 296.100, 63.947 300.500 C 55.574 310.130, 52.787 314.187, 53.828 315.228 C 54.257 315.657, 111.958 315.893, 182.054 315.754 L 309.500 315.500 309.739 264.500 C 310.003 208.181, 308.837 186.426, 305.022 176.500 C 302.157 169.045, 297.188 160.247, 292.045 153.525 C 291.195 152.414, 283.691 144.528, 275.369 136.002 C 267.047 127.476, 257.597 117.587, 254.369 114.027 C 251.141 110.466, 244.480 103.379, 239.566 98.277 L 230.632 89 196.503 89 L 162.374 89 159.500 92 M 127.500 131 C 127.160 131.550, 125.977 132, 124.871 132 C 116.836 132, 100.988 151.148, 97.144 165.500 C 93.901 177.605, 92.779 247.162, 95.643 258.500 C 99.589 274.122, 112.496 285, 127.085 285 C 138.165 285, 143.470 280.131, 147.789 266 C 149.376 260.808, 149.885 149.160, 148.334 146.500 C 147.693 145.400, 146.484 142.918, 145.649 140.985 C 142.532 133.774, 130.035 126.899, 127.500 131 M 417.500 139.632 C 411.761 140.983, 407.190 144.667, 405.173 149.563 C 403.839 152.803, 404.072 185.279, 405.490 193.662 C 406.109 197.323, 405.792 198.438, 402.863 202.912 C 401.031 205.711, 399.187 208, 398.766 208 C 398.345 208, 398 208.620, 398 209.378 C 398 210.135, 397.256 211.372, 396.348 212.126 C 393.822 214.223, 382 230.363, 382 231.716 C 382 232.060, 381.371 233.053, 380.603 233.921 C 378.284 236.541, 372 249.034, 372 251.024 C 372 252.046, 371.602 253.128, 371.115 253.429 C 370.200 253.994, 369.716 255.953, 367.759 267 C 366.206 275.768, 366.128 524.396, 367.676 531 C 371.301 546.459, 378.851 555.768, 393.672 563.053 L 402.500 567.391 415.567 567.446 C 429.363 567.503, 434.190 566.199, 439.914 560.866 C 443.075 557.920, 446.826 558.583, 452.500 563.088 C 455.786 565.698, 466.910 568.901, 472.500 568.848 C 484.656 568.733, 501.049 562.495, 507.500 555.530 C 513.041 549.548, 517 542.456, 517 538.512 C 517 537.195, 517.385 535.880, 517.855 535.590 C 519.861 534.350, 520.293 512.194, 520.480 401 C 520.720 257.859, 520.706 257.622, 510.897 238.858 C 509.850 236.855, 508.433 234.150, 507.747 232.846 C 506.288 230.073, 495.961 216.094, 491.551 210.923 C 482.957 200.846, 482.897 200.739, 483.577 196.500 C 483.929 194.300, 484.413 183.772, 484.651 173.105 C 485.170 149.843, 484.123 145.974, 475.961 141 C 473.546 139.528, 422.968 138.345, 417.500 139.632 M 123.343 155.750 C 118.639 161.564, 117 164.416, 117 166.786 C 117 167.784, 116.576 169.028, 116.057 169.550 C 112.321 173.312, 112.363 251.492, 116.102 255.450 C 116.596 255.973, 117 257.178, 117 258.129 C 117 260.308, 123.225 267, 125.253 267 C 129.393 267, 129.728 264.184, 130.429 223.470 C 130.798 202.037, 131.322 180.900, 131.593 176.500 C 131.864 172.100, 131.784 164.563, 131.414 159.750 C 130.601 149.167, 129.222 148.483, 123.343 155.750 M 423.442 158.291 C 423.161 159.023, 423.059 164.770, 423.215 171.061 L 423.500 182.500 443.372 182.772 C 457.427 182.964, 463.656 182.701, 464.652 181.874 C 465.748 180.965, 465.999 178.124, 465.780 169.102 L 465.500 157.500 444.726 157.230 C 428.161 157.014, 423.849 157.229, 423.442 158.291 M 423.493 207.250 C 420.119 211.076, 413.701 219.307, 401.209 235.826 C 391.791 248.282, 386.561 262.318, 387.172 273.500 L 387.500 279.500 443.500 279.500 L 499.500 279.500 499.350 271.500 C 499.183 262.531, 498.222 256.255, 496.890 255.432 C 496.400 255.129, 496 254.085, 496 253.110 C 496 250.450, 492.037 243.219, 486.992 236.671 C 484.521 233.466, 481.230 229.191, 479.678 227.171 C 478.126 225.152, 475.313 221.832, 473.428 219.794 C 471.543 217.755, 470 215.848, 470 215.555 C 470 215.262, 467.943 212.317, 465.428 209.011 L 460.857 203 444.049 203 L 427.241 203 423.493 207.250 M 385.543 300.242 C 384.495 303.535, 384.357 433.043, 385.400 433.758 C 386.005 434.173, 412.375 434.492, 444 434.468 L 501.500 434.424 501.500 366.962 L 501.500 299.500 443.722 299.242 C 397.997 299.038, 385.860 299.246, 385.543 300.242 M 50.654 335.213 C 49.800 335.741, 49.500 353.554, 49.500 403.713 L 49.500 471.500 179.500 471.500 L 309.500 471.500 309.757 404.057 C 309.914 362.815, 309.648 336.248, 309.072 335.672 C 307.966 334.566, 52.436 334.113, 50.654 335.213 M 385.675 453.659 C 384.412 454.922, 384.904 524.612, 386.210 529.497 C 390.688 546.238, 416.048 556.156, 428.500 546.035 C 435.576 540.283, 449.244 539.559, 457.500 544.499 C 460.250 546.145, 463.789 548.056, 465.365 548.746 C 474.594 552.787, 490.981 546.754, 497.265 537 C 501.758 530.026, 502.039 527.041, 501.763 489.329 L 501.500 453.500 443.925 453.242 C 412.258 453.100, 386.046 453.288, 385.675 453.659 M 51.670 491.663 C 50.086 493.248, 50.937 500.549, 54.215 513.500 C 57.577 526.779, 63.241 535.401, 72.846 541.856 C 85.212 550.167, 82.957 549.997, 180.884 549.999 C 272.905 550, 269.209 550.223, 282.464 543.877 C 296.884 536.973, 306.818 518.459, 307.348 497.500 L 307.500 491.500 179.920 491.246 C 109.752 491.107, 52.039 491.294, 51.670 491.663" stroke="none" fill="#265237" fill-rule="evenodd"/>
</svg>