<svg xmlns="http://www.w3.org/2000/svg" width="96" height="96" viewBox="-48.0 -106.0 736 736">
	<path d="M 442.500 39.147 C 432.156 41.578, 420.556 46.619, 413.111 51.921 C 411.505 53.065, 409.892 54, 409.526 54 C 409.160 54, 406.898 55.350, 404.500 57 C 402.102 58.650, 399.897 60, 399.600 60 C 399.303 60, 391.569 65.063, 382.413 71.250 C 373.258 77.438, 364.922 82.990, 363.890 83.589 C 362.858 84.188, 361.188 85.425, 360.178 86.339 C 359.169 87.252, 358.003 88, 357.587 88 C 357.172 88, 354.440 90.283, 351.516 93.074 C 346.534 97.828, 344.449 101.084, 340.515 110.250 C 338.994 113.796, 338.659 114, 334.368 114 C 330.370 114, 329.453 113.559, 326.665 110.296 C 317.981 100.133, 313.428 95.955, 308.306 93.449 C 302.129 90.427, 294.658 89.127, 293.571 90.885 C 293.192 91.498, 292.060 92, 291.055 92 C 287.155 92, 279.948 97.131, 268.856 107.807 C 264.651 111.853, 260.151 115.896, 258.856 116.791 C 257.560 117.685, 254.700 120.088, 252.500 122.131 C 248.362 125.973, 231.848 138.655, 228.437 140.610 C 226.510 141.714, 223.871 141.253, 218 138.784 C 216.625 138.206, 214.488 137.343, 213.250 136.866 C 208.842 135.169, 206.438 134.172, 201.761 132.100 C 199.154 130.945, 196.561 130, 195.997 130 C 195.434 130, 194.191 129.603, 193.236 129.117 C 192.281 128.631, 190.150 127.678, 188.500 127 C 186.850 126.322, 184.719 125.369, 183.764 124.883 C 182.809 124.397, 181.340 124, 180.500 124 C 179.660 124, 178.191 123.603, 177.236 123.117 C 176.281 122.631, 174.150 121.678, 172.500 121 C 170.850 120.322, 168.719 119.369, 167.764 118.883 C 166.809 118.397, 165.340 118, 164.500 118 C 163.660 118, 162.191 117.603, 161.236 117.117 C 160.281 116.631, 158.150 115.678, 156.500 115 C 154.850 114.322, 152.719 113.369, 151.764 112.883 C 150.809 112.397, 149.566 112, 149.003 112 C 148.439 112, 146.071 111.149, 143.739 110.110 C 127.463 102.851, 119.381 105.885, 101.021 126.144 C 96.357 131.290, 88.445 139.775, 83.439 145 C 70.153 158.866, 68.940 160.261, 67.909 162.851 C 67.394 164.144, 66.683 176.143, 66.329 189.515 C 65.587 217.515, 65.446 217, 73.806 217 C 81.262 217, 81.500 216.409, 81.500 197.930 C 81.500 189.260, 81.836 181.832, 82.246 181.421 C 82.657 181.010, 90.939 180.779, 100.652 180.907 C 120.498 181.169, 120.061 181.030, 129.780 190.159 C 132.376 192.597, 135.438 195.246, 136.585 196.046 C 137.731 196.846, 142.231 200.721, 146.585 204.658 C 158.174 215.139, 164.744 220.822, 172.413 227 C 176.167 230.025, 181.584 234.525, 184.450 237 C 187.315 239.475, 193.667 244.875, 198.564 249 C 209.595 258.291, 213.089 261.820, 214.969 265.570 C 215.778 267.181, 217.690 270.381, 219.219 272.680 C 220.749 274.979, 222 277.272, 222 277.775 C 222 278.278, 222.900 279.505, 224 280.500 C 225.100 281.495, 226 282.711, 226 283.200 C 226 283.690, 228.250 287.425, 231 291.500 C 233.750 295.575, 236 299.165, 236 299.478 C 236 299.791, 238.250 303.444, 241 307.597 C 243.750 311.749, 246 315.494, 246 315.918 C 246 316.343, 246.900 317.505, 248 318.500 C 249.100 319.495, 250 320.845, 250 321.500 C 250 322.155, 250.900 323.505, 252 324.500 C 253.100 325.495, 254 326.711, 254 327.200 C 254 327.690, 256.250 331.425, 259 335.500 C 261.750 339.575, 264 343.165, 264 343.478 C 264 343.791, 266.250 347.444, 269 351.597 C 271.750 355.749, 274 359.494, 274 359.918 C 274 360.343, 274.900 361.505, 276 362.500 C 277.100 363.495, 278 364.657, 278 365.082 C 278 365.506, 280.250 369.251, 283 373.403 C 285.750 377.556, 288 381.209, 288 381.522 C 288 381.835, 290.250 385.425, 293 389.500 C 295.750 393.575, 298 397.310, 298 397.800 C 298 398.289, 298.900 399.505, 300 400.500 C 301.100 401.495, 302 402.845, 302 403.500 C 302 404.155, 302.900 405.505, 304 406.500 C 305.100 407.495, 306 408.667, 306 409.104 C 306 409.540, 310.837 417.258, 316.750 426.253 C 322.663 435.249, 327.950 443.309, 328.500 444.164 C 339.382 461.090, 353.647 477.658, 361.021 481.939 C 381.250 493.684, 405.383 494.103, 428 483.104 C 437.275 478.594, 441.729 475.226, 454 463.449 C 459.225 458.434, 465.975 452.119, 468.999 449.415 C 472.024 446.712, 480.574 438.603, 487.999 431.395 C 495.425 424.187, 503.525 416.551, 506 414.426 C 508.475 412.302, 515.900 405.316, 522.500 398.902 C 529.100 392.488, 536.300 385.742, 538.500 383.909 C 543.038 380.129, 563.998 360.042, 571.273 352.500 C 585.821 337.420, 591.472 310.529, 584.513 289.500 C 583.239 285.650, 582.088 281.600, 581.956 280.500 C 581.612 277.644, 583.102 270.055, 584.131 269.419 C 584.609 269.124, 585 268.212, 585 267.393 C 585 266.574, 585.900 264.041, 587 261.764 C 588.100 259.487, 589 256.835, 589 255.871 C 589 254.907, 589.402 253.869, 589.894 253.565 C 593.165 251.544, 593.140 211.441, 589.867 209.418 C 589.390 209.123, 589 207.810, 589 206.500 C 589 205.190, 588.550 203.840, 588 203.500 C 587.450 203.160, 587 202.092, 587 201.127 C 587 199.130, 574.432 173.820, 571.156 169.219 C 569.970 167.554, 569 165.931, 569 165.613 C 569 165.295, 567.200 162.094, 565 158.500 C 562.800 154.906, 561 151.716, 561 151.413 C 561 151.109, 559.745 148.979, 558.211 146.680 C 556.677 144.381, 554.332 140.250, 553 137.500 C 551.668 134.750, 549.422 130.700, 548.008 128.500 C 546.595 126.300, 544.791 123.150, 544 121.500 C 543.209 119.850, 541.409 116.700, 540 114.500 C 538.591 112.300, 536.791 109.150, 536 107.500 C 535.209 105.850, 533.405 102.700, 531.992 100.500 C 530.578 98.300, 528.332 94.250, 527 91.500 C 525.668 88.750, 523.323 84.619, 521.789 82.320 C 520.255 80.021, 519 77.852, 519 77.500 C 519 77.148, 517.650 74.898, 516 72.500 C 514.350 70.102, 513 67.825, 513 67.441 C 513 66.320, 505.989 58.864, 500.625 54.278 C 494.702 49.216, 481.601 42.697, 474 41.032 C 470.975 40.369, 466.873 39.416, 464.884 38.913 C 460.358 37.770, 447.800 37.901, 442.500 39.147 M 446 57.907 C 444.625 58.375, 441.475 59.353, 439 60.082 C 434.294 61.468, 429.335 63.933, 424.846 67.117 C 423.386 68.153, 421.876 69, 421.491 69 C 421.105 69, 418.790 70.350, 416.345 72 C 413.900 73.650, 411.685 75, 411.423 75 C 411.162 75, 404.819 79.162, 397.330 84.250 C 389.840 89.338, 383.027 93.950, 382.190 94.500 C 368.209 103.680, 359 112.571, 359 116.888 C 359 117.985, 358.550 119.160, 358 119.500 C 357.450 119.840, 357 121.372, 357 122.905 C 357 128.668, 351.803 135.394, 345.740 137.479 C 342.527 138.583, 335.172 137.553, 333.403 135.750 C 332.998 135.338, 329.231 135, 325.033 135 C 313.737 135, 310.951 133.018, 306.879 122.083 C 302.525 110.394, 296.332 107.926, 288.728 114.849 C 286.402 116.966, 282.500 120.453, 280.057 122.599 C 277.613 124.745, 273.113 128.790, 270.057 131.589 C 267 134.389, 262.936 137.989, 261.024 139.589 C 249.133 149.546, 245.104 154.144, 246.062 156.664 C 246.578 158.020, 247.002 160.788, 247.004 162.815 C 247.008 166.674, 250.019 172.686, 252.407 173.603 C 254.191 174.287, 262.723 167.820, 277.941 154.250 C 284.001 148.847, 287.289 148.640, 291.877 153.373 C 296.597 158.243, 296.038 162.249, 290 166.828 C 287.525 168.705, 283.184 172.324, 280.354 174.870 C 277.523 177.417, 272.626 181.525, 269.471 184 C 266.316 186.475, 262.107 189.850, 260.117 191.500 C 251.556 198.600, 244.195 199.088, 236.701 193.051 C 234.734 191.466, 228 177.951, 228 175.587 C 228 174.779, 227.550 173.840, 227 173.500 C 226.450 173.160, 226 172.097, 226 171.137 C 226 168.642, 220.335 160.045, 218.253 159.379 C 215.955 158.644, 213.521 157.652, 207.761 155.100 C 205.154 153.945, 202.581 153, 202.041 153 C 201.502 153, 199.458 152.100, 197.500 151 C 195.542 149.900, 193.481 149, 192.921 149 C 192.361 149, 190.041 148.100, 187.764 147 C 185.487 145.900, 183.048 145, 182.343 145 C 181.638 145, 179.458 144.100, 177.500 143 C 175.542 141.900, 173.272 141, 172.456 141 C 171.640 141, 170.191 140.603, 169.236 140.117 C 168.281 139.631, 166.150 138.678, 164.500 138 C 162.850 137.322, 160.719 136.369, 159.764 135.883 C 158.809 135.397, 157.549 135, 156.965 135 C 156.381 135, 154.041 134.100, 151.764 133 C 149.487 131.900, 146.884 131, 145.979 131 C 145.074 131, 144.025 130.692, 143.648 130.315 C 142.322 128.989, 135.462 127.030, 132.092 127.015 C 127.695 126.996, 120.258 132.646, 111.189 142.898 C 107.510 147.057, 102.925 152.199, 101 154.326 C 95.251 160.678, 95.921 161.488, 107 161.573 C 127.514 161.731, 123.899 160.290, 141.415 175.291 C 144.118 177.606, 147.268 180.159, 148.415 180.964 C 149.562 181.769, 152.178 183.970, 154.229 185.855 C 156.280 187.740, 158.980 189.990, 160.229 190.855 C 161.478 191.720, 164.178 193.970, 166.229 195.855 C 168.280 197.740, 170.980 199.980, 172.229 200.833 C 173.478 201.686, 174.725 202.641, 175 202.956 C 175.275 203.270, 177.975 205.522, 181 207.961 C 184.025 210.399, 189.458 215.118, 193.074 218.447 C 205.533 229.917, 216.336 239.504, 218.415 240.933 C 222.912 244.025, 233 255.504, 233 257.529 C 233 257.865, 234.350 260.102, 236 262.500 C 237.650 264.898, 239 267.127, 239 267.453 C 239 267.779, 241.250 271.444, 244 275.597 C 246.750 279.749, 249 283.351, 249 283.600 C 249 283.849, 253.050 290.104, 258 297.500 C 262.950 304.896, 267 311.204, 267 311.519 C 267 311.833, 269.250 315.425, 272 319.500 C 274.750 323.575, 277 327.310, 277 327.800 C 277 328.289, 277.900 329.505, 279 330.500 C 280.100 331.495, 281 332.711, 281 333.200 C 281 333.690, 283.250 337.425, 286 341.500 C 288.750 345.575, 291 349.310, 291 349.800 C 291 350.289, 291.900 351.505, 293 352.500 C 294.100 353.495, 295 354.845, 295 355.500 C 295 356.155, 295.900 357.505, 297 358.500 C 298.100 359.495, 299 360.705, 299 361.188 C 299 361.671, 302.150 366.762, 306 372.500 C 309.850 378.238, 313 383.329, 313 383.812 C 313 384.295, 313.900 385.505, 315 386.500 C 316.100 387.495, 317 388.711, 317 389.200 C 317 389.690, 319.250 393.425, 322 397.500 C 324.750 401.575, 327 405.310, 327 405.800 C 327 406.289, 327.900 407.505, 329 408.500 C 330.100 409.495, 331 410.701, 331 411.178 C 331 411.656, 333.250 415.444, 336 419.597 C 338.750 423.749, 341 427.494, 341 427.918 C 341 428.343, 341.900 429.505, 343 430.500 C 344.100 431.495, 345 432.684, 345 433.141 C 345 434.884, 357.973 453.694, 361.983 457.765 C 371.783 467.716, 381.771 472, 395.167 472 C 399.861 472, 405.006 471.602, 406.601 471.117 C 408.195 470.631, 411.525 469.639, 414 468.913 C 420.495 467.007, 427.622 462.872, 433.212 457.765 C 440.352 451.242, 455.101 437.070, 473 419.533 C 484.825 407.947, 496.975 396.265, 500 393.573 C 503.025 390.880, 511.125 383.223, 518 376.556 C 524.875 369.889, 532.525 362.703, 535 360.588 C 553.995 344.351, 563.672 332.913, 566.860 322.929 C 568.205 318.717, 568.389 301.737, 567.117 299.236 C 566.631 298.281, 565.678 296.150, 565 294.500 C 564.322 292.850, 563.369 290.719, 562.883 289.764 C 561.737 287.510, 561.742 276.759, 562.891 273.797 C 563.381 272.534, 564.812 268.125, 566.071 264 C 567.330 259.875, 568.729 256.073, 569.180 255.550 C 569.631 255.028, 570 253.592, 570 252.359 C 570 251.126, 570.450 249.840, 571 249.500 C 571.550 249.160, 572 247.754, 572 246.375 C 572 244.997, 572.465 242.999, 573.034 241.936 C 575.408 237.501, 574.075 220.093, 570.877 213.764 C 570.395 212.809, 570 211.498, 570 210.850 C 570 209.196, 554.385 177.799, 549.799 170.232 C 547.709 166.785, 546 163.716, 546 163.413 C 546 163.109, 544.749 160.979, 543.219 158.680 C 541.690 156.381, 539.791 153.150, 539 151.500 C 538.209 149.850, 536.409 146.700, 535 144.500 C 533.591 142.300, 531.782 139.150, 530.980 137.500 C 530.177 135.850, 528.211 132.250, 526.610 129.500 C 525.009 126.750, 521.908 121.125, 519.718 117 C 517.527 112.875, 514.895 108.306, 513.868 106.846 C 512.841 105.386, 512 103.892, 512 103.526 C 512 103.160, 510.732 100.979, 509.183 98.680 C 507.634 96.381, 505.597 92.832, 504.657 90.792 C 503.716 88.753, 502.521 86.822, 502 86.500 C 501.479 86.178, 500.277 84.247, 499.327 82.208 C 495.729 74.481, 479.606 61, 473.965 61 C 472.949 61, 471.869 60.598, 471.565 60.106 C 470.433 58.274, 450.070 56.522, 446 57.907 M 447 93.878 C 443.071 94.719, 436.527 98.209, 427.910 104.061 C 424.720 106.227, 421.705 108, 421.210 108 C 420.715 108, 419.495 108.900, 418.500 110 C 417.505 111.100, 416.289 112, 415.800 112 C 415.310 112, 411.499 114.362, 407.330 117.250 C 403.161 120.138, 398.853 123.018, 397.757 123.651 C 393.966 125.840, 384.854 135.513, 383.297 139 C 380.285 145.747, 381.055 157.727, 384.999 165.498 C 388.249 171.900, 398.761 182.984, 401.595 182.996 C 402.197 182.998, 403.505 183.900, 404.500 185 C 405.495 186.100, 406.701 187, 407.178 187 C 407.656 187, 411.444 189.250, 415.597 192 C 419.749 194.750, 423.354 197, 423.607 197 C 423.860 197, 428.762 200.150, 434.500 204 C 440.238 207.850, 445.343 211, 445.844 211 C 446.345 211, 447.354 211.722, 448.086 212.604 C 448.819 213.486, 450.336 214.613, 451.459 215.108 C 452.582 215.603, 455.525 217.551, 458 219.438 C 460.475 221.324, 462.993 222.897, 463.595 222.934 C 464.197 222.970, 465.505 223.900, 466.500 225 C 467.495 226.100, 468.722 227, 469.225 227 C 469.728 227, 472.102 228.350, 474.500 230 C 476.898 231.650, 479.160 233, 479.526 233 C 479.892 233, 481.528 233.952, 483.162 235.116 C 484.796 236.279, 490.491 239.453, 495.817 242.169 C 513.184 251.026, 524.336 248.130, 533.050 232.500 C 535.592 227.940, 536.342 216.072, 534.351 211.905 C 533.719 210.582, 532.616 207.925, 531.900 206 C 531.184 204.075, 529.262 200.250, 527.629 197.500 C 525.996 194.750, 522.099 187.483, 518.969 181.350 C 515.840 175.218, 512.412 168.918, 511.353 167.350 C 510.294 165.783, 508.783 163.150, 507.995 161.500 C 507.206 159.850, 505.310 156.619, 503.781 154.320 C 502.251 152.021, 501 149.875, 501 149.552 C 501 149.228, 499.313 146.159, 497.250 142.732 C 495.188 139.304, 492.393 134.250, 491.039 131.500 C 489.685 128.750, 487.323 124.619, 485.789 122.320 C 484.255 120.021, 483 117.658, 483 117.070 C 483 116.481, 482.626 116, 482.169 116 C 481.712 116, 480.700 114.763, 479.921 113.250 C 479.141 111.737, 478.256 110.275, 477.953 110 C 477.651 109.725, 476.308 107.925, 474.970 106 C 467.328 95.010, 458.863 91.341, 447 93.878 M 447 114.142 C 443.975 115.835, 440.306 118.071, 438.846 119.110 C 437.386 120.150, 435.768 121, 435.251 121 C 434.733 121, 433.495 121.900, 432.500 123 C 431.505 124.100, 430.278 125, 429.775 125 C 429.272 125, 426.972 126.237, 424.664 127.750 C 422.356 129.262, 419.750 130.950, 418.874 131.500 C 403.615 141.077, 397.855 147.704, 400.010 153.200 C 401.402 156.749, 411.705 168, 413.564 168 C 414.183 168, 415.505 168.900, 416.500 170 C 417.495 171.100, 418.722 172, 419.225 172 C 419.728 172, 422.102 173.350, 424.500 175 C 426.898 176.650, 429.148 178, 429.500 178 C 429.852 178, 432.102 179.350, 434.500 181 C 436.898 182.650, 439.272 184, 439.775 184 C 440.278 184, 441.505 184.900, 442.500 186 C 443.495 187.100, 444.653 188, 445.071 188 C 445.490 188, 449.284 190.363, 453.503 193.250 C 457.722 196.138, 461.922 198.951, 462.837 199.501 C 463.752 200.052, 467.777 202.640, 471.781 205.251 C 475.786 207.863, 479.429 210, 479.876 210 C 480.324 210, 481.505 210.900, 482.500 212 C 483.495 213.100, 484.737 214, 485.260 214 C 485.782 214, 488.075 215.239, 490.355 216.753 C 492.635 218.267, 496.750 220.609, 499.500 221.958 C 502.250 223.307, 505.694 225.219, 507.154 226.206 C 510.177 228.249, 514.531 228.568, 515.608 226.826 C 518.212 222.612, 510.233 202.020, 500.260 187.219 C 499.252 185.723, 497.783 183.150, 496.995 181.500 C 496.206 179.850, 494.409 176.700, 493 174.500 C 491.591 172.300, 489.794 169.150, 489.005 167.500 C 488.217 165.850, 486.813 163.368, 485.885 161.985 C 484.957 160.602, 481.477 154.179, 478.151 147.713 C 474.826 141.246, 471.261 134.728, 470.230 133.228 C 469.199 131.728, 467.609 128.874, 466.696 126.888 C 465.784 124.901, 464.354 122.708, 463.518 122.015 C 462.683 121.322, 462 120.227, 462 119.581 C 462 118.171, 454.821 110.987, 453.458 111.031 C 452.931 111.048, 450.025 112.448, 447 114.142 M 70.931 239.477 C 69.274 240.378, 67.902 242.406, 67.067 245.187 C 66.355 247.559, 65.427 250.400, 65.005 251.500 C 64.583 252.600, 63.231 256.875, 62 261 C 60.769 265.125, 59.417 269.400, 58.995 270.500 C 58.573 271.600, 57.675 274.525, 57 277 C 56.325 279.475, 55.425 282.400, 55 283.500 C 54.575 284.600, 53.663 287.525, 52.972 290 C 51.250 296.169, 46.089 312.054, 45.012 314.500 C 44.528 315.600, 43.172 319.425, 42 323 C 40.828 326.575, 39.448 330.512, 38.934 331.750 C 38.420 332.988, 37.497 335.238, 36.883 336.750 C 36.269 338.262, 35.369 340.281, 34.883 341.236 C 34.397 342.191, 34 343.852, 34 344.927 C 34 346.002, 33.550 347.160, 33 347.500 C 32.450 347.840, 32 349.190, 32 350.500 C 32 351.810, 31.550 353.160, 31 353.500 C 30.450 353.840, 30 355.190, 30 356.500 C 30 357.810, 29.550 359.160, 29 359.500 C 28.450 359.840, 28 361.072, 28 362.238 C 28 363.404, 27.584 365.740, 27.076 367.429 C 24.308 376.632, 24.420 398.772, 27.250 401.587 C 27.662 401.998, 28 403.095, 28 404.026 C 28 409.835, 42.884 429.772, 49.848 433.292 C 51.307 434.029, 53.400 435.112, 54.500 435.699 C 55.600 436.286, 57.625 437.213, 59 437.759 C 60.375 438.305, 62.759 439.257, 64.297 439.875 C 67.762 441.268, 82.656 441.365, 83.500 440 C 83.840 439.450, 84.946 439, 85.957 439 C 88.160 439, 98.196 433.842, 102.764 430.363 C 108.151 426.260, 117 413.655, 117 410.086 C 117 409.159, 117.378 407.972, 117.839 407.450 C 121.088 403.771, 121.840 379.660, 119.038 369 C 118.388 366.525, 117.613 363.033, 117.317 361.241 C 117.021 359.448, 116.379 357.734, 115.890 357.432 C 115.400 357.129, 115 355.928, 115 354.762 C 115 352.510, 113.337 346.653, 111.877 343.764 C 111.395 342.809, 111 341.340, 111 340.500 C 111 339.660, 110.594 338.191, 110.097 337.236 C 109.601 336.281, 108.650 333.475, 107.983 331 C 107.317 328.525, 106.425 325.600, 106 324.500 C 105.575 323.400, 104.646 320.475, 103.934 318 C 103.222 315.525, 102.365 313.050, 102.028 312.500 C 101.362 311.410, 99.961 307.023, 98.038 300 C 97.360 297.525, 96.399 294.719, 95.903 293.764 C 95.406 292.809, 95 291.148, 95 290.073 C 95 288.998, 94.550 287.840, 94 287.500 C 93.450 287.160, 93 285.955, 93 284.822 C 93 283.056, 90.425 274.122, 88.007 267.500 C 86.089 262.245, 85 258.168, 85 256.238 C 85 255.072, 84.550 253.840, 84 253.500 C 83.450 253.160, 82.993 251.896, 82.985 250.691 C 82.957 246.647, 80.279 240.720, 77.879 239.390 C 74.896 237.736, 74.115 237.746, 70.931 239.477 M 71.475 292.684 C 71.147 294.233, 70.456 296.281, 69.940 297.236 C 69.423 298.191, 69 299.660, 69 300.500 C 69 301.340, 68.596 302.809, 68.103 303.764 C 67.610 304.719, 65.729 310.225, 63.923 316 C 62.116 321.775, 60.270 326.928, 59.819 327.450 C 59.369 327.973, 59 329.216, 59 330.214 C 59 331.211, 58.594 332.809, 58.097 333.764 C 57.601 334.719, 56.623 337.525, 55.924 340 C 55.224 342.475, 54.280 344.927, 53.826 345.450 C 53.372 345.972, 53 347.408, 53 348.641 C 53 349.874, 52.550 351.160, 52 351.500 C 51.450 351.840, 51 353.126, 51 354.359 C 51 355.592, 50.628 357.028, 50.174 357.550 C 49.720 358.073, 48.767 360.525, 48.058 363 C 47.348 365.475, 46.337 368.687, 45.810 370.137 C 44.337 374.188, 44.538 394.051, 46.098 398.586 C 51.004 412.850, 62.359 422.311, 74.514 422.261 C 86.786 422.211, 95.665 415.791, 99.026 404.538 C 99.689 402.317, 100.685 399.262, 101.238 397.748 C 102.712 393.716, 100.844 369.610, 98.898 367.550 C 98.404 367.028, 98 365.334, 98 363.786 C 98 362.239, 97.602 360.191, 97.115 359.236 C 96.232 357.503, 93.394 348.508, 91.047 340 C 90.364 337.525, 89.399 334.719, 88.903 333.764 C 88.406 332.809, 88 331.148, 88 330.073 C 88 328.998, 87.550 327.840, 87 327.500 C 86.450 327.160, 86 326.002, 86 324.927 C 86 323.852, 85.596 322.191, 85.103 321.236 C 84.609 320.281, 83.205 316.125, 81.982 312 C 79.259 302.816, 78.054 299.104, 76.951 296.500 C 76.484 295.400, 75.962 293.605, 75.790 292.511 C 75.282 289.284, 72.169 289.408, 71.475 292.684" stroke="none" fill="#265237" fill-rule="evenodd"/>
</svg>