<svg xmlns="http://www.w3.org/2000/svg" width="96" height="96" viewBox="-65.0 -100.0 736 736">
	<path d="M 361.250 29.658 C 359.041 30.130, 346.300 36.489, 330.500 45.005 C 326.100 47.376, 315.750 52.780, 307.500 57.012 C 299.250 61.244, 288 67.092, 282.500 70.007 C 277 72.922, 265.300 78.987, 256.500 83.484 C 247.700 87.981, 238.700 92.698, 236.500 93.967 C 234.300 95.235, 225.075 100.089, 216 104.752 C 206.925 109.416, 197.186 114.516, 194.358 116.086 C 191.531 117.655, 180.056 123.613, 168.858 129.325 C 157.661 135.038, 146.700 140.738, 144.500 141.993 C 142.300 143.248, 135.550 146.851, 129.500 150.002 C 123.450 153.152, 115.800 157.206, 112.500 159.012 C 109.200 160.817, 101.550 164.852, 95.500 167.977 C 89.450 171.102, 82.812 174.636, 80.750 175.830 C 78.687 177.023, 75.315 178.954, 73.255 180.121 C 66.197 184.117, 54.033 193.007, 49.481 197.496 C 42.138 204.737, 33.985 219.920, 34.015 226.297 C 34.040 231.529, 37.651 239.912, 41.433 243.516 C 42.847 244.863, 58.011 256.223, 60.100 257.500 C 62.912 259.219, 82.147 272.695, 90 278.447 C 94.125 281.469, 98.175 284.265, 99 284.661 C 99.825 285.056, 103.300 287.544, 106.721 290.190 C 110.143 292.835, 113.293 295.002, 113.721 295.005 C 114.150 295.007, 115.938 296.357, 117.696 298.005 C 119.453 299.652, 121.154 301, 121.474 301 C 121.795 301, 124.957 303.250, 128.500 306 C 132.043 308.750, 135.193 311, 135.500 311 C 135.807 311, 138.878 313.138, 142.326 315.750 C 145.773 318.363, 149.300 320.950, 150.163 321.500 C 151.027 322.050, 155.224 324.975, 159.491 328 C 163.758 331.025, 168.045 333.968, 169.018 334.539 C 169.991 335.111, 171.558 336.218, 172.500 337 C 173.442 337.782, 175.016 338.889, 175.996 339.461 C 176.977 340.032, 187.841 347.284, 200.139 355.575 C 212.438 363.866, 224.525 371.685, 227 372.950 C 229.475 374.216, 232.281 375.645, 233.236 376.126 C 237.006 378.023, 246.164 377.097, 254.500 373.974 C 255.600 373.562, 320.626 341.224, 399.003 302.112 C 477.380 263, 542.271 231, 543.207 231 C 544.142 231, 545.715 232.218, 546.703 233.707 C 547.691 235.196, 550.820 238.764, 553.656 241.637 C 558.536 246.579, 558.717 246.946, 557.034 248.469 C 556.056 249.355, 532.585 261.476, 504.878 275.407 C 477.170 289.337, 444.600 305.805, 432.500 312.002 C 349.811 354.356, 241.256 408, 238.238 408 C 235.854 408, 232.754 406.510, 227.313 402.750 C 223.135 399.863, 218.719 396.825, 217.500 396 C 205.832 388.105, 199.445 383.516, 199.167 382.826 C 198.983 382.372, 198.344 382, 197.745 382 C 197.147 382, 195.831 381.252, 194.822 380.339 C 193.812 379.425, 192.147 378.188, 191.122 377.589 C 185.236 374.151, 152.238 350.367, 143.739 343.436 C 142.770 342.646, 141.744 342, 141.460 342 C 141.175 342, 138.043 339.750, 134.500 337 C 130.957 334.250, 127.807 332, 127.500 332 C 127.193 332, 124.122 329.863, 120.674 327.250 C 117.227 324.637, 113.689 322.050, 112.811 321.500 C 107.513 318.178, 96.877 310.557, 95.905 309.385 C 95.272 308.623, 94.364 308, 93.886 308 C 93.118 308, 86.689 303.467, 81.739 299.435 C 80.770 298.646, 79.763 298, 79.502 298 C 79.241 298, 74.394 294.512, 68.731 290.250 C 48.530 275.044, 44.787 273.003, 40.841 275.041 C 32.131 279.539, 31.711 284.478, 39.416 291.831 C 42.395 294.674, 45.089 297, 45.403 297 C 45.716 297, 50.623 300.487, 56.305 304.750 C 61.988 309.012, 67.337 312.950, 68.191 313.500 C 74.877 317.803, 80 321.593, 80 322.234 C 80 322.655, 80.463 323, 81.029 323 C 81.594 323, 84.957 325.250, 88.500 328 C 92.043 330.750, 95.193 333, 95.500 333 C 95.807 333, 98.957 335.250, 102.500 338 C 106.043 340.750, 109.336 343, 109.816 343 C 110.297 343, 111.505 343.900, 112.500 345 C 113.495 346.100, 114.703 347, 115.184 347 C 115.664 347, 118.857 349.164, 122.279 351.810 C 128.195 356.384, 139.362 364.351, 142.868 366.500 C 143.766 367.050, 147.200 369.525, 150.500 372 C 153.800 374.475, 157.231 376.950, 158.125 377.500 C 159.019 378.050, 163.238 380.975, 167.500 384 C 171.762 387.025, 175.981 389.950, 176.875 390.500 C 177.769 391.050, 181.200 393.525, 184.500 396 C 187.800 398.475, 191.224 400.950, 192.110 401.500 C 192.995 402.050, 201.873 408.012, 211.839 414.750 C 221.806 421.487, 230.617 427, 231.421 427 C 232.224 427, 233.160 427.450, 233.500 428 C 234.992 430.414, 243.825 428.664, 252 424.333 C 262.254 418.901, 300.564 399.641, 432.328 333.672 C 508.684 295.445, 571.945 263.455, 572.907 262.584 C 573.870 261.713, 575.152 261, 575.756 261 C 576.360 261, 578.237 259.322, 579.927 257.272 C 584.509 251.714, 584.410 243.759, 579.702 239.196 C 577.889 237.438, 575.952 236, 575.399 236 C 573.695 236, 568.260 229.695, 566.778 226 C 565.204 222.077, 565.870 219.954, 570.171 215.186 C 579.344 205.016, 583.323 195.657, 583.420 184.022 C 583.493 175.382, 582.039 172.206, 575.626 167 C 572.452 164.422, 564.337 160, 562.782 160 C 562.299 160, 560.041 159.100, 557.764 158 C 555.487 156.900, 553.076 156, 552.407 156 C 551.737 156, 549.234 155.036, 546.845 153.858 C 544.455 152.680, 541.600 151.387, 540.500 150.985 C 539.400 150.582, 536.250 149.239, 533.500 148 C 530.750 146.761, 527.600 145.411, 526.500 145 C 525.400 144.589, 522.250 143.239, 519.500 142 C 516.750 140.761, 513.600 139.398, 512.500 138.971 C 511.400 138.544, 507.491 136.801, 503.813 135.098 C 500.135 133.394, 496.821 132, 496.449 132 C 494.860 132, 469.006 118.715, 463.755 115.199 C 460.594 113.084, 455.410 108.912, 452.234 105.927 C 449.057 102.942, 443.543 97.836, 439.979 94.581 C 436.416 91.325, 421.575 76.882, 407 62.486 C 374.055 29.944, 370.807 27.614, 361.250 29.658 M 342.500 59.430 C 331.500 64.972, 319.800 71.042, 316.500 72.918 C 313.200 74.794, 303.300 80.015, 294.500 84.520 C 285.700 89.026, 276.700 93.738, 274.500 94.993 C 272.300 96.247, 265.550 99.841, 259.500 102.979 C 253.450 106.116, 246.700 109.723, 244.500 110.993 C 242.300 112.264, 232.850 117.221, 223.500 122.009 C 214.150 126.797, 203.800 132.182, 200.500 133.976 C 197.200 135.770, 186.850 141.181, 177.500 146 C 168.150 150.819, 157.800 156.225, 154.500 158.013 C 151.200 159.801, 139.950 165.643, 129.500 170.994 C 119.050 176.346, 105.100 183.558, 98.500 187.022 C 91.900 190.486, 84.700 194.264, 82.500 195.418 C 63.726 205.267, 50.184 224.205, 57.250 230.728 C 60.157 233.412, 92.959 258, 93.632 258 C 93.913 258, 94.727 258.563, 95.442 259.250 C 96.157 259.938, 100.245 262.975, 104.528 266 C 108.811 269.025, 114.273 272.962, 116.666 274.750 C 119.059 276.538, 121.322 278, 121.694 278 C 122.066 278, 123.300 278.837, 124.436 279.861 C 125.571 280.884, 131.900 285.393, 138.500 289.880 C 145.100 294.367, 153.650 300.296, 157.500 303.056 C 167.578 310.281, 179.014 318.339, 180.837 319.500 C 181.700 320.050, 185.227 322.638, 188.674 325.250 C 192.122 327.863, 195.193 330, 195.500 330 C 195.807 330, 198.957 332.250, 202.500 335 C 206.043 337.750, 209.368 340, 209.888 340 C 210.408 340, 210.983 340.372, 211.167 340.826 C 211.681 342.102, 226.069 351.451, 230 353.064 C 234.106 354.749, 249.743 354.923, 253.212 353.323 C 254.471 352.742, 256.625 351.799, 258 351.227 C 261.668 349.699, 533.334 214.544, 542.924 209.475 C 554.376 203.423, 565.895 187.909, 562.981 182.464 C 561.866 180.381, 549.713 173.640, 540.500 169.995 C 539.400 169.560, 536.925 168.520, 535 167.684 C 533.075 166.848, 529.475 165.385, 527 164.432 C 524.525 163.479, 522.072 162.317, 521.550 161.850 C 521.028 161.382, 520.010 161, 519.289 161 C 518.568 161, 515.846 160.055, 513.239 158.900 C 510.633 157.746, 507.600 156.440, 506.500 156 C 505.400 155.560, 502.367 154.254, 499.761 153.100 C 497.154 151.945, 494.655 151, 494.207 151 C 493.759 151, 491.167 149.920, 488.446 148.601 C 485.726 147.281, 481.700 145.434, 479.500 144.494 C 471.121 140.917, 462.344 136.483, 458.320 133.794 C 456.021 132.257, 453.888 131, 453.581 131 C 451.468 131, 437.616 118.477, 417.257 98.160 C 393.539 74.490, 375.104 57.100, 370.131 53.703 C 362.861 48.736, 364.328 48.432, 342.500 59.430 M 552.395 279.772 C 549.064 282.507, 548.831 284.646, 551.518 287.839 C 553.855 290.616, 553.880 290.799, 552.148 292.366 C 551.155 293.265, 549.809 294, 549.158 294 C 548.506 294, 547.191 294.399, 546.236 294.887 C 545.281 295.375, 533.700 301.159, 520.500 307.740 C 507.300 314.321, 488.400 323.889, 478.500 329.003 C 468.600 334.116, 444.750 346.275, 425.500 356.023 C 406.250 365.772, 376.550 380.841, 359.500 389.511 C 342.450 398.181, 307.764 415.699, 282.421 428.441 L 236.341 451.608 229.921 447.303 C 226.389 444.935, 222.707 442.323, 221.739 441.499 C 220.770 440.674, 219.749 440, 219.469 440 C 218.566 440, 185.511 417.660, 185.167 416.816 C 184.983 416.367, 184.281 416, 183.605 416 C 182.930 416, 181.480 415.212, 180.384 414.250 C 179.288 413.288, 177.680 412.050, 176.810 411.500 C 169.942 407.155, 138.070 385.338, 136.436 383.863 C 135.300 382.838, 133.907 382, 133.341 382 C 132.774 382, 131.495 381.100, 130.500 380 C 129.505 378.900, 128.297 378, 127.816 378 C 127.336 378, 124.122 375.863, 120.674 373.250 C 117.227 370.637, 113.703 368.050, 112.843 367.500 C 111.983 366.950, 106.425 363.125, 100.491 359 C 77.204 342.811, 58.019 330, 57.064 330 C 56.613 330, 55.678 329.317, 54.985 328.482 C 52.862 325.924, 46.736 323.541, 42.566 323.650 C 37.988 323.770, 34.013 327.687, 34.005 332.087 C 34 334.483, 39.237 340.367, 44.161 343.500 C 45.026 344.050, 49.232 346.975, 53.508 350 C 57.784 353.025, 62.281 356.175, 63.500 357 C 64.719 357.825, 69.212 360.975, 73.483 364 C 77.755 367.025, 82.090 369.990, 83.118 370.589 C 84.145 371.188, 85.812 372.425, 86.822 373.339 C 87.831 374.252, 89.115 375, 89.674 375 C 90.233 375, 91.505 375.900, 92.500 377 C 93.495 378.100, 94.767 379, 95.326 379 C 95.885 379, 97.169 379.748, 98.178 380.661 C 99.188 381.575, 100.878 382.812, 101.934 383.411 C 105.860 385.637, 119.512 395.367, 119.833 396.169 C 120.017 396.626, 120.734 397, 121.428 397 C 122.122 397, 123.505 397.900, 124.500 399 C 125.495 400.100, 126.738 401, 127.261 401 C 127.783 401, 129.458 402.012, 130.981 403.250 C 133.278 405.116, 143.012 411.932, 153.474 419 C 154.695 419.825, 161.900 424.775, 169.484 430 C 177.068 435.225, 184.064 439.968, 185.030 440.539 C 185.996 441.111, 187.558 442.218, 188.500 443 C 189.442 443.782, 191.005 444.889, 191.972 445.461 C 192.939 446.032, 199.180 450.214, 205.841 454.753 C 231.605 472.312, 237.625 474.144, 247.942 467.564 C 250.158 466.151, 278.692 451.652, 345.500 417.994 C 379.050 401.091, 411.900 384.443, 418.500 380.998 C 425.100 377.552, 464.025 357.911, 505 337.350 C 545.975 316.789, 580.097 299.186, 580.826 298.233 C 585.064 292.695, 576.068 280, 567.905 280 C 566.922 280, 565.840 279.550, 565.500 279 C 564.440 277.285, 554.728 277.857, 552.395 279.772 M 569.333 334.066 C 567.594 334.421, 563.545 336.210, 560.336 338.041 C 557.126 339.872, 541.900 347.743, 526.500 355.532 C 511.100 363.320, 495.800 371.175, 492.500 372.986 C 489.200 374.798, 462.650 388.302, 433.500 402.995 C 404.350 417.689, 377.800 431.186, 374.500 432.990 C 371.200 434.793, 346.450 447.396, 319.500 460.997 C 292.550 474.597, 266 488.106, 260.500 491.017 C 235.590 504.200, 236.009 504.116, 226.695 497.798 C 220.672 493.712, 213.316 488.349, 209.739 485.435 C 208.770 484.646, 207.680 484, 207.317 484 C 206.954 484, 205.831 483.252, 204.822 482.339 C 203.812 481.425, 202.154 480.188, 201.136 479.589 C 200.118 478.990, 189.025 471.525, 176.484 463 C 148.595 444.042, 151.501 446.030, 138.498 437 C 132.559 432.875, 126.304 428.665, 124.600 427.644 C 122.895 426.624, 121.350 425.386, 121.167 424.894 C 120.983 424.403, 120.344 424, 119.745 424 C 119.147 424, 117.831 423.252, 116.822 422.339 C 115.812 421.425, 114.149 420.188, 113.125 419.589 C 108.431 416.842, 89.464 403.578, 89.167 402.834 C 88.983 402.375, 88.266 402, 87.572 402 C 86.878 402, 85.495 401.100, 84.500 400 C 83.505 398.900, 82.297 398, 81.816 398 C 81.336 398, 78.043 395.750, 74.500 393 C 70.957 390.250, 67.807 388, 67.500 388 C 67.193 388, 64.043 385.750, 60.500 383 C 56.957 380.250, 53.664 378, 53.184 378 C 52.703 378, 51.495 377.100, 50.500 376 C 47.783 372.998, 41.047 373.256, 38.021 376.478 C 35.237 379.441, 34.660 386.680, 36.984 389.481 C 38.255 391.012, 55.758 403.431, 61.026 406.539 C 61.994 407.111, 63.558 408.218, 64.500 409 C 65.442 409.782, 67.033 410.889, 68.034 411.461 C 70.482 412.858, 85.370 423.178, 86 423.915 C 86.275 424.237, 87.246 424.950, 88.158 425.500 C 91.464 427.495, 108.545 439.323, 110.257 440.803 C 111.223 441.639, 112.855 442.812, 113.882 443.411 C 114.910 444.010, 119.238 446.975, 123.500 450 C 127.762 453.025, 132.090 455.990, 133.118 456.589 C 134.145 457.188, 135.812 458.425, 136.822 459.339 C 137.831 460.252, 139.037 461, 139.500 461 C 139.963 461, 141.169 461.748, 142.178 462.661 C 143.188 463.575, 144.851 464.812, 145.875 465.411 C 146.898 466.010, 152.580 469.875, 158.500 474 C 164.420 478.125, 170.057 481.968, 171.026 482.539 C 171.994 483.111, 173.558 484.218, 174.500 485 C 175.442 485.782, 177.024 486.889, 178.015 487.461 C 179.006 488.032, 185.913 492.663, 193.363 497.750 C 200.813 502.837, 207.324 507, 207.832 507 C 208.340 507, 209.322 507.683, 210.015 508.518 C 210.708 509.354, 212.901 510.786, 214.888 511.702 C 216.874 512.617, 220.300 514.552, 222.500 516 C 230.015 520.948, 233.899 522.271, 238.940 521.602 C 243.099 521.051, 304.921 491.077, 318.500 483.029 C 320.700 481.725, 346.350 468.647, 375.500 453.966 C 404.650 439.286, 432.100 425.354, 436.500 423.006 C 440.900 420.659, 463.400 409.184, 486.500 397.508 C 555.371 362.694, 571.925 354.049, 576.751 350.373 C 587.535 342.159, 582.618 331.349, 569.333 334.066" stroke="none" fill="#265237" fill-rule="evenodd"/>
</svg>