<svg xmlns="http://www.w3.org/2000/svg" width="96" height="96" viewBox="-62.0 -96.0 736 736">
	<path d="M 504 38.652 C 497.722 40.720, 496.231 42.155, 492.457 49.756 C 489.775 55.158, 487.648 57, 484.096 57 C 481.944 57, 475.653 60.180, 472.803 62.709 C 471.141 64.183, 465 76.021, 465 77.749 C 465 78.231, 464.100 80.487, 463 82.764 C 461.900 85.041, 461 87.574, 461 88.393 C 461 89.212, 460.550 90.160, 460 90.500 C 459.450 90.840, 459 92.190, 459 93.500 C 459 94.810, 458.550 96.160, 458 96.500 C 457.450 96.840, 457.001 97.879, 457.003 98.809 C 457.005 99.739, 450.652 113.325, 442.885 129 C 435.119 144.675, 427.517 160.200, 425.991 163.500 C 424.465 166.800, 418.218 179.654, 412.108 192.066 C 405.999 204.477, 401 214.969, 401 215.382 C 401 215.796, 399.028 220.266, 396.617 225.317 C 394.206 230.368, 390.787 237.650, 389.018 241.500 C 387.250 245.350, 381.398 257.500, 376.014 268.500 C 370.630 279.500, 363.976 293.225, 361.228 299 C 358.479 304.775, 353.435 315.350, 350.018 322.500 C 346.601 329.650, 342.670 337.975, 341.281 341 C 339.892 344.025, 336.373 351.450, 333.461 357.500 C 330.548 363.550, 327.192 370.750, 326.003 373.500 C 316.380 395.750, 306.249 413.976, 299.119 421.865 C 292.413 429.284, 286.982 441.331, 286.992 448.764 C 287 454.661, 288.218 458.626, 290.500 460.182 C 295.559 463.630, 295.494 463.485, 293.382 466.610 C 285.098 478.863, 287.117 490.544, 298.437 495.866 C 308.824 500.748, 314.717 497.686, 321.757 483.750 C 322.521 482.238, 323.411 481, 323.735 481 C 324.243 481, 332.844 485.750, 333.865 486.594 C 334.065 486.760, 333.053 489.001, 331.615 491.574 C 327.628 498.707, 328.105 510.942, 332.500 514.254 C 343.855 522.812, 354.052 521.950, 359.175 512 C 362.640 505.270, 365.357 502, 367.484 502 C 374.407 502, 388 494.197, 388 490.222 C 388 489.685, 388.653 488.703, 389.452 488.040 C 392.792 485.268, 396 476.712, 396.007 470.554 C 396.015 464.192, 396.041 464.131, 414.296 428.500 C 418.118 421.040, 429.720 396.998, 437.460 380.500 C 440.041 375, 445.321 363.975, 449.194 356 C 453.067 348.025, 457.033 339.700, 458.008 337.500 C 458.982 335.300, 464.062 324.725, 469.296 314 C 474.531 303.275, 480.252 291.350, 482.010 287.500 C 483.769 283.650, 489.474 271.725, 494.690 261 C 499.905 250.275, 504.990 239.700, 505.988 237.500 C 506.987 235.300, 510.260 228.325, 513.261 222 C 516.262 215.675, 519.960 207.800, 521.480 204.500 C 523 201.200, 527.062 192.650, 530.506 185.500 C 533.950 178.350, 538.395 169.012, 540.384 164.750 C 549.544 145.117, 551.570 141.505, 556.854 135.393 C 562.970 128.317, 568 120.020, 568 117.009 C 568 115.969, 568.450 114.840, 569 114.500 C 571.820 112.757, 569.340 94.911, 565.783 91.354 C 564.399 89.970, 564.406 89.500, 565.856 86.658 C 570.048 78.438, 571.060 71.837, 568.750 67.775 C 562.765 57.253, 542.495 55.805, 537.515 65.544 C 536.957 66.635, 535.452 69.207, 534.172 71.258 L 531.844 74.989 527.427 71.950 L 523.010 68.911 524.629 65.206 C 525.646 62.878, 526.270 58.566, 526.308 53.609 C 526.366 45.998, 526.257 45.619, 523.238 42.921 C 518.717 38.882, 509.506 36.838, 504 38.652 M 507.678 56.063 C 505.746 58.319, 505.562 59.612, 507.044 60.527 C 508.488 61.420, 511 59.140, 511 56.937 C 511 54.227, 509.572 53.851, 507.678 56.063 M 485.318 77.250 C 481.812 81.977, 482.511 87, 486.675 87 C 487.235 87, 488.999 87.626, 490.596 88.391 C 493.600 89.830, 500.005 92.612, 503.500 93.996 C 508.613 96.020, 521.042 102.258, 521.527 103.043 C 521.825 103.526, 527.249 106.478, 533.580 109.604 L 545.091 115.287 548.046 112.456 C 552.176 108.499, 551.802 106.721, 546.250 103.908 C 543.638 102.585, 540.646 100.732, 539.603 99.790 C 538.560 98.848, 535.304 97.540, 532.367 96.883 C 529.430 96.226, 526.277 94.858, 525.359 93.844 C 524.441 92.830, 523.278 92, 522.775 92 C 522.272 92, 519.898 90.650, 517.500 89 C 515.102 87.350, 512.806 86, 512.399 86 C 511.991 86, 510.815 85.238, 509.786 84.306 C 507.597 82.326, 501.460 80.037, 498.280 80.015 C 497.060 80.007, 494.458 79.100, 492.500 78 C 488.380 75.686, 486.615 75.501, 485.318 77.250 M 549.206 79.144 C 547.048 82.552, 547.123 84.274, 549.391 83.403 C 551.526 82.584, 553.534 78.134, 552.317 76.917 C 551.595 76.195, 550.641 76.877, 549.206 79.144 M 473.668 108.619 C 471.824 111.159, 469.745 114.871, 469.047 116.869 C 468.349 118.866, 465.533 125.225, 462.789 131 C 460.046 136.775, 457.429 142.400, 456.974 143.500 C 456.520 144.600, 452.481 153.150, 448 162.500 C 443.519 171.850, 439.488 180.400, 439.042 181.500 C 438.596 182.600, 435.080 190.025, 431.227 198 C 427.375 205.975, 423.437 214.300, 422.475 216.500 C 421.514 218.700, 415.671 230.850, 409.490 243.500 C 403.309 256.150, 397.020 269.200, 395.515 272.500 C 394.010 275.800, 390.304 283.675, 387.280 290 C 384.256 296.325, 380.974 303.300, 379.988 305.500 C 379.001 307.700, 372.246 321.650, 364.976 336.500 C 357.706 351.350, 348.041 371.150, 343.499 380.500 C 338.957 389.850, 332.712 402.678, 329.620 409.007 C 323.174 422.205, 323.015 423.122, 326.750 425.580 C 329.479 427.377, 351.686 438.909, 368 447.002 C 372.675 449.321, 377.306 451.634, 378.291 452.143 C 380.827 453.453, 381.777 452.561, 384.666 446.155 C 386.069 443.045, 388.470 437.800, 390.002 434.500 C 391.533 431.200, 393.560 426.700, 394.504 424.500 C 395.448 422.300, 397.927 416.900, 400.013 412.500 C 402.099 408.100, 404.790 402.250, 405.994 399.500 C 407.199 396.750, 411.552 387.525, 415.670 379 C 419.787 370.475, 423.535 362.600, 423.998 361.500 C 424.461 360.400, 429.991 348.925, 436.287 336 C 442.583 323.075, 450.043 307.663, 452.867 301.750 C 455.690 295.837, 460.208 286.387, 462.907 280.750 C 465.606 275.113, 468.792 268.250, 469.987 265.500 C 471.182 262.750, 475.548 253.525, 479.690 245 C 483.831 236.475, 488.032 227.700, 489.024 225.500 C 490.016 223.300, 495.095 212.725, 500.310 202 C 505.526 191.275, 511.242 179.350, 513.013 175.500 C 514.784 171.650, 518.206 164.368, 520.617 159.317 C 523.028 154.266, 525 149.850, 525 149.504 C 525 148.030, 531.483 135.318, 533.235 133.355 C 534.289 132.176, 534.779 130.988, 534.325 130.715 C 528.389 127.149, 518.062 121.847, 511.500 118.995 C 508.750 117.800, 503.350 115.341, 499.500 113.531 C 495.650 111.720, 490.700 109.461, 488.500 108.510 C 486.300 107.560, 483.193 106.156, 481.596 105.391 C 477.510 103.433, 477.398 103.479, 473.668 108.619 M 148 123.968 C 147.175 124.519, 145.407 124.976, 144.071 124.985 C 141.546 125.001, 135.771 126.603, 132.764 128.123 C 131.809 128.605, 130.389 129, 129.608 129 C 128.275 129, 126.336 129.845, 116.500 134.713 C 83.923 150.834, 60.385 179.971, 50.835 216 C 47.575 228.297, 46.092 253.148, 47.940 264.500 C 49.596 274.668, 52.286 286.109, 54.114 290.750 C 54.601 291.988, 55.395 294.012, 55.878 295.250 C 61.306 309.167, 71.013 324.453, 81.878 336.190 C 84.286 338.792, 86.968 341.951, 87.838 343.210 C 88.708 344.470, 90.674 346.850, 92.206 348.500 C 93.737 350.150, 94.993 352.007, 94.995 352.628 C 94.998 353.248, 95.679 354.319, 96.510 355.008 C 98.045 356.282, 103.959 368.035, 105.815 373.500 C 106.847 376.539, 107.538 380.056, 109.057 390 C 110.679 400.619, 111.159 402.538, 113.306 407 C 117.642 416.009, 117.366 415.967, 172.264 415.985 C 219.367 416, 220.935 415.895, 224.461 412.500 C 226.289 410.740, 230 402.882, 230 400.772 C 230 399.650, 230.417 397.105, 230.927 395.116 C 231.436 393.127, 232.371 387.675, 233.004 383 C 235.050 367.874, 237.658 362.582, 251.893 344.666 C 252.777 343.554, 255.320 340.586, 257.545 338.072 C 264.213 330.536, 270 323.273, 270 322.440 C 270 322.010, 270.712 320.870, 271.583 319.908 C 275.027 316.103, 283.833 298.486, 286.783 289.500 C 293.930 267.730, 295.440 244.144, 290.960 224.236 C 290.432 221.890, 290 218.879, 290 217.545 C 290 216.210, 289.550 214.840, 289 214.500 C 288.450 214.160, 288 212.805, 288 211.488 C 288 210.171, 287.494 207.835, 286.875 206.297 C 286.257 204.759, 285.410 202.600, 284.994 201.500 C 277.853 182.644, 262.054 159.873, 249.772 150.735 C 238.478 142.331, 234.198 139.675, 224.500 135.052 C 210.309 128.288, 209.299 127.943, 194.500 124.819 C 187.655 123.375, 149.924 122.684, 148 123.968 M 158.500 141.679 C 153.550 142.327, 147.700 143.298, 145.500 143.836 C 117.618 150.655, 90.065 173.299, 76.971 200.158 C 75.271 203.646, 73.457 207.281, 72.940 208.236 C 72.423 209.191, 72 210.852, 72 211.927 C 72 213.002, 71.600 214.129, 71.110 214.432 C 70.621 214.734, 69.964 216.448, 69.650 218.241 C 67.076 232.939, 66.544 237.629, 66.560 245.500 C 66.589 260.156, 67.743 267.706, 72.138 282 C 76.907 297.509, 83.783 309.190, 95.135 321.067 C 109.146 335.727, 118.644 348.341, 121.059 355.500 C 121.801 357.700, 122.766 359.927, 123.204 360.450 C 123.642 360.972, 124 362.858, 124 364.641 C 124 366.424, 124.392 368.124, 124.871 368.420 C 125.745 368.960, 126.549 373.792, 127.821 386.148 C 128.828 395.938, 130.266 397.150, 140.439 396.787 L 148.500 396.500 148.428 388 C 148.315 374.559, 145.310 343.423, 143.120 333 C 142.600 330.525, 141.874 326.700, 141.508 324.500 C 141.141 322.300, 140.489 319.600, 140.059 318.500 C 139.629 317.400, 138.735 314.700, 138.072 312.500 C 137.410 310.300, 136.505 307.600, 136.061 306.500 C 134.905 303.637, 130.941 294.812, 129.891 292.764 C 128.590 290.227, 128.802 281.598, 130.200 280.200 C 130.860 279.540, 133.283 279, 135.584 279 C 140.137 279, 143.861 282.169, 148.896 290.326 C 150.726 293.292, 151.734 294.038, 153.379 293.644 C 158.767 292.353, 171.970 292.007, 177 293.026 C 190.510 295.763, 191.177 295.455, 196.072 284.244 C 198.085 279.633, 205.001 276.390, 209.024 278.171 C 215.178 280.895, 215.811 289.864, 210.353 297 C 208.038 300.026, 202.387 311.627, 201.096 316 C 200.366 318.475, 199.418 321.625, 198.991 323 C 195.459 334.365, 192.720 359.185, 192.592 381 L 192.500 396.500 200.259 396.792 C 210.324 397.171, 213 394.951, 213 386.220 C 213 383.202, 213.411 379.105, 213.913 377.116 C 214.416 375.127, 215.347 371.025, 215.983 368 C 217.190 362.257, 217.685 360.775, 220.320 355 C 222.661 349.869, 225.145 345.962, 228.245 342.535 C 229.755 340.866, 230.993 338.975, 230.995 338.333 C 230.998 337.692, 231.361 337.017, 231.803 336.833 C 232.245 336.650, 236.093 332.350, 240.353 327.278 C 244.614 322.206, 248.538 317.786, 249.072 317.455 C 251.590 315.899, 260.411 302.833, 263.557 296 C 264.443 294.075, 265.580 291.719, 266.084 290.764 C 266.588 289.809, 267 288.148, 267 287.073 C 267 285.998, 267.398 284.872, 267.885 284.571 C 268.371 284.271, 269.026 282.781, 269.340 281.262 C 269.654 279.743, 270.381 276.250, 270.957 273.500 C 273.883 259.522, 274.981 246.475, 273.946 238 C 272.617 227.116, 271.069 218.967, 269.912 216.764 C 269.410 215.809, 269 214.148, 269 213.073 C 269 211.998, 268.550 210.840, 268 210.500 C 267.450 210.160, 267.004 209.121, 267.008 208.191 C 267.019 205.993, 258.972 190, 257.855 190 C 257.385 190, 256.971 189.438, 256.936 188.750 C 256.748 185.033, 232.084 160.261, 228.372 160.061 C 227.752 160.027, 226.703 159.347, 226.040 158.548 C 225.378 157.750, 222.735 156.038, 220.168 154.744 C 217.601 153.449, 214.600 151.890, 213.500 151.279 C 199.654 143.588, 175.764 139.418, 158.500 141.679 M 156.625 312.798 C 156.354 313.237, 156.545 314.249, 157.051 315.048 C 157.556 315.846, 157.976 317.519, 157.985 318.764 C 157.993 320.009, 158.424 321.809, 158.942 322.764 C 162.671 329.639, 165.022 347.817, 165.893 376.500 L 166.500 396.500 169.500 396.500 L 172.500 396.500 173.159 380 C 173.924 360.867, 175.989 342.103, 178.990 327 C 181.500 314.374, 181.601 315.278, 177.481 313.556 C 173.546 311.913, 157.532 311.330, 156.625 312.798 M 120.200 424.200 C 118.272 426.128, 118.627 439.446, 120.652 441.128 C 122.459 442.629, 128.510 442.729, 186.500 442.218 C 224.041 441.888, 222.250 442.372, 222.250 432.551 C 222.250 428.792, 221.719 425.366, 221.003 424.503 C 219.340 422.500, 122.192 422.208, 120.200 424.200 M 307.559 443.550 C 305.901 446.081, 306.822 447.291, 312.500 450.038 C 314.150 450.836, 318.300 453.629, 321.721 456.244 C 325.143 458.860, 328.406 461, 328.971 461 C 329.537 461, 330 461.385, 330 461.855 C 330 462.843, 345.871 471.021, 347.764 471.008 C 348.459 471.004, 349.809 471.397, 350.764 471.883 C 351.719 472.369, 353.850 473.322, 355.500 474 C 357.150 474.678, 359.281 475.631, 360.236 476.117 C 361.191 476.603, 362.472 477, 363.082 477 C 363.692 477, 365.478 477.916, 367.050 479.035 L 369.908 481.071 373.373 477.290 C 375.761 474.684, 376.537 473.147, 375.869 472.342 C 373.830 469.886, 317.856 442.661, 313.478 441.997 C 309.566 441.403, 308.841 441.593, 307.559 443.550 M 120.750 450.608 C 119.350 451.039, 119 452.291, 119 456.874 C 119 463.877, 120.675 467.765, 124 468.480 C 127.853 469.310, 213.089 469.442, 216.612 468.624 C 221.824 467.414, 223.985 458.136, 220.200 453.219 L 218.444 450.937 170.472 450.504 C 144.087 450.265, 121.713 450.312, 120.750 450.608 M 305.666 473.985 C 304.246 475.673, 303.337 477.714, 303.647 478.521 C 304.416 480.525, 305.636 479.569, 307.604 475.422 C 309.787 470.823, 308.888 470.156, 305.666 473.985 M 141 481.846 C 141 487.485, 143.034 492.137, 146.488 494.400 C 149.881 496.624, 190.592 496.779, 194.835 494.585 C 199.089 492.386, 201.818 485.107, 200.443 479.628 L 199.783 477 170.392 477 L 141 477 141 481.846 M 348.079 494.095 C 348.036 494.972, 347.100 496.505, 346 497.500 C 343.567 499.702, 343.090 504, 345.500 502 C 346.325 501.315, 347 500, 347 499.078 C 347 498.155, 347.501 496.899, 348.113 496.288 C 348.724 495.676, 348.985 494.573, 348.691 493.837 C 348.304 492.865, 348.136 492.935, 348.079 494.095" stroke="none" fill="#265237" fill-rule="evenodd"/>
</svg>