<svg xmlns="http://www.w3.org/2000/svg" width="96" height="96" viewBox="-97.0 -93.0 736 736">
	<path d="M 248.500 30.080 C 239.998 30.899, 231.668 32.208, 223.500 34.009 C 220.750 34.615, 217.033 35.361, 215.241 35.666 C 213.448 35.971, 211.734 36.621, 211.432 37.110 C 211.129 37.600, 209.810 38, 208.500 38 C 207.190 38, 205.840 38.450, 205.500 39 C 205.160 39.550, 203.810 40, 202.500 40 C 201.190 40, 199.840 40.450, 199.500 41 C 199.160 41.550, 198.022 42, 196.971 42 C 195.921 42, 193.458 42.900, 191.500 44 C 189.542 45.100, 187.440 46, 186.830 46 C 185.145 46, 161.074 57.978, 156.320 61.182 C 154.021 62.732, 151.728 64, 151.225 64 C 150.722 64, 149.495 64.900, 148.500 66 C 147.505 67.100, 146.155 68, 145.500 68 C 144.845 68, 143.495 68.900, 142.500 70 C 141.505 71.100, 140.197 72.029, 139.595 72.064 C 138.993 72.098, 135.800 74.350, 132.500 77.067 C 129.200 79.785, 125.046 83.018, 123.269 84.254 C 119.501 86.873, 97.040 109.691, 92.171 115.845 C 85.069 124.823, 82 129.050, 82 129.854 C 82 130.314, 81.100 131.505, 80 132.500 C 78.900 133.495, 78 134.733, 78 135.251 C 78 135.768, 77.153 137.386, 76.118 138.846 C 70.323 147.019, 54 179.819, 54 183.289 C 54 184.010, 53.631 185.027, 53.181 185.550 C 52.730 186.072, 50.881 191.225, 49.071 197 C 47.261 202.775, 45.380 208.534, 44.890 209.797 C 44.401 211.060, 44 213.171, 44 214.488 C 44 215.805, 43.598 217.131, 43.106 217.435 C 42.614 217.739, 41.956 219.678, 41.645 221.744 C 41.333 223.810, 40.613 228.200, 40.043 231.500 C 36.332 253.017, 35.196 292.320, 37.788 309.500 C 41.158 331.831, 47.409 356.520, 53.042 369.750 C 53.569 370.988, 54.396 373.012, 54.880 374.250 C 57.131 380.002, 68.664 402.945, 71.182 406.680 C 72.732 408.979, 74 411.094, 74 411.380 C 74 411.666, 75.463 413.993, 77.250 416.552 C 79.038 419.111, 80.950 421.927, 81.500 422.810 C 82.050 423.693, 83.099 425.066, 83.831 425.860 C 84.563 426.655, 86.980 429.766, 89.202 432.773 C 99.577 446.818, 138.339 481.486, 147.653 485.052 C 148.837 485.506, 150.083 486.326, 150.423 486.875 C 150.762 487.424, 152.268 488.503, 153.770 489.273 C 155.271 490.043, 158.300 491.716, 160.500 492.991 C 168.193 497.449, 174.548 500.615, 180.500 502.954 C 183.800 504.251, 186.927 505.692, 187.450 506.156 C 187.972 506.620, 189.345 507, 190.500 507 C 191.655 507, 193.028 507.369, 193.550 507.820 C 194.073 508.271, 197.875 509.667, 202 510.923 C 206.125 512.178, 210.281 513.609, 211.236 514.103 C 212.191 514.596, 214.239 515, 215.786 515 C 217.334 515, 219.028 515.404, 219.550 515.898 C 220.073 516.391, 222.300 517.049, 224.500 517.358 C 226.700 517.668, 231.200 518.385, 234.500 518.951 C 261.846 523.642, 287.472 523.679, 311.500 519.063 C 320.791 517.279, 326.485 516.057, 330 515.094 C 331.925 514.567, 334.625 513.842, 336 513.484 C 337.375 513.126, 339.400 512.483, 340.500 512.055 C 341.600 511.627, 344.300 510.735, 346.500 510.072 C 350.596 508.839, 354.161 507.448, 357.236 505.883 C 358.191 505.397, 359.492 505, 360.126 505 C 364.638 505, 395.440 487.529, 408.457 477.587 C 421.736 467.445, 448.858 441.799, 452.328 436.104 C 453.201 434.672, 455.396 431.907, 457.207 429.960 C 459.018 428.013, 460.950 425.712, 461.500 424.847 C 462.050 423.982, 465.416 419.050, 468.980 413.887 C 474.706 405.591, 491 375.195, 491 372.809 C 491 372.311, 491.900 370.041, 493 367.764 C 494.100 365.487, 495 363.028, 495 362.299 C 495 361.569, 495.395 360.191, 495.877 359.236 C 497.337 356.347, 499 350.490, 499 348.238 C 499 347.072, 499.400 345.871, 499.890 345.568 C 500.379 345.266, 501.029 343.552, 501.334 341.759 C 501.639 339.967, 502.388 336.250, 502.998 333.500 C 507.217 314.469, 508.437 301.952, 508.456 277.500 C 508.472 256.225, 507.796 247.321, 504.999 232 C 504.447 228.975, 503.712 224.577, 503.365 222.227 C 503.018 219.877, 502.344 217.713, 501.867 217.418 C 501.390 217.123, 501 215.360, 501 213.500 C 501 211.640, 500.550 209.840, 500 209.500 C 499.450 209.160, 499 207.984, 499 206.887 C 499 204.787, 492.928 185.974, 490.323 180 C 489.483 178.075, 488.445 175.600, 488.016 174.500 C 485.939 169.173, 476.275 150.019, 473.799 146.320 C 472.259 144.021, 470.998 141.771, 470.996 141.320 C 470.993 140.869, 469.193 138.128, 466.996 135.230 C 464.798 132.331, 463 129.556, 463 129.063 C 463 128.570, 462.646 128.017, 462.214 127.833 C 461.782 127.650, 460.341 125.925, 459.013 124 C 448.565 108.855, 420.338 81.524, 406.856 73.500 C 405.932 72.950, 403.089 71.037, 400.538 69.250 C 397.987 67.463, 395.654 66, 395.354 66 C 395.054 66, 393.614 65.153, 392.154 64.118 C 385.111 59.125, 362.860 47.849, 350 42.757 C 348.625 42.212, 346.719 41.369, 345.764 40.883 C 344.809 40.397, 343.148 40, 342.073 40 C 340.998 40, 339.840 39.550, 339.500 39 C 339.160 38.450, 337.810 38, 336.500 38 C 335.190 38, 333.871 37.600, 333.568 37.110 C 333.266 36.621, 331.552 35.971, 329.759 35.666 C 327.967 35.361, 324.250 34.632, 321.500 34.046 C 300.008 29.468, 271.142 27.900, 248.500 30.080 M 254.500 48 C 252.300 48.487, 248.527 48.911, 246.116 48.942 C 243.705 48.974, 240.105 49.418, 238.116 49.930 C 236.127 50.441, 231.800 51.389, 228.500 52.037 C 225.200 52.684, 221.375 53.562, 220 53.986 C 218.625 54.411, 214.125 55.794, 210 57.059 C 205.875 58.325, 202.073 59.729, 201.550 60.180 C 201.028 60.631, 199.896 61, 199.035 61 C 195.529 61, 167.020 75.556, 155.856 83.046 C 139.115 94.278, 119.406 112.139, 111.217 123.500 C 109.631 125.700, 107.583 128.118, 106.667 128.872 C 105.750 129.627, 105 130.635, 105 131.111 C 105 131.587, 104.354 132.770, 103.565 133.739 C 99.594 138.614, 95 145.112, 95 145.854 C 95 146.314, 94.100 147.505, 93 148.500 C 91.900 149.495, 91 150.733, 91 151.251 C 91 151.768, 90.116 153.433, 89.035 154.951 C 86.215 158.911, 80.514 169.298, 76.383 178 C 74.425 182.125, 71.963 187.230, 70.912 189.345 C 69.860 191.459, 69 193.956, 69 194.895 C 69 195.833, 68.631 197.027, 68.180 197.550 C 67.729 198.072, 66.326 201.875, 65.061 206 C 63.796 210.125, 62.399 214.400, 61.956 215.500 C 61.513 216.600, 60.868 218.850, 60.522 220.500 C 60.176 222.150, 59.446 225.525, 58.900 228 C 50.981 263.916, 51.697 302.876, 60.866 335 C 61.415 336.925, 62.158 339.625, 62.516 341 C 62.874 342.375, 63.519 344.400, 63.950 345.500 C 65.441 349.311, 67.237 353.508, 68.117 355.236 C 68.603 356.191, 69 357.434, 69 357.997 C 69 359.239, 71.555 364.944, 78.628 379.500 C 86.004 394.679, 89.897 401.145, 98.796 413 C 100.654 415.475, 103.148 418.848, 104.337 420.497 C 113.089 432.622, 149.433 466, 153.885 466 C 154.328 466, 155.505 466.900, 156.500 468 C 157.495 469.100, 158.722 470, 159.225 470 C 159.728 470, 162.021 471.273, 164.320 472.828 C 169.628 476.419, 197.151 490, 199.120 490 C 199.934 490, 201.028 490.369, 201.550 490.820 C 202.073 491.271, 205.875 492.674, 210 493.939 C 214.125 495.204, 218.400 496.604, 219.500 497.051 C 220.600 497.498, 223.075 498.136, 225 498.470 C 226.925 498.803, 230.750 499.512, 233.500 500.045 C 251.945 503.622, 281.175 504.558, 299 502.142 C 304.225 501.434, 310.300 500.616, 312.500 500.325 C 314.700 500.034, 316.927 499.391, 317.450 498.898 C 317.972 498.404, 319.639 498, 321.153 498 C 322.667 498, 324.940 497.608, 326.203 497.128 C 327.466 496.648, 330.300 495.716, 332.500 495.056 C 342.414 492.084, 350.871 488.577, 364 481.995 C 379.193 474.379, 381.817 472.925, 383.040 471.452 C 383.703 470.653, 384.671 470, 385.192 470 C 386.370 470, 395.378 463.912, 395.833 462.808 C 396.017 462.364, 396.692 461.998, 397.333 461.995 C 397.975 461.993, 399.850 460.755, 401.500 459.245 C 403.150 457.735, 406.300 455.170, 408.500 453.544 C 414.442 449.152, 436.013 427.320, 440.655 420.999 C 442.877 417.973, 445.439 414.881, 446.348 414.126 C 447.256 413.372, 448 412.205, 448 411.533 C 448 410.860, 448.900 409.495, 450 408.500 C 451.100 407.505, 452 406.155, 452 405.500 C 452 404.845, 452.900 403.495, 454 402.500 C 455.100 401.505, 456 400.278, 456 399.775 C 456 399.272, 457.268 396.979, 458.818 394.680 C 462.067 389.859, 474 365.844, 474 364.126 C 474 363.492, 474.397 362.191, 474.883 361.236 C 476.392 358.271, 477.824 354.644, 478.926 351 C 479.508 349.075, 480.721 345.250, 481.621 342.500 C 483.865 335.642, 486.125 325.777, 488.035 314.500 C 491.064 296.623, 491.531 260.894, 488.918 247 C 488.349 243.975, 487.416 239.025, 486.845 236 C 486.273 232.975, 485.122 227.800, 484.287 224.500 C 483.451 221.200, 482.545 217.033, 482.273 215.241 C 482.002 213.448, 481.379 211.734, 480.890 211.432 C 480.400 211.129, 480 209.810, 480 208.500 C 480 207.190, 479.550 205.840, 479 205.500 C 478.450 205.160, 478 203.810, 478 202.500 C 478 201.190, 477.550 199.840, 477 199.500 C 476.450 199.160, 476 198.093, 476 197.129 C 476 196.165, 475.100 193.513, 474 191.236 C 472.900 188.959, 472 186.619, 472 186.035 C 472 185.451, 471.569 184.191, 471.041 183.236 C 470.514 182.281, 468.025 177.225, 465.509 172 C 460.727 162.066, 459.131 159.107, 454.998 152.514 C 453.624 150.322, 452.050 147.772, 451.500 146.848 C 441.399 129.876, 419.379 106.385, 398.956 90.796 C 385.245 80.330, 354.622 63, 349.839 63 C 349.048 63, 347.973 62.596, 347.450 62.102 C 346.095 60.821, 328.669 55, 326.190 55 C 325.051 55, 323.869 54.598, 323.565 54.106 C 323.261 53.614, 321.322 52.962, 319.256 52.656 C 317.190 52.351, 313.025 51.620, 310 51.032 C 294.373 47.992, 262.427 46.247, 254.500 48 M 357.273 93.843 C 356.089 94.587, 351.483 102.600, 350.005 106.486 C 349.141 108.759, 349.344 109.192, 351.764 110.235 C 353.269 110.883, 356.381 112.670, 358.680 114.207 C 360.979 115.743, 363.229 117.002, 363.680 117.004 C 364.131 117.007, 366.872 118.807, 369.770 121.004 C 372.669 123.202, 375.293 125, 375.600 125 C 377.716 125, 401.432 147.630, 408 155.915 C 412.142 161.141, 420 172.680, 420 173.538 C 420 173.869, 421.251 176.021, 422.781 178.320 C 425.433 182.307, 426.772 184.929, 429 190.500 C 429.550 191.875, 430.420 194.012, 430.934 195.250 C 431.448 196.488, 432.408 199.300, 433.068 201.500 C 436.408 212.638, 439.452 214.911, 446.526 211.555 C 453.850 208.079, 455.186 203.011, 450.833 195.220 C 449.825 193.415, 449 191.440, 449 190.830 C 449 189.145, 437.022 165.074, 433.818 160.320 C 432.268 158.021, 431 155.728, 431 155.225 C 431 154.722, 430.100 153.495, 429 152.500 C 427.900 151.505, 427 150.314, 427 149.854 C 427 147.305, 407.620 124.627, 402.229 120.866 C 400.980 119.995, 398.187 117.643, 396.022 115.641 C 393.858 113.638, 391.687 112, 391.199 112 C 390.710 112, 389.495 111.100, 388.500 110 C 387.505 108.900, 386.233 108, 385.674 108 C 385.115 108, 383.947 107.383, 383.079 106.628 C 382.210 105.874, 378.800 103.786, 375.500 101.990 C 372.200 100.193, 367.700 97.743, 365.500 96.544 C 360.069 93.586, 358.501 93.071, 357.273 93.843 M 339.147 132.137 C 335.854 137.409, 334 141.179, 334 142.602 C 334 144.293, 336.323 147, 337.774 147 C 338.278 147, 339.505 147.900, 340.500 149 C 341.495 150.100, 342.685 151, 343.144 151 C 346.466 151, 380 182.318, 380 185.421 C 380 186.119, 380.900 187.505, 382 188.500 C 383.100 189.495, 384 190.915, 384 191.655 C 384 192.395, 384.379 193, 384.843 193 C 385.306 193, 386.769 195.137, 388.093 197.750 C 389.417 200.363, 392.188 205.600, 394.250 209.388 C 396.313 213.177, 398 216.735, 398 217.294 C 398 217.854, 399.148 219.816, 400.551 221.656 C 407.522 230.795, 421.294 219.502, 416 208.986 C 415.450 207.894, 414.550 206.106, 414 205.014 C 413.450 203.921, 413 202.563, 413 201.995 C 413 201.428, 411.200 198.001, 409 194.380 C 406.800 190.758, 405 187.461, 405 187.053 C 405 186.644, 404.100 185.495, 403 184.500 C 401.900 183.505, 401 182.314, 401 181.854 C 401 179.260, 383.041 158.643, 374.005 150.863 C 365.589 143.618, 358.212 138, 357.114 138 C 356.636 138, 355.703 137.347, 355.040 136.548 C 353.531 134.730, 344.143 130, 342.044 130 C 341.184 130, 339.881 130.962, 339.147 132.137 M 260 197.675 C 256.975 197.917, 254.072 198.539, 253.550 199.057 C 253.028 199.576, 251.627 200, 250.438 200 C 247.299 200, 234.841 205.339, 229.281 209.067 C 223.613 212.867, 210 225.954, 210 227.603 C 210 228.236, 209.345 229.299, 208.544 229.963 C 206.679 231.511, 200 244.985, 200 247.200 C 200 248.125, 199.550 249.160, 199 249.500 C 198.450 249.840, 198 251.246, 198 252.625 C 198 254.003, 197.514 256.040, 196.919 257.151 C 196.313 258.284, 195.807 264.965, 195.768 272.357 C 195.690 287.068, 197.134 295.408, 201.117 303.236 C 201.603 304.191, 202 305.405, 202 305.933 C 202 308.333, 209.930 320.099, 215.429 325.859 C 226.127 337.064, 237.898 344.568, 250 347.897 C 252.475 348.578, 255.882 349.555, 257.571 350.068 C 264.792 352.260, 289.432 350.830, 295.236 347.882 C 296.191 347.397, 297.592 347, 298.348 347 C 300.233 347, 314.682 339.492, 318.442 336.559 C 324.584 331.767, 333.278 322.527, 335.844 318.064 C 339.927 310.962, 340.884 308.939, 342.739 303.482 C 346.886 291.285, 347.460 287.595, 347.480 273 C 347.503 256.495, 346.219 250.546, 339.783 237.324 C 331.342 219.985, 314.107 206.505, 291 199.170 C 287.043 197.914, 268.314 197.011, 260 197.675 M 261 216 C 260.175 216.533, 258.289 216.976, 256.809 216.985 C 255.329 216.993, 253.840 217.450, 253.500 218 C 253.160 218.550, 252.066 219, 251.069 219 C 248.478 219, 235.145 228.036, 230.969 232.622 C 218.454 246.365, 214.751 255.546, 214.708 272.935 C 214.677 285.874, 215.506 289.455, 221.521 302.356 C 226.989 314.084, 243.576 327.462, 256.500 330.567 C 262.156 331.926, 282.343 332.188, 286.500 330.957 C 300.721 326.745, 309.461 320.984, 317.538 310.500 C 320.767 306.309, 326 296.145, 326 294.065 C 326 293.113, 326.337 292.002, 326.750 291.596 C 327.163 291.191, 327.950 287.178, 328.500 282.680 C 329.492 274.562, 328.420 259.074, 326.750 257.413 C 326.337 257.002, 326 255.905, 326 254.974 C 326 245.324, 305.011 223.134, 291.500 218.500 C 281.624 215.112, 264.540 213.712, 261 216 M 259.444 241.369 C 250.246 244.773, 244.276 251.509, 239.126 264.297 C 237.667 267.922, 237.676 279.111, 239.141 282.703 C 244.756 296.461, 254.170 307, 260.845 307 C 261.965 307, 263.160 307.450, 263.500 308 C 264.599 309.779, 278.113 309.152, 283.846 307.056 C 292.297 303.967, 302.895 293.936, 302.975 288.950 C 302.989 288.098, 303.550 286.850, 304.222 286.178 C 306.718 283.682, 305.864 263.088, 303.029 257.431 C 298.830 249.052, 292.910 244.002, 283.929 241.139 C 279.452 239.711, 263.520 239.861, 259.444 241.369 M 267.031 258.481 C 260.354 260.909, 257 266.260, 257 274.487 C 257 281.246, 257.197 281.870, 260.578 285.820 C 264.033 289.856, 264.360 290, 270.099 290 C 283.676 290, 292.292 276.443, 285.366 265.978 C 280.779 259.045, 273.577 256.100, 267.031 258.481 M 138.354 331.381 C 131.182 333.319, 128.278 337.763, 130.916 342.764 C 131.420 343.719, 132.594 346.300, 133.525 348.500 C 137.282 357.377, 143.509 368.736, 147.059 373.191 C 148.676 375.222, 150 377.170, 150 377.522 C 150 379.325, 172.139 403.043, 176.116 405.501 C 177.005 406.051, 181.055 408.765, 185.116 411.533 C 196.292 419.150, 201.570 421.582, 203.228 419.878 C 204.897 418.163, 209 408.327, 209 406.041 C 209 404.393, 205.103 400, 203.640 400 C 199.343 400, 167 371.323, 167 367.513 C 167 366.816, 166.334 365.692, 165.521 365.017 C 164.707 364.342, 163.409 362.599, 162.636 361.145 C 158.729 353.794, 154.191 344.636, 151.522 338.717 C 149.665 334.601, 147.670 331.715, 146.225 331.057 C 143.626 329.872, 143.996 329.857, 138.354 331.381 M 96.635 346.073 C 93.698 348.383, 93.073 353.594, 95.121 358.703 C 101.537 374.709, 115.142 397.883, 126.410 412 C 133.224 420.536, 155.349 441, 157.765 441 C 158.274 441, 159.505 441.900, 160.500 443 C 161.495 444.100, 162.733 445, 163.251 445 C 163.768 445, 165.463 445.905, 167.017 447.012 C 172.181 450.689, 181.169 455, 183.673 455 C 187.489 455, 189.974 451.318, 191.436 443.500 C 192.125 439.811, 191.483 438.853, 186.888 436.716 C 184.901 435.793, 182.708 434.354, 182.015 433.518 C 181.322 432.683, 180.248 431.998, 179.628 431.996 C 179.007 431.993, 176.128 430.193, 173.230 427.996 C 170.331 425.798, 167.707 424, 167.400 424 C 164.231 424, 130.808 390.470, 129.120 385.598 C 128.910 384.994, 128.085 383.748, 127.286 382.829 C 125.480 380.752, 122.868 376.147, 119.443 369 C 117.993 365.975, 115.951 361.770, 114.904 359.655 C 113.857 357.541, 113 355.172, 113 354.392 C 113 353.611, 112.603 352.191, 112.117 351.236 C 111.631 350.281, 110.655 348.262, 109.948 346.750 C 108.267 343.155, 100.825 342.777, 96.635 346.073" stroke="none" fill="#265237" fill-rule="evenodd"/>
</svg>