<svg xmlns="http://www.w3.org/2000/svg" width="96" height="96" viewBox="-126.0 -72.0 736 736">
	<path d="M 135 25.490 C 127.918 28.023, 126.276 30.802, 125.464 41.632 C 124.548 53.861, 127.039 85.285, 129.097 87.450 C 129.594 87.972, 130 89.408, 130 90.641 C 130 91.874, 130.450 93.160, 131 93.500 C 131.550 93.840, 132 95.190, 132 96.500 C 132 97.810, 132.450 99.160, 133 99.500 C 133.550 99.840, 134 100.771, 134 101.570 C 134 109.591, 157.175 142.458, 166.433 147.567 C 169.854 149.455, 170.753 151.929, 168.600 153.529 C 165.607 155.752, 157.057 164.058, 150.500 171.112 C 136.829 185.820, 134.326 188.606, 132.841 190.771 C 131.983 192.020, 129.753 194.720, 127.885 196.771 C 123.394 201.701, 106 224.832, 106 225.874 C 106 226.323, 105.100 227.505, 104 228.500 C 102.900 229.495, 102 230.657, 102 231.082 C 102 231.506, 99.750 235.251, 97 239.403 C 94.250 243.556, 92 247.143, 92 247.375 C 92 247.606, 90.279 250.654, 88.176 254.148 C 84.767 259.809, 70.977 287.357, 68.977 292.500 C 68.549 293.600, 67.254 296.633, 66.100 299.239 C 64.945 301.846, 64 304.632, 64 305.430 C 64 306.229, 63.550 307.160, 63 307.500 C 62.450 307.840, 62 309.126, 62 310.359 C 62 311.592, 61.602 313.028, 61.116 313.550 C 60.194 314.542, 57.148 323.284, 55.036 331 C 54.359 333.475, 53.399 336.281, 52.903 337.236 C 52.406 338.191, 52 340.302, 52 341.927 C 52 343.552, 51.600 345.129, 51.110 345.432 C 50.621 345.734, 49.971 347.448, 49.666 349.241 C 49.361 351.033, 48.603 354.750, 47.983 357.500 C 47.362 360.250, 46.639 364.525, 46.375 367 C 46.111 369.475, 45.499 372.400, 45.013 373.500 C 44.528 374.600, 43.891 377.975, 43.597 381 C 43.303 384.025, 42.637 390.100, 42.116 394.500 C 41.596 398.900, 40.644 407.225, 40 413 C 39.356 418.775, 38.407 426.650, 37.891 430.500 C 32.728 468.993, 33.125 481.546, 40.202 503.500 C 46.869 524.184, 60.498 541.471, 80.500 554.612 C 86.226 558.374, 88.560 559.603, 94.750 562.117 C 96.263 562.731, 98.281 563.631, 99.236 564.117 C 100.191 564.603, 101.852 565, 102.927 565 C 104.002 565, 105.129 565.400, 105.432 565.890 C 106.066 566.916, 110.235 567.717, 121.500 568.979 C 131.914 570.145, 347.437 570.128, 360.500 568.960 C 373.965 567.756, 378.906 566.962, 379.565 565.894 C 379.869 565.402, 380.998 565, 382.073 565 C 383.148 565, 384.809 564.589, 385.764 564.086 C 386.719 563.583, 389.975 562.009, 393 560.589 C 399.947 557.327, 404.670 554.608, 406.908 552.583 C 407.870 551.712, 409.003 551, 409.425 551 C 410.891 551, 422.528 540.143, 427.417 534.213 C 434.170 526.024, 443 510.337, 443 506.529 C 443 505.753, 443.396 504.873, 443.881 504.574 C 445.583 503.522, 447.925 491.799, 449.190 478 C 450.218 466.791, 449.445 449.261, 447.052 429.500 C 445.319 415.185, 443.972 403.755, 443.018 395.250 C 440.227 370.380, 435.600 345.167, 430.861 329 C 430.297 327.075, 429.596 324.257, 429.302 322.738 C 429.009 321.219, 428.371 319.729, 427.885 319.429 C 427.398 319.128, 427 317.810, 427 316.500 C 427 315.190, 426.550 313.840, 426 313.500 C 425.450 313.160, 425 311.810, 425 310.500 C 425 309.190, 424.550 307.840, 424 307.500 C 423.450 307.160, 423 306.229, 423 305.430 C 423 304.632, 422.055 301.846, 420.900 299.239 C 419.746 296.633, 418.453 293.600, 418.027 292.500 C 417.602 291.400, 416.343 288.475, 415.231 286 C 414.118 283.525, 412.425 279.700, 411.468 277.500 C 408.843 271.466, 403.641 260.969, 401.184 256.750 C 399.983 254.688, 398.064 251.348, 396.921 249.328 C 395.011 245.957, 392.692 242.528, 383.846 230 C 381.057 226.050, 376.624 220.162, 366.786 207.339 C 365.293 205.393, 362.368 201.897, 360.286 199.569 C 358.204 197.241, 355.639 194.248, 354.587 192.918 C 347.072 183.421, 335.047 170.873, 322.610 159.551 L 312.779 150.602 317.273 146.551 C 319.744 144.323, 324.568 140.053, 327.991 137.061 C 334.031 131.784, 337.677 127.480, 346.942 114.696 C 352.008 107.705, 361 90.565, 361 87.899 C 361 86.919, 361.450 85.840, 362 85.500 C 362.550 85.160, 363 83.810, 363 82.500 C 363 81.190, 363.389 79.877, 363.865 79.583 C 364.341 79.289, 365.055 77.350, 365.452 75.274 C 365.850 73.198, 366.594 69.475, 367.108 67 C 367.621 64.525, 368.508 57.775, 369.079 52 C 369.650 46.225, 370.358 39.134, 370.652 36.243 C 371.160 31.244, 371.010 30.810, 367.615 27.415 L 364.044 23.844 348.772 24.371 C 333.424 24.902, 322.774 26.004, 313.500 28.023 C 310.750 28.621, 307.033 29.361, 305.241 29.666 C 303.448 29.971, 301.734 30.621, 301.432 31.110 C 301.129 31.600, 299.810 32, 298.500 32 C 297.190 32, 295.840 32.450, 295.500 33 C 295.160 33.550, 294.121 34.006, 293.191 34.013 C 292.261 34.019, 283.400 38.069, 273.500 43.012 C 253.584 52.956, 251.334 53.454, 244 49.545 C 213.585 33.330, 199.280 28.529, 171 25.045 C 159.755 23.659, 139.416 23.911, 135 25.490 M 340 43.056 C 330.571 44.132, 319.385 46.108, 311.750 48.047 C 298.595 51.389, 298.689 51.357, 289.858 55.333 C 283.887 58.020, 277 63.408, 277 65.391 C 277 66.042, 279.250 68.791, 282 71.500 C 288.232 77.638, 288.701 81.480, 283.927 87.272 C 279.326 92.854, 278.150 92.531, 260.960 80.973 C 256.074 77.688, 251.803 75, 251.469 75 C 251.134 75, 248.979 73.740, 246.680 72.200 C 242.906 69.672, 219.414 57.858, 214.500 56.017 C 213.400 55.605, 211.375 54.780, 210 54.185 C 196.264 48.238, 165.096 42.351, 151.568 43.150 C 145.956 43.481, 145.588 43.662, 144.756 46.500 C 143.677 50.179, 144.555 69.593, 146.060 75.319 C 146.664 77.619, 147.617 81.300, 148.177 83.500 C 148.737 85.700, 149.601 88.281, 150.097 89.236 C 150.594 90.191, 151 91.660, 151 92.500 C 151 93.340, 151.401 94.809, 151.891 95.764 C 152.380 96.719, 153.827 99.750, 155.105 102.500 C 164.578 122.879, 186.214 141.848, 197.253 139.453 C 202.130 138.395, 202.105 137.656, 196.851 127.306 C 194.183 122.050, 192 116.932, 192 115.934 C 192 114.935, 191.602 113.872, 191.115 113.571 C 190.629 113.271, 189.974 111.781, 189.660 110.262 C 189.346 108.743, 188.601 105.250, 188.004 102.500 C 184.768 87.593, 184.635 80.222, 187.549 77.308 C 188.333 76.524, 191.189 76.009, 194.679 76.022 C 203.335 76.055, 204.752 77.543, 206.090 88.006 C 207.765 101.114, 208.585 103.877, 214.462 116.211 C 218.288 124.244, 227.293 134, 230.881 134 C 231.826 134, 233.028 134.401, 233.550 134.891 C 234.072 135.381, 237.425 136.085, 241 136.454 C 275.377 140.003, 286.161 140.563, 290.234 139.011 C 296.827 136.497, 299.753 135.002, 300.985 133.518 C 301.678 132.683, 302.798 132, 303.473 132 C 305.071 132, 328 109.122, 328 107.527 C 328 106.858, 328.900 105.495, 330 104.500 C 331.100 103.505, 332 102.278, 332 101.775 C 332 101.272, 333.269 98.979, 334.821 96.680 C 338.166 91.723, 344 79.700, 344 77.763 C 344 77.013, 344.372 75.973, 344.826 75.450 C 345.280 74.928, 346.211 72.475, 346.894 70 C 347.577 67.525, 348.532 64.150, 349.017 62.500 C 349.739 60.043, 350.376 48.429, 350.073 43.250 C 349.995 41.919, 349.971 41.919, 340 43.056 M 208 156.481 C 196.158 158.319, 195.113 158.744, 185.846 165.486 C 177.362 171.659, 152.495 195.865, 146.110 204.166 C 130.767 224.111, 121 237.233, 121 237.900 C 121 238.335, 120.100 239.505, 119 240.500 C 117.900 241.495, 117 242.845, 117 243.500 C 117 244.155, 116.100 245.505, 115 246.500 C 113.900 247.495, 113 248.845, 113 249.500 C 113 250.155, 112.100 251.505, 111 252.500 C 109.900 253.495, 109 254.722, 109 255.225 C 109 255.728, 107.733 258.021, 106.183 260.320 C 103.023 265.009, 89 293.110, 89 294.753 C 89 295.335, 88.036 297.766, 86.858 300.155 C 84.852 304.223, 84.015 306.168, 81.866 311.750 C 80.183 316.123, 78.756 319.520, 77.883 321.236 C 77.397 322.191, 77 323.852, 77 324.927 C 77 326.002, 76.550 327.160, 76 327.500 C 75.450 327.840, 75 329.190, 75 330.500 C 75 331.810, 74.550 333.160, 74 333.500 C 73.450 333.840, 73 335.190, 73 336.500 C 73 337.810, 72.600 339.129, 72.110 339.432 C 71.621 339.734, 70.979 341.448, 70.683 343.241 C 70.387 345.033, 69.688 348.300, 69.129 350.500 C 64.334 369.397, 61.102 389.443, 58.973 413.500 C 58.437 419.550, 57.557 427.875, 57.018 432 C 56.478 436.125, 55.577 444.450, 55.015 450.500 C 54.453 456.550, 53.882 462.625, 53.746 464 C 53.293 468.605, 55.156 488.979, 56.084 489.552 C 56.588 489.863, 57 491.195, 57 492.512 C 57 502.746, 71.777 523.852, 86.993 535.349 C 92.974 539.869, 108.395 548, 110.986 548 C 111.874 548, 113.028 548.408, 113.550 548.908 C 115.737 550.997, 131.841 551.363, 238 551.730 C 348.090 552.112, 363.141 551.787, 371.500 548.852 C 379.523 546.034, 383.810 544.020, 388.680 540.781 C 390.979 539.251, 393.153 538, 393.510 538 C 394.196 538, 400.152 533.185, 407.735 526.500 C 414.590 520.457, 426 502.384, 426 497.570 C 426 496.771, 426.402 495.869, 426.894 495.565 C 427.828 494.988, 428.338 492.041, 429.905 478.150 C 430.888 469.444, 429.814 443.672, 428.003 432.500 C 427.468 429.200, 426.563 421.775, 425.993 416 C 422.567 381.348, 421.447 372.837, 419.015 363 C 418.539 361.075, 417.599 356.800, 416.925 353.500 C 415.830 348.127, 414.486 342.651, 412.017 333.500 C 410.378 327.421, 407.790 319.451, 406.908 317.764 C 406.408 316.809, 406 315.566, 406 315.003 C 406 314.439, 405.055 311.846, 403.900 309.239 C 402.746 306.633, 401.440 303.600, 400.998 302.500 C 399.063 297.679, 393.553 285.864, 389.805 278.500 C 381.882 262.931, 380.888 261.152, 379.452 259.960 C 378.653 259.297, 378 258.348, 378 257.851 C 378 256.659, 360.823 231.133, 358.109 228.292 C 356.949 227.077, 356 225.685, 356 225.197 C 356 224.709, 355.036 223.453, 353.857 222.405 C 352.678 221.357, 350.991 219.341, 350.107 217.924 C 346 211.341, 315.245 178.907, 307.405 172.893 C 290.228 159.715, 290.333 159.776, 282.169 157.953 C 276.036 156.582, 274.047 157.549, 276.744 160.590 C 277.710 161.679, 280.058 164.579, 281.963 167.035 C 283.868 169.491, 285.780 171.650, 286.213 171.833 C 286.646 172.017, 287 172.749, 287 173.461 C 287 174.173, 287.649 175.294, 288.443 175.952 C 290.099 177.327, 299 194.880, 299 196.771 C 299 197.462, 299.395 198.809, 299.877 199.764 C 301.337 202.653, 303 208.510, 303 210.762 C 303 211.928, 303.450 213.160, 304 213.500 C 304.550 213.840, 305 215.246, 305 216.625 C 305 218.003, 305.475 220.019, 306.055 221.104 C 308.378 225.444, 304.064 228.944, 295.994 229.266 C 291.572 229.442, 288.071 226.574, 288.022 222.736 C 288.001 221.029, 287.610 220.010, 285.156 215.264 C 284.520 214.034, 284 212.211, 284 211.214 C 284 210.216, 283.628 208.972, 283.174 208.450 C 282.720 207.928, 281.717 205.475, 280.945 203 C 276.801 189.701, 266.094 176.384, 250.083 164.615 C 237.520 155.380, 227.532 153.450, 208 156.481 M 259.500 277 C 259.160 277.550, 258.002 278, 256.927 278 C 255.060 278, 251.057 279.805, 250 281.124 C 248.262 283.293, 241.929 285.993, 238.571 285.996 C 233.621 286.001, 229.566 287.301, 219.480 292.115 C 211.331 296.006, 209.160 297.830, 199.978 308.500 C 192.698 316.960, 188.326 320.634, 182 323.608 C 176.917 325.997, 172.567 328.167, 165.855 331.664 C 164.401 332.422, 162.658 333.707, 161.983 334.521 C 161.308 335.334, 160.301 336, 159.746 336 C 158.445 336, 150.929 343.748, 149.075 347 C 139.884 363.128, 139.628 375.394, 148.214 388.154 C 150.160 391.047, 150.518 394.056, 149.094 395.550 C 145.031 399.812, 140 415.851, 140 424.545 C 140 434.274, 145.922 446.610, 154.646 455.052 C 158.027 458.324, 161.219 461, 161.741 461 C 162.263 461, 163.505 461.900, 164.500 463 C 165.495 464.100, 166.860 465, 167.533 465 C 168.205 465, 169.334 465.697, 170.041 466.550 C 170.748 467.402, 173.251 468.976, 175.603 470.047 C 177.955 471.118, 180.129 472.400, 180.436 472.896 C 181.325 474.335, 202.918 484.647, 209.500 486.775 C 222.322 490.922, 234.444 492.033, 243.736 489.913 C 258.427 486.561, 262.854 484.182, 272.224 474.606 C 280.695 465.950, 280.037 466.074, 286.027 472 C 293.327 479.223, 297.871 477.902, 303.068 467.048 C 305.349 462.285, 306.029 451.972, 304.211 449.723 C 301.779 446.715, 300.669 437.270, 302.007 430.968 C 304.657 418.482, 319.032 401.819, 334.125 393.740 C 344.655 388.103, 353 380.576, 353 376.715 C 353 375.837, 353.450 374.840, 354 374.500 C 355.610 373.505, 355.206 359.719, 353.464 356.228 C 350.975 351.238, 340.933 342.605, 335.930 341.154 C 325.145 338.026, 323.466 337.254, 322.346 334.912 C 319.559 329.084, 317 321.104, 317 318.238 C 317 317.072, 316.550 315.840, 316 315.500 C 315.450 315.160, 315 314.085, 315 313.110 C 315 310.914, 311.277 303.454, 308.196 299.475 C 302.168 291.692, 289.010 282.914, 274.703 277.131 C 271.244 275.732, 260.341 275.639, 259.500 277 M 265.531 296.250 C 265.307 296.938, 264.871 304.700, 264.563 313.500 C 264.254 322.300, 263.725 333.026, 263.387 337.336 C 262.667 346.525, 263.170 347.320, 268.500 345.415 C 270.700 344.628, 273.625 344.237, 275 344.547 C 280.192 345.715, 292.524 352.682, 297.662 357.350 L 303 362.201 303 369.041 C 303 372.804, 302.550 376.160, 302 376.500 C 301.450 376.840, 301 377.786, 301 378.603 C 301 381.336, 293.658 388.061, 287.430 391.034 C 284.039 392.652, 280.700 394.656, 280.010 395.488 C 279.320 396.320, 278.227 397, 277.581 397 C 275.444 397, 268.961 404.811, 265.961 411 C 261.005 421.223, 261.345 426.576, 267.141 429.573 C 268.836 430.449, 273.097 434.084, 276.611 437.650 C 280.125 441.216, 283.003 443.991, 283.007 443.817 C 283.205 434.144, 284.103 424.261, 285.050 421.321 C 289.615 407.147, 301.420 390.709, 311.695 384.218 C 314.061 382.723, 315.997 381.163, 315.998 380.750 C 315.999 380.337, 316.470 380, 317.045 380 C 318.480 380, 332.073 370.726, 334.330 368.208 C 336.839 365.408, 336.092 362.169, 332.500 360.277 C 326.958 357.359, 326.035 357, 324.073 357 C 322.998 357, 321.840 356.550, 321.500 356 C 321.160 355.450, 320.078 355, 319.095 355 C 313.111 355, 306.658 348.388, 302.991 338.500 C 302.583 337.400, 301.743 335.241, 301.125 333.703 C 300.506 332.165, 300 330.021, 300 328.939 C 300 327.858, 299.605 326.191, 299.123 325.236 C 298.640 324.281, 297.711 321.700, 297.057 319.500 C 294.759 311.768, 288.574 303, 285.419 303 C 284.773 303, 283.678 302.317, 282.985 301.482 C 281.814 300.071, 279.887 299.070, 272.703 296.141 C 269.038 294.646, 266.037 294.692, 265.531 296.250 M 234.500 304.680 C 229.040 305.451, 225.310 307.903, 219.372 314.624 C 209.695 325.578, 198.662 336.431, 196 337.618 C 194.625 338.231, 192.375 339.182, 191 339.732 C 189.625 340.282, 187.375 341.227, 186 341.832 C 184.625 342.437, 181.001 344.009, 177.946 345.324 C 156.201 354.690, 154.960 381.271, 176.001 387 C 178.820 387.768, 181.350 388.757, 181.622 389.198 C 181.895 389.639, 182.929 390, 183.921 390 C 185.931 390, 199.311 396.661, 203.983 399.988 C 207.942 402.807, 212.298 409.393, 213.913 415 C 214.625 417.475, 215.611 420.534, 216.104 421.797 C 216.597 423.060, 217 424.818, 217 425.703 C 217 429.527, 221.913 434, 226.113 434 C 236.479 434, 242 429.982, 242 422.439 C 242 420.533, 242.395 418.191, 242.877 417.236 C 243.360 416.281, 244.292 413.700, 244.948 411.500 C 248.039 401.141, 259.706 384, 263.665 384 C 264.264 384, 265.320 383.320, 266.010 382.488 C 266.700 381.656, 270.044 379.649, 273.441 378.028 C 284.107 372.938, 284.848 371.043, 277.720 367.094 C 272.875 364.410, 245.435 363.939, 240.396 366.452 C 236.074 368.609, 231.405 373.971, 229.906 378.500 C 228.003 384.254, 227.201 385, 222.928 385 C 213.518 385, 210.059 370.232, 217.154 360.342 C 221.636 354.094, 228.673 348.803, 234.714 347.140 C 237.346 346.415, 239.999 345.675, 240.608 345.497 C 241.770 345.156, 244.511 313.068, 243.854 307.500 C 243.476 304.294, 241.483 303.693, 234.500 304.680 M 163.783 407.790 C 159.169 415.602, 157.926 424.327, 160.410 431.466 C 161.809 435.485, 171.267 446, 173.483 446 C 174.147 446, 175.505 446.900, 176.500 448 C 177.495 449.100, 178.722 450, 179.225 450 C 179.728 450, 182.102 451.350, 184.500 453 C 186.898 454.650, 189.164 456, 189.535 456 C 189.906 456, 192.075 457.249, 194.355 458.776 C 215.709 473.076, 235.165 475.737, 252.500 466.727 C 257.523 464.116, 258.732 463.288, 262.250 460.048 C 267.389 455.315, 267.178 452.884, 261.250 448.535 C 255.769 444.514, 250.975 443.967, 245.780 446.771 C 235.720 452.200, 221.290 452.971, 212.257 448.562 C 206.646 445.823, 201.275 439.610, 200.297 434.729 C 199.992 433.205, 199.350 431.716, 198.871 431.420 C 198.392 431.124, 198 430.085, 198 429.110 C 198 426.475, 193.558 418.193, 190.329 414.809 C 187.540 411.886, 178.280 407, 175.529 407 C 174.753 407, 173.840 406.550, 173.500 406 C 172.067 403.682, 165.494 404.893, 163.783 407.790" stroke="none" fill="#265237" fill-rule="evenodd"/>
</svg>