<svg xmlns="http://www.w3.org/2000/svg" width="96" height="96" viewBox="0.0 -149.0 736 736">
	<path d="M 435.500 52.134 C 423.380 53.798, 407.637 57.400, 401.500 59.913 C 400.400 60.364, 398.375 61.183, 397 61.735 C 394.672 62.668, 384.926 67.457, 378.855 70.650 C 377.401 71.415, 375.658 72.707, 374.983 73.521 C 374.308 74.334, 373.325 75, 372.799 75 C 369.901 75, 343 101.541, 343 104.400 C 343 104.707, 341.202 107.331, 339.004 110.230 C 336.807 113.128, 335.007 115.869, 335.004 116.320 C 335.002 116.771, 333.650 119.102, 332 121.500 C 330.350 123.898, 329 126.330, 329 126.903 C 329 127.477, 327.919 129.871, 326.598 132.223 L 324.196 136.500 195.894 136.754 C 112.363 136.919, 67.245 137.355, 66.596 138.004 C 66.048 138.552, 64.839 139, 63.908 139 C 61.514 139, 52.284 147.560, 50.605 151.338 C 47.106 159.208, 46.976 163.055, 47.036 256.740 C 47.097 350.314, 47.256 354.864, 50.756 362.901 C 53.066 368.206, 59.671 374.691, 65.858 377.730 L 71.500 380.500 269.500 380.500 L 467.500 380.500 473.318 377.643 C 479.235 374.738, 485.922 367.429, 485.975 363.809 C 485.989 362.879, 486.450 361.840, 487 361.500 C 488.502 360.572, 488.365 158.988, 486.859 155.297 C 483.850 147.916, 482.953 146.305, 480.653 144.144 C 479.291 142.864, 476.036 140.734, 473.419 139.409 L 468.661 137 407.997 137 C 374.632 137, 347.045 136.711, 346.692 136.359 C 346.339 136.006, 347.381 133.294, 349.006 130.332 C 362.368 105.985, 387.115 84.639, 411.500 76.427 C 425.178 71.821, 434.624 70.615, 456.500 70.685 C 475.439 70.746, 482.936 71.398, 494.500 73.990 C 497.250 74.607, 500.967 75.361, 502.759 75.666 C 504.552 75.971, 506.266 76.621, 506.568 77.110 C 506.871 77.600, 507.998 78, 509.073 78 C 510.148 78, 511.809 78.397, 512.764 78.883 C 513.719 79.369, 515.625 80.212, 517 80.757 C 525.816 84.248, 536.023 90.100, 544.459 96.500 C 554.526 104.137, 573 123.808, 573 126.889 C 573 127.365, 573.655 128.299, 574.456 128.963 C 576.147 130.367, 582.741 143.572, 583.193 146.461 C 583.433 147.992, 582.734 148.578, 580 149.135 C 562.341 152.733, 550.501 160.495, 538.406 176.403 C 534.265 181.851, 529 191.724, 529 194.043 C 529 194.584, 528.594 195.809, 528.097 196.764 C 524.724 203.254, 524.500 207.252, 524.500 261 C 524.500 322.116, 524.318 320.492, 533.227 338.701 C 537.987 348.428, 545.584 357.954, 554.034 364.792 C 560.188 369.771, 571.092 376, 573.654 376 C 574.409 376, 575.809 376.406, 576.764 376.903 C 586.049 381.729, 627.896 383.232, 632.450 378.903 C 632.972 378.406, 634.345 378, 635.500 378 C 636.655 378, 638.028 377.642, 638.550 377.204 C 639.073 376.766, 641.300 375.803, 643.500 375.063 C 645.700 374.322, 649.381 372.431, 651.680 370.858 C 653.979 369.286, 656.143 368, 656.489 368 C 656.834 368, 659.487 366.088, 662.385 363.750 C 671.845 356.119, 681.740 341.727, 684.902 331 C 685.631 328.525, 686.593 325.600, 687.039 324.500 C 689.636 318.094, 689.990 293.449, 688.207 243 C 687.069 210.788, 686.466 203.406, 684.894 202.435 C 684.402 202.131, 684 200.874, 684 199.641 C 684 198.408, 683.622 196.973, 683.160 196.450 C 682.698 195.928, 681.707 193.925, 680.957 192 C 673.941 173.986, 654.307 155.277, 637 150.114 C 634.525 149.376, 631.600 148.420, 630.500 147.989 C 629.400 147.558, 623.370 146.719, 617.101 146.123 C 605.843 145.053, 602 143.625, 602 140.510 C 602 137.837, 591.604 118.744, 586.915 112.809 C 585.312 110.778, 584 108.841, 584 108.504 C 584 108.167, 582.652 106.453, 581.005 104.696 C 579.357 102.938, 576.115 99.250, 573.800 96.500 C 567.375 88.867, 554.539 78.600, 544.335 72.931 C 533.878 67.121, 520.686 61, 518.622 61 C 517.795 61, 516.872 60.602, 516.571 60.115 C 516.271 59.629, 514.781 58.981, 513.262 58.677 C 511.743 58.372, 508.475 57.617, 506 56.999 C 486.754 52.191, 452.371 49.819, 435.500 52.134 M 71.227 156.553 C 65.788 160.363, 66 156.270, 66 257.564 L 66 351.228 68.164 355.078 C 72.406 362.626, 54.762 362.044, 270.889 361.758 L 464.945 361.500 467.222 359.222 L 469.500 356.944 469.500 258.500 L 469.500 160.055 467.222 157.778 L 464.945 155.500 269.205 155.243 C 92.786 155.011, 73.245 155.140, 71.227 156.553 M 609.738 164.596 C 609.410 164.923, 609.401 169.185, 609.717 174.067 C 610.358 183.960, 609.796 185.391, 604.880 186.374 C 598.747 187.601, 595.026 184.716, 594.985 178.703 C 594.963 175.487, 592.577 169.148, 590.670 167.242 C 589.267 165.839, 588.520 165.772, 585.689 166.796 C 583.857 167.458, 581.559 168, 580.583 168 C 579.607 168, 575.536 169.553, 571.537 171.450 C 559.662 177.086, 551.447 186.690, 544.978 202.500 C 542.872 207.647, 542.535 215.775, 542.535 261.500 C 542.535 319.748, 542.021 315.644, 551.642 334.101 C 556.043 342.543, 570.626 354.341, 582 358.661 C 593.316 362.959, 617.503 364.942, 622.963 362.020 C 624.011 361.459, 625.706 361, 626.729 361 C 630.242 361, 646.093 352.214, 651.338 347.359 C 660.366 339.002, 665.403 331.595, 667.900 323 C 668.620 320.525, 669.611 317.466, 670.104 316.203 C 670.597 314.940, 670.998 301.215, 670.995 285.703 L 670.991 257.500 667.995 254.304 C 663.905 249.940, 663.757 242.297, 667.629 235.362 C 671.687 228.093, 670.136 213.548, 663.777 199.250 C 657.524 185.191, 641.788 171.327, 627.500 167.289 C 615.524 163.904, 611.100 163.233, 609.738 164.596 M 130.192 178.268 C 129.300 179.344, 129.017 183.224, 129.217 191.642 L 129.500 203.500 142.750 203.779 L 156 204.058 156 191.029 L 156 178 150.250 177.993 C 147.088 177.989, 141.564 177.708, 137.975 177.369 C 132.817 176.882, 131.187 177.070, 130.192 178.268 M 184 177.949 L 172.500 178.500 172.208 189 C 171.757 205.272, 170.649 204.108, 186.276 203.779 L 199.500 203.500 199.783 191.642 C 200.062 179.936, 199.358 176.716, 196.628 177.199 C 196.007 177.309, 190.325 177.647, 184 177.949 M 224 177.637 C 214.382 178.471, 215 177.595, 215 190.397 C 215 198.871, 215.353 202.048, 216.389 202.908 C 217.322 203.682, 222.011 203.969, 230.639 203.781 L 243.500 203.500 243.783 191.583 C 243.939 185.029, 243.714 179.324, 243.283 178.907 C 242.287 177.940, 229.906 177.125, 224 177.637 M 249.250 178.220 C 247.115 179.250, 247 179.878, 247 190.534 L 247 201.763 251.443 202.881 C 253.886 203.497, 260.411 204, 265.943 204 L 276 204 276 191.700 C 276 183.467, 275.603 179.003, 274.800 178.200 C 273.270 176.670, 252.431 176.686, 249.250 178.220 M 292.607 178.582 C 292.273 179.452, 292 184.815, 292 190.500 C 292 204.984, 291.016 204, 305.500 204 C 319.984 204, 319 204.984, 319 190.500 C 319 176.016, 319.984 177, 305.500 177 C 295.219 177, 293.115 177.258, 292.607 178.582 M 345 177.694 C 334.332 178.323, 335 177.480, 335 190.319 C 335 197.760, 335.408 202.008, 336.200 202.800 C 336.989 203.589, 341.200 204, 348.500 204 C 355.800 204, 360.011 203.589, 360.800 202.800 C 361.590 202.010, 362 197.791, 362 190.461 C 362 178.013, 361.211 176.751, 353.703 177.185 C 351.941 177.287, 348.025 177.516, 345 177.694 M 424.250 177.609 C 423.343 178.013, 423 181.714, 423 191.083 L 423 204 435.393 204 C 445.771 204, 447.885 203.743, 448.393 202.418 C 449.600 199.273, 449.063 179.158, 447.750 178.329 C 446.289 177.406, 426.090 176.787, 424.250 177.609 M 87.217 178.845 C 86.263 179.450, 86.006 182.715, 86.217 191.580 L 86.500 203.500 99.250 203.780 L 112 204.060 112 191.637 C 112 181.231, 111.743 179.115, 110.418 178.607 C 108.064 177.704, 88.702 177.902, 87.217 178.845 M 380.250 178.662 C 378.536 179.354, 378.491 201.091, 380.200 202.800 C 381.003 203.603, 385.467 204, 393.700 204 L 406 204 406 191.607 C 406 181.229, 405.743 179.115, 404.418 178.607 C 402.542 177.887, 382.055 177.934, 380.250 178.662 M 595.376 196.305 C 591.400 198.290, 590.603 200.917, 590.818 211.319 C 590.930 216.719, 591.455 223.019, 591.986 225.319 C 592.517 227.618, 592.962 232.437, 592.976 236.027 C 593.012 245.631, 597.242 250, 606.506 250 C 617.085 250, 619.739 244.203, 619.904 220.739 C 620.013 205.135, 618.321 199.251, 612.920 196.459 C 609.672 194.779, 598.628 194.682, 595.376 196.305 M 146.219 222.844 C 145.260 223.452, 145.009 226.912, 145.219 236.578 L 145.500 249.500 157.500 249.790 C 175.381 250.221, 174 251.368, 174 236.088 C 174 225.271, 173.747 223.117, 172.418 222.607 C 170.058 221.701, 147.701 221.903, 146.219 222.844 M 294.250 223.031 C 292.100 223.895, 292 224.446, 292 235.386 C 292 241.684, 292.273 247.548, 292.607 248.418 C 293.384 250.443, 316.815 250.785, 318.800 248.800 C 319.602 247.998, 320 243.559, 320 235.417 C 320 223.627, 319.927 223.214, 317.750 222.630 C 314.314 221.709, 296.795 222.008, 294.250 223.031 M 337.750 223.080 C 336.254 223.951, 336.002 225.655, 336.014 234.800 C 336.035 251.151, 335.019 250, 349.417 250 C 357.559 250, 361.998 249.602, 362.800 248.800 C 363.602 247.998, 364 243.561, 364 235.425 L 364 223.250 360.875 222.625 C 355.933 221.637, 339.679 221.956, 337.750 223.080 M 424.250 223.031 C 422.100 223.895, 422 224.446, 422 235.386 C 422 241.684, 422.273 247.548, 422.607 248.418 C 423.384 250.443, 446.815 250.785, 448.800 248.800 C 449.602 247.998, 450 243.562, 450 235.431 L 450 223.262 446.250 222.642 C 440.769 221.736, 426.860 221.982, 424.250 223.031 M 86 234.918 C 86 241.473, 86.273 247.548, 86.607 248.418 C 87.132 249.785, 89.846 250, 106.607 250 L 126 250 126 236.500 L 126 223 106 223 L 86 223 86 234.918 M 187.599 232.750 C 187.260 238.113, 187.342 244.075, 187.781 246 L 188.581 249.500 209.290 249.770 L 230 250.041 230 236.520 L 230 223 209.108 223 L 188.216 223 187.599 232.750 M 246.607 224.582 C 245.811 226.656, 245.824 242.870, 246.625 246.875 L 247.250 250 260.518 250 C 276.228 250, 275 251.279, 275 234.918 L 275 223 261.107 223 C 249.361 223, 247.120 223.244, 246.607 224.582 M 379 236.529 L 379 250.058 392.250 249.779 L 405.500 249.500 405.779 236.250 L 406.058 223 392.529 223 L 379 223 379 236.529 M 86.478 269.250 C 86.170 270.488, 86.049 276.450, 86.209 282.500 L 86.500 293.500 114.250 293.766 L 142 294.032 142 281.123 C 142 270.274, 141.748 268.117, 140.418 267.607 C 139.548 267.273, 127.182 267, 112.937 267 L 87.038 267 86.478 269.250 M 379.655 268.829 C 376.417 272.407, 378.357 278, 382.835 278 C 386.374 278, 388 276.341, 388 272.729 C 388 267.465, 383.002 265.130, 379.655 268.829 M 404.175 267.775 C 403.356 268.048, 403 272.081, 403 281.083 L 403 294 426 294 L 449 294 448.985 281.750 C 448.976 275.012, 448.592 268.906, 448.132 268.179 C 447.346 266.939, 407.774 266.575, 404.175 267.775 M 158.250 268.648 C 157.345 269.024, 157 272.593, 157 281.583 L 157 294 171.530 294 L 186.060 294 185.780 281.250 L 185.500 268.500 172.500 268.315 C 165.350 268.213, 158.938 268.363, 158.250 268.648 M 203.667 268.667 C 203.300 269.033, 203 274.883, 203 281.667 L 203 294 216.500 294 L 230 294 230 281 L 230 268 217.167 268 C 210.108 268, 204.033 268.300, 203.667 268.667 M 249 280.875 L 249 293.750 252.125 294.375 C 253.844 294.719, 258.512 295, 262.500 295 C 266.488 295, 271.156 294.719, 272.875 294.375 L 276 293.750 276 281.482 C 276 266.920, 277.208 268, 260.918 268 L 249 268 249 280.875 M 293 280.869 L 293 293.738 296.750 294.358 C 301.539 295.150, 314.812 295.157, 317.750 294.370 C 319.928 293.786, 320 293.376, 320 281.490 C 320 266.919, 321.208 268, 304.918 268 L 293 268 293 280.869 M 337 280.971 L 337 294 350.530 294 L 364.060 294 363.780 281.250 L 363.500 268.500 350.250 268.221 L 337 267.942 337 280.971 M 131.750 312.162 L 129 313.167 129 325.524 C 129 334.316, 129.361 338.114, 130.250 338.685 C 130.938 339.126, 136.984 339.648, 143.686 339.845 L 155.871 340.202 156.535 336.668 C 157.627 330.844, 156.670 314.507, 155.128 312.651 C 153.535 310.735, 136.626 310.381, 131.750 312.162 M 173.875 313.077 C 172.926 313.664, 172.352 337.686, 173.266 338.599 C 173.539 338.873, 215.645 339.351, 266.834 339.662 L 359.905 340.228 360.608 337.425 C 361.571 333.588, 361.680 314.367, 360.744 313.420 C 359.875 312.540, 175.291 312.202, 173.875 313.077 M 380.218 312.844 C 379.261 313.451, 379.007 316.814, 379.218 326.079 L 379.500 338.500 391.249 339.373 C 400.224 340.041, 403.352 339.953, 404.499 339.001 C 406.767 337.119, 406.695 313.481, 404.418 312.607 C 402.063 311.703, 381.702 311.903, 380.218 312.844 M 86.220 325.750 L 86.500 338.500 99.102 338.779 L 111.703 339.058 112.383 327.691 C 113.322 311.972, 114.269 313, 98.863 313 L 85.940 313 86.220 325.750 M 422.618 314.553 C 421.823 316.626, 421.838 333.793, 422.638 336.779 C 423.238 339.018, 423.471 339.053, 435.874 338.779 L 448.500 338.500 448.500 326 L 448.500 313.500 435.868 313.221 C 425.010 312.981, 423.149 313.168, 422.618 314.553" stroke="none" fill="#265237" fill-rule="evenodd"/>
</svg>