<svg xmlns="http://www.w3.org/2000/svg" width="96" height="96" viewBox="-128.0 -48.0 736 736">
	<path d="M 102.500 38.206 C 97.483 40.700, 93.280 44.613, 91.444 48.500 C 89.752 52.084, 89.194 79.803, 90.206 110 C 91.452 147.168, 84.660 202.558, 75 234 C 74.578 235.375, 73.678 238.525, 73 241 C 72.322 243.475, 71.422 246.625, 71 248 C 70.578 249.375, 69.678 252.525, 69.002 255 C 68.326 257.475, 67.425 260.400, 67 261.500 C 66.575 262.600, 65.666 265.525, 64.980 268 C 63.874 271.988, 62.141 277.640, 58.978 287.571 C 58.440 289.260, 58 291.596, 58 292.762 C 58 293.928, 57.598 295.131, 57.106 295.435 C 56.614 295.739, 55.975 297.678, 55.686 299.744 C 54.959 304.944, 54.003 309.137, 53.004 311.500 C 52.540 312.600, 51.856 315.300, 51.485 317.500 C 51.113 319.700, 50.385 323.750, 49.866 326.500 C 48.235 335.134, 47.024 342.244, 45.860 350 C 44.216 360.964, 43.482 576.032, 45.070 581.500 C 49.336 596.188, 56.802 603.721, 71 607.662 C 76.424 609.168, 179.933 609.556, 184.601 608.088 C 186.195 607.587, 189.700 606.574, 192.389 605.838 C 197.950 604.316, 206.857 596.394, 209.301 590.797 C 213.122 582.046, 213.108 582.570, 212.658 468.500 C 212.235 361.384, 211.944 350.576, 209.024 333.500 C 208.460 330.200, 207.716 325.353, 207.370 322.729 C 207.024 320.105, 206.350 317.716, 205.871 317.420 C 205.392 317.124, 205 315.841, 205 314.569 C 205 313.297, 203.821 307.811, 202.379 302.378 C 200.938 296.945, 199.538 291.033, 199.269 289.241 C 198.999 287.448, 198.379 285.734, 197.890 285.432 C 197.400 285.129, 197 283.805, 197 282.488 C 197 281.171, 196.597 279.060, 196.104 277.797 C 195.611 276.534, 194.651 273.475, 193.969 271 C 191.712 262.803, 190.731 259.522, 189.937 257.500 C 189.504 256.400, 188.923 254.375, 188.645 253 C 188.367 251.625, 187.658 248.813, 187.070 246.750 C 186.481 244.688, 185.521 241.313, 184.936 239.250 C 184.350 237.188, 183.406 233.475, 182.837 231 C 182.269 228.525, 181.373 224.700, 180.847 222.500 C 178.352 212.067, 177.723 208.846, 174.988 192.500 C 170.899 168.066, 167.367 128.972, 167.760 112.500 C 167.879 107.550, 168.235 93.150, 168.553 80.500 C 169.337 49.311, 167.640 43.811, 155.461 38.087 C 148.910 35.008, 108.753 35.098, 102.500 38.206 M 108.520 56.978 C 107.143 58.499, 106.866 59.940, 107.320 63.228 C 107.644 65.577, 107.452 70.488, 106.894 74.139 C 106.060 79.599, 106.161 81.450, 107.463 84.566 C 109.082 88.440, 109.919 142.704, 108.398 145.165 C 108.055 145.719, 107.379 151.197, 106.896 157.337 C 106.412 163.477, 105.563 171.762, 105.008 175.750 C 101.389 201.774, 100.575 206.511, 96.935 222.750 C 96.350 225.362, 95.627 229.190, 95.330 231.256 C 95.032 233.322, 94.386 235.261, 93.894 235.565 C 93.402 235.869, 93 237.072, 93 238.238 C 93 239.404, 92.580 241.740, 92.068 243.429 C 91.555 245.118, 90.603 248.525, 89.952 251 C 89.301 253.475, 88.422 256.625, 88 258 C 87.578 259.375, 86.678 262.525, 86.002 265 C 85.326 267.475, 84.425 270.400, 84 271.500 C 83.575 272.600, 82.674 275.525, 81.998 278 C 81.322 280.475, 80.413 283.625, 79.980 285 C 79.546 286.375, 78.656 289.750, 78.003 292.500 C 77.349 295.250, 76.440 298.400, 75.983 299.500 C 75.525 300.600, 74.872 302.850, 74.531 304.500 C 74.190 306.150, 73.481 309.188, 72.955 311.250 C 70.581 320.572, 69.816 323.797, 68.983 328 C 68.493 330.475, 67.592 334.750, 66.981 337.500 C 64.254 349.770, 63.770 358.487, 63.154 406.500 C 62.041 493.296, 62.540 574.850, 64.212 579.242 C 66.342 584.838, 69.535 587.713, 74.329 588.354 C 76.623 588.660, 101.697 589.214, 130.049 589.585 C 177.080 590.200, 181.882 590.112, 184.831 588.588 C 190.328 585.745, 193.665 581.463, 194.365 576.353 C 195.357 569.115, 195.013 374.649, 193.990 364 C 192.835 351.995, 191.318 340.789, 190.063 335 C 189.526 332.525, 188.620 328.250, 188.049 325.500 C 187.007 320.475, 185.944 315.912, 184.091 308.500 C 183.541 306.300, 182.651 302.700, 182.112 300.500 C 181.574 298.300, 180.622 294.700, 179.997 292.500 C 179.372 290.300, 178.633 287.375, 178.355 286 C 178.077 284.625, 177.467 282.600, 177 281.500 C 176.533 280.400, 175.923 278.375, 175.645 277 C 175.367 275.625, 174.627 272.700, 174 270.500 C 173.373 268.300, 172.633 265.375, 172.355 264 C 172.077 262.625, 171.467 260.600, 171 259.500 C 170.533 258.400, 169.929 256.375, 169.658 255 C 169.386 253.625, 168.188 248.900, 166.994 244.500 C 165.801 240.100, 164.414 234.588, 163.912 232.250 C 161.671 221.807, 161.113 219.140, 159.992 213.500 C 155.586 191.336, 154.461 184.018, 151.847 160.500 C 150.812 151.189, 150.517 125.329, 150.921 79.500 C 151.147 53.900, 152.154 55, 128.500 55 C 111.649 55, 110.178 55.146, 108.520 56.978 M 285.127 232.096 C 283.890 233.249, 282.406 235.386, 281.829 236.846 C 280.385 240.500, 275.962 257.374, 274.055 266.500 C 273.595 268.700, 272.686 272.975, 272.034 276 C 266.059 303.737, 263.558 344.435, 267.073 356.750 C 267.583 358.538, 268.389 361.462, 268.865 363.250 C 272.492 376.882, 274.051 380.822, 280.194 391.887 C 283.280 397.447, 289.905 405.968, 295.468 411.534 C 300.688 416.757, 316.377 429, 317.850 429 C 318.312 429, 319.505 429.900, 320.500 431 C 321.495 432.100, 322.845 433, 323.500 433 C 324.155 433, 325.505 433.900, 326.500 435 C 327.495 436.100, 328.824 437, 329.452 437 C 330.080 437, 332.190 438.688, 334.140 440.750 C 339.805 446.742, 340 449.443, 340 521.793 L 340 585.855 337.365 587.927 C 334.946 589.830, 333.405 590, 318.539 590 C 302.703 590, 302.299 590.053, 300.074 592.421 C 296.835 595.869, 296.991 601.445, 300.423 604.877 L 303.045 607.500 349.317 607.500 C 399.896 607.500, 398.719 607.631, 401.922 601.646 C 403.186 599.285, 403.098 598.580, 401.051 594.598 C 398.196 589.048, 398.122 589.030, 377.219 589.014 C 361.692 589.001, 359.869 588.822, 359.261 587.250 C 358.480 585.228, 358.437 577.793, 358.761 500.337 L 359 443.173 364.894 438.337 C 368.136 435.676, 373.370 431.700, 376.525 429.500 C 394.149 417.212, 413 400.560, 413 397.281 C 413 396.747, 413.900 395.495, 415 394.500 C 416.100 393.505, 417 392.267, 417 391.749 C 417 391.232, 417.918 389.519, 419.041 387.942 C 421.717 384.184, 427 371.321, 427 368.562 C 427 367.373, 427.404 365.972, 427.898 365.450 C 431.805 361.314, 432.465 319.705, 428.982 297 C 426.713 282.201, 425.580 276.108, 423.870 269.500 C 423.301 267.300, 422.385 263.700, 421.835 261.500 C 421.285 259.300, 420.385 255.700, 419.835 253.500 C 416.838 241.511, 416.424 240.207, 413.756 234.360 C 411.803 230.079, 410.608 230, 347.642 230 C 287.839 230, 287.360 230.016, 285.127 232.096 M 296.786 250.750 C 295.949 251.713, 294.981 254.300, 294.636 256.500 C 294.291 258.700, 293.598 262.525, 293.097 265 C 292.595 267.475, 291.652 272.200, 291 275.500 C 290.348 278.800, 289.386 283.525, 288.862 286 C 287.743 291.282, 286.428 298.149, 284.937 306.500 C 280.269 332.652, 284.769 365.027, 295.174 380.154 C 296.178 381.614, 297 383.072, 297 383.393 C 297 386.640, 309.858 399.880, 319.927 407 C 323.427 409.475, 328.254 412.962, 330.654 414.750 C 333.054 416.538, 335.375 418, 335.812 418 C 336.250 418, 338.158 419.613, 340.054 421.585 C 346.077 427.851, 348.206 428.449, 351.608 424.829 C 354.087 422.191, 372.909 408.961, 375.729 407.873 C 376.824 407.451, 383.416 402.178, 389.218 397.085 C 398.621 388.830, 406.824 374.566, 410.832 359.500 C 413.049 351.167, 413.428 347.051, 413.405 331.500 C 413.384 316.748, 412.819 311.165, 409.963 297.500 C 409.389 294.750, 408.487 290.250, 407.959 287.500 C 407.432 284.750, 406.550 280.363, 406 277.750 C 404.478 270.520, 403.325 265.010, 402.181 259.500 C 401.611 256.750, 400.673 253.262, 400.097 251.750 L 399.050 249 348.680 249 C 301.956 249, 298.200 249.127, 296.786 250.750" stroke="none" fill="#265237" fill-rule="evenodd"/>
</svg>