<svg xmlns="http://www.w3.org/2000/svg" width="96" height="96" viewBox="-97.0 -74.0 736 736">
	<path d="M 396.212 36.459 C 391.939 38.818, 391.065 41.049, 391.032 49.691 C 391.011 55.050, 390.576 58.144, 389.774 58.640 C 389.099 59.057, 380.662 59.291, 371.024 59.160 C 352.146 58.905, 324.941 61.375, 318.500 63.930 C 317.400 64.366, 314.700 65.265, 312.500 65.928 C 310.300 66.590, 307.488 67.552, 306.250 68.066 C 305.012 68.580, 302.988 69.390, 301.750 69.866 C 289.244 74.681, 277.579 82.750, 265.750 94.767 C 259.837 100.774, 255 105.975, 255 106.324 C 255 106.674, 253.202 109.331, 251.004 112.230 C 248.807 115.128, 247.007 117.978, 247.004 118.563 C 246.996 120.609, 241.385 125, 238.778 125 C 231.023 125, 220.681 132.948, 216.114 142.417 L 213 148.874 213.044 340.687 C 213.090 541.429, 213.004 537.325, 217.332 544.500 C 219.244 547.670, 227.971 554, 230.429 554 C 231.228 554, 232.160 554.450, 232.500 555 C 232.907 555.658, 275.448 556, 356.871 556 L 480.624 556 485.062 553.892 C 491.217 550.968, 494.745 547.396, 497.578 541.220 L 500 535.941 500 340.065 L 500 144.189 497.750 139.956 C 494.741 134.295, 490.426 129.935, 485.155 127.230 L 480.811 125 373.999 125 C 267.543 125, 267.189 124.993, 267.712 122.992 C 268.354 120.539, 288.688 100, 290.476 100 C 291.179 100, 292.294 99.351, 292.952 98.557 C 294.761 96.379, 311.568 88.423, 319.500 85.991 C 323.350 84.810, 327.850 83.404, 329.500 82.865 C 333.568 81.538, 373.786 80.627, 382.500 81.666 L 389.500 82.500 390.322 90.945 C 391.041 98.335, 391.478 99.678, 393.822 101.694 L 396.500 103.998 434.500 103.967 C 475.089 103.934, 473.876 104.082, 477.287 98.750 C 479.021 96.039, 479.193 96, 489.455 96 C 504.452 96, 504 96.877, 504 67.770 C 504 39.865, 504.620 41, 489.374 41 C 481.278 41, 478.999 40.667, 477.388 39.250 C 472.571 35.013, 472.397 34.996, 434.764 35.098 C 407.579 35.172, 397.927 35.512, 396.212 36.459 M 408.439 55.298 C 408.165 56.012, 408.067 62.875, 408.220 70.548 L 408.500 84.500 414 85 C 417.025 85.275, 428.050 85.275, 438.500 85 L 457.500 84.500 457.500 71 C 457.500 63.575, 457.177 56.712, 456.781 55.750 C 455.838 53.452, 409.314 53.017, 408.439 55.298 M 476.714 60.619 C 476.321 61.012, 476 64.643, 476 68.688 C 476 75.622, 476.148 76.110, 478.578 77.217 C 483.219 79.332, 484.500 77.423, 484.500 68.391 L 484.500 60.500 480.964 60.202 C 479.020 60.039, 477.107 60.226, 476.714 60.619 M 77.395 104.772 C 74.434 107.202, 73.701 109.441, 73.061 118 L 72.500 125.500 64.666 126.136 C 53.499 127.043, 46.946 130.562, 41.151 138.763 C 37.485 143.951, 37.310 153.009, 37.119 347.500 C 36.928 542.506, 36.794 537.076, 42.004 545.506 C 44.425 549.424, 49.888 554, 52.144 554 C 52.945 554, 54.154 554.554, 54.831 555.231 C 55.772 556.172, 67.987 556.466, 106.781 556.481 C 161.178 556.501, 160.597 556.551, 167.714 551.317 C 170.677 549.138, 171.671 547.522, 174.859 539.703 C 175.700 537.641, 176 485.404, 176 341.036 C 176 145.360, 175.998 145.161, 173.936 140.333 C 169.769 130.577, 164.606 127.275, 152.082 126.356 C 139.878 125.461, 140 125.570, 140 115.504 C 140 102.354, 141.668 102.995, 107.561 103.022 C 82.473 103.042, 79.277 103.228, 77.395 104.772 M 94 122.215 C 92.625 122.949, 91.356 124.551, 91.180 125.775 C 90.862 127.993, 90.907 128, 106.430 128 C 122.872 128, 123.961 127.642, 121.121 123.162 C 119.869 121.186, 97.395 120.401, 94 122.215 M 242 145.652 C 237.993 146.972, 235.968 148.554, 234.648 151.395 C 232.974 155.001, 232.403 526.300, 234.066 530.673 C 234.552 531.952, 236.424 533.898, 238.225 534.996 C 241.449 536.961, 243.327 536.993, 357.717 536.996 L 473.933 537 477.467 533.467 L 481 529.933 481 340.655 L 481 151.377 478.904 149.127 C 477.751 147.890, 475.697 146.455, 474.339 145.939 C 471.821 144.982, 244.885 144.702, 242 145.652 M 59.405 148.104 C 57.608 150.089, 57.484 152.512, 57.211 190.854 C 57.052 213.209, 57.174 232.517, 57.482 233.760 L 58.043 236.019 106.271 235.760 L 154.500 235.500 154.761 192.591 C 154.997 153.726, 154.865 149.508, 153.356 147.841 C 151.785 146.105, 149.117 146, 106.500 146 C 61.836 146, 61.288 146.024, 59.405 148.104 M 351.263 159.769 C 347.960 163.802, 347.991 174.703, 351.314 177.826 C 354.223 180.558, 362.265 180.878, 364.782 178.361 C 367.618 175.525, 367.141 162.846, 364.076 159.581 C 360.599 155.879, 354.375 155.970, 351.263 159.769 M 101.667 173.667 C 101.300 174.033, 101 176.519, 101 179.191 C 101 184.539, 99.255 186, 92.869 186 C 88.287 186, 86 187.653, 86 190.964 C 86 194.644, 88.345 197, 92.006 197 C 98.285 197, 100 198.481, 100 203.904 C 100 209.802, 101.750 212, 106.449 212 C 110.784 212, 111.817 210.559, 112.190 203.989 C 112.529 198.029, 112.312 198.207, 121.500 196.321 C 125.304 195.540, 125.515 195.301, 125.798 191.436 L 126.097 187.371 119.798 185.936 L 113.500 184.500 112.500 180 C 111.950 177.525, 111.136 174.938, 110.691 174.250 C 109.850 172.951, 102.835 172.498, 101.667 173.667 M 352.020 189.228 C 349.032 190.807, 347.474 197.933, 348.728 204.276 C 350.126 211.345, 358.290 214.240, 363.694 209.582 C 366.315 207.323, 366.496 206.671, 366.441 199.702 C 366.396 193.985, 365.973 191.830, 364.633 190.490 C 362.387 188.244, 355.235 187.529, 352.020 189.228 M 351.174 221.314 C 347.901 224.798, 347.992 236.704, 351.314 239.826 C 354.561 242.876, 360.895 242.805, 363.826 239.686 C 367.099 236.202, 367.008 224.296, 363.686 221.174 C 360.439 218.124, 354.105 218.195, 351.174 221.314 M 57.901 257.619 C 57.336 258.300, 57.076 312.536, 57.236 395.958 L 57.500 533.177 59.861 535.088 C 62.104 536.905, 64.380 537, 105.564 537 C 149.881 537, 153.102 536.744, 154.521 533.115 C 155.091 531.655, 155.309 257.963, 154.741 257.417 C 153.754 256.471, 58.689 256.669, 57.901 257.619 M 347 308.604 C 333.276 310.261, 318.646 316.543, 305.761 326.311 C 298.390 331.899, 297.815 332.471, 292.500 339.516 C 286.303 347.729, 281 357.177, 281 360.003 C 281 360.566, 280.594 361.809, 280.097 362.764 C 279.209 364.473, 278.274 367.864, 276.101 377.264 C 274.768 383.032, 274.646 402.867, 275.913 407.884 C 276.416 409.873, 277.384 413.965, 278.064 416.979 C 279.738 424.386, 284.170 434.907, 288.066 440.719 C 291.841 446.351, 306.945 462, 308.605 462 C 309.238 462, 310.299 462.655, 310.963 463.456 C 312.234 464.987, 324.384 471.074, 329.500 472.743 C 331.150 473.281, 334.230 474.278, 336.346 474.960 C 344.489 477.583, 375.868 476.170, 382.236 472.893 C 383.191 472.402, 384.592 472, 385.348 472 C 387.679 472, 402.102 464.165, 407.649 459.885 C 412.614 456.055, 424 443.967, 424 442.526 C 424 442.160, 425.269 439.979, 426.819 437.680 C 430.043 432.901, 434 424.651, 434 422.711 C 434 421.990, 434.378 420.972, 434.839 420.450 C 437.582 417.345, 440.582 393.280, 439.177 385.656 C 438.530 382.143, 438 378.078, 438 376.621 C 438 375.165, 437.594 373.191, 437.097 372.236 C 436.601 371.281, 435.608 368.475, 434.890 366 C 427.780 341.487, 402.220 317.088, 376.319 310.091 C 371.827 308.877, 352.751 307.910, 347 308.604 M 346 329 C 345.175 329.533, 343.289 329.976, 341.809 329.985 C 340.329 329.993, 338.840 330.450, 338.500 331 C 338.160 331.550, 337.247 332, 336.471 332 C 334.300 332, 324.476 336.722, 323.036 338.457 C 322.331 339.306, 321.190 340, 320.499 340 C 316.655 340, 300 362.469, 300 367.654 C 300 368.409, 299.594 369.809, 299.097 370.764 C 296.694 375.387, 295.553 382.319, 295.528 392.439 C 295.496 405.109, 297.268 412.204, 303.284 423.500 C 303.870 424.600, 305.283 427.270, 306.425 429.433 C 308.925 434.171, 318.706 445, 320.485 445 C 321.184 445, 322.307 445.665, 322.981 446.477 C 324.039 447.752, 330.928 451.335, 337.500 454.029 C 345.364 457.253, 372.553 457.151, 374.568 453.890 C 374.871 453.400, 375.946 453, 376.957 453 C 379.104 453, 389.160 447.871, 393.500 444.562 C 404.539 436.146, 410.079 428.317, 415.127 414 C 417.656 406.824, 418.467 381.457, 416.316 376.766 C 415.745 375.520, 414.727 372.700, 414.055 370.500 C 412.323 364.830, 408.220 356.427, 406.477 354.981 C 405.665 354.307, 405 353.231, 405 352.590 C 405 351.054, 395.780 342, 394.216 342 C 393.547 342, 393 341.626, 393 341.169 C 393 340.712, 391.762 339.716, 390.250 338.955 C 388.738 338.194, 386.375 336.845, 385 335.957 C 375.649 329.914, 351.305 325.572, 346 329 M 353.346 341.250 C 351.469 343.360, 340.815 364.386, 335.992 375.500 C 334.799 378.250, 332.288 383.654, 330.411 387.509 C 325.555 397.487, 325.753 399.557, 331.640 400.364 C 334.191 400.714, 338.629 401, 341.500 401 C 344.371 401, 348.723 401.274, 351.171 401.610 C 355.408 402.191, 355.601 402.359, 355.195 405.122 C 354.961 406.718, 354.371 408.271, 353.885 408.571 C 353.398 408.872, 353 409.998, 353 411.073 C 353 412.148, 352.586 413.809, 352.080 414.764 C 350.801 417.177, 347.342 426.666, 345.924 431.650 C 344.268 437.471, 346.083 441.409, 351.119 442.918 C 356.463 444.519, 359.461 442.839, 362.418 436.587 C 365.742 429.559, 370.427 419.286, 372.492 414.500 C 373.440 412.300, 375.972 406.900, 378.117 402.500 C 385.827 386.684, 383.700 383, 366.860 383 C 355.623 383, 355.040 382.574, 357.912 376.464 C 359.060 374.021, 360 371.651, 360 371.199 C 360 370.746, 360.900 368.513, 362 366.236 C 363.100 363.959, 364 361.475, 364 360.715 C 364 359.955, 364.308 359.025, 364.685 358.648 C 365.961 357.373, 367.970 350.518, 367.953 347.500 C 367.913 340.246, 358.011 336.009, 353.346 341.250 M 88.068 503.836 C 86.591 507.401, 88.130 511.283, 91.657 512.890 C 95.177 514.493, 121.460 514.375, 122.740 512.750 C 124.434 510.599, 125.044 506.246, 124.026 503.569 L 123.050 501 106.146 501 L 89.243 501 88.068 503.836" stroke="none" fill="#265237" fill-rule="evenodd"/>
</svg>