<svg xmlns="http://www.w3.org/2000/svg" width="96" height="96" viewBox="-178.0 -85.0 736 736">
	<path d="M 104.029 39.184 C 102.917 41.008, 102.003 43.625, 101.997 45 C 101.992 46.375, 101.512 56.251, 100.932 66.946 C 99.898 86.017, 99.821 86.475, 96.939 90.746 C 95.322 93.141, 94 95.458, 94 95.895 C 94 96.332, 93.100 97.505, 92 98.500 C 90.900 99.495, 90 100.845, 90 101.500 C 90 102.155, 89.100 103.505, 88 104.500 C 86.900 105.495, 86 106.845, 86 107.500 C 86 108.155, 85.100 109.505, 84 110.500 C 82.900 111.495, 82 112.845, 82 113.500 C 82 114.155, 81.100 115.505, 80 116.500 C 78.900 117.495, 78 118.845, 78 119.500 C 78 120.155, 77.100 121.505, 76 122.500 C 74.900 123.495, 74 124.845, 74 125.500 C 74 126.155, 73.100 127.505, 72 128.500 C 70.900 129.495, 70 130.845, 70 131.500 C 70 132.155, 69.100 133.505, 68 134.500 C 66.900 135.495, 66 136.687, 66 137.148 C 66 137.610, 61.050 145.438, 55 154.545 C 48.950 163.652, 44 171.460, 44 171.896 C 44 172.333, 43.100 173.505, 42 174.500 C 40.900 175.495, 40 176.767, 40 177.326 C 40 177.885, 39.383 179.053, 38.630 179.921 C 37.876 180.790, 36.076 183.653, 34.630 186.285 L 32 191.071 32.048 342.285 C 32.093 482.639, 32.218 493.740, 33.798 496.846 C 35.869 500.918, 39.755 503.128, 50 506.060 C 52.475 506.768, 54.927 507.720, 55.450 508.174 C 55.972 508.628, 57.408 509, 58.641 509 C 59.874 509, 61.160 509.450, 61.500 510 C 61.840 510.550, 63.190 511, 64.500 511 C 65.810 511, 67.160 511.450, 67.500 512 C 67.840 512.550, 69.190 513, 70.500 513 C 71.810 513, 73.160 513.450, 73.500 514 C 73.840 514.550, 75.190 515, 76.500 515 C 77.810 515, 79.160 515.450, 79.500 516 C 79.840 516.550, 80.998 517, 82.073 517 C 83.148 517, 84.809 517.404, 85.764 517.897 C 86.719 518.390, 92.225 520.244, 98 522.016 C 103.775 523.789, 109.400 525.582, 110.500 526 C 111.600 526.418, 117.225 528.211, 123 529.984 C 128.775 531.756, 134.281 533.610, 135.236 534.103 C 136.191 534.596, 137.852 535, 138.927 535 C 140.002 535, 141.160 535.450, 141.500 536 C 141.840 536.550, 143.190 537, 144.500 537 C 145.810 537, 147.160 537.450, 147.500 538 C 147.840 538.550, 149.190 539, 150.500 539 C 151.810 539, 153.160 539.450, 153.500 540 C 153.840 540.550, 155.126 541, 156.359 541 C 157.592 541, 159.028 541.372, 159.550 541.826 C 160.073 542.280, 162.525 543.224, 165 543.924 C 167.475 544.623, 170.281 545.601, 171.236 546.097 C 172.191 546.594, 173.852 547, 174.927 547 C 176.002 547, 177.160 547.450, 177.500 548 C 177.840 548.550, 178.998 549, 180.073 549 C 181.148 549, 182.809 549.404, 183.764 549.897 C 184.719 550.391, 188.875 551.790, 193 553.006 C 197.125 554.223, 201.534 555.619, 202.797 556.109 C 205.750 557.255, 213.518 557.259, 215.764 556.117 C 216.719 555.631, 218.625 554.795, 220 554.259 C 221.375 553.723, 224.455 552.320, 226.845 551.142 C 229.234 549.964, 231.709 548.986, 232.345 548.969 C 232.980 548.951, 236.189 547.601, 239.475 545.969 C 242.761 544.336, 245.787 543, 246.199 543 C 246.612 543, 249.774 541.729, 253.225 540.176 C 256.676 538.623, 261.075 536.736, 263 535.983 C 264.925 535.230, 267.976 533.801, 269.780 532.807 C 271.585 531.813, 273.486 531, 274.005 531 C 274.525 531, 277.897 529.650, 281.500 528 C 285.103 526.350, 288.443 525, 288.923 525 C 289.404 525, 292.363 523.650, 295.500 522 C 298.637 520.350, 301.612 519, 302.112 519 C 302.613 519, 305.154 518.055, 307.761 516.900 C 310.367 515.746, 313.400 514.440, 314.500 514 C 315.600 513.560, 318.633 512.254, 321.239 511.100 C 323.846 509.945, 326.195 509, 326.459 509 C 327.021 509, 336.245 504.922, 343.647 501.402 C 346.477 500.056, 349.402 498.220, 350.147 497.324 C 351.272 495.968, 351.500 469.672, 351.500 341.534 L 351.500 187.375 347.014 181.938 C 344.546 178.947, 342.296 176.272, 342.014 175.993 C 341.731 175.714, 338.575 172.327, 335 168.467 C 331.425 164.606, 323.328 155.891, 317.007 149.099 C 310.686 142.308, 304.854 135.794, 304.048 134.625 C 303.242 133.456, 301.964 131.869, 301.210 131.097 C 300.455 130.326, 298.143 127.400, 296.071 124.596 C 293.999 121.792, 291.561 118.881, 290.652 118.126 C 289.209 116.928, 289 114.013, 289 95.052 C 289 73.819, 288.951 73.304, 286.750 71.298 C 283.714 68.532, 278.713 66.482, 271.500 65.045 C 268.200 64.388, 263.925 63.468, 262 63 C 260.075 62.532, 255.800 61.629, 252.500 60.993 C 249.200 60.358, 244.700 59.446, 242.500 58.968 C 240.300 58.489, 236.025 57.585, 233 56.958 C 229.975 56.331, 225.925 55.431, 224 54.957 C 222.075 54.484, 216.675 53.345, 212 52.426 C 203.222 50.701, 198.419 49.723, 190.250 47.996 C 187.637 47.443, 183.700 46.734, 181.500 46.419 C 179.300 46.104, 176.600 45.466, 175.500 45.001 C 174.400 44.535, 170.800 43.849, 167.500 43.476 C 158.815 42.494, 150.358 41.274, 143.500 40.015 C 128.198 37.205, 124.879 36.764, 115.775 36.331 L 106.051 35.868 104.029 39.184 M 118.750 54.088 C 117.238 54.962, 117 56.719, 117 67.024 L 117 78.949 119.950 80.474 C 121.573 81.313, 124.246 82, 125.891 82 C 127.536 82, 129.123 82.390, 129.418 82.867 C 129.713 83.344, 131.877 84.012, 134.227 84.351 C 136.577 84.691, 140.525 85.386, 143 85.897 C 145.475 86.408, 149.300 87.126, 151.500 87.492 C 153.700 87.859, 156.400 88.543, 157.500 89.012 C 158.600 89.480, 160.850 90.077, 162.500 90.338 C 170.926 91.669, 173.673 92.233, 175.500 93.003 C 176.600 93.467, 179.525 94.140, 182 94.498 C 186.984 95.220, 193.050 96.369, 200.250 97.954 C 211.543 100.441, 214.755 101.063, 219 101.589 C 221.475 101.895, 224.400 102.529, 225.500 102.996 C 226.600 103.464, 229.300 104.107, 231.500 104.426 C 235.752 105.041, 243.338 106.334, 252.750 108.046 C 263.068 109.924, 269.001 110.618, 269.910 110.054 C 270.401 109.749, 270.947 104.266, 271.123 97.870 C 271.485 84.721, 271.013 83.505, 265.212 82.666 C 263.170 82.371, 259.363 81.650, 256.750 81.065 C 245.050 78.442, 242.195 77.839, 237.500 77 C 234.750 76.508, 230.475 75.674, 228 75.146 C 225.525 74.617, 221.025 73.695, 218 73.095 C 214.975 72.496, 210.475 71.529, 208 70.948 C 201.700 69.468, 191.688 67.339, 180 64.994 C 177.525 64.498, 173.250 63.619, 170.500 63.042 C 167.750 62.464, 163.700 61.734, 161.500 61.419 C 159.300 61.104, 156.600 60.466, 155.500 60 C 154.400 59.534, 151.475 58.860, 149 58.502 C 146.525 58.143, 142.475 57.479, 140 57.025 C 137.525 56.572, 132.869 55.722, 129.653 55.137 C 126.438 54.552, 123.063 53.849, 122.153 53.575 C 121.244 53.301, 119.713 53.532, 118.750 54.088 M 106.078 110.384 C 102.185 116.186, 99 121.398, 99 121.967 C 99 122.535, 98.601 123, 98.114 123 C 97.627 123, 96.510 124.513, 95.632 126.362 C 94.755 128.211, 93.354 130.292, 92.518 130.985 C 91.683 131.678, 91 132.795, 91 133.467 C 91 134.140, 90.100 135.505, 89 136.500 C 87.900 137.495, 87 138.845, 87 139.500 C 87 140.155, 86.100 141.505, 85 142.500 C 83.900 143.495, 83 144.845, 83 145.500 C 83 146.155, 82.100 147.505, 81 148.500 C 79.900 149.495, 79 150.845, 79 151.500 C 79 152.155, 78.100 153.505, 77 154.500 C 75.900 155.495, 75 156.702, 75 157.181 C 75 157.661, 70.909 164.165, 65.909 171.636 C 55.978 186.474, 55.937 186.749, 63.451 188.151 C 65.953 188.618, 70.138 189.470, 72.750 190.045 C 75.362 190.619, 78.850 191.325, 80.500 191.613 C 82.150 191.901, 84.400 192.525, 85.500 193 C 87.454 193.844, 90.938 194.571, 98 195.609 C 99.925 195.892, 102.400 196.515, 103.500 196.994 C 105.453 197.843, 108.919 198.568, 116 199.609 C 117.925 199.892, 120.400 200.515, 121.500 200.994 C 122.600 201.472, 124.850 202.099, 126.500 202.387 C 129.747 202.954, 131.806 203.398, 152.250 207.945 C 154.588 208.465, 158.525 209.388, 161 209.996 C 163.475 210.604, 167.525 211.526, 170 212.045 C 178.655 213.859, 187.998 216.118, 196.299 218.403 C 206.056 221.090, 205.927 221.153, 213.347 210.008 C 217.006 204.513, 220 199.633, 220 199.163 C 220 198.694, 220.900 197.495, 222 196.500 C 223.100 195.505, 224 194.233, 224 193.674 C 224 193.115, 224.748 191.831, 225.661 190.822 C 226.575 189.812, 227.812 188.145, 228.411 187.118 C 229.010 186.090, 231.862 181.839, 234.750 177.670 C 237.637 173.501, 240 169.620, 240 169.045 C 240 168.470, 240.374 168, 240.831 168 C 241.288 168, 242.292 166.762, 243.061 165.250 C 243.830 163.738, 247.965 157.212, 252.250 150.749 C 256.535 144.287, 261.154 137.004, 262.515 134.565 C 265.317 129.547, 265.868 130.102, 256 127.999 C 252.975 127.354, 248.873 126.416, 246.884 125.913 C 244.895 125.411, 241.659 125, 239.693 125 C 237.727 125, 235.876 124.608, 235.580 124.129 C 235.284 123.650, 232.895 122.981, 230.271 122.642 C 224.943 121.953, 220.502 121.125, 200.500 117.095 C 195.893 116.167, 190.794 115.183, 179 112.946 C 176.525 112.476, 172.475 111.661, 170 111.134 C 158.329 108.649, 154.237 107.840, 151 107.377 C 149.075 107.101, 146.600 106.505, 145.500 106.051 C 144.400 105.598, 140.350 104.688, 136.500 104.029 C 132.650 103.371, 128.150 102.451, 126.500 101.985 C 124.850 101.519, 121.173 100.845, 118.328 100.486 L 113.156 99.834 106.078 110.384 M 278.020 144.472 C 274.458 149.648, 275.174 151.198, 282.661 154.530 C 284.772 155.470, 288.948 157.385, 291.940 158.786 C 294.933 160.187, 297.970 161.333, 298.690 161.333 C 299.411 161.333, 300 161.708, 300 162.167 C 300 162.625, 300.744 163, 301.653 163 C 303.060 163, 303.008 162.739, 301.310 161.250 C 300.211 160.287, 299.130 159.006, 298.907 158.401 C 298.344 156.880, 282.664 140.026, 281.798 140.012 C 281.412 140.005, 279.712 142.012, 278.020 144.472 M 261.687 169.805 C 260.209 171.347, 259 172.954, 259 173.375 C 259 173.795, 257.650 176.102, 256 178.500 C 254.350 180.898, 253 183.272, 253 183.775 C 253 184.278, 252.100 185.505, 251 186.500 C 249.900 187.495, 249 188.722, 249 189.225 C 249 189.728, 247.650 192.102, 246 194.500 C 244.350 196.898, 243 199.176, 243 199.561 C 243 199.946, 241.512 202.340, 239.694 204.881 C 236.006 210.032, 234.849 212.516, 235.727 213.394 C 236.051 213.718, 236.807 213.618, 237.408 213.171 C 238.009 212.725, 240.525 211.778, 243 211.066 C 245.475 210.354, 248.400 209.403, 249.500 208.952 C 250.600 208.501, 253.300 207.597, 255.500 206.943 C 257.700 206.289, 260.281 205.360, 261.236 204.877 C 262.191 204.395, 263.660 204, 264.500 204 C 265.340 204, 266.809 203.594, 267.764 203.097 C 268.719 202.601, 271.525 201.650, 274 200.983 C 276.475 200.317, 279.400 199.425, 280.500 199 C 281.600 198.575, 284.525 197.675, 287 197 C 289.475 196.325, 292.400 195.427, 293.500 195.005 C 294.600 194.583, 298.875 193.202, 303 191.937 C 312.421 189.046, 312.327 189.099, 310.945 187.434 C 309.923 186.202, 301.988 182.131, 296.500 180.022 C 295.400 179.599, 292.250 178.239, 289.500 177 C 286.750 175.761, 283.600 174.411, 282.500 174 C 280.136 173.117, 271.244 169.163, 268.764 167.891 C 265.954 166.450, 264.533 166.834, 261.687 169.805 M 49.750 205.574 C 48.496 206.844, 48.828 480.207, 50.088 483.821 C 51.148 486.863, 55.588 490, 58.833 490 C 60.584 490, 66.673 491.828, 69.236 493.123 C 70.191 493.605, 71.852 494, 72.927 494 C 74.002 494, 75.160 494.450, 75.500 495 C 75.840 495.550, 76.998 496, 78.073 496 C 79.148 496, 80.809 496.404, 81.764 496.897 C 82.719 497.390, 88.225 499.271, 94 501.077 C 99.775 502.884, 104.928 504.730, 105.450 505.181 C 105.973 505.631, 107.216 506, 108.214 506 C 109.211 506, 110.809 506.405, 111.764 506.900 C 113.329 507.712, 136.330 515.156, 153 520.246 C 156.575 521.337, 160.281 522.629, 161.236 523.115 C 162.191 523.602, 163.660 524, 164.500 524 C 165.340 524, 166.809 524.406, 167.764 524.903 C 168.719 525.399, 171.525 526.359, 174 527.036 C 179.087 528.429, 189.488 531.734, 192.500 532.916 C 197.336 534.814, 200.926 535.741, 201.442 535.225 C 202.721 533.946, 202.034 239.273, 200.750 238.235 C 200.063 237.679, 197.700 236.986, 195.500 236.694 C 193.300 236.402, 189.475 235.640, 187 235 C 184.525 234.360, 180.700 233.603, 178.500 233.316 C 176.300 233.030, 174.072 232.391, 173.550 231.898 C 173.027 231.404, 171.677 231.005, 170.550 231.010 C 168.488 231.020, 156.024 228.254, 139.250 224.063 C 137.188 223.548, 133.363 222.648, 130.750 222.063 C 128.137 221.478, 123.862 220.522, 121.250 219.937 C 118.638 219.352, 114.925 218.486, 113 218.011 C 111.075 217.537, 106.800 216.617, 103.500 215.967 C 100.200 215.316, 96.195 214.383, 94.601 213.892 C 93.006 213.401, 90.509 213, 89.051 213 C 87.593 213, 85.973 212.596, 85.450 212.102 C 84.928 211.609, 82.700 210.963, 80.500 210.667 C 78.300 210.371, 74.362 209.650, 71.750 209.065 C 55.245 205.365, 50.672 204.640, 49.750 205.574 M 324.500 205.985 C 323.400 206.480, 319.125 207.857, 315 209.046 C 310.875 210.235, 306.375 211.559, 305 211.988 C 303.625 212.417, 300.475 213.317, 298 213.988 C 295.525 214.659, 292.466 215.611, 291.203 216.104 C 289.940 216.597, 287.829 217, 286.512 217 C 285.195 217, 283.840 217.450, 283.500 218 C 283.160 218.550, 281.928 219, 280.762 219 C 278.510 219, 272.653 220.663, 269.764 222.123 C 268.809 222.605, 267.265 223, 266.335 223 C 264.443 223, 258.426 224.777, 255.764 226.123 C 254.809 226.605, 253.471 227, 252.792 227 C 251.462 227, 238.791 230.677, 235.500 232.018 C 234.400 232.466, 231.409 233.405, 228.853 234.104 C 219.536 236.654, 220.525 222.099, 220.310 359.793 C 220.205 426.732, 219.872 493.103, 219.569 507.285 C 219.084 530.038, 219.202 533.140, 220.577 533.668 C 221.433 533.997, 222.644 533.756, 223.267 533.133 C 223.890 532.510, 224.974 532, 225.675 532 C 226.376 532, 229.897 530.650, 233.500 529 C 237.103 527.350, 240.381 526, 240.786 526 C 241.191 526, 245.117 524.211, 249.511 522.025 C 253.905 519.839, 258.020 518.039, 258.655 518.025 C 259.291 518.011, 261.766 517.036, 264.155 515.858 C 266.545 514.680, 269.400 513.387, 270.500 512.985 C 271.600 512.582, 274.750 511.239, 277.500 510 C 280.250 508.761, 283.400 507.411, 284.500 507 C 285.600 506.589, 288.750 505.239, 291.500 504 C 294.250 502.761, 297.400 501.400, 298.500 500.975 C 299.600 500.551, 302.075 499.526, 304 498.697 C 305.925 497.869, 309.300 496.452, 311.500 495.550 C 319.882 492.111, 323.660 490.422, 328.500 487.949 L 333.500 485.395 333.500 345.448 L 333.500 205.500 330 205.293 C 328.075 205.179, 325.600 205.491, 324.500 205.985" stroke="none" fill="#265237" fill-rule="evenodd"/>
</svg>