<svg xmlns="http://www.w3.org/2000/svg" width="96" height="96" viewBox="-99.0 -107.0 736 736">
	<path d="M 271.929 40.404 C 271.616 40.717, 268.017 41.407, 263.930 41.937 C 259.844 42.468, 254.475 43.349, 252 43.897 C 249.525 44.445, 246.150 45.176, 244.500 45.522 C 242.850 45.868, 240.600 46.515, 239.500 46.961 C 238.400 47.407, 235.475 48.325, 233 49 C 228.371 50.263, 224.804 51.570, 221.764 53.117 C 220.809 53.603, 219.516 54, 218.892 54 C 217.178 54, 197.089 63.965, 192.320 67.181 C 190.021 68.732, 187.901 70, 187.610 70 C 186.745 70, 169.778 82.922, 166.153 86.342 C 164.312 88.079, 162.411 90.513, 161.928 91.750 C 161.305 93.346, 160.227 94, 158.220 94 C 154.887 94, 151.654 96.850, 141 109.179 C 128.982 123.085, 126 126.780, 126 127.765 C 126 128.274, 125.100 129.505, 124 130.500 C 122.900 131.495, 122 132.845, 122 133.500 C 122 134.155, 121.100 135.505, 120 136.500 C 118.900 137.495, 118 138.655, 118 139.076 C 118 139.498, 115.844 143.590, 113.210 148.171 C 108.022 157.190, 104 165.396, 104 166.959 C 104 167.498, 103.100 169.542, 102 171.500 C 100.900 173.458, 100 175.728, 100 176.544 C 100 177.360, 99.603 178.809, 99.117 179.764 C 97.067 183.792, 95.084 189.384, 93.002 197 C 92.326 199.475, 91.407 202.400, 90.961 203.500 C 90.128 205.555, 89.263 209.232, 88.371 214.500 C 88.092 216.150, 87.472 218.400, 86.994 219.500 C 86.515 220.600, 85.859 223.300, 85.535 225.500 C 85.211 227.700, 84.498 231.975, 83.950 235 C 83.402 238.025, 82.684 244.686, 82.355 249.802 L 81.757 259.103 72.628 266.037 C 67.608 269.851, 61.925 274.213, 60 275.731 C 55.115 279.584, 45.843 289.012, 42.398 293.630 C 40.811 295.758, 39.278 297.725, 38.992 298 C 38.294 298.672, 34.500 306.718, 32.992 310.724 C 30.034 318.585, 34.560 338.070, 40.488 342.990 C 41.320 343.680, 42 344.659, 42 345.166 C 42 349.454, 58.942 362.398, 74 369.615 C 78.125 371.593, 83.230 374.063, 85.345 375.105 C 87.459 376.147, 89.828 377, 90.608 377 C 91.389 377, 92.809 377.397, 93.764 377.883 C 94.719 378.369, 96.850 379.322, 98.500 380 C 100.150 380.678, 102.281 381.631, 103.236 382.117 C 104.191 382.603, 105.660 383, 106.500 383 C 107.340 383, 108.809 383.414, 109.764 383.920 C 110.719 384.426, 114.200 385.812, 117.500 387 C 120.800 388.188, 124.281 389.574, 125.236 390.080 C 126.191 390.586, 127.852 391, 128.927 391 C 130.002 391, 131.160 391.450, 131.500 392 C 131.840 392.550, 133.190 393, 134.500 393 C 135.810 393, 137.160 393.450, 137.500 394 C 137.840 394.550, 139.072 395, 140.238 395 C 142.490 395, 148.347 396.663, 151.236 398.123 C 152.191 398.605, 154.302 399, 155.927 399 C 157.552 399, 159.131 399.402, 159.435 399.894 C 159.739 400.386, 161.903 401.071, 164.244 401.417 C 169.920 402.254, 183.094 403.840, 185.114 403.929 C 186.002 403.968, 189.346 406.475, 192.545 409.500 C 195.744 412.525, 198.890 415, 199.535 415 C 200.800 415, 206.381 420.903, 217.500 434.003 C 227.033 445.234, 245.352 461.762, 252.491 465.573 C 253.596 466.163, 255.400 467.175, 256.500 467.823 C 257.600 468.470, 260.637 469.884, 263.250 470.965 C 267.159 472.581, 268 473.380, 268 475.475 C 268 480.737, 271.721 486.354, 276.795 488.750 C 282.833 491.601, 313.980 492.160, 320.274 489.530 C 325.200 487.472, 330.819 480.632, 331.197 476.234 C 331.363 474.292, 332.175 472.389, 333 472.007 C 333.825 471.624, 335.506 470.791, 336.736 470.155 C 337.966 469.520, 339.852 469, 340.927 469 C 342.002 469, 343.160 468.550, 343.500 468 C 343.840 467.450, 345.190 467, 346.500 467 C 347.810 467, 349.160 466.550, 349.500 466 C 349.840 465.450, 350.922 465, 351.904 465 C 357.042 465, 380.089 445.394, 390.108 432.500 C 392.245 429.750, 395.810 425.137, 398.031 422.250 C 401.304 417.996, 402.635 417, 405.049 417 C 406.687 417, 408.809 416.607, 409.764 416.126 C 410.719 415.645, 413.525 414.234, 416 412.991 C 423.878 409.035, 431.599 400.555, 436.478 390.500 C 440.323 382.576, 441.779 378.751, 446.022 365.429 C 446.560 363.740, 447 361.596, 447 360.665 C 447 359.735, 447.420 358.191, 447.934 357.236 C 448.447 356.281, 449.447 353.358, 450.155 350.739 L 451.443 345.979 462.971 340.264 C 491.142 326.299, 504.885 314.057, 511.874 296.703 C 513.209 293.387, 513.380 279.719, 512.117 277.236 C 511.631 276.281, 510.628 274.150, 509.888 272.500 C 509.148 270.850, 505.158 266.125, 501.021 262 L 493.500 254.500 492.784 244 C 492.003 232.546, 490.603 220.598, 489.036 212 C 488.085 206.786, 487.603 204.643, 484.984 194 C 484.375 191.525, 483.628 188.257, 483.323 186.738 C 483.019 185.219, 482.371 183.729, 481.885 183.429 C 481.398 183.128, 481 181.810, 481 180.500 C 481 179.190, 480.550 177.840, 480 177.500 C 479.450 177.160, 479 176.002, 479 174.927 C 479 173.852, 478.603 172.191, 478.117 171.236 C 477.631 170.281, 476.784 168.375, 476.235 167 C 464.580 137.822, 438.139 102.271, 413 81.978 C 409.975 79.536, 407.350 77.192, 407.167 76.769 C 406.983 76.346, 406.430 76, 405.937 76 C 405.444 76, 402.669 74.202, 399.770 72.004 C 396.872 69.807, 394.131 68.007, 393.680 68.004 C 393.229 68.002, 390.979 66.743, 388.680 65.206 C 386.381 63.670, 381.350 60.915, 377.500 59.084 C 370.865 55.928, 368.873 55.059, 363 52.750 C 361.625 52.209, 359.719 51.369, 358.764 50.883 C 357.809 50.397, 356.148 50, 355.073 50 C 353.998 50, 352.840 49.550, 352.500 49 C 352.160 48.450, 350.585 48, 349 48 C 347.415 48, 345.840 47.550, 345.500 47 C 345.160 46.450, 343.424 46, 341.641 46 C 339.858 46, 337.972 45.596, 337.450 45.102 C 336.927 44.609, 334.475 43.923, 332 43.578 C 329.525 43.233, 324.575 42.488, 321 41.922 C 313.762 40.776, 272.823 39.510, 271.929 40.404 M 266 59.076 C 262.425 59.494, 257.250 60.344, 254.500 60.963 C 251.750 61.583, 248.257 62.346, 246.738 62.660 C 245.219 62.974, 243.729 63.629, 243.429 64.115 C 243.128 64.602, 242.071 65, 241.079 65 C 239.089 65, 225.706 71.649, 221.111 74.921 C 219.505 76.065, 217.941 77, 217.636 77 C 216.371 77, 199.068 90.589, 193.653 95.835 C 187.888 101.420, 177.868 114.257, 170.887 125 C 166.808 131.277, 149 166.901, 149 168.784 C 149 169.468, 148.603 170.809, 148.117 171.764 C 147.631 172.719, 146.678 174.850, 146 176.500 C 145.322 178.150, 144.369 180.281, 143.883 181.236 C 143.397 182.191, 143 183.852, 143 184.927 C 143 186.002, 142.550 187.160, 142 187.500 C 141.450 187.840, 141 189.072, 141 190.238 C 141 191.404, 140.580 193.740, 140.068 195.429 C 139.555 197.118, 138.604 200.525, 137.954 203 C 135.161 213.634, 130.413 218.248, 124.556 216.021 C 119.090 213.943, 117.855 206.771, 121.022 195.500 C 121.485 193.850, 122.406 190.475, 123.067 188 C 125.882 177.470, 127.168 173.595, 129.117 169.764 C 129.603 168.809, 130 167.415, 130 166.667 C 130 165.919, 130.640 164.001, 131.422 162.404 C 132.203 160.807, 132.991 158.600, 133.172 157.500 C 133.352 156.400, 133.756 155.275, 134.069 155 C 135.156 154.045, 137.979 146, 137.228 146 C 136.212 146, 131.434 153.923, 131.750 155.083 C 131.888 155.587, 131.438 156.011, 130.750 156.025 C 129.584 156.049, 125.202 164.265, 121.430 173.500 C 120.532 175.700, 118.717 179.876, 117.398 182.780 C 116.079 185.683, 115 188.694, 115 189.471 C 115 190.247, 114.550 191.160, 114 191.500 C 113.450 191.840, 113 193.190, 113 194.500 C 113 195.810, 112.550 197.160, 112 197.500 C 111.450 197.840, 111 198.998, 111 200.073 C 111 201.148, 110.573 202.809, 110.050 203.764 C 105.352 212.352, 98.636 261.417, 100.477 273.697 C 101.612 281.266, 113.926 291.776, 129.500 298.468 C 131.700 299.414, 135.230 301.045, 137.345 302.094 C 139.459 303.142, 141.971 304, 142.928 304 C 143.884 304, 144.965 304.299, 145.330 304.664 C 146.394 305.727, 164.949 312.158, 175 314.946 C 177.475 315.633, 180.281 316.601, 181.236 317.097 C 182.191 317.594, 183.686 318, 184.558 318 C 189.581 318, 190.742 328.278, 186 330.764 C 183.246 332.208, 169.271 331.562, 167.550 329.911 C 167.027 329.410, 165.709 329, 164.621 329 C 162.794 329, 158.383 327.800, 153.500 325.975 C 152.400 325.564, 149.475 324.674, 147 323.998 C 137.235 321.329, 130.952 318.877, 118.500 312.874 C 106.717 307.193, 98.005 301.846, 93.452 297.500 C 91.825 295.947, 86.003 287.238, 85.978 286.320 C 85.966 285.869, 85.130 284.427, 84.122 283.115 L 82.288 280.730 76.394 284.749 C 68.372 290.220, 55.392 303.529, 51.881 309.885 C 48.733 315.584, 48.058 322.333, 50.244 326.264 C 52.023 329.463, 64.231 342, 65.568 342 C 66.185 342, 67.505 342.900, 68.500 344 C 69.495 345.100, 70.644 346, 71.053 346 C 71.461 346, 74.654 347.707, 78.148 349.793 C 84.067 353.327, 103.341 362.974, 109 365.235 C 110.375 365.784, 112.281 366.631, 113.236 367.117 C 114.191 367.603, 115.852 368, 116.927 368 C 118.002 368, 119.160 368.450, 119.500 369 C 119.840 369.550, 120.998 370, 122.073 370 C 123.148 370, 124.809 370.406, 125.764 370.903 C 126.719 371.399, 129.525 372.351, 132 373.019 C 134.475 373.686, 137.625 374.597, 139 375.042 C 140.375 375.488, 143.975 376.387, 147 377.039 C 150.025 377.691, 153.534 378.625, 154.797 379.113 C 156.060 379.601, 158.333 380, 159.847 380 C 161.361 380, 163.027 380.406, 163.550 380.903 C 164.504 381.810, 165.908 382.027, 182.500 383.828 C 218.226 387.705, 259.408 385.443, 271.236 378.953 C 272.191 378.429, 273.569 378, 274.299 378 C 275.028 378, 277.487 377.100, 279.764 376 C 282.041 374.900, 284.333 374, 284.857 374 C 285.382 374, 287.766 373.036, 290.155 371.858 C 292.545 370.680, 295.400 369.390, 296.500 368.992 C 297.600 368.593, 299.625 367.780, 301 367.185 C 302.375 366.590, 306.650 365.121, 310.500 363.920 C 314.350 362.720, 318.400 361.398, 319.500 360.983 C 323.416 359.505, 335.676 356.541, 342 355.544 C 345.450 355, 352.519 353.949, 365.750 352.012 C 372.852 350.973, 378.538 349.844, 386 347.993 C 388.475 347.379, 391.743 346.628, 393.262 346.323 C 394.781 346.019, 396.271 345.371, 396.571 344.885 C 396.872 344.398, 398.126 344, 399.359 344 C 400.592 344, 402.027 343.642, 402.550 343.204 C 403.072 342.766, 405.300 341.837, 407.500 341.138 C 409.700 340.439, 412.400 339.491, 413.500 339.031 C 414.600 338.571, 418.200 337.215, 421.500 336.018 C 424.800 334.820, 428.281 333.426, 429.236 332.920 C 430.191 332.414, 431.852 332, 432.927 332 C 434.002 332, 435.160 331.550, 435.500 331 C 435.840 330.450, 437.190 330, 438.500 330 C 439.810 330, 441.160 329.550, 441.500 329 C 441.840 328.450, 442.920 328, 443.900 328 C 447.063 328, 471.270 315.335, 479.073 309.598 C 496.965 296.444, 499.108 282.806, 484.983 271.989 C 477.825 266.507, 478.633 268.792, 475.440 245 C 473.942 233.842, 472.490 226.832, 467.928 208.750 C 467.338 206.412, 466.613 203.033, 466.317 201.241 C 466.021 199.448, 465.379 197.734, 464.890 197.432 C 464.400 197.129, 464 196.002, 464 194.927 C 464 193.852, 463.594 192.191, 463.097 191.236 C 462.601 190.281, 461.623 187.475, 460.924 185 C 460.224 182.525, 459.280 180.072, 458.826 179.550 C 458.372 179.027, 458 178.010, 458 177.289 C 458 176.568, 457.072 173.846, 455.937 171.239 C 451.360 160.722, 451.865 161.148, 445.676 162.599 C 442.401 163.367, 438.026 159.680, 430.412 149.739 C 425.147 142.864, 424.962 140.957, 429.235 137.613 L 432.471 135.081 428.985 131.449 C 425.657 127.981, 414.492 119, 413.509 119 C 413.251 119, 410.669 117.202, 407.770 115.004 C 404.872 112.807, 401.993 111.007, 401.372 111.004 C 400.752 111.002, 399.701 110.345, 399.037 109.544 C 398.372 108.744, 394.380 106.409, 390.164 104.356 C 385.949 102.303, 380.529 99.296, 378.120 97.674 C 373.259 94.401, 373.815 93.233, 380.793 92.056 C 385.549 91.253, 384.894 89.925, 377.918 86.227 C 374.522 84.427, 370.495 82.064, 368.968 80.977 C 367.441 79.890, 365.811 78.998, 365.346 78.996 C 364.881 78.993, 362.128 77.193, 359.230 74.996 C 352.861 70.167, 353.498 70.169, 348.107 74.966 C 343.600 78.977, 341.799 79.874, 334 81.988 C 331.525 82.659, 328.466 83.611, 327.203 84.104 C 325.940 84.597, 324.021 85, 322.939 85 C 321.858 85, 320.191 85.397, 319.236 85.883 C 318.281 86.369, 316.375 87.214, 315 87.761 C 309.122 90.098, 298.186 95.622, 294.320 98.206 C 292.021 99.743, 289.901 101, 289.610 101 C 286.583 101, 251 132.598, 251 135.286 C 251 135.739, 249.652 137.547, 248.005 139.304 C 246.357 141.062, 245.007 142.993, 245.005 143.595 C 245.002 144.197, 244.100 145.505, 243 146.500 C 241.900 147.495, 241 148.860, 241 149.533 C 241 150.205, 240.347 151.297, 239.548 151.960 C 238.750 152.622, 237.010 155.265, 235.682 157.832 C 224.915 178.640, 220.546 187.935, 217.040 197.500 C 215.830 200.800, 214.426 204.281, 213.920 205.236 C 213.414 206.191, 213 207.660, 213 208.500 C 213 209.340, 212.590 210.809, 212.090 211.764 C 211.589 212.719, 209.951 217.469, 208.449 222.319 C 206.947 227.170, 205.075 231.782, 204.288 232.570 C 202.735 234.122, 195.588 233.585, 193.250 231.741 C 191.755 230.562, 191.548 220.398, 193 219.500 C 193.550 219.160, 194 217.805, 194 216.490 C 194 214.350, 195.023 210.060, 198.169 199 C 198.717 197.075, 199.404 194.257, 199.698 192.738 C 199.991 191.219, 200.629 189.729, 201.115 189.429 C 201.602 189.128, 202 187.810, 202 186.500 C 202 185.190, 202.450 183.840, 203 183.500 C 203.550 183.160, 204 182.022, 204 180.971 C 204 179.921, 204.900 177.458, 206 175.500 C 207.100 173.542, 208 171.498, 208 170.959 C 208 169.369, 212.084 160.981, 216.187 154.148 C 218.284 150.654, 220 147.392, 220 146.898 C 220 146.404, 220.374 146, 220.831 146 C 221.288 146, 222.300 144.762, 223.079 143.250 C 223.859 141.738, 224.744 140.275, 225.047 140 C 225.349 139.725, 226.677 137.925, 227.999 136 C 234.293 126.831, 259.353 100, 261.624 100 C 262.246 100, 263.337 99.299, 264.049 98.441 C 265.538 96.646, 276.744 88, 277.581 88 C 277.888 88, 280.021 86.743, 282.320 85.206 C 286.186 82.622, 297.122 77.098, 303 74.761 C 304.375 74.214, 306.281 73.369, 307.236 72.883 C 308.191 72.397, 309.852 72, 310.927 72 C 312.002 72, 313.129 71.600, 313.432 71.110 C 313.734 70.621, 315.448 69.971, 317.241 69.666 C 327.720 67.882, 337.492 65.158, 336.603 64.270 C 336.023 63.690, 331.563 62.746, 321 60.968 C 304.770 58.236, 280.349 57.396, 266 59.076 M 453.276 275.950 C 447.102 279.152, 440.439 282.723, 438.469 283.886 C 433.510 286.812, 430.476 286.615, 428.482 283.239 C 425.378 277.984, 420.046 277.367, 410.203 281.123 C 408.940 281.606, 406.604 282, 405.012 282 C 403.420 282, 401.840 282.450, 401.500 283 C 401.160 283.550, 399.360 284, 397.500 284 C 395.640 284, 393.840 284.450, 393.500 285 C 393.160 285.550, 391.360 286, 389.500 286 C 387.640 286, 385.840 286.450, 385.500 287 C 385.160 287.550, 383.810 288, 382.500 288 C 381.190 288, 379.840 288.450, 379.500 289 C 379.160 289.550, 378.070 290, 377.077 290 C 373.058 290, 370 294.832, 370 301.184 C 370 310.436, 368.037 311.724, 350.500 313.970 C 346.650 314.464, 340.800 315.368, 337.500 315.980 C 313.654 320.402, 307.854 320.932, 276 321.607 C 242.664 322.313, 244 321.895, 244 331.620 C 244 336.789, 244.342 338.113, 245.894 338.943 C 252.178 342.307, 319.909 339.767, 325.500 335.959 C 326.050 335.584, 328.300 334.947, 330.500 334.544 C 337.480 333.263, 344.315 332.040, 350.500 330.966 C 353.800 330.393, 357.967 329.666, 359.759 329.352 C 361.552 329.037, 363.266 328.379, 363.568 327.890 C 363.871 327.400, 365.072 327, 366.238 327 C 368.490 327, 374.347 325.337, 377.236 323.877 C 378.191 323.395, 379.584 323, 380.331 323 C 383.458 323, 385 319.480, 385 312.340 C 385 306.051, 385.229 305.233, 387.250 304.308 C 391.019 302.581, 396.523 301, 398.762 301 C 399.928 301, 401.129 300.600, 401.432 300.110 C 401.734 299.621, 403.448 298.978, 405.241 298.681 C 407.033 298.385, 410.897 297.633, 413.826 297.012 C 419.357 295.838, 422 296.652, 422 299.528 C 422 300.234, 422.966 302.621, 424.147 304.834 C 427.187 310.528, 430.263 311.079, 434.900 306.761 C 436.880 304.917, 442.540 301.434, 447.478 299.022 C 457.097 294.323, 466.820 287.494, 469.177 283.782 C 472.496 278.555, 473.362 275.045, 471.973 272.450 C 469.943 268.657, 465.866 269.420, 453.276 275.950 M 208.561 323.979 C 206.055 324.858, 204.071 329.960, 205.227 332.554 C 206.941 336.400, 209.742 337.334, 213.319 335.251 C 220.237 331.223, 216.068 321.345, 208.561 323.979 M 421.323 355.826 C 418.476 356.758, 415.814 357.853, 415.407 358.260 C 415 358.667, 414.062 359, 413.322 359 C 411.976 359, 406.397 361.315, 398.030 365.346 C 393.197 367.675, 393.577 366.861, 390.329 381.822 C 387.862 393.190, 390.077 395.639, 401.722 394.418 C 411.787 393.364, 414.782 391.213, 419.708 381.500 C 423.570 373.887, 429 358.680, 429 355.479 C 429 353.640, 427.845 353.692, 421.323 355.826 M 363.736 371.598 C 363.355 371.979, 359.996 372.660, 356.272 373.113 C 349.507 373.934, 342.926 375.035, 333.500 376.923 C 330.750 377.474, 326.925 378.197, 325 378.530 C 323.075 378.864, 320.600 379.493, 319.500 379.930 C 318.400 380.366, 315.700 381.273, 313.500 381.944 C 311.300 382.616, 308.150 383.750, 306.500 384.464 C 298.688 387.845, 295.303 389.485, 293 391.003 C 291.625 391.909, 288.925 393.233, 287 393.944 C 285.075 394.655, 281.592 396.083, 279.261 397.118 C 276.929 398.153, 274.368 399, 273.570 399 C 272.771 399, 271.840 399.450, 271.500 400 C 271.160 400.550, 269.360 401, 267.500 401 C 265.640 401, 263.875 401.394, 263.577 401.875 C 263.083 402.674, 259.562 403.253, 247 404.598 C 237.694 405.594, 237.670 405.609, 239.711 409.252 C 242.313 413.898, 251.678 424.950, 256.413 428.965 C 258.661 430.871, 263.197 435.014, 266.493 438.172 C 270.308 441.827, 272.834 443.566, 273.443 442.957 C 275.192 441.208, 323.671 441.739, 326.415 443.536 C 328.594 444.964, 328.963 444.904, 331.630 442.685 C 333.209 441.372, 334.994 440.118, 335.598 439.899 C 339.888 438.340, 356.254 422.018, 357.901 417.654 C 358.122 417.070, 359.135 415.698, 360.151 414.607 C 361.168 413.516, 362 412.231, 362 411.753 C 362 411.274, 363.295 409.222, 364.878 407.191 C 367.588 403.715, 367.757 402.940, 367.779 393.868 C 367.792 388.571, 368.255 383.393, 368.807 382.361 C 369.359 381.329, 369.966 378.463, 370.155 375.993 C 370.490 371.633, 370.410 371.491, 367.464 371.203 C 365.794 371.039, 364.116 371.217, 363.736 371.598 M 285.415 460.362 C 285.127 461.111, 285.029 464.374, 285.196 467.612 L 285.500 473.500 297.859 473.782 C 312.273 474.110, 313 473.783, 313 466.959 C 313 458.760, 313.426 459, 298.862 459 C 288.878 459, 285.818 459.310, 285.415 460.362" stroke="none" fill="#265237" fill-rule="evenodd"/>
</svg>