<svg xmlns="http://www.w3.org/2000/svg" width="96" height="96" viewBox="-71.0 -146.0 736 736">
	<path d="M 274.921 28.413 C 274.644 28.690, 271.285 29.348, 267.458 29.875 C 263.631 30.402, 258.700 31.352, 256.500 31.986 C 254.300 32.620, 251.375 33.374, 250 33.662 C 248.625 33.949, 245.592 35.043, 243.261 36.092 C 240.929 37.142, 238.432 38, 237.711 38 C 236.990 38, 235.973 38.378, 235.450 38.840 C 234.928 39.302, 232.925 40.281, 231 41.017 C 222.762 44.165, 208.479 50.754, 184.500 62.469 C 174.050 67.574, 159.200 74.786, 151.500 78.494 C 143.800 82.203, 122.425 92.658, 104 101.729 C 85.575 110.800, 68.475 119.125, 66 120.229 C 27.260 137.510, 21.534 144.769, 22.292 175.633 C 22.733 193.555, 23.241 196.572, 27.117 204.250 C 30.772 211.492, 33.353 214.442, 40.016 218.991 C 43.050 221.062, 46.027 223.824, 46.632 225.128 C 48.179 228.462, 50 236.479, 50 239.955 C 50 241.565, 50.386 243.120, 50.857 243.412 C 51.329 243.703, 52.013 246.092, 52.379 248.721 C 52.744 251.349, 53.481 255.750, 54.017 258.500 C 54.553 261.250, 55.445 265.975, 56 269 C 56.555 272.025, 57.461 276.750, 58.014 279.500 C 58.567 282.250, 59.450 286.975, 59.976 290 C 60.853 295.034, 61.907 300.615, 63.472 308.500 C 63.799 310.150, 64.558 313.975, 65.158 317 C 67.553 329.070, 73.271 342.234, 79.294 349.540 C 84.691 356.088, 103.931 367, 110.079 367 C 111.070 367, 112.160 367.450, 112.500 368 C 112.840 368.550, 113.998 369, 115.073 369 C 116.148 369, 117.809 369.406, 118.764 369.903 C 119.719 370.399, 122.525 371.350, 125 372.017 C 127.475 372.683, 130.400 373.568, 131.500 373.983 C 136.858 376.005, 146.944 379, 148.395 379 C 149.293 379, 150.809 379.404, 151.764 379.897 C 152.719 380.391, 156.875 381.808, 161 383.046 C 178.829 388.399, 181.592 389.278, 183.236 390.115 C 184.191 390.602, 185.707 391, 186.605 391 C 188.407 391, 200.492 394.717, 203.236 396.115 C 204.191 396.602, 205.660 397, 206.500 397 C 207.340 397, 208.809 397.400, 209.764 397.888 C 211.431 398.742, 222.105 402.167, 238 406.949 C 242.125 408.190, 246.281 409.609, 247.236 410.103 C 248.191 410.596, 249.852 411, 250.927 411 C 252.002 411, 253.160 411.450, 253.500 412 C 253.840 412.550, 254.998 413, 256.073 413 C 257.148 413, 258.809 413.404, 259.764 413.897 C 260.719 414.390, 266.225 416.244, 272 418.018 C 277.775 419.792, 283.625 421.595, 285 422.026 C 287.567 422.830, 292.357 423.953, 302 426.012 C 308.206 427.337, 329.511 426.806, 337.500 425.127 C 340.250 424.549, 343.968 423.782, 345.762 423.423 C 347.556 423.063, 349.271 422.371, 349.571 421.885 C 349.872 421.398, 350.919 421, 351.899 421 C 353.894 421, 371.245 412.386, 375.838 409.116 C 377.472 407.952, 379.097 407, 379.450 407 C 379.802 407, 383.425 404.750, 387.500 402 C 391.575 399.250, 395.186 397, 395.525 397 C 395.863 397, 398.028 395.762, 400.336 394.250 C 402.644 392.737, 405.426 390.952, 406.516 390.283 C 407.607 389.614, 410.750 387.686, 413.500 386 C 416.250 384.314, 419.393 382.386, 420.484 381.717 C 421.574 381.048, 424.356 379.262, 426.664 377.750 C 428.972 376.238, 431.148 375, 431.500 375 C 431.852 375, 434.102 373.650, 436.500 372 C 438.898 370.350, 441.084 369, 441.357 369 C 441.630 369, 445.251 366.750, 449.403 364 C 453.556 361.250, 457.156 359, 457.403 359 C 457.651 359, 461.251 356.750, 465.403 354 C 469.556 351.250, 473.167 349, 473.427 349 C 473.687 349, 475.900 347.650, 478.345 346 C 480.790 344.350, 483.218 343, 483.740 343 C 484.263 343, 485.505 342.100, 486.500 341 C 487.495 339.900, 488.707 339, 489.193 339 C 492.339 339, 517.605 320.063, 521.101 315.085 C 524.659 310.020, 527.966 304.699, 528.614 303 C 528.928 302.175, 529.992 299.700, 530.977 297.500 C 533.732 291.347, 535.569 283.418, 537.925 267.500 C 538.495 263.650, 539.203 258.925, 539.499 257 C 539.794 255.075, 540.474 250.125, 541.009 246 C 541.974 238.564, 543.236 230.599, 545.127 220 C 545.666 216.975, 546.350 212.250, 546.646 209.500 C 546.942 206.750, 547.593 204.072, 548.092 203.550 C 548.591 203.028, 549.020 201.003, 549.044 199.050 C 549.153 190.253, 551.231 186.075, 556.887 183.276 C 567.631 177.959, 574.689 169.380, 577.271 158.500 C 579.805 147.825, 578.870 120.944, 575.846 117.550 C 575.381 117.027, 575 115.866, 575 114.969 C 575 108.367, 558.859 90, 553.056 90 C 551.996 90, 550.781 89.491, 546.264 87.156 C 545.034 86.520, 543.340 86, 542.500 86 C 541.660 86, 540.191 85.571, 539.236 85.046 C 536.449 83.514, 518.462 78.596, 502.500 75 C 496.648 73.682, 490.712 72.205, 486.500 71.021 C 484.850 70.556, 479.225 69.195, 474 67.996 C 461.739 65.181, 455.351 63.634, 445.250 61.035 C 438.554 59.312, 420.605 54.843, 416.500 53.877 C 414.300 53.359, 410.577 52.665, 408.227 52.335 C 405.877 52.005, 403.713 51.344, 403.418 50.867 C 403.123 50.390, 401.805 50, 400.488 50 C 399.171 50, 397.060 49.601, 395.797 49.113 C 394.534 48.625, 391.025 47.698, 388 47.053 C 381.234 45.612, 366.893 42.265, 361.500 40.870 C 354.297 39.006, 350.547 38.104, 347.500 37.503 C 345.850 37.177, 342.813 36.481, 340.750 35.955 C 330.163 33.258, 328.228 32.817, 325 32.366 C 323.075 32.096, 320.600 31.476, 319.500 30.986 C 315.647 29.272, 276.331 27.002, 274.921 28.413 M 265 47.991 C 263.625 48.464, 259.212 49.869, 255.193 51.113 C 251.174 52.358, 247.660 53.741, 247.384 54.188 C 247.108 54.635, 246.022 55, 244.971 55 C 243.921 55, 241.458 55.900, 239.500 57 C 237.542 58.100, 235.390 58.996, 234.720 58.992 C 234.049 58.987, 229.900 60.727, 225.500 62.858 C 211.604 69.588, 185.438 82.358, 157 96.290 C 141.875 103.700, 127.250 110.754, 124.500 111.967 C 121.750 113.179, 112.300 117.680, 103.500 121.969 C 94.700 126.257, 82.775 132.070, 77 134.885 C 66.061 140.219, 59.353 143.923, 54.846 147.118 C 53.386 148.153, 51.790 149, 51.299 149 C 50.026 149, 43.637 156.016, 42.123 159.076 C 41.313 160.714, 40.785 166.561, 40.674 175.140 C 40.512 187.692, 40.671 188.961, 42.962 193.421 C 46.500 200.308, 58.738 207.905, 69.262 209.747 C 70.781 210.013, 72.271 210.629, 72.571 211.115 C 72.872 211.602, 74.415 212, 76 212 C 77.585 212, 79.160 212.450, 79.500 213 C 79.840 213.550, 81.045 214, 82.178 214 C 83.311 214, 86.997 214.889, 90.369 215.977 C 93.741 217.064, 99.875 218.911, 104 220.081 C 108.125 221.251, 112.625 222.559, 114 222.988 C 115.375 223.417, 118.525 224.314, 121 224.981 C 123.475 225.649, 126.281 226.601, 127.236 227.097 C 128.191 227.594, 129.885 228, 131 228 C 132.115 228, 133.809 228.406, 134.764 228.903 C 135.719 229.399, 138.525 230.350, 141 231.017 C 143.475 231.683, 146.400 232.575, 147.500 233 C 148.600 233.425, 151.525 234.334, 154 235.021 C 164.070 237.817, 165.572 238.282, 167.236 239.123 C 168.191 239.605, 169.693 240, 170.574 240 C 172.330 240, 190.452 245.687, 193.236 247.112 C 194.191 247.600, 195.660 248, 196.500 248 C 197.340 248, 198.809 248.398, 199.764 248.885 C 202.815 250.440, 214.688 254, 216.822 254 C 217.955 254, 219.160 254.450, 219.500 255 C 219.840 255.550, 221.190 256, 222.500 256 C 223.810 256, 225.160 256.450, 225.500 257 C 225.840 257.550, 226.998 258, 228.073 258 C 229.148 258, 230.809 258.406, 231.764 258.903 C 232.719 259.399, 235.525 260.360, 238 261.038 C 247.523 263.646, 249.555 264.274, 251.236 265.123 C 252.191 265.605, 253.852 266, 254.927 266 C 256.002 266, 257.160 266.450, 257.500 267 C 257.840 267.550, 259.190 268, 260.500 268 C 261.810 268, 263.160 268.450, 263.500 269 C 263.840 269.550, 265.045 270, 266.178 270 C 268.016 270, 278.210 272.971, 283.500 275.048 C 284.600 275.480, 286.625 276.126, 288 276.484 C 289.375 276.842, 292.075 277.589, 294 278.143 C 302.692 280.646, 307.346 281.296, 319.500 281.701 C 331.673 282.108, 335.727 281.631, 342.500 278.993 C 346.423 277.466, 367.588 266.879, 372.500 263.987 C 375.250 262.369, 379.975 259.825, 383 258.335 C 386.025 256.845, 390.300 254.459, 392.500 253.033 C 394.700 251.606, 397.850 249.794, 399.500 249.005 C 401.150 248.217, 403.702 246.763, 405.171 245.774 C 406.640 244.785, 410.240 242.701, 413.171 241.143 C 416.102 239.584, 420.188 237.340, 422.250 236.155 C 424.313 234.970, 427.688 233.052, 429.750 231.893 C 431.813 230.735, 433.950 229.442, 434.500 229.020 C 435.050 228.597, 439.476 226.152, 444.335 223.585 C 449.195 221.018, 454.923 217.811, 457.065 216.459 C 459.208 215.106, 461.203 214, 461.500 214 C 461.797 214, 463.943 212.782, 466.270 211.293 C 468.596 209.804, 473.425 207.050, 477 205.173 C 480.575 203.295, 484.694 200.913, 486.154 199.880 C 487.614 198.846, 489.108 198, 489.474 198 C 489.840 198, 492.021 196.749, 494.320 195.219 C 496.619 193.690, 499.850 191.794, 501.500 191.005 C 503.150 190.217, 505.678 188.780, 507.118 187.812 C 510.996 185.205, 528.241 176.145, 535.500 172.902 C 537.150 172.164, 540.381 170.310, 542.680 168.781 C 544.979 167.251, 547.246 166, 547.718 166 C 550.400 166, 557.739 156.216, 558.839 151.174 C 563.409 130.212, 554.726 109.363, 539.247 104.134 C 537.186 103.438, 534.600 102.510, 533.500 102.072 C 529.108 100.326, 524.248 99, 522.238 99 C 521.072 99, 519.840 98.550, 519.500 98 C 519.160 97.450, 517.360 97, 515.500 97 C 513.640 97, 511.840 96.550, 511.500 96 C 511.160 95.450, 509.424 95, 507.641 95 C 505.858 95, 503.972 94.596, 503.450 94.102 C 502.927 93.609, 500.700 92.970, 498.500 92.684 C 496.300 92.397, 492.475 91.649, 490 91.020 C 487.525 90.391, 484.150 89.649, 482.500 89.370 C 480.850 89.092, 478.600 88.491, 477.500 88.037 C 476.400 87.582, 472.800 86.665, 469.500 86 C 466.200 85.335, 462.600 84.443, 461.500 84.018 C 460.400 83.593, 457.025 82.721, 454 82.081 C 450.975 81.440, 446.700 80.448, 444.500 79.876 C 442.300 79.303, 438.925 78.459, 437 78 C 435.075 77.541, 431.700 76.706, 429.500 76.146 C 427.300 75.585, 423.250 74.619, 420.500 74 C 413.777 72.486, 408.141 71.059, 404.429 69.932 C 402.740 69.420, 400.371 69, 399.165 69 C 397.960 69, 396.191 68.590, 395.236 68.088 C 394.281 67.587, 390.800 66.660, 387.500 66.028 C 384.200 65.397, 380.118 64.457, 378.429 63.940 C 376.740 63.423, 374.179 63, 372.738 63 C 371.297 63, 369.869 62.598, 369.565 62.106 C 369.261 61.614, 367.322 60.968, 365.256 60.670 C 361.387 60.113, 355.854 58.936, 348 57 C 345.525 56.390, 341.587 55.465, 339.250 54.945 C 336.913 54.425, 333.087 53.570, 330.750 53.043 C 323.142 51.331, 315.628 49.884, 309 48.856 C 300.439 47.527, 268.192 46.893, 265 47.991 M 303.372 73.166 C 301.713 75.353, 299.784 82.433, 300.155 84.974 C 300.550 87.683, 304.893 90.457, 310.048 91.295 C 311.947 91.603, 315.300 92.317, 317.500 92.882 C 319.700 93.447, 323.525 94.400, 326 95 C 333.001 96.698, 337.177 97.775, 341.250 98.934 C 343.313 99.520, 346.688 100.480, 348.750 101.066 C 354.826 102.794, 360.275 104.107, 363.759 104.683 C 365.552 104.979, 367.266 105.621, 367.568 106.110 C 367.871 106.600, 369.448 107, 371.073 107 C 372.698 107, 374.809 107.410, 375.764 107.912 C 376.719 108.413, 380.200 109.356, 383.500 110.007 C 386.800 110.658, 390.534 111.598, 391.797 112.095 C 393.060 112.593, 395.171 113, 396.488 113 C 397.805 113, 399.129 113.400, 399.432 113.890 C 399.734 114.379, 401.448 115.021, 403.241 115.317 C 405.033 115.613, 408.525 116.371, 411 117 C 413.475 117.629, 417.075 118.390, 419 118.691 C 420.925 118.991, 422.950 119.558, 423.500 119.951 C 424.050 120.343, 427.200 121.238, 430.500 121.939 C 433.800 122.640, 437.625 123.573, 439 124.011 C 440.375 124.450, 443.750 125.330, 446.500 125.968 C 454.258 127.765, 459.288 129.126, 461.797 130.104 C 463.060 130.597, 465.396 131, 466.988 131 C 468.580 131, 470.160 131.450, 470.500 132 C 470.840 132.550, 472.072 133, 473.238 133 C 474.404 133, 476.740 133.439, 478.429 133.975 C 481.806 135.046, 493.058 137.899, 497 138.682 C 501.811 139.639, 510.290 144.127, 513.468 147.400 C 521.753 155.931, 531.557 150.777, 527.933 139.796 C 525.468 132.329, 510.573 122, 502.270 122 C 501.086 122, 499.840 121.550, 499.500 121 C 499.160 120.450, 497.810 120, 496.500 120 C 495.190 120, 493.840 119.550, 493.500 119 C 493.160 118.450, 491.552 118, 489.927 118 C 488.302 118, 486.191 117.594, 485.236 117.097 C 483.607 116.251, 481.176 115.552, 470.750 112.932 C 468.413 112.345, 465.118 111.445, 463.429 110.932 C 461.740 110.420, 459.404 110, 458.238 110 C 457.072 110, 455.840 109.550, 455.500 109 C 455.160 108.450, 453.552 108, 451.927 108 C 450.302 108, 448.191 107.590, 447.236 107.088 C 446.281 106.587, 442.800 105.647, 439.500 105 C 436.200 104.353, 432.719 103.413, 431.764 102.912 C 430.809 102.410, 428.698 102, 427.073 102 C 425.448 102, 423.871 101.600, 423.568 101.110 C 423.266 100.621, 421.552 99.980, 419.759 99.686 C 416.680 99.180, 411.607 98.047, 402.500 95.829 C 400.300 95.294, 397.033 94.613, 395.241 94.317 C 393.448 94.021, 391.734 93.379, 391.432 92.890 C 391.129 92.400, 389.360 92, 387.500 92 C 385.640 92, 383.840 91.550, 383.500 91 C 383.160 90.450, 381.360 90, 379.500 90 C 377.640 90, 375.869 89.598, 375.565 89.106 C 375.261 88.614, 373.322 87.975, 371.256 87.686 C 366.042 86.957, 361.858 86.001, 359.500 85 C 358.400 84.533, 356.150 83.872, 354.500 83.531 C 352.850 83.190, 349.813 82.481, 347.750 81.955 C 345.688 81.430, 342.313 80.580, 340.250 80.066 C 338.188 79.553, 334.700 78.622, 332.500 77.997 C 330.300 77.372, 327.375 76.633, 326 76.355 C 324.625 76.077, 322.600 75.467, 321.500 75 C 315.614 72.500, 304.714 71.398, 303.372 73.166 M 265.500 77 C 265.160 77.550, 264.135 78, 263.221 78 C 261.646 78, 132.499 142.187, 123 147.691 C 120.525 149.125, 110.175 154.534, 100 159.711 C 89.825 164.889, 80.263 170.306, 78.750 171.749 C 73.125 177.119, 76.912 186.890, 84.648 186.968 C 87.434 186.996, 97.391 182.580, 100.661 179.866 C 101.325 179.315, 133.510 162.977, 172.184 143.560 C 257.506 100.721, 275.799 91.412, 277.608 89.911 C 279.390 88.431, 279.391 80.098, 277.608 77.750 C 276.126 75.798, 266.607 75.208, 265.500 77 M 524 199.336 C 522.625 200.079, 519.813 201.657, 517.750 202.843 C 512.148 206.065, 507.438 208.753, 503.250 211.117 C 501.188 212.281, 498.375 213.989, 497 214.912 C 495.625 215.834, 492.250 217.676, 489.500 219.005 C 486.750 220.335, 482.619 222.677, 480.320 224.211 C 478.021 225.745, 475.852 227, 475.500 227 C 475.148 227, 472.979 228.255, 470.680 229.789 C 468.381 231.323, 464.250 233.668, 461.500 235 C 458.750 236.332, 454.700 238.578, 452.500 239.992 C 450.300 241.405, 447.150 243.206, 445.500 243.995 C 443.850 244.783, 441.319 246.222, 439.876 247.192 C 438.434 248.162, 433.709 250.825, 429.376 253.110 C 425.044 255.395, 420.375 258.009, 419 258.918 C 417.625 259.828, 415.150 261.217, 413.500 262.005 C 411.850 262.794, 408.700 264.595, 406.500 266.008 C 404.300 267.422, 400.250 269.665, 397.500 270.995 C 394.750 272.324, 391.322 274.207, 389.882 275.179 C 388.443 276.152, 384.168 278.587, 380.382 280.590 C 376.597 282.594, 371.475 285.378, 369 286.778 C 362.553 290.424, 356.991 293.051, 349.500 295.988 C 347.389 296.815, 341.522 298.442, 336.500 299.592 C 329.940 301.094, 313.424 301.091, 305.500 299.587 C 293.147 297.241, 291.645 296.908, 289.500 296.039 C 288.400 295.593, 285.475 294.674, 283 293.998 C 278.035 292.641, 273.561 291.215, 270.500 290.013 C 269.400 289.581, 266.475 288.683, 264 288.017 C 261.525 287.350, 258.719 286.399, 257.764 285.903 C 256.809 285.406, 255.340 285, 254.500 285 C 253.660 285, 252.191 284.594, 251.236 284.097 C 250.281 283.601, 247.475 282.650, 245 281.983 C 242.525 281.317, 239.600 280.425, 238.500 280 C 237.400 279.575, 234.475 278.675, 232 278 C 229.525 277.325, 226.600 276.432, 225.500 276.017 C 222.982 275.067, 211.929 271.683, 206 270.047 C 203.525 269.364, 200.719 268.399, 199.764 267.903 C 198.809 267.406, 197.340 267, 196.500 267 C 195.660 267, 194.191 266.605, 193.236 266.123 C 191.572 265.282, 190.070 264.817, 180 262.021 C 177.525 261.334, 174.600 260.436, 173.500 260.025 C 171.417 259.246, 167.630 258.128, 160 256.038 C 157.525 255.360, 154.719 254.399, 153.764 253.903 C 152.809 253.406, 151.265 253, 150.335 253 C 148.756 253, 144.160 251.717, 139.500 249.975 C 138.400 249.564, 135.475 248.666, 133 247.979 C 124.778 245.696, 121.519 244.730, 119.500 243.975 C 118.400 243.564, 115.475 242.666, 113 241.979 C 102.930 239.183, 101.428 238.718, 99.764 237.877 C 98.809 237.395, 97.148 237, 96.073 237 C 94.998 237, 93.840 236.550, 93.500 236 C 93.160 235.450, 91.810 235, 90.500 235 C 89.190 235, 87.840 234.550, 87.500 234 C 87.160 233.450, 86.002 233, 84.927 233 C 83.852 233, 82.191 232.605, 81.236 232.123 C 76.067 229.511, 69.533 228.328, 68.602 229.835 C 67.689 231.312, 70.137 247.040, 74.968 270.750 C 76.242 277.004, 77.742 285.094, 79 292.500 C 79.561 295.800, 80.449 300.975, 80.974 304 C 81.500 307.025, 82.235 311.651, 82.608 314.279 C 82.980 316.908, 83.671 319.297, 84.143 319.588 C 84.614 319.880, 85 320.949, 85 321.965 C 85 330.098, 102.972 348, 111.137 348 C 112.097 348, 113.160 348.450, 113.500 349 C 113.840 349.550, 115.195 350, 116.512 350 C 117.829 350, 120.165 350.506, 121.703 351.125 C 126.950 353.234, 128.505 353.762, 139 357 C 144.775 358.782, 150.400 360.584, 151.500 361.006 C 152.600 361.427, 155.525 362.338, 158 363.030 C 166.946 365.531, 175.536 368.249, 177.236 369.115 C 178.191 369.602, 179.852 370, 180.927 370 C 182.002 370, 183.160 370.450, 183.500 371 C 183.840 371.550, 184.998 372, 186.073 372 C 187.148 372, 188.809 372.406, 189.764 372.903 C 190.719 373.399, 193.525 374.350, 196 375.017 C 198.475 375.683, 201.400 376.575, 202.500 377 C 203.600 377.425, 206.525 378.325, 209 379 C 211.475 379.675, 214.400 380.564, 215.500 380.975 C 216.600 381.387, 219.300 382.265, 221.500 382.928 C 223.700 383.590, 226.400 384.493, 227.500 384.935 C 229.812 385.863, 240.445 389.145, 247 390.953 C 249.475 391.636, 252.281 392.601, 253.236 393.097 C 254.191 393.594, 255.660 394, 256.500 394 C 257.340 394, 258.809 394.398, 259.764 394.885 C 261.464 395.751, 270.054 398.469, 279 400.970 C 281.475 401.662, 284.400 402.593, 285.500 403.039 C 286.600 403.485, 288.850 404.128, 290.500 404.469 C 292.150 404.810, 295.300 405.559, 297.500 406.133 C 303.467 407.691, 317.627 408.822, 325 408.331 C 338.509 407.431, 355.209 401.066, 368.154 391.883 C 369.614 390.847, 371.108 390, 371.474 390 C 371.840 390, 374.102 388.650, 376.500 387 C 378.898 385.350, 381.272 384, 381.775 384 C 382.278 384, 383.505 383.100, 384.500 382 C 385.495 380.900, 386.722 380, 387.225 380 C 387.728 380, 390.102 378.650, 392.500 377 C 394.898 375.350, 397.127 374, 397.453 374 C 397.779 374, 401.444 371.750, 405.597 369 C 409.749 366.250, 413.370 364, 413.643 364 C 413.916 364, 416.102 362.650, 418.500 361 C 420.898 359.350, 423.272 358, 423.775 358 C 424.278 358, 425.505 357.100, 426.500 356 C 427.495 354.900, 428.722 354, 429.225 354 C 429.728 354, 432.102 352.650, 434.500 351 C 436.898 349.350, 439.148 348, 439.500 348 C 439.852 348, 442.102 346.650, 444.500 345 C 446.898 343.350, 449.148 342, 449.500 342 C 449.852 342, 452.102 340.650, 454.500 339 C 456.898 337.350, 459.272 336, 459.775 336 C 460.278 336, 461.505 335.100, 462.500 334 C 463.495 332.900, 464.722 332, 465.225 332 C 465.728 332, 468.102 330.650, 470.500 329 C 472.898 327.350, 475.148 326, 475.500 326 C 475.852 326, 478.102 324.650, 480.500 323 C 482.898 321.350, 485.272 320, 485.775 320 C 486.278 320, 487.505 319.100, 488.500 318 C 489.495 316.900, 490.717 316, 491.214 316 C 492.390 316, 499.348 310.644, 504.811 305.533 C 513.047 297.827, 514.424 294.300, 518.093 271.500 C 518.624 268.200, 519.510 262.800, 520.061 259.500 C 520.613 256.200, 521.500 250.575, 522.034 247 C 522.567 243.425, 523.476 238.025, 524.053 235 C 524.630 231.975, 525.488 226.800, 525.960 223.500 C 526.431 220.200, 527.345 214.350, 527.991 210.500 C 530.126 197.774, 529.602 196.309, 524 199.336" stroke="none" fill="#265237" fill-rule="evenodd"/>
</svg>