<svg xmlns="http://www.w3.org/2000/svg" width="96" height="96" viewBox="-58.0 -147.0 736 736">
	<path d="M 157 37.996 C 156.175 38.531, 154.064 38.976, 152.309 38.985 C 150.554 38.993, 148.840 39.450, 148.500 40 C 148.160 40.550, 147.002 41, 145.927 41 C 144.852 41, 143.191 41.411, 142.236 41.914 C 141.281 42.417, 138.025 43.991, 135 45.411 C 114.889 54.854, 96.665 72.761, 88.098 91.500 C 86.338 95.350, 84.471 99.281, 83.949 100.236 C 83.427 101.191, 83 102.852, 83 103.927 C 83 105.002, 82.600 106.129, 82.110 106.432 C 81.621 106.734, 80.971 108.448, 80.666 110.241 C 80.361 112.033, 79.615 115.750, 79.008 118.500 C 77.585 124.955, 76.163 142.768, 76.054 155.500 C 76.008 161, 75.636 166.024, 75.228 166.665 C 74.820 167.306, 71.134 168.161, 67.037 168.565 C 57.921 169.463, 49.853 173.308, 43.248 179.903 C 38.038 185.104, 31 195.478, 31 197.955 C 31 198.860, 30.470 200.130, 29.821 200.779 C 27.550 203.050, 26.014 332.061, 28.123 343.440 C 29.388 350.265, 29.787 351.470, 33.109 358.500 C 35.621 363.815, 45.827 374.764, 50 376.620 C 54.146 378.465, 57.402 379.787, 59.250 380.378 C 60.763 380.862, 61 382.295, 61 390.980 C 61 411.144, 64.615 414, 90.144 414 C 108.934 414, 111.048 413.475, 115.326 407.751 C 117.471 404.881, 117.816 403.167, 118.264 393.130 C 118.623 385.068, 119.168 381.506, 120.135 380.887 C 121.412 380.072, 459.366 379.947, 485.122 380.753 L 496.743 381.117 497.235 391.308 C 498.228 411.887, 500.851 414, 525.408 414 C 541.509 414, 542.165 413.919, 545.847 411.482 C 552.253 407.243, 554 402.884, 554 391.139 L 554 381.050 558.333 379.076 C 571.830 372.927, 582.340 361.084, 586.860 346.929 C 588.483 341.847, 588.469 207.093, 586.845 202.071 C 584.787 195.706, 580.877 187.993, 577.400 183.436 L 574 178.983 574 159.538 C 574 147.443, 573.574 139.037, 572.874 137.297 C 565.978 120.173, 562.774 117.751, 539.069 111.749 C 536.082 110.992, 533.340 109.727, 532.975 108.937 C 532.610 108.147, 531.791 106.494, 531.155 105.264 C 530.520 104.034, 530 102.148, 530 101.073 C 530 99.998, 529.550 98.840, 529 98.500 C 528.450 98.160, 528 97.229, 528 96.430 C 528 94.001, 523.894 85.901, 518.791 78.262 C 509.124 63.792, 493.270 50.564, 478.339 44.512 C 471.616 41.786, 468.966 40.952, 460 38.738 C 454.086 37.278, 159.220 36.556, 157 37.996 M 163 57.037 C 161.625 57.490, 158.475 58.393, 156 59.044 C 148.155 61.108, 143.098 63.405, 135.500 68.355 C 121.202 77.671, 106.146 97.059, 101.603 112.007 C 97.585 125.226, 96.040 136.990, 96.020 154.527 L 96 171.554 103 178.500 C 106.850 182.320, 110 185.839, 110 186.319 C 110 186.799, 110.847 188.386, 111.882 189.846 C 114.710 193.835, 117.283 201.772, 117.926 208.490 C 118.546 214.965, 120.040 216.278, 124.381 214.167 C 127.043 212.872, 130.806 212.241, 144 210.878 C 156.957 209.539, 275.906 210.393, 278.672 211.845 C 279.677 212.373, 282.525 213.391, 285 214.106 C 287.475 214.822, 290.976 216.216, 292.780 217.204 C 294.585 218.192, 296.272 219, 296.530 219 C 296.789 219, 297 192.035, 297 159.077 L 297 99.154 300.077 96.077 C 304.929 91.224, 311.441 92.084, 314.490 97.980 C 315.787 100.489, 316 109.292, 316 160.450 C 316 193.203, 316.251 220, 316.558 220 C 316.864 220, 319.130 218.875, 321.593 217.500 C 324.056 216.125, 326.736 215, 327.549 215 C 328.362 215, 329.809 214.610, 330.764 214.134 C 337.309 210.870, 339.747 210.741, 403.488 210.296 C 450.978 209.965, 467.668 209.547, 468.222 208.675 C 468.633 208.029, 468.992 198.050, 469.020 186.500 C 469.084 160.275, 470.403 150.475, 475.281 140 C 477.359 135.538, 484.598 127, 486.304 127 C 486.792 127, 488.386 126.182, 489.846 125.182 C 494.183 122.210, 503.006 119.001, 506.883 118.985 C 511.725 118.964, 513.408 117.771, 512.706 114.856 C 510.918 107.429, 510.004 104.795, 507.115 98.741 C 502.265 88.579, 486.318 70.063, 482.372 70.014 C 481.752 70.006, 480.693 69.335, 480.019 68.523 C 478.965 67.252, 472.289 63.776, 465.500 60.961 C 463.011 59.930, 457.950 58.505, 451.736 57.087 C 446.021 55.783, 166.952 55.734, 163 57.037 M 540.250 132.718 C 539.313 133.054, 539 137.648, 539 151.045 L 539 168.923 543.052 170.014 C 545.281 170.614, 549.219 170.969, 551.802 170.803 L 556.500 170.500 556.786 159 C 557.129 145.193, 555.835 139.747, 551.406 136.364 C 549.704 135.064, 547.537 134, 546.590 134 C 545.643 134, 544.111 133.611, 543.184 133.135 C 542.258 132.659, 540.938 132.472, 540.250 132.718 M 515 133.745 C 512.369 134.111, 508.184 135.463, 504 137.299 C 500.338 138.905, 493.079 146.036, 491.580 149.500 C 490.865 151.150, 489.681 153.850, 488.948 155.500 C 487.121 159.611, 486.271 207.768, 487.969 210.942 C 489.963 214.668, 494.433 213.390, 494.764 209 C 495.619 197.639, 500.365 187.553, 508.737 179.304 C 512.255 175.837, 515.731 173, 516.460 173 C 518.695 173, 519 170.478, 519 151.977 C 519 133.251, 518.987 133.191, 515 133.745 M 532.022 188.004 C 529.009 189.028, 526.384 190.347, 526.189 190.933 C 525.993 191.520, 525.280 192, 524.604 192 C 521.376 192, 515.291 200.971, 513.608 208.214 C 511.854 215.758, 512.835 218.072, 521.707 227.324 C 533.931 240.072, 535.408 244.295, 535.408 266.500 C 535.408 288.539, 533.849 293.107, 522.269 305 L 514.966 312.500 515.233 337 L 515.500 361.500 529.500 362.370 C 552.566 363.804, 560.787 359.984, 567.952 344.500 C 569.942 340.199, 569.516 208.468, 567.496 203.664 C 561.592 189.621, 546.654 183.026, 532.022 188.004 M 68.500 187.650 C 61.387 189.277, 54.036 195.166, 49.963 202.500 L 47.741 206.500 47.748 275.828 C 47.753 325.746, 48.069 345.469, 48.878 346.278 C 49.495 346.895, 50 348.107, 50 348.972 C 50 351.805, 55.934 357.821, 61.334 360.463 C 66.448 362.965, 67.169 363.043, 82.564 362.776 L 98.500 362.500 98.768 337.045 L 99.035 311.589 93.202 305.545 C 83.691 295.688, 80.988 287.869, 81.020 270.307 C 81.058 249.286, 84.504 237.731, 94.130 226.346 C 98.915 220.687, 99 220.468, 99 213.782 C 99 203.200, 94.372 195.430, 84.975 190.235 C 81.405 188.262, 72.165 186.812, 68.500 187.650 M 127.500 231.387 C 111.937 235.768, 103.574 243.494, 101.076 255.799 C 97.539 273.223, 101.826 289.402, 111 293.250 C 113.902 294.467, 295.010 294.330, 296.268 293.109 C 296.690 292.699, 296.915 281.194, 296.768 267.542 L 296.500 242.720 290.391 238.858 C 287.031 236.734, 281.183 233.872, 277.395 232.498 L 270.509 230 201.004 230.131 C 152.893 230.221, 130.269 230.608, 127.500 231.387 M 335.896 232.348 C 332.813 233.531, 329.117 235.287, 327.681 236.250 C 326.245 237.213, 324.696 238, 324.238 238 C 323.780 238, 321.731 239.715, 319.684 241.811 L 315.963 245.622 316.231 269.561 L 316.500 293.500 410 294 C 483.601 294.394, 504.075 294.234, 506.203 293.249 C 516.792 288.347, 520.407 263.524, 512.766 248.182 C 509.822 242.270, 502.174 236.121, 494.500 233.497 C 484.481 230.072, 482.711 229.999, 411.701 230.098 C 342.363 230.194, 341.431 230.222, 335.896 232.348 M 118.873 314.250 C 118.172 321.136, 119.426 361.635, 120.358 362.235 C 121.932 363.248, 495.759 363.198, 496.386 362.185 C 497.218 360.839, 498.348 318.523, 497.628 315.656 L 496.962 313 307.981 313 C 157.531 313, 118.974 313.255, 118.873 314.250 M 79.370 381.478 C 79.042 382.333, 79.083 385.506, 79.460 388.529 C 80.049 393.244, 80.556 394.236, 83.024 395.512 C 87.113 397.627, 91.175 397.357, 95.102 394.710 C 98.330 392.535, 98.500 392.122, 98.500 386.460 L 98.500 380.500 89.233 380.212 C 81.596 379.975, 79.861 380.198, 79.370 381.478 M 516.703 380.631 C 515.176 382.157, 515.968 391.662, 517.750 393.203 C 525.785 400.152, 535.691 395.030, 534.818 384.379 L 534.500 380.500 525.953 380.214 C 521.252 380.057, 517.089 380.244, 516.703 380.631" stroke="none" fill="#265237" fill-rule="evenodd"/>
</svg>