<svg xmlns="http://www.w3.org/2000/svg" width="96" height="96" viewBox="-95.0 -133.0 736 736">
	<path d="M 189.437 41.250 C 181.941 48.999, 176 56.311, 176 57.786 C 176 58.283, 175.100 59.505, 174 60.500 C 172.900 61.495, 171.989 62.803, 171.975 63.405 C 171.962 64.007, 170.382 66.638, 168.465 69.250 L 164.981 74 131.240 74.030 C 86.334 74.070, 55.157 75.414, 53.176 77.395 C 50.563 80.008, 51.149 94.930, 54.017 98.809 C 56.110 101.640, 56.221 102.319, 55.167 105.837 C 54.525 107.979, 54 110.698, 54 111.880 C 54 113.061, 53.576 114.809, 53.058 115.764 C 50.935 119.679, 46.300 142.483, 45.519 152.860 C 44.763 162.912, 44.823 390.061, 45.584 396.416 C 47.845 415.297, 58.252 429.102, 74.567 434.859 C 80.519 436.960, 81.805 437, 143.067 436.989 C 208.941 436.978, 208.804 436.986, 218.745 432.346 C 229.847 427.163, 239.584 411.786, 241.442 396.500 C 242.390 388.708, 241.938 163.794, 240.951 152 C 239.786 138.079, 238.983 132.699, 237.898 131.550 C 237.404 131.027, 237 128.692, 237 126.359 C 237 124.026, 236.598 121.869, 236.106 121.565 C 235.614 121.261, 234.965 119.322, 234.663 117.256 C 233.416 108.703, 232.152 102.055, 231.605 101.170 C 231.284 100.651, 231.722 99.646, 232.577 98.936 C 238.367 94.131, 238.680 79.577, 233.087 75.282 C 231.966 74.422, 225.697 74.054, 211.750 74.032 C 198.729 74.011, 192 73.645, 192 72.957 C 192 72.111, 199.893 60.842, 205.298 53.971 C 207.776 50.821, 211 44.155, 211 42.182 C 211 40.011, 206.234 36, 203.655 36 C 202.810 36, 201.840 35.550, 201.500 35 C 199.876 32.372, 196.164 34.295, 189.437 41.250 M 75.540 100.243 C 75.318 100.934, 74.914 103.075, 74.641 105 C 74.368 106.925, 73.634 110.525, 73.011 113 C 72.387 115.475, 71.649 118.850, 71.370 120.500 C 71.092 122.150, 70.475 124.400, 70 125.500 C 69.525 126.600, 68.864 129.075, 68.530 131 C 68.197 132.925, 67.456 136.750, 66.884 139.500 C 66.312 142.250, 65.360 158.381, 64.770 175.347 C 63.597 209.027, 63.685 209.674, 68.945 206.143 C 70.350 205.200, 72.625 203.939, 74 203.341 C 75.375 202.743, 78.525 201.333, 81 200.208 C 89.489 196.351, 102.267 195.866, 151.885 197.517 C 164.338 197.932, 170.614 197.786, 171.335 197.065 C 171.921 196.479, 173.323 195.993, 174.450 195.985 C 176.731 195.968, 183.582 193.752, 184.648 192.685 C 185.025 192.308, 185.965 192, 186.736 192 C 187.508 192, 190.021 190.749, 192.320 189.219 C 194.619 187.690, 197.738 185.814, 199.250 185.050 C 200.762 184.287, 202 183.288, 202 182.831 C 202 182.374, 202.602 182, 203.339 182 C 204.075 182, 208.603 178.231, 213.400 173.624 L 222.121 165.249 221.708 153.374 C 221.480 146.843, 220.798 139.700, 220.192 137.500 C 219.585 135.300, 218.810 132.150, 218.469 130.500 C 218.128 128.850, 217.464 126.600, 216.993 125.500 C 216.522 124.400, 215.901 122.150, 215.613 120.500 C 215.325 118.850, 214.598 115.250, 213.997 112.500 C 213.396 109.750, 212.588 105.700, 212.202 103.500 L 211.500 99.500 143.721 99.243 C 89.997 99.039, 75.859 99.247, 75.540 100.243 M 426.571 154.147 C 423.310 155.249, 418.729 157.467, 416.391 159.075 C 414.053 160.684, 411.728 162, 411.225 162 C 410.722 162, 409.495 162.900, 408.500 164 C 407.505 165.100, 406.252 166, 405.716 166 C 405.181 166, 403.060 167.463, 401.004 169.250 C 398.948 171.037, 394.664 174.525, 391.484 177 C 378.209 187.333, 344.722 220.377, 336.254 231.500 C 333.742 234.800, 331.307 237.650, 330.843 237.833 C 330.379 238.017, 330 238.592, 330 239.112 C 330 239.632, 327.853 242.857, 325.228 246.279 C 318.743 254.735, 308 270.627, 308 271.765 C 308 272.274, 307.100 273.505, 306 274.500 C 304.900 275.495, 304 276.733, 304 277.251 C 304 277.768, 303.048 279.528, 301.885 281.161 C 300.722 282.795, 297.413 288.714, 294.532 294.315 C 290.232 302.675, 288.774 304.655, 286.397 305.367 C 280.581 307.107, 280.518 307.215, 280.209 315.886 C 279.882 325.075, 280.846 327, 285.774 327 C 292.096 327, 292 326.296, 292 372.782 L 292 414.906 288.465 416.583 C 283.573 418.905, 282 421.572, 282 427.548 C 282 431.741, 282.460 433.084, 284.581 435.076 L 287.161 437.500 398.402 437.500 C 520.039 437.500, 510.998 437.948, 513.723 431.788 C 516.006 426.626, 510.790 418.018, 505.372 418.005 C 501.017 417.995, 500.966 417.417, 501.239 371.385 L 501.500 327.500 504 327.202 C 509.499 326.546, 511.246 323.938, 511.378 316.186 C 511.572 304.854, 519.671 305.936, 432.917 305.703 C 358.130 305.502, 357.502 305.483, 357.782 303.500 C 357.937 302.400, 363.789 295.875, 370.787 289 C 385.452 274.591, 397.948 261.508, 400.175 258.229 C 401.024 256.980, 403.246 254.280, 405.113 252.229 C 406.981 250.178, 409.182 247.531, 410.004 246.348 C 413.498 241.320, 421.380 231.474, 422.157 231.167 C 422.621 230.983, 423 230.425, 423 229.925 C 423 229.125, 427.462 222.776, 431.565 217.739 C 432.354 216.770, 433 215.602, 433 215.144 C 433 214.685, 433.900 213.495, 435 212.500 C 436.100 211.505, 437 210.155, 437 209.500 C 437 208.845, 437.900 207.495, 439 206.500 C 440.100 205.505, 441 204.267, 441 203.749 C 441 203.232, 441.905 201.537, 443.012 199.983 C 446.207 195.496, 450.453 186.895, 451.888 182 C 452.614 179.525, 453.611 176.466, 454.104 175.203 C 457.724 165.921, 450.705 156.563, 437.500 153.070 C 432.723 151.806, 433.816 151.698, 426.571 154.147 M 417.944 186.518 C 416.600 187.286, 414.600 188.348, 413.500 188.879 C 412.400 189.410, 410.356 190.936, 408.958 192.269 C 407.561 193.603, 405.906 194.876, 405.282 195.097 C 401.272 196.520, 367.922 229.968, 359.309 241.205 C 353.581 248.678, 350.429 252.578, 347.755 255.500 C 346.245 257.150, 345.007 259.063, 345.005 259.750 C 345.002 260.438, 344.647 261, 344.216 261 C 343.784 261, 342.643 262.334, 341.681 263.964 C 340.718 265.594, 339.356 267.506, 338.655 268.214 C 337.226 269.657, 327.474 283.672, 324.695 288.278 C 322.186 292.436, 323.222 295.055, 326.276 292.277 C 327.499 291.165, 328.995 290.085, 329.601 289.877 C 334.613 288.160, 375.849 246.945, 382.922 236.583 C 383.704 235.437, 386.179 232.432, 388.422 229.905 C 390.665 227.378, 394.525 222.739, 397 219.597 C 399.475 216.455, 402.340 212.897, 403.368 211.692 C 406.900 207.546, 419.501 190.497, 420.682 188.267 C 422.183 185.431, 421.080 184.727, 417.944 186.518 M 217.304 195.989 C 215.547 197.645, 213.689 199, 213.177 199 C 212.664 199, 211.706 199.649, 211.048 200.443 C 209.501 202.307, 192.006 211, 189.801 211 C 188.876 211, 187.840 211.450, 187.500 212 C 187.160 212.550, 185.810 213, 184.500 213 C 183.190 213, 181.877 213.390, 181.582 213.867 C 180.067 216.318, 150.369 217.058, 116.574 215.486 C 100.317 214.730, 95.101 215.678, 82.151 221.740 C 75.091 225.045, 65.551 234.394, 64.666 238.875 C 63.426 245.156, 63.880 308.793, 65.167 309.222 C 65.809 309.436, 70.312 307.626, 75.174 305.199 C 80.036 302.772, 85.698 300.350, 87.757 299.818 C 100.910 296.414, 97.439 296.550, 155.500 297.173 C 163.200 297.256, 171.525 296.825, 174 296.216 C 176.475 295.607, 180.300 294.655, 182.500 294.099 C 184.700 293.544, 187.744 292.791, 189.265 292.425 C 190.785 292.060, 192.274 291.365, 192.574 290.881 C 192.873 290.396, 193.814 290, 194.664 290 C 195.514 290, 198.210 288.650, 200.655 287 C 203.100 285.350, 205.448 284, 205.873 284 C 206.298 284, 210.271 280.285, 214.703 275.745 L 222.761 267.489 223.453 243.995 C 223.834 231.073, 224 214.431, 223.823 207.012 C 223.458 191.778, 222.855 190.758, 217.304 195.989 M 214 301.506 C 209.875 304.431, 204.700 307.393, 202.500 308.086 C 200.300 308.780, 198.072 309.720, 197.550 310.174 C 197.027 310.628, 195.592 311, 194.359 311 C 193.126 311, 191.840 311.450, 191.500 312 C 191.160 312.550, 189.529 313, 187.875 313 C 186.222 313, 183.886 313.563, 182.684 314.250 C 181.047 315.187, 170.604 315.527, 141 315.606 C 103.137 315.708, 94.640 316.155, 93.432 318.110 C 93.129 318.600, 92.125 319, 91.200 319 C 87.812 319, 74.778 326.346, 70.126 330.877 C 63.900 336.942, 63.894 336.985, 64.581 370.370 C 65.114 396.237, 65.330 398.845, 67.260 402.793 C 70.540 409.502, 75.923 414.284, 82.955 416.734 C 88.496 418.666, 201.503 418.527, 206.128 416.583 C 215.249 412.750, 220.493 406.294, 222.875 395.962 C 224.003 391.073, 224.477 302.748, 223.399 298.452 C 222.611 295.315, 222.829 295.244, 214 301.506 M 312.655 328.829 C 309.979 331.786, 310.148 413.919, 312.835 416.351 C 314.519 417.875, 321.464 417.991, 397.085 417.756 L 479.500 417.500 479.500 410.500 L 479.500 403.500 426.069 403.241 C 378.099 403.009, 372.452 402.814, 370.819 401.336 C 369.150 399.826, 369.001 397.582, 369.015 374.095 C 369.024 360.018, 369.385 347.941, 369.819 347.259 C 370.428 346.300, 383.021 345.958, 425.054 345.759 L 479.500 345.500 479.787 336.876 C 480.062 328.624, 479.976 328.226, 477.787 327.640 C 476.529 327.303, 439.232 327.021, 394.905 327.014 C 318.086 327.001, 314.232 327.086, 312.655 328.829 M 404 365.934 C 397.125 366.245, 390.938 366.864, 390.250 367.309 C 388.365 368.529, 388.576 379.624, 390.499 380.361 C 394.093 381.740, 477.767 380.985, 478.948 379.563 C 479.630 378.740, 479.978 375.592, 479.800 371.837 L 479.500 365.500 448 365.434 C 430.675 365.398, 410.875 365.623, 404 365.934" stroke="none" fill="#265237" fill-rule="evenodd"/>
</svg>