<svg xmlns="http://www.w3.org/2000/svg" width="96" height="96" viewBox="-123.0 -126.0 736 736">
	<path d="M 197.923 36.409 C 197.605 36.728, 186.130 37.486, 172.423 38.095 C 134.425 39.782, 115.642 41.278, 85 45.057 C 69.115 47.016, 41.304 52.588, 35.500 54.974 C 24.959 59.308, 20.034 63.019, 17.367 68.640 C 15.658 72.240, 15.835 79.381, 17.957 92.500 C 20.073 105.583, 21.161 112.825, 22.087 120 C 22.620 124.125, 23.481 130.425, 24 134 C 24.519 137.575, 25.390 143.875, 25.934 148 C 26.479 152.125, 27.405 159.100, 27.993 163.500 C 28.581 167.900, 29.332 173.647, 29.660 176.271 C 29.989 178.895, 30.650 181.284, 31.129 181.580 C 31.608 181.876, 32 182.810, 32 183.655 C 32 184.500, 32.869 186.411, 33.931 187.903 C 35.783 190.505, 37.623 191.584, 50.120 197.403 C 55.197 199.767, 55.796 200.380, 56.326 203.760 C 56.648 205.817, 57.401 210.425, 58 214 C 58.598 217.575, 59.519 223.200, 60.046 226.500 C 60.574 229.800, 61.475 235.200, 62.048 238.500 C 62.622 241.800, 63.551 247.650, 64.114 251.500 C 64.676 255.350, 65.555 261.313, 66.068 264.750 C 68.353 280.073, 68.926 283.980, 69.990 291.500 C 71.145 299.659, 72.437 308.584, 74.080 319.750 C 74.586 323.188, 75.414 328.813, 75.920 332.250 C 76.766 338.004, 77.772 344.594, 80 359 C 80.468 362.025, 81.311 367.650, 81.874 371.500 C 82.831 378.051, 83.369 381.361, 86.058 397.250 C 86.639 400.688, 87.522 406.200, 88.019 409.500 C 88.516 412.800, 89.373 417.750, 89.923 420.500 C 90.474 423.250, 91.218 426.968, 91.577 428.762 C 91.937 430.556, 92.629 432.271, 93.115 432.571 C 93.602 432.872, 94 433.946, 94 434.959 C 94 437.235, 103.539 446.096, 108.408 448.343 C 120.365 453.860, 129.146 457, 132.621 457 C 133.709 457, 135.028 457.404, 135.550 457.898 C 136.073 458.391, 138.300 459.049, 140.500 459.358 C 144.464 459.917, 150.384 460.957, 161 462.959 C 191.130 468.643, 232.067 470.940, 270.500 469.104 C 302.334 467.583, 310.267 466.772, 330 463.021 C 333.025 462.446, 337.647 461.698, 340.271 461.358 C 342.895 461.019, 345.284 460.350, 345.580 459.871 C 345.876 459.392, 347.420 459, 349.012 459 C 350.604 459, 352.940 458.597, 354.203 458.104 C 355.466 457.611, 358.525 456.630, 361 455.924 C 365.372 454.675, 372.711 451.783, 376.236 449.918 C 377.191 449.413, 378.436 449, 379.002 449 C 383.143 449, 395.842 437.264, 397.397 432 C 399.427 425.126, 400.169 422.043, 401.006 417 C 401.509 413.975, 402.405 408.800, 402.998 405.500 C 404.747 395.764, 407.061 381.167, 408.943 368 C 410.731 355.490, 411.873 347.822, 412.964 341 C 413.536 337.425, 414.485 331.125, 415.072 327 C 415.660 322.875, 416.527 316.800, 417 313.500 C 418.199 305.128, 419.983 292.610, 420.990 285.500 C 421.457 282.200, 422.325 276.238, 422.920 272.250 C 423.514 268.262, 424.433 261.962, 424.961 258.250 C 425.490 254.537, 426.431 248.350, 427.053 244.500 C 427.675 240.650, 428.561 234.800, 429.022 231.500 C 430.772 218.965, 431.960 210.328, 432.596 205.500 C 433.273 200.358, 435.277 197, 437.669 197 C 438.416 197, 439.809 196.599, 440.764 196.109 C 441.719 195.620, 444.750 194.184, 447.500 192.918 C 453.415 190.196, 459 185.313, 459 182.863 C 459 181.903, 459.389 180.877, 459.865 180.583 C 460.341 180.289, 461.053 178.125, 461.447 175.774 C 464.884 155.284, 466.928 141.333, 468.960 124.500 C 470.110 114.972, 471.682 103.126, 473.074 93.500 C 475.508 76.668, 475.412 69.379, 472.696 64.744 C 470.181 60.452, 463.699 56, 459.965 56 C 458.949 56, 457.871 55.600, 457.568 55.110 C 457.266 54.621, 455.552 53.971, 453.759 53.666 C 451.967 53.361, 448.250 52.615, 445.500 52.010 C 414.865 45.261, 379.181 41.293, 319 37.942 C 298.744 36.814, 198.781 35.549, 197.923 36.409 M 186.923 55.410 C 186.643 55.690, 176.983 56.419, 165.457 57.029 C 153.931 57.639, 139.775 58.567, 134 59.092 C 128.225 59.617, 118.325 60.483, 112 61.017 C 88.893 62.967, 79.806 64.132, 66 66.917 C 54.233 69.290, 50.214 70.067, 46.726 70.645 C 44.650 70.989, 42.710 71.660, 42.415 72.137 C 41.351 73.859, 46.662 75.304, 64 78.012 C 67.575 78.570, 73.200 79.465, 76.500 80 C 173.488 95.736, 329.327 94.895, 427 78.109 C 430.025 77.589, 434.525 76.868, 437 76.505 C 439.475 76.143, 442.400 75.472, 443.500 75.014 C 444.600 74.556, 446.352 73.905, 447.393 73.567 C 450.811 72.458, 449.570 71.996, 435 68.950 C 412.027 64.147, 377.565 60.304, 332.500 57.519 C 327.550 57.213, 319.900 56.710, 315.500 56.400 C 304.942 55.656, 187.581 54.753, 186.923 55.410 M 447.500 93.155 C 426.135 98.096, 419.784 99.099, 385 103.025 C 292.412 113.474, 172.060 112.663, 88 101.024 C 67.979 98.252, 59.494 96.901, 50 94.975 C 46.975 94.362, 42.746 93.613, 40.602 93.311 L 36.703 92.762 37.383 101.131 C 37.756 105.734, 38.497 112.425, 39.028 116 C 39.559 119.575, 40.450 126.100, 41.007 130.500 C 46.731 175.684, 46.267 173.342, 50.024 176.017 C 51.556 177.108, 53.500 178, 54.345 178 C 55.190 178, 56.128 178.398, 56.429 178.885 C 56.729 179.371, 58.219 179.996, 59.738 180.272 C 61.257 180.549, 65.109 181.501, 68.299 182.388 C 71.488 183.274, 75.111 184, 76.349 184 C 77.587 184, 79.027 184.406, 79.550 184.903 C 80.072 185.400, 82.525 186.050, 85 186.348 C 87.475 186.646, 92.425 187.397, 96 188.018 C 108.336 190.158, 113.526 190.992, 121 192.032 C 141.194 194.843, 152.134 196.140, 171.500 198.021 C 195.259 200.328, 248.816 201.371, 280.500 200.143 C 317.856 198.696, 326.758 197.988, 357.500 194.023 C 361.900 193.455, 368.200 192.734, 371.500 192.420 C 374.800 192.106, 378.400 191.466, 379.500 190.998 C 380.600 190.529, 383.750 189.859, 386.500 189.508 C 394.522 188.484, 408.612 185.860, 415.500 184.107 C 417.700 183.548, 420.850 182.810, 422.500 182.469 C 425.399 181.870, 426.643 181.447, 432 179.236 C 444.486 174.082, 444.077 174.691, 446.106 158.250 C 446.948 151.418, 447.780 145.290, 449.941 130 C 450.446 126.425, 451.311 120.125, 451.863 116 C 452.414 111.875, 453.093 107.600, 453.371 106.500 C 453.649 105.400, 454.122 101.688, 454.423 98.250 C 455.033 91.272, 455.179 91.379, 447.500 93.155 M 76.697 205.750 C 76.291 206.475, 77.057 212.544, 79.001 224 C 79.515 227.025, 80.379 232.425, 80.923 236 C 81.466 239.575, 82.401 245.650, 83 249.500 C 84.056 256.284, 84.732 260.797, 86.893 275.500 C 87.459 279.350, 88.411 285.650, 89.007 289.500 C 89.604 293.350, 90.520 299.650, 91.044 303.500 C 91.568 307.350, 92.446 313.425, 92.997 317 C 93.547 320.575, 94.480 326.875, 95.070 331 C 95.659 335.125, 96.545 341.200, 97.038 344.500 C 100.125 365.182, 100.876 370.376, 102.895 385 C 103.465 389.125, 104.399 395.875, 104.970 400 C 105.542 404.125, 106.269 409.975, 106.586 413 C 107.358 420.379, 108.725 423.869, 112.369 427.766 C 115.588 431.208, 124.183 436, 127.137 436 C 128.097 436, 129.128 436.398, 129.429 436.885 C 129.729 437.371, 131.444 438.063, 133.238 438.423 C 157.063 443.193, 163.055 444.243, 176.500 446.005 C 199.174 448.976, 208.671 449.433, 247 449.402 C 284.761 449.370, 296.876 448.781, 315.500 446.071 C 326.295 444.500, 341.439 441.729, 349 439.941 C 351.475 439.356, 354.743 438.628, 356.262 438.323 C 357.781 438.019, 359.271 437.371, 359.571 436.885 C 359.872 436.398, 361.104 435.966, 362.309 435.924 C 363.514 435.883, 367.618 434.195, 371.428 432.174 C 380.934 427.133, 381.519 425.957, 383.969 407 C 385.560 394.683, 386.933 384.891, 388.036 378 C 389.051 371.655, 390.017 365.430, 391.955 352.750 C 392.481 349.313, 393.404 343.350, 394.008 339.500 C 394.611 335.650, 395.517 329.575, 396.021 326 C 396.525 322.425, 397.402 316.462, 397.969 312.750 C 400.379 296.974, 401.047 292.201, 401.574 287 C 401.881 283.975, 402.522 280.600, 403 279.500 C 403.478 278.400, 404.123 275.025, 404.435 272 C 404.746 268.975, 405.446 263.575, 405.991 260 C 407.207 252.018, 408.861 239.821, 409.991 230.500 C 411.661 216.718, 412.762 208.476, 413.128 207 C 413.580 205.178, 408.614 205.151, 399.500 206.925 C 375.920 211.514, 354.835 214.292, 323.656 216.917 C 316.592 217.511, 310.484 218.201, 310.083 218.448 C 308.654 219.332, 221.111 219.726, 200 218.944 C 167.230 217.731, 133.825 214.292, 103.500 209.009 C 100.200 208.435, 94.905 207.693, 91.734 207.361 C 88.563 207.029, 85.724 206.362, 85.425 205.879 C 84.764 204.809, 77.287 204.699, 76.697 205.750" stroke="none" fill="#265237" fill-rule="evenodd"/>
</svg>