<svg xmlns="http://www.w3.org/2000/svg" width="96" height="96" viewBox="-86.0 -139.0 736 736">
	<path d="M 336.895 26.434 C 336.563 26.768, 333.413 27.469, 329.895 27.990 C 286.749 34.384, 266.863 46.129, 233.531 84.904 C 219.830 100.843, 210.467 107.895, 193.500 115.053 C 188.069 117.345, 174.049 121.180, 164.500 122.986 C 161.200 123.610, 157.118 124.543, 155.429 125.060 C 153.740 125.577, 150.954 126, 149.238 126 C 147.522 126, 145.840 126.450, 145.500 127 C 145.160 127.550, 143.340 128, 141.455 128 C 137.794 128, 131.667 129.277, 116.500 133.200 C 107.293 135.581, 95.949 140.324, 88.500 144.906 C 76.911 152.036, 73.398 154.764, 65.027 163.135 C 56.383 171.780, 51 178.667, 45.925 187.578 C 41.002 196.224, 36 207.236, 36 209.430 C 36 210.229, 35.550 211.160, 35 211.500 C 34.450 211.840, 34 212.998, 34 214.073 C 34 215.148, 33.605 216.809, 33.123 217.764 C 31.663 220.653, 30 226.510, 30 228.762 C 30 229.928, 29.598 231.131, 29.106 231.435 C 28.614 231.739, 27.956 233.678, 27.645 235.744 C 27.333 237.810, 26.610 242.200, 26.038 245.500 C 24.129 256.518, 23.141 279.197, 24.014 292 C 25.337 311.413, 26.264 315.367, 32.574 328.500 C 38.566 340.974, 54.303 356.465, 66.500 361.897 C 68.150 362.632, 70.281 363.631, 71.236 364.117 C 72.191 364.603, 75.182 365, 77.883 365 C 82.251 365, 83.135 364.610, 85.896 361.465 C 89.449 357.419, 89.383 357.700, 87.815 353.366 C 87.024 351.178, 85.612 349.709, 83.565 348.944 C 70.281 343.979, 63.153 339.097, 55.726 329.877 C 46.690 318.661, 44.010 309.205, 43.323 286.109 C 42.821 269.248, 43.090 267.841, 46.276 270.685 C 53.986 277.567, 77.539 281.660, 82.518 276.983 C 88.665 271.209, 84.444 260, 76.122 260 C 75.308 260, 73.260 259.580, 71.571 259.068 C 69.882 258.555, 66.475 257.577, 64 256.894 C 61.525 256.211, 59.073 255.280, 58.550 254.826 C 58.028 254.372, 57.005 254, 56.279 254 C 55.552 254, 53.167 252.815, 50.979 251.367 C 47.039 248.760, 47 248.672, 47 242.426 C 47 238.957, 47.450 235.840, 48 235.500 C 48.550 235.160, 49 233.928, 49 232.762 C 49 230.286, 50.555 225.234, 53.155 219.261 C 54.170 216.929, 55 214.600, 55 214.084 C 55 211.236, 68.096 188.031, 70.192 187.167 C 70.636 186.983, 71 186.299, 71 185.646 C 71 183.711, 88.005 167.578, 94.500 163.351 C 104.626 156.761, 116.030 152.344, 131.750 148.925 C 134.088 148.416, 138.025 147.550, 140.500 147 C 146.726 145.617, 152.530 144.375, 159 143.044 C 162.025 142.422, 166.300 141.507, 168.500 141.010 C 170.700 140.514, 173.850 139.837, 175.500 139.506 C 183.649 137.873, 197.185 134.113, 202.500 132.005 C 220.745 124.771, 230.649 117.417, 245 100.448 C 269.002 72.068, 280.658 62.671, 302.750 53.894 C 303.988 53.402, 306.012 52.584, 307.250 52.075 C 308.488 51.567, 310.850 50.872, 312.500 50.531 C 314.150 50.190, 317.300 49.457, 319.500 48.904 C 321.700 48.350, 325.975 47.357, 329 46.698 C 336.298 45.108, 371.740 45.161, 379 46.773 C 382.025 47.445, 386.525 48.471, 389 49.052 C 394.315 50.301, 400.327 51.647, 404.500 52.522 C 406.150 52.868, 408.400 53.515, 409.500 53.961 C 410.600 54.407, 413.525 55.334, 416 56.020 C 422.315 57.771, 432.034 60.932, 435 62.199 C 436.375 62.787, 438.512 63.657, 439.750 64.134 C 440.988 64.610, 443.012 65.395, 444.250 65.878 C 449.658 67.987, 460.842 73.641, 464.680 76.206 C 466.979 77.743, 469.272 79, 469.775 79 C 470.278 79, 471.505 79.900, 472.500 81 C 473.495 82.100, 474.879 83, 475.574 83 C 477.243 83, 498 103.788, 498 105.459 C 498 106.172, 498.665 107.307, 499.477 107.981 C 502.400 110.407, 508.313 124.769, 510.189 134 C 511.931 142.571, 512.993 166.706, 513.615 211.843 C 514.250 257.988, 514.260 257.798, 510.706 264.500 C 510.123 265.600, 509.153 267.439, 508.551 268.586 C 504.068 277.135, 492.623 288.201, 483.062 293.230 C 477.765 296.017, 476.930 296.150, 465.004 296.109 C 458.127 296.085, 450.928 295.601, 449.007 295.033 C 444.481 293.695, 418.324 293.667, 417.500 295 C 417.160 295.550, 415.360 296, 413.500 296 C 411.640 296, 409.840 296.450, 409.500 297 C 409.160 297.550, 407.874 298, 406.641 298 C 405.408 298, 403.973 298.372, 403.450 298.826 C 402.928 299.280, 400.632 300.238, 398.348 300.954 C 396.065 301.670, 392.015 303.901, 389.348 305.912 C 384.899 309.268, 384.475 309.956, 384.196 314.267 C 383.913 318.644, 384.117 319.101, 387.196 320.978 C 390.837 323.198, 393.983 323.526, 397.014 322 C 398.106 321.450, 399.894 320.550, 400.986 320 C 402.079 319.450, 403.789 319, 404.786 319 C 405.784 319, 407.027 318.631, 407.550 318.180 C 408.998 316.930, 421.809 313.131, 428 312.116 C 431.879 311.479, 436.152 311.633, 442.500 312.636 C 471.767 317.262, 477.249 317.126, 489.500 311.469 C 497.066 307.975, 509 298.098, 509 295.331 C 509 294.599, 509.739 294, 510.642 294 C 512.105 294, 512.209 295.170, 511.597 304.750 C 510.165 327.195, 508.391 335.793, 503.882 342.154 C 502.847 343.614, 501.990 345.189, 501.978 345.654 C 501.942 347.040, 491.866 357.359, 486.705 361.295 C 481.506 365.260, 469.898 370.987, 463.500 372.744 C 453.714 375.430, 451.101 376, 448.568 376 C 440.345 376, 437.662 386.325, 444.427 391.940 C 446.555 393.706, 463.721 392.409, 469.500 390.046 C 470.600 389.596, 473.525 388.630, 476 387.898 C 491.633 383.279, 511.659 366.902, 519.886 352.009 C 525.797 341.311, 527.697 336.047, 529.095 326.500 C 533.708 294.988, 533.708 157.299, 529.094 133.500 C 521.462 94.122, 503.791 73.956, 456.364 50.497 C 449.139 46.924, 442.529 44, 441.673 44 C 440.818 44, 439.840 43.550, 439.500 43 C 439.160 42.450, 437.810 42, 436.500 42 C 435.190 42, 433.840 41.550, 433.500 41 C 433.160 40.450, 431.810 40, 430.500 40 C 429.190 40, 427.871 39.600, 427.568 39.110 C 427.266 38.621, 425.552 37.988, 423.759 37.704 C 421.967 37.419, 418.700 36.663, 416.500 36.023 C 414.300 35.384, 411.375 34.633, 410 34.355 C 408.625 34.077, 406.600 33.464, 405.500 32.993 C 404.400 32.522, 401.925 31.864, 400 31.530 C 398.075 31.197, 394.250 30.471, 391.500 29.917 C 388.750 29.362, 383.800 28.456, 380.500 27.902 C 373.541 26.735, 337.792 25.531, 336.895 26.434 M 105.149 267.678 C 97.838 274.457, 102.244 283.330, 114.223 285.947 C 135.917 290.688, 149.363 303.143, 154.889 323.616 C 156.059 327.950, 156.471 364.196, 155.363 365.304 C 155.012 365.654, 153.550 365.150, 152.113 364.184 C 150.676 363.218, 148.150 361.829, 146.500 361.097 C 144.850 360.365, 142.719 359.369, 141.764 358.883 C 140.809 358.397, 139.340 358, 138.500 358 C 137.660 358, 136.191 357.590, 135.236 357.088 C 134.281 356.587, 130.800 355.655, 127.500 355.018 C 124.200 354.381, 119.873 353.441, 117.884 352.930 C 112.334 351.503, 110.549 351.787, 107.997 354.503 C 104.533 358.190, 104.493 366.585, 107.928 368.867 C 110.904 370.845, 116.825 372.965, 119.429 372.985 C 121.676 373.002, 125.333 374.137, 136.897 378.403 C 144.028 381.033, 146.251 382.450, 151.647 387.806 C 155.141 391.274, 158 394.724, 158 395.472 C 158 396.221, 158.354 396.983, 158.787 397.167 C 159.220 397.350, 161.132 399.514, 163.037 401.975 C 171.806 413.307, 188.030 423.369, 205 428 C 207.475 428.675, 210.400 429.591, 211.500 430.034 C 218.072 432.684, 253.076 436.217, 273.500 436.293 C 285.188 436.336, 306.870 434.615, 316 432.920 C 319.025 432.358, 323.190 431.649, 325.256 431.344 C 327.322 431.038, 329.261 430.386, 329.565 429.894 C 329.869 429.402, 331.640 429, 333.500 429 C 335.360 429, 337.160 428.550, 337.500 428 C 337.840 427.450, 338.917 427, 339.894 427 C 342.411 427, 354.663 420.833, 360 416.880 C 368.146 410.846, 371.071 409, 372.485 409 C 373.254 409, 374.160 408.550, 374.500 408 C 374.840 407.450, 376.195 407, 377.512 407 C 378.829 407, 380.940 406.601, 382.203 406.113 C 383.466 405.625, 386.975 404.706, 390 404.071 C 401.759 401.603, 410.741 399.075, 415.969 396.761 C 423.046 393.630, 425.117 388.161, 421.385 382.465 C 419.036 378.880, 409.530 379.199, 401.764 383.123 C 400.809 383.605, 398.698 384, 397.073 384 C 395.448 384, 393.877 384.390, 393.582 384.867 C 393.287 385.344, 390.898 386.049, 388.273 386.432 C 385.648 386.816, 381.250 387.539, 378.500 388.038 C 375.750 388.538, 371.808 389.233, 369.741 389.584 C 367.673 389.934, 365.734 390.621, 365.432 391.110 C 365.129 391.600, 364.228 392, 363.430 392 C 362.631 392, 359.246 393.913, 355.907 396.250 C 347.507 402.132, 339.884 406.169, 338.316 405.568 C 337.286 405.172, 337 400.509, 337 384.099 L 337 363.136 339.904 361.068 C 341.502 359.931, 343.154 359, 343.576 359 C 343.997 359, 345.169 358.252, 346.178 357.339 C 347.188 356.425, 348.857 355.188, 349.889 354.589 C 370.413 342.669, 376.873 332.938, 369.364 325.250 C 366.466 322.283, 358.730 325.223, 345.977 334.141 C 342.549 336.538, 339.021 338.950, 338.138 339.500 C 337.255 340.050, 334.726 341.639, 332.516 343.031 C 327.085 346.454, 323.139 347.631, 312.318 349.056 C 298.346 350.896, 261.327 349.369, 239.500 346.053 C 218.449 342.855, 217.165 342.842, 213.750 345.796 C 210.832 348.321, 211.337 356.520, 214.541 358.619 C 218.550 361.246, 239.410 364.692, 265 366.954 C 290.536 369.211, 293.348 369.284, 304.608 367.988 C 311.546 367.188, 316.425 367.029, 316.974 367.584 C 317.472 368.088, 318.019 378.388, 318.190 390.474 L 318.500 412.447 315.500 413.910 C 311.402 415.908, 299.955 417.057, 278 417.673 C 256.706 418.271, 239.572 416.621, 218 411.896 C 215.525 411.354, 212.257 410.654, 210.738 410.340 C 209.219 410.026, 207.729 409.371, 207.429 408.885 C 207.128 408.398, 206.125 408, 205.200 408 C 202.237 408, 189.639 401.200, 185.352 397.287 C 177.363 389.993, 175.355 383.369, 174.580 361.750 C 174.120 348.904, 174.209 348, 175.922 348 C 176.930 348, 178.315 348.675, 179 349.500 C 179.685 350.325, 181.225 351, 182.422 351 C 183.620 351, 185.095 351.495, 185.699 352.099 C 187.130 353.530, 190.266 352.489, 194.005 349.342 C 199.935 344.352, 196.877 335.801, 187.447 331 C 182.334 328.397, 175.554 322.881, 174.099 320.140 C 171.529 315.298, 171 314.036, 171.008 312.764 C 171.013 312.069, 169.100 307.692, 166.758 303.038 C 158.047 285.729, 142.938 274.154, 120 267.219 C 111.273 264.580, 108.394 264.670, 105.149 267.678" stroke="none" fill="#265237" fill-rule="evenodd"/>
</svg>