<svg xmlns="http://www.w3.org/2000/svg" width="96" height="96" viewBox="-79.0 -90.0 736 736">
	<path d="M 99.438 37.817 C 96.654 38.795, 92.985 40.587, 91.284 41.798 C 89.583 43.009, 87.811 44.009, 87.346 44.019 C 84.113 44.091, 68.930 63.282, 63.231 74.500 C 55.828 89.071, 53.288 97.240, 49.079 120 C 46.415 134.410, 45.875 159.586, 47.879 176 C 49.971 193.137, 50.195 194.490, 51.102 195.450 C 51.596 195.973, 52 197.380, 52 198.578 C 52 202.384, 56.909 213.318, 62.067 221 C 70.986 234.284, 80.976 241.090, 94.500 243.099 C 102.382 244.269, 113.101 245.924, 120.250 247.075 C 123.412 247.584, 128.588 248.405, 131.750 248.901 C 136.977 249.720, 142.006 250.607, 155 253 C 167.831 255.363, 173.654 256.396, 188.750 258.987 C 194.217 259.925, 201.795 261.126, 214 262.989 C 225.153 264.691, 232.589 265.965, 236 266.760 L 239.500 267.575 239.790 274.056 C 240.022 279.235, 239.711 280.934, 238.242 282.518 C 235.745 285.208, 228.731 295.860, 227.223 299.250 C 226.550 300.762, 225.497 303.238, 224.883 304.750 C 224.269 306.262, 223.369 308.281, 222.883 309.236 C 222.397 310.191, 222 311.852, 222 312.927 C 222 314.002, 221.550 315.160, 221 315.500 C 220.450 315.840, 220 317.190, 220 318.500 C 220 319.810, 219.550 321.160, 219 321.500 C 218.450 321.840, 218 323.195, 218 324.512 C 218 325.829, 217.589 327.940, 217.087 329.203 C 216.585 330.466, 215.649 335.550, 215.007 340.500 C 214.366 345.450, 213.427 350.281, 212.921 351.236 C 212.414 352.191, 212 353.852, 212 354.927 C 212 356.002, 211.550 357.160, 211 357.500 C 210.450 357.840, 210 358.907, 210 359.871 C 210 360.835, 209.100 363.487, 208 365.764 C 206.900 368.041, 206 370.291, 206 370.764 C 206 371.237, 205.100 373.487, 204 375.764 C 202.900 378.041, 202 380.291, 202 380.764 C 202 381.237, 201.100 383.487, 200 385.764 C 198.900 388.041, 198 390.510, 198 391.252 C 198 391.993, 197.622 393.027, 197.161 393.550 C 192.876 398.402, 194.077 414.429, 199.652 426.797 C 201.298 430.448, 211.529 441, 213.423 441 C 214.085 441, 215.849 442.276, 217.343 443.836 L 220.060 446.672 218.445 452.586 C 213.559 470.473, 213.587 477.777, 218.582 488.500 C 222.268 496.415, 236.135 508.266, 246 511.933 C 247.925 512.649, 251.068 513.928, 252.985 514.775 C 254.901 515.623, 257.939 516.695, 259.735 517.158 C 261.531 517.621, 264.688 518.484, 266.750 519.075 C 276.184 521.781, 280.772 522.290, 299.500 522.710 C 318.507 523.137, 322.213 522.847, 334 520.008 C 345.038 517.350, 353.345 514.618, 361.739 510.885 C 364.071 509.848, 366.213 509, 366.500 509 C 367.685 509, 376.780 504.454, 380.500 502.003 C 382.700 500.553, 386.126 498.617, 388.112 497.702 C 390.099 496.786, 392.292 495.354, 392.985 494.518 C 393.678 493.683, 394.795 493, 395.467 493 C 396.140 493, 397.505 492.100, 398.500 491 C 399.495 489.900, 400.686 489, 401.146 489 C 401.606 489, 404.105 487.380, 406.699 485.400 C 423.651 472.460, 438.522 457.469, 450.017 441.732 C 453.808 436.542, 453.277 436.636, 463.299 439.400 C 471.161 441.569, 482.630 440.703, 485.618 437.715 C 486.012 437.322, 487.101 437, 488.038 437 C 491.412 437, 504.681 427.079, 513.750 417.775 C 518.837 412.556, 523 408.005, 523 407.663 C 523 407.321, 524.798 404.669, 526.996 401.770 C 532.692 394.256, 532.423 391.964, 524.972 384.583 C 518.499 378.170, 518.028 376.799, 521 373 C 522.076 371.625, 522.967 370.050, 522.982 369.500 C 522.997 368.950, 524.807 366.128, 527.004 363.230 C 529.202 360.331, 531 357.588, 531 357.135 C 531 356.681, 531.900 355.495, 533 354.500 C 536.145 351.653, 535.609 346.983, 531.702 343.196 C 527.185 338.818, 524.745 339.062, 521.154 344.250 C 519.536 346.587, 516.995 349.625, 515.507 351 C 514.020 352.375, 510.558 356.313, 507.815 359.750 C 505.072 363.188, 502.070 366, 501.145 366 C 498.561 366, 487 355.898, 487 353.640 C 487 352.568, 489.700 348.159, 493 343.841 C 496.300 339.523, 499 335.597, 499 335.117 C 499 334.638, 499.708 333.657, 500.573 332.939 C 503.637 330.397, 506.063 324.295, 505.059 321.656 C 503.941 318.714, 498.881 316, 494.514 316 C 491.107 316, 491.410 315.662, 478.042 334.364 C 471.989 342.831, 471 343.230, 465.978 339.229 C 458.362 333.162, 457.510 333.089, 452.384 338.067 C 449.874 340.505, 446.428 344.525, 444.726 347 C 443.024 349.475, 441.360 351.725, 441.028 352 C 440.134 352.740, 432.333 369.020, 431.205 372.500 C 428.206 381.748, 427.876 384.104, 428.267 393.500 C 428.752 405.189, 429.568 408.524, 434.230 417.869 L 437.683 424.791 432.092 432.250 C 419.723 448.749, 412.266 457.010, 403.334 464.107 C 394.046 471.487, 387.917 476, 387.184 476 C 386.703 476, 385.495 476.900, 384.500 478 C 383.505 479.100, 382.330 480, 381.889 480 C 381.448 480, 378.706 481.419, 375.794 483.154 C 368.177 487.692, 359.944 492, 358.888 492 C 358.387 492, 356.071 492.862, 353.739 493.916 C 351.408 494.970, 347.700 496.382, 345.500 497.054 C 343.300 497.727, 340.600 498.631, 339.500 499.063 C 337.303 499.927, 334.535 500.557, 325.500 502.250 C 317.127 503.819, 284.878 503.755, 278 502.157 C 274.975 501.453, 271.033 500.631, 269.241 500.328 C 267.448 500.026, 265.734 499.379, 265.432 498.890 C 265.129 498.400, 264.082 498, 263.104 498 C 260.523 498, 246.126 490.563, 241.813 487.002 C 236.257 482.415, 234.882 478.845, 234.909 469.083 C 234.922 464.454, 235.398 460.202, 235.967 459.633 C 236.535 459.065, 237 457.774, 237 456.765 C 237 451.753, 239.780 450.004, 247.865 449.929 C 279.114 449.638, 295.801 442.109, 308.658 422.500 C 312.247 417.027, 322.291 397.313, 326.490 387.500 C 327.432 385.300, 329.281 381.274, 330.601 378.554 C 331.920 375.833, 333 373.257, 333 372.829 C 333 372.400, 334.350 369.103, 336 365.500 C 337.650 361.897, 339 358.554, 339 358.069 C 339 357.585, 339.964 355.234, 341.142 352.845 C 342.320 350.455, 343.606 347.600, 344 346.500 C 344.394 345.400, 345.680 342.545, 346.858 340.155 C 348.036 337.766, 349 335.399, 349 334.895 C 349 334.391, 349.945 331.846, 351.100 329.239 C 352.254 326.633, 353.560 323.600, 354.002 322.500 C 354.443 321.400, 356.199 317.491, 357.902 313.813 C 359.606 310.135, 361 306.863, 361 306.543 C 361 306.222, 362.800 302.153, 365 297.500 C 367.200 292.847, 369 288.684, 369 288.248 C 369 286.461, 375.333 279.946, 378.306 278.674 C 386.168 275.310, 389.067 274.999, 413.071 274.941 C 451.934 274.847, 464.312 272.488, 473.343 263.457 C 476.776 260.024, 485.023 244.720, 485.008 241.809 C 485.004 240.879, 485.450 239.840, 486 239.500 C 486.550 239.160, 487 237.810, 487 236.500 C 487 235.190, 487.400 233.871, 487.890 233.568 C 488.379 233.266, 489.029 231.552, 489.334 229.759 C 489.639 227.967, 490.368 224.250, 490.954 221.500 C 500.222 177.988, 494.701 118.394, 480.130 104.666 C 476.792 101.522, 470.473 98, 468.170 98 C 467.196 98, 465.973 97.599, 465.450 97.109 C 464.928 96.619, 461.800 95.947, 458.500 95.617 C 445.172 94.283, 425.765 91.056, 412.500 87.967 C 409.750 87.327, 405.700 86.373, 403.500 85.847 C 401.300 85.321, 397.700 84.490, 395.500 84 C 393.300 83.510, 389.700 82.655, 387.500 82.100 C 377.707 79.630, 375.318 79.052, 372.500 78.469 C 370.850 78.128, 368.600 77.464, 367.500 76.993 C 366.400 76.522, 363.925 75.859, 362 75.521 C 360.075 75.182, 357.033 74.652, 355.241 74.342 C 353.448 74.032, 351.734 73.379, 351.432 72.890 C 351.129 72.400, 349.360 72, 347.500 72 C 345.640 72, 343.869 71.598, 343.565 71.106 C 343.261 70.614, 341.322 69.975, 339.256 69.687 C 337.190 69.399, 333.700 68.697, 331.500 68.127 C 329.300 67.558, 325.587 66.621, 323.250 66.046 C 320.913 65.471, 317.087 64.525, 314.750 63.945 C 312.413 63.365, 308.700 62.490, 306.500 62 C 304.300 61.510, 300.475 60.610, 298 60 C 295.525 59.390, 291.700 58.490, 289.500 58 C 287.300 57.510, 283.475 56.632, 281 56.049 C 278.525 55.465, 274.250 54.521, 271.500 53.951 C 268.750 53.380, 264.475 52.462, 262 51.911 C 251.802 49.639, 234.880 46.423, 220 43.930 C 216.425 43.331, 211.025 42.423, 208 41.914 C 177.693 36.805, 109.627 34.236, 99.438 37.817 M 103.207 56.434 C 101.396 57.091, 99.064 58.357, 98.023 59.248 C 96.983 60.139, 94.944 61.646, 93.492 62.597 C 88.074 66.147, 78.910 81.796, 75.102 94 C 73.815 98.125, 72.401 102.400, 71.961 103.500 C 71.520 104.600, 70.856 107.300, 70.485 109.500 C 70.113 111.700, 69.392 115.750, 68.881 118.500 C 66.209 132.882, 65.170 155.363, 66.547 169.001 C 68.053 183.910, 68.745 188.514, 69.930 191.500 C 70.366 192.600, 71.266 195.300, 71.930 197.500 C 78.030 217.716, 93.715 228.977, 106.730 222.485 C 114.150 218.783, 123.738 206.488, 129.572 193.195 C 131.335 189.177, 133.052 185.614, 133.389 185.278 C 133.725 184.942, 134 183.836, 134 182.820 C 134 181.804, 134.406 180.191, 134.903 179.236 C 136.181 176.776, 137.579 171.218, 140.997 155 C 142.376 148.455, 141.794 109.165, 140.204 101.500 C 137.276 87.384, 131.028 70.928, 127.477 67.981 C 126.665 67.307, 126 66.182, 126 65.481 C 126 63.675, 119.590 58.273, 115.341 56.498 C 111.199 54.767, 107.847 54.750, 103.207 56.434 M 147.250 55.972 C 144.322 57.226, 144.407 58.358, 147.969 65.525 C 149.601 68.811, 150.951 72.261, 150.969 73.191 C 150.986 74.121, 151.398 75.128, 151.885 75.429 C 152.371 75.729, 153.009 77.219, 153.302 78.738 C 153.596 80.257, 154.356 83.300, 154.993 85.500 C 161.678 108.596, 162.523 145.544, 156.961 171.500 C 156.371 174.250, 155.639 177.967, 155.334 179.759 C 155.029 181.552, 154.379 183.266, 153.890 183.568 C 153.400 183.871, 153 185.415, 153 187 C 153 188.585, 152.550 190.160, 152 190.500 C 151.450 190.840, 151 191.998, 151 193.073 C 151 194.148, 150.603 195.809, 150.117 196.764 C 149.631 197.719, 148.791 199.625, 148.250 201 C 143.748 212.453, 142.121 215.615, 137.515 221.873 C 131.294 230.322, 131.377 230.491, 142.500 232.085 C 148.155 232.896, 152.434 233.624, 165.500 236 C 173.357 237.429, 180.528 238.679, 188 239.923 C 191.575 240.518, 197.200 241.471, 200.500 242.041 C 203.800 242.610, 209.425 243.545, 213 244.118 C 216.575 244.691, 221.975 245.570, 225 246.072 C 238.327 248.285, 243.912 249.086, 249.951 249.653 C 259.749 250.573, 261.853 254.448, 260.418 268.922 C 259.002 283.196, 259.497 289.215, 262.535 294.656 C 264.849 298.801, 265.127 300.187, 264.607 304.972 C 263.486 315.274, 262.791 319.011, 261.894 319.565 C 261.402 319.869, 261 321.190, 261 322.500 C 261 323.810, 260.550 325.160, 260 325.500 C 259.450 325.840, 259 327.190, 259 328.500 C 259 329.810, 258.550 331.160, 258 331.500 C 257.450 331.840, 257 332.779, 257 333.587 C 257 335.751, 250.292 349.513, 248.521 350.983 C 247.684 351.677, 247 352.660, 247 353.168 C 247 356.059, 238.323 361, 233.247 361 C 230.919 361, 228.058 364.581, 226.056 370 C 225.345 371.925, 223.917 375.408, 222.882 377.739 C 221.847 380.071, 221 382.419, 221 382.959 C 221 383.498, 220.100 385.542, 219 387.500 C 217.900 389.458, 217 391.519, 217 392.079 C 217 392.639, 216.100 394.959, 215 397.236 C 212.684 402.030, 212.263 412.709, 214.250 416.264 C 217.600 422.258, 223.403 426.083, 232.500 428.294 C 238.923 429.856, 266.722 430.340, 270.369 428.954 C 285.807 423.086, 290.842 417.929, 300.848 397.739 C 304.781 389.800, 308 382.983, 308 382.590 C 308 382.196, 309.294 379.090, 310.875 375.687 C 312.457 372.284, 314.527 367.700, 315.476 365.500 C 316.425 363.300, 318.281 359.274, 319.601 356.554 C 320.920 353.833, 322 351.217, 322 350.741 C 322 350.264, 323.394 346.865, 325.098 343.187 C 326.801 339.509, 328.557 335.600, 329 334.500 C 329.443 333.400, 331.199 329.491, 332.902 325.813 C 334.606 322.135, 336 318.868, 336 318.552 C 336 318.236, 336.945 315.846, 338.100 313.239 C 339.254 310.633, 340.547 307.600, 340.973 306.500 C 341.398 305.400, 342.761 302.250, 344 299.500 C 345.239 296.750, 346.592 293.600, 347.007 292.500 C 356.073 268.436, 366.397 259.698, 389 256.957 C 396.123 256.093, 399.062 255.287, 400.745 253.733 C 403.340 251.338, 408 242.428, 408 239.863 C 408 238.903, 408.400 237.871, 408.890 237.568 C 409.379 237.266, 410.021 235.552, 410.317 233.759 C 410.613 231.967, 411.366 228.475, 411.990 226 C 418.231 201.257, 420.930 166.186, 418.534 141 C 416.522 119.863, 415.988 116.111, 414.894 115.435 C 414.402 115.131, 414 113.853, 414 112.596 C 414 109.081, 408.130 105, 403.073 105 C 401.448 105, 399.840 104.550, 399.500 104 C 399.160 103.450, 397.360 103, 395.500 103 C 393.640 103, 391.840 102.550, 391.500 102 C 391.160 101.450, 389.360 101, 387.500 101 C 385.640 101, 383.840 100.550, 383.500 100 C 383.160 99.450, 381.360 99, 379.500 99 C 377.640 99, 375.869 98.598, 375.565 98.106 C 375.261 97.614, 373.322 96.975, 371.256 96.687 C 369.190 96.399, 365.475 95.656, 363 95.036 C 360.525 94.416, 356.700 93.455, 354.500 92.900 C 352.300 92.345, 348.700 91.490, 346.500 91 C 344.300 90.510, 340.475 89.610, 338 89 C 335.525 88.390, 331.700 87.490, 329.500 87 C 327.300 86.510, 323.475 85.610, 321 85 C 318.525 84.390, 314.700 83.490, 312.500 83 C 310.300 82.510, 306.475 81.610, 304 81 C 301.525 80.390, 297.700 79.490, 295.500 79 C 291.366 78.080, 285.441 76.651, 278.500 74.900 C 276.300 74.345, 272.587 73.465, 270.250 72.945 C 260.461 70.768, 256.256 69.859, 252 69 C 249.525 68.501, 245.250 67.597, 242.500 66.993 C 233.110 64.929, 207.975 60.568, 196 58.924 C 192.425 58.434, 183.425 57.611, 176 57.096 C 168.575 56.580, 159.575 55.900, 156 55.584 C 152.425 55.267, 148.488 55.442, 147.250 55.972 M 101.412 77.692 C 95.573 78.468, 86.349 90.165, 83.031 101 C 82.272 103.475, 81.280 105.927, 80.826 106.450 C 80.372 106.973, 80 108.633, 80 110.141 C 80 111.649, 79.598 113.131, 79.106 113.435 C 76.973 114.753, 74.850 139.620, 75.515 155.500 C 76.583 181.003, 79.744 190.474, 89.119 196.270 C 97.773 201.621, 107.712 200.016, 114.660 192.148 C 117.487 188.946, 123 178.218, 123 175.919 C 123 174.928, 123.398 173.872, 123.885 173.571 C 124.371 173.271, 125.026 171.781, 125.340 170.262 C 125.654 168.743, 126.409 165.250, 127.018 162.500 C 128.172 157.294, 129.347 148.611, 130.572 136.250 C 131.477 127.117, 128.525 102.741, 125.912 97.764 C 125.410 96.809, 125 95.415, 125 94.667 C 125 90.343, 114.131 78.016, 110.293 77.986 C 109.307 77.979, 107.600 77.817, 106.500 77.627 C 105.400 77.437, 103.110 77.466, 101.412 77.692 M 101.738 100.747 C 101.527 101.161, 100.824 103.412, 100.177 105.750 C 93.496 129.872, 92.799 142.850, 96.635 171.708 C 97.632 179.206, 101.322 179.636, 104.401 172.612 C 113.155 152.643, 114.576 122.826, 107.566 106.221 C 105.860 102.181, 102.578 99.098, 101.738 100.747 M 435.333 114.574 C 435.001 115.440, 435.217 117.803, 435.813 119.824 C 439.874 133.595, 439.434 179.619, 434.985 206.500 C 434.056 212.112, 433.576 214.701, 431.095 227.500 C 430.562 230.250, 429.619 234.525, 429.001 237 C 428.383 239.475, 427.628 242.743, 427.323 244.262 C 427.019 245.781, 426.371 247.271, 425.885 247.571 C 425.398 247.872, 425 249.441, 425 251.059 L 425 254 439.346 254 C 450.580 254, 454.399 253.648, 456.947 252.377 C 460.273 250.717, 466 242.891, 466 240.004 C 466 239.122, 466.372 237.973, 466.826 237.450 C 467.280 236.928, 468.233 234.475, 468.942 232 C 469.652 229.525, 470.582 226.375, 471.009 225 C 475.130 211.740, 478.509 181.616, 477.597 166.253 C 475.540 131.575, 470.883 118.387, 459.263 114.341 C 453.607 112.371, 436.113 112.542, 435.333 114.574 M 244.327 306.217 C 236.804 320.268, 231.118 340.450, 234.500 341.103 C 236.076 341.407, 238.845 335.923, 242.526 325.202 C 247.845 309.715, 249.006 297.480, 244.327 306.217 M 458.200 359.200 C 457.540 359.860, 457 360.985, 457 361.700 C 457 362.415, 456.621 363, 456.157 363 C 454.904 363, 450.787 371.766, 448.139 380.071 C 446.735 384.474, 446.630 400.653, 448 401.500 C 448.550 401.840, 449 403.023, 449 404.129 C 449 407.827, 454.671 414.617, 460.212 417.553 C 466.658 420.967, 476.458 421.482, 482.056 418.701 C 490.282 414.613, 505.736 399.383, 505.936 395.165 C 505.996 393.915, 494.204 382.005, 492.903 382.002 C 492.575 382.001, 491.225 381.048, 489.903 379.885 C 485.411 375.931, 461.123 358, 460.259 358 C 459.787 358, 458.860 358.540, 458.200 359.200" stroke="none" fill="#265237" fill-rule="evenodd"/>
</svg>